<svg id="Layer_1" data-name="Layer 1" xmlns="http://www.w3.org/2000/svg" viewBox="0 0 64 64"><defs><style>.cls-1{fill:#e1e6e9;}.cls-2{fill:#14ae60;}.cls-3{fill:#13cb6e;}</style></defs><title>digital marketing, marketing, content marketing, call, communication, conversation</title><path class="cls-1" d="M53.82,41.18,51.54,38.9a7.93,7.93,0,0,0-11.22,0h0a2.73,2.73,0,0,0-.79,1.91h0a2.69,2.69,0,0,1-2.3,2.69A15,15,0,0,1,20.5,26.77a2.69,2.69,0,0,1,2.69-2.3h0a2.73,2.73,0,0,0,1.91-.79h0a7.93,7.93,0,0,0,0-11.22l-2.28-2.28a7.27,7.27,0,0,0-11.19,1A21.78,21.78,0,0,0,8.05,24.63,33.78,33.78,0,0,0,39.37,56a21.78,21.78,0,0,0,13.48-3.58A7.27,7.27,0,0,0,53.82,41.18Z"/><path class="cls-2" d="M34.82,29.33v5.15a.52.52,0,0,0,.88.37l5.52-5.52Z"/><rect class="cls-3" x="32" y="15.46" width="24" height="16.5" rx="1.66"/><path class="cls-2" d="M39.8,23.71a1.32,1.32,0,1,1-1.32-1.32A1.32,1.32,0,0,1,39.8,23.71Z"/><path class="cls-2" d="M45.32,23.71A1.32,1.32,0,1,1,44,22.39,1.32,1.32,0,0,1,45.32,23.71Z"/><path class="cls-2" d="M50.83,23.71a1.32,1.32,0,1,1-1.31-1.32A1.32,1.32,0,0,1,50.83,23.71Z"/></svg>