<svg id="Layer_1" data-name="Layer 1" xmlns="http://www.w3.org/2000/svg" viewBox="0 0 64 64"><defs><style>.cls-1{fill:#e1e6e9;}.cls-2{fill:#d4dade;}.cls-3{fill:#13cb6e;}.cls-4{fill:#14ae60;}</style></defs><title>digital marketing, marketing, content marketing, puzzle, piece, strategy</title><rect class="cls-1" x="8" y="8" width="48" height="48" rx="9.17"/><path class="cls-2" d="M32,17V8H17.17A9.18,9.18,0,0,0,8,17.17V32h9A3,3,0,0,0,23,32h9V23A3,3,0,0,1,32,17Z"/><path class="cls-3" d="M32,47v9H46.83A9.18,9.18,0,0,0,56,46.83V32H47A3,3,0,0,0,41,32H32v9A3,3,0,0,1,32,47Z"/><path class="cls-4" d="M49,34h7V32H48.17A3,3,0,0,1,49,34Z"/><path class="cls-4" d="M34,34h9a3,3,0,0,1,3-3,3.27,3.27,0,0,1,.83.13A3,3,0,0,0,41,32H32v9a3,3,0,0,1,2,.79Z"/><path class="cls-4" d="M34,49a3,3,0,0,0,.83-5.79A3.27,3.27,0,0,1,35,44a3,3,0,0,1-3,3v9h2Z"/></svg>