<svg id="Layer_1" data-name="Layer 1" xmlns="http://www.w3.org/2000/svg" viewBox="0 0 64 64"><defs><style>.cls-1{fill:#e1e6e9;}.cls-2{fill:#13cb6e;}.cls-3{fill:#14ae60;}.cls-4{fill:#d4dade;}.cls-5{fill:#fff;}</style></defs><title>content marketing, digital marketing, marketing, bug, alert, browser, web</title><rect class="cls-1" x="8" y="11.44" width="48" height="41.13" rx="4.09"/><path class="cls-2" d="M51.91,11.44H12.09A4.09,4.09,0,0,0,8,15.53v1.91H56V15.53A4.09,4.09,0,0,0,51.91,11.44Z"/><rect class="cls-3" x="12.66" y="13.82" width="1.23" height="1.23"/><rect class="cls-3" x="15.19" y="13.82" width="1.23" height="1.23"/><rect class="cls-3" x="17.71" y="13.82" width="1.23" height="1.23"/><rect class="cls-3" x="8" y="17.44" width="48" height="0.65"/><path class="cls-4" d="M56,20.88H10.79A2.79,2.79,0,0,1,8,18.08H56Z"/><path class="cls-3" d="M32.61,33.29H31.39a3,3,0,0,1-3-3V28.52A3.64,3.64,0,0,1,32,24.88h0a3.64,3.64,0,0,1,3.64,3.64v1.75A3,3,0,0,1,32.61,33.29Z"/><path class="cls-5" d="M29.14,32.4h-.81a3.17,3.17,0,0,1-3.16-3.16v-.81a1.09,1.09,0,1,0-2.17,0v.81a5.35,5.35,0,0,0,3.74,5.09h-3a5.36,5.36,0,0,1-2.6-.68l-.32-.18a1.09,1.09,0,0,0-1.06,1.9l.32.17a7.46,7.46,0,0,0,3.66,1h4.2a1.08,1.08,0,0,0,.67-1.93h.56a1.09,1.09,0,1,0,0-2.17Z"/><path class="cls-5" d="M26.61,37.7h-.8A5.34,5.34,0,0,0,20.47,43v.81a1.09,1.09,0,1,0,2.17,0V43a3.17,3.17,0,0,1,3.17-3.16h.8a1.09,1.09,0,1,0,0-2.17Z"/><path class="cls-5" d="M34.86,32.4h.81a3.17,3.17,0,0,0,3.16-3.16v-.81a1.09,1.09,0,1,1,2.17,0v.81a5.35,5.35,0,0,1-3.74,5.09h3a5.36,5.36,0,0,0,2.6-.68l.32-.18a1.09,1.09,0,0,1,1.06,1.9l-.32.17a7.46,7.46,0,0,1-3.66,1h-4.2a1.08,1.08,0,0,1-.67-1.93h-.56a1.09,1.09,0,1,1,0-2.17Z"/><path class="cls-5" d="M37.39,37.7h.8A5.34,5.34,0,0,1,43.53,43v.81a1.09,1.09,0,1,1-2.17,0V43a3.17,3.17,0,0,0-3.17-3.16h-.8a1.09,1.09,0,1,1,0-2.17Z"/><path class="cls-2" d="M33.26,46.46H30.74a6.25,6.25,0,0,1-6.25-6.25V36.6A7.51,7.51,0,0,1,32,29.09h0a7.51,7.51,0,0,1,7.51,7.51v3.61A6.25,6.25,0,0,1,33.26,46.46Z"/><rect class="cls-5" x="30.78" y="32.57" width="2.45" height="6.51" rx="0.34"/><rect class="cls-5" x="30.78" y="40.53" width="2.45" height="2.45" rx="0.34"/></svg>