<?xml version="1.0" encoding="utf-8"?>
<!-- Generator: Adobe Illustrator 21.0.2, SVG Export Plug-In . SVG Version: 6.00 Build 0)  -->
<svg version="1.1" id="Слой_1" xmlns="http://www.w3.org/2000/svg" xmlns:xlink="http://www.w3.org/1999/xlink" x="0px" y="0px"
	 width="118px" height="110px" viewBox="0 0 118 110" style="enable-background:new 0 0 118 110;" xml:space="preserve">
<style type="text/css">
	.st0{fill:#BAC1C5;}
	.st1{fill:#BEC5CC;}
	.st2{fill:#FFFFFF;}
	.st3{fill:#13CB6E;}
	.st4{fill:#F3F7F9;}
</style>
<g>
	<path class="st0" d="M90,2c3.3,0,6,2.7,6,6v94c0,3.3-2.7,6-6,6H28c-3.3,0-6-2.7-6-6V8c0-3.3,2.7-6,6-6H90 M90,0H28
		c-4.4,0-8,3.6-8,8v94c0,4.4,3.6,8,8,8h62c4.4,0,8-3.6,8-8V8C98,3.6,94.4,0,90,0L90,0z"/>
</g>
<g>
	<rect x="20" y="17" class="st1" width="78" height="2"/>
</g>
<g>
	<rect x="30" y="27" class="st1" width="58" height="1"/>
</g>
<g>
	<rect x="30" y="36" class="st1" width="58" height="1"/>
</g>
<g>
	<rect x="30" y="45" class="st1" width="58" height="1"/>
</g>
<g>
	<rect x="30" y="54" class="st1" width="58" height="1"/>
</g>
<g>
	<rect x="30" y="63" class="st1" width="58" height="1"/>
</g>
<g>
	<rect x="30" y="72" class="st1" width="58" height="1"/>
</g>
<g>
	<rect x="30" y="81" class="st1" width="58" height="1"/>
</g>
<g>
	<rect x="30" y="90" class="st1" width="58" height="1"/>
</g>
<g>
	<rect x="30" y="99" class="st1" width="58" height="1"/>
</g>
<g>
	<path class="st2" d="M97,57c-8.3,0-15,6.8-15,15s6.8,15,15,15s15-6.8,15-15S105.3,57,97,57z"/>
	<path class="st3" d="M97,57c-8.3,0-15,6.8-15,15s6.8,15,15,15s15-6.8,15-15S105.3,57,97,57z M104.5,73.2h-6.3v6.3h-2.4v-6.3h-6.3
		v-2.4h6.3v-6.3h2.5v6.3h6.2V73.2z"/>
</g>
<path class="st2" d="M97,57c-8.3,0-15,6.8-15,15s6.8,15,15,15s15-6.8,15-15S105.3,57,97,57z"/>
<path class="st4" d="M97,51c-11.6,0-21,9.5-21,21s9.4,21,21,21s21-9.4,21-21S108.6,51,97,51z"/>
<path class="st3" d="M97,57c-8.3,0-15,6.8-15,15s6.8,15,15,15s15-6.8,15-15S105.3,57,97,57z M104.5,73.2h-6.3v6.3h-2.4v-6.3h-6.3
	v-2.4h6.3v-6.3h2.5v6.3h6.2V73.2z"/>
</svg>
