<?xml version="1.0" encoding="utf-8"?>
<!-- Generator: Adobe Illustrator 21.0.2, SVG Export Plug-In . SVG Version: 6.00 Build 0)  -->
<svg version="1.1" id="Слой_1" xmlns="http://www.w3.org/2000/svg" xmlns:xlink="http://www.w3.org/1999/xlink" x="0px" y="0px"
	 width="69px" height="70px" viewBox="0 0 69 70" style="enable-background:new 0 0 69 70;" xml:space="preserve">
<style type="text/css">
	.st0{fill:#44545C;}
	.st1{fill:#FFFFFF;}
	.st2{fill:#E1E6E9;}
	.st3{opacity:0.7;fill:url(#SVGID_1_);enable-background:new    ;}
	.st4{fill:#B5C0C7;}
	.st5{fill:#F7F9F8;}
	.st6{fill:#13CB6E;}
</style>
<path class="st0" d="M62,37H8c-1.7,0-3-1.3-3-3V3c0-1.7,1.3-3,3-3h54c1.7,0,3,1.3,3,3v31C65,35.7,63.7,37,62,37z"/>
<rect x="8" y="3" class="st1" width="54" height="31"/>
<rect x="12" y="7" class="st2" width="2" height="23"/>
<rect x="16" y="7" class="st2" width="2" height="23"/>
<rect x="20" y="7" class="st2" width="2" height="23"/>
<rect x="24" y="7" class="st2" width="2" height="23"/>
<rect x="28" y="7" class="st2" width="2" height="23"/>
<rect x="32" y="7" class="st2" width="2" height="23"/>
<rect x="36" y="7" class="st2" width="2" height="23"/>
<rect x="40" y="7" class="st2" width="2" height="23"/>
<rect x="44" y="7" class="st2" width="2" height="23"/>
<rect x="48" y="7" class="st2" width="2" height="23"/>
<rect x="52" y="7" class="st2" width="2" height="23"/>
<path class="st2" d="M62,70H8c-1.7,0-3-1.3-3-3V40c0-1.7,1.3-3,3-3h54c1.7,0,3,1.3,3,3v27C65,68.7,63.7,70,62,70z"/>
<linearGradient id="SVGID_1_" gradientUnits="userSpaceOnUse" x1="5" y1="55.5349" x2="56.9654" y2="55.5349">
	<stop  offset="0" style="stop-color:#CED4D8"/>
	<stop  offset="0.953" style="stop-color:#C1C7D0;stop-opacity:0.1"/>
</linearGradient>
<path class="st3" d="M5,41.1V67c0,1.7,1.3,3,3,3h49C42.8,56,25,45.9,5,41.1z"/>
<path class="st1" d="M42,67H28c-0.6,0-1-0.4-1-1v-6c0-0.6,0.4-1,1-1h14c0.6,0,1,0.4,1,1v6C43,66.6,42.6,67,42,67z"/>
<rect x="10" y="36" class="st2" width="4" height="1"/>
<rect x="10" y="37" class="st4" width="4" height="1"/>
<rect x="56" y="36" class="st2" width="4" height="1"/>
<rect x="56" y="37" class="st4" width="4" height="1"/>
<rect x="26" y="54" class="st5" width="18" height="2"/>
<rect x="23" y="54" class="st5" width="2" height="2"/>
<rect x="20" y="54" class="st5" width="2" height="2"/>
<rect x="17" y="54" class="st5" width="2" height="2"/>
<rect x="14" y="54" class="st5" width="2" height="2"/>
<rect x="14" y="51" class="st5" width="6" height="2"/>
<rect x="14" y="42" class="st5" width="2" height="2"/>
<rect x="14" y="45" class="st5" width="3" height="2"/>
<rect x="14" y="48" class="st5" width="5" height="2"/>
<rect x="17" y="42" class="st5" width="3" height="2"/>
<rect x="51" y="51" class="st5" width="5" height="2"/>
<rect x="51" y="45" class="st5" width="5" height="2"/>
<rect x="53" y="48" class="st5" width="3" height="2"/>
<rect x="54" y="42" class="st5" width="2" height="2"/>
<rect x="51" y="42" class="st5" width="2" height="2"/>
<rect x="48" y="42" class="st5" width="2" height="2"/>
<rect x="45" y="42" class="st5" width="2" height="2"/>
<rect x="42" y="42" class="st5" width="2" height="2"/>
<rect x="39" y="42" class="st5" width="2" height="2"/>
<rect x="36" y="42" class="st5" width="2" height="2"/>
<rect x="33" y="42" class="st5" width="2" height="2"/>
<rect x="30" y="42" class="st5" width="2" height="2"/>
<rect x="27" y="42" class="st5" width="2" height="2"/>
<rect x="24" y="42" class="st5" width="2" height="2"/>
<rect x="21" y="42" class="st5" width="2" height="2"/>
<rect x="48" y="54" class="st5" width="2" height="2"/>
<rect x="51" y="54" class="st5" width="2" height="2"/>
<rect x="54" y="54" class="st5" width="2" height="2"/>
<rect x="45" y="54" class="st5" width="2" height="2"/>
<polygon class="st5" points="63,58 12,58 12,58 63,58 "/>
<rect x="20" y="48" class="st5" width="2" height="2"/>
<rect x="21" y="51" class="st5" width="2" height="2"/>
<rect x="23" y="48" class="st5" width="2" height="2"/>
<rect x="24" y="51" class="st5" width="2" height="2"/>
<rect x="26" y="48" class="st5" width="2" height="2"/>
<rect x="27" y="51" class="st5" width="2" height="2"/>
<rect x="29" y="48" class="st5" width="2" height="2"/>
<rect x="18" y="45" class="st5" width="2" height="2"/>
<rect x="21" y="45" class="st5" width="2" height="2"/>
<rect x="24" y="45" class="st5" width="2" height="2"/>
<rect x="27" y="45" class="st5" width="2" height="2"/>
<rect x="30" y="45" class="st5" width="2" height="2"/>
<rect x="33" y="45" class="st5" width="2" height="2"/>
<rect x="36" y="45" class="st5" width="2" height="2"/>
<rect x="39" y="45" class="st5" width="2" height="2"/>
<rect x="42" y="45" class="st5" width="2" height="2"/>
<rect x="45" y="45" class="st5" width="2" height="2"/>
<rect x="48" y="45" class="st5" width="2" height="2"/>
<rect x="30" y="51" class="st5" width="2" height="2"/>
<rect x="32" y="48" class="st5" width="2" height="2"/>
<rect x="33" y="51" class="st5" width="2" height="2"/>
<rect x="35" y="48" class="st5" width="2" height="2"/>
<rect x="36" y="51" class="st5" width="2" height="2"/>
<rect x="38" y="48" class="st5" width="2" height="2"/>
<rect x="39" y="51" class="st5" width="2" height="2"/>
<rect x="41" y="48" class="st5" width="2" height="2"/>
<rect x="42" y="51" class="st5" width="2" height="2"/>
<rect x="44" y="48" class="st5" width="2" height="2"/>
<rect x="47" y="48" class="st5" width="2" height="2"/>
<rect x="50" y="48" class="st5" width="2" height="2"/>
<rect x="45" y="51" class="st5" width="2" height="2"/>
<rect x="48" y="51" class="st5" width="2" height="2"/>
<rect x="12" y="24.8" class="st6" width="2" height="5.2"/>
<rect x="16" y="21.6" class="st6" width="2" height="8.4"/>
<rect x="20" y="23.7" class="st6" width="2" height="6.3"/>
<rect x="24" y="20.6" class="st6" width="2" height="9.4"/>
<rect x="28" y="22.7" class="st6" width="2" height="7.3"/>
<rect x="32" y="19.5" class="st6" width="2" height="10.5"/>
<rect x="36" y="18.5" class="st6" width="2" height="11.5"/>
<rect x="40" y="20.6" class="st6" width="2" height="9.4"/>
<rect x="44" y="16.4" class="st6" width="2" height="13.6"/>
<rect x="48" y="14.3" class="st6" width="2" height="15.7"/>
<rect x="52" y="12.2" class="st6" width="2" height="17.8"/>
<rect x="56" y="7" class="st6" width="2" height="23"/>
</svg>
