<?xml version="1.0" encoding="utf-8"?>
<!-- Generator: Adobe Illustrator 21.0.2, SVG Export Plug-In . SVG Version: 6.00 Build 0)  -->
<svg version="1.1" id="Слой_1" xmlns="http://www.w3.org/2000/svg" xmlns:xlink="http://www.w3.org/1999/xlink" x="0px" y="0px"
	 width="70.6px" height="70px" viewBox="0 0 70.6 70" style="enable-background:new 0 0 70.6 70;" xml:space="preserve">
<style type="text/css">
	.st0{opacity:0.7;fill:#13CB6E;enable-background:new    ;}
	.st1{fill:#13CB6E;}
	.st2{fill:#FFFFFF;}
	.st3{opacity:5.000000e-02;fill:url(#SVGID_1_);enable-background:new    ;}
</style>
<path class="st0" d="M29.7,2.8c2.7-3.6,8.1-3.6,10.9,0c1.8,2.4,5,3.3,7.8,2.3c4.2-1.5,8.8,1.4,9.1,5.9c0.2,3,2.4,5.5,5.3,6.1
	c4.4,1,6.6,5.9,4.5,9.9c-1.4,2.6-0.9,5.9,1.2,8c3.2,3.2,2.4,8.6-1.5,10.8c-2.6,1.5-4,4.4-3.4,7.4c0.9,4.4-2.6,8.5-7.1,8.2
	c-3-0.2-5.7,1.6-6.8,4.4c-1.6,4.2-6.8,5.7-10.4,3.1c-2.4-1.8-5.7-1.8-8.1,0c-3.6,2.7-8.8,1.2-10.4-3.1c-1.1-2.8-3.8-4.6-6.8-4.4
	c-4.5,0.3-8-3.8-7.1-8.2c0.6-2.9-0.8-5.9-3.4-7.4c-4-2.2-4.7-7.6-1.5-10.8c2.1-2.1,2.6-5.4,1.2-8C0.8,23,3.1,18,7.5,17
	c2.9-0.7,5.1-3.1,5.3-6.1c0.4-4.5,4.9-7.4,9.1-5.9C24.7,6.1,27.9,5.1,29.7,2.8z"/>
<ellipse class="st1" cx="35.1" cy="35.1" rx="22" ry="22"/>
<polygon class="st2" points="32.1,42.8 25.1,35.8 27.6,33.3 32.1,37.9 43,27.4 45.1,29.8 "/>
<linearGradient id="SVGID_1_" gradientUnits="userSpaceOnUse" x1="-0.1807" y1="42.1035" x2="55.6884" y2="42.1035">
	<stop  offset="0" style="stop-color:#000000"/>
	<stop  offset="0.3392" style="stop-color:#040404;stop-opacity:0.6947"/>
	<stop  offset="0.6748" style="stop-color:#100E0E;stop-opacity:0.3926"/>
	<stop  offset="1" style="stop-color:#231F20;stop-opacity:0.1"/>
</linearGradient>
<path class="st3" d="M11.6,14.1c-1,1.4-2.4,2.5-4.2,2.9c-4.4,1-6.6,5.9-4.5,9.9c1.4,2.6,0.9,5.9-1.2,8c-3.2,3.2-2.4,8.6,1.5,10.8
	c2.6,1.5,4,4.4,3.4,7.4c-0.9,4.4,2.6,8.5,7.1,8.2c3-0.2,5.7,1.6,6.8,4.4c1.6,4.2,6.8,5.7,10.4,3.1c2.4-1.8,5.7-1.8,8.1,0
	c3.6,2.7,8.8,1.1,10.4-3.1c1-2.6,3.4-4.2,6.1-4.4C48.4,40,32.2,22.8,11.6,14.1z"/>
</svg>
