<?xml version="1.0" encoding="utf-8"?>
<!-- Generator: Adobe Illustrator 21.0.2, SVG Export Plug-In . SVG Version: 6.00 Build 0)  -->
<svg version="1.1" id="Слой_1" xmlns="http://www.w3.org/2000/svg" xmlns:xlink="http://www.w3.org/1999/xlink" x="0px" y="0px"
	 width="70px" height="70px" viewBox="0 0 70 70" style="enable-background:new 0 0 70 70;" xml:space="preserve">
<style type="text/css">
	.st0{fill:#E1E6E9;}
	.st1{fill:#B5C0C7;}
	.st2{fill:#FFFFFF;}
	.st3{fill:#13CB6E;}
	.st4{fill:#42D58B;}
	.st5{fill:#F7F8F8;}
	.st6{fill:#E3E6E8;}
	.st7{fill:#C1C8CB;}
	.st8{opacity:0.2;fill:#65757D;enable-background:new    ;}
	.st9{fill:url(#SVGID_1_);}
</style>
<g id="Слой_1_1_">
</g>
<path class="st0" d="M70,23.7c0-8.1-6.4-14.6-14.4-15l0,0H15v17.9h25.3c0.1,0.5,0.2,1,0.4,1.5v23.2H70V23.7L70,23.7L70,23.7z"/>
<rect x="30" y="26" class="st0" width="40" height="29"/>
<path class="st1" d="M30,23c-0.4-7.9-7-14.3-15-14.3S0.4,15.1,0,23l0,0v32h30V23L30,23z"/>
<path class="st2" d="M27.2,15H16L6,25v24h24V23l0,0C29.8,20,28.8,17.3,27.2,15z"/>
<rect x="34" y="55" class="st3" width="4" height="15"/>
<rect x="30" y="55" class="st4" width="4" height="15"/>
<g>
	<polygon class="st5" points="6,25 16,15 16,25 	"/>
</g>
<g>
	<polygon class="st6" points="21.8,15 16,25 16,15 	"/>
</g>
<rect x="12" y="31" class="st7" width="18" height="2"/>
<rect x="12" y="35" class="st7" width="18" height="2"/>
<rect x="12" y="39" class="st7" width="10" height="2"/>
<path class="st8" d="M30,23c-0.4-7.9-7-14.3-15-14.3c-0.5,0-1,0-1.5,0.1C20.8,9.5,26.6,15.6,27,23l0,0v26h3V23L30,23z"/>
<linearGradient id="SVGID_1_" gradientUnits="userSpaceOnUse" x1="15" y1="31.85" x2="64.9692" y2="31.85">
	<stop  offset="0" style="stop-color:#CFD6DB"/>
	<stop  offset="0.4911" style="stop-color:#CBD2D8;stop-opacity:0.5362"/>
	<stop  offset="0.953" style="stop-color:#C1C7D0;stop-opacity:0.1"/>
</linearGradient>
<path class="st9" d="M30,26.6V55h35c-4-17.7-12.8-33.6-25-46.3H15c8,0,14.6,6.4,15,14.3v3V26.6z"/>
<path class="st3" d="M51,6l-2-2.7L51,1H40v4v1v25c0,2.2,1.8,4,4,4s4-1.8,4-4s-1.8-4-4-4c-0.7,0-1.4,0.2-2,0.6V6H51z M44,29
	c1.1,0,2,0.9,2,2s-0.9,2-2,2s-2-0.9-2-2S42.9,29,44,29z"/>
</svg>
