<?xml version="1.0" encoding="utf-8"?>
<!-- Generator: Adobe Illustrator 21.0.2, SVG Export Plug-In . SVG Version: 6.00 Build 0)  -->
<svg version="1.1" id="Слой_1" xmlns="http://www.w3.org/2000/svg" xmlns:xlink="http://www.w3.org/1999/xlink" x="0px" y="0px"
	 width="73.9px" height="70px" viewBox="0 0 73.9 70" style="enable-background:new 0 0 73.9 70;" xml:space="preserve">
<style type="text/css">
	.st0{fill:#E1E6E9;}
	.st1{fill:#B5C0C7;}
	.st2{fill:#13CB6E;}
	.st3{fill:#FAA83B;}
	.st4{fill:#FF991F;}
	.st5{opacity:0.7;fill:url(#SVGID_1_);enable-background:new    ;}
	.st6{opacity:0.7;fill:url(#SVGID_2_);enable-background:new    ;}
	.st7{fill:#FFFFFF;}
	.st8{opacity:0.7;fill:url(#SVGID_3_);enable-background:new    ;}
	.st9{opacity:0.15;fill:#231F20;enable-background:new    ;}
	.st10{opacity:0.1;fill:#231F20;enable-background:new    ;}
</style>
<path class="st0" d="M70.9,0h-54c-1.7,0-3,1.3-3,3v9v5v3h3h54h3v-3v-5V3C73.9,1.3,72.6,0,70.9,0z"/>
<path class="st0" d="M17,68h54c1.7,0,3-1.3,3-3v-9v-5v-3h-3H17h-3v3v5v9C14,66.6,15.3,68,17,68z"/>
<polygon class="st1" points="71,20 17.9,20 19,22 17.9,24 71,24 70.1,22 "/>
<circle class="st2" cx="65" cy="10" r="3"/>
<circle class="st3" cx="58" cy="10" r="1"/>
<circle class="st4" cx="54" cy="10" r="1"/>
<rect x="13.9" y="24" class="st0" width="60" height="20"/>
<circle class="st2" cx="65" cy="34" r="3"/>
<g>
	<polygon class="st1" points="71,44 17.9,44 19,46 17.9,48 71,48 70.1,46 	"/>
	<polygon class="st1" points="18.1,70 70.1,70 71,68 17,68 	"/>
</g>
<circle class="st2" cx="65" cy="58" r="3"/>
<linearGradient id="SVGID_1_" gradientUnits="userSpaceOnUse" x1="13.9" y1="34" x2="65.5104" y2="34">
	<stop  offset="0" style="stop-color:#D3D9DD"/>
	<stop  offset="0.4471" style="stop-color:#CFD5DA;stop-opacity:0.5778"/>
	<stop  offset="0.8895" style="stop-color:#C3C9D2;stop-opacity:0.1599"/>
	<stop  offset="0.953" style="stop-color:#C1C7D0;stop-opacity:0.1"/>
</linearGradient>
<path class="st5" d="M13.9,44h51.6c-3.7-7.5-8.6-14.2-14.5-20H13.9V44z"/>
<linearGradient id="SVGID_2_" gradientUnits="userSpaceOnUse" x1="13.9" y1="12.2361" x2="46.6004" y2="12.2361">
	<stop  offset="0" style="stop-color:#D3D9DD"/>
	<stop  offset="0.4471" style="stop-color:#CFD5DA;stop-opacity:0.5778"/>
	<stop  offset="0.8895" style="stop-color:#C3C9D2;stop-opacity:0.1599"/>
	<stop  offset="0.953" style="stop-color:#C1C7D0;stop-opacity:0.1"/>
</linearGradient>
<path class="st6" d="M13.9,4.5V12v5v3h3h29.7C37.4,12.3,26.2,6.9,13.9,4.5z"/>
<g>
	<rect x="17.9" y="6" class="st7" width="1" height="8"/>
	<rect x="22" y="6" class="st7" width="1" height="8"/>
	<rect x="26.1" y="6" class="st7" width="1" height="8"/>
	<rect x="30.2" y="6" class="st7" width="1" height="8"/>
	<rect x="34.3" y="6" class="st7" width="1" height="8"/>
	<rect x="38.4" y="6" class="st7" width="1" height="8"/>
	<rect x="42.5" y="6" class="st7" width="1" height="8"/>
</g>
<g>
	<rect x="17.9" y="30" class="st7" width="1" height="8"/>
	<rect x="22" y="30" class="st7" width="1" height="8"/>
	<rect x="26.1" y="30" class="st7" width="1" height="8"/>
	<rect x="30.2" y="30" class="st7" width="1" height="8"/>
	<rect x="34.3" y="30" class="st7" width="1" height="8"/>
	<rect x="38.4" y="30" class="st7" width="1" height="8"/>
	<rect x="42.5" y="30" class="st7" width="1" height="8"/>
</g>
<linearGradient id="SVGID_3_" gradientUnits="userSpaceOnUse" x1="14" y1="58" x2="72.4755" y2="58">
	<stop  offset="0" style="stop-color:#D3D9DD"/>
	<stop  offset="0.4471" style="stop-color:#CFD5DA;stop-opacity:0.5778"/>
	<stop  offset="0.8895" style="stop-color:#C3C9D2;stop-opacity:0.1599"/>
	<stop  offset="0.953" style="stop-color:#C1C7D0;stop-opacity:0.1"/>
</linearGradient>
<path class="st8" d="M72.5,67.6c-0.8-6.9-2.6-13.5-5.1-19.6H17h-3v3v5v9c0,1.6,1.3,3,3,3h54C71.5,68,72,67.9,72.5,67.6z"/>
<g>
	<rect x="17.9" y="54" class="st7" width="1" height="8"/>
	<rect x="22" y="54" class="st7" width="1" height="8"/>
	<rect x="26.1" y="54" class="st7" width="1" height="8"/>
	<rect x="30.2" y="54" class="st7" width="1" height="8"/>
	<rect x="34.3" y="54" class="st7" width="1" height="8"/>
	<rect x="38.4" y="54" class="st7" width="1" height="8"/>
	<rect x="42.5" y="54" class="st7" width="1" height="8"/>
</g>
<g>
	<path class="st2" d="M13,51.8C5.1,49,0,42.2,0,34.5v-11l14-5.7l14,5.7v11c0,7.7-5.1,14.5-13,17.3l-1,0.4L13,51.8z"/>
	<g>
		<circle class="st7" cx="14" cy="35" r="7"/>
		<polygon class="st2" points="12.8,38.5 9.9,35.6 10.8,34.4 12.8,36.5 17.5,32.1 18.4,33 		"/>
	</g>
	<path class="st9" d="M25,34.5v-9L14,21v28C20.6,46.6,25,40.9,25,34.5z"/>
</g>
<g>
	<path class="st2" d="M13,51.8C5.1,49,0,42.2,0,34.5v-11l14-5.7l14,5.7v11c0,7.7-5.1,14.5-13,17.3l-1,0.4L13,51.8z"/>
	<g>
		<circle class="st7" cx="14" cy="35" r="7"/>
		<polygon class="st2" points="12.8,38.5 9.9,35.6 10.8,34.4 12.8,36.5 17.5,32.1 18.4,33 		"/>
	</g>
	<path class="st10" d="M25,34.5v-9L14,21v28C20.6,46.6,25,40.9,25,34.5z"/>
</g>
<circle class="st3" cx="58" cy="34" r="1"/>
<circle class="st4" cx="54" cy="34" r="1"/>
<circle class="st3" cx="58" cy="58" r="1"/>
<circle class="st4" cx="54" cy="58" r="1"/>
</svg>
