<svg id="Layer_1" data-name="Layer 1" xmlns="http://www.w3.org/2000/svg" viewBox="0 0 64 64"><defs><style>.cls-1{fill:#e1e6e9;}.cls-2{fill:#d4dade;}.cls-3{fill:#13cb6e;}.cls-4{fill:#fff;}</style></defs><title>digital marketing, marketing, content marketing, email, mail</title><path class="cls-1" d="M16.37,23H47.63A8.37,8.37,0,0,1,56,31.37V53.12A2.88,2.88,0,0,1,53.12,56H10.88A2.88,2.88,0,0,1,8,53.12V31.37A8.37,8.37,0,0,1,16.37,23Z"/><path class="cls-2" d="M56,53.12V29.38A6.39,6.39,0,0,0,49.61,23H32.24c-2.43,6.73-4.61,13.43-4.61,14.19v4.14a2.6,2.6,0,0,0,1.29,2.24l19.23,11.1a10,10,0,0,0,5,1.33h0A2.88,2.88,0,0,0,56,53.12Z"/><path class="cls-3" d="M56,29.82a9.74,9.74,0,0,0-4.87-8.44L33,10.91a2,2,0,0,0-2,0L12.87,21.38A9.74,9.74,0,0,0,8,29.82s0,0,0,.06S8,30,8,30a2.57,2.57,0,0,0,1.29,2.23L31,44.79a2,2,0,0,0,2,0L54.71,32.25A2.57,2.57,0,0,0,56,30c0-.05,0-.09,0-.14S56,29.84,56,29.82Z"/><path class="cls-4" d="M32,32.47a3.41,3.41,0,1,1,3.41-3.41A3.41,3.41,0,0,1,32,32.47Zm0-4.82a1.41,1.41,0,1,0,1.41,1.41A1.41,1.41,0,0,0,32,27.65Z"/><path class="cls-4" d="M32,36.88a7.82,7.82,0,1,1,7.81-7.82,1,1,0,1,1-2,0,5.82,5.82,0,1,0-2.39,4.7,1,1,0,1,1,1.18,1.62A7.74,7.74,0,0,1,32,36.88Z"/><path class="cls-4" d="M36.61,32.47a3.21,3.21,0,0,1-3.21-3.21l2-.06v.06a1.21,1.21,0,1,0,2.41,0v-.2h2v.2A3.21,3.21,0,0,1,36.61,32.47Z"/></svg>