<svg id="Layer_1" data-name="Layer 1" xmlns="http://www.w3.org/2000/svg" viewBox="0 0 64 64"><defs><style>.cls-1{fill:#14ae60;}.cls-2{fill:#13cb6e;}.cls-3{fill:#e1e6e9;}.cls-4{fill:#d4dade;}</style></defs><title>marketing, content marketing, digital marketing, </title><rect class="cls-1" x="13.63" y="23.5" width="36.74" height="8.5" rx="1"/><path class="cls-2" d="M50.37,24.5a1,1,0,0,0-1-1H14.63a1,1,0,0,0-1,1v5H31a1,1,0,0,0,1-1v-2a1.44,1.44,0,0,1,1.44-1.44H50.37Z"/><path class="cls-3" d="M47.72,32H16.28l11,14.9a2.52,2.52,0,0,1,.5,1.52V53.1a.63.63,0,0,0,.45.6l6.83,2.06a.63.63,0,0,0,.81-.6v-6.4a2.55,2.55,0,0,1,.5-1.53Z"/><path class="cls-4" d="M20.25,34h2.54A9.21,9.21,0,0,1,32,43.21v8.36a4.37,4.37,0,0,0,3.11,4.19h0a.63.63,0,0,0,.81-.6v-6.4a2.55,2.55,0,0,1,.5-1.53L47.72,32H16.28A4.94,4.94,0,0,0,20.25,34Z"/><path class="cls-2" d="M32.4,20.39l5.14-6.27a.52.52,0,0,0-.4-.85H35.92a.51.51,0,0,1-.51-.51V9.13A1.12,1.12,0,0,0,34.29,8H29.71a1.12,1.12,0,0,0-1.12,1.13v3.63a.51.51,0,0,1-.51.51H26.86a.52.52,0,0,0-.4.85l5.14,6.27A.51.51,0,0,0,32.4,20.39Z"/><path class="cls-3" d="M18.49,20.43l4.12-5a.42.42,0,0,0-.33-.69h-1a.41.41,0,0,1-.41-.41V11.4a.9.9,0,0,0-.9-.9H16.33a.9.9,0,0,0-.9.9v2.91a.41.41,0,0,1-.41.41h-1a.42.42,0,0,0-.33.69l4.12,5A.43.43,0,0,0,18.49,20.43Z"/><path class="cls-3" d="M46.16,20.43l4.12-5a.42.42,0,0,0-.33-.69H49a.41.41,0,0,1-.41-.41V11.4a.9.9,0,0,0-.9-.9H44a.9.9,0,0,0-.9.9v2.91a.41.41,0,0,1-.41.41h-1a.42.42,0,0,0-.33.69l4.12,5A.43.43,0,0,0,46.16,20.43Z"/></svg>