<?xml version="1.0" encoding="utf-8"?>
<!-- Generator: Adobe Illustrator 15.0.0, SVG Export Plug-In . SVG Version: 6.00 Build 0)  -->
<!DOCTYPE svg PUBLIC "-//W3C//DTD SVG 1.1//EN" "http://www.w3.org/Graphics/SVG/1.1/DTD/svg11.dtd">
<svg version="1.1" id="Слой_1" xmlns="http://www.w3.org/2000/svg" xmlns:xlink="http://www.w3.org/1999/xlink" x="0px" y="0px"
	 width="20px" height="20px" viewBox="0 0 20 20" enable-background="new 0 0 20 20" xml:space="preserve">
<g>
	<path fill="#7E8A94" d="M10,0.013c-5.515,0-9.986,4.47-9.986,9.986c0,5.518,4.471,9.988,9.986,9.988
		c5.516,0,9.987-4.471,9.987-9.988C19.986,4.483,15.516,0.013,10,0.013z M10,18.737c-4.817,0-8.736-3.92-8.736-8.738
		c0-4.817,3.919-8.736,8.736-8.736c4.818,0,8.737,3.919,8.737,8.736C18.736,14.817,14.817,18.737,10,18.737z"/>
	<polygon fill="#7E8A94" points="10.54,7.499 9.46,7.499 8.07,7.499 7.82,7.499 7.82,7.749 7.82,8.2 7.82,8.45 8.07,8.45 9.21,8.45 
		9.21,14.456 8.07,14.456 7.82,14.456 7.82,14.706 7.82,15.157 7.82,15.407 8.07,15.407 9.46,15.407 10.54,15.407 11.931,15.407 
		12.181,15.407 12.181,15.157 12.181,14.706 12.181,14.456 11.931,14.456 10.79,14.456 10.79,8.45 11.931,8.45 12.181,8.45 
		12.181,8.2 12.181,7.749 12.181,7.499 11.931,7.499 	"/>
	<circle fill="#7E8A94" cx="10" cy="5.354" r="1.073"/>
</g>
</svg>
