<?xml version="1.0" encoding="utf-8"?>
<!-- Generator: Adobe Illustrator 21.0.2, SVG Export Plug-In . SVG Version: 6.00 Build 0)  -->
<svg version="1.1" id="Слой_1" xmlns="http://www.w3.org/2000/svg" xmlns:xlink="http://www.w3.org/1999/xlink" x="0px" y="0px"
	 width="34px" height="34px" viewBox="0 0 34 34" style="enable-background:new 0 0 34 34;" xml:space="preserve">
<style type="text/css">
	.st0{fill:#13CB6E;}
	.st1{fill:#FFFFFF;}
	.st2{opacity:8.000000e-02;fill:#231F20;enable-background:new    ;}
</style>
<path class="st0" d="M17,0H0v18.1c0,3.3,1.8,6.3,4.5,7.8l9.4,5.3c0.9,0.5,1.9,0.8,3.1,0.8s2.2-0.3,3.1-0.8l7.8-4.4l0,0
	c3.6-2,6.1-5.9,6.2-10.3l0,0V0H17z"/>
<path class="st1" d="M17,5H5v10c0,3.3,1.8,6.2,4.5,7.8L17,27l7.5-4.2c2.7-1.5,4.5-4.5,4.5-7.8V5H17z M7.3,7H17h9.7l0,0
	c-0.5,1.7-1.6,3.2-3.2,4.1L17,14.8l-6.5-3.7C9,10.2,7.8,8.7,7.3,7L7.3,7z M26.9,15c0,2.5-1.4,4.8-3.5,6.1L17,24.7L10.5,21
	C8.4,19.8,7,17.5,7,15v-4.4c0.7,0.9,1.6,1.6,2.5,2.2L17,17l7.5-4.2c1-0.6,1.8-1.3,2.5-2.2V15z"/>
<path class="st2" d="M4.5,25.9l9.4,5.3c0.9,0.5,1.9,0.8,3.1,0.8l0,0V0l0,0H0v18.1C0,21.4,1.8,24.4,4.5,25.9z"/>
</svg>
