<?xml version="1.0" encoding="utf-8"?>
<!-- Generator: Adobe Illustrator 21.0.2, SVG Export Plug-In . SVG Version: 6.00 Build 0)  -->
<svg version="1.1" id="Слой_1" xmlns="http://www.w3.org/2000/svg" xmlns:xlink="http://www.w3.org/1999/xlink" x="0px" y="0px"
	 width="22px" height="22px" viewBox="0 0 22 22" style="enable-background:new 0 0 22 22;" xml:space="preserve">
<style type="text/css">
	.st0{fill:#FFFFFF;}
</style>
<g id="Слой_2">
</g>
<path class="st0" d="M22,9.8v2.3c-1.6,0-3,1.3-3,2.9c0,2.2,1.3,6-6,6v-2c4.9,0,4-1.6,4-4c0-2.1,1.2-3.5,2.3-4
	C18.2,10.5,17,9.6,17,7.7C17,5.3,17.9,3,13,3V1c7.3,0,6,4.5,6,6.7C19,9.2,20.4,9.8,22,9.8z M3,7.7C3,5.5,1.7,1,9,1v2
	C4.1,3,5,5.3,5,7.7c0,1.9-1.2,2.8-2.3,3.3C3.8,11.5,5,12.9,5,15c0,2.4-1,4,4,4v2c-7.3,0-6-3.8-6-6c0-1.5-1.4-2.9-3-2.9V9.8
	C1.6,9.8,3,9.2,3,7.7z M12,13v1.3c0,1.1-0.7,2.1-1.8,2.3L10,16.1c0.5-0.2,0.8-0.8,0.8-1.2H10V13C10,13,12,13,12,13z M12,7h-2v2h2V7z
	"/>
</svg>
