<?xml version="1.0" encoding="utf-8"?>
<!-- Generator: Adobe Illustrator 21.0.2, SVG Export Plug-In . SVG Version: 6.00 Build 0)  -->
<svg version="1.1" id="Слой_1" xmlns="http://www.w3.org/2000/svg" xmlns:xlink="http://www.w3.org/1999/xlink" x="0px" y="0px"
	 width="24px" height="24px" viewBox="0 0 24 24" style="enable-background:new 0 0 24 24;" xml:space="preserve">
<style type="text/css">
	.st0{fill:#FFFFFF;}
</style>
<path class="st0" d="M21.5,6C21.8,6,22,6.2,22,6.5v11c0,0.3-0.2,0.5-0.5,0.5h-19C2.2,18,2,17.8,2,17.5v-11C2,6.2,2.2,6,2.5,6H21.5z
	 M24,6c0-1.1-0.9-2-2-2H2C0.9,4,0,4.9,0,6v12c0,1.1,0.9,2,2,2h20c1.1,0,2-0.9,2-2V6z M4,9.8C4,9.3,4.3,9,4.8,9h0.4v1.1H4
	C4,10.1,4,9.8,4,9.8z M4,10.5h1.2v1H4V10.5z M4,11.9h1.2V13H4.8C4.3,13,4,12.7,4,12.2V11.9z M8,12.2C8,12.7,7.7,13,7.2,13H6.8v-1.1
	H8V12.2z M8,11.5H6.8v-1H8V11.5z M8,10.1H6.4V13H5.6V9h1.6C7.7,9,8,9.3,8,9.8V10.1z M13.5,13c-1.4,0-2.5-1.1-2.5-2.5S12.1,8,13.5,8
	c0.5,0,0.9,0.1,1.3,0.4C14.3,8.9,14,9.7,14,10.5c0,0.8,0.3,1.6,0.9,2.1C14.4,12.9,14,13,13.5,13z M15,10.5C15,9.1,16.1,8,17.5,8
	c1.4,0,2.5,1.1,2.5,2.5S18.9,13,17.5,13C16.1,13,15,11.9,15,10.5z M7,15H4v1h3V15z M11,15H8v1h3V15z M16,15h-3v1h3V15z M20,15h-3v1
	h3V15z"/>
</svg>
