<?xml version="1.0" encoding="utf-8"?>
<!-- Generator: Adobe Illustrator 21.0.2, SVG Export Plug-In . SVG Version: 6.00 Build 0)  -->
<svg version="1.1" id="Слой_1" xmlns="http://www.w3.org/2000/svg" xmlns:xlink="http://www.w3.org/1999/xlink" x="0px" y="0px"
	 width="24px" height="24px" viewBox="0 0 24 24" style="enable-background:new 0 0 24 24;" xml:space="preserve">
<style type="text/css">
	.st0{fill:#FFFFFF;}
</style>
<path class="st0" d="M21.3,12.6c-1-1.2-3.6-4.2-4.6-5.3l-1.8,1l4.7,5.4c0.6,0.7,0.5,1.7-0.4,2.2c-0.8,0.5-5.3,3.4-6.4,4
	c-0.1-0.7-0.4-1.4-0.8-1.9c-0.5-0.6-6.1-7.4-7.5-9.2C4,8.3,3.9,7.6,4.2,7.1C4.4,6.5,5,6.1,5.6,6.1c0.9,0,1.4,0.7,1.5,1.2
	C7.3,8,7.1,8.6,6.5,9l1.3,1.6l7.8-4.4c1.4-1.1,1.8-3,0.9-4.5C16,0.7,14.8,0,13.6,0C12.4,0,12.8,0,4,4.5C2.8,5.1,2,6.3,2,7.7
	c0,0.9,0.3,1.8,0.9,2.5c1.4,1.8,7.6,9.2,7.6,9.3c0.4,0.5,0.4,1.1,0.1,1.7C10.4,21.6,9.8,22,9.2,22c-0.9,0-1.4-0.7-1.5-1.2
	c-0.2-0.6,0-1.2,0.6-1.7L7,17.6c-0.8,0.7-1.3,1.5-1.4,2.4c-0.2,2.2,1.5,4,3.6,4c0.6,0,1.3-0.2,1.8-0.5l9.4-5.9
	c1-0.7,1.5-1.8,1.5-2.9C22,13.9,21.8,13.2,21.3,12.6z M13,2.2C13.2,2.1,13.4,2,13.6,2c0.5,0,1,0.3,1.2,0.8c0.3,0.6,0.2,1.5-0.5,1.9
	L9.2,7.6C9.2,6.5,8.6,5.5,7.8,4.8C7.8,4.8,13,2.2,13,2.2z M10.6,14.4l1-2.7l0.8,1L12,14.2l1.8,0.2l0.8,1l-3.4-0.3L10.6,14.4z
	 M16.1,11.3l0.6,0.7l-1,2.7l-0.8-1l0.4-1.4L13.5,12l-0.8-1L16.1,11.3z"/>
</svg>
