<?xml version="1.0" encoding="utf-8"?>
<!-- Generator: Adobe Illustrator 21.0.2, SVG Export Plug-In . SVG Version: 6.00 Build 0)  -->
<svg version="1.1" id="Слой_1" xmlns="http://www.w3.org/2000/svg" xmlns:xlink="http://www.w3.org/1999/xlink" x="0px" y="0px"
	 width="24px" height="24px" viewBox="0 0 24 24" style="enable-background:new 0 0 24 24;" xml:space="preserve">
<style type="text/css">
	.st0{fill:#FFFFFF;}
</style>
<path class="st0" d="M24,14.2V9.8C21.9,9,21.3,9,21,8.3c-0.3-0.7,0.1-1.2,1.1-3.2L18.9,2c-2,1-2.5,1.4-3.2,1.1
	c-0.7-0.3-0.8-0.9-1.5-3H9.8C9,2.1,9,2.7,8.3,3C7.5,3.3,7.1,2.9,5.1,2L2,5.1c1,2.1,1.4,2.5,1.1,3.2C2.7,9,2.1,9,0,9.8v4.4
	c2.1,0.8,2.7,0.8,3,1.5c0.3,0.7-0.1,1.2-1.1,3.2L5.1,22c2-1,2.5-1.4,3.2-1.1C9,21.3,9,21.9,9.8,24h4.4c0.8-2.1,0.8-2.7,1.5-3
	c0.7-0.3,1.2,0.1,3.2,1.1l3.1-3.1c-1-2-1.4-2.5-1.1-3.2C21.3,15,21.9,15,24,14.2z M19.1,15c-0.6,1.4-0.1,2.5,0.5,3.6l-1.1,1.1
	c-1.1-0.5-2.2-1.1-3.6-0.5c-1.4,0.6-1.8,1.7-2.2,2.9h-1.5c-0.4-1.2-0.8-2.3-2.2-2.9c-1.4-0.6-2.5,0-3.6,0.5l-1.1-1.1
	c0.6-1.1,1.1-2.2,0.5-3.6c-0.6-1.4-1.7-1.8-2.9-2.2v-1.5c1.2-0.4,2.3-0.8,2.9-2.2c0.6-1.4,0.1-2.5-0.5-3.6l1.1-1.1
	c1.1,0.5,2.2,1.1,3.6,0.5c1.4-0.6,1.8-1.7,2.2-2.9h1.5c0.4,1.2,0.8,2.3,2.2,2.9c1.4,0.6,2.5,0,3.6-0.5l1.1,1.1
	c-0.6,1.1-1.1,2.2-0.5,3.6c0.6,1.4,1.7,1.8,2.9,2.2v1.5C20.8,13.2,19.7,13.6,19.1,15z M12,9c1.7,0,3,1.3,3,3c0,1.7-1.3,3-3,3
	c-1.7,0-3-1.3-3-3C9,10.3,10.3,9,12,9z M12,7c-2.8,0-5,2.2-5,5s2.2,5,5,5s5-2.2,5-5S14.8,7,12,7z"/>
</svg>
