<?xml version="1.0" encoding="utf-8"?>
<!-- Generator: Adobe Illustrator 21.0.2, SVG Export Plug-In . SVG Version: 6.00 Build 0)  -->
<svg version="1.1" id="Слой_1" xmlns="http://www.w3.org/2000/svg" xmlns:xlink="http://www.w3.org/1999/xlink" x="0px" y="0px"
	 width="24px" height="24px" viewBox="0 0 24 24" style="enable-background:new 0 0 24 24;" xml:space="preserve">
<style type="text/css">
	.st0{fill:#FFFFFF;}
</style>
<path class="st0" d="M12,0C5.4,0,0,5.4,0,12s5.4,12,12,12s12-5.4,12-12S18.6,0,12,0z M21,16.4l-2.6-1.5C18.8,14,19,13,19,12
	s-0.2-2-0.6-2.9L21,7.6c0.6,1.3,1,2.8,1,4.4S21.6,15.1,21,16.4z M2,12c0-1.6,0.4-3.1,1-4.4l2.6,1.5C5.2,10,5,11,5,12s0.2,2,0.6,2.9
	L3,16.4C2.4,15.1,2,13.6,2,12z M7,12c0-2.8,2.2-5,5-5s5,2.2,5,5s-2.2,5-5,5S7,14.8,7,12z M16.4,3l-1.5,2.6C14,5.2,13,5,12,5
	s-2,0.2-2.9,0.6L7.6,3c1.3-0.7,2.8-1,4.4-1S15.1,2.4,16.4,3z M7.6,21l1.5-2.6C10,18.8,11,19,12,19s2-0.2,2.9-0.6l1.5,2.6
	c-1.3,0.7-2.8,1-4.4,1S8.9,21.6,7.6,21z"/>
</svg>
