<?xml version="1.0" encoding="utf-8"?>
<!-- Generator: Adobe Illustrator 21.0.2, SVG Export Plug-In . SVG Version: 6.00 Build 0)  -->
<svg version="1.1" id="Слой_1" xmlns="http://www.w3.org/2000/svg" xmlns:xlink="http://www.w3.org/1999/xlink" x="0px" y="0px"
	 width="24px" height="24px" viewBox="0 0 24 24" style="enable-background:new 0 0 24 24;" xml:space="preserve">
<style type="text/css">
	.st0{fill:#FFFFFF;}
</style>
<path class="st0" d="M6,12h10v1H6V12z M13.8,9H6v1h9C14.6,9.7,14.2,9.4,13.8,9z M6,7h6.5c-0.1-0.3-0.2-0.7-0.3-1H6C6,6,6,7,6,7z
	 M19,11v2.6c0,4.1-6,2.5-6,2.5s1.5,6-2.6,6H3V2h9.5c0.3-0.7,0.8-1.4,1.3-2H1v24h10.2c3.2,0,9.8-7.2,9.8-9.6v-3.9
	C20.4,10.8,19.7,10.9,19,11z M23,4.5C23,7,21,9,18.5,9S14,7,14,4.5S16,0,18.5,0S23,2,23,4.5z M20.8,3.6l-0.7-0.7L18,5.1l-1-0.9
	l-0.7,0.7L18,6.5C18,6.5,20.8,3.6,20.8,3.6z"/>
</svg>
