<svg id="Layer_1" data-name="Layer 1" xmlns="http://www.w3.org/2000/svg" viewBox="0 0 64 64"><defs><style>.cls-1{fill:#13cb6e;}.cls-2{fill:#14ae60;}.cls-3{fill:#e1e6e9;}.cls-4{fill:#d4dade;}</style></defs><title>content marketing, digital marketing, marketing, search, settings, options</title><path class="cls-1" d="M54.17,22.09a10,10,0,0,0-.06-1.1,1.74,1.74,0,0,1,.56-1.48l.76-.69a1.73,1.73,0,0,0,.34-2.15l-1.88-3.25a1.73,1.73,0,0,0-2-.78l-1,.31a1.68,1.68,0,0,1-1.52-.23,12.21,12.21,0,0,0-2-1.14,1.71,1.71,0,0,1-1-1.2l-.21-1A1.73,1.73,0,0,0,44.5,8H40.75a1.72,1.72,0,0,0-1.69,1.37l-.22,1a1.7,1.7,0,0,1-1,1.2,11.81,11.81,0,0,0-2,1.14,1.68,1.68,0,0,1-1.52.23l-1-.31a1.74,1.74,0,0,0-2,.78l-1.87,3.25a1.72,1.72,0,0,0,.34,2.15l.75.69A1.71,1.71,0,0,1,31.14,21a10.11,10.11,0,0,0,0,2.2,1.74,1.74,0,0,1-.56,1.49l-.75.68a1.72,1.72,0,0,0-.34,2.15l1.87,3.25a1.74,1.74,0,0,0,2,.78l1-.31a1.7,1.7,0,0,1,1.53.23,11.16,11.16,0,0,0,2,1.14,1.73,1.73,0,0,1,1,1.21l.22,1a1.72,1.72,0,0,0,1.69,1.37H44.5a1.73,1.73,0,0,0,1.7-1.37l.21-1a1.75,1.75,0,0,1,1-1.21,11.52,11.52,0,0,0,2-1.14,1.68,1.68,0,0,1,1.52-.23l1,.31a1.73,1.73,0,0,0,2-.78l1.88-3.25a1.74,1.74,0,0,0-.34-2.15l-.76-.68a1.8,1.8,0,0,1-.56-1.49A10,10,0,0,0,54.17,22.09Z"/><path class="cls-2" d="M46.74,22.09A4.11,4.11,0,1,1,42.63,18,4.11,4.11,0,0,1,46.74,22.09Z"/><path class="cls-3" d="M46.91,55.07a3,3,0,0,1-4.28,0l-9.16-9.16a3,3,0,0,1,4.28-4.27l9.16,9.16A3,3,0,0,1,46.91,55.07Z"/><path class="cls-1" d="M17.76,42.34a11.7,11.7,0,1,1,14.26,0A11.72,11.72,0,0,1,17.76,42.34Z"/><path class="cls-2" d="M32,23.78a8.74,8.74,0,0,0-.88-.62v0a1.74,1.74,0,0,1-.56,1.49l-.75.68a1.72,1.72,0,0,0-.34,2.15l1.87,3.25a1.74,1.74,0,0,0,2,.78l1-.31a1.7,1.7,0,0,1,1.53.23,7,7,0,0,0,.64.41A11.64,11.64,0,0,0,32,23.78Z"/><path class="cls-3" d="M46.85,50.74,42.12,46a6.4,6.4,0,0,1-1.52-6.8A16.88,16.88,0,1,0,31,48.78a6.47,6.47,0,0,1,6.86,1.54l4.75,4.75a3,3,0,0,0,4.68-.49A3.08,3.08,0,0,0,46.85,50.74Zm-29.09-8.4a11.7,11.7,0,1,1,14.26,0A11.72,11.72,0,0,1,17.76,42.34Z"/><path class="cls-4" d="M38.84,33.81l.22,1a1.72,1.72,0,0,0,1.69,1.37h.71a16.7,16.7,0,0,0-12-19.33,1.72,1.72,0,0,0,.41,2l.75.69A1.71,1.71,0,0,1,31.14,21a10,10,0,0,0-.06,1.1,9.46,9.46,0,0,0,.06,1.07,8.74,8.74,0,0,1,.88.62,11.64,11.64,0,0,1,4.51,8.09,11,11,0,0,0,1.35.73A1.73,1.73,0,0,1,38.84,33.81Z"/><path class="cls-2" d="M44,47.92,39.76,52.2l2.87,2.87a3,3,0,0,0,4.28-4.27Z"/><rect class="cls-1" x="39.52" y="49.79" width="6.04" height="1.83" transform="translate(-23.4 44.93) rotate(-45)"/></svg>