<svg id="Layer_1" data-name="Layer 1" xmlns="http://www.w3.org/2000/svg" viewBox="0 0 64 64"><defs><style>.cls-1{fill:#13cb6e;}.cls-2{fill:#d4dade;}</style></defs><title>content marketing, digital marketing, marketing, transfer, file</title><path class="cls-1" d="M27.52,8a3.21,3.21,0,0,1,3.21,3.21V33a3.21,3.21,0,0,1-3.21,3.2H11.21A3.21,3.21,0,0,1,8,33V15a1.43,1.43,0,0,1,.42-1L14,8.42A1.43,1.43,0,0,1,15,8Z"/><path class="cls-2" d="M8.13,14.39A1.57,1.57,0,0,1,8.42,14L14,8.42a1.57,1.57,0,0,1,.42-.29v3a3.21,3.21,0,0,1-3.21,3.21Z"/><path class="cls-2" d="M52.79,27.78A3.21,3.21,0,0,1,56,31V52.79A3.21,3.21,0,0,1,52.79,56H36.48a3.21,3.21,0,0,1-3.21-3.21v-18a1.43,1.43,0,0,1,.42-1l5.55-5.55a1.45,1.45,0,0,1,1-.42Z"/><path class="cls-1" d="M33.41,34.17a1.34,1.34,0,0,1,.28-.42l5.55-5.55a1.5,1.5,0,0,1,.42-.29V31a3.21,3.21,0,0,1-3.2,3.21Z"/><path class="cls-2" d="M41.85,16.06v1.05H34a.6.6,0,0,0-.6.61v3.59a.6.6,0,0,0,.6.6h7.87V23a.22.22,0,0,0,.37.15l3.45-3.46a.2.2,0,0,0,0-.3L42.22,15.9A.22.22,0,0,0,41.85,16.06Z"/><path class="cls-1" d="M22.15,47.94v-1H30a.6.6,0,0,0,.6-.61V42.69a.6.6,0,0,0-.6-.6H22.15V41a.22.22,0,0,0-.37-.15l-3.45,3.46a.2.2,0,0,0,0,.3l3.45,3.46A.22.22,0,0,0,22.15,47.94Z"/></svg>