<svg id="Layer_1" data-name="Layer 1" xmlns="http://www.w3.org/2000/svg" viewBox="0 0 64 64"><defs><style>.cls-1{fill:#e1e6e9;}.cls-2{fill:#d4dade;}.cls-3{fill:#14ae60;}.cls-4{fill:#13cb6e;}.cls-5{fill:#fff;}</style></defs><title>digital marketing, marketing, content marketing, graph, presentation</title><path class="cls-1" d="M9.38,13.75H54.63a0,0,0,0,1,0,0v29a3.17,3.17,0,0,1-3.17,3.17H12.55a3.17,3.17,0,0,1-3.17-3.17v-29A0,0,0,0,1,9.38,13.75Z"/><rect class="cls-2" x="9.38" y="13.75" width="45.25" height="2.17"/><path class="cls-3" d="M34.54,10.54A2.54,2.54,0,1,1,32,8,2.54,2.54,0,0,1,34.54,10.54Z"/><rect class="cls-4" x="8" y="10.25" width="48" height="4" rx="0.9"/><path class="cls-3" d="M28.49,52.49A3.51,3.51,0,0,0,32.05,56a3.55,3.55,0,0,0,3.46-3.46,3.51,3.51,0,0,0-1.82-3.12.78.78,0,0,1-.4-.69V45.92H30.71v2.81a.77.77,0,0,1-.41.69A3.51,3.51,0,0,0,28.49,52.49Zm3.51.94a.94.94,0,1,1,.94-.94A.94.94,0,0,1,32,53.43Z"/><path class="cls-2" d="M54.62,42.74V35.12l-4.93-4.93-6.94,6.93-11-11L17.91,40l-4.16-4.15L9.38,40.25v2.49a3.17,3.17,0,0,0,3.17,3.18h38.9A3.17,3.17,0,0,0,54.62,42.74Z"/><polygon class="cls-5" points="54.63 34.42 49.69 29.48 42.75 36.42 31.78 25.45 17.91 39.32 13.75 35.17 9.38 39.54 9.38 40.96 13.75 36.58 17.91 40.74 31.78 26.86 42.75 37.83 49.69 30.89 54.63 35.83 54.63 34.42"/><circle class="cls-4" cx="13.69" cy="35.84" r="1.06"/><path class="cls-4" d="M32.74,26.16a1.06,1.06,0,1,1-1.06-1.06A1.06,1.06,0,0,1,32.74,26.16Z"/><path class="cls-4" d="M50.78,30.28a1.06,1.06,0,1,1-1.06-1.06A1.07,1.07,0,0,1,50.78,30.28Z"/></svg>