<svg id="Layer_1" data-name="Layer 1" xmlns="http://www.w3.org/2000/svg" viewBox="0 0 64 64"><defs><style>.cls-1{fill:#14ae60;}.cls-2{fill:#e1e6e9;}.cls-3{fill:#13cb6e;}.cls-4{fill:#fff;}.cls-5{fill:#d4dade;}</style></defs><title>digital marketing, marketing, content marketing, identification, id</title><path class="cls-1" d="M35.16,18.91A3.16,3.16,0,1,1,32,15.75,3.16,3.16,0,0,1,35.16,18.91Z"/><rect class="cls-2" x="8" y="19.59" width="48" height="36.41" rx="2.83"/><rect class="cls-3" x="20" y="17.85" width="24" height="5.53" rx="0.9"/><rect class="cls-4" x="35.27" y="34.27" width="13.32" height="1.08"/><rect class="cls-4" x="35.27" y="37.27" width="13.32" height="1.08"/><rect class="cls-4" x="35.27" y="40.27" width="13.32" height="1.08"/><rect class="cls-4" x="35.27" y="43.27" width="6.66" height="1.08"/><circle class="cls-5" cx="23.32" cy="39.31" r="7.91" transform="translate(-20.31 52.94) rotate(-76.67)"/><path class="cls-4" d="M26.24,38.47v-1.3a2.91,2.91,0,0,0-1.46-2.52h0a2.93,2.93,0,0,0-2.92,0h0a2.91,2.91,0,0,0-1.45,2.52v1.3a2.55,2.55,0,0,0,1.28,2.22h0a3.29,3.29,0,0,0,3.27,0h0A2.57,2.57,0,0,0,26.24,38.47Z"/><path class="cls-4" d="M23.32,47.22A7.89,7.89,0,0,0,28.77,45a6.36,6.36,0,0,0-10.89,0A7.85,7.85,0,0,0,23.32,47.22Z"/></svg>