<svg id="Layer_1" data-name="Layer 1" xmlns="http://www.w3.org/2000/svg" viewBox="0 0 64 64"><defs><style>.cls-1{fill:#d4dade;}.cls-2{fill:#e1e6e9;}.cls-3{fill:#13cb6e;}.cls-4{fill:#fff;}.cls-5{fill:#14ae60;}</style></defs><title>digital marketing, marketing, content marketing, inbox, download</title><rect class="cls-1" x="16.83" y="33.25" width="31" height="11.17"/><path class="cls-2" d="M50.07,15.41a1.58,1.58,0,0,0-1.52-1.16H15.45a1.58,1.58,0,0,0-1.52,1.16L8,37.25H56Z"/><path class="cls-1" d="M32,37.25H52l-4.7-19A1.37,1.37,0,0,0,46,17.12H18a1.37,1.37,0,0,0-1.29,1.09l-4.7,19Z"/><path class="cls-3" d="M43.38,38l-1.76,2.5a1.68,1.68,0,0,1-1.38.72H23.76a1.68,1.68,0,0,1-1.38-.72L20.62,38a1.68,1.68,0,0,0-1.38-.72H8V54.31A1.69,1.69,0,0,0,9.69,56H54.31A1.69,1.69,0,0,0,56,54.31V37.25H44.76A1.68,1.68,0,0,0,43.38,38Z"/><path class="cls-2" d="M32,21.79h0a3.31,3.31,0,0,1,3.3,3.31v3.3H28.7V25.1A3.31,3.31,0,0,1,32,21.79Z"/><path class="cls-4" d="M32.55,35.83l5.75-8.45a.67.67,0,0,0-.55-1H26.25a.67.67,0,0,0-.55,1l5.75,8.45A.66.66,0,0,0,32.55,35.83Z"/><path class="cls-5" d="M34.71,49.6H29.29a1.06,1.06,0,0,1-1.07-1.06h0a1.06,1.06,0,0,1,1.07-1.06h5.42a1.06,1.06,0,0,1,1.07,1.06h0A1.06,1.06,0,0,1,34.71,49.6Z"/></svg>