<svg id="Layer_1" data-name="Layer 1" xmlns="http://www.w3.org/2000/svg" viewBox="0 0 64 64"><defs><style>.cls-1{fill:#e1e6e9;}.cls-2{fill:#13cb6e;}.cls-3{fill:#14ae60;}.cls-4{fill:#d4dade;}.cls-5{fill:#fff;}</style></defs><title>content marketing, digital marketing, marketing, view, web, browser</title><rect class="cls-1" x="8" y="14.88" width="48" height="41.13" rx="4.09"/><path class="cls-2" d="M51.91,14.88H12.09A4.09,4.09,0,0,0,8,19v1.91H56V19A4.09,4.09,0,0,0,51.91,14.88Z"/><rect class="cls-3" x="12.66" y="17.26" width="1.23" height="1.23"/><rect class="cls-3" x="15.19" y="17.26" width="1.23" height="1.23"/><rect class="cls-3" x="17.71" y="17.26" width="1.23" height="1.23"/><rect class="cls-3" x="8" y="20.88" width="48" height="0.65"/><path class="cls-4" d="M56,24.31H10.79A2.79,2.79,0,0,1,8,21.52H56Z"/><path class="cls-5" d="M37.56,26.56h5a1,1,0,0,1,1,1v5A17.15,17.15,0,0,1,26.44,49.74h-5a1,1,0,0,1-1-1v-5A17.15,17.15,0,0,1,37.56,26.56Z" transform="translate(36.35 -11.45) rotate(45)"/><path class="cls-3" d="M37.31,38.15A5.31,5.31,0,1,1,32,32.84,5.31,5.31,0,0,1,37.31,38.15Z"/><path class="cls-2" d="M32,32.84a5.31,5.31,0,0,0-5.31,5.31H32Z"/></svg>