<?xml version="1.0" encoding="utf-8"?>
<!-- Generator: Adobe Illustrator 21.0.2, SVG Export Plug-In . SVG Version: 6.00 Build 0)  -->
<svg version="1.1" id="Layer_1" xmlns="http://www.w3.org/2000/svg" xmlns:xlink="http://www.w3.org/1999/xlink" x="0px" y="0px"
	 width="30px" height="31.5px" viewBox="0 0 30 31.5" style="enable-background:new 0 0 30 31.5;" xml:space="preserve">
<style type="text/css">
	.st0{fill:#9CA7AC;}
</style>
<g>
	<path class="st0" d="M15,1.8c0.1,0,0.1,0,0.2,0h0.1h0h0.1c0,0,0.1,0,0.1,0c0,0,0.1,0,0.1,0c4.6,0.6,4.9,4.5,4.8,6.1
		c-0.2,3.2-2.3,6.8-5.3,6.8c-3.1-0.1-5.2-3.6-5.4-6.8c-0.1-1.6,0.2-5.5,4.8-6.1c0,0,0.1,0,0.1,0c0,0,0.1,0,0.1,0h0.1
		C14.9,1.8,14.9,1.8,15,1.8 M15,0c-0.1,0-0.2,0-0.3,0c0,0-0.1,0-0.1,0c-0.1,0-0.3,0-0.4,0C4.1,1.4,7.3,16.4,15,16.5
		C22.7,16.4,26,1.4,15.8,0c-0.2,0-0.3,0-0.4,0c0,0-0.1,0-0.1,0C15.2,0,15.1,0,15,0L15,0z"/>
</g>
<g>
	<path class="st0" d="M15,20.3c8.7,0,11.7,4.2,12.6,6c0.4,0.9,0.6,2.3,0.6,3.4H15H1.8c0.1-1.1,0.3-2.5,0.6-3.4
		C3.4,24.4,6.4,20.3,15,20.3 M15,18.5c-9,0-12.8,4.2-14.2,7c-0.9,2.2-0.8,6-0.8,6h15h15c0,0,0.1-3.8-0.8-6
		C27.9,22.7,24,18.5,15,18.5L15,18.5z"/>
</g>
</svg>
