<svg fill="none" height="48" viewBox="0 0 144 48" width="144" xmlns="http://www.w3.org/2000/svg"><g fill="#000"><path d="m31.4779 30.6474-12.5442-17.232c-.6871-.9443-1.7779-1.4369-2.876-1.4147-1.0962-.0213-2.1843.4713-2.8706 1.4138l-12.544137 17.2329c-1.106151 1.5194-.749474 3.6335.796437 4.7207.6068.4268 1.3066.6319 2.00009.6319 1.07364 0 2.13103-.4917 2.80286-1.4147l8.89525-12.2193c.4524-.6212 1.3924-.6212 1.8457 0l8.8952 12.2193c.6719.923 1.7293 1.4147 2.8029 1.4147.6935 0 1.3933-.2051 2.0001-.6319 1.5459-1.0872 1.9026-3.2013.7964-4.7207z"/><path d="m16.6867 35.9361c2.1295-.3397 3.5757-2.3119 3.23-4.4049-.3457-2.0931-2.3522-3.5144-4.4817-3.1746-2.1295.3397-3.5757 2.3119-3.23 4.405.3457 2.093 2.3522 3.5143 4.4817 3.1745z"/><path d="m49.7327 18.626v12.0222h-3.5017v-1.2026c-.9355.9426-2.206 1.4849-3.6932 1.4849-3.3573 0-5.9-2.7105-5.9-6.2934s2.5418-6.2933 5.9-6.2933c1.4872 0 2.7577.5422 3.6932 1.4848v-1.2026zm-3.5017 6.0111c0-1.6969-1.2714-2.9705-2.9979-2.9705s-2.9735 1.2727-2.9735 2.9705 1.2714 2.9705 2.9735 2.9705 2.9979-1.2727 2.9979-2.9705z"/><path d="m50.8119 24.6371c0-3.5829 2.8299-6.2933 6.5953-6.2933 2.4706 0 4.533 1.1546 5.6599 2.9935l-3.0457 1.815c-.5039-.8955-1.4628-1.4848-2.6142-1.4848-1.7264 0-2.9978 1.2727-2.9978 2.9705s1.2714 2.9705 2.9978 2.9705c1.1514 0 2.1103-.5893 2.6142-1.4848l3.0457 1.8149c-1.1269 1.839-3.1893 2.9936-5.6599 2.9936-3.7654 0-6.5953-2.7105-6.5953-6.2933z"/><path d="m76.4376 18.626v16.5007h-3.5017v-5.6811c-.9355.9426-2.206 1.4849-3.6932 1.4849-3.3573 0-5.9001-2.7105-5.9001-6.2934s2.5419-6.2933 5.9001-6.2933c1.4872 0 2.7577.5422 3.6932 1.4848v-1.2026zm-3.5017 6.0111c0-1.6969-1.2714-2.9705-2.9979-2.9705s-2.9735 1.2727-2.9735 2.9705 1.2714 2.9705 2.9735 2.9705 2.9979-1.2727 2.9979-2.9705z"/><path d="m78.2836 25.8398v-7.2137h3.5018v6.7416c0 1.3437.9111 2.2392 2.2782 2.2392 1.3672 0 2.2782-.8955 2.2782-2.2392v-6.7416h3.5018v7.2128c0 3.0646-2.2783 5.0917-5.78 5.0917s-5.78-2.0263-5.78-5.0908z"/><path d="m91.3056 14.973c0-1.2026.9355-2.0981 2.1581-2.0981 1.2227 0 2.1825.8955 2.1825 2.0981 0 1.2025-.9354 2.1211-2.1825 2.1211-1.247 0-2.1581-.8955-2.1581-2.1211zm.4081 3.6539h3.5018v12.0213h-3.5018z"/><path d="m104.616 18.4379v3.5359h-.527c-2.135 0-3.309 1.2025-3.309 3.0645v5.61h-3.5025v-12.0223h3.5025v1.3668c.863-.9896 1.991-1.5558 3.309-1.5558z"/><path d="m117.838 25.7687h-9.114c.432 1.3437 1.608 2.1683 3.142 2.1683 1.391 0 2.494-.6364 3.07-1.3438l2.35 2.0041c-1.295 1.4377-3.261 2.3332-5.516 2.3332-3.885 0-6.812-2.7344-6.812-6.3643 0-3.63 2.806-6.2233 6.524-6.2233 3.717 0 6.427 2.6874 6.427 6.3413 0 .3301-.023.7775-.071 1.0845zm-9.137-2.2862h5.492c-.384-1.3437-1.44-2.1682-2.758-2.1682s-2.374.8484-2.734 2.1682z"/><path d="m118.328 29.8113c0-.5307.42-.9425.96-.9425.538 0 .959.4127.959.9425s-.409.931-.959.931c-.552 0-.96-.4002-.96-.931z"/><path d="m120.62 27.6422c0-1.791 1.403-3.1462 3.273-3.1462 1.223 0 2.255.5892 2.806 1.4963l-1.164.6958c-.324-.5538-.922-.9194-1.642-.9194-1.079 0-1.894.8129-1.894 1.8735 0 1.0605.815 1.8736 1.894 1.8736.72 0 1.319-.3657 1.642-.9195l1.164.6958c-.552.907-1.583 1.4963-2.806 1.4963-1.871 0-3.273-1.3543-3.273-3.1462z"/><path d="m126.963 27.6422c0-1.791 1.403-3.1462 3.273-3.1462s3.273 1.3552 3.273 3.1462-1.415 3.1471-3.273 3.1471-3.273-1.3552-3.273-3.1471zm5.156 0c0-1.0606-.804-1.8735-1.883-1.8735s-1.895.8129-1.895 1.8735c0 1.0605.816 1.8735 1.895 1.8735s1.883-.813 1.883-1.8735z"/><path d="m144.001 26.7468v3.9006h-1.343v-3.5119c0-.8254-.527-1.3667-1.355-1.3667-.826 0-1.45.5537-1.45 1.3906v3.4889h-1.343v-3.5119c0-.8254-.527-1.3668-1.356-1.3668-.827 0-1.45.5538-1.45 1.3908v3.4887h-1.343v-6.0102h1.343v.7074c.456-.5539 1.103-.8485 1.894-.8485.899 0 1.594.4002 1.967 1.0606.479-.6834 1.223-1.0606 2.145-1.0606 1.391 0 2.291.8955 2.291 2.2507z"/></g></svg>