<svg fill="none" height="36" viewBox="0 0 36 36" width="36" xmlns="http://www.w3.org/2000/svg"><rect fill="#fff" height="36" rx="4" width="36"/><g fill="#3e50f7"><path d="m31.4395 24.2551-10.9348-15.02127c-.5991-.82317-1.5499-1.25255-2.5071-1.2332-.9555-.01857-1.904.4108-2.5023 1.23242l-10.93482 15.02205c-.96424 1.3244-.65333 3.1673.69425 4.1151.52895.372 1.13898.5508 1.7435.5508.9359 0 1.85763-.4287 2.44327-1.2332l7.754-10.6517c.3944-.5415 1.2138-.5415 1.6089 0l7.7541 10.6517c.5857.8045 1.5074 1.2332 2.4433 1.2332.6045 0 1.2145-.1788 1.7435-.5508 1.3476-.9478 1.6584-2.7907.6942-4.1151z"/><path d="m18.8302 28.8654c1.8563-.2962 3.1169-2.0153 2.8156-3.8398-.3014-1.8246-2.0505-3.0635-3.9067-2.7674-1.8563.2962-3.117 2.0153-2.8156 3.8399.3013 1.8245 2.0504 3.0634 3.9067 2.7673z"/></g></svg>