<svg fill="none" height="48" viewBox="0 0 133 48" width="133" xmlns="http://www.w3.org/2000/svg"><g fill="#000"><path d="m14.635 6h-14.635v35z"/><path d="m24.9321 6h14.6159v35z"/><path d="m19.7837 18.8998 9.3149 22.1002h-6.1114l-2.784-7.0362h-6.817z"/><path d="m63.4236 28.2577 1.7257 4.9483c.0572.1239.143.1811.2955.1811h3.3179c.1812 0 .2098-.0858.1812-.2669l-6.8551-19.0398c-.0286-.1525-.0572-.1811-.2098-.1811h-4.1187c-.1144 0-.1812.0858-.1812.2097-.0572 1.0011-.143 1.3062-.2669 1.6018l-6.1115 17.3808c-.0286.2097.0382.2955.2098.2955h2.9651c.1812 0 .267-.0572.3337-.2383l1.6304-4.8911zm-6.14-3.232c.8962-2.7078 2.0784-6.1782 2.5551-8.1613h.0286c.5911 2.0784 1.9831 6.1972 2.6124 8.1613z"/><path d="m77.7567 33.6827c1.7829 0 3.6802-.3242 5.6061-1.1536.1526-.0572.1812-.124.1812-.267-.0573-.5339-.124-1.3062-.124-1.8973v-17.9243c0-.1144 0-.1716-.143-.1716h-3.2321c-.1239 0-.1811.0572-.1811.2098v6.0733c-.5054-.0573-.8581-.0859-1.2776-.0859-5.2152 0-8.4187 3.4419-8.4187 7.7418 0 4.9864 3.2893 7.4748 7.5892 7.4748zm2.1071-3.3179c-.534.1716-1.1251.2384-1.7257.2384-2.3645 0-4.3-1.3348-4.3-4.5764 0-2.8698 1.9927-4.5669 4.6337-4.5669.5339 0 1.0011.0572 1.392.2097z"/><path d="m93.8548 18.4661c-4.4524 0-7.2078 3.4133-7.2078 7.6274 0 3.766 2.1928 7.5892 7.1411 7.5892 4.1855 0 7.1219-3.0795 7.1219-7.6846 0-4.0615-2.4883-7.532-7.0552-7.532zm-.1811 2.9938c2.517 0 3.5848 2.1642 3.5848 4.6336 0 3.0509-1.5731 4.5669-3.4037 4.5669-2.2596 0-3.5944-1.8973-3.5944-4.6336 0-2.8126 1.4206-4.5669 3.4133-4.5669z"/><path d="m104.252 12.2689c-.124 0-.21.0572-.21.2098v20.2887c0 .0858.086.2384.21.267 1.42.4386 2.908.6483 4.443.6483 4.395 0 8.666-2.7268 8.666-8.2185 0-3.9757-2.727-6.9981-6.998-6.9981-.982 0-1.897.1526-2.698.4195l-.038-6.3783c0-.2098-.057-.2384-.267-.2384zm9.458 13.5576c0 3.2893-2.25 4.8339-4.682 4.8339-.505 0-.953-.0286-1.363-.1526v-8.657c.467-.1812 1.03-.3337 2.069-.3337 2.345 0 3.976 1.4873 3.976 4.3094z"/><path d="m129.423 26.8944c1.449 0 2.641-.0286 3.051-.124.153-.0286.21-.0858.239-.2097.085-.3242.124-1.0011.124-1.8306 0-2.8221-1.698-6.264-6.083-6.264-4.481 0-6.97 3.6516-6.97 7.7704 0 3.6516 1.926 7.4462 7.322 7.4462 2.022 0 3.328-.3242 4.453-.8581.114-.0572.172-.1525.172-.3241v-2.4694c0-.143-.086-.1716-.172-.1144-1.125.4767-2.345.7151-3.68.7151-3.023 0-4.395-1.6685-4.481-3.7374zm-6.025-2.5552c.238-1.4492 1.153-3.0223 3.203-3.0223 2.26 0 2.851 1.8973 2.851 2.7553v.2384c-.124.0286-.505.0286-1.63.0286z"/></g></svg>