<svg fill="none" height="48" viewBox="0 0 176 48" width="176" xmlns="http://www.w3.org/2000/svg"><g fill="#000"><path d="m.132498 34.5714 15.298602-9.5251h7.9395c.2449 0 .4689.1936.4689.4694 0 .2239-.102.316-.224.3872l-7.5119 4.5077c-.4893.2957-.6625.8771-.6625 1.3156l-.01 2.8452h9.5503v-16.5112c0-.3161-.2449-.5913-.6118-.5913h-9.1117l-15.2579 9.4843v7.6182z"/><path d="m125.578 34.5719h13.76v-3.7023h-9.398v-3.1001h7.563v-3.7123h-7.563v-2.886h9.398v-3.7023h-13.76z"/><path d="m39.1178 17.4689-6.5538 17.103h4.5051l1.1413-3.2026h7.3184l1.1209 3.2026h4.6579l-6.6349-17.103zm.3873 10.2598 2.3951-6.7003 2.3544 6.7003z"/><path d="m69.9999 21.1712h5.5141v13.4007h4.3523v-13.4007h5.4936v-3.7023h-15.36z"/><path d="m63.6607 27.9836c0 2.2235-1.3659 3.1209-3.6998 3.1209-2.2627 0-3.7405-.9382-3.7405-3.1209v-10.5759h-4.3623v11.0756c0 4.9358 4.4031 6.4759 8.0924 6.4759 3.6693 0 8.052-1.5401 8.052-6.4759v-11.0756h-4.3622v10.5759z"/><path d="m175.306 17.4689h-5.188l-6.217 6.9452v-6.9452h-4.363l.021 17.103h4.342v-6.4962l5.891 6.4962h5.514l-7.95-8.4445z"/><path d="m115.325 17.4689h-7.991v17.103h7.991c6.125 0 7.817-2.2847 7.817-8.6789 0-6.007-1.62-8.4241-7.817-8.4241zm-.174 13.4007h-3.465v-9.6984h3.465c2.732 0 3.547.7442 3.547 4.7218 0 3.6306-.917 4.9766-3.547 4.9766z"/><path d="m152.516 24.5062-3.975-.449c-2.324-.2548-2.905-.8362-2.905-1.6217 0-.877 1.193-1.662 3.527-1.662 2.242 0 3.414.8363 3.628 2.0906h4.271c-.214-3.6207-3.241-5.8641-7.665-5.8641-5.259 0-7.898 2.0906-7.898 5.793 0 3.0084 1.753 4.426 5.381 4.8133l4.036.4286c1.539.1732 2.242.7645 2.242 1.5395 0 .8771-1.029 1.6625-3.506 1.6625-2.864 0-4.016-.7242-4.209-2.1826h-4.189c.193 3.9367 2.752 5.9457 8.245 5.9457 5.015 0 7.817-2.2026 7.817-5.5172 0-2.886-1.661-4.6197-4.8-4.9766z"/><path d="m95.5009 17c-6.2173 0-9.4377 3.8243-9.4377 8.9746 0 5.1708 3.2204 9.0155 9.4377 9.0155 6.2381 0 9.4591-3.8447 9.4591-9.0155.01-5.1503-3.221-8.9746-9.4591-8.9746zm0 14.1454c-3.2209 0-4.9938-1.9687-4.9938-5.1708 0-3.1414 1.7729-5.1299 4.9938-5.1299 3.2513 0 4.9941 1.9885 4.9941 5.1299.01 3.2126-1.7428 5.1708-4.9941 5.1708z"/></g></svg>