<svg width="98" height="48" viewBox="0 0 98 48" fill="none" xmlns="http://www.w3.org/2000/svg">
<path d="M97.3189 27.8722C97.1523 27.8722 97.0004 27.9819 96.922 28.2114C95.9175 31.13 94.5602 32.8662 93.443 32.8662C92.8011 32.8662 92.5414 32.1378 92.5414 30.9953C92.5414 28.1366 94.2221 22.0748 95.0698 19.3109C95.1678 18.9766 95.2315 18.6773 95.2315 18.4228C95.2315 17.6196 94.8003 17.2254 93.7321 17.2254C92.5806 17.2254 91.3409 17.6844 90.1355 19.8347C89.719 17.9389 88.4597 17.1107 86.7006 17.1107C84.6671 17.1107 82.7022 18.4428 81.0852 20.6031C79.4682 22.7633 77.567 23.4718 76.1362 23.1225C77.1652 20.5582 77.5474 18.6423 77.5474 17.2205C77.5474 14.9903 76.4645 13.6433 74.7152 13.6433C72.0545 13.6433 70.5208 16.2276 70.5208 18.9467C70.5208 21.0471 71.4567 23.2074 73.5147 24.2551C71.7899 28.2264 69.2713 31.8185 68.3158 31.8185C67.081 31.8185 66.7184 25.667 66.787 21.2666C66.8311 18.7421 67.0369 18.6124 67.0369 17.8491C67.0369 17.41 66.7576 17.1107 65.6355 17.1107C63.0189 17.1107 62.2104 19.3658 62.0879 21.9551C62.0483 22.9391 61.8971 23.9151 61.6371 24.8637C60.5444 28.835 58.2904 31.8485 56.8204 31.8485C56.1393 31.8485 55.9531 31.155 55.9531 30.247C55.9531 27.3882 57.526 23.816 57.526 20.7677C57.526 18.5276 56.5607 17.1107 54.7428 17.1107C52.6015 17.1107 49.7693 19.705 47.089 24.5644C47.971 20.8425 48.3336 17.2404 45.7219 17.2404C45.1553 17.249 44.599 17.3962 44.1 17.6695C43.9325 17.7492 43.7924 17.8785 43.698 18.0405C43.6036 18.2024 43.5593 18.3895 43.5708 18.5775C43.8207 22.5388 40.4348 32.6866 37.2253 32.6866C36.6422 32.6866 36.358 32.043 36.358 31.0053C36.358 28.1416 38.0338 22.0948 38.8766 19.3258C38.9844 18.9666 39.0432 18.6573 39.0432 18.3879C39.0432 17.6296 38.5826 17.2404 37.5389 17.2404C36.3923 17.2404 35.1477 17.6844 33.9472 19.8347C33.5258 17.9389 32.2665 17.1107 30.5074 17.1107C27.6213 17.1107 24.3971 20.2189 22.981 24.27C21.0847 29.6782 17.2627 34.9018 12.1177 34.9018C7.448 34.9018 4.9833 30.9454 4.9833 24.6941C4.9833 15.6688 11.4905 8.29498 16.317 8.29498C18.6249 8.29498 19.7274 9.79171 19.7274 12.0867C19.7274 14.8656 18.2035 16.1578 18.2035 17.2155C18.2035 17.5398 18.4681 17.8591 18.9924 17.8591C21.0896 17.8591 23.5592 15.3495 23.5592 11.927C23.5592 8.50452 20.8299 6 16.0034 6C8.0262 6 0 14.1721 0 24.6442C0 32.976 4.0376 38 11.0201 38C15.7829 38 19.943 34.2283 22.1872 29.8279C22.442 33.4749 24.0688 35.3807 26.5482 35.3807C28.7532 35.3807 30.5368 34.0437 31.899 31.6938C32.4233 34.1534 33.8149 35.3558 35.623 35.3558C37.6957 35.3558 39.4303 34.0187 41.0816 31.5341C41.0571 33.4849 41.4932 35.3209 43.1543 35.3209C43.9383 35.3209 44.8742 35.1363 45.0408 34.4378C46.7901 27.0739 51.1119 21.062 52.4349 21.062C52.8269 21.062 52.9347 21.4462 52.9347 21.9002C52.9347 23.9008 51.548 28.0019 51.548 30.6211C51.548 33.45 52.7289 35.3209 55.1691 35.3209C57.8739 35.3209 60.6228 31.9482 62.4554 27.019C63.0287 31.6239 64.2684 35.3408 66.2088 35.3408C68.5902 35.3408 72.8189 30.237 75.3816 24.8338C76.3861 24.9635 77.8953 24.9286 79.3457 23.8859C78.7283 25.4774 78.3657 27.2186 78.3657 28.9598C78.3657 33.9738 80.7177 35.3807 82.7414 35.3807C84.9415 35.3807 86.7251 34.0437 88.0922 31.6938C88.543 33.8142 89.6945 35.3508 91.8113 35.3508C95.1237 35.3508 98 31.9033 98 29.0745C98 28.3262 97.6864 27.8722 97.3189 27.8722ZM28.567 32.6018C27.2293 32.6018 26.705 31.2298 26.705 29.1843C26.705 25.6321 29.0913 19.7 31.6148 19.7C32.7173 19.7 33.1338 21.0221 33.1338 22.6386C33.1338 26.2457 30.8651 32.6018 28.567 32.6018ZM74.3869 22C73.5882 21.0321 73.2991 19.715 73.2991 18.5426C73.2991 17.0957 73.8185 15.8734 74.4408 15.8734C75.0631 15.8734 75.2542 16.497 75.2542 17.3651C75.2542 18.817 74.7446 20.9373 74.3869 22ZM84.7602 32.6018C83.4225 32.6018 82.8982 31.0253 82.8982 29.1843C82.8982 25.7568 85.2845 19.7 87.8276 19.7C88.9301 19.7 89.3221 21.0122 89.3221 22.6386C89.3221 26.2457 87.0926 32.6018 84.7602 32.6018Z" fill="black"/>
</svg>
