<svg fill="none" height="48" viewBox="0 0 69 48" width="69" xmlns="http://www.w3.org/2000/svg" xmlns:xlink="http://www.w3.org/1999/xlink"><clipPath id="a"><path d="m0 0h69v48h-69z"/></clipPath><g clip-path="url(#a)" fill="#000"><path d="m63.1543 33.6631c0 3.5168-2.7524 6.2182-6.3712 6.2182s-6.3712-2.6504-6.3712-6.2182c0-3.5679 2.7524-6.2183 6.3712-6.2183s6.3712 2.7014 6.3712 6.2183zm-3.2111 0c0-1.733-1.4271-3.1092-3.1601-3.1092s-3.1091 1.4272-3.1091 3.1601c0 1.733 1.3761 3.1092 3.1091 3.1092s3.1091-1.3252 3.1601-3.0582c0 0 0-.051 0-.1019z"/><path d="m26.8131 38.1994c0-.3568 0-.7136 0-1.0704 0-.2548.051-.3058.3058-.2548 1.0194.3058 2.0388.4077 3.0582.3567.4077 0 .7645-.1019 1.1213-.2548.7136-.3568.7645-1.1213.1529-1.631-.3568-.2549-.7645-.4078-1.2233-.5097-.7645-.2039-1.4781-.5607-2.1407-.9684-1.9878-1.3762-1.682-4.5873.3568-5.7596.8665-.5097 1.8859-.7135 2.8543-.6626.9175 0 1.7839.1529 2.7014.3568.1529.051.2548.1019.2548.3058v2.0898c0 .1529 0 .2038-.2038.1529-.8156-.2039-1.682-.3058-2.4975-.3058-.4078 0-.7646.1019-1.1214.3058-.4077.2039-.5606.6626-.3568 1.0194.051.1019.153.2038.2549.3058.2548.2039.6116.3568.9684.4587.6116.1529 1.2233.4078 1.7839.6626 1.2743.6626 2.0388 1.631 2.0388 3.1091 0 1.5291-.6626 2.7014-2.0388 3.415-.8155.4077-1.7329.6116-2.6504.6626-1.1213 0-2.2426-.051-3.364-.2549-.1529 0-.2548-.1019-.2038-.2548-.051-.5097-.051-.8665-.051-1.2742z"/><path d="m47.2009 31.1146c-.8665-.4587-1.8349-.6626-2.8033-.6116-1.784.0509-3.1601 1.529-3.1092 3.313.051 1.631 1.3252 2.9562 2.9563 3.1091.9684.051 1.8858-.1019 2.7523-.5097.051-.051.1019-.051.2039-.051v2.5485c0 .6626 0 .6626-.6626.8155-1.682.4078-3.364.4078-4.9441-.3568-2.2426-1.0703-3.4149-2.8543-3.5168-5.3008-.102-2.1917.6626-4.0266 2.4465-5.3518 1.2742-.9174 2.7014-1.2742 4.2304-1.2742.7646 0 1.5291.1529 2.2937.3568.1019 0 .2039.0509.2039.2039-.051 1.0193-.051 2.0387-.051 3.1091z"/><path d="m15.4469 31.1146c-.8665-.4587-1.8349-.6626-2.8033-.6116-1.7839.0509-3.16009 1.5291-3.10912 3.313.05097 1.631 1.32522 2.9562 2.95622 3.0582 1.0194.0509 2.0388-.102 2.9053-.6117.0509.051.0509.1529.0509.2549v2.7013c0 .2039-.0509.2549-.2548.3568-1.8349.5097-3.6188.5607-5.40277-.2548-2.24266-1.0704-3.41495-2.8543-3.51689-5.4028-.05097-2.0387.61163-3.7207 2.14071-5.0459.96842-.8156 2.19165-1.3252 3.41495-1.4272 1.1213-.1019 2.2427 0 3.364.3058.1529.051.2548.102.2548.3058z"/><path d="m19.6264 17.5568v7.8492c0 .8156-.4587 1.4272-1.1723 1.5801-.8155.1529-1.631-.3568-1.7839-1.1723 0-.1019 0-.2039 0-.3058v-15.8515c-.1019-.56066.2039-1.12132.7136-1.42714.4587-.30581 1.0703-.30581 1.5291 0 .5096.25485.8155.81551.7645 1.37618v6.67696c-.051.3568-.051.8155-.051 1.2743z"/><path d="m49.8003 17.5058v-7.90027c-.051-.76454.4587-1.42715 1.2233-1.58005.8155-.15291 1.58.40775 1.7329 1.22326v.20388 15.90248c0 .3568-.0509.6626-.2548.9684-.3568.5607-1.0194.8155-1.682.6626s-1.1213-.7646-1.1213-1.4272c0-2.1916 0-4.3833 0-6.575.1019-.5097.1019-1.0194.1019-1.4781z"/><path d="m22.6846 33.6631v5.7595c0 .2039-.051.3059-.3058.2549-.8155 0-1.682 0-2.5485 0-.1529 0-.2039-.051-.2039-.2039 0-3.8737 0-7.7473 0-11.57 0-.2039.051-.2549.2549-.2549h2.4975c.2548 0 .3058.051.3058.3058z"/><path d="m61.1155 18.831v3.6698c0 .8155-.7136 1.4781-1.5291 1.4781-.6626 0-1.2232-.4587-1.3762-1.0704-.0509-.1529-.0509-.3058-.0509-.4587 0-2.3956 0-4.8421 0-7.2376 0-.8156.6626-1.5291 1.5291-1.5291.8155 0 1.529.6626 1.529 1.5291z"/><path d="m8.31122 18.831c0-1.2233 0-2.3956 0-3.6188 0-.8156.66261-1.5291 1.47811-1.5291.50967 0 1.01937.2548 1.27427.6626.1529.2548.2548.5606.2548.8665v7.2376c0 .8155-.6626 1.5291-1.47809 1.5801-.81551 0-1.52909-.6626-1.58006-1.4782 0-.0509 0-.0509 0-.1019.05097-1.2233.05097-2.4465.05097-3.6188z"/><path d="m24.9272 18.831c0-1.2233 0-2.3956 0-3.6188 0-.8156.6626-1.5291 1.4782-1.5291.3567 0 .6626.1019.9684.3058.3568.2548.5606.7136.5606 1.1723v7.2886c0 .8155-.6626 1.5291-1.4781 1.5291s-1.5291-.6626-1.5291-1.5291c0 0 0 0 0-.051-.0509-1.1213 0-2.3446 0-3.5678z"/><path d="m44.4995 18.882v3.6188c0 .6116-.3058 1.1213-.8155 1.3762-.5097.2548-1.0704.2039-1.5291-.102-.4587-.3058-.7136-.8664-.6626-1.3761 0-2.0388 0-4.0776 0-6.1673 0-.3568 0-.6626 0-1.0194 0-.8155.6626-1.4781 1.5291-1.4781s1.4781.6626 1.4781 1.5291v.0509c.051 1.1213 0 2.3446 0 3.5679z"/><path d="m.00320807 20.9207v-1.529c-.05096937-.8155.50969193-1.5801 1.37617193-1.682.81551-.102 1.58005.5097 1.68199 1.3761v.2549 3.1091c0 .8155-.6626 1.5291-1.47811 1.5291-.866481 0-1.5290833-.7136-1.5290833-1.5291-.05096941-.5097-.05096863-1.0194-.05096863-1.5291z"/><path d="m36.1915 20.9207v1.5291c0 .8155-.6626 1.5291-1.4781 1.5291-.6626 0-1.2743-.4078-1.4782-1.0704-.0509-.1529-.0509-.3568-.0509-.5097 0-1.0194 0-2.0387 0-3.0581 0-.8155.6626-1.5291 1.4781-1.5291.5607 0 1.1213.3058 1.3762.8155.1019.2548.2038.5097.1529.7645z"/><path d="m69.4235 20.9207v1.5801c0 .8155-.6626 1.4781-1.5291 1.4781-.6626 0-1.2232-.4587-1.4271-1.0704-.051-.1529-.051-.3567-.051-.5097 0-.9684 0-1.9878 0-2.9562 0-.8665.5097-1.4781 1.2743-1.58.8155-.1529 1.58.4077 1.7329 1.2232v.2549z"/></g></svg>