<svg fill="none" height="48" viewBox="0 0 140 48" width="140" xmlns="http://www.w3.org/2000/svg" xmlns:xlink="http://www.w3.org/1999/xlink"><clipPath id="a"><path d="m0 0h139.896v48h-139.896z"/></clipPath><g clip-path="url(#a)" fill="#000"><path d="m53.915 27.318c-.3734-.4514-.845-.8114-1.3788-1.0527s-1.1157-.3573-1.7012-.3393c-.6383-.0051-1.2709.121-1.8585.3706-.5875.2495-1.1175.6172-1.557 1.0802-.4395.4629-.7792 1.0113-.9979 1.611s-.3119 1.238-.2736 1.8752c0 2.935 1.8 4.975 4.591 4.975.6332.02 1.262-.1113 1.8342-.3832.5723-.2718 1.0713-.6763 1.4558-1.1798l1.932 1.353c-.6291.775-1.4305 1.3923-2.3405 1.8028-.9099.4104-1.9031.6026-2.9005.5612-.954.0497-1.9079-.0999-2.8009-.4392s-1.7056-.8609-2.3858-1.5316c-.6803-.6707-1.2134-1.4757-1.5654-2.3638s-.5151-1.8398-.4789-2.7944c0-4.327 3.175-7.053 7.346-7.053.9191-.034 1.8346.1326 2.6829.4882.8482.3556 1.6089.8916 2.2291 1.5708z"/><path d="m57.472 23.239h2.3v14.41h-2.3z"/><path d="m63.823 24.021c.2682.0154.526.109.7415.2693.2156.1603.3795.3802.4714.6326.092.2524.108.5262.0461.7876s-.1989.4989-.3943.6833c-.1954.1843-.4405.3074-.705.354-.2646.0466-.5369.0148-.7836-.0917-.2466-.1064-.4566-.2828-.6042-.5073-.1475-.2244-.226-.4872-.2259-.7558.0049-.1857.0465-.3686.1223-.5382s.1844-.3226.3195-.4501c.1352-.1275.2941-.227.4678-.2928.1737-.0659.3587-.0968.5444-.0909zm-1.129 4.479h2.3v9.149h-2.3z"/><path d="m74.152 31.035c-.229-.2813-.5178-.508-.8454-.6637-.3277-.1557-.6859-.2364-1.0486-.2363-.7085.1063-1.3545.4656-1.8184 1.0115-.4639.5458-.7144 1.2413-.705 1.9576.0094.7164.278 1.405.7561 1.9386.4781.5335 1.1333.8757 1.8443.9633.3616.0067.7205-.0629 1.0533-.2042.3329-.1413.6323-.3511.8787-.6158l1.435 1.449c-.4501.4288-.9818.7627-1.5634.9821-.5817.2194-1.2015.3197-1.8226.2949-.6456.0195-1.2885-.0904-1.8909-.3232-.6025-.2327-1.1523-.5836-1.6171-1.032s-.8353-.9853-1.0895-1.579c-.2543-.5937-.3872-1.2322-.391-1.8781-.0038-.6458.1216-1.2859.3688-1.8825.2473-.5967.6114-1.1378 1.0709-1.5917.4595-.4538 1.0051-.8112 1.6048-1.051s1.2413-.3573 1.887-.3455c.6451-.0178 1.2867.1003 1.8831.3467.5965.2464 1.1344.6155 1.5789 1.0833z"/><path d="m77.346 23.239h2.3v9.111h.057l3.482-3.85h2.939l-3.979 4.136 4.227 5.013h-3.038l-3.635-4.689h-.057v4.689h-2.3z"/><path d="m97.68 27.318c-.3734-.4514-.845-.8114-1.3788-1.0527-.5338-.2412-1.1157-.3573-1.7012-.3393-.6383-.0051-1.2709.121-1.8584.3706-.5876.2496-1.1176.6172-1.5571 1.0802-.4395.4629-.7792 1.0113-.9979 1.611s-.3118 1.238-.2736 1.8752c0 2.935 1.8 4.975 4.591 4.975.6332.02 1.262-.1113 1.8343-.3832.5722-.2718 1.0713-.6763 1.4557-1.1798l1.932 1.353c-.6291.775-1.4305 1.3924-2.3405 1.8028-.9099.4104-1.9031.6026-2.9005.5612-.954.0497-1.9079-.0998-2.8009-.4392-.893-.3393-1.7055-.8609-2.3858-1.5316s-1.2134-1.4757-1.5654-2.3638c-.3519-.8881-.515-1.8398-.4789-2.7944 0-4.327 3.175-7.053 7.346-7.053.9198-.0345 1.8361.1318 2.6851.4874.849.3555 1.6103.8919 2.2309 1.5716z"/><path d="m109.712 33.799h-6.982c.076.6352.387 1.2187.872 1.6352.486.4166 1.11.6356 1.749.6138.472.0253.942-.07 1.367-.2768.425-.2067.791-.5182 1.062-.9052l1.53 1.22c-.643.7835-1.508 1.3535-2.482 1.6347s-2.01.2604-2.972-.0597c-.961-.32-1.803-.9242-2.414-1.7329-.611-.8086-.963-1.7836-1.008-2.7961-.031-.6483.072-1.2961.305-1.9021.232-.606.588-1.1569 1.046-1.6178.457-.4609 1.005-.8217 1.609-1.0592.604-.2376 1.25-.3469 1.899-.3209 2.563 0 4.438 1.658 4.438 4.956 0 .211 0 .405-.019.611zm-2.276-1.639c.026-.2923-.012-.5867-.11-.863-.099-.2764-.256-.5282-.461-.7382s-.453-.3732-.727-.4784c-.274-.1053-.567-.1501-.86-.1314-.627-.0274-1.24.1866-1.713.598s-.771.9888-.831 1.613z"/><path d="m117.631 36.487h-.057c-.317.4553-.746.822-1.244 1.0654-.499.2434-1.052.3555-1.606.3256-1.473 0-3.443-.705-3.443-2.84 0-2.726 3.443-3.107 6.313-3.107v-.229c0-1.125-.956-1.677-2.1-1.677-.939.0166-1.835.3915-2.506 1.048l-1.186-1.392c1.072-.9447 2.454-1.4607 3.883-1.449 3.29 0 4.094 2.021 4.094 3.85v5.566h-2.142zm-.038-3.012h-.516c-1.454 0-3.5.172-3.5 1.525 0 .877.823 1.144 1.607 1.144.32.0374.644.003.949-.1006.305-.1037.583-.274.814-.4986s.408-.4979.52-.7999c.112-.3019.156-.6251.127-.9459z"/><path d="m127.578 30.94c-.24-.3043-.544-.5513-.892-.7227-.347-.1715-.729-.2631-1.116-.2683-.727 0-1.473.267-1.473.991 0 .705.708.9 1.989 1.2 1.358.324 2.965.934 2.965 2.726 0 2.23-1.817 3.05-3.826 3.05-.697.0153-1.39-.1103-2.038-.369-.648-.2588-1.236-.6455-1.731-1.137l1.511-1.411c.28.356.638.6439 1.045.842.408.1982.855.3014 1.308.302.669 0 1.473-.267 1.473-1.087 0-.762-.708-.991-2.1-1.315-1.358-.324-2.716-.877-2.716-2.592 0-2.04 1.836-2.916 3.654-2.916.64-.0296 1.279.0794 1.874.3197.594.2402 1.129.606 1.569 1.0723z"/><path d="m139.878 33.799h-6.979c.076.6352.387 1.2187.872 1.6352.486.4166 1.11.6356 1.749.6138.472.0252.942-.0701 1.367-.2769s.791-.5182 1.062-.9051l1.53 1.22c-.643.783-1.509 1.3525-2.482 1.6334-.974.2808-2.01.2599-2.971-.0601-.962-.3199-1.803-.9239-2.415-1.7322-.611-.8082-.962-1.7828-1.008-2.7951-.031-.6483.072-1.2961.305-1.9021.232-.606.588-1.1569 1.045-1.6178.458-.4609 1.006-.8217 1.61-1.0592.604-.2376 1.25-.3469 1.899-.3209 2.563 0 4.438 1.658 4.438 4.956-.001.211-.001.405-.022.611zm-2.279-1.639c.026-.2926-.012-.5874-.111-.8641-.098-.2767-.256-.5287-.461-.7387-.206-.2101-.454-.3732-.729-.4782-.274-.1049-.568-.1493-.861-.13-.627-.0274-1.24.1866-1.713.598s-.771.9888-.831 1.613z"/><path d="m15.508 29.267c-.067 0-.134.01-.2.016-.0768.0071-.1494.0379-.208.088-.0747.0642-.1209.1555-.1284.2537-.0075.0983.0243.1955.0884.2703.9134 1.0456 1.9235 2.0025 3.017 2.858.0654.0507.1458.0782.2285.0782s.1631-.0275.2285-.0782c.506-.4.994-.833 1.473-1.281.175-.164.347-.335.518-.506.305-.3.6-.619.892-.942l.1-.115c.053-.0603.0853-.136.092-.216.0077-.0981-.0237-.1952-.0874-.2702s-.1546-.1216-.2526-.1298c-.406-.032-.861-.066-1.033-.075-.634-.0307-1.2707-.046-1.91-.046-.946 0-1.887.037-2.824.1m0-7.325c-1.167.074-2.324.2-3.471.368-.411.059-.816.141-1.222.22-.0261.0049-.0516.0126-.076.023-.0454.0188-.0866.0464-.1212.0812-.0347.0348-.0621.0762-.0807.1216-.0186.0455-.028.0942-.0277.1433.0004.0491.0104.0977.0296.1429.4287.964.9125 1.9025 1.449 2.811.0372.063.0921.1136.1579.1454.0659.0319.1397.0436.2121.0336 1.042-.144 2.089-.258 3.147-.325.937-.059 1.878-.1 2.824-.1.98 0 1.955.038 2.924.105.067 0 .133.012.2.017.7527.0547 1.5013.1277 2.246.219.113.014.353.049.54.076.0722.0108.1459-.0002.2118-.0316.0659-.0313.121-.0816.1582-.1444.072-.121.158-.266.209-.356.161-.279.318-.56.466-.845.277-.529.5-1.076.725-1.624.0095-.0232.0165-.0473.021-.072.0088-.048.008-.0973-.0024-.145-.0103-.0477-.03-.0929-.0579-.1329-.0279-.0401-.0634-.0743-.1046-.1005-.0411-.0263-.087-.0442-.1351-.0526-.491-.094-.979-.193-1.478-.261-.9287-.124-1.862-.2207-2.8-.29-.067 0-.133-.012-.2-.017-.969-.067-1.944-.105-2.924-.105-.946 0-1.887.038-2.824.1m-3.855-6.957c-.952.143-1.9.309-2.83.514-.08889.0198-.16751.0714-.22109.145-.05357.0737-.07843.1643-.06991.255.1013.8774.25322 1.7482.455 2.608.016.068.053.216.09.36.02392.0915.08207.1704.16247.2203.0804.0498.17688.0669.26952.0477l.27501-.056c.2493-.05.4997-.098.751-.144.547-.1 1.1-.187 1.647-.267.0663-.0011.1318-.0153.1926-.0419.0607-.0266.1156-.0651.1614-.1131.0548-.092.072-.2016.048-.306 0-.026-.008-.051-.013-.075-.06-.3-.4-2.191-.5-2.84-.0134-.0877-.0578-.1677-.1251-.2255-.0674-.0578-.1532-.0896-.2419-.0895-.0183-.0014-.0367-.0014-.055 0m4.373-.451h-.019c-.0486.0051-.0957.0198-.1386.0431-.043.0233-.0809.0549-.1116.0928-.0308.038-.0537.0817-.0676.1285-.0138.0469-.0183.096-.0132.1446.092.793.108 1.59.252 2.377.0157.2144.0749.4233.174.614.157.232.495.221.772.21h.175c1.577.011 3.156.07 4.727.208 1.577.137 3.1458.3563 4.7.657.2087.0407.4163.0823.623.125.0913.019.1863.0027.2661-.0455s.1383-.1249.1639-.2145c.025-.086.046-.162.054-.194.2289-.916.3999-1.8455.512-2.783.0093-.0905-.0151-.1813-.0684-.255-.0532-.0738-.1318-.1254-.2206-.145-1.167-.258-2.353-.455-3.55-.616-.9293-.124-1.8627-.221-2.8-.291-.067 0-.133-.012-.2-.017-.969-.068-1.944-.105-2.924-.105-.772 0-1.54.027-2.306.07m2.089 22.235c-8-5.084-13.411-14.367-13.409-23.832-.00005-.0837.02788-.1649.07934-.2309.05146-.0659.12349-.1128.20465-.1331 8.72821-2.4113 17.94641-2.414 26.67601-.008.078.0219.1469.0685.1961.1329s.0762.143.0769.2241c.037 9.341-5.515 18.766-13.408 23.84-.0597.0385-.129.0593-.2.06-.0709-.0004-.1402-.0209-.2-.059m-.18-30.769c-1.2 0-2.404.048-3.612.144-3.2458.27517-6.46134.83329-9.61001 1.668-1.05.27333-2.09499.57333-3.13499.9-.43915.13625-.824957.40591-1.103809.7715s-.4369015.809-.4521946 1.2685c-.2920164 5.665.8332676 11.3134 3.2740036 16.434.31133.632.64199 1.2537.99199 1.865.42733.746.88167 1.4757 1.363 2.189 3.06225 4.377 7.08031 7.9998 11.75001 10.594.2814.1639.6013.2503.927.2503s.6456-.0864.927-.2503c5.4051-3.1351 9.9088-7.613 13.075-13 1.585-2.7222 2.7641-5.6612 3.5-8.724.6791-3.1776.9479-6.4291.8-9.675-.008-.3886-.1435-.76386-.3856-1.06796-.2421-.30409-.5774-.52019-.9544-.61504-5.6279-1.72423-11.4698-2.65059-17.355-2.752z"/><path d="m49.163 13.464c-.1258-.183-.3019-.3258-.507-.411-.2253-.0917-.4668-.1369-.71-.133-.2549-.0035-.507.053-.736.165-.2177.1081-.4101.2608-.565.448-.1601.1946-.2832.417-.363.656-.0867.2577-.13.5281-.128.8-.009.3458.1148.6818.346.939.1357.135.299.2392.4786.3055.1797.0662.3715.093.5624.0785.2624.0018.5217-.0567.758-.171.2233-.1057.4285-.2461.608-.416l1.217 1.814c-.1651.1395-.338.2694-.518.389-.2094.139-.433.2554-.667.347-.2716.1063-.552.1883-.838.245-.3391.0683-.6842.1018-1.03.1-.5167.0083-1.031-.0711-1.521-.235-.4202-.1416-.8057-.3707-1.131-.672-.3116-.2952-.5537-.6559-.709-1.056-.1684-.4389-.2515-.9059-.245-1.376-.0052-.6206.1089-1.2364.336-1.814.3307-.8437.9109-1.5664 1.6632-2.0717.7522-.5053 1.6407-.7691 2.5468-.7563.5903-.0128 1.1775.0891 1.729.3.4335.1594.8243.4168 1.142.752zm8.441 4.94h-2.465l.512-2.9h-2.155l-.512 2.9h-2.466l1.334-7.555h2.454l-.459 2.593h2.155l.459-2.593h2.475zm7.331-5.5h-2.615l-.128.725h2.5l-.342 1.921h-2.5l-.139.79h2.924l-.363 2.059h-5.25l1.334-7.555h4.941zm8.606 2.641c-.0993.2064-.221.4013-.363.581-.1049.1378-.2288.26-.368.363l-.011.043 1.238-.075-.342 1.942h-4.364c-.5224.0078-1.0429-.065-1.543-.216-.4314-.1309-.8323-.3468-1.179-.635-.3256-.2748-.5847-.6198-.758-1.009-.1834-.4222-.2744-.8787-.267-1.339-.0037-.6065.1104-1.208.336-1.771.214-.5429.5355-1.0369.9454-1.4523.4099-.4153.8996-.7435 1.4396-.9647.5918-.2439 1.2269-.3654 1.867-.357.5282-.0073 1.0542.07 1.558.229.4323.1365.8332.3578 1.179.651.3227.2801.5794.6281.752 1.019.1825.4207.2735.8755.267 1.334.002.3036-.0357.6062-.112.9-.0675.2612-.1606.5151-.278.758m-2.273-1.841c-.058-.1595-.149-.305-.267-.427-.1244-.1254-.2736-.2234-.438-.288-.1885-.0738-.3896-.1101-.592-.107-.2607-.0036-.5185.055-.752.171-.2195.1105-.4139.2651-.571.454-.1584.1921-.2813.4109-.363.646-.0849.2399-.1282.4925-.128.747-.001.1795.0277.3579.085.528.0542.1632.1432.3127.261.438.1234.1291.2722.2312.437.3.195.0785.4038.1166.614.112.2649.0047.5269-.0558.763-.176.2199-.1141.4142-.272.571-.464.1576-.1945.2771-.4171.352-.656.0777-.2431.1171-.4968.117-.752.001-.1783-.0298-.3554-.091-.523"/></g></svg>