<svg width="120" height="48" viewBox="0 0 120 48" fill="none" xmlns="http://www.w3.org/2000/svg">
<path d="M16.0001 31.9561C11.6045 31.9561 8.04401 28.3957 8.04401 24.0001C8.04401 19.6044 11.6045 16.044 16.0001 16.044L17.6265 14.4176L16.0001 12.7913C9.84625 12.7913 4.79129 17.8022 4.79129 24.0001C4.79129 30.1978 9.80228 35.2088 16.0001 35.2088C22.1979 35.2088 27.2089 30.1978 27.2089 24.0001H23.9561C23.9561 28.3957 20.3957 31.9561 16.0001 31.9561Z" fill="black"/>
<path d="M28.7473 24C28.7473 31.033 23.033 36.7473 16 36.7473C8.96704 36.7473 3.25275 31.033 3.25275 24C3.25275 16.967 8.96704 11.2527 16 11.2527L17.6264 9.62637L16 8C7.16486 8 0 15.1649 0 24C0 32.8351 7.16486 40 16 40C24.8351 40 32 32.8351 32 24H28.7473Z" fill="black"/>
<path d="M15.9997 20.835L17.6261 19.2086L15.9997 17.5823C12.4833 17.5823 9.58221 20.4394 9.58221 23.9998C9.58221 27.5163 12.4394 30.4174 15.9997 30.4174C19.5602 30.4174 22.4173 27.5163 22.4173 23.9998H19.1646C19.1646 25.7581 17.758 27.1647 15.9997 27.1647C14.2415 27.1647 12.8349 25.7581 12.8349 23.9998C12.8349 22.2416 14.2415 20.835 15.9997 20.835Z" fill="black"/>
<path d="M113.435 17.509C113.727 18.2211 114.381 18.5772 115.396 18.5772C116.027 18.5772 116.558 18.3729 116.99 17.9643L119.091 19.4353C118.227 20.521 116.972 21.0639 115.326 21.0639C113.844 21.0639 112.653 20.6319 111.754 19.768C110.867 18.8924 110.423 17.7892 110.423 16.4583C110.423 15.139 110.861 14.0358 111.736 13.1485C112.612 12.2613 113.727 11.8176 115.081 11.8176C116.389 11.8176 117.469 12.2554 118.321 13.131C119.173 14.0066 119.599 15.104 119.599 16.4232C119.599 16.8085 119.558 17.1704 119.477 17.509H113.435ZM113.4 15.4951H116.762C116.529 14.6779 115.98 14.2693 115.116 14.2693C114.217 14.2693 113.645 14.6779 113.4 15.4951Z" fill="black"/>
<path d="M105.402 14.6195C105.402 14.783 105.548 14.9172 105.84 15.0223C106.143 15.1274 106.505 15.2266 106.925 15.32C107.357 15.4134 107.783 15.5477 108.204 15.7228C108.636 15.8862 108.998 16.1722 109.289 16.5809C109.593 16.9895 109.745 17.5031 109.745 18.1219C109.745 19.1259 109.371 19.8672 108.624 20.3459C107.877 20.8246 106.99 21.0639 105.962 21.0639C104.001 21.0639 102.693 20.3693 102.039 18.98L104.579 17.7016C104.801 18.3437 105.256 18.6648 105.945 18.6648C106.47 18.6648 106.733 18.5072 106.733 18.1919C106.733 18.0285 106.587 17.8942 106.295 17.7892C106.003 17.6841 105.647 17.579 105.227 17.474C104.806 17.3689 104.386 17.2288 103.966 17.0537C103.546 16.8786 103.189 16.5984 102.898 16.2131C102.606 15.8162 102.46 15.3317 102.46 14.7596C102.46 13.8257 102.804 13.1018 103.493 12.5881C104.182 12.0745 105.011 11.8176 105.98 11.8176C107.707 11.8176 108.91 12.4948 109.587 13.849L107.135 14.9523C106.879 14.4502 106.517 14.1992 106.05 14.1992C105.618 14.1992 105.402 14.3393 105.402 14.6195Z" fill="black"/>
<path d="M100.712 10.8544C100.385 11.1813 99.9943 11.3448 99.539 11.3448C99.0837 11.3448 98.6867 11.1813 98.3482 10.8544C98.0213 10.5159 97.8578 10.1189 97.8578 9.66363C97.8578 9.20832 98.0213 8.81722 98.3482 8.49033C98.6867 8.16344 99.0837 8 99.539 8C99.9943 8 100.385 8.16344 100.712 8.49033C101.051 8.81722 101.22 9.20832 101.22 9.66363C101.22 10.1189 101.051 10.5159 100.712 10.8544ZM98.0855 20.8187V12.0628H100.992V20.8187H98.0855Z" fill="black"/>
<path d="M93.9553 12.0629H97.0374L94.3581 20.8188H91.5212L90.2603 16.3708L88.9995 20.8188H86.1626L83.4832 12.0629H86.5653L87.7211 16.8261L89.0345 12.0629H91.4862L92.7996 16.8261L93.9553 12.0629Z" fill="black"/>
<path d="M83.4442 20.8186H80.187L77.7003 17.0886V20.8186H74.7934V8.5603H77.7003V15.7227L79.9594 12.0627H83.3216L80.3796 16.4406L83.4442 20.8186Z" fill="black"/>
<path d="M69.8648 21.0639C68.5339 21.0639 67.4249 20.6203 66.5376 19.733C65.6503 18.8457 65.2067 17.7483 65.2067 16.4408C65.2067 15.1332 65.6503 14.0358 66.5376 13.1485C67.4249 12.2613 68.5339 11.8176 69.8648 11.8176C70.7288 11.8176 71.511 12.0219 72.2114 12.4305C72.9236 12.8392 73.4723 13.3879 73.8576 14.0767L71.3709 15.5126C71.0557 14.9406 70.5478 14.6545 69.8473 14.6545C69.357 14.6545 68.9484 14.8238 68.6215 15.1624C68.2946 15.4893 68.1312 15.9154 68.1312 16.4408C68.1312 16.9661 68.2946 17.3981 68.6215 17.7366C68.9484 18.0635 69.357 18.227 69.8473 18.227C70.5712 18.227 71.079 17.9351 71.3709 17.3514L73.8576 18.7873C73.4723 19.4878 72.9236 20.0424 72.2114 20.451C71.511 20.8596 70.7288 21.0639 69.8648 21.0639Z" fill="black"/>
<path d="M59.6729 21.0639C58.377 21.0639 57.2737 20.6203 56.3631 19.733C55.4525 18.834 54.9972 17.7366 54.9972 16.4408C54.9972 15.1449 55.4525 14.0533 56.3631 13.166C57.2737 12.2671 58.377 11.8176 59.6729 11.8176C60.9804 11.8176 62.0837 12.2671 62.9826 13.166C63.8932 14.0533 64.3485 15.1449 64.3485 16.4408C64.3485 17.7366 63.8932 18.834 62.9826 19.733C62.0837 20.6203 60.9804 21.0639 59.6729 21.0639ZM59.6729 18.262C60.1865 18.262 60.6068 18.0927 60.9337 17.7541C61.2723 17.4156 61.4416 16.9778 61.4416 16.4408C61.4416 15.9037 61.2723 15.4659 60.9337 15.1274C60.6068 14.7888 60.1865 14.6195 59.6729 14.6195C59.1709 14.6195 58.7506 14.7888 58.412 15.1274C58.0851 15.4659 57.9217 15.9037 57.9217 16.4408C57.9217 16.9778 58.0851 17.4156 58.412 17.7541C58.7506 18.0927 59.1709 18.262 59.6729 18.262Z" fill="black"/>
<path d="M50.8514 20.8186V8.03491H53.7584V20.8186H50.8514Z" fill="black"/>
<path d="M44.3918 21.0813C42.5472 21.0813 41.0179 20.4742 39.8037 19.26C38.6012 18.0342 38 16.5107 38 14.6894C38 12.8682 38.6012 11.3505 39.8037 10.1364C41.0179 8.91052 42.5472 8.29761 44.3918 8.29761C45.5009 8.29761 46.5283 8.56029 47.4739 9.08564C48.4196 9.611 49.1609 10.3173 49.6979 11.2046L46.9836 12.7631C46.7501 12.3312 46.3999 11.9926 45.9329 11.7474C45.4776 11.4906 44.9639 11.3622 44.3918 11.3622C43.4112 11.3622 42.6173 11.6716 42.0102 12.2903C41.4148 12.8974 41.1171 13.6971 41.1171 14.6894C41.1171 15.6818 41.4148 16.4873 42.0102 17.1061C42.6173 17.7132 43.4112 18.0167 44.3918 18.0167C44.9639 18.0167 45.4776 17.8941 45.9329 17.6489C46.3999 17.3921 46.7501 17.0419 46.9836 16.5982L49.6979 18.1743C49.1609 19.0732 48.4196 19.7854 47.4739 20.3107C46.54 20.8244 45.5126 21.0813 44.3918 21.0813Z" fill="black"/>
<path d="M104.871 30.8237C106.167 30.8237 107.212 31.2849 108.006 32.2072C108.811 33.1178 109.214 34.1977 109.214 35.4469C109.214 35.5753 109.202 35.7562 109.179 35.9897H101.491C101.608 36.877 101.982 37.5833 102.612 38.1087C103.254 38.6223 104.042 38.8792 104.976 38.8792C105.642 38.8792 106.214 38.7449 106.692 38.4764C107.183 38.1962 107.55 37.8343 107.796 37.3907L108.811 37.9861C108.426 38.6048 107.901 39.0952 107.235 39.4571C106.57 39.819 105.811 39.9999 104.959 39.9999C103.581 39.9999 102.46 39.568 101.596 38.7041C100.732 37.8401 100.3 36.7427 100.3 35.4118C100.3 34.1043 100.727 33.0127 101.579 32.1371C102.431 31.2615 103.528 30.8237 104.871 30.8237ZM104.871 31.9445C103.96 31.9445 103.196 32.2188 102.577 32.7675C101.97 33.3046 101.608 34.0051 101.491 34.869H108.023C107.906 33.9467 107.55 33.2287 106.955 32.715C106.36 32.2013 105.665 31.9445 104.871 31.9445Z" fill="black"/>
<path d="M97.0051 32.4875C97.5421 31.4251 98.4644 30.8939 99.772 30.8939V32.0147C98.9781 32.0147 98.3185 32.2482 97.7932 32.7152C97.2678 33.1821 97.0051 33.9176 97.0051 34.9216V39.7899H95.8493V31.034H97.0051V32.4875Z" fill="black"/>
<path d="M92.2464 31.0339H93.4022V39.7898H92.2464V38.0736C91.4409 39.3578 90.2617 39.9999 88.709 39.9999C87.4598 39.9999 86.3916 39.5563 85.5043 38.669C84.6287 37.7818 84.1909 36.696 84.1909 35.4118C84.1909 34.1276 84.6287 33.0419 85.5043 32.1546C86.3916 31.2674 87.4598 30.8237 88.709 30.8237C90.2617 30.8237 91.4409 31.4658 92.2464 32.75V31.0339ZM86.3449 37.881C87.0104 38.5465 87.8276 38.8792 88.7966 38.8792C89.7656 38.8792 90.5828 38.5465 91.2482 37.881C91.9137 37.2039 92.2464 36.3808 92.2464 35.4118C92.2464 34.4428 91.9137 33.6256 91.2482 32.9602C90.5828 32.2831 89.7656 31.9445 88.7966 31.9445C87.8276 31.9445 87.0104 32.2831 86.3449 32.9602C85.6795 33.6256 85.3467 34.4428 85.3467 35.4118C85.3467 36.3808 85.6795 37.2039 86.3449 37.881Z" fill="black"/>
<path d="M82.1246 31.0338H83.3154L80.6185 39.7897H79.3577L77.0987 32.7325L74.8396 39.7897H73.5788L70.882 31.0338H72.0728L74.2267 38.3012L76.5208 31.0338H77.6766L79.9706 38.3012L82.1246 31.0338Z" fill="black"/>
<path d="M69.6561 32.1548H67.1344V37.4609C67.1344 37.9396 67.2278 38.284 67.4146 38.4941C67.6014 38.6926 67.8816 38.7976 68.2551 38.8093C68.6287 38.8093 69.0957 38.7976 69.6561 38.7743V39.79C68.4303 39.9768 67.508 39.8892 66.8892 39.5273C66.2821 39.1654 65.9786 38.4766 65.9786 37.4609V32.1548H64.1399V31.0341H65.9786V28.9326L67.1344 28.5824V31.0341H69.6561V32.1548Z" fill="black"/>
<path d="M63.4422 28.4422C62.5899 28.3721 61.9536 28.5181 61.5334 28.88C61.1247 29.2419 60.9204 29.8431 60.9204 30.6837V31.034H63.4422V32.1547H60.9204V39.7899H59.7647V32.1547H58.2762V31.034H59.7647V30.6837C59.7647 29.5396 60.0799 28.6757 60.7103 28.092C61.3524 27.4966 62.263 27.2397 63.4422 27.3214V28.4422Z" fill="black"/>
<path d="M56.1237 38.6866C55.2364 39.5622 54.1507 39.9999 52.8665 39.9999C51.5823 39.9999 50.4907 39.5622 49.5918 38.6866C48.7045 37.7993 48.2609 36.7077 48.2609 35.4118C48.2609 34.116 48.7045 33.0302 49.5918 32.1546C50.4907 31.2674 51.5823 30.8237 52.8665 30.8237C54.1507 30.8237 55.2364 31.2674 56.1237 32.1546C57.0226 33.0302 57.4721 34.116 57.4721 35.4118C57.4721 36.7077 57.0226 37.7993 56.1237 38.6866ZM50.4148 37.881C51.0803 38.5465 51.8975 38.8792 52.8665 38.8792C53.8355 38.8792 54.6527 38.5465 55.3181 37.881C55.9836 37.2039 56.3163 36.3808 56.3163 35.4118C56.3163 34.4428 55.9836 33.6256 55.3181 32.9602C54.6527 32.2831 53.8355 31.9445 52.8665 31.9445C51.8975 31.9445 51.0803 32.2831 50.4148 32.9602C49.7494 33.6256 49.4166 34.4428 49.4166 35.4118C49.4166 36.3808 49.7494 37.2039 50.4148 37.881Z" fill="black"/>
<path d="M42.5531 40C41.4323 40 40.4692 39.7373 39.6636 39.212C38.8698 38.6749 38.3152 37.9394 38 37.0055L39.0507 36.3926C39.2725 37.1514 39.6811 37.7468 40.2765 38.1788C40.8719 38.599 41.6366 38.8092 42.5706 38.8092C43.4812 38.8092 44.1875 38.6107 44.6895 38.2138C45.2032 37.8052 45.4601 37.2681 45.4601 36.6027C45.4601 35.9606 45.2266 35.4761 44.7596 35.1492C44.2926 34.8223 43.5221 34.4838 42.448 34.1335C41.1755 33.7132 40.3349 33.3747 39.9263 33.1178C38.9923 32.5575 38.5254 31.7461 38.5254 30.6837C38.5254 29.6447 38.8873 28.8274 39.6111 28.232C40.3349 27.6249 41.228 27.3214 42.2904 27.3214C43.2477 27.3214 44.0766 27.5724 44.7771 28.0744C45.4776 28.5648 45.9971 29.1952 46.3356 29.9657L45.3024 30.5436C44.7421 29.1893 43.7381 28.5122 42.2904 28.5122C41.5316 28.5122 40.9186 28.699 40.4517 29.0726C39.9847 29.4462 39.7512 29.9657 39.7512 30.6312C39.7512 31.2382 39.9613 31.6935 40.3816 31.9971C40.8019 32.3006 41.4965 32.61 42.4655 32.9252C42.9092 33.077 43.2244 33.1879 43.4112 33.2579C43.6096 33.3163 43.8898 33.4214 44.2517 33.5731C44.6253 33.7132 44.8997 33.8417 45.0748 33.9584C45.2499 34.0635 45.4601 34.2152 45.7052 34.4137C45.9621 34.6005 46.143 34.7931 46.2481 34.9916C46.3648 35.1784 46.4641 35.4119 46.5458 35.6921C46.6392 35.9606 46.6859 36.2525 46.6859 36.5677C46.6859 37.6067 46.3065 38.4414 45.5476 39.0719C44.7888 39.6906 43.7906 40 42.5531 40Z" fill="black"/>
</svg>
