<svg width="40" height="40" viewBox="0 0 40 40" fill="none" xmlns="http://www.w3.org/2000/svg">
<rect width="40" height="40" fill="white"/>
<path d="M23.8277 4H16.1723C9.44972 4 4 9.44972 4 16.1723V23.8277C4 30.5503 9.44972 36 16.1723 36H23.8277C30.5503 36 36 30.5503 36 23.8277V16.1723C36 9.44972 30.5503 4 23.8277 4Z" fill="#0128FF"/>
<path d="M18.8021 26.7569C19.1837 26.7569 19.2698 26.9908 19.3888 27.3436L19.9468 29.1036C20.0042 29.3087 20.1232 29.3949 20.2996 29.3949H20.5334C20.7098 29.3949 20.8247 29.3087 20.8862 29.1036L21.4442 27.3436C21.5632 26.9908 21.5919 26.7282 22.3221 26.7282C23.9632 26.7282 25.518 26.4944 26.6873 25.3498C27.2452 24.7918 27.918 24.5867 28.5621 25.0257L29.1201 25.4072C29.9119 25.9364 30.1457 26.9292 29.5016 27.6062C27.8606 29.2759 25.5468 30.2728 22.9088 30.2728H18.515C13.3006 30.2728 9.43188 26.4041 9.43188 21.2759V18.7569C9.43188 13.6287 13.3006 9.76001 18.515 9.76001H22.9088C25.5468 9.76001 27.8606 10.7569 29.5016 12.4267C30.1457 13.0995 29.9119 14.0964 29.1201 14.6257L28.5621 15.0072C27.918 15.4462 27.2452 15.241 26.6873 14.6831C25.5139 13.5385 23.9632 13.3046 22.3221 13.3046L18.8062 13.2759C15.1714 13.2472 13.2391 15.5036 13.2391 18.7569V21.2759C13.2391 24.5292 15.1714 26.7569 18.8062 26.7569H18.8021Z" fill="white"/>
</svg>
