<svg width="40" height="40" viewBox="0 0 40 40" fill="none" xmlns="http://www.w3.org/2000/svg">
<rect width="40" height="40" fill="white"/>
<path d="M11.2738 29.2169C10.8426 29.2163 10.4158 29.1297 10.0184 28.9622C9.62103 28.7946 9.26107 28.5495 8.95962 28.2411C8.34434 27.6097 8 26.7631 8 25.8815C8 25 8.34434 24.1533 8.95962 23.522C9.26038 23.2115 9.62046 22.9647 10.0185 22.7962C10.4165 22.6276 10.8443 22.5408 11.2765 22.5408C11.7087 22.5408 12.1366 22.6276 12.5346 22.7962C12.9326 22.9647 13.2926 23.2115 13.5934 23.522C14.2087 24.1533 14.553 25 14.553 25.8815C14.553 26.7631 14.2087 27.6097 13.5934 28.2411C13.2906 28.5491 12.9296 28.794 12.5315 28.9615C12.1333 29.129 11.7058 29.2158 11.2738 29.2169Z" fill="#DA3230"/>
<path d="M8.38904 6H22.8823L15.7156 21.7143" fill="#DA3230"/>
<path d="M26.8122 7.0023C27.1125 6.69355 27.4721 6.44862 27.8693 6.28219C28.2666 6.11576 28.6934 6.03126 29.1241 6.03374C29.5548 6.03623 29.9806 6.12567 30.3759 6.29668C30.7712 6.46769 31.1279 6.71676 31.4246 7.02897C31.9138 7.54352 32.2285 8.199 32.3242 8.90247C32.4199 9.60594 32.2918 10.3217 31.9579 10.9482L31.8139 11.2575L29.3717 16.5365L26.3323 23.1486L21.3732 33.9998L17.7686 26.1187V26.092L26.0603 8.17541C26.087 8.10076 26.119 8.03144 26.151 7.95679C26.3138 7.60239 26.5376 7.27932 26.8122 7.0023Z" fill="#DA3230"/>
</svg>
