<svg fill="none" height="48" viewBox="0 0 116 48" width="116" xmlns="http://www.w3.org/2000/svg"><g fill="#000"><path d="m114.324 17.4355-.333 3.947h-1.611c-2.567 0-3.898 2.0598-3.898 4.0441v8.9187h-4.533v-16.9098h4.307l.097 2.1137c.902-1.4451 2.481-2.1137 4.436-2.1137z"/><path d="m82.8218 34.3453h-4.5433v-8.9402c0-1.8765-.1718-4.2275-2.7818-4.2275-2.5241 0-3.5338 1.8334-3.5338 3.9579v9.199h-4.5433v-16.899h4.2211l.0967 2.1568c.9022-1.4451 2.5885-2.5774 5.0696-2.5774 4.5863 0 6.0256 3.2892 6.0256 6.697z"/><path d="m65.4326 30.3982-.3222 3.85c-1.0526.2804-2.1374.4206-3.233.3991-4.2856 0-5.5315-1.9736-5.5315-5.9422v-16.0363h4.5541v4.7667h4.5218l-.3114 3.947h-4.2104v6.9667c0 1.5961.4296 2.4481 2.0622 2.4481.8378.0107 1.6756-.1295 2.4704-.3991z"/><path d="m54.8637 17.4355-.3544 3.947h-1.2352c-2.5563 0-3.8345 2.0598-3.8345 4.0441v8.9187h-4.5433v-16.9098h4.2963l.0859 2.1137c.913-1.4343 2.4919-2.1137 4.4467-2.1137z"/><path d="m24.3707 32.4688c-3.0825 1.6608-6.1651 2.6098-10.2359 2.4912-7.53998-.2265-12.98554-4.9392-12.98554-12.8765 0-7.9049 5.49926-12.96273 12.99634-13.08136 3.8022-.05392 7.1963.90588 9.86 3.26766l-3.2115 3.2461c-1.6434-1.4128-4.06-2.2324-6.96-2.103-4.71521.2157-7.5615 3.6667-7.62595 8.3902-.06444 5.1226 3.07185 8.6598 7.96965 8.7892 2.3092.0539 3.9526-.248 5.3811-.8951v-5.2304h-5.0911l.3437-4.3029h9.5485z"/><path d="m101.919 27.508h-12.4701c.3544 2.1569 2.0515 3.4618 4.1567 3.5265 2.0515.0539 3.19-.5608 4.6937-2.0922l2.9647 2.254c-2.1055 2.6098-4.6403 3.5588-7.5295 3.5588-5.0697 0-8.8611-3.5588-8.8611-8.8647s3.7807-8.8647 8.6785-8.8647c5.4026 0 8.3561 3.2892 8.3561 9.1127zm-4.5542-3.548c-.1396-2.1353-1.7292-3.4834-3.9311-3.3971-2.1911.0863-3.6841 1.5314-3.9848 3.3971z"/><path d="m42.0285 23.2698v11.0755h-4.017l-.0967-1.6716c-1.2244 1.5314-3.2222 2.0814-5.2844 2.0814-3.0934 0-6.0148-1.5314-6.0793-5.101-.0859-5.6078 6.2941-6.0069 10.3004-6.0069h.8055v-.2264c0-1.8549-1.2244-2.8579-3.5229-2.8579-1.6756.0108-3.2759.6471-4.5004 1.801l-2.6207-2.6745c2.1052-1.7578 4.7689-2.7069 7.497-2.6637 5.22 0 7.5185 2.4157 7.5185 6.2441zm-4.3715 3.699h-.6337c-2.1481 0-5.9288.1079-5.9181 2.3726.0215 3.1921 6.5518 2.1676 6.5518-1.6716z"/></g></svg>