<svg fill="none" height="48" viewBox="0 0 113 48" width="113" xmlns="http://www.w3.org/2000/svg"><g fill="#000"><path d="m48.2376 25.6501c0 5.3233-4.1644 9.2459-9.275 9.2459-5.1107 0-9.275-3.9226-9.275-9.2459 0-5.3607 4.1643-9.2458 9.275-9.2458 5.1106 0 9.275 3.8851 9.275 9.2458zm-4.0602 0c0-3.3265-2.4136-5.6025-5.2148-5.6025-2.8013 0-5.2149 2.276-5.2149 5.6025 0 3.2932 2.4136 5.6026 5.2149 5.6026 2.8012 0 5.2148-2.3136 5.2148-5.6026z"/><path d="m68.2468 25.6501c0 5.3233-4.1644 9.2459-9.275 9.2459s-9.275-3.9226-9.275-9.2459c0-5.3565 4.1644-9.2458 9.275-9.2458s9.275 3.8851 9.275 9.2458zm-4.0602 0c0-3.3265-2.4135-5.6025-5.2148-5.6025s-5.2149 2.276-5.2149 5.6025c0 3.2932 2.4136 5.6026 5.2149 5.6026s5.2148-2.3136 5.2148-5.6026z"/><path d="m87.4224 16.9629v16.5991c0 6.8281-4.0268 9.6169-8.7873 9.6169-4.4812 0-7.1782-2.9972-8.1953-5.4483l3.5349-1.4715c.6294 1.5048 2.1718 3.2806 4.6563 3.2806 3.0472 0 4.9355-1.88 4.9355-5.4191v-1.3297h-.1417c-.9088 1.1213-2.6596 2.1009-4.8689 2.1009-4.6229 0-8.8581-4.0268-8.8581-9.2083 0-5.219 4.2352-9.2792 8.8581-9.2792 2.2052 0 3.956.9796 4.8689 2.0676h.1417v-1.5048h3.8559zm-3.5683 8.7206c0-3.2557-2.1718-5.6359-4.9355-5.6359-2.8013 0-5.1482 2.3802-5.1482 5.6359 0 3.2223 2.3469 5.5692 5.1482 5.5692 2.7637 0 4.9355-2.3469 4.9355-5.5692z"/><path d="m93.779 7.23358v27.09552h-3.9602v-27.09552z"/><path d="m109.211 28.6932 3.152 2.1009c-1.017 1.5049-3.468 4.0977-7.704 4.0977-5.252 0-9.1746-4.0601-9.1746-9.2458 0-5.4983 3.9559-9.2459 8.7206-9.2459 4.798 0 7.145 3.8184 7.912 5.8819l.421 1.0504-12.36 5.119c.946 1.855 2.418 2.8013 4.481 2.8013 2.068 0 3.502-1.0171 4.552-2.5595zm-9.6998-3.3265 8.2618-3.4307c-.454-1.1547-1.821-1.9592-3.43-1.9592-2.064 0-4.936 1.8216-4.8318 5.3899z"/><path d="m14.6975 23.2447v-3.9226h13.2184c.1292.6837.1959 1.4924.1959 2.3678 0 2.943-.8045 6.5821-3.3973 9.1749-2.522 2.6262-5.7443 4.0269-10.0129 4.0269-7.91188 0-14.564881-6.4446-14.564881-14.3565s6.653001-14.35649 14.564881-14.35649c4.377 0 7.4951 1.71744 9.8378 3.95599l-2.7679 2.7679c-1.6799-1.5757-3.956-2.8013-7.074-2.8013-5.77765 0-10.29636 4.6563-10.29636 10.4339s4.51871 10.4339 10.29636 10.4339c3.7475 0 5.8818-1.5049 7.2491-2.8722 1.1088-1.1088 1.8383-2.6928 2.1259-4.8563z"/></g></svg>