<svg fill="none" height="48" viewBox="0 0 100 48" width="100" xmlns="http://www.w3.org/2000/svg"><path d="m90.9017 16.5492c-2.2939.0024-4.4941.9053-6.1162 2.5106-1.6221 1.6054-2.5348 3.782-2.5369 6.0523v6.1372h-10.4577c-1.4319-.0037-2.8189-.4981-3.9241-1.3992-1.1055-.9011-1.8614-2.1532-2.1394-3.5435l14.7173.0274v-1.2219c0-1.8793-.6253-3.7063-1.7782-5.1994-1.1536-1.4931-2.7708-2.5693-4.6039-3.0627-1.8323-.4934-3.7778-.3766-5.5366.3325-1.7586.7089-3.2329 1.9708-4.1953 3.5909-.7729-1.3008-1.8796-2.3763-3.2079-3.1178-1.3282-.7414-2.8308-1.1223-4.3557-1.1042-1.5247.0181-3.0178.4346-4.3275 1.2074-1.31.7728-2.3902 1.8743-3.1312 3.1931-.9317-1.6572-2.3931-2.9615-4.1549-3.7082-1.7616-.7467-3.7238-.8936-5.5791-.4176-1.855.4759-3.4981 1.5478-4.6713 3.0474-1.1729 1.4997-1.8097 3.3422-1.8105 5.2386v6.1235h-9.5508c-1.4245-.0019-2.8048-.4902-3.9078-1.3824-1.103-.8921-1.8611-2.1335-2.1465-3.5146h14.7125v-1.2265c-.001-1.8765-.6253-3.7007-1.7763-5.192-1.151-1.4914-2.7653-2.5672-4.5945-3.0622-1.8292-.4951-3.7721-.3818-5.5299.3224-1.7578.7041-3.2332 1.96-4.1993 3.5748-.6745-1.132-1.6036-2.0949-2.7151-2.814-1.1116-.719-2.3757-1.1748-3.69421-1.332-1.3184-.1571-2.65576-.0114-3.9081.4258-1.25234.4373-2.38595 1.1543-3.31278 2.0955v-11.1304h-2.46981v25.6613h2.47444v-8.5492c-.02259-.8173.12058-1.6309.42107-2.3925.30048-.7617.75217-1.4561 1.32841-2.042.57624-.5861 1.26533-1.0519 2.02655-1.3699.76121-.318 1.57911-.4819 2.40542-.4819.8263 0 1.64421.1639 2.40541.4819.7613.318 1.4503.7838 2.0266 1.3699.5762.5859 1.0279 1.2803 1.3284 2.042.3004.7616.4436 1.5752.4211 2.3925v8.5492h2.4744v-2.6133c.8043.8334 1.7711 1.4968 2.842 1.9499 1.0708.4531 2.2234.6866 3.388.6863h9.5462v6.3158h2.479v-14.8879c.001-1.2103.3645-2.393 1.0449-3.3988.6802-1.0057 1.6464-1.7893 2.7767-2.2516 1.1304-.4623 2.3739-.5826 3.5731-.3455 1.1995.2369 2.3008.8206 3.1651 1.6769.8642.8564 1.4521 1.9471 1.69 3.1343.2376 1.1871.1142 2.4173-.3547 3.5351-.4689 1.1177-1.262 2.0728-2.2796 2.7444-1.0174.6716-2.2132 1.0296-3.4363 1.0287h-.0277l-3.0665.1511.1249 2.444 3.0294-.151c1.2129-.0075 2.4106-.2677 3.5151-.7637 1.1046-.496 2.091-1.2168 2.8954-2.1152v9.1992h2.4743v-14.8879c.001-1.2103.3645-2.393 1.0449-3.3988.6802-1.0057 1.6464-1.7893 2.7768-2.2516 1.1303-.4623 2.3738-.5826 3.5731-.3455 1.1994.2369 2.3008.8206 3.165 1.6769.8642.8564 1.4521 1.9471 1.69 3.1343.2376 1.1871.1142 2.4173-.3547 3.5351-.4689 1.1177-1.262 2.0728-2.2796 2.7444-1.0174.6716-2.2132 1.0296-3.4363 1.0287v2.4486c1.5074-.0015 2.9883-.3922 4.2959-1.1339 1.3078-.7418 2.3969-1.8086 3.1599-3.095.763 1.2891 1.8531 2.3584 3.1626 3.1018s2.7926 1.1351 4.3022 1.1362h12.9273v-8.5812c0-1.6229.6517-3.1793 1.8115-4.3268 1.1592-1.1475 2.7319-1.7922 4.372-1.7922 1.6402 0 3.213.6447 4.3728 1.7922s1.8115 2.7039 1.8115 4.3268h2.4696c-.0028-2.2703-.9148-4.4469-2.5376-6.0523-1.6221-1.6053-3.8216-2.5082-6.1163-2.5106zm-19.1108 2.4348c1.4236.0017 2.8041.4894 3.9063 1.3806 1.1036.8912 1.8615 2.1316 2.1482 3.5118h-12.1042c.2863-1.3795 1.0442-2.6193 2.1461-3.5104 1.1018-.8911 2.4807-1.3792 3.9036-1.382zm-48.2491 0c1.4251.0017 2.8062.4899 3.9097 1.3819 1.1038.8921 1.8629 2.1336 2.1491 3.5151h-12.1084c.2852-1.3804 1.0426-2.6212 2.1446-3.5132 1.1021-.8921 2.4812-1.3808 3.905-1.3838z" fill="#000"/></svg>