<svg width="190" height="48" viewBox="0 0 190 48" fill="none" xmlns="http://www.w3.org/2000/svg">
<g clip-path="url(#clip0_923_34)">
<path d="M56.9473 24.0207C56.9473 26.5522 56.9474 29.0837 56.9476 31.6152C56.9476 32.0328 56.9494 32.0412 56.5606 32.0453C55.8396 32.053 55.1185 32.0542 54.3973 32.0491C53.9472 32.0453 53.9422 32.0365 53.9416 31.5624C53.9391 29.6638 53.9385 27.7652 53.9398 25.8666C53.9398 25.7787 53.942 25.6907 53.94 25.6029C53.931 25.2081 53.9306 25.2009 53.522 25.2002C51.4115 25.1966 49.3009 25.1955 47.1903 25.1968C46.7946 25.1969 46.7872 25.2015 46.787 25.6058C46.7861 27.5572 46.7876 29.5085 46.7917 31.4599C46.7928 32.1687 46.8077 32.0401 46.1945 32.0473C45.491 32.0556 44.7873 32.0422 44.084 32.0534C43.8113 32.0578 43.7096 31.956 43.7199 31.6826C43.7358 31.2613 43.7222 30.839 43.7222 30.4171C43.7226 25.776 43.7231 21.1349 43.7237 16.4938C43.7237 16.4235 43.7274 16.3527 43.7205 16.283C43.697 16.0452 43.8175 15.9824 44.036 15.984C44.6866 15.9887 45.3375 15.9663 45.9879 15.9772C46.7824 15.9905 46.7355 15.824 46.7355 16.7494C46.7355 18.5776 46.7365 20.4059 46.7386 22.2342C46.7392 22.7255 46.7428 22.7247 47.2456 22.7243C49.2857 22.7224 51.3259 22.7208 53.3661 22.7195C53.4891 22.7194 53.6125 22.7225 53.7351 22.7148C53.7615 22.7156 53.7878 22.711 53.8124 22.7013C53.837 22.6917 53.8594 22.6771 53.8781 22.6585C53.8969 22.6399 53.9117 22.6177 53.9216 22.5932C53.9315 22.5687 53.9364 22.5425 53.9359 22.5161C53.9424 22.3934 53.9401 22.2703 53.9401 22.1473C53.941 20.2487 53.942 18.3501 53.9431 16.4515C53.9437 15.9968 53.948 15.9893 54.4029 15.9834C55.1063 15.9744 55.8098 15.9741 56.5132 15.9752C56.9359 15.9759 56.9435 15.9802 56.9439 16.4263C56.9465 18.9578 56.9469 21.4893 56.9452 24.0208L56.9473 24.0207Z" fill="black"/>
<path d="M96.0632 22.116C96.274 22.0297 96.455 21.8837 96.584 21.6959C98.0454 20.1849 100.925 20.1764 102.367 21.6889C102.984 22.3329 103.324 23.1923 103.316 24.0839C103.337 26.5974 103.324 29.1112 103.321 31.6249C103.321 32.0106 103.313 32.0175 102.952 32.0202C102.266 32.0253 101.58 32.0254 100.895 32.0203C100.466 32.0169 100.46 32.0107 100.459 31.5745C100.453 29.4125 100.449 27.2505 100.447 25.0884C100.478 24.6481 100.39 24.2076 100.192 23.8131C99.7837 23.1091 99.0815 22.7223 97.9509 22.9428C96.7588 23.1753 96.0604 24.144 96.0632 25.4497C96.0677 27.4535 96.0689 29.4574 96.0669 31.4612C96.0669 31.5491 96.0692 31.6372 96.0645 31.7248C96.0448 32.0994 96.0338 32.1203 95.6754 32.1239C94.972 32.1309 94.2685 32.1304 93.565 32.1224C93.2048 32.1181 93.1966 32.1048 93.1921 31.7154C93.1863 31.2057 93.1922 30.6959 93.1922 30.1861C93.1928 25.6158 93.1932 21.0456 93.1936 16.4753C93.1936 15.9854 93.1938 15.98 93.6796 15.9769C94.3478 15.9726 95.016 15.9721 95.6841 15.9807C96.0524 15.9854 96.0608 15.9953 96.0615 16.3739C96.0649 18.0789 96.0655 19.7839 96.0631 21.4889C96.0632 21.6765 96.0632 21.8641 96.0632 22.116Z" fill="black"/>
<path d="M167.946 32.0444C166.918 32.0444 165.9 32.0419 164.883 32.0462C164.642 32.0472 164.56 31.8772 164.459 31.7091C163.639 30.3367 162.817 28.9654 161.993 27.595C161.913 27.4616 161.866 27.2847 161.679 27.2701C161.401 27.2312 161.118 27.2355 160.84 27.2828C160.743 27.3055 160.73 27.4087 160.728 27.4972C160.724 27.6202 160.727 27.7432 160.727 27.8663C160.727 29.1315 160.73 30.3968 160.726 31.6621C160.725 32.0373 160.715 32.0462 160.345 32.0491C159.642 32.0546 158.939 32.0514 158.235 32.0466C157.871 32.0441 157.863 32.039 157.862 31.6606C157.858 30.0089 157.856 28.357 157.857 26.7052C157.857 23.296 157.858 19.8867 157.86 16.4775C157.86 15.9878 157.865 15.9851 158.34 15.9813C159.008 15.9759 159.676 15.9714 160.344 15.9734C160.711 15.9744 160.72 15.9836 160.728 16.3637C160.736 16.715 160.729 17.0666 160.729 17.4181C160.728 19.8081 160.728 22.1981 160.728 24.5882C160.728 24.6936 160.731 24.7991 160.728 24.9044C160.722 25.1015 160.804 25.2014 161.011 25.1719C161.046 25.1687 161.081 25.1683 161.117 25.1706C161.83 25.1826 161.827 25.1806 162.195 24.5864C162.918 23.4218 163.642 22.2583 164.369 21.0959C164.409 20.9987 164.477 20.9152 164.564 20.8556C164.65 20.796 164.753 20.7627 164.858 20.7599C165.772 20.7704 166.686 20.7686 167.6 20.7749C167.651 20.7848 167.7 20.8029 167.745 20.8283C167.765 21.0335 167.626 21.1569 167.533 21.2979C166.532 22.8059 165.539 24.3185 164.522 25.8156C164.426 25.9258 164.374 26.0669 164.374 26.2128C164.375 26.3586 164.428 26.4994 164.524 26.6091C165.653 28.3059 166.76 30.0174 167.874 31.7241C167.909 31.7686 167.934 31.8205 167.947 31.876C167.959 31.9314 167.959 31.989 167.946 32.0444Z" fill="black"/>
<path d="M174.584 27.3591C173.441 27.3591 172.299 27.3563 171.156 27.3604C170.695 27.362 170.664 27.3963 170.777 27.8448C171.197 29.5093 172.291 30.1677 173.93 30.0768C174.344 30.0577 174.75 29.9523 175.122 29.7671C175.493 29.582 175.822 29.3214 176.086 29.0018C176.266 28.7935 176.401 28.7698 176.603 28.9569C177.028 29.3512 177.459 29.7383 177.897 30.1183C178.086 30.2828 178.082 30.4056 177.907 30.5923C177.172 31.3866 176.204 31.9266 175.143 32.1338C173.674 32.4649 172.139 32.3322 170.749 31.754C170.146 31.5016 169.604 31.1239 169.159 30.6459C168.713 30.1679 168.375 29.6005 168.165 28.9816C167.548 27.3325 167.554 25.515 168.182 23.8701C168.831 22.1238 170.109 21.0584 171.949 20.6948C173.056 20.4608 174.206 20.5267 175.279 20.8858C176.628 21.3446 177.53 22.2676 178.07 23.575C178.533 24.6975 178.527 25.8705 178.493 27.051C178.485 27.3554 178.296 27.3697 178.064 27.3688C176.904 27.3644 175.744 27.3667 174.584 27.3667V27.3591ZM173.133 25.4379L173.133 25.4244C173.256 25.4244 173.378 25.4244 173.501 25.4244C174.115 25.4255 174.729 25.4279 175.343 25.4272C175.501 25.427 175.663 25.4418 175.669 25.1981C175.69 24.3205 175.032 23.297 174.231 22.9796C173.858 22.8305 173.456 22.7711 173.057 22.806C172.657 22.841 172.271 22.9694 171.93 23.1809C171.59 23.3923 171.303 23.681 171.095 24.0235C170.886 24.366 170.761 24.7528 170.729 25.1526C170.705 25.4195 170.825 25.4411 171.028 25.4397C171.73 25.435 172.431 25.4379 173.133 25.4379Z" fill="black"/>
<path d="M150.77 32.2778C149.996 32.307 149.224 32.1913 148.492 31.9366C147.094 31.4409 146.048 30.5417 145.502 29.1557C144.656 27.0073 144.731 24.8959 145.957 22.8931C146.533 21.9525 147.434 21.2559 148.489 20.9352C150.338 20.34 152.165 20.3933 153.907 21.3099C155.082 21.9277 155.834 22.9298 156.247 24.1764C156.713 25.5703 156.734 27.0741 156.309 28.4807C155.593 30.943 153.58 32.1304 151.403 32.2759C151.193 32.2899 150.981 32.2778 150.77 32.2778ZM153.586 26.5039C153.614 25.9075 153.532 25.311 153.346 24.7438C153.159 24.0961 152.746 23.5371 152.181 23.1689C151.844 22.96 151.465 22.8275 151.071 22.7808C150.677 22.734 150.278 22.7741 149.901 22.8982C149.524 23.0224 149.179 23.2275 148.89 23.4993C148.602 23.771 148.376 24.1028 148.229 24.4712C147.737 25.6334 147.7 26.9379 148.125 28.126C148.561 29.4162 149.516 30.0581 150.84 30.0299C152.039 30.0043 152.982 29.256 153.371 28.0116C153.529 27.5254 153.602 27.0152 153.586 26.5039Z" fill="black"/>
<path d="M64.424 32.2805C63.7526 32.3082 63.081 32.2305 62.4336 32.0504C60.6627 31.5435 59.4706 30.4284 58.8958 28.6784C58.4143 27.2331 58.411 25.6712 58.8865 24.224C59.1022 23.477 59.4935 22.7925 60.0279 22.2277C60.5623 21.6629 61.2242 21.2343 61.9581 20.9778C63.4546 20.4189 65.0992 20.3999 66.6082 20.9241C68.2581 21.4736 69.3364 22.6172 69.8525 24.2654C70.3538 25.7821 70.3122 27.4261 69.7347 28.9155C68.8919 31.0851 67.1916 32.0893 64.94 32.2784C64.7482 32.2945 64.5539 32.2805 64.424 32.2805ZM67.1589 26.4611C67.2061 25.6913 67.05 24.9228 66.7062 24.2325C66.5045 23.7886 66.1773 23.4134 65.7649 23.1533C65.3526 22.8932 64.8731 22.7594 64.3857 22.7685C63.3168 22.7565 62.4685 23.214 61.9689 24.1721C61.6212 24.8264 61.4289 25.552 61.4067 26.2926C61.3846 27.0332 61.5332 27.769 61.8412 28.4429C62.3164 29.567 63.2685 30.0967 64.5024 30.0246C65.6848 29.9555 66.4461 29.3032 66.8705 28.23C67.0935 27.6682 67.1919 27.0646 67.1589 26.4611Z" fill="black"/>
<path d="M114.226 27.8574C114.226 29.1055 114.228 30.3537 114.224 31.6019C114.223 32.0139 114.214 32.0171 113.823 32.025C113.225 32.0372 112.627 32.051 112.029 32.0514C111.589 32.0517 111.586 32.0429 111.562 31.6203C111.552 31.4452 111.563 31.269 111.557 31.0935C111.553 30.9773 111.595 30.8237 111.439 30.7825C111.323 30.7521 111.255 30.8661 111.196 30.9503C110.864 31.3867 110.426 31.7299 109.922 31.9469C108.755 32.5125 106.719 32.4509 105.573 31.3289C104.523 30.3006 104.268 28.4417 105.038 27.188C105.446 26.5633 106.064 26.1048 106.78 25.895C107.669 25.5872 108.599 25.5035 109.527 25.4214C110.052 25.375 110.58 25.3418 111.106 25.3324C111.375 25.3276 111.446 25.2113 111.419 24.9774C111.417 24.9599 111.416 24.9423 111.417 24.9247C111.437 23.1729 109.97 22.2353 108.356 22.9656C107.899 23.1619 107.523 23.5068 107.287 23.9443C107.165 24.1721 107.05 24.2419 106.797 24.1007C106.322 23.8349 105.825 23.608 105.339 23.3619C104.918 23.149 104.908 23.1181 105.151 22.6879C105.421 22.2019 105.789 21.7772 106.232 21.4406C106.675 21.104 107.182 20.8627 107.723 20.732C108.921 20.4218 110.18 20.4238 111.377 20.738C113.151 21.1745 114.219 22.5444 114.223 24.3765C114.226 25.5368 114.224 26.6971 114.224 27.8574L114.226 27.8574ZM110.822 27.222C110.228 27.2863 109.634 27.345 109.042 27.4168C108.69 27.441 108.348 27.545 108.042 27.7208C107.705 27.9366 107.455 28.2028 107.441 28.6462C107.428 28.8306 107.452 29.0159 107.512 29.1909C107.572 29.3659 107.666 29.5272 107.789 29.6652C107.912 29.8032 108.062 29.9152 108.229 29.9945C108.396 30.0738 108.577 30.1189 108.762 30.127C110.261 30.2765 111.365 29.3116 111.416 27.8094C111.436 27.2012 111.436 27.2012 110.822 27.222Z" fill="black"/>
<path d="M179.84 20.7673C180.191 20.7672 180.544 20.7838 180.895 20.7622C180.954 20.7513 181.016 20.7524 181.075 20.7656C181.134 20.7787 181.19 20.8036 181.24 20.8387C181.289 20.8739 181.331 20.9186 181.363 20.9702C181.395 21.0218 181.416 21.0793 181.426 21.1393C181.681 21.9424 181.967 22.7357 182.24 23.5334C182.774 25.0961 183.305 26.6602 183.844 28.221C183.91 28.4114 183.917 28.7324 184.133 28.7335C184.394 28.7349 184.384 28.3969 184.452 28.1994C185.257 25.8747 186.053 23.5473 186.842 21.2174C186.992 20.7774 186.99 20.7729 187.471 20.7697C188.121 20.7655 188.772 20.7626 189.423 20.7692C189.802 20.7731 189.823 20.8005 189.684 21.1699C189.332 22.1074 188.968 23.0408 188.609 23.9757C187.461 26.9609 186.313 29.9459 185.164 32.9308C184.918 33.6282 184.56 34.2807 184.103 34.8627C183.575 35.5108 182.82 35.9338 181.991 36.0458C181.328 36.1393 180.653 36.1121 180 35.9655C179.751 35.9137 179.638 35.8158 179.648 35.5462C179.667 35.0547 179.655 34.562 179.651 34.0698C179.649 33.8634 179.736 33.777 179.942 33.8222C180.254 33.8814 180.572 33.8983 180.888 33.8723C181.287 33.8507 181.668 33.697 181.97 33.4355C182.272 33.1741 182.478 32.8196 182.557 32.4278C182.58 32.2354 182.544 32.0404 182.453 31.8691C181.459 29.2584 180.463 26.6482 179.467 24.0384C179.103 23.0865 178.736 22.1361 178.376 21.183C178.235 20.8092 178.265 20.7728 178.679 20.7683C179.066 20.7642 179.453 20.7674 179.84 20.7673Z" fill="black"/>
<path d="M78.6563 30.6744C78.4449 30.7286 78.3784 30.8863 78.2752 30.9984C76.8807 32.5125 74.6529 32.6379 73.0983 31.7389C72.1728 31.2037 71.6641 30.3621 71.4693 29.3292C71.412 29.0003 71.3851 28.6668 71.3888 28.3329C71.3846 25.9786 71.3899 23.6243 71.3927 21.27C71.3933 20.774 71.3944 20.7695 71.8829 20.7661C72.5332 20.7616 73.1836 20.7616 73.834 20.7662C74.2244 20.7687 74.2361 20.7735 74.2438 21.1854C74.2551 21.7825 74.2475 22.3798 74.2478 22.9771C74.2488 24.5759 74.2492 26.1747 74.2492 27.7736C74.2424 28.1253 74.2942 28.4758 74.4024 28.8106C74.4965 29.1342 74.6863 29.4218 74.9468 29.6357C75.2074 29.8495 75.5264 29.9797 75.8622 30.009C77.4502 30.2202 78.6302 29.2089 78.6407 27.606C78.6543 25.5153 78.6429 23.4245 78.643 21.3337C78.643 20.7763 78.6443 20.7713 79.175 20.767C79.8429 20.7616 80.511 20.7737 81.1787 20.7608C81.4331 20.7559 81.5249 20.8583 81.5212 21.0998C81.5148 21.5213 81.5217 21.943 81.5202 22.3647C81.5095 25.439 81.4981 28.5134 81.4861 31.5878C81.4843 32.0415 81.4804 32.0468 81.0163 32.0512C80.3836 32.0572 79.7507 32.0488 79.118 32.0577C78.8622 32.0613 78.731 31.9927 78.7403 31.7002C78.7672 31.356 78.7388 31.0097 78.6563 30.6744Z" fill="black"/>
<path d="M119.04 22.1357C119.093 22.1376 119.145 22.1244 119.191 22.0977C119.237 22.071 119.274 22.0319 119.298 21.9849C120.258 20.8143 121.535 20.4446 122.978 20.5957C125.026 20.81 126.273 22.1378 126.312 24.1988C126.36 26.6925 126.335 29.1875 126.349 31.6819C126.35 31.9462 126.277 32.0575 125.992 32.0512C125.307 32.0361 124.621 32.0548 123.936 32.0515C123.445 32.0491 123.441 32.043 123.441 31.5548C123.44 29.4116 123.441 27.2684 123.445 25.1252C123.48 24.6853 123.399 24.2439 123.21 23.8448C122.77 23.0534 122.048 22.7838 121.093 22.9178C119.991 23.0724 119.27 23.8305 119.104 24.9384C119.073 25.1645 119.059 25.3926 119.061 25.6208C119.058 27.5707 119.057 29.5207 119.059 31.4707C119.059 31.5761 119.05 31.6821 119.058 31.7867C119.078 32.0331 118.975 32.1337 118.724 32.1305C118.003 32.121 117.283 32.1322 116.562 32.1235C116.204 32.1192 116.195 32.1075 116.193 31.7167C116.188 30.4695 116.187 29.2222 116.191 27.9749C116.197 25.7968 116.206 23.6187 116.218 21.4405C116.221 20.7484 116.107 20.7722 116.91 20.7663C117.455 20.7624 118 20.7606 118.544 20.7663C118.921 20.7702 118.912 20.7777 118.955 21.1386C118.993 21.4656 118.929 21.8027 119.04 22.1357Z" fill="black"/>
<path d="M133.911 23.9796C133.911 21.4501 133.911 18.9206 133.911 16.3912C133.911 15.989 133.914 15.9844 134.305 15.9802C135.043 15.9723 135.781 15.9784 136.519 15.9613C136.795 15.955 136.899 16.0555 136.883 16.3285C136.867 16.6086 136.878 16.8904 136.878 17.1715C136.878 21.1062 136.878 25.041 136.879 28.9757C136.879 29.0284 136.878 29.0811 136.878 29.1338C136.884 29.5887 136.884 29.5921 137.342 29.5923C139.573 29.5934 141.805 29.5934 144.037 29.5923C144.143 29.5923 144.248 29.5958 144.354 29.5905C144.568 29.5796 144.679 29.6634 144.677 29.8931C144.671 30.5254 144.674 31.1578 144.675 31.7901C144.68 31.825 144.677 31.8607 144.667 31.8944C144.656 31.9281 144.637 31.9587 144.612 31.9839C144.588 32.009 144.557 32.028 144.524 32.0393C144.49 32.0505 144.455 32.0537 144.42 32.0486C144.314 32.0482 144.209 32.0477 144.103 32.0478C140.87 32.0494 137.636 32.0509 134.402 32.0526C134.332 32.0526 134.262 32.0499 134.191 32.0529C133.999 32.0609 133.897 31.9908 133.907 31.7784C133.919 31.5507 133.907 31.3219 133.907 31.0937C133.907 28.7223 133.907 26.3509 133.907 23.9796L133.911 23.9796Z" fill="black"/>
<path d="M86.3494 24.075C86.3494 26.5331 86.3494 28.9913 86.3494 31.4494C86.3494 31.5548 86.3479 31.6602 86.3509 31.7654C86.3566 31.9599 86.2719 32.0516 86.0696 32.0504C85.3143 32.0463 84.5589 32.0427 83.8037 32.0535C83.54 32.0573 83.4666 31.9335 83.4805 31.6997C83.4888 31.5598 83.4797 31.4188 83.4797 31.2784C83.4804 26.3621 83.4811 21.4458 83.4818 16.5295C83.4818 16.4417 83.4832 16.3537 83.4778 16.2662C83.4651 16.0602 83.5739 15.9844 83.7647 15.9838C84.52 15.9814 85.2753 15.9816 86.0304 15.9707C86.2936 15.9668 86.3595 16.101 86.3534 16.332C86.345 16.6477 86.3526 16.9639 86.3526 17.28C86.3527 19.545 86.3527 21.81 86.3526 24.075L86.3494 24.075Z" fill="black"/>
<path d="M91.2171 26.4304C91.2171 28.1345 91.2167 29.8386 91.216 31.5427C91.2152 32.0486 91.2092 32.0484 90.6883 32.0484C90.0204 32.0485 89.3524 32.041 88.6848 32.0533C88.4324 32.058 88.3413 31.964 88.3476 31.7162C88.3588 31.2773 88.349 30.8379 88.349 30.3987C88.3489 27.377 88.3489 24.3553 88.3492 21.3336C88.3492 21.2634 88.3554 21.1925 88.3487 21.1229C88.3218 20.844 88.4559 20.7599 88.7214 20.7642C89.4243 20.7756 90.1275 20.7629 90.8305 20.7677C91.1954 20.7702 91.2146 20.7842 91.2164 21.16C91.2224 22.3897 91.2182 23.6195 91.2179 24.8493C91.2178 25.3763 91.2178 25.9034 91.2179 26.4304L91.2171 26.4304Z" fill="black"/>
<path d="M89.7374 15.9737C90.1059 15.974 90.475 15.9877 90.8426 15.9693C91.107 15.9561 91.23 16.0302 91.224 16.3168C91.2104 16.9654 91.2114 17.6146 91.2231 18.2633C91.2272 18.4938 91.1408 18.573 90.9183 18.5711C90.1288 18.5644 89.3392 18.5662 88.5497 18.5693C88.3326 18.5702 88.2419 18.4918 88.2465 18.2576C88.2594 17.6091 88.258 16.9602 88.2421 16.3112C88.2362 16.0565 88.3373 15.9663 88.5794 15.9713C88.9653 15.9792 89.3514 15.9734 89.7374 15.9737Z" fill="black"/>
<path d="M13.416 24.2296C13.4236 24.3698 13.402 24.51 13.3524 24.6413C13.3028 24.7726 13.2264 24.8921 13.1281 24.9922C13.0297 25.0923 12.9116 25.1709 12.7812 25.2228C12.6508 25.2747 12.511 25.2989 12.3708 25.2938C12.2217 25.2951 12.0738 25.2665 11.936 25.2096C11.7981 25.1527 11.6732 25.0686 11.5685 24.9625C11.4638 24.8563 11.3816 24.7301 11.3266 24.5915C11.2717 24.4529 11.2452 24.3046 11.2487 24.1555C11.2394 24.0198 11.2576 23.8836 11.3023 23.7552C11.3471 23.6267 11.4173 23.5086 11.5089 23.408C11.6005 23.3075 11.7115 23.2265 11.8353 23.17C11.959 23.1135 12.0929 23.0826 12.2289 23.0792C12.5366 23.082 12.8314 23.203 13.0524 23.4171C13.2734 23.6313 13.4036 23.9222 13.416 24.2296Z" fill="black"/>
<path d="M14.1894 28.4053C14.04 28.4055 13.8921 28.3762 13.7541 28.3189C13.6161 28.2617 13.4909 28.1777 13.3855 28.0718C13.2801 27.9659 13.1968 27.8402 13.1403 27.702C13.0837 27.5637 13.0551 27.4156 13.0561 27.2662C13.0528 27.1297 13.0771 26.9938 13.1275 26.8668C13.1779 26.7398 13.2533 26.6243 13.3492 26.527C13.4452 26.4298 13.5598 26.3529 13.6861 26.3009C13.8125 26.2489 13.948 26.2228 14.0846 26.2243C14.3868 26.2273 14.6756 26.3495 14.8881 26.5645C15.1006 26.7795 15.2196 27.0697 15.219 27.3719C15.2217 27.5081 15.1969 27.6433 15.1462 27.7697C15.0954 27.896 15.0197 28.0108 14.9236 28.1072C14.8275 28.2037 14.713 28.2798 14.5868 28.331C14.4607 28.3822 14.3255 28.4075 14.1894 28.4053Z" fill="black"/>
<path d="M10.4164 25.9428C10.4226 26.0744 10.4027 26.2058 10.3578 26.3296C10.3129 26.4534 10.244 26.5671 10.1549 26.6641C10.0659 26.7611 9.95853 26.8396 9.83902 26.8948C9.71951 26.9501 9.59024 26.9812 9.45865 26.9863C9.30483 26.9857 9.15271 26.9539 9.01154 26.8928C8.87037 26.8317 8.74309 26.7425 8.6374 26.6308C8.53171 26.519 8.44983 26.3869 8.39671 26.2425C8.3436 26.0982 8.32035 25.9445 8.3284 25.7909C8.32478 25.6548 8.34822 25.5194 8.39736 25.3925C8.4465 25.2655 8.52036 25.1496 8.61466 25.0514C8.70896 24.9533 8.82182 24.8748 8.94669 24.8206C9.07155 24.7664 9.20594 24.7376 9.34205 24.7357C9.92542 24.7463 10.4222 25.3045 10.4164 25.9428Z" fill="black"/>
<path d="M11.1088 28.0167C11.2627 28.0152 11.4154 28.0446 11.5577 28.1035C11.7 28.1623 11.829 28.2492 11.9369 28.359C12.0448 28.4688 12.1295 28.5992 12.1858 28.7425C12.2422 28.8858 12.269 29.039 12.2648 29.1929C12.2713 29.3204 12.2514 29.4479 12.2063 29.5673C12.1612 29.6868 12.0918 29.7956 12.0026 29.8869C11.9134 29.9783 11.8062 30.0502 11.6879 30.0981C11.5695 30.146 11.4425 30.1689 11.3149 30.1654C11.1568 30.164 11.0005 30.1314 10.855 30.0693C10.7096 30.0071 10.5779 29.9168 10.4676 29.8035C10.3573 29.6902 10.2705 29.5562 10.2123 29.4091C10.1541 29.2621 10.1256 29.105 10.1284 28.9468C10.123 28.8189 10.145 28.6913 10.1931 28.5726C10.2411 28.4539 10.3141 28.3469 10.407 28.2587C10.4999 28.1706 10.6106 28.1034 10.7316 28.0616C10.8527 28.0199 10.9813 28.0046 11.1088 28.0167Z" fill="black"/>
<path d="M21.1548 27.8654C21.4197 27.8689 21.6725 27.9773 21.8578 28.1667C22.0432 28.3561 22.1459 28.6112 22.1437 28.8762C22.1466 29.1941 22.0263 29.5007 21.8081 29.7319C21.5898 29.963 21.2906 30.1007 20.973 30.116C20.7079 30.1112 20.4553 30.0022 20.2699 29.8126C20.0844 29.623 19.9811 29.368 19.9821 29.1028C19.9763 28.784 20.0959 28.4756 20.3152 28.2441C20.5346 28.0127 20.8361 27.8766 21.1548 27.8654Z" fill="black"/>
<path d="M17.8236 19.6052C18.4532 19.6134 18.9918 20.1037 18.9861 20.6635C18.9832 20.8137 18.9497 20.9617 18.8877 21.0986C18.8258 21.2355 18.7366 21.3583 18.6256 21.4596C18.5147 21.5609 18.3843 21.6386 18.2424 21.688C18.1005 21.7373 17.95 21.7572 17.8001 21.7466C17.1684 21.7252 16.6904 21.272 16.6975 20.7011C16.7112 20.4096 16.8352 20.1344 17.0443 19.9309C17.2534 19.7275 17.532 19.611 17.8236 19.6052Z" fill="black"/>
<path d="M19.1272 27.2494C19.1294 27.3997 19.1015 27.5489 19.0454 27.6883C18.9892 27.8278 18.9059 27.9546 18.8002 28.0615C18.6945 28.1684 18.5685 28.2531 18.4297 28.3108C18.2909 28.3685 18.142 28.398 17.9917 28.3975C17.4261 28.4172 16.9928 27.8824 17.0096 27.2507C17.0073 27.1051 17.0341 26.9604 17.0886 26.8253C17.143 26.6903 17.224 26.5674 17.3267 26.4642C17.4294 26.3609 17.5518 26.2792 17.6866 26.224C17.8214 26.1688 17.9658 26.1411 18.1115 26.1426C18.7195 26.1527 19.1342 26.6045 19.1272 27.2494Z" fill="black"/>
<path d="M12.0582 31.9777C12.0691 31.4658 12.5663 31.0567 13.154 31.0758C13.4458 31.085 13.7231 31.2054 13.9289 31.4124C14.1348 31.6194 14.2537 31.8973 14.2612 32.1891C14.2582 32.723 13.8032 33.1153 13.1968 33.1069C13.0477 33.1082 12.8999 33.0799 12.7618 33.0237C12.6237 32.9675 12.4981 32.8845 12.3923 32.7795C12.2864 32.6745 12.2024 32.5496 12.1451 32.412C12.0877 32.2744 12.0582 32.1268 12.0582 31.9777Z" fill="black"/>
<path d="M8.64909 22.5084C8.66157 23.2109 8.21204 23.7173 7.60782 23.6884C7.41444 23.6813 7.22927 23.6084 7.08292 23.4818C6.85619 23.2612 6.71892 22.9647 6.69747 22.6492C6.67603 22.3336 6.77191 22.0213 6.96672 21.7721C7.09366 21.626 7.26237 21.5224 7.45007 21.4752C7.63777 21.428 7.83542 21.4395 8.01636 21.5082C8.20905 21.5935 8.37206 21.7341 8.48471 21.9122C8.59736 22.0902 8.65457 22.2977 8.64909 22.5084Z" fill="black"/>
<path d="M15.0239 30.2655C15.0202 30.1197 15.0468 29.9747 15.1022 29.8397C15.1575 29.7047 15.2403 29.5828 15.3454 29.4816C15.4504 29.3803 15.5753 29.3021 15.7122 29.2517C15.8491 29.2014 15.995 29.1801 16.1406 29.1892C16.4154 29.1965 16.6768 29.3092 16.8709 29.5039C17.0649 29.6986 17.1768 29.9604 17.1833 30.2352C17.1568 30.526 17.028 30.798 16.8199 31.0029C16.6117 31.2077 16.3377 31.3322 16.0465 31.354C15.4353 31.3593 15.0126 30.9092 15.0239 30.2655Z" fill="black"/>
<path d="M17.8273 16.2159C18.5108 16.2206 18.999 16.6747 18.9905 17.2976C18.9731 17.5612 18.8578 17.8088 18.6673 17.9918C18.4767 18.1749 18.2247 18.2801 17.9605 18.2869C17.258 18.2965 16.692 17.7798 16.7143 17.149C16.7341 16.5886 17.184 16.2114 17.8273 16.2159Z" fill="black"/>
<path d="M18.8881 33.0998C18.5365 33.1094 18.2176 33.0251 18.0281 32.7058C17.9315 32.548 17.8828 32.3656 17.8879 32.1806C17.8929 31.9957 17.9515 31.8161 18.0565 31.6638C18.1973 31.4311 18.4074 31.2484 18.6574 31.1414C18.9074 31.0344 19.1847 31.0085 19.4502 31.0673C19.566 31.0928 19.6755 31.1415 19.7721 31.2103C19.8687 31.279 19.9505 31.3666 20.0126 31.4676C20.0747 31.5687 20.1157 31.6812 20.1334 31.7985C20.1511 31.9158 20.145 32.0354 20.1154 32.1503C20.0485 32.4241 19.8907 32.6671 19.6678 32.8396C19.4448 33.0121 19.17 33.1038 18.8881 33.0998Z" fill="black"/>
<path d="M21.4906 21.9123C20.8706 21.9097 20.3305 21.4111 20.3377 20.848C20.3376 20.7064 20.3665 20.5663 20.4227 20.4364C20.4789 20.3065 20.5611 20.1894 20.6643 20.0926C20.7675 19.9957 20.8894 19.921 21.0226 19.8731C21.1558 19.8252 21.2974 19.8051 21.4387 19.8141C22.0734 19.8271 22.5938 20.3071 22.5933 20.8793C22.5916 21.0204 22.5614 21.1597 22.5045 21.2889C22.4476 21.418 22.3651 21.5343 22.2621 21.6308C22.1591 21.7273 22.0377 21.8019 21.9051 21.8503C21.7726 21.8987 21.6316 21.9198 21.4906 21.9123Z" fill="black"/>
<path d="M18.8098 24.0533C18.8108 23.9129 18.8398 23.7742 18.895 23.6451C18.9503 23.5161 19.0308 23.3993 19.1317 23.3018C19.2327 23.2042 19.3521 23.1278 19.4829 23.077C19.6138 23.0261 19.7535 23.0019 19.8938 23.0058C20.0306 23.004 20.1663 23.0299 20.2928 23.0818C20.4193 23.1337 20.5341 23.2106 20.6302 23.3078C20.7263 23.4051 20.8019 23.5208 20.8523 23.6479C20.9026 23.7751 20.9269 23.9111 20.9235 24.0478C20.9317 24.1928 20.9104 24.338 20.8607 24.4745C20.8111 24.611 20.7343 24.736 20.6348 24.8419C20.5354 24.9477 20.4155 25.0323 20.2823 25.0904C20.1492 25.1485 20.0057 25.1789 19.8604 25.1798C19.2312 25.1869 18.8072 24.7323 18.8098 24.0533Z" fill="black"/>
<path d="M22.6726 17.5289C22.6721 17.6693 22.6406 17.8078 22.5804 17.9347C22.5202 18.0615 22.4328 18.1735 22.3244 18.2627C22.216 18.3519 22.0893 18.4161 21.9532 18.4507C21.8172 18.4854 21.6752 18.4896 21.5373 18.4631C21.3264 18.4461 21.1235 18.3745 20.9486 18.2554C20.7737 18.1362 20.6329 17.9735 20.5399 17.7833C20.4654 17.6482 20.4261 17.4964 20.4258 17.342C20.4256 17.1876 20.4643 17.0357 20.5384 16.9003C20.6125 16.7648 20.7195 16.6503 20.8497 16.5673C20.9798 16.4843 21.1288 16.4355 21.2829 16.4254C22.0302 16.3426 22.6781 16.857 22.6726 17.5289Z" fill="black"/>
<path d="M22.9328 24.6588C23.1972 24.6656 23.4487 24.775 23.6339 24.9639C23.8191 25.1528 23.9235 25.4064 23.925 25.671C23.9331 25.9798 23.8188 26.2792 23.6071 26.5042C23.3954 26.7292 23.1035 26.8615 22.7948 26.8722C22.2207 26.8642 21.8561 26.4626 21.8587 25.8414C21.8616 25.1674 22.3193 24.6634 22.9328 24.6588Z" fill="black"/>
<path d="M11.7473 20.8711C11.7463 21.145 11.6393 21.4079 11.4488 21.6046C11.2583 21.8014 10.999 21.9167 10.7253 21.9265C10.5851 21.9264 10.4464 21.8977 10.3177 21.8422C10.1889 21.7868 10.0728 21.7057 9.97649 21.6039C9.88013 21.5021 9.80553 21.3817 9.75723 21.2501C9.70893 21.1185 9.68794 20.9785 9.69555 20.8385C9.70066 20.7029 9.73282 20.5697 9.79012 20.4467C9.84743 20.3237 9.92873 20.2135 10.0293 20.1223C10.1298 20.0312 10.2475 19.9611 10.3755 19.9161C10.5035 19.8711 10.6392 19.8522 10.7747 19.8604C10.9061 19.8587 11.0365 19.884 11.1578 19.9347C11.2791 19.9854 11.3887 20.0604 11.4798 20.1552C11.571 20.2499 11.6417 20.3623 11.6877 20.4854C11.7337 20.6086 11.754 20.7399 11.7473 20.8711Z" fill="black"/>
<path d="M14.1722 21.6793C14.0312 21.6832 13.891 21.6581 13.7602 21.6057C13.6294 21.5532 13.5107 21.4744 13.4115 21.3742C13.3123 21.274 13.2348 21.1546 13.1836 21.0232C13.1324 20.8919 13.1088 20.7514 13.1141 20.6105C13.1337 20.3269 13.2643 20.0625 13.4775 19.8744C13.6907 19.6864 13.9694 19.59 14.2533 19.606C14.5288 19.6067 14.7928 19.7161 14.988 19.9105C15.1832 20.1049 15.2937 20.3685 15.2955 20.644C15.2746 20.9269 15.1468 21.1912 14.9383 21.3835C14.7297 21.5757 14.4558 21.6815 14.1722 21.6793Z" fill="black"/>
<path d="M14.147 18.2744C13.4043 18.226 13.0515 17.8599 13.0488 17.1981C13.0468 16.6848 13.6204 16.2226 14.1821 16.2318C14.7873 16.2417 15.325 16.7428 15.296 17.27C15.2688 17.5524 15.1347 17.8137 14.9211 18.0004C14.7075 18.1872 14.4305 18.2852 14.147 18.2744Z" fill="black"/>
<path d="M24.4257 21.4081C24.9853 21.3977 25.4477 21.8645 25.5003 22.493C25.521 22.7661 25.4392 23.0373 25.2706 23.2533C25.1021 23.4693 24.8591 23.6148 24.5891 23.6611C24.0403 23.7255 23.4974 23.1831 23.4896 22.5627C23.4822 21.9762 23.9354 21.4172 24.4257 21.4081Z" fill="black"/>
<path d="M11.629 17.3641C11.6361 18.0583 11.1809 18.5129 10.4725 18.5192C10.3536 18.5298 10.2337 18.5155 10.1206 18.4771C10.0075 18.4387 9.90374 18.3771 9.81589 18.2962C9.72803 18.2153 9.65806 18.1169 9.61046 18.0074C9.56286 17.8979 9.53869 17.7796 9.5395 17.6602C9.52996 17.35 9.6423 17.0485 9.85245 16.8201C10.0626 16.5918 10.3538 16.4548 10.6637 16.4386C11.2755 16.43 11.6228 16.7631 11.629 17.3641Z" fill="black"/>
<path d="M5.41988 19.5834C5.41187 18.9626 5.73391 18.4893 6.21399 18.3422C6.31704 18.3059 6.42655 18.2916 6.53547 18.3001C6.64439 18.3087 6.75031 18.34 6.84643 18.3919C6.94255 18.4439 7.02673 18.5153 7.09357 18.6018C7.16041 18.6882 7.20843 18.7876 7.23454 18.8937C7.30371 19.157 7.28804 19.4354 7.18976 19.6892C7.09149 19.9431 6.91562 20.1595 6.6872 20.3075C6.56507 20.3939 6.42112 20.4443 6.27177 20.4528C6.12242 20.4613 5.97368 20.4277 5.84251 20.3558C5.71001 20.276 5.60107 20.1624 5.52682 20.0267C5.45257 19.891 5.41567 19.7381 5.41988 19.5834Z" fill="black"/>
<path d="M9.42751 30.7764C9.42572 31.3761 8.87557 31.7294 8.28262 31.5116C8.05532 31.4185 7.85922 31.2627 7.71726 31.0623C7.57529 30.8619 7.49335 30.6252 7.48101 30.3799C7.4706 30.257 7.48997 30.1335 7.53746 30.0197C7.58495 29.9059 7.65917 29.8052 7.75383 29.7261C7.84849 29.6471 7.9608 29.5921 8.08125 29.5657C8.2017 29.5392 8.32674 29.5423 8.44578 29.5744C8.72077 29.6351 8.96725 29.7868 9.14539 30.0049C9.32353 30.223 9.42292 30.4948 9.42751 30.7764Z" fill="black"/>
<path d="M7.59467 27.6539C7.60883 27.839 7.56703 28.024 7.47469 28.1849C7.38234 28.3459 7.24373 28.4753 7.07686 28.5565C6.75766 28.6859 6.37789 28.5718 6.0987 28.2265C5.96945 28.082 5.87442 27.9102 5.82063 27.7239C5.76685 27.5376 5.75571 27.3416 5.78802 27.1504C5.81178 26.9926 5.87943 26.8446 5.98325 26.7233C6.08708 26.6021 6.2229 26.5125 6.37521 26.4647C6.69048 26.3575 6.95262 26.4899 7.18351 26.714C7.43774 26.9618 7.58525 27.299 7.59467 27.6539Z" fill="black"/>
<path d="M25.9563 18.0487C25.9704 18.2245 25.9305 18.4004 25.8419 18.5529C25.7533 18.7054 25.6203 18.8272 25.4606 18.9021C25.1441 19.0236 24.5809 18.8556 24.3089 18.558C24.2859 18.5317 24.2642 18.5042 24.244 18.4756C24.0976 18.2995 24.0087 18.0827 23.9891 17.8546C23.9695 17.6264 24.0202 17.3977 24.1343 17.1991C24.2395 17.0464 24.3938 16.9343 24.5714 16.8813C24.7491 16.8282 24.9396 16.8375 25.1112 16.9075C25.3552 16.9831 25.5686 17.1346 25.7206 17.3398C25.8725 17.545 25.9551 17.7934 25.9563 18.0487Z" fill="black"/>
<path d="M16.8887 35.709C16.7138 35.713 16.5399 35.6808 16.3781 35.6144C16.2162 35.548 16.0698 35.4488 15.948 35.3232C15.8193 35.19 15.7466 35.0125 15.7448 34.8273C15.7431 34.6421 15.8124 34.4633 15.9386 34.3277C16.1554 34.1096 16.4391 33.9706 16.7443 33.9329C17.0494 33.8953 17.3584 33.9612 17.6217 34.12C17.7453 34.1963 17.8459 34.3045 17.913 34.4332C17.98 34.562 18.011 34.7065 18.0027 34.8514C17.9944 34.9963 17.947 35.1363 17.8656 35.2565C17.7842 35.3767 17.6718 35.4727 17.5404 35.5342C17.3429 35.6501 17.1177 35.7105 16.8887 35.709Z" fill="black"/>
<path d="M5.95266 24.3363C5.95197 24.5328 5.91598 24.7275 5.84639 24.9113C5.79885 25.0539 5.71058 25.1795 5.59247 25.2726C5.47437 25.3656 5.3316 25.422 5.18179 25.4349C5.04005 25.4425 4.89908 25.4094 4.77555 25.3395C4.65201 25.2696 4.55107 25.1658 4.48466 25.0403C4.32285 24.7973 4.24642 24.5074 4.26738 24.2161C4.28834 23.9249 4.4055 23.6489 4.60044 23.4316C4.66481 23.3527 4.74658 23.2897 4.83935 23.2476C4.93212 23.2056 5.03336 23.1855 5.13515 23.1891C5.23695 23.1927 5.33653 23.2198 5.4261 23.2683C5.51567 23.3168 5.59279 23.3854 5.65143 23.4687C5.85283 23.7123 5.95976 24.0203 5.95266 24.3363Z" fill="black"/>
<path d="M24.6071 27.423C24.6123 27.2414 24.6571 27.0632 24.7384 26.9008C24.8197 26.7384 24.9355 26.5957 25.0778 26.4827C25.1955 26.3752 25.3433 26.3062 25.5013 26.2849C25.6594 26.2635 25.8201 26.291 25.9622 26.3635C26.1176 26.4275 26.2501 26.5369 26.3424 26.6773C26.4347 26.8178 26.4825 26.9828 26.4796 27.1509C26.4803 27.4691 26.3745 27.7784 26.1792 28.0297C26.0697 28.1907 25.909 28.3099 25.7232 28.368C25.5374 28.4261 25.3374 28.4196 25.1558 28.3497C24.778 28.223 24.6076 27.9578 24.6071 27.423Z" fill="black"/>
<path d="M22.8031 30.7411C22.8002 30.4685 22.8831 30.2019 23.0401 29.9791C23.1971 29.7563 23.4203 29.5885 23.6779 29.4996C23.7905 29.4487 23.9136 29.4257 24.037 29.4324C24.1603 29.4392 24.2802 29.4755 24.3865 29.5384C24.4928 29.6013 24.5825 29.6888 24.6478 29.7936C24.7132 29.8984 24.7523 30.0174 24.762 30.1406C24.8666 30.7858 24.2007 31.5324 23.547 31.5027C23.0637 31.4808 22.8045 31.2155 22.8031 30.7411Z" fill="black"/>
<path d="M10.1382 32.4908C10.4203 32.4872 10.6948 32.5822 10.9144 32.7594C11.1339 32.9365 11.2848 33.1848 11.3408 33.4613C11.3669 33.5679 11.3683 33.6791 11.3448 33.7863C11.3214 33.8935 11.2737 33.9939 11.2054 34.0798C11.1372 34.1657 11.0502 34.2349 10.9511 34.2821C10.852 34.3292 10.7434 34.353 10.6337 34.3517C10.361 34.3559 10.0942 34.2721 9.8728 34.1128C9.65139 33.9536 9.4871 33.7273 9.40423 33.4675C9.24054 32.9073 9.55653 32.4868 10.1382 32.4908Z" fill="black"/>
<path d="M15.3031 14.026C15.2903 14.1898 15.2378 14.3481 15.15 14.4871C15.0623 14.626 14.942 14.7415 14.7995 14.8235C14.6118 14.9396 14.3972 15.0053 14.1766 15.0141C13.956 15.0229 13.7369 14.9746 13.5405 14.8738C13.3695 14.7992 13.2343 14.6608 13.1638 14.4881C13.0933 14.3153 13.0929 14.1219 13.1629 13.9489C13.4108 13.2464 14.5279 12.9761 15.0646 13.4902C15.2022 13.6368 15.2863 13.8256 15.3031 14.026Z" fill="black"/>
<path d="M17.6706 13.2625C18.2564 13.2551 18.6767 13.5235 18.829 13.9672C18.8717 14.0822 18.8815 14.2068 18.8573 14.327C18.833 14.4472 18.7756 14.5582 18.6916 14.6475C18.2743 15.1462 17.2849 15.1049 16.8821 14.5868C16.7778 14.4685 16.7095 14.3228 16.6853 14.1669C16.6612 14.011 16.6822 13.8515 16.7459 13.7071C16.8087 13.5713 16.91 13.4568 17.0372 13.3779C17.1644 13.2991 17.3119 13.2592 17.4615 13.2634C17.5308 13.2577 17.6009 13.2625 17.6706 13.2625Z" fill="black"/>
<path d="M22.1173 32.4755C22.7771 32.4852 23.0829 33.0228 22.7579 33.6002C22.6436 33.8293 22.4672 34.0217 22.2489 34.1555C22.0305 34.2893 21.779 34.3591 21.523 34.357C20.983 34.3615 20.6945 33.958 20.8307 33.436C20.9048 33.154 21.0724 32.9054 21.3061 32.7309C21.5398 32.5564 21.8258 32.4664 22.1173 32.4755Z" fill="black"/>
<path d="M10.558 15.2299C9.90918 15.2171 9.5809 14.685 9.86481 14.1063C10.1047 13.6173 10.8828 13.3092 11.4017 13.4977C11.4858 13.522 11.564 13.5631 11.6316 13.6187C11.6992 13.6742 11.7548 13.743 11.7949 13.8208C11.835 13.8986 11.8588 13.9837 11.8649 14.0711C11.8709 14.1584 11.8591 14.246 11.8301 14.3286C11.7428 14.5954 11.572 14.827 11.3429 14.9893C11.1138 15.1516 10.8387 15.2359 10.558 15.2299Z" fill="black"/>
<path d="M20.2797 14.2585C20.2836 13.8074 20.4709 13.5822 20.8311 13.4979C21.0993 13.4517 21.3749 13.4809 21.6275 13.582C21.8801 13.6831 22.0996 13.8522 22.2619 14.0706C22.3731 14.2193 22.4207 14.4061 22.3943 14.5899C22.3678 14.7737 22.2694 14.9395 22.1208 15.0508C21.7163 15.3565 21.2929 15.2673 20.884 15.0657C20.7178 15.0012 20.5731 14.8913 20.4663 14.7486C20.3595 14.6059 20.2948 14.4361 20.2797 14.2585Z" fill="black"/>
<path d="M27.8846 24.2574C27.9003 24.4325 27.8771 24.6089 27.8168 24.774C27.7565 24.9391 27.6604 25.0889 27.5356 25.2126C27.4616 25.2878 27.3716 25.3453 27.2723 25.3809C27.173 25.4165 27.0669 25.4292 26.962 25.418C26.8571 25.4069 26.7561 25.3723 26.6664 25.3167C26.5768 25.2611 26.5008 25.186 26.4442 25.097C26.3017 24.8752 26.225 24.6175 26.2232 24.3538C26.2213 24.0901 26.2943 23.8314 26.4337 23.6075C26.4953 23.5228 26.5735 23.4515 26.6636 23.398C26.7537 23.3445 26.8537 23.3099 26.9576 23.2964C27.0615 23.283 27.1671 23.2908 27.2678 23.3195C27.3686 23.3482 27.4624 23.3972 27.5436 23.4634C27.6545 23.5632 27.7424 23.6859 27.8012 23.823C27.8601 23.9601 27.8885 24.1083 27.8846 24.2574Z" fill="black"/>
<path d="M12.0188 35.1322C12.4067 35.1195 12.7849 35.2552 13.0764 35.5115C13.1773 35.5967 13.253 35.7077 13.2955 35.8327C13.3379 35.9577 13.3455 36.0919 13.3174 36.2209C13.2479 36.4883 13.0099 36.5876 12.767 36.6476C12.57 36.69 12.3665 36.6914 12.169 36.6516C11.9716 36.6118 11.7844 36.5317 11.6193 36.4164C11.478 36.3438 11.3646 36.2266 11.2967 36.083C11.2288 35.9393 11.2101 35.7773 11.2436 35.622C11.3322 35.3025 11.6058 35.1297 12.0188 35.1322Z" fill="black"/>
<path d="M4.58923 21.0044C4.57969 21.5194 4.44799 21.8881 4.10987 22.1561C4.03998 22.2233 3.95433 22.272 3.86076 22.2975C3.7672 22.323 3.66872 22.3247 3.57436 22.3023C3.47999 22.2799 3.39276 22.2342 3.32065 22.1693C3.24855 22.1044 3.19388 22.0225 3.16166 21.931C3.06238 21.6599 3.04412 21.3658 3.1091 21.0844C3.17408 20.8031 3.31949 20.5468 3.52761 20.3466C3.60393 20.2732 3.69818 20.2211 3.80096 20.1955C3.90373 20.1698 4.01142 20.1716 4.11328 20.2007C4.21513 20.2297 4.30759 20.285 4.38141 20.3609C4.45523 20.4369 4.50783 20.5309 4.53396 20.6335C4.56616 20.7547 4.5847 20.8791 4.58923 21.0044Z" fill="black"/>
<path d="M7.35435 15.6842C7.253 15.6902 7.15175 15.6709 7.05971 15.6281C6.96767 15.5852 6.88771 15.5202 6.82704 15.4388C6.76636 15.3574 6.72688 15.2622 6.71213 15.1618C6.69738 15.0613 6.70783 14.9588 6.74253 14.8634C6.82765 14.6041 6.98118 14.3725 7.18694 14.1932C7.39269 14.0139 7.64303 13.8934 7.91154 13.8445C8.0112 13.8258 8.11391 13.8318 8.21075 13.8618C8.30758 13.8919 8.39562 13.9451 8.46723 14.0169C8.53883 14.0887 8.59184 14.1768 8.62164 14.2738C8.65144 14.3707 8.65714 14.4734 8.63824 14.573C8.57983 14.8754 8.42148 15.1493 8.18863 15.3508C7.95578 15.5523 7.66195 15.6697 7.35435 15.6842Z" fill="black"/>
<path d="M19.5176 36.871C19.4501 36.8731 19.3826 36.8685 19.3161 36.8573C18.7503 36.7352 18.5557 36.1989 18.9486 35.785C19.1215 35.5944 19.3424 35.4538 19.5883 35.3779C19.8341 35.302 20.0958 35.2935 20.3461 35.3534C20.868 35.4654 21.0161 36.0061 20.6616 36.4176C20.5148 36.5711 20.3366 36.6911 20.1392 36.7694C19.9417 36.8477 19.7297 36.8823 19.5176 36.871Z" fill="black"/>
<path d="M25.5501 15.1309C25.5541 15.2014 25.5431 15.2719 25.5178 15.3378C25.4925 15.4037 25.4535 15.4634 25.4033 15.5131C25.3532 15.5627 25.2931 15.6011 25.2269 15.6258C25.1608 15.6504 25.0902 15.6608 25.0198 15.656C24.7023 15.6503 24.396 15.5381 24.15 15.3373C23.904 15.1365 23.7326 14.8588 23.6635 14.5489C23.6441 14.4586 23.6456 14.3651 23.6678 14.2754C23.69 14.1858 23.7323 14.1024 23.7916 14.0316C23.8509 13.9607 23.9255 13.9043 24.0098 13.8667C24.0942 13.829 24.186 13.8111 24.2783 13.8142C24.6123 13.8463 24.9239 13.9966 25.157 14.238C25.3902 14.4794 25.5296 14.796 25.5501 15.1309Z" fill="black"/>
<path d="M29.024 21.5625C29.0194 22.1427 28.7412 22.4644 28.2836 22.4254C28.1439 22.4149 28.0119 22.3571 27.9094 22.2616C27.7012 22.048 27.566 21.774 27.5231 21.4789C27.4801 21.1838 27.5317 20.8826 27.6704 20.6186C27.7081 20.5547 27.7587 20.4993 27.819 20.4559C27.8792 20.4126 27.9477 20.3821 28.0203 20.3666C28.0928 20.351 28.1679 20.3506 28.2406 20.3655C28.3133 20.3804 28.3821 20.4101 28.4428 20.4529C28.6252 20.5739 28.7742 20.7391 28.8758 20.9331C28.9774 21.127 29.0284 21.3435 29.024 21.5625Z" fill="black"/>
<path d="M26.9311 31.3331C26.9254 31.5979 26.834 31.8538 26.6705 32.0623C26.5071 32.2708 26.2805 32.4207 26.0247 32.4895C25.9324 32.5176 25.8348 32.523 25.7401 32.5052C25.6453 32.4874 25.5563 32.4469 25.4806 32.3872C25.4049 32.3276 25.3447 32.2505 25.3052 32.1626C25.2657 32.0746 25.2481 31.9784 25.2538 31.8822C25.2667 31.6269 25.3537 31.3809 25.5041 31.1742C25.6546 30.9675 25.862 30.8092 26.101 30.7184C26.5886 30.5764 26.9849 30.8188 26.9311 31.3331Z" fill="black"/>
<path d="M3.83965 28.7396C3.83405 28.3461 3.9622 28.0857 4.2242 28.0062C4.55539 27.9057 4.79807 28.0697 5.006 28.3042C5.20475 28.5297 5.31953 28.817 5.33094 29.1174C5.35242 29.2479 5.33644 29.3819 5.28486 29.5037C5.23328 29.6256 5.1482 29.7303 5.03951 29.8058C4.83053 29.9354 4.44039 29.8418 4.21741 29.6336C3.97999 29.3961 3.84448 29.0754 3.83965 28.7396Z" fill="black"/>
<path d="M3.83626 26.1757C3.83452 26.6811 3.62007 27.0337 3.30866 27.076C2.9609 27.1232 2.66087 26.8401 2.5513 26.3475C2.46105 26.0228 2.48955 25.6767 2.63168 25.3712C2.66083 25.2922 2.70972 25.222 2.7737 25.1673C2.83767 25.1126 2.91459 25.0751 2.99713 25.0586C3.07967 25.042 3.16508 25.0469 3.24521 25.0727C3.32534 25.0985 3.39753 25.1444 3.45489 25.206C3.58118 25.3331 3.68016 25.4847 3.74574 25.6514C3.81132 25.8182 3.84213 25.9966 3.83626 26.1757Z" fill="black"/>
<path d="M6.99378 32.0051C7.00206 32.089 6.99067 32.1736 6.96053 32.2523C6.93038 32.331 6.88232 32.4015 6.82014 32.4584C6.75796 32.5152 6.68338 32.5568 6.60233 32.5798C6.52128 32.6028 6.43598 32.6066 6.3532 32.5909C5.77418 32.548 5.24076 31.8144 5.37824 31.25C5.41387 31.1126 5.50138 30.9944 5.62236 30.9202C5.74335 30.8459 5.8884 30.8215 6.02701 30.8521C6.29533 30.9055 6.53739 31.0489 6.71318 31.2586C6.88896 31.4682 6.98795 31.7316 6.99378 32.0051Z" fill="black"/>
<path d="M26.9233 29.0215C26.92 28.836 26.9586 28.6522 27.0361 28.4837C27.1137 28.3152 27.2283 28.1664 27.3714 28.0484C27.4557 27.9572 27.5661 27.8944 27.6876 27.8684C27.809 27.8423 27.9355 27.8545 28.0497 27.9031C28.1626 27.954 28.2592 28.0351 28.3291 28.1374C28.3989 28.2397 28.4393 28.3592 28.4456 28.4829C28.4664 28.6753 28.4434 28.8698 28.3783 29.0521C28.3133 29.2343 28.2078 29.3994 28.0699 29.5351C27.9824 29.6469 27.8618 29.7281 27.7254 29.7672C27.5889 29.8063 27.4436 29.8013 27.3102 29.7528C27.0202 29.6344 26.9147 29.3753 26.9233 29.0215Z" fill="black"/>
<path d="M20.9913 12.5067C20.6027 12.447 20.1853 12.3417 19.9164 11.9368C19.8417 11.8495 19.7933 11.7428 19.7768 11.629C19.7603 11.5153 19.7764 11.3992 19.8233 11.2943C19.8819 11.1948 19.9671 11.1136 20.0693 11.0599C20.1716 11.0063 20.2868 10.9823 20.402 10.9906C20.8095 10.9902 21.2014 11.1472 21.4959 11.4288C21.6078 11.5162 21.6891 11.6369 21.7279 11.7734C21.7667 11.91 21.7611 12.0554 21.7119 12.1886C21.5921 12.4799 21.3145 12.4948 20.9913 12.5067Z" fill="black"/>
<path d="M23.9948 35.0896C23.5142 35.0969 23.2918 34.793 23.4411 34.3328C23.5338 34.0862 23.6955 33.8715 23.9069 33.7142C24.1183 33.557 24.3704 33.4639 24.6332 33.446C25.0864 33.4356 25.3272 33.7643 25.1995 34.219C25.0791 34.6473 24.4771 35.0823 23.9948 35.0896Z" fill="black"/>
<path d="M17.4993 10.848C17.6652 10.8478 17.8295 10.8808 17.9825 10.945C18.1355 11.0093 18.2741 11.1035 18.3901 11.2222C18.7119 11.5662 18.6524 11.955 18.2363 12.1624C18.0244 12.2703 17.7854 12.3137 17.5491 12.2872C17.3127 12.2608 17.0893 12.1657 16.9064 12.0137C16.4786 11.7043 16.5266 11.2073 16.9937 10.9634C17.1487 10.8799 17.3234 10.8401 17.4993 10.848Z" fill="black"/>
<path d="M14.3769 12.2906C14.288 12.2864 14.2172 12.2888 14.1482 12.2789C13.9894 12.2685 13.8379 12.2083 13.7153 12.1069C13.5927 12.0054 13.5052 11.8677 13.4655 11.7136C13.4213 11.4745 13.6096 11.1581 13.8967 10.9889C14.3195 10.7398 14.9164 10.7914 15.2108 11.1025C15.4746 11.3813 15.4704 11.6458 15.2048 11.9312C14.9868 12.1551 14.6894 12.2842 14.3769 12.2906Z" fill="black"/>
<path d="M3.70986 18.3415C3.69512 18.5626 3.63465 18.7783 3.53226 18.9748C3.42988 19.1714 3.28781 19.3445 3.11505 19.4833C3.03939 19.5579 2.94284 19.6078 2.83819 19.6264C2.73353 19.6449 2.62572 19.6312 2.52904 19.587C2.35204 19.5065 2.329 19.3119 2.3276 19.1351C2.32209 18.8985 2.36715 18.6634 2.45977 18.4456C2.55238 18.2278 2.69043 18.0322 2.86467 17.872C3.0317 17.7136 3.22802 17.5843 3.47742 17.7067C3.70767 17.8196 3.70307 18.0377 3.70986 18.3415Z" fill="black"/>
<path d="M28.3962 18.3168C28.3764 18.2122 28.3908 18.104 28.4372 18.0082C28.4837 17.9124 28.5597 17.8341 28.6541 17.7849C28.7515 17.7413 28.8601 17.7295 28.9645 17.7511C29.069 17.7727 29.164 17.8266 29.2361 17.9051C29.449 18.0756 29.612 18.3004 29.7077 18.5558C29.8034 18.8112 29.8283 19.0877 29.7799 19.3562C29.7009 19.796 29.3763 19.9242 29.0188 19.6474C28.8194 19.4886 28.6595 19.2859 28.5515 19.0551C28.4435 18.8243 28.3904 18.5716 28.3962 18.3168Z" fill="black"/>
<path d="M14.3489 38.5942C14.002 38.6141 13.6571 38.5293 13.359 38.3507C13.2733 38.3059 13.2022 38.2373 13.1545 38.1531C13.1067 38.0689 13.0842 37.9728 13.0897 37.8762C13.0975 37.7792 13.1379 37.6877 13.2042 37.6166C13.2705 37.5454 13.359 37.4988 13.4551 37.4842C13.68 37.4127 13.9167 37.3866 14.1517 37.4073C14.3867 37.4279 14.6153 37.495 14.8242 37.6047C14.9319 37.6443 15.0236 37.7183 15.0849 37.8153C15.1463 37.9123 15.1739 38.0268 15.1635 38.1411C15.1298 38.3933 14.9119 38.4619 14.7171 38.5284C14.5969 38.5625 14.4735 38.5846 14.3489 38.5942Z" fill="black"/>
<path d="M8.16315 35.0418C7.93057 35.0288 7.70555 34.9546 7.51094 34.8265C7.31633 34.6985 7.15906 34.5213 7.05507 34.3128C6.81104 33.8477 7.02593 33.5135 7.54346 33.5126C7.80549 33.5256 8.05788 33.6155 8.26917 33.7711C8.48047 33.9266 8.64132 34.1409 8.73168 34.3872C8.84952 34.7814 8.66067 35.0333 8.16315 35.0418Z" fill="black"/>
<path d="M5.80556 15.0237C5.77175 15.242 5.69279 15.4508 5.57371 15.6368C5.45463 15.8228 5.29805 15.982 5.11398 16.104C4.99769 16.1834 4.86051 16.2266 4.71972 16.2282C4.57893 16.2298 4.44082 16.1896 4.32279 16.1129C4.09412 15.906 4.16631 15.6627 4.25938 15.4314C4.43287 15.0002 4.65408 14.6065 5.1366 14.4429C5.58773 14.2898 5.81766 14.4501 5.80556 15.0237Z" fill="black"/>
<path d="M28.3768 26.1503C28.37 25.9852 28.3975 25.8205 28.4575 25.6665C28.5175 25.5125 28.6086 25.3726 28.7253 25.2556C29.0006 24.9838 29.289 25.0118 29.5256 25.3217C29.837 25.7296 29.7535 26.5868 29.3696 26.921C29.315 26.9718 29.2502 27.0104 29.1796 27.0342C29.1089 27.058 29.034 27.0665 28.9598 27.0591C28.8856 27.0516 28.8138 27.0285 28.7493 26.9912C28.6847 26.9539 28.6288 26.9033 28.5853 26.8427C28.4427 26.6406 28.3695 26.3976 28.3768 26.1503Z" fill="black"/>
<path d="M17.8878 38.65C17.6643 38.6559 17.4421 38.6149 17.2354 38.5295C16.8478 38.395 16.7889 38.0122 17.099 37.7525C17.49 37.425 18.3801 37.3752 18.7951 37.6576C18.8597 37.6951 18.9133 37.7488 18.9508 37.8133C18.9883 37.8779 19.0082 37.9512 19.0087 38.0258C19.0092 38.1005 18.9902 38.174 18.9536 38.239C18.9169 38.3041 18.864 38.3585 18.7999 38.3968C18.5328 38.581 18.2116 38.6702 17.8878 38.65Z" fill="black"/>
<path d="M1.44097 23.2934C1.42582 23.0254 1.49613 22.7596 1.64178 22.5341C1.6753 22.4609 1.7301 22.3995 1.79903 22.3578C1.86796 22.3162 1.94783 22.2963 2.02824 22.3006C2.10866 22.305 2.18588 22.3335 2.24987 22.3824C2.31385 22.4313 2.36163 22.4984 2.38698 22.5748C2.50291 22.8029 2.56055 23.0561 2.55474 23.3119C2.54893 23.5677 2.47986 23.8181 2.35369 24.0406C2.26204 24.2126 2.13578 24.3699 1.90403 24.3433C1.67849 24.3174 1.5821 24.1435 1.51242 23.9606C1.44196 23.7457 1.41762 23.5183 1.44097 23.2934Z" fill="black"/>
<path d="M28.0717 15.7738C28.0709 16.204 27.8734 16.349 27.4676 16.2173C27.0144 16.0701 26.5171 15.3935 26.5167 14.9235C26.5164 14.5253 26.7675 14.3424 27.1394 14.4698C27.3966 14.5849 27.6184 14.7663 27.7823 14.9954C27.9461 15.2246 28.046 15.4932 28.0717 15.7738Z" fill="black"/>
<path d="M9.17652 35.8643C9.65743 35.9221 10.1567 36.0678 10.4416 36.5877C10.605 36.8858 10.4954 37.0946 10.1639 37.165C9.69958 37.2635 8.89214 36.8803 8.66561 36.4539C8.48786 36.1192 8.67806 35.8698 9.17652 35.8643Z" fill="black"/>
<path d="M22.9393 35.9377C23.1472 35.9601 23.3882 35.9167 23.4816 36.1678C23.5168 36.2776 23.5155 36.3958 23.4781 36.5048C23.4407 36.6138 23.369 36.7077 23.2738 36.7727C23.1034 36.95 22.8932 37.0843 22.6607 37.1645C22.4282 37.2447 22.18 37.2685 21.9365 37.2339C21.5808 37.1757 21.4644 36.9363 21.657 36.6258C21.794 36.411 21.9839 36.2349 22.2084 36.1144C22.4329 35.994 22.6846 35.9331 22.9393 35.9377Z" fill="black"/>
<path d="M11.5856 11.0439C11.9713 11.0387 12.1395 11.1259 12.229 11.3773C12.2701 11.5042 12.2685 11.6411 12.2243 11.767C12.1801 11.8929 12.0959 12.0009 11.9844 12.0743C11.8419 12.2063 11.6723 12.3056 11.4874 12.3652C11.3025 12.4248 11.1068 12.4433 10.914 12.4194C10.44 12.3484 10.2739 11.957 10.5474 11.5704C10.6622 11.4024 10.8176 11.266 10.999 11.174C11.1805 11.082 11.3823 11.0372 11.5856 11.0439Z" fill="black"/>
<path d="M30.6824 23.5746C30.7032 23.7729 30.6686 23.9732 30.5826 24.1531C30.4226 24.4895 30.0389 24.5492 29.826 24.2462C29.6774 24.0383 29.5793 23.7987 29.5394 23.5463C29.4995 23.2939 29.519 23.0357 29.5962 22.7921C29.6206 22.6974 29.6747 22.613 29.7504 22.5513C29.8262 22.4895 29.9198 22.4536 30.0174 22.4488C30.1055 22.4397 30.1943 22.4578 30.2717 22.5008C30.3491 22.5438 30.4115 22.6095 30.4503 22.6891C30.618 22.9529 30.6992 23.2625 30.6824 23.5746Z" fill="black"/>
<path d="M8.19627 12.8345C7.9976 12.8111 7.79573 12.8714 7.7001 12.6724C7.65502 12.5766 7.64119 12.4692 7.66057 12.3651C7.67996 12.2611 7.73157 12.1658 7.8081 12.0928C8.03094 11.7995 8.32581 11.5687 8.6641 11.4229C8.97284 11.3097 9.26763 11.3655 9.38084 11.5496C9.53713 11.8038 9.42435 12.0183 9.26718 12.2194C9.14662 12.3961 8.98766 12.5432 8.8022 12.6497C8.61675 12.7562 8.4096 12.8194 8.19627 12.8345Z" fill="black"/>
<path d="M24.6072 12.4949C24.616 12.5368 24.6154 12.5802 24.6054 12.6218C24.5954 12.6634 24.5763 12.7023 24.5494 12.7355C24.5225 12.7688 24.4885 12.7957 24.4499 12.8142C24.4113 12.8327 24.369 12.8424 24.3262 12.8425C23.8307 12.9185 23.0993 12.5096 22.9082 12.0391C22.7873 11.7417 22.8892 11.4817 23.1572 11.4032C23.6854 11.2486 24.5965 11.9262 24.6072 12.4949Z" fill="black"/>
<path d="M10.8439 37.8964C11.2305 37.9037 11.6081 38.0151 11.9367 38.2189C12.1038 38.3223 12.2809 38.4488 12.2295 38.6706C12.1803 38.8825 11.954 38.8844 11.7932 38.8836C11.3519 38.8988 10.9168 38.7776 10.5469 38.5365C10.418 38.4471 10.2699 38.3423 10.3114 38.1601C10.3527 37.9781 10.5417 37.9644 10.6872 37.9172C10.7378 37.9008 10.7909 37.8938 10.8439 37.8964Z" fill="black"/>
<path d="M6.94694 12.1544C6.93636 12.2119 6.919 12.2681 6.89521 12.3215C6.68864 12.7487 6.3562 13.1023 5.94263 13.3348C5.7379 13.4417 5.52504 13.4786 5.36807 13.2956C5.2415 13.148 5.3237 12.9629 5.41536 12.8086C5.65826 12.3785 6.0424 12.0456 6.50267 11.8664C6.77241 11.7632 6.94972 11.8806 6.94694 12.1544Z" fill="black"/>
<path d="M21.2624 37.9602C21.3325 37.9602 21.4028 37.958 21.4728 37.9607C21.552 37.9509 21.6322 37.9658 21.7025 38.0033C21.7729 38.0409 21.8299 38.0992 21.8659 38.1704C21.946 38.3631 21.7917 38.4746 21.6711 38.5573C21.4622 38.7187 21.2224 38.8355 20.9666 38.9006C20.7107 38.9657 20.4442 38.9776 20.1836 38.9355C20.0434 38.909 19.8891 38.8567 19.8439 38.7175C19.7927 38.56 19.9492 38.469 20.0474 38.3787C20.3868 38.0939 20.8196 37.9449 21.2624 37.9602Z" fill="black"/>
<path d="M28.582 32.0246C28.5603 32.2502 28.4747 32.465 28.3351 32.6436C28.1955 32.8222 28.0077 32.9571 27.794 33.0326C27.451 33.1257 27.2502 32.9711 27.2576 32.6197C27.267 32.3928 27.3434 32.1739 27.477 31.9903C27.6107 31.8068 27.7956 31.6669 28.0086 31.5883C28.3558 31.4787 28.5917 31.6582 28.582 32.0246Z" fill="black"/>
<path d="M31.3619 21.5119C31.3308 21.7207 31.4132 21.9864 31.1224 22.0864C30.9169 22.157 30.6973 21.9817 30.5746 21.6302C30.41 21.2607 30.357 20.8512 30.4223 20.452C30.4602 20.2913 30.5153 20.136 30.6906 20.0984C30.8537 20.0635 30.9418 20.2056 31.0221 20.3147C31.257 20.6688 31.3758 21.0872 31.3619 21.5119Z" fill="black"/>
<path d="M3.29441 16.0146C3.28577 16.4253 2.69697 17.3105 2.33883 17.4512C2.13269 17.5322 1.97302 17.4371 2.00373 17.217C2.04383 16.9138 2.15084 16.6233 2.31703 16.3665C2.48322 16.1097 2.70442 15.8931 2.96463 15.7323C3.15709 15.6062 3.30021 15.7391 3.29441 16.0146Z" fill="black"/>
<path d="M4.9932 32.731C5.00117 33.0697 4.8316 33.2086 4.49434 33.1398C4.26516 33.0791 4.06245 32.9444 3.91769 32.7566C3.77292 32.5689 3.69422 32.3386 3.69379 32.1015C3.71216 31.8357 3.83827 31.7293 4.10439 31.7551C4.33593 31.8045 4.54617 31.9252 4.70558 32.1003C4.86499 32.2753 4.96557 32.4959 4.9932 32.731Z" fill="black"/>
<path d="M0.77771 21.3344C0.794738 20.912 0.941011 20.5049 1.19677 20.1683C1.22661 20.1137 1.27274 20.0699 1.32871 20.0428C1.38468 20.0157 1.44771 20.0067 1.50901 20.0172C1.56859 20.0356 1.6205 20.073 1.65682 20.1237C1.69313 20.1744 1.71184 20.2356 1.7101 20.2979C1.75621 20.8457 1.59993 21.3914 1.27083 21.8317C1.12778 22.0329 0.919621 21.984 0.834913 21.7542C0.81722 21.7046 0.805313 21.6531 0.799428 21.6007C0.788902 21.5138 0.784836 21.4262 0.77771 21.3344Z" fill="black"/>
<path d="M26.0876 35.271C26.0309 35.2785 25.9732 35.2713 25.92 35.2502C25.8668 35.2291 25.8199 35.1947 25.7837 35.1504C25.7476 35.106 25.7233 35.0532 25.7133 34.9968C25.7033 34.9405 25.7078 34.8825 25.7265 34.8284C25.8097 34.5872 25.9545 34.3718 26.1465 34.2037C26.3385 34.0356 26.5711 33.9207 26.8213 33.8702C27.0901 33.8495 27.2319 33.9796 27.2134 34.2299C27.1819 34.6575 26.5165 35.2729 26.0876 35.271Z" fill="black"/>
<path d="M3.60387 30.4441C3.59727 30.6114 3.57633 30.7944 3.39252 30.8773C3.30468 30.9197 3.20586 30.9339 3.10966 30.9178C3.01345 30.9018 2.92457 30.8564 2.85522 30.7878C2.70313 30.6548 2.5881 30.4846 2.52133 30.2939C2.45456 30.1032 2.43834 29.8984 2.47424 29.6996C2.47939 29.6287 2.50434 29.5607 2.54625 29.5033C2.58816 29.4459 2.64534 29.4014 2.71129 29.3749C2.77724 29.3484 2.8493 29.341 2.91928 29.3534C2.98925 29.3658 3.05433 29.3977 3.10711 29.4453C3.26763 29.5561 3.3974 29.7059 3.48428 29.8806C3.57116 30.0553 3.6123 30.2492 3.60387 30.4441Z" fill="black"/>
<path d="M6.08406 35.2161C5.6811 35.2103 5.11611 34.7495 5.04289 34.3676C5.03002 34.3299 5.02605 34.2897 5.0313 34.2501C5.03655 34.2106 5.05087 34.1728 5.07315 34.1398C5.09542 34.1067 5.12505 34.0792 5.1597 34.0595C5.19436 34.0398 5.23311 34.0283 5.27292 34.0261C5.69621 33.9396 6.35774 34.3757 6.46121 34.8102C6.52745 35.0884 6.40459 35.2206 6.08406 35.2161Z" fill="black"/>
<path d="M17.3898 10.0965C17.1642 10.1158 16.9389 10.0559 16.7527 9.92696C16.67 9.87699 16.6031 9.80466 16.5598 9.71832C16.5164 9.63197 16.4984 9.53514 16.5077 9.43898C16.5276 9.34383 16.5779 9.25772 16.6509 9.1936C16.724 9.12948 16.8159 9.09081 16.9128 9.08341C17.2029 9.0121 17.509 9.04623 17.7763 9.1797C18.0395 9.31815 18.1952 9.54956 18.1315 9.75108C18.0949 9.85919 18.0231 9.95192 17.9277 10.0145C17.8322 10.077 17.7185 10.1058 17.6048 10.0962C17.5528 10.0986 17.5005 10.0965 17.3898 10.0965Z" fill="black"/>
<path d="M20.3028 10.294C20.1016 10.2889 19.9037 10.2422 19.7215 10.1568C19.5393 10.0714 19.3767 9.94911 19.2441 9.79774C19.0172 9.52325 19.1333 9.21527 19.487 9.20127C19.7242 9.18557 19.9616 9.22657 20.1798 9.32087C20.3979 9.41517 20.5904 9.56007 20.7415 9.74357C20.9284 9.96786 20.8482 10.1776 20.569 10.2608C20.4813 10.2793 20.3923 10.2904 20.3028 10.294Z" fill="black"/>
<path d="M29.7678 29.7668C29.7843 30.2416 29.6496 30.5364 29.3732 30.7516C29.1012 30.9633 28.845 30.8731 28.7254 30.5452C28.6764 30.3258 28.6882 30.0972 28.7596 29.8841C28.8309 29.6709 28.959 29.4812 29.1301 29.3355C29.1795 29.2995 29.2367 29.2757 29.297 29.266C29.3574 29.2563 29.4192 29.261 29.4774 29.2797C29.5355 29.2984 29.5885 29.3306 29.6319 29.3737C29.6753 29.4167 29.7079 29.4694 29.7271 29.5274C29.7524 29.6047 29.7661 29.6854 29.7678 29.7668Z" fill="black"/>
<path d="M16.4484 39.827C16.1344 39.8437 15.8207 39.791 15.5294 39.6729C15.4704 39.6549 15.4189 39.6182 15.3826 39.5684C15.3463 39.5185 15.3271 39.4583 15.328 39.3966C15.3315 39.3347 15.3563 39.2758 15.3982 39.2301C15.4402 39.1843 15.4967 39.1545 15.5581 39.1457C16.0911 39.0317 16.6245 38.9771 17.1428 39.2163C17.2554 39.2682 17.3733 39.328 17.3796 39.468C17.3874 39.6393 17.2504 39.6964 17.1176 39.7487C16.9015 39.8169 16.6744 39.8435 16.4484 39.827Z" fill="black"/>
<path d="M14.4763 10.1027C14.3758 10.1025 14.2755 10.0919 14.1771 10.0711C14.0253 10.0246 13.8754 9.95563 13.8541 9.76704C13.8364 9.6805 13.8443 9.59065 13.877 9.50856C13.9096 9.42646 13.9656 9.35571 14.0379 9.30499C14.1816 9.20315 14.3445 9.13154 14.5167 9.09451C14.6888 9.05748 14.8667 9.0558 15.0396 9.08957C15.1359 9.1053 15.2254 9.14931 15.2967 9.216C15.368 9.28268 15.4178 9.36905 15.44 9.46413C15.5048 9.68963 15.3534 9.81039 15.1933 9.9363C14.9788 10.105 14.7315 10.0768 14.4763 10.1027Z" fill="black"/>
<path d="M1.34164 27.5967C1.35835 27.3145 1.2847 27.0146 1.62216 26.9577C1.93172 26.9055 2.02528 27.1767 2.12801 27.3971C2.24886 27.6899 2.27862 28.0123 2.21341 28.3223C2.20995 28.3975 2.1814 28.4695 2.1323 28.5267C2.08321 28.5838 2.01639 28.6229 1.94251 28.6377C1.86862 28.6525 1.7919 28.6421 1.72459 28.6083C1.65728 28.5744 1.60323 28.519 1.57107 28.4508C1.41508 28.1937 1.33551 27.8974 1.34164 27.5967Z" fill="black"/>
<path d="M25.6037 11.9075C25.6608 11.9149 25.7168 11.9287 25.7708 11.9484C26.2313 12.1615 26.6083 12.5213 26.8426 12.9714C26.8852 13.0281 26.9069 13.0978 26.904 13.1687C26.901 13.2396 26.8736 13.3073 26.8263 13.3602C26.767 13.4133 26.6908 13.4436 26.6112 13.4456C26.5316 13.4477 26.4539 13.4213 26.392 13.3712C25.9241 13.1301 25.5545 12.7339 25.3463 12.2505C25.255 12.0334 25.3444 11.9112 25.6037 11.9075Z" fill="black"/>
<path d="M29.8789 16.6723C29.8711 16.8131 29.9004 16.9509 29.7591 17.0149C29.7009 17.0369 29.6372 17.0399 29.5771 17.0235C29.5171 17.0072 29.4637 16.9723 29.4247 16.9238C29.012 16.5364 28.7472 16.0173 28.6758 15.4558C28.6465 15.2295 28.8518 15.1139 29.0673 15.2149C29.1914 15.2823 29.2962 15.3803 29.3719 15.4995C29.6445 15.837 29.8198 16.2425 29.8789 16.6723Z" fill="black"/>
<path d="M11.8803 10.2879C11.7848 10.2878 11.6894 10.2816 11.5946 10.2693C11.5458 10.2682 11.4982 10.2542 11.4567 10.2286C11.4152 10.2031 11.3812 10.1669 11.3584 10.1238C11.3355 10.0807 11.3246 10.0323 11.3267 9.98355C11.3288 9.93483 11.3439 9.88754 11.3703 9.84659C11.5238 9.52117 12.281 9.15274 12.6378 9.22983C12.9572 9.29883 13.0653 9.55153 12.8703 9.81869C12.754 9.96948 12.6037 10.0906 12.4316 10.1722C12.2596 10.2537 12.0707 10.2934 11.8803 10.2879Z" fill="black"/>
<path d="M0.522438 25.4495C0.501002 25.2033 0.545665 24.9558 0.651819 24.7327C0.770733 24.5126 0.991349 24.4986 1.08523 24.7273C1.2828 25.1989 1.29393 25.728 1.11638 26.2075C1.10058 26.258 1.06901 26.3022 1.0263 26.3335C0.983585 26.3648 0.931968 26.3817 0.879003 26.3815C0.826085 26.3819 0.774318 26.3661 0.73068 26.3361C0.687041 26.3062 0.65363 26.2636 0.63495 26.2141C0.531671 25.9733 0.492894 25.7098 0.522438 25.4495Z" fill="black"/>
<path d="M7.61607 37.0165C7.383 36.9838 7.15879 36.905 6.95659 36.7845C6.7544 36.664 6.57828 36.5044 6.43855 36.315C6.27757 36.1025 6.35984 35.9549 6.63871 35.9498C6.88273 35.952 7.12301 36.01 7.34109 36.1195C7.55917 36.229 7.74925 36.3871 7.89672 36.5815C7.94019 36.6256 7.96862 36.6823 7.97793 36.7435C7.98724 36.8046 7.97696 36.8672 7.94856 36.9222C7.8863 37.0352 7.77145 37.0092 7.61607 37.0165Z" fill="black"/>
<path d="M30.8322 27.6013C30.8522 27.8677 30.7782 28.1326 30.623 28.3501C30.4074 28.6216 30.0985 28.5723 29.971 28.2384C29.9034 28.0563 29.878 27.8613 29.8967 27.668C29.9154 27.4746 29.9777 27.2881 30.0788 27.1223C30.1123 27.0392 30.1737 26.9704 30.2524 26.9276C30.3312 26.8849 30.4223 26.8709 30.5102 26.8882C30.6938 26.9291 30.7532 27.0805 30.7897 27.2364C30.8112 27.3571 30.8254 27.4789 30.8322 27.6013Z" fill="black"/>
<path d="M24.4573 37.0787C24.2901 37.0839 24.1999 37.0779 24.1471 36.996C24.1194 36.9509 24.1071 36.898 24.1121 36.8454C24.1172 36.7927 24.1392 36.7431 24.175 36.7041C24.4897 36.279 24.9603 35.9963 25.4834 35.9179C25.5343 35.9042 25.5883 35.9077 25.637 35.928C25.6857 35.9482 25.7262 35.9841 25.7523 36.0299C25.7757 36.0669 25.7867 36.1103 25.7838 36.1539C25.7809 36.1975 25.7643 36.2391 25.7363 36.2726C25.4138 36.6787 24.9628 36.9629 24.4573 37.0787Z" fill="black"/>
<path d="M9.34165 10.5907C9.05165 10.6046 8.91659 10.4247 9.07018 10.2015C9.21161 9.99242 9.39409 9.81434 9.60653 9.67805C9.81896 9.54176 10.0569 9.45013 10.3059 9.40872C10.3672 9.39865 10.4301 9.40865 10.4853 9.43724C10.5404 9.46582 10.5849 9.51146 10.612 9.56735C10.6304 9.61683 10.6343 9.67056 10.623 9.72215C10.6118 9.77374 10.586 9.82102 10.5487 9.85838C10.2555 10.2487 9.82322 10.5109 9.34165 10.5907Z" fill="black"/>
<path d="M31.6419 25.7086C31.6496 25.9203 31.6143 26.1314 31.5383 26.3291C31.5198 26.379 31.4874 26.4225 31.4451 26.4547C31.4028 26.4869 31.3522 26.5063 31.2992 26.5108C31.2458 26.5101 31.194 26.4924 31.1513 26.4603C31.1086 26.4282 31.0772 26.3834 31.0616 26.3324C30.9594 26.109 30.9037 25.8672 30.8977 25.6216C30.8918 25.3761 30.9358 25.1319 31.027 24.9038C31.045 24.8441 31.0812 24.7914 31.1306 24.7531C31.1799 24.7148 31.2399 24.6929 31.3023 24.6903C31.45 24.6936 31.4932 24.8181 31.5408 24.9352C31.6238 25.1841 31.6581 25.4467 31.6419 25.7086Z" fill="black"/>
<path d="M22.0021 9.47682C22.4631 9.58679 22.8752 9.84516 23.1751 10.2122C23.331 10.3853 23.2147 10.5994 22.9891 10.6266C22.562 10.6781 21.7605 10.2 21.6051 9.80102C21.5305 9.60958 21.6727 9.47166 22.0021 9.47682Z" fill="black"/>
<path d="M3.71869 14.1656C3.54006 14.1554 3.47942 14.0376 3.5336 13.8793C3.63369 13.5976 3.78898 13.3386 3.99037 13.1176C4.15825 12.8909 4.37619 12.7061 4.62721 12.5775C4.72809 12.5359 4.8383 12.5099 4.91755 12.6046C4.98292 12.6827 4.9317 12.7701 4.88721 12.8461C4.65344 13.2788 4.35388 13.6727 3.99924 14.0135C3.9266 14.0957 3.82723 14.1496 3.71869 14.1656Z" fill="black"/>
<path d="M30.8342 18.5274C30.8474 18.3707 30.801 18.2187 30.9491 18.1704C31.1199 18.1148 31.2048 18.2666 31.263 18.3824C31.4694 18.7848 31.6236 19.2118 31.7219 19.6532C31.7333 19.7217 31.7348 19.7914 31.7264 19.8603C31.7267 19.9041 31.7143 19.9471 31.6907 19.9839C31.667 20.0208 31.6331 20.05 31.5932 20.0679C31.5517 20.0827 31.5065 20.0828 31.465 20.0682C31.4235 20.0536 31.3882 20.0251 31.3652 19.9877C31.2855 19.8958 31.2159 19.7955 31.1577 19.6887C30.9929 19.3197 30.8839 18.9284 30.8342 18.5274Z" fill="black"/>
<path d="M11.7702 39.4904C11.7932 39.4415 11.8316 39.4015 11.8794 39.3764C11.9273 39.3513 11.982 39.3425 12.0353 39.3514C12.5754 39.3181 13.1153 39.4195 13.6065 39.6464C13.6821 39.6849 13.7602 39.7401 13.7435 39.8443C13.7351 39.8879 13.7106 39.9267 13.675 39.9531C13.6394 39.9795 13.5951 39.9916 13.551 39.9869C12.9547 39.9912 12.3675 39.9444 11.8474 39.6078C11.8097 39.5834 11.7931 39.5265 11.7702 39.4904Z" fill="black"/>
<path d="M0.572947 20.1139C0.453445 19.5302 0.781927 18.6221 1.23791 18.1953C1.44668 18.6685 1.13932 19.5835 0.572947 20.1139Z" fill="black"/>
<path d="M27.3964 12.5608C27.5198 12.5773 27.6354 12.6306 27.7281 12.7137C28.1092 13.0281 28.4131 13.4257 28.6163 13.876C28.6512 13.9522 28.7046 14.0415 28.6368 14.1211C28.5648 14.2058 28.47 14.165 28.3982 14.1186C27.8963 13.7873 27.508 13.3101 27.2856 12.7513C27.275 12.7318 27.2697 12.71 27.27 12.6878C27.2704 12.6657 27.2764 12.6441 27.2875 12.6249C27.2987 12.6058 27.3145 12.5899 27.3336 12.5786C27.3526 12.5674 27.3743 12.5613 27.3964 12.5608Z" fill="black"/>
<path d="M20.3918 39.5281C20.3609 39.6962 20.2073 39.7246 20.0846 39.7665C19.6417 39.928 19.173 40.007 18.7016 39.9995C18.5763 39.9953 18.4429 39.9712 18.4161 39.825C18.3928 39.6972 18.514 39.6462 18.6055 39.6106C19.0923 39.4164 19.6167 39.3347 20.1396 39.3715C20.1928 39.3673 20.246 39.3803 20.2914 39.4084C20.3368 39.4366 20.372 39.4785 20.3918 39.5281Z" fill="black"/>
<path d="M7.19154 11.1179C7.14432 11.1212 7.09716 11.1105 7.05598 11.0872C7.0148 11.0638 6.98142 11.0288 6.96002 10.9866C6.93013 10.9153 6.97273 10.8541 7.02002 10.8006C7.36622 10.4052 7.80673 10.1038 8.30063 9.92421C8.40003 9.8878 8.51939 9.86961 8.58823 9.96994C8.65948 10.0738 8.59257 10.1722 8.51362 10.2455C8.17645 10.5741 7.79127 10.8496 7.37128 11.0624C7.31302 11.0859 7.2529 11.1044 7.19154 11.1179Z" fill="black"/>
<path d="M9.42498 38.4494C8.82401 38.4189 8.25021 38.1895 7.79378 37.7974C7.74289 37.7554 7.67798 37.7085 7.69967 37.6261C7.70932 37.5925 7.73034 37.5633 7.75914 37.5434C7.78794 37.5236 7.82274 37.5143 7.8576 37.5173C8.22259 37.5116 8.52316 37.7041 8.8338 37.8539C9.05989 37.9629 9.31335 38.0613 9.42498 38.4494Z" fill="black"/>
<path d="M0.175979 24.4994C-0.0823294 23.9298 -0.0256143 23.3536 0.149417 22.7779C0.160568 22.7441 0.181457 22.7145 0.209447 22.6926C0.237437 22.6708 0.271274 22.6577 0.306686 22.6551C0.392703 22.6466 0.43105 22.7094 0.445714 22.7809C0.52362 23.0702 0.539866 23.3727 0.4934 23.6688C0.446934 23.9648 0.338791 24.2478 0.175979 24.4994Z" fill="black"/>
<path d="M25.2162 11.0898C24.5854 11.0448 24.1903 10.6729 23.7886 10.3185C23.7361 10.2843 23.6979 10.2323 23.6809 10.1721C23.664 10.1119 23.6695 10.0476 23.6964 9.99115C23.7794 9.85037 23.912 9.91842 24.0218 9.96507C24.3662 10.0941 24.6828 10.2878 24.9543 10.5358C25.0364 10.6029 25.1025 10.6874 25.1478 10.7833C25.1931 10.8791 25.2165 10.9838 25.2162 11.0898Z" fill="black"/>
<path d="M22.9772 38.5217C22.8286 38.5166 22.7388 38.5035 22.6982 38.4118C22.6556 38.3157 22.715 38.2437 22.7839 38.189C23.2165 37.8639 23.7107 37.6302 24.2364 37.5023C24.2532 37.4967 24.2709 37.4946 24.2885 37.4961C24.3061 37.4976 24.3232 37.5027 24.3387 37.5111C24.3542 37.5195 24.3679 37.531 24.3788 37.5449C24.3897 37.5588 24.3976 37.5748 24.4021 37.5919C24.4063 37.6161 24.4053 37.641 24.399 37.6648C24.3928 37.6887 24.3814 37.7109 24.3658 37.7299C24.2876 37.8233 24.1973 37.9058 24.0972 37.9751C23.7442 38.1964 23.3688 38.3796 22.9772 38.5217Z" fill="black"/>
<path d="M32.1956 23.8201C32.1956 24.0034 32.2008 24.1256 32.1941 24.247C32.1874 24.366 32.1927 24.5094 32.0299 24.5265C31.9057 24.5396 31.8444 24.4316 31.8145 24.3334C31.6455 23.8934 31.5967 23.4163 31.673 22.9511C31.7006 22.8298 31.7492 22.7 31.9011 22.7164C32.0204 22.7293 32.0427 22.8543 32.0677 22.9546C32.1559 23.2345 32.1991 23.5266 32.1956 23.8201Z" fill="black"/>
<path d="M2.41474 31.3546C2.41762 31.4796 2.41531 31.6122 2.27094 31.6549C2.2196 31.6665 2.16594 31.6623 2.11706 31.6427C2.06818 31.6232 2.02638 31.5893 1.99717 31.5455C1.80958 31.3375 1.69938 31.0712 1.68512 30.7914C1.68146 30.6855 1.6889 30.5762 1.80881 30.5323C1.85845 30.5146 1.91223 30.5122 1.96326 30.5253C2.01429 30.5384 2.06024 30.5665 2.09522 30.6059C2.28867 30.8086 2.40217 31.0746 2.41474 31.3546Z" fill="black"/>
<path d="M3.51959 33.1188C3.49833 33.2828 3.40279 33.3468 3.23137 33.2995C3.07195 33.2322 2.93211 33.1257 2.82484 32.9899C2.71756 32.8542 2.64633 32.6935 2.61774 32.5228C2.61787 32.3608 2.6709 32.2497 2.8679 32.2966C3.14804 32.3633 3.5255 32.8298 3.51959 33.1188Z" fill="black"/>
<path d="M1.51405 29.6369C1.51034 29.7207 1.49487 29.8036 1.46809 29.8831C1.40262 30.0177 1.29049 30.0718 1.18996 29.9213C0.980307 29.5928 0.892311 29.2012 0.941242 28.8145C0.947466 28.7434 0.970883 28.6745 1.05097 28.6571C1.08607 28.6518 1.12195 28.6566 1.15446 28.6709C1.18696 28.6851 1.21474 28.7083 1.23456 28.7378C1.41713 29.002 1.51464 29.3157 1.51405 29.6369Z" fill="black"/>
<path d="M29.7053 32.4312C29.6902 32.6656 29.2917 33.1635 29.0735 33.2207C28.9142 33.2625 28.7817 33.1449 28.7704 32.9516C28.7943 32.789 28.8554 32.6341 28.949 32.4991C29.0426 32.364 29.1662 32.2523 29.3101 32.1729C29.5473 32.1028 29.7193 32.2153 29.7053 32.4312Z" fill="black"/>
<path d="M26.3045 36.3468C26.6002 35.7361 27.0494 35.4692 27.5423 35.2552C27.5669 35.2516 27.592 35.2542 27.6154 35.2627C27.6387 35.2712 27.6596 35.2853 27.6762 35.3038C27.6885 35.3251 27.6954 35.3491 27.6962 35.3737C27.6969 35.3984 27.6915 35.4228 27.6805 35.4448C27.3357 35.8511 26.9669 36.2242 26.3045 36.3468Z" fill="black"/>
<path d="M4.62158 34.7332C4.62124 34.7552 4.61571 34.7768 4.60544 34.7963C4.59517 34.8157 4.58045 34.8324 4.56248 34.8451C4.54451 34.8578 4.5238 34.866 4.50204 34.8692C4.48027 34.8723 4.45808 34.8703 4.43725 34.8632C4.09643 34.7762 3.80279 34.5601 3.61834 34.2605C3.59336 34.2239 3.58045 34.1804 3.58141 34.1361C3.58237 34.0918 3.59717 34.0489 3.62372 34.0134C3.69129 33.9309 3.78323 33.9706 3.86406 33.9936C4.17236 34.0814 4.621 34.522 4.62158 34.7332Z" fill="black"/>
<path d="M19.6245 8.56816C19.601 8.71869 19.5136 8.79283 19.4043 8.78543C19.0149 8.77967 18.6404 8.6351 18.3481 8.37774C18.3191 8.35662 18.2975 8.32689 18.2863 8.29279C18.2751 8.25869 18.2749 8.22193 18.2858 8.18772C18.2967 8.15351 18.318 8.1236 18.3469 8.10221C18.3757 8.08081 18.4105 8.06903 18.4464 8.06853C18.8353 8.0577 19.2163 8.17969 19.5267 8.4144C19.5678 8.45973 19.6008 8.51173 19.6245 8.56816Z" fill="black"/>
<path d="M30.5626 30.7487C30.5272 31.021 30.4096 31.276 30.2255 31.4797C30.1972 31.5133 30.1605 31.5387 30.1192 31.5533C30.0778 31.5679 30.0333 31.5713 29.9902 31.563C29.939 31.5493 29.8941 31.5183 29.8629 31.4754C29.8318 31.4325 29.8164 31.3802 29.8192 31.3272C29.8156 31.1615 29.8468 30.997 29.911 30.8442C29.9752 30.6914 30.0708 30.5539 30.1917 30.4406C30.2196 30.4061 30.2595 30.3834 30.3034 30.3771C30.3473 30.3709 30.392 30.3815 30.4283 30.4069C30.478 30.4476 30.5165 30.5005 30.54 30.5603C30.5635 30.6201 30.5712 30.685 30.5626 30.7487Z" fill="black"/>
<path d="M27.7531 34.8436C27.6291 34.8479 27.5842 34.7623 27.5943 34.6423C27.6199 34.3395 28.168 33.855 28.486 33.8471C28.5934 33.8445 28.6523 33.8947 28.6466 34.0012C28.6347 34.2243 28.0039 34.826 27.7531 34.8436Z" fill="black"/>
<path d="M4.59338 35.3365C5.12874 35.4189 5.45979 35.7705 5.77502 36.2023C5.34461 36.2338 4.8632 35.8927 4.59338 35.3365Z" fill="black"/>
<path d="M16.886 8.00069C17.0974 7.99297 17.3061 8.04988 17.4844 8.16383C17.5238 8.18286 17.5567 8.21318 17.5789 8.25093C17.6011 8.28869 17.6116 8.33218 17.609 8.3759C17.6032 8.42884 17.5799 8.47835 17.5428 8.51659C17.5057 8.55482 17.4569 8.57962 17.4042 8.58705C17.1274 8.64036 16.8408 8.59909 16.5903 8.46987C16.5409 8.4508 16.4983 8.41749 16.468 8.37415C16.4376 8.33081 16.4208 8.27941 16.4197 8.2265C16.4309 8.077 16.5565 8.03611 16.6797 8.01443C16.7481 8.00488 16.817 8.00029 16.886 8.00069Z" fill="black"/>
<path d="M31.2908 29.1281C31.2599 29.3371 31.1961 29.5399 31.1017 29.729C31.0602 29.8241 30.9937 29.9177 30.8674 29.8864C30.7435 29.8558 30.7265 29.7406 30.7196 29.6385C30.6966 29.3258 30.7781 29.0144 30.9513 28.753C30.9963 28.6837 31.0568 28.606 31.1594 28.6285C31.2608 28.6507 31.2848 28.7362 31.29 28.8258C31.2941 28.8948 31.2908 28.9641 31.2908 29.1281Z" fill="black"/>
<path d="M14.8501 8.65196C14.7454 8.66171 14.6405 8.63627 14.552 8.57967C14.5189 8.56709 14.4899 8.54578 14.468 8.518C14.4462 8.49022 14.4322 8.45702 14.4278 8.42195C14.4233 8.38688 14.4284 8.35125 14.4426 8.31887C14.4568 8.28649 14.4796 8.25858 14.5084 8.23811C14.6377 8.13546 14.7898 8.06561 14.9519 8.03453C15.114 8.00345 15.2813 8.01206 15.4393 8.05963C15.6223 8.1412 15.6429 8.32498 15.4885 8.48095C15.3085 8.66263 15.0659 8.60616 14.8501 8.65196Z" fill="black"/>
<path d="M21.5375 8.99424C20.8601 9.01733 20.4134 8.75864 19.9644 8.4059C20.3995 8.23515 20.9643 8.44134 21.5375 8.99424Z" fill="black"/>
<path d="M10.6602 8.92152C11.0027 8.61397 11.3703 8.35134 11.8545 8.31832C11.89 8.31592 11.925 8.32672 11.953 8.34864C11.9809 8.37056 11.9998 8.40205 12.0059 8.43704C12.007 8.46193 12.0021 8.48672 11.9917 8.50934C11.9812 8.53195 11.9655 8.55172 11.9458 8.56699C11.5575 8.79172 11.1852 9.07135 10.6602 8.92152Z" fill="black"/>
<path d="M31.4653 27.7676C31.505 27.4977 31.4564 27.2397 31.6254 27.0303C31.6685 26.9769 31.7178 26.9145 31.7987 26.9366C31.832 26.9476 31.8609 26.9689 31.8813 26.9974C31.9017 27.0259 31.9126 27.0601 31.9124 27.0951C31.9359 27.4635 31.8907 27.833 31.779 28.1847C31.7605 28.255 31.7145 28.3152 31.631 28.3021C31.5963 28.2959 31.5647 28.2782 31.5414 28.2518C31.518 28.2254 31.5043 28.1919 31.5024 28.1567C31.4842 28.018 31.4753 27.878 31.4653 27.7676Z" fill="black"/>
<path d="M0.578371 28.4551C0.315313 28.0257 0.191982 27.5253 0.225394 27.0229C0.223692 27.0011 0.226458 26.9793 0.233521 26.9586C0.240585 26.938 0.251798 26.919 0.266471 26.9028C0.281143 26.8866 0.298966 26.8736 0.318843 26.8646C0.338721 26.8556 0.360233 26.8507 0.382057 26.8503C0.417429 26.8525 0.4512 26.8658 0.478483 26.8885C0.505766 26.9111 0.525147 26.9418 0.53382 26.9761C0.703437 27.4522 0.719023 27.9696 0.578371 28.4551Z" fill="black"/>
<path d="M12.8025 8.73259C12.7667 8.72895 12.6971 8.7254 12.6289 8.71401C12.556 8.70185 12.4934 8.66054 12.4933 8.58401C12.4956 8.55884 12.5029 8.53438 12.5148 8.51209C12.5267 8.48979 12.543 8.47012 12.5627 8.45423C12.8363 8.2349 13.1751 8.11269 13.5257 8.10678C13.5604 8.10304 13.5954 8.10918 13.6267 8.12449C13.658 8.13979 13.6844 8.16365 13.7027 8.19329C13.723 8.23213 13.7284 8.27708 13.7177 8.31958C13.707 8.36209 13.6811 8.39918 13.6448 8.4238C13.4148 8.63228 13.1128 8.74303 12.8025 8.73259Z" fill="black"/>
</g>
<defs>
<clipPath id="clip0_923_34">
<rect width="190" height="48" fill="white"/>
</clipPath>
</defs>
</svg>
