<svg fill="none" height="36" viewBox="0 0 36 36" width="36" xmlns="http://www.w3.org/2000/svg" xmlns:xlink="http://www.w3.org/1999/xlink"><clipPath id="a"><rect height="36" rx="4" width="36"/></clipPath><g clip-path="url(#a)"><rect fill="#fff" height="36" rx="4" width="36"/><path d="m31.171 19.8051c0 .3202-.1261.6271-.3507.8534-.2245.2263-.5291.3535-.8467.3535s-.6222-.1272-.8467-.3535c-.2246-.2263-.3507-.5332-.3507-.8534v-10.78097c0-.32004.1261-.62699.3507-.85329.2245-.22632.5291-.35347.8467-.35347s.6222.12715.8467.35347c.2246.2263.3507.53325.3507.85329zm-.4157 7.47c-.1583.1596-4.6113 3.8995-12.7751 3.8995-8.16381 0-12.58713-3.7199-12.77514-3.8796-.11848-.1006-.21608-.2239-.2872-.3627-.07111-.1389-.11435-.2904-.12722-.4461-.01286-.1556.00487-.3123.05222-.4611.04734-.1486.12335-.2866.22366-.4056.20666-.241.49948-.3898.81462-.4142.31513-.0242.62701.0781.86762.2846.06928.0499 4.04724 3.3011 11.22154 3.3011s11.1819-3.2712 11.2216-3.3011c.2433-.2047.5562-.3057.8721-.2814.316.0242.6102.1716.82.411.2018.2374.3026.5456.2804.8574s-.1656.6023-.3992.8082zm-25.97574-18.25097c.01788-.32105.16117-.62194.39851-.83684.23734-.21492.54945-.32639.86811-.31008.29541.01692.57415.14346.78245.35524.20832.21179.33145.49382.34564.79168v10.76117c0 .32-.12615.6269-.35069.8532-.22456.2264-.52911.3535-.84667.3535s-.62211-.1271-.84666-.3535c-.22454-.2263-.35069-.5332-.35069-.8532zm6.00664-2.39356c.0178-.32107.1611-.62194.3985-.83684.2373-.21492.5494-.3264.8681-.31008.2954.01691.5741.14346.7824.35524s.3315.4938.3457.79168v15.95713c0 .3201-.1262.627-.3507.8533-.2246.2263-.5291.3534-.8467.3534s-.6221-.1271-.8467-.3534c-.2245-.2263-.3506-.5332-.3506-.8533zm6.0363-.5984c0-.32005.1261-.62699.3507-.85329.2245-.22632.5291-.35347.8465-.35347.3176 0 .6222.12715.8468.35347.2245.2263.3506.53324.3506.85329v17.35343c0 .32-.1261.6269-.3506.8533-.2246.2263-.5292.3534-.8468.3534-.3174 0-.622-.1271-.8465-.3534-.2246-.2264-.3507-.5333-.3507-.8533zm5.9373.5984c0-.32005.1261-.627.3507-.85331.2245-.22631.5291-.35345.8466-.35345.3176 0 .6221.12714.8467.35345.2245.22631.3507.53326.3507.85331v15.95713c0 .3201-.1262.627-.3507.8533-.2246.2263-.5291.3534-.8467.3534-.3175 0-.6221-.1271-.8466-.3534-.2246-.2263-.3507-.5332-.3507-.8533zm8.7377-6.5823137h-26.99503c-.58821-.0039405-1.17141.1090907-1.7162.3326207-.54481.223531-1.04052.553172-1.45874.970043-.418228.41688-.750759.9128-.978555 1.45938-.227797.54657-.34638526 1.13306-.348975 1.7259v26.9277c.00258974.5927.121178 1.1793.348975 1.7259.227796.5464.560327 1.0425.978555 1.4593.41822.4168.91393.7466 1.45874.97.54479.2236 1.12799.3365 1.7162.3326h26.99503c.5873.0039 1.1698-.1086 1.7139-.3316.5442-.2228 1.0395-.5517 1.4576-.9675s.7508-.9105.9791-1.456c.2285-.5454.348-1.1308.3518-1.7228v-26.9376c-.0025-.59199-.1208-1.17766-.348-1.72358-.2271-.54593-.5587-1.0414-.976-1.45815-.4171-.416747-.9116-.746596-1.4554-.970716-.5436-.224121-1.1257-.3381229-1.7131-.3354977" fill="#000"/></g></svg>