<svg fill="none" height="48" viewBox="0 0 212 48" width="212" xmlns="http://www.w3.org/2000/svg"><g clip-rule="evenodd" fill="#000" fill-rule="evenodd"><path d="m65.2436 26.0359c-.795 2.1804-3.2077 3.3078-5.3908 2.5117-2.1818-.7939-3.307-3.2084-2.512-5.3889l7.4203-20.39206c.795-2.181244 3.2082-3.305947 5.3903-2.512024 2.1823.793664 3.3075 3.207664 2.5136 5.388904z"/><path d="m8.15772 39.2338c-.79366 2.181-3.20793 3.3057-5.3897 2.5115-2.182298-.7937-3.307529-3.2066-2.513341-5.3881l8.485871-23.3152c.79551-2.1831 3.20685-3.30783 5.39025-2.5136 2.1823.7936 3.3086 3.2074 2.5133 5.3904z"/><path d="m21.2264 39.2338c-.7942 2.181-3.2077 3.3057-5.3902 2.5115-2.1823-.7937-3.3068-3.2066-2.5128-5.3881l8.4861-23.3152c.795-2.1831 3.2069-3.30783 5.39-2.5136 2.1823.7936 3.3077 3.2074 2.513 5.3904z"/><path d="m34.2877 39.2338c-.7937 2.181-3.2074 3.3057-5.3897 2.5115-2.182-.7937-3.3075-3.2066-2.5131-5.3881l8.4856-23.3152c.7955-2.1831 3.2074-3.30783 5.3905-2.5136 2.1831.7936 3.3083 3.2074 2.5123 5.3904z"/><path d="m47.3453 39.2338c-.7939 2.1809-3.2084 3.3056-5.3884 2.5114-2.1838-.7936-3.3093-3.2066-2.5144-5.3881l12.2267-33.59046c.7929-2.181244 3.2069-3.305947 5.3881-2.512024 2.1842.793664 3.3084 3.207664 2.5144 5.388904z"/><path d="m86.0755 14.9843 6.335 16.8933 6.363-16.8933h3.6605v20.1031h-2.5342v-16.7245h-.0565l-6.2785 16.7245h-2.2803l-6.279-16.7245h-.056v16.7245h-2.5342v-20.1031z"/><path d="m117.226 35.397c-.619 0-1.112-.1744-1.478-.5212-.366-.3472-.549-.9155-.549-1.7031-.657.7876-1.422 1.3559-2.294 1.7031-.873.3468-1.816.5212-2.83.5212-.657 0-1.277-.0708-1.858-.2108-.582-.1414-1.094-.376-1.535-.7046-.441-.3279-.788-.7512-1.041-1.2669-.254-.516-.381-1.1403-.381-1.8721 0-.8256.141-1.5023.423-2.0272.281-.5258.652-.9525 1.112-1.2817.46-.3286.985-.5772 1.577-.7455.591-.1689 1.196-.3105 1.816-.4222.656-.1316 1.281-.2299 1.872-.2962.591-.0655 1.112-.159 1.562-.2814.451-.1218.807-.2998 1.07-.535.263-.2343.395-.5775.395-1.028 0-.5249-.099-.9474-.296-1.2671-.197-.3189-.45-.563-.76-.7313-.309-.1688-.658-.2822-1.042-.3379-.385-.0563-.765-.0843-1.14-.0843-1.014 0-1.859.1923-2.534.5776-.676.3841-1.042 1.1114-1.098 2.1815h-2.393c.037-.9018.225-1.6619.563-2.2806.337-.6201.788-1.1216 1.351-1.5068.563-.3841 1.211-.6613 1.943-.8309.732-.168 1.501-.2533 2.308-.2533.657 0 1.31.0478 1.957.1416.648.0935 1.234.2861 1.76.5767.526.2914.948.7002 1.267 1.2251.319.5258.479 1.2109.479 2.0547v7.4901c0 .5622.033.9757.098 1.2388.066.2635.286.3942.662.3942.206 0 .45-.0473.732-.1408v1.8576c-.413.2444-.985.3667-1.718.3667zm-3.35-7.3347c-.488.1033-1 .1878-1.534.2533-.535.0661-1.075.1406-1.62.2251-.544.0846-1.032.2207-1.464.408-.432.1878-.784.4557-1.055.8026-.272.348-.409.8214-.409 1.4222 0 .3942.08.7276.24 1 .159.2719.366.4925.619.6613.253.1683.554.2917.901.3662.347.0753.699.1125 1.056.1125.788 0 1.464-.108 2.027-.3241.563-.2154 1.023-.4878 1.38-.8159.356-.3287.619-.6853.788-1.0705.169-.385.253-.7459.253-1.0838v-2.4494c-.3.2251-.694.3889-1.182.4925z"/><path d="m123.42 20.531v2.3086h.057c.994-1.7639 2.571-2.6473 4.73-2.6473.957 0 1.755.1315 2.393.3949.638.2632 1.154.6286 1.548 1.0973.395.4702.672 1.028.831 1.6763.159.6468.239 1.3646.239 2.1535v9.5731h-2.393v-9.8552c0-.9002-.263-1.614-.788-2.139-.526-.5252-1.249-.7884-2.168-.7884-.732 0-1.366.1118-1.901.3379-.534.2251-.981.544-1.337.9572-.357.4132-.624.8965-.803 1.4497-.178.5538-.267 1.1596-.267 1.8164v8.2214h-2.393v-14.5564z"/><path d="m138.816 20.531v1.9706h.056c.394-.8071 1.014-1.3931 1.859-1.7598.844-.3654 1.773-.5495 2.787-.5495 1.126 0 2.107.2068 2.942.62.835.4133 1.53.9712 2.083 1.6751.554.7038.972 1.516 1.253 2.4351.282.92.423 1.8962.423 2.9289 0 1.0317-.136 2.009-.408 2.9282-.273.9197-.686 1.722-1.24 2.4076-.553.6849-1.248 1.2244-2.083 1.6185-.835.3942-1.807.5913-2.914.5913-.357 0-.756-.038-1.196-.1133-.442-.0745-.878-.1963-1.31-.3654-.432-.1696-.84-.3987-1.224-.6901-.385-.2909-.709-.6521-.972-1.0838h-.056v7.4896h-2.394v-20.103zm8.601 5.1661c-.178-.6475-.45-1.2251-.816-1.7321-.366-.5067-.835-.9099-1.408-1.2097-.573-.3007-1.244-.4505-2.013-.4505-.807 0-1.493.1596-2.055.4785-.564.3197-1.024.7366-1.38 1.2528-.357.5165-.615 1.1023-.774 1.7599-.16.6568-.239 1.3233-.239 1.9989 0 .7131.084 1.4026.253 2.0692s.436 1.2531.802 1.7601c.366.5068.84.9147 1.422 1.2243.582.3097 1.286.465 2.112.465.825 0 1.515-.159 2.069-.4787.553-.3189 1-.7419 1.337-1.2671.338-.5258.582-1.1268.732-1.8026.151-.6748.226-1.3689.226-2.0835 0-.6748-.09-1.3369-.268-1.9845z"/><path d="m152.406 24.8242c.3-.9284.75-1.7358 1.351-2.4214.601-.6848 1.342-1.2251 2.224-1.6185.883-.3949 1.896-.592 3.041-.592 1.164 0 2.182.1971 3.055.592.873.3934 1.609.9337 2.21 1.6185.601.6856 1.051 1.493 1.352 2.4214.3.9292.45 1.9292.45 2.9992 0 1.0695-.15 2.065-.45 2.9842-.301.9202-.751 1.722-1.352 2.4071-.601.6856-1.337 1.2204-2.21 1.6048-.873.3841-1.891.5775-3.055.5775-1.145 0-2.158-.1934-3.041-.5775-.882-.3844-1.623-.9192-2.224-1.6048-.601-.6851-1.051-1.4869-1.351-2.4071-.301-.9192-.451-1.9147-.451-2.9842 0-1.07.15-2.07.451-2.9992zm2.435 5.3504c.235.6848.558 1.257.971 1.7167.413.4603.896.8127 1.451 1.056.553.2436 1.14.3662 1.759.3662.62 0 1.206-.1226 1.76-.3662.553-.2433 1.037-.5957 1.45-1.056.413-.4597.736-1.0319.971-1.7167.235-.6856.353-1.4695.353-2.3512 0-.8821-.118-1.666-.353-2.3516-.235-.684-.558-1.2616-.971-1.7313-.413-.4692-.897-.8257-1.45-1.0706-.554-.2436-1.14-.3651-1.76-.3651-.619 0-1.206.1215-1.759.3651-.555.2449-1.038.6014-1.451 1.0706-.413.4697-.736 1.0473-.971 1.7313-.234.6856-.352 1.4695-.352 2.3516 0 .8817.118 1.6656.352 2.3512z"/><path d="m180.083 35.0874-2.956-11.572h-.057l-2.928 11.572h-2.59l-4.675-14.5564h2.647l3.294 11.9096h.056l2.929-11.9096h2.618l3.041 11.9096h.056l3.267-11.9096h2.477l-4.645 14.5564z"/><path d="m198.949 34.1582c-1.089.8256-2.459 1.2388-4.111 1.2388-1.164 0-2.172-.1878-3.026-.563-.855-.376-1.573-.9009-2.154-1.5775-.582-.6751-1.018-1.4822-1.309-2.4206-.291-.9393-.456-1.9612-.493-3.069 0-1.1081.169-2.1218.507-3.0415.337-.9194.811-1.7168 1.422-2.3926.609-.6763 1.332-1.2008 2.167-1.5765.836-.3759 1.75-.564 2.747-.564 1.294 0 2.368.2679 3.223.8029.853.535 1.539 1.2158 2.055 2.0414.516.8265.873 1.7269 1.069 2.7023.197.977.278 1.9054.24 2.7884h-10.896c-.019.6375.056 1.2433.225 1.8156.169.573.441 1.0797.816 1.5204.376.4412.855.7929 1.436 1.056.582.2635 1.268.3942 2.056.3942 1.014 0 1.844-.2343 2.492-.7038.648-.469 1.074-1.1826 1.281-2.1408h2.365c-.32 1.6341-1.023 2.8637-2.112 3.6893zm-.577-9.3477c-.216-.5067-.506-.9427-.873-1.3097-.366-.3651-.798-.6565-1.295-.8721-.498-.2166-1.047-.3239-1.647-.3239-.619 0-1.179.1073-1.675.3239-.498.2156-.925.5107-1.281.8867-.357.3759-.639.8119-.845 1.3088-.207.4978-.33 1.0283-.366 1.5905h8.362c-.038-.5622-.164-1.0975-.38-1.6042z"/><path d="m205.988 20.531v3.0689h.056c.582-1.1833 1.296-2.0554 2.14-2.6185.845-.5638 1.915-.8256 3.209-.7891v2.5347c-.957 0-1.773.1311-2.449.3942-.675.2634-1.22.6476-1.633 1.1546-.413.5067-.714 1.1215-.901 1.8436-.188.7231-.281 1.554-.281 2.4922v6.4758h-2.393v-14.5564z"/></g></svg>