<svg fill="none" height="48" viewBox="0 0 164 48" width="164" xmlns="http://www.w3.org/2000/svg"><g fill="#000"><path d="m163.858 21.8339v-2.8817h-3.579v-4.48l-.12.0371-3.361 1.0284-.067.0202v3.3944h-5.305v-1.891c0-.8805.197-1.5543.585-2.0037.385-.444.937-.6697 1.639-.6697.506 0 1.029.1191 1.556.3538l.132.059v-3.0348l-.062-.0229c-.492-.1765-1.16-.2655-1.988-.2655-1.044 0-1.992.2272-2.819.6773-.828.4508-1.479 1.0944-1.935 1.9126-.454.8173-.685 1.7612-.685 2.8058v2.079h-2.492v2.8817h2.492v12.14h3.577v-12.14h5.305v7.7147c0 3.1774 1.499 4.7875 4.455 4.7875.485 0 .997-.0569 1.518-.1684.532-.1144.894-.2287 1.107-.3507l.047-.0279v-2.9084l-.146.0963c-.194.1293-.436.235-.719.3137-.285.08-.522.1201-.707.1201-.692 0-1.204-.1866-1.522-.5548-.322-.3715-.485-1.0212-.485-1.9301v-7.092zm-26.489 9.5774c-1.298 0-2.322-.4305-3.043-1.2786-.726-.8523-1.094-2.0674-1.094-3.6113 0-1.5928.368-2.8395 1.094-3.7068.722-.8617 1.736-1.299 3.014-1.299 1.24 0 2.228.4176 2.935 1.2421.711.8286 1.071 2.0653 1.071 3.6767 0 1.6312-.339 2.8842-1.008 3.7224-.664.8319-1.663 1.2545-2.969 1.2545zm.159-12.821c-2.477 0-4.444.7258-5.847 2.1573-1.402 1.4317-2.113 3.4129-2.113 5.8891 0 2.3519.694 4.2437 2.063 5.622 1.368 1.3787 3.231 2.0771 5.535 2.0771 2.401 0 4.329-.736 5.731-2.1873 1.402-1.4497 2.113-3.4122 2.113-5.8306 0-2.3887-.667-4.2946-1.982-5.6637-1.316-1.3696-3.166-2.0639-5.5-2.0639zm-13.727 0c-1.685 0-3.079.431-4.143 1.2808-1.072.8548-1.615 1.9759-1.615 3.3326 0 .7052.117 1.3316.348 1.863.232.533.592 1.0024 1.069 1.3963.474.3907 1.205.7999 2.174 1.2163.815.3353 1.423.6189 1.809.8424.377.219.645.4392.796.6537.147.2098.221.497.221.8515 0 1.0092-.756 1.5002-2.311 1.5002-.577 0-1.234-.1204-1.955-.3579-.716-.2338-1.391-.5763-2.003-1.0154l-.148-.1065v3.4439l.054.0254c.506.2336 1.144.4307 1.897.5857.75.1552 1.432.2341 2.025.2341 1.828 0 3.301-.433 4.375-1.2879 1.081-.8607 1.629-2.0083 1.629-3.4119 0-1.0125-.295-1.8808-.876-2.5811-.578-.6946-1.58-1.3323-2.978-1.896-1.114-.447-1.827-.818-2.121-1.1029-.284-.2751-.428-.6643-.428-1.1571 0-.4368.178-.7868.543-1.0702.368-.2849.88-.4297 1.522-.4297.596 0 1.206.0941 1.812.2786s1.139.4316 1.583.7339l.146.0999v-3.2669l-.056-.0241c-.41-.1758-.951-.3262-1.607-.4483-.654-.1212-1.246-.1824-1.762-.1824zm-15.083 12.821c-1.298 0-2.322-.4305-3.043-1.2786-.726-.8523-1.094-2.0671-1.094-3.6113 0-1.5928.368-2.8395 1.094-3.7068.722-.8617 1.735-1.299 3.014-1.299 1.24 0 2.227.4176 2.935 1.2421.711.8286 1.071 2.0653 1.071 3.6767 0 1.6312-.339 2.8842-1.008 3.7224-.664.8319-1.663 1.2545-2.969 1.2545zm.159-12.821c-2.477 0-4.445.7258-5.847 2.1573-1.402 1.4317-2.113 3.4129-2.113 5.8891 0 2.3529.694 4.2437 2.063 5.622 1.368 1.3787 3.231 2.0771 5.535 2.0771 2.401 0 4.329-.736 5.732-2.1873 1.401-1.4497 2.112-3.4122 2.112-5.8306 0-2.3887-.667-4.2946-1.982-5.6637-1.316-1.3696-3.167-2.0639-5.5-2.0639zm-13.39 2.9633v-2.6014h-3.5334v15.0214h3.5334v-7.6841c0-1.3065.2963-2.38.8809-3.1907.5771-.8011 1.3462-1.2071 2.2852-1.2071.3183 0 .6756.0525 1.0625.1563.3834.1032.6604.2153.8244.3332l.148.1076v-3.5623l-.057-.0246c-.329-.1398-.7948-.2103-1.3838-.2103-.888 0-1.6826.2853-2.3632.8471-.5974.4937-1.0292 1.1707-1.3594 2.0149zm-9.8612-2.9633c-1.6211 0-3.067.3476-4.2969 1.0328-1.2324.6869-2.1855 1.6674-2.834 2.9142-.6456 1.2438-.9734 2.6967-.9734 4.317 0 1.4193.3178 2.7218.946 3.8697.6285 1.1498 1.5181 2.0493 2.6441 2.6732 1.1245.6231 2.4241.939 3.863.939 1.6792 0 3.113-.3357 4.2625-.9978l.0464-.0266v-3.2372l-.1485.1084c-.5207.3793-1.1026.6821-1.7287.9002-.6245.2179-1.1939.3281-1.6932.3281-1.3865 0-2.4995-.4339-3.3074-1.2892-.8097-.8564-1.2202-2.059-1.2202-3.5723 0-1.5228.4281-2.7563 1.2718-3.6664.8412-.9075 1.9563-1.3678 3.3141-1.3678 1.1614 0 2.2932.3932 3.3639 1.1699l.1482.1077v-3.411l-.0479-.0269c-.4029-.2256-.9524-.4118-1.6347-.5531-.6793-.1409-1.3438-.2119-1.9751-.2119zm-10.5378.362h-3.5335v15.0213h3.5335zm-1.7306-6.3991c-.5816 0-1.0888.198-1.5056.5903-.4184.3934-.6307.8887-.6307 1.4733 0 .5754.2097 1.0617.6242 1.4447.4118.3818.9207.5753 1.5122.5753.5914 0 1.1021-.1935 1.5188-.5747.4195-.3836.6322-.8698.6322-1.4453 0-.5641-.207-1.0544-.6149-1.4575-.4075-.4023-.9246-.6061-1.5362-.6061zm-8.8163 5.2908v16.1296h3.6061v-20.9606h-4.991l-6.3438 15.5689-6.1563-15.5689h-5.1942v20.9604h3.3888v-16.1309h.1163l6.5009 16.1311h2.5574l6.3995-16.1296z"/><path d="m16.6225 22.6313h-16.6225v-16.62251h16.6225z"/><path d="m34.9757 22.6313h-16.6222v-16.62251h16.6222z"/><path d="m16.622 40.991h-16.622v-16.6223h16.622z"/><path d="m34.9757 40.991h-16.6222v-16.6223h16.6222z"/></g></svg>