<svg fill="none" height="48" viewBox="0 0 100 48" width="100" xmlns="http://www.w3.org/2000/svg"><g clip-rule="evenodd" fill="#000" fill-rule="evenodd"><path d="m52.2585 24.1551v.0586c-.0402 2.4237-.7564 4.3009-1.1979 5.2425-.031.0679-.0618.1328-.0896.1915-.0216.0369-.037.074-.0555.108-.0248.0493-.0525.1018-.0803.1513-.0216.0432-.0433.0803-.0586.1111-1.1301 2.0686-2.7448 3.6338-4.8473 4.6744-1.6888.8367-3.4857 1.2597-5.3722 1.3029-1.0867.0277-2.158-.0679-3.2139-.3119-.1699-.0402-.3366-.0803-.5002-.1266-.3058-.0802-.6052-.1729-.8954-.2717-.0556-.0185-.1112-.0401-.1668-.0587-.1265-.0462-.25-.0925-.3734-.142-.1545-.0586-.3058-.1234-.4539-.1882-.139-.0587-.2748-.1235-.4075-.1852-.034-.0186-.065-.034-.0988-.0495-.2687-.1359-.5311-.2779-.7843-.4323-.281-.1667-.5527-.3457-.8151-.5372-.0864-.0648-.1759-.1296-.2594-.1944-.0864-.068-.1727-.1359-.2562-.2039-.0834-.0679-.1667-.139-.247-.2099-.7348-.6452-1.3861-1.3986-1.9543-2.2662-.0587-.0895-.1173-.1821-.1729-.2748-.0062-.0061-.0092-.0123-.0123-.0185-.1389-.2254-.2748-.4601-.4013-.7039-.9202-1.7443-1.3216-3.6123-1.3586-5.576-.0216-1.2411.1173-2.4544.4137-3.6554.2624-1.059.6792-2.0501 1.2289-2.9825.9848-1.6765 2.3247-3.0133 4.0105-3.989 1.6981-.9879 3.5444-1.5251 5.5079-1.5992.951-.0371 1.902-.0247 2.856.0988.1265.0155.25.034.3765.0556.1236.0216.2471.0432.3706.0678.1204.0216.2439.0495.3643.0773.0988.0216.1945.0464.2902.068.3953.1018.7811.2222 1.1578.3642.1049.0371.2099.0773.3119.1204.0463.0186.0925.0371.1357.0557.1452.0617.2903.1265.4323.1913.0495.0248.0988.0495.1483.0711.0956.0462.1913.0957.284.145.0679.0371.1359.0711.2037.1112.0711.0371.142.0772.2131.1174.0895.0493.176.1018.2624.1542.3056.1854.6082.3861.9046.6022.004.0031.008.0058.0117.0086.6151.4529.6627 1.3581.1224 1.8982l-3.0826 3.0824-1.6931 1.6923c-1.0356 1.0345-2.8052.3012-2.8052-1.1628v-2.398c0-.074-.0609-.1353-.1349-.1337-.3301.0071-.6644.0411-1.0013.1035-1.837.3272-3.1646 1.3183-4.0724 2.9145-.5279.9325-.7872 1.945-.8706 3.0133-.0309.3828-.037.7595-.0154 1.1331.003.0742.0092.1482.0154.2192.0062.074.0123.1451.0216.2162.0055.0506.0115.1012.017.1521.0241.2162.0627.4304.1146.6415.0333.1353.0633.2573.0999.3858 0 .003 0 .003.0032.0061.0278.1112.0618.2222.1019.3335.0371.111.0772.2253.1204.3365.0432.1049.0864.2099.1359.3148.0493.1143.1049.2286.1636.3428.0524.0988.1049.1976.1605.2932.0247.0434.0493.0835.0742.1236.1265.216.2654.4199.4135.6113.065.0865.1298.1668.2007.247.0587.074.1236.1451.1884.213.0308.0309.0618.0649.0958.0957.0648.068.1326.1359.2037.1976.108.0988.2162.1915.3303.2779.0802.0648.1605.1235.244.1791.0864.0586.1697.1142.2594.1666.0833.0526.1697.1019.2561.1453.0495.0277.0988.0523.1483.077.0802.0403.1636.0772.2469.1143.0927.0401.1853.0772.2809.1112.0434.0185.0866.0338.1298.0463.1112.0401.2223.0741.3396.1081.1112.0308.2223.0585.3365.0833.1111.0247.2193.0463.3335.0648.0308.0062.0648.0124.0988.0155.1111.0185.2254.0339.3396.0463.2315.0246.4631.037.6915.037.1235 0 .2471-.003.3706-.0124.0216 0 .0432-.003.0648-.003.1112-.0092.2222-.0186.3304-.034.0061 0 .0153 0 .0247-.0031.0988-.0123.1976-.0277.2964-.0463.0401-.0061.0802-.0124.1204-.0216.0709-.0154.142-.0309.2131-.0494.0739-.0154.1481-.0339.2192-.0555.0617-.0185.1204-.034.1789-.0556.037-.0093.0711-.0216.1051-.034.0122-.0031.0216-.0061.0338-.0123.0988-.034.1976-.071.2934-.1112.0246-.0093.0494-.0185.0741-.0309.0833-.0339.1636-.0709.2439-.1111.0495-.0216.0957-.0464.145-.0741.0803-.0371.1575-.0803.2347-.1265.0711-.0402.139-.0834.207-.1298.0401-.0216.0803-.0493.1172-.0772.0617-.0401.1204-.0803.179-.1265.0587-.0402.1174-.0864.173-.1328.0587-.0432.1143-.0926.1699-.1421.0833-.0678.1636-.142.2377-.2161.0648-.0617.1296-.1265.1913-.1944.1359-.1452.2594-.2903.3737-.4384.0556-.0711.111-.142.1605-.2161.0587-.0866.1143-.173.1697-.2533.207-.3241.3922-.6761.5466-1.0559.0216-.0462.0401-.0894.0556-.1296.5522-1.3205.5998-2.5768.5026-3.5224-.085-.83.1146-1.6815.6555-2.3169 1.6263-1.9092 4.5771-1.0796 5.1309 1.1773v.0061c.0833.6299.1359 1.2998.1575 2.0316z"/><path d="m19.6162 32.4929v-12.4739l-5.365 14.2846c-.235.6373-.8383 1.1065-1.5762 1.1065-.7042 0-1.3078-.4692-1.5425-1.1065l-5.36492-14.2846v12.4739c0 1.5762-1.27414 2.9172-2.88403 2.9172-1.6094 0-2.88355-1.341-2.88355-2.9172v-15.3912c0-2.5483 2.07893-4.661 4.66107-4.661 1.97835 0 3.72186 1.2744 4.35901 3.0852l3.65492 9.8919 3.6885-9.8919c.6707-1.8108 2.3809-3.0852 4.3929-3.0852 2.5483 0 4.6274 2.1127 4.6274 4.661v15.3912c0 1.5762-1.2745 2.9172-2.8839 2.9172-1.6096 0-2.8837-1.341-2.8837-2.9172z"/><path d="m59.2741 32.124-5.9017-15.5587c-.1006-.369-.2012-.7042-.2012-1.0732 0-1.6764 1.3748-3.0513 3.0515-3.0513 1.3412 0 2.4477.9052 2.8837 2.0791l4.8958 14.3515 4.929-14.3515c.4026-1.1739 1.5425-2.0791 2.884-2.0791 1.6764 0 3.0513 1.3749 3.0513 3.0513 0 .369-.1007.7042-.2347 1.0732l-5.8683 15.5587c-.7042 1.9115-2.582 3.2862-4.7613 3.2862-2.1461 0-4.0239-1.3747-4.7281-3.2862z"/><path d="m87.7828 17.2621c-3.7222 0-6.103 2.9074-6.103 6.6802 0 3.738 2.3808 6.68 6.103 6.68 3.6885 0 6.0693-2.942 6.0693-6.68 0-3.7728-2.3808-6.6802-6.0693-6.6802zm0-5.261c6.8404 0 11.9372 4.9149 11.9372 11.9412 0 7.0261-5.0968 11.941-11.9372 11.941-6.8406 0-11.9708-4.9149-11.9708-11.941 0-7.0263 5.1302-11.9412 11.9708-11.9412z"/></g></svg>