<svg width="154" height="48" viewBox="0 0 154 48" fill="none" xmlns="http://www.w3.org/2000/svg">
<path d="M153.897 12H150.36V15.5378H153.897V12Z" fill="black"/>
<path d="M153.897 15.5378H150.36V21.5824H153.897V15.5378Z" fill="black"/>
<path d="M150.36 12H144.315V15.5378H150.36V12Z" fill="black"/>
<path d="M8.50372 28.0554C7.79247 28.7892 6.90085 29.1561 5.82886 29.1561C5.18115 29.1561 4.57649 28.9962 4.01487 28.6765C3.4512 28.3567 2.99821 27.9263 2.65181 27.3872C2.30541 26.8481 2.13324 26.2496 2.13324 25.5958V25.5445V25.4933H2.12094V23.7818H2.13324C2.13324 23.1197 2.30541 22.5233 2.65181 21.9903C2.99821 21.4574 3.45325 21.0331 4.01487 20.7175C4.57854 20.4018 5.1832 20.244 5.82886 20.244C6.90905 20.244 7.80272 20.6068 8.50987 21.3344C9.21702 22.06 9.57162 23.1812 9.57162 24.6959C9.56957 26.2004 9.21497 27.3216 8.50372 28.0554ZM8.81733 19.1884C7.9872 18.7047 7.08328 18.4648 6.10147 18.4648C5.16475 18.4648 4.29158 18.6883 3.47785 19.133C2.96337 19.4139 2.51038 19.7644 2.11889 20.1845V18.6493H0.179871V36.0001H2.11889V29.2237C2.51038 29.6521 2.96337 30.0129 3.47785 30.3039C4.29158 30.7651 5.1668 30.9947 6.10147 30.9947C7.09762 30.9947 8.01179 30.7528 8.83987 30.2691C9.66795 29.7854 10.33 29.0741 10.826 28.1354C11.32 27.1966 11.568 26.0488 11.568 24.6959C11.568 23.3657 11.318 22.2343 10.8158 21.3078C10.3116 20.3772 9.64541 19.6721 8.81733 19.1884Z" fill="black"/>
<path d="M37.4005 27.0675C37.0397 27.7439 36.5396 28.2686 35.9001 28.6416C35.2606 29.0147 34.5227 29.2012 33.6864 29.2012C32.8563 29.2012 32.1204 29.0147 31.4789 28.6416C30.8353 28.2686 30.3331 27.7439 29.9723 27.0675C29.6116 26.3911 29.4312 25.5999 29.4312 24.6939C29.4312 23.7879 29.6116 23.0029 29.9723 22.3367C30.3331 21.6706 30.8353 21.1582 31.4789 20.7954C32.1225 20.4346 32.8583 20.2542 33.6864 20.2542C34.5227 20.2542 35.2606 20.4346 35.9001 20.7954C36.5396 21.1561 37.0397 21.6706 37.4005 22.3367C37.7612 23.0029 37.9416 23.7879 37.9416 24.6939C37.9416 25.5999 37.7612 26.3911 37.4005 27.0675ZM36.9106 19.2745C35.978 18.7416 34.9039 18.4751 33.6864 18.4751C32.4689 18.4751 31.3948 18.7416 30.4622 19.2745C29.5296 19.8074 28.7999 20.5412 28.2711 21.4779C27.7423 22.4126 27.4778 23.4866 27.4778 24.696C27.4778 25.9053 27.7423 26.9834 28.2711 27.9304C28.7999 28.8773 29.5296 29.6234 30.4622 30.1666C31.3948 30.7098 32.4689 30.9824 33.6864 30.9824C34.9039 30.9824 35.978 30.7098 36.9106 30.1666C37.8432 29.6234 38.5729 28.8773 39.1017 27.9304C39.6305 26.9834 39.895 25.9053 39.895 24.696C39.895 23.4866 39.6305 22.4126 39.1017 21.4779C38.5729 20.5412 37.8412 19.8074 36.9106 19.2745Z" fill="black"/>
<path d="M50.2828 28.0554C49.5716 28.7892 48.68 29.1561 47.608 29.1561C46.9603 29.1561 46.3556 28.9962 45.794 28.6765C45.2303 28.3567 44.7773 27.9263 44.4309 27.3872C44.0845 26.8481 43.9124 26.2496 43.9124 25.5958V25.5445V25.4933H43.9001V23.7818H43.9124C43.9124 23.1197 44.0845 22.5233 44.4309 21.9903C44.7773 21.4574 45.2324 21.0331 45.794 20.7175C46.3576 20.4018 46.9623 20.244 47.608 20.244C48.6882 20.244 49.5818 20.6068 50.289 21.3344C50.9961 22.06 51.3507 23.1812 51.3507 24.6959C51.3507 26.2004 50.9941 27.3216 50.2828 28.0554ZM50.5964 19.1884C49.7663 18.7047 48.8624 18.4648 47.8806 18.4648C46.9439 18.4648 46.0707 18.6883 45.257 19.133C44.7425 19.4139 44.2895 19.7644 43.898 20.1845V18.6493H41.959V36.0001H43.898V29.2237C44.2895 29.6521 44.7425 30.0129 45.257 30.3039C46.0707 30.7651 46.9459 30.9947 47.8806 30.9947C48.8767 30.9947 49.7909 30.7528 50.619 30.2691C51.4471 29.7854 52.1091 29.0741 52.6051 28.1354C53.0991 27.1966 53.3471 26.0488 53.3471 24.6959C53.3471 23.3657 53.0971 22.2343 52.5949 21.3078C52.0907 20.3772 51.4266 19.6721 50.5964 19.1884Z" fill="black"/>
<path d="M57.6331 14.2239H55.7166V30.765H57.6331V14.2239Z" fill="black"/>
<path d="M83.3835 24.5113C82.8957 24.2448 82.3689 24.0337 81.8032 23.8779C81.2375 23.7222 80.6861 23.6012 80.1552 23.5193C79.5916 23.4209 79.0955 23.3143 78.6651 23.1995C78.2347 23.0847 77.9006 22.9412 77.6607 22.767C77.4209 22.5928 77.302 22.3632 77.302 22.0824C77.302 21.7934 77.4168 21.5679 77.6443 21.404C77.8719 21.24 78.1547 21.1252 78.495 21.0555C78.8332 20.9879 79.1591 20.953 79.4706 20.953C79.8211 20.953 80.1573 21.0022 80.4811 21.1006C80.805 21.199 81.0714 21.3507 81.2805 21.5577C81.4896 21.7627 81.5941 22.0291 81.5941 22.3571V22.4247V22.5046H84.8224V22.4124V22.3325C84.8224 21.5105 84.5703 20.8116 84.0702 20.2336C83.568 19.6556 82.9121 19.2108 82.1024 18.8992C81.2928 18.5877 80.4196 18.4319 79.4829 18.4319C78.4929 18.4319 77.5931 18.5754 76.7794 18.8603C75.9656 19.1452 75.3138 19.5654 74.828 20.1208C74.3402 20.6763 74.0984 21.3568 74.0984 22.1623C74.0984 22.7711 74.2398 23.2876 74.5206 23.714C74.8014 24.1403 75.1785 24.4908 75.65 24.7696C76.1214 25.0483 76.64 25.2697 77.2078 25.4378C77.7755 25.6059 78.3392 25.7391 78.9029 25.8375C79.9216 26.0055 80.6656 26.1818 81.1329 26.3683C81.6003 26.5549 81.8339 26.8644 81.8339 27.2989C81.8339 27.5736 81.7233 27.799 81.5039 27.9774C81.2826 28.1557 80.9977 28.2848 80.6492 28.3648C80.2987 28.4447 79.9298 28.4836 79.5424 28.4836C78.8188 28.4836 78.247 28.3709 77.8247 28.1475C77.4025 27.9241 77.1914 27.5756 77.1914 27.1042V27.0078V26.9218H73.9282V27.0345V27.1595C73.9282 27.799 74.0779 28.3586 74.3792 28.8423C74.6805 29.3261 75.0884 29.7278 75.6049 30.0517C76.1214 30.3755 76.7117 30.6194 77.3738 30.7814C78.0358 30.9453 78.7266 31.0273 79.4501 31.0273C80.1491 31.0273 80.8316 30.9556 81.4937 30.8101C82.1557 30.6645 82.7522 30.4391 83.2851 30.1316C83.8181 29.8241 84.2403 29.4265 84.5518 28.9387C84.8634 28.4508 85.0192 27.8708 85.0192 27.1923C85.0192 26.5385 84.8695 25.9932 84.5682 25.5608C84.2649 25.1283 83.8713 24.7778 83.3835 24.5113Z" fill="black"/>
<path d="M91.6459 14.2198H88.3602V16.4663C88.3602 16.9542 88.3459 17.3436 88.3192 17.6367C88.2926 17.9298 88.2229 18.1491 88.1081 18.2926C87.9933 18.4361 87.8109 18.5324 87.5608 18.5775C87.3087 18.6226 86.9603 18.6452 86.5114 18.6452H85.6895V21.2134H88.3602V30.7651H91.6459V21.2134H94.8291V18.6472H91.6459V14.2198Z" fill="black"/>
<path d="M103.319 18.4299C102.696 18.4299 102.142 18.5283 101.659 18.7271C101.175 18.9239 100.761 19.2006 100.415 19.5552C100.199 19.7745 100.013 20.0205 99.8488 20.287V18.6472H96.5631V30.7651H99.8488V24.9008C99.8488 24.4827 99.9021 24.0646 100.009 23.6464C100.115 23.2283 100.289 22.845 100.533 22.5006C100.777 22.1542 101.105 21.8796 101.521 21.6726C101.935 21.4676 102.448 21.3651 103.057 21.3651C103.438 21.3651 103.745 21.4061 103.981 21.484C104.217 21.5639 104.368 21.6275 104.438 21.6726L105.008 18.7066C104.94 18.6677 104.764 18.6144 104.483 18.5406C104.202 18.4668 103.813 18.4299 103.319 18.4299Z" fill="black"/>
<path d="M115.021 26.641C114.75 27.1924 114.373 27.6208 113.885 27.9242C113.397 28.2275 112.832 28.3812 112.186 28.3812C111.538 28.3812 110.97 28.2296 110.481 27.9242C109.991 27.6208 109.61 27.1924 109.339 26.641C109.068 26.0897 108.933 25.4461 108.933 24.7082C108.933 23.9703 109.068 23.3287 109.339 22.7856C109.61 22.2424 109.989 21.8201 110.481 21.525C110.97 21.2278 111.54 21.0802 112.186 21.0802C112.832 21.0802 113.399 21.2278 113.885 21.525C114.373 21.8222 114.75 22.2424 115.021 22.7856C115.291 23.3287 115.427 23.9703 115.427 24.7082C115.427 25.444 115.291 26.0897 115.021 26.641ZM115.603 19.2293C114.617 18.6964 113.479 18.4299 112.186 18.4299C110.884 18.4299 109.743 18.6964 108.757 19.2293C107.771 19.7622 107.002 20.5001 106.447 21.443C105.891 22.3859 105.615 23.4743 105.615 24.7061C105.615 25.938 105.891 27.0305 106.447 27.9816C107.002 28.9326 107.773 29.6767 108.757 30.2116C109.743 30.7487 110.884 31.0151 112.186 31.0151C113.479 31.0151 114.619 30.7466 115.603 30.2116C116.589 29.6746 117.357 28.9326 117.913 27.9816C118.468 27.0305 118.745 25.938 118.745 24.7061C118.745 23.4743 118.468 22.3859 117.913 21.443C117.357 20.5001 116.589 19.7622 115.603 19.2293Z" fill="black"/>
<path d="M130.488 19.0182C129.834 18.6267 129.012 18.4299 128.022 18.4299C127.079 18.4299 126.218 18.6554 125.437 19.1043C124.82 19.4589 124.306 19.9221 123.892 20.4899V18.6472H120.616V30.7651H123.892V24.3638C123.892 23.7551 124.011 23.216 124.246 22.7487C124.482 22.2813 124.812 21.9144 125.234 21.6541C125.657 21.3918 126.149 21.2606 126.712 21.2606C127.36 21.2606 127.86 21.3856 128.213 21.6377C128.567 21.8898 128.815 22.228 128.961 22.6544C129.106 23.0807 129.178 23.5562 129.178 24.081V24.7143V25.5076V30.7651H132.453V25.813V24.4028V23.1422C132.453 22.1911 132.289 21.3651 131.962 20.66C131.634 19.957 131.142 19.4097 130.488 19.0182Z" fill="black"/>
<path d="M137.893 22.0026C138.129 21.6603 138.451 21.3979 138.857 21.2155C139.263 21.0331 139.73 20.9408 140.255 20.9408C140.788 20.9408 141.255 21.031 141.659 21.2093C142.062 21.3877 142.376 21.6459 142.599 21.9841C142.823 22.3223 142.936 22.7282 142.936 23.1996C142.936 23.6874 142.823 24.0994 142.599 24.4376C142.374 24.7758 142.06 25.032 141.659 25.2083C141.255 25.3825 140.783 25.4707 140.244 25.4707C139.703 25.4707 139.232 25.3825 138.83 25.2083C138.426 25.0341 138.111 24.7779 137.883 24.4438C137.656 24.1097 137.541 23.7059 137.541 23.2344C137.541 22.7548 137.658 22.3449 137.893 22.0026ZM144.94 29.8591C144.389 29.6582 143.747 29.5188 143.018 29.443L138.75 29.031C138.158 28.9777 137.754 28.8732 137.541 28.7174C137.328 28.5616 137.221 28.373 137.221 28.1517C137.221 27.916 137.324 27.713 137.529 27.5409C137.539 27.5327 137.547 27.5265 137.559 27.5183C138.348 27.7868 139.25 27.9242 140.269 27.9242C141.433 27.9242 142.397 27.7253 143.161 27.3256C143.926 26.926 144.539 26.3807 144.998 25.6879C145.457 24.9951 145.797 24.208 146.018 23.3246L147.205 18.6472H144.295L144.133 20.1189C144.083 20.0574 144.032 19.9959 143.975 19.9365C143.557 19.4876 143.001 19.1248 142.308 18.846C141.616 18.5673 140.847 18.4299 140.005 18.4299C138.916 18.4299 137.945 18.6329 137.09 19.0407C136.235 19.4486 135.561 20.0123 135.071 20.7358C134.581 21.4594 134.335 22.2957 134.335 23.2467C134.335 24.1896 134.575 25.0136 135.055 25.7166C135.278 26.0446 135.549 26.3377 135.862 26.596C135.768 26.6574 135.669 26.7271 135.563 26.8112C135.27 27.0428 135.009 27.3318 134.782 27.6782C134.554 28.0246 134.44 28.4058 134.44 28.826C134.44 29.4963 134.712 30.0313 135.255 30.4351C135.799 30.8388 136.485 31.0807 137.315 31.1647L141.913 31.6218C142.376 31.6608 142.78 31.7346 143.122 31.8452C143.464 31.9559 143.637 32.1937 143.637 32.5585C143.637 32.8107 143.505 33.03 143.243 33.2206C142.981 33.4112 142.599 33.5568 142.097 33.6592C141.595 33.7617 140.982 33.813 140.261 33.813C139.283 33.813 138.49 33.7146 137.877 33.5199L136.539 35.5511C137.518 35.8422 138.726 35.9918 140.169 35.9918C141.568 35.9918 142.753 35.8483 143.723 35.5593C144.692 35.2703 145.43 34.8542 145.936 34.309C146.443 33.7658 146.695 33.1161 146.695 32.3638C146.695 31.6936 146.541 31.1606 146.234 30.761C145.922 30.3613 145.492 30.06 144.94 29.8591Z" fill="black"/>
<path d="M15.854 22.3161C16.2188 21.6499 16.7292 21.1355 17.3831 20.7706C18.0369 20.4058 18.7933 20.2233 19.6541 20.2233C20.5068 20.2233 21.2222 20.3976 21.8002 20.7481C22.3782 21.0986 22.8148 21.5639 23.1058 22.146C23.3538 22.6379 23.4891 23.1729 23.5281 23.7488H15.3784C15.4625 23.218 15.6224 22.7404 15.854 22.3161ZM23.2473 27.6904C23.235 27.7109 23.2268 27.7314 23.2145 27.7519C23.0546 28.0184 22.8209 28.2643 22.5135 28.4878C22.206 28.7132 21.8166 28.8915 21.3431 29.0248C20.8717 29.158 20.3162 29.2236 19.6767 29.2236C18.7789 29.2236 18.0021 29.0412 17.3482 28.6763C16.6944 28.3115 16.1901 27.7909 15.8355 27.1124C15.5855 26.6328 15.4256 26.0875 15.3518 25.4808H25.5737C25.588 25.4132 25.6003 25.28 25.6085 25.0811C25.6167 24.8844 25.6208 24.7245 25.6208 24.6015C25.6208 23.4229 25.3769 22.3714 24.8911 21.447C24.4033 20.5226 23.7125 19.795 22.8148 19.262C21.917 18.7291 20.8553 18.4626 19.6316 18.4626C18.4284 18.4626 17.3605 18.7291 16.4258 19.262C15.4891 19.795 14.7553 20.5308 14.2245 21.4696C13.6915 22.4104 13.4251 23.4988 13.4251 24.7388C13.4251 25.9625 13.6895 27.0489 14.2183 27.9917C14.7471 28.9346 15.4748 29.6725 16.4033 30.2054C17.3318 30.7383 18.4038 31.0048 19.6213 31.0048C20.5417 31.0048 21.3554 30.8859 22.0625 30.6502C22.7697 30.4145 23.3682 30.1009 23.854 29.7094C24.2414 29.3978 24.557 29.0576 24.805 28.6886L23.2473 27.6904Z" fill="black"/>
<path d="M62.4458 22.3161C62.8107 21.6499 63.321 21.1355 63.9749 20.7706C64.6287 20.4058 65.3851 20.2233 66.246 20.2233C67.0986 20.2233 67.814 20.3996 68.392 20.7481C68.97 21.0986 69.4066 21.5639 69.6997 22.146C69.9477 22.6379 70.083 23.1729 70.122 23.7488H61.9723C62.0543 23.218 62.2121 22.7404 62.4458 22.3161ZM69.8166 27.7314C69.8125 27.7376 69.8084 27.7458 69.8043 27.7519C69.6444 28.0184 69.4107 28.2643 69.1033 28.4878C68.7958 28.7132 68.4043 28.8915 67.9329 29.0248C67.4614 29.158 66.906 29.2236 66.2665 29.2236C65.3687 29.2236 64.5939 29.0412 63.938 28.6763C63.2841 28.3115 62.7799 27.7909 62.4253 27.1124C62.1753 26.6328 62.0154 26.0896 61.9416 25.4808H72.1635C72.1778 25.4132 72.1901 25.28 72.1983 25.0811C72.2065 24.8823 72.2086 24.7245 72.2086 24.6015C72.2086 23.4229 71.9646 22.3714 71.4789 21.447C70.991 20.5226 70.3003 19.795 69.4025 19.262C68.5047 18.7291 67.443 18.4626 66.2193 18.4626C65.0182 18.4626 63.9482 18.7291 63.0136 19.262C62.0789 19.795 61.3431 20.5308 60.8122 21.4696C60.2793 22.4104 60.0128 23.4988 60.0128 24.7388C60.0128 25.9646 60.2772 27.0489 60.8061 27.9917C61.3349 28.9346 62.0625 29.6725 62.991 30.2054C63.9196 30.7383 64.9915 31.0048 66.2091 31.0048C67.1294 31.0048 67.9431 30.8859 68.6503 30.6502C69.3574 30.4145 69.9539 30.1009 70.4417 29.7094C70.8148 29.4081 71.1243 29.0822 71.3661 28.7296L69.8166 27.7314Z" fill="black"/>
</svg>
