<svg fill="none" height="40" viewBox="0 0 40 40" width="40" xmlns="http://www.w3.org/2000/svg"><rect fill="#fff" height="40" rx="1" width="40"/><path d="m26.89 10.9263c.7222.3731 1.2262 1.2342.9742 2.0478-.1461.4743-.654.8779-1.0929 1.109l-3.8758 1.9973-9.488 5.0072c-.5328.3105-1.4075.1677-1.4075-.6299 0-.2793.1878-.4967.4028-.6661l3.3502-2.766c-.7784-.4188-1.572-.9773-1.9395-1.1755-.9469-.512-1.0111-1.3305-1.0111-1.6434v-8.5171c0-.2969-.0144-.53683.0755-.82892.0464-.15395.123-.29711.2254-.42111.1024-.12399.2285-.22633.3709-.30104s.2983-.12029.4585-.13408c.1602-.01378.3215.00451.4746.0538.1124.03611.203.09308.3106.15326z" fill="#0057b7"/><path d="m27.0377 15.9425c1.0014-.5296 1.8111-.0425 1.8111 1.0881l.0024 8.6351c0 1.1306-.8105 2.4763-1.8103 3.0051l-13.2306 7.1152c-.9998.5296-1.8103.0434-1.8103-1.0873v-8.6358c0-1.1306.8105-2.4755 1.8103-3.0051z" fill="#ffd700"/></svg>