<svg fill="none" height="48" viewBox="0 0 116 48" width="116" xmlns="http://www.w3.org/2000/svg"><g fill="#000"><path d="m62.6741 24.534-1.9877-1.1903c-2.2362-1.2531-3.4163-2.0675-3.4163-3.5711 0-1.1277.9938-2.0049 2.2982-2.0049 2.6088 0 3.8512 2.0675 4.1618 4.6362h.4347l.9939-5.5759c-.8696-.3759-2.2362-.6265-3.6027-.6265-4.7829 0-7.1432 2.5687-7.1432 5.5133 0 2.5059 2.0498 3.8216 3.6648 4.6987l2.7331 1.5663c1.8013.9397 2.6709 1.8795 2.6709 3.2579 0 1.065-.8075 2.318-2.6709 2.318-2.5468 0-4.5966-2.318-5.4041-5.6386h-.3727l-1.056 1.441c-1.3665 1.6289-2.9194 2.9446-5.4039 2.9446-3.8512 0-5.6525-2.882-5.6525-6.7663h9.4415v-2.5687c0-3.571-1.7392-6.7036-5.9631-6.7036-4.9692 0-7.3917 4.5108-7.3917 9.5855 0 2.2555.5591 4.135 1.4908 5.6386-.6212.6892-1.4908 1.441-2.671 1.441-1.2422 0-1.8634-1.1904-1.8634-3.0072v-20.86269c-.1242.06265-.2484.1253-.3727.18795-1.4287.68916-2.733 1.19034-4.1617 1.56624.0621.1253.1242.2506.1242.3759.6212 1.629.6833 3.5711.6833 5.6386v12.3422c0 .9397.1242 1.7542.3105 2.4433-.4968.6892-1.1801 1.441-2.1119 1.441-1.1801 0-2.1118-.9397-2.1118-2.8193v-7.2048c0-3.1326-.6212-6.8289-5.7768-6.8289-4.5343 0-6.3978 2.8819-6.3978 5.7012l3.4163 1.3157s-.4348-5.7639 2.6709-5.7639c2.4847 0 2.4226 2.8193 2.4226 5.2626v.8771c0 .5639-1.3045 1.3157-3.7891 2.2554-2.1741.8771-5.4661 2.0049-5.4661 5.2 0 2.3181 1.6771 4.0097 4.1617 4.0097 1.9876 0 3.9132-1.1277 5.1556-2.8819.0621.8771 1.4286 2.8819 3.5405 2.8819 2.174 0 3.6648-1.3156 4.5966-2.5687.8074 1.7543 2.2361 2.5687 3.9132 2.5687 1.8013 0 3.2299-1.5662 4.1617-2.9445 1.4287 1.8168 3.4784 2.9445 5.8389 2.9445 2.9194 0 4.9691-1.9422 6.1493-3.8216.7454 1.0023 3.1058 3.8216 6.8327 3.8216 3.1057 0 6.0872-2.0675 6.0872-5.7012.0621-2.694-1.7392-4.0096-3.1678-4.8241zm-37.9523 6.7663c-.8075.6265-1.8014 1.1903-2.8573 1.1903-1.8014 0-2.671-1.3156-2.671-2.8819 0-2.0674 1.056-3.0072 4.2859-3.0072 1.1181 0 1.2424.1252 1.2424.8144zm18.1997-7.2675c0-4.2602.9938-6.5157 2.9815-6.5157 1.615 0 2.7331 1.6289 2.7331 5.3253 0 1.441-.1864 1.6289-1.3045 1.6289h-4.348z"/><path d="m72.3018 29.1725v-20.11081c-1.5529.75181-2.9816 1.31571-4.5344 1.75421.7454 1.6289.8075 3.759.8075 5.9518v12.3422c0 1.9422-.1243 3.4458-.8696 5.4506h5.9009c.0621 0-1.3044-1.7542-1.3044-5.388z"/><path d="m82.1159 16.2064c-4.4101 0-7.3916 3.759-7.3916 9.5228 0 5.388 2.7331 9.335 7.0815 9.335 4.4096 0 7.3918-3.6964 7.3918-9.3976 0-5.3879-2.7333-9.4602-7.0817-9.4602zm.1241 17.4168c-2.4222 0-3.4782-4.3855-3.4782-9.0843 0-4.4482.9317-7.0169 2.8571-7.0169 2.4851 0 3.4784 4.5736 3.4784 9.2723 0 4.5735-.9933 6.8289-2.8573 6.8289z"/><path d="m105.16 17.5205h5.094v-1.0024h-5.094v-5.0121c-1.242.8145-2.546 1.441-3.913 1.9422.125 1.3157.125 2.1301.187 3.0699h-6.1497c-.497-1.5036-.8071-2.7567-.8071-3.7591 0-1.253.4342-1.9421 1.4282-1.9421.9941 0 1.9881 1.253 2.8573 4.3855h.435l1.0563-5.63854s-.8702-.56386-2.1124-.56386c-4.5344 0-6.3356 3.5084-6.3977 7.4554h-2.0501v1.0024h2.0501v.188 11.0265c0 1.9422-.062 3.759-.87 5.8891h5.4045c-.808-2.0675-.87-3.9469-.87-5.8891v-10.9639-.1879h6.0256v.1879 12.4048c0 3.2578 1.304 4.9495 3.478 4.9495 2.547 0 4.348-2.1302 4.348-4.135-.869.6265-1.552 1.0651-2.298 1.0651-1.802 0-1.802-2.0048-1.802-2.8193v-11.4651z"/><path d="m3.97537 15.5772c0-1.6289 1.55288-2.9446 3.54056-2.9446 2.54677 0 4.09957 1.1904 4.96917 7.3928h.5591l.8075-8.4578c-5.77673-2.00483-12.857862.1253-12.982087 6.2024 0 6.5783 10.373187 6.5783 10.373187 12.5928 0 1.7542-1.55285 2.9445-3.29206 2.9445-4.59652 0-5.65248-3.8843-5.90094-7.9566h-.55904l-1.49076 7.6434s3.41633 2.0048 7.08112 2.0048c4.41018-.0627 7.32958-3.3205 7.45388-6.7663 0-6.5783-10.55963-7.9565-10.55963-12.6554z"/><path d="m111.186 32.6827c0-1.2531.994-2.3181 2.298-2.3181 1.367 0 2.361 1.065 2.361 2.3181 0 1.253-.994 2.318-2.298 2.318-1.429.0627-2.361-1.065-2.361-2.318z"/></g></svg>