<svg fill="none" height="48" viewBox="0 0 141 48" width="141" xmlns="http://www.w3.org/2000/svg" xmlns:xlink="http://www.w3.org/1999/xlink"><clipPath id="a"><path d="m0 0h141v48h-141z"/></clipPath><g clip-path="url(#a)" clip-rule="evenodd" fill="#000" fill-rule="evenodd"><path d="m.042616 32.2486c-.1178277.3073.0420302.3714.079928.4258.352105.255.709724.4396 1.068026.647 1.91556 1.0129 3.72088 1.3092 5.60888 1.3092 3.84485 0 6.23595-2.0465 6.23595-5.3401v-.0648c0-3.0456-2.7011-4.155-5.22305-4.9474l-.33006-.1068c-1.90867-.6187-3.5555-1.1576-3.5555-2.4117v-.064c0-1.075.96467-1.8674 2.45302-1.8674 1.65372 0 3.62439.5506 4.88539 1.2472 0 0 .3734.2412.5092-.1192.0737-.195.7166-1.9156.7855-2.1085.073-.2019-.0551-.3542-.1867-.4327-1.447-.882-3.44528-1.4815-5.51243-1.4815l-.3838.0014c-3.52105 0-5.980961 2.1292-5.980961 5.1748v.0654c0 3.211 2.714861 4.2584 5.250571 4.9819l.40791.1268c1.84666.5677 3.44526 1.0611 3.44526 2.3565v.0648c0 1.192-1.04047 2.0809-2.70797 2.0809-.6484 0-2.71486-.011-4.95428-1.4263-.27079-.1578-.42514-.2715-.63392-.399-.11025-.0668-.385872-.1874-.505767.1737l-.7579543 2.1085zm56.292684-.0055c-.1178.3073.042.3714.0813.4258.3507.2549.7097.4396 1.068.647 1.9156 1.0129 3.7209 1.3092 5.6089 1.3092 3.8449 0 6.2359-2.0465 6.2359-5.3401v-.0648c0-3.0456-2.6942-4.155-5.223-4.9474l-.3301-.1068c-1.9086-.6188-3.5555-1.1576-3.5555-2.4117v-.0641c0-1.0749.9647-1.8673 2.4531-1.8673 1.6537 0 3.6175.5506 4.8853 1.2472 0 0 .3735.2412.5099-.1192.0731-.195.7166-1.9156.7787-2.1085.0737-.2019-.0552-.3542-.1861-.4327-1.447-.882-3.4452-1.4815-5.5124-1.4815l-.3845.0014c-3.521 0-5.9809 2.1292-5.9809 5.1748v.0654c0 3.211 2.7148 4.2584 5.2505 4.9819l.4072.1267c1.8536.5678 3.4453 1.0612 3.4453 2.3566v.0648c0 1.192-1.0405 2.0809-2.708 2.0809-.6497 0-2.7217-.011-4.9542-1.4263-.2708-.1578-.4293-.2667-.6347-.399-.0696-.0441-.3941-.1709-.505.1736l-.758 2.1085zm38.4407-6.4551c0 1.8605-.3472 3.3281-1.0267 4.3686-.678 1.0267-1.7019 1.5297-3.1282 1.5297-1.4264 0-2.4462-.4989-3.1146-1.5228-.6732-1.0336-1.0129-2.5081-1.0129-4.3686 0-1.8604.3418-3.3212 1.0129-4.3479.667-1.0198 1.6813-1.509 3.1146-1.509 1.4332 0 2.453.494 3.1282 1.509.6836 1.0267 1.0267 2.4875 1.0267 4.3479zm3.211-3.4452c-.3163-1.068-.8062-2.0052-1.4608-2.7907-.6553-.7855-1.4814-1.4194-2.4668-1.8742-.9784-.4582-2.136-.689-3.4452-.689s-2.4599.2322-3.4453.689c-.9784.4575-1.8122 1.0887-2.4668 1.8742-.6532.7855-1.1438 1.7227-1.4608 2.7907-.3135 1.0611-.4727 2.2187-.4727 3.4521s.1592 2.391.4727 3.4522c.3149 1.068.8062 2.0051 1.4608 2.7906.6553.7855 1.4884 1.4126 2.4668 1.8605.9854.4465 2.143.6738 3.4453.6738s2.4599-.2273 3.4383-.6738c.9785-.4465 1.8122-1.075 2.4668-1.8605.6539-.7855 1.1439-1.7226 1.4608-2.7906.3128-1.0612.472-2.2188.472-3.4522 0-1.2265-.1592-2.391-.472-3.4521zm26.384 8.8198c-.106-.3121-.41-.1943-.41-.1943-.467.1785-.965.3438-1.495.4265-.535.0841-1.131.1261-1.758.1261-1.55 0-2.79-.4623-3.672-1.3781-.889-.9164-1.385-2.391-1.378-4.3892.005-1.8191.444-3.1834 1.233-4.2308.779-1.0336 1.978-1.571 3.563-1.571 1.322 0 2.335.1536 3.397.4858 0 0 .251.1095.372-.2219.281-.7786.49-1.3368.792-2.1912.085-.2446-.124-.348-.2-.3776-.417-.1626-1.399-.4293-2.143-.5416-.696-.1061-1.503-.1612-2.412-.1612-1.351 0-2.55.2308-3.576.6883-1.027.4569-1.895 1.0887-2.584 1.8742-.689.7856-1.213 1.7227-1.564 2.7907-.348 1.0611-.524 2.2256-.524 3.459 0 2.6598.717 4.8165 2.136 6.3944 1.419 1.5848 3.556 2.3841 6.339 2.3841 1.647 0 3.335-.3328 4.548-.813 0 0 .232-.1117.131-.3818l-.792-2.1774zm5.618-7.1661c.154-1.0336.437-1.8949.882-2.5633.667-1.0198 1.682-1.5779 3.108-1.5779s2.37.5609 3.045 1.5779c.448.6719.644 1.5642.717 2.5633l-7.786-.0014zm10.818-2.2739c-.273-1.0266-.951-2.0671-1.392-2.5426-.702-.751-1.385-1.2816-2.067-1.571-.985-.4188-2.044-.6337-3.114-.6319-1.358 0-2.591.2295-3.59.696-.999.4699-1.84 1.1094-2.501 1.9087s-1.158 1.7433-1.475 2.8251c-.317 1.068-.477 2.2394-.477 3.4659 0 1.2541.166 2.4186.493 3.4728.33 1.0611.861 1.9914 1.578 2.7631.716.7786 1.633 1.385 2.735 1.8122 1.096.4238 2.426.6436 3.949.6387 3.142-.0103 4.795-.7097 5.471-1.0887.12-.0675.234-.1839.092-.5195l-.71-1.9914c-.109-.2969-.409-.1894-.409-.1894-.779.2907-1.881.813-4.465.8061-1.688-.0027-2.935-.5009-3.721-1.2816-.799-.7993-1.199-1.9638-1.261-3.6175l10.887.0083s.287-.0028.316-.2825c.012-.1158.373-2.2326-.324-4.6787zm-97.8448 2.2739c.1537-1.0336.4375-1.8949.882-2.5633.667-1.0198 1.6813-1.5779 3.1076-1.5779s2.3703.5609 3.0456 1.5779c.4472.6719.6429 1.5642.7166 2.5633l-7.7863-.0014zm10.8181-2.2739c-.2729-1.0266-.9509-2.0671-1.3919-2.5426-.7028-.751-1.385-1.2816-2.0672-1.571-.9848-.4188-2.0443-.6337-3.1145-.6319-1.3574 0-2.5908.2295-3.5899.696-.9991.4699-1.8398 1.1094-2.5013 1.9087-.6594.7993-1.1576 1.7433-1.4745 2.8251-.3163 1.068-.4755 2.2394-.4755 3.4659 0 1.2541.1647 2.4186.4934 3.4728.3293 1.0611.8613 1.9914 1.571 2.7631.7166.7786 1.6331 1.385 2.7355 1.8122 1.0956.4238 2.4186.6436 3.9483.6387 3.1421-.0103 4.7958-.7097 5.4711-1.0887.1199-.0675.2342-.1839.0916-.5195l-.7097-1.9914c-.1096-.2969-.41-.1894-.41-.1894-.7786.2907-1.8811.813-4.465.8061-1.6813-.0027-2.9354-.5009-3.7209-1.2816-.7993-.7993-1.199-1.9638-1.261-3.6175l10.887.0083s.2867-.0028.3163-.2825c.0117-.1158.3728-2.2326-.3252-4.6787zm-34.3147 9.3711c-.4266-.3404-.4858-.4237-.6271-.6449-.2156-.3328-.3259-.8062-.3259-1.4126 0-.9509.317-1.6399.9716-2.1016-.0069.0014.9371-.8131 3.1558-.7855.9876.0177 1.9729.1017 2.9492.2515v4.9405h.0013s-1.3781.297-2.9353.3907c-2.2119.133-3.1903-.6367-3.1834-.6346zm4.3272-7.6484c-.441-.0324-1.0129-.0483-1.6951-.0483-.9302 0-1.8328.1158-2.6735.3432-.8475.2287-1.6124.5829-2.2669 1.0542-.6564.4683-1.1963 1.0813-1.578 1.7916-.3852.7166-.5815 1.5572-.5815 2.5081 0 .9647.1674 1.7984.4982 2.4806.324.6766.8119 1.2616 1.4194 1.7019.6043.4396 1.3505.7649 2.2118.9578.8545.195 1.8191.2935 2.8803.2935 1.1162 0 2.2256-.0937 3.3005-.2749.9155-.1579 1.8276-.3352 2.7356-.5319.3624-.0834.7648-.193.7648-.193.2687-.0682.2481-.3555.2481-.3555l-.0062-9.9223c0-2.1774-.5816-3.7967-1.7296-4.7958-1.1438-.9992-2.8182-1.5022-4.9887-1.5022-.8131 0-2.1291.1103-2.9147.2681 0 0-2.3703.4603-3.3487 1.2265 0 0-.215.1323-.0979.432l.7717 2.0672c.0958.268.357.1764.357.1764s.082-.0324.1784-.0896c2.0879-1.1369 4.7338-1.1025 4.7338-1.1025 1.1714 0 2.0809.2377 2.6873.7028.5933.4555.8958 1.1439.8958 2.5909v.4596c-.9302-.1351-1.7916-.2129-1.7916-.2129zm87.5092-5.602c.016-.0364.024-.0755.024-.115.001-.0396-.007-.0788-.022-.1153-.016-.0366-.038-.0696-.066-.0973-.029-.0277-.062-.0494-.099-.0638-.185-.0703-1.109-.2653-1.819-.3094-1.364-.0854-2.122.1447-2.805.4507-.673.3038-1.419.7924-1.832 1.3574l-.002-1.323c0-.1819-.129-.3287-.312-.3287h-2.784c-.18 0-.311.1468-.311.3287v16.1927c0 .0875.035.1713.097.2332.062.0618.145.0967.233.0968h2.853c.087-.0001.171-.035.232-.0969.062-.0618.097-.1457.097-.2331v-8.1308c0-1.0887.12-2.1705.359-2.8527.236-.6746.556-1.2127.951-1.5986.376-.3727.837-.6492 1.343-.8062.475-.1363.967-.2054 1.461-.2053.569 0 1.192.1461 1.192.1461.21.0234.326-.1048.397-.2936.187-.4968.717-1.9844.82-2.2807"/><path d="m84.6587 10.3698c-.3526-.1065-.7114-.1917-1.0742-.2549-.4882-.0815-.9825-.11977-1.4774-.1144-1.9658 0-3.5155.5554-4.6035 1.6523-1.0804 1.0887-1.8157 2.7473-2.1843 4.9295l-.133.7366h-2.4675s-.3011-.0124-.3645.3163l-.4052 2.2601c-.0282.2163.0648.3514.3542.35h2.402l-2.4371 13.6039c-.1909 1.0956-.4093 1.9969-.6512 2.6797-.2384.6739-.4713 1.179-.7579 1.5456-.2777.3548-.5409.616-.995.7683-.3749.1261-.8062.1839-1.2789.1839-.2632 0-.6133-.0441-.8716-.0957-.2584-.051-.3928-.1089-.5864-.1902 0 0-.2818-.1075-.3928.175-.0902.2308-.7304 1.9914-.8062 2.2091-.0771.215.031.3845.1675.4334.3197.1144.5574.1874.9929.2901.605.1426 1.1149.1516 1.5924.1516 1.0005 0 1.9121-.1406 2.668-.4134.7607-.275 1.4229-.7539 2.0086-1.4022.6332-.6994 1.0315-1.4319 1.4125-2.431.3769-.9902.698-2.2195.955-3.652l2.4489-13.8561h3.5803s.3018.011.3645-.3163l.4052-2.2601c.0283-.2163-.0641-.3514-.3549-.35h-3.4748c.0172-.0786.175-1.3009.5739-2.4516.1702-.4913.4906-.8875.7621-1.1597.2535-.2592.5657-.4535.9103-.5664.3776-.1168.7713-.1735 1.1665-.1681.3273 0 .6484.0392.893.0902.337.0717.4679.1096.5561.1358.3542.1081.4017.0034.4713-.1682l.831-2.2821c.0855-.2453-.1226-.3487-.1998-.379zm-48.5602 23.5084c0 .1819-.1295.33-.3114.33h-2.8823c-.1826 0-.3121-.1481-.3121-.33v-23.199c0-.1812.1295-.328.3121-.328h2.8823c.1819 0 .3114.1468.3114.328z"/></g></svg>