<svg fill="none" height="36" viewBox="0 0 36 36" width="36" xmlns="http://www.w3.org/2000/svg"><rect fill="#fff" height="36" rx="4" width="36"/><path d="m11.4731 17.6965c-.2156.2852-.4312.5738-.66.8756-.2023-.1327-.4013-.2554-.597-.388-.96846-.6667-1.78767-1.4726-2.31832-2.5406-.38141-.7694-.56714-1.5886-.63016-2.4377-.08623-1.1409-.03317-2.2719.3184-3.37297.59699-1.8573 1.76443-3.25028 3.44928-4.21873.6235-.35819 1.2603-.69317 1.9568-.88222.7131-.19236 1.4328-.35819 2.1558-.49086 1.2106-.21889 2.4344-.27196 3.6615-.22553.8557.03317 1.7081.08955 2.5472.27528-.9486 1.2968-1.8938 2.59359-2.8424 3.8937-.2752.3781-.5472.76283-.8225 1.14092-.4975.0398-.985.1194-1.4361.34493-.65.32502-.9883.85568-1.0381 1.57538-.0298.4013-.0165.796.2057 1.1509-.3416.461-.6799.922-1.0215 1.383-.4909.6633-.9851 1.3266-1.4793 1.99-.0199.0331-.0398.0663-.063.0995-.0331.0331-.063.0696-.0962.1028-.0331.053-.0696.1094-.1028.1625-.0564.063-.1127.126-.1691.189-.335.4577-.6766.9154-1.0182 1.3731z" fill="#c8344c"/><path d="m24.9253 26.2467c-.9619-1.4361-1.927-2.8688-2.8888-4.3049-1.0713-1.602-2.1425-3.2006-3.2171-4.8025-.7197-1.0746-1.4394-2.1458-2.1558-3.2204-.1659-.2455-.4113-.597-.5672-.8491.199.1161.5174.2952.733.3848.9618.3979 1.9634.6666 2.9684.922 1.5521.3913 3.0977.8092 4.5835 1.4162 1.2172.4975 2.378 1.0911 3.4029 1.9269 1.4129 1.1542 2.2188 2.6334 2.4244 4.4443.1592 1.4128.063 2.7992-.4278 4.1457-.4876 1.3399-2.5372 3.2768-2.5903 3.3133" fill="#479142"/><path d="m12.7533 15.9752c.0332-.0332.063-.0696.0962-.1028.0199-.0332.0398-.0663.063-.0995.4942-.6633.9883-1.3266 1.4792-1.99.3416-.461.6799-.922 1.0215-1.383.2521.2355.5041.471.7562.7064.0133.0166.0232.0332.0365.0498v-.0033c.1592.252.3117.5041.4776.7495.7164 1.0746 1.4361 2.1492 2.1558 3.2205 1.0712 1.6019 2.1425 3.2038 3.2171 4.8024.9618 1.4361 1.9269 2.8689 2.8888 4.305.7263 1.0812 1.7611 2.6632 1.7611 2.6632s.4643.6832.4875.7297c-.6865.5273-1.4527.9187-2.2553 1.2337-1.0679.4179-2.1425.7761-3.2768.9353-.2156.0299-.5041.063-.7197.0896-.0663-.1062-.1957-.3615-.2686-.4643-.0564-.0796-.2687-.4544-.3582-.5871-.0233-.0332-.5108-.7462-.534-.7927l-.1526-.2255c-.0331-.0365-.9485-1.4361-1.4129-2.1293-.2653-.3913-.5306-.7827-.7959-1.174.1592.0132.3084.0298.4643.0431.9585.0796 1.9137.0564 2.8357-.2653 1.0845-.3781 1.6251-1.2902 1.5024-2.4311-.0862-.7861-.4942-1.3234-1.1575-1.7081-.7429-.4311-1.5522-.6931-2.3714-.922-.7561-.2123-1.5223-.3748-2.2752-.5904-1.1143-.315-2.2354-.6102-3.3166-1.0381-.6832-.2686-1.3697-.4908-2.0065-.8623-.0564-.0331-.2156-.1194-.2952-.1658" fill="#1e9eba"/><path d="m17.433 26.5154c.2654.3913.534.7794.796 1.174.4643.6932 2.0729 3.111 2.0961 3.1442.0896.1327.5871.9651.6235 1.0514-.3416.0265-.6832.053-1.0248.0795-.0199 0-.0431 0-.063 0-1.0812.0432-2.1658.0631-3.2437-.0364-1.9302-.1758-3.7942-.6037-5.5055-1.5423-1.59864-.8789-2.86227-2.0961-3.69474-3.7345-.19236-.3781-.36483-.7628-.40794-1.1973-.10613-1.0347.74955-2.0795 1.7976-2.1093 1.03147-.0299 2.06628-.0133 3.09768-.01.398 0 .7993-.0166 1.1907.0431.6235.0929 1.0945.4511 1.3664 1.0182.6037 1.2537 1.6418 1.8872 2.9717 2.1194z" fill="#55426d"/><path d="m17.695 9.32539c.2753-.38141.544-.76282.8226-1.14092.9452-1.29679 1.8937-2.5969 2.8423-3.8937 1.0679.15257 2.0895.44443 3.0745.88885.6567.29518 1.0547.78936 1.1774 1.49248.1028.59699-.0464 1.14091-.4345 1.60856-.4676.56714-.9353 1.13428-1.4062 1.6981-.7828.93864-2.0696.92864-2.8523.19234-.5108-.48089-1.1409-.71305-1.8208-.79265-.4644-.05306-.9386-.0398-1.403-.05306z" fill="#f0b41d"/></svg>