<svg width="156" height="48" viewBox="0 0 156 48" fill="none" xmlns="http://www.w3.org/2000/svg">
<path fill-rule="evenodd" clip-rule="evenodd" d="M13.3506 24.7897C13.5609 24.5793 13.5609 24.2251 13.3506 24.0148C13.3506 24.0148 9.3321 19.9852 9.30996 19.9852C9.19926 19.8745 9.14391 19.7417 9.14391 19.5978C9.15498 19.4539 9.21033 19.321 9.30996 19.2103L17.5683 10.952C17.679 10.8413 17.7454 10.7085 17.7454 10.5424C17.7454 10.2435 17.5018 10 17.203 10H9.16605C9.02214 10 8.87823 10.0664 8.7786 10.1661L0.453875 18.4908C0.177122 18.7786 0 19.166 0 19.5978C0 20.0295 0.166052 20.4059 0.442804 20.6937L8.5572 28.8081C8.76753 29.0184 9.12177 29.0184 9.3321 28.8081L13.3506 24.7897ZM18.8856 19.2104C18.6753 19.4207 18.6753 19.775 18.8856 19.9853L22.9262 24.0148C23.0258 24.1255 23.0812 24.2583 23.0812 24.4023C23.0812 24.5462 23.0369 24.6901 22.9262 24.7897L14.6679 33.048C14.5572 33.1476 14.4908 33.2916 14.4908 33.4576C14.4908 33.7565 14.7343 34 15.0332 34H23.0701C23.214 34 23.3579 33.9336 23.4576 33.834L31.7823 25.5093C32.059 25.2214 32.2362 24.834 32.2362 24.4023C32.2362 23.9705 32.059 23.5941 31.7934 23.3063L23.679 15.1919C23.4686 14.9816 23.1144 14.9816 22.9041 15.1919L18.8856 19.2104ZM51.3875 16.1107C50.0258 15.6347 47.9114 15.2251 46.107 15.2251C42.8413 15.2251 40.7823 16.7749 40.7823 19.3542C40.7823 21.6347 42.1439 22.5867 45.0664 23.1956C45.2345 23.2305 45.4009 23.2638 45.5641 23.2964C47.0028 23.5839 48.1993 23.823 48.1993 24.7675C48.1993 25.5203 47.4686 25.8967 46.0849 25.8856C44.9336 25.8635 43.2177 25.5535 41.1255 24.7675L40.3948 27.6347C42.4317 28.3985 44.5461 28.7638 46.2177 28.7638C49.5055 28.7638 51.6753 27.3469 51.6753 24.5572C51.6753 22.0443 49.893 21.1919 47.203 20.6162C47.0798 20.5904 46.9601 20.5656 46.844 20.5416L46.8423 20.5412C45.2183 20.2048 44.3026 20.0152 44.3026 19.1993C44.3026 18.3912 44.9889 18.048 46.1292 18.048C47.2472 18.048 48.8745 18.3579 50.7011 18.9115L51.3875 16.1107ZM55.4501 15.5904C56.9889 15.5129 58.7047 15.4354 60.487 15.4354C63.9409 15.4354 66.166 17.0295 66.166 20.0849C66.166 23.0627 63.9298 24.9447 60.476 24.9447H58.6715V28.4317H55.4501V15.5904ZM58.6826 18.1255V22.1218H60.6752C62.0036 22.1218 62.9446 21.3801 62.9446 20.107C62.9446 18.8007 62.0036 18.0922 60.6752 18.0922C60.011 18.0922 59.3357 18.1033 58.6826 18.1255ZM92.0922 15.5904V23.0185L86.0369 15.5904H83.059V28.4318H86.2804V21.0702L92.3468 28.4318H95.3026V15.5904H92.0922ZM99.5867 15.5793C101.004 15.5018 102.642 15.4243 104.446 15.4243C108.697 15.4243 111.554 17.8376 111.542 21.9335C111.542 26.0627 108.686 28.5977 104.768 28.5977C102.83 28.5977 101.004 28.5203 99.5867 28.4428V15.5793ZM102.819 25.642C103.494 25.6752 104.203 25.6752 104.856 25.6752C106.716 25.6752 108.21 24.2361 108.221 21.9003C108.221 19.6199 106.727 18.3136 104.59 18.3136C104.026 18.3136 103.417 18.3136 102.819 18.3468V25.642ZM139.417 16.1107C138.055 15.6347 135.941 15.2251 134.136 15.2251C130.871 15.2251 128.812 16.7749 128.812 19.3542C128.812 21.6347 130.173 22.5867 133.096 23.1956C133.264 23.2305 133.43 23.2638 133.594 23.2964C135.032 23.5839 136.229 23.823 136.229 24.7675C136.229 25.5203 135.498 25.8967 134.114 25.8856C132.963 25.8635 131.247 25.5535 129.155 24.7675L128.424 27.6347C130.461 28.3985 132.576 28.7638 134.247 28.7638C137.535 28.7638 139.705 27.3469 139.705 24.5572C139.705 22.0443 137.922 21.1919 135.232 20.6162C135.109 20.5903 134.988 20.5654 134.872 20.5412C133.248 20.2048 132.332 20.0152 132.332 19.1993C132.332 18.3912 133.018 18.048 134.159 18.048C135.277 18.048 136.904 18.3579 138.731 18.9115L139.417 16.1107ZM148.727 24.0812H146.712V28.4318H143.491V15.5904H146.723V20.9262H147.354L151.616 15.5904H155.535L150.786 21.5019L155.834 28.4318H151.882L148.727 24.0812ZM72.5646 20.6384V18.3137H79.2066V15.5793H69.3321V28.4207H79.2066V25.6864H72.5646V23.3616H78.1107V20.6384H72.5646ZM118.461 18.3137V20.6384H124.007V23.3616H118.461V25.6864H125.103V28.4207H115.229V15.5793H125.103V18.3137H118.461Z" fill="black"/>
</svg>
