<svg fill="none" height="48" viewBox="0 0 82 48" width="82" xmlns="http://www.w3.org/2000/svg"><path clip-rule="evenodd" d="m70.1073 32.2499c-4.5629 0-8.275-3.7426-8.275-8.3427 0-4.6054 3.7121-8.3523 8.275-8.3523 4.5578 0 8.2659 3.7469 8.2659 8.3523 0 4.6001-3.7081 8.3427-8.2659 8.3427zm0-20.2499c-6.5086 0-11.8035 5.3416-11.8035 11.9072 0 6.5638 5.2949 11.9042 11.8035 11.9042 6.5051 0 11.7975-5.3404 11.7975-11.9042 0-6.5656-5.2924-11.9072-11.7975-11.9072zm-47.058 20.9756c.3226.3289.5006.7603.5006 1.2156 0 .9535-.7704 1.7291-1.717 1.7291-.4599 0-.8994-.1931-1.2375-.5438l-8.8207-8.8899-8.85885 8.9316c-.33109.3216-.75943.4977-1.20787.4977-.941957 0-1.70798-.7739-1.70798-1.7247 0-.471.187411-.9114.52796-1.2394l8.82557-8.9227-8.83874-8.9115c-.331938-.3333-.51479-.7714-.51479-1.233 0-.9511.766023-1.725 1.70798-1.725.45536 0 .88387.1771 1.2072.4982l8.86812 8.9127 8.8332-8.896c.326-.3319.7582-.5149 1.2164-.5149.9466 0 1.717.7739 1.717 1.725 0 .4607-.1783.8906-.5013 1.2106l-8.8325 8.941zm34.3513-17.2546c-.077 0-.3802.0021-.6625.0362-3.4056.4249-3.7442 2.083-3.7442 6.0492v12.242c0 .9487-.7651 1.7205-1.7051 1.7205-.9343 0-1.699-.7715-1.7053-1.7198l-.0055-19.9057c.0059-.9617.756-1.7147 1.7079-1.7147.7386 0 1.3935.4901 1.6174 1.1873 1.1693-.8611 2.5577-1.3151 4.0259-1.3151l.4838.0071c.9461 0 1.7179.7749 1.7179 1.7277 0 .9401-.7277 1.6487-1.7303 1.6853zm15.7143 8.1862c0 1.6729-1.3494 3.0337-3.0076 3.0337-1.6617 0-3.0136-1.3608-3.0136-3.0337 0-1.6722 1.3519-3.033 3.0136-3.033 1.6582 0 3.0076 1.3608 3.0076 3.033zm-46.2571-1.9278c.9438-3.735 4.2698-6.3421 8.0914-6.3421 3.8416 0 7.1521 2.6005 8.0999 6.3421zm19.1325 2.2702c.542-.6738.7456-1.5551.5727-2.4843-.7046-3.3666-2.5167-6.0637-5.2403-7.799-1.8707-1.2003-4.0538-1.8344-6.3135-1.8344-2.4933 0-4.8672.7572-6.865 2.19-3.1227 2.2412-4.9869 5.9018-4.9869 9.7933 0 .9769.1197 1.9466.3556 2.8821 1.1999 4.7385 5.2362 8.3224 10.0437 8.9179.465.0561.9305.0848 1.3833.0848.9633 0 1.9002-.1238 2.8632-.3767 1.2521-.3039 2.445-.8156 3.5467-1.5205 1.0409-.6806 1.9992-1.5976 3.0073-2.8767l.066-.0691c.3357-.4226.4917-.9661.4279-1.4905-.0571-.4694-.2796-.8748-.6262-1.1407-.3286-.2554-.72-.3962-1.1019-.3962-.3723 0-.9192.136-1.4137.7866l-.0388.052c-.1633.2198-.3323.4471-.5266.6726-.6663.7553-1.432 1.3774-2.2743 1.8488-1.2062.6489-2.5091.9828-3.87.9928-4.275-.0473-6.8928-2.9187-7.9156-5.5855-.1608-.48-.2756-.9184-.3492-1.3248-.0014-.0413-.0042-.0844-.0069-.1268l16.5511-.003c1.1495-.0246 2.1127-.4483 2.7114-1.1927z" fill="#000" fill-rule="evenodd"/></svg>