<svg fill="none" height="16" viewBox="0 0 22 16" width="22" xmlns="http://www.w3.org/2000/svg" xmlns:xlink="http://www.w3.org/1999/xlink"><clipPath id="a"><path d="m0 0h21.3333v16h-21.3333z"/></clipPath><g clip-path="url(#a)"><path d="m1.45455 16h3.39393v-8.24242l-4.84848-3.63636v10.42428c0 .8048.652121 1.4545 1.45455 1.4545z" fill="#4285f4"/><path d="m16.4849 16h3.3939c.8049 0 1.4545-.6521 1.4545-1.4545v-10.42428l-4.8484 3.63636" fill="#34a853"/><path d="m16.4849 1.45452v6.30303l4.8484-3.63636v-1.9394c0-1.798784-2.0533-2.824238-3.4909-1.745451" fill="#fbbc04"/><path d="m4.84863 7.75756v-6.30303l5.81817 4.36364 5.8182-4.36364v6.30303l-5.8182 4.36364" fill="#ea4335"/><path d="m0 2.18179v1.9394l4.84848 3.63636v-6.30303l-1.35757-1.018181c-1.44-1.078787-3.49091-.053333-3.49091 1.745451z" fill="#c5221f"/></g></svg>