<svg fill="none" height="16" viewBox="0 0 18 16" width="18" xmlns="http://www.w3.org/2000/svg" xmlns:xlink="http://www.w3.org/1999/xlink"><linearGradient id="a" gradientUnits="userSpaceOnUse" x1="10.6" x2="10.6" y1="8.39996" y2="16"><stop offset="0" stop-color="#35b8f1"/><stop offset="1" stop-color="#28a8ea"/></linearGradient><linearGradient id="b" gradientUnits="userSpaceOnUse" x1="1.52874" x2="7.27125" y1="3.02707" y2="12.9729"><stop offset="0" stop-color="#1784d9"/><stop offset=".5" stop-color="#107ad5"/><stop offset="1" stop-color="#0a63c9"/></linearGradient><clipPath id="c"><path d="m0 0h17.2v16h-17.2z"/></clipPath><g clip-path="url(#c)"><path d="m17.1999 8.4c.001-.13449-.0685-.25967-.1832-.33h-.002l-.0072-.004-5.96-3.52799c-.0257-.01739-.0524-.03329-.08-.0476-.2301-.11872-.5034-.11872-.7336 0-.0275.01432-.0542.03021-.08.0476l-5.95994 3.52799-.00719.004c-.18216.11328-.238.35278-.12473.53494.03338.05367.07935.09838.13392.13026l5.96004 3.528c.0258.0172.0525.0331.08.0476.2301.1187.5034.1187.7336 0 .0274-.0145.0541-.0304.08-.0476l5.96-3.528c.119-.06941.1917-.19737.1903-.3352z" fill="#0a2767"/><path d="m4.8888 6.0444h3.9112v3.58519h-3.9112zm11.5112-3.6444v-1.640004c.0094-.410038-.3152-.75017057-.7252-.759996h-10.14959c-.41004.00982543-.7346.349958-.72521.759996v1.640004l6 1.59999z" fill="#0364b8"/><path d="m4.7998 2.40002h4v3.6h-4z" fill="#0078d4"/><path d="m12.7998 2.40002h-4v3.6l4 3.6h3.6v-3.6z" fill="#28a8ea"/><path d="m8.7998 6h4v3.6h-4z" fill="#0078d4"/><path d="m8.7998 9.59998h4v3.60002h-4z" fill="#0364b8"/><path d="m4.88867 9.62958h3.9112v3.25922h-3.9112z" fill="#14447d"/><path d="m12.7998 9.59998h3.6v3.60002h-3.6z" fill="#0078d4"/><path d="m17.0168 8.71317-.0076.004-5.96 3.35203c-.026.016-.0524.0312-.08.0448-.1012.0482-.2112.0754-.3232.08l-.3256-.1904c-.0275-.0139-.0542-.0292-.08-.046l-6.04-3.44724h-.0028l-.1976-.1104v6.78564c.00308.4527.37247.8172.8252.8144h11.5624c.0068 0 .0128-.0032.02-.0032.0956-.0062.1899-.0258.28-.0584.0389-.0165.0765-.0361.1124-.0584.0268-.0152.0728-.0484.0728-.0484.2049-.1517.3262-.3911.3272-.646v-6.78564c-.0002.12979-.0702.24946-.1832.31321z" fill="url(#a)"/><path d="m16.8801 8.37319v.416l-6.232 4.29081-6.452-4.56681c0-.00221-.0018-.004-.00401-.004l-.59199-.356v-.30001l.244-.004.51599.29601.012.004.044.028s6.06401 3.46001 6.08001 3.46801l.232.136c.02-.008.04-.016.064-.024.012-.008 6.02-3.38802 6.02-3.38802z" fill="#0a2767" opacity=".5"/><path d="m17.0168 8.71317-.0076.00439-5.96 3.35204c-.026.016-.0524.0312-.08.0448-.2315.113-.5022.113-.7336 0-.0274-.0136-.0541-.0286-.08-.0448l-5.96-3.35204-.0072-.00439c-.11507-.06239-.18721-.18232-.1884-.31321v6.78564c.00286.4526.37213.8172.82476.8144h.00004 11.5504c.4526.0028.8219-.3618.8248-.8144v-6.78564c-.0002.12979-.0702.24946-.1832.31321z" fill="#1490df"/><path d="m11.1359 12.02-.0892.05c-.0258.0164-.0525.0315-.08.0452-.0982.0482-.2051.0765-.3144.0832l2.2676 2.6816 3.9556.9532c.1084-.0819.1946-.1896.2508-.3132z" fill="#000" opacity=".1"/><path d="m11.5399 11.7928-.4932.2772c-.0258.0164-.0525.0315-.08.0452-.0982.0482-.2051.0765-.3144.0832l1.0624 2.9292 5.162.7044c.2034-.1527.3231-.3921.3232-.6464v-.0876z" fill="#000" opacity=".05"/><path d="m4.836 16h11.538c.1775.0009.3507-.0552.494-.16l-6.548-3.8356c-.0275-.0138-.0542-.0292-.08-.046l-6.04001-3.44724h-.0028l-.19719-.1112v6.76244c-.00045.4621.37384.8371.836.8376z" fill="#28a8ea"/><g fill="#000"><path d="m9.6 3.93321v8.53199c-.00072.2991-.18261.568-.46.68-.08593.0369-.17848.056-.27201.056h-4.86799v-9.60119h.8v-.4h4.068c.4041.00153.73112.3291.732.7332z" opacity=".1"/><path d="m9.2 4.33321v8.53199c.00101.0966-.01948.1923-.06.28-.11109.2738-.37652.4534-.672.4548h-4.468v-9.99999h4.468c.11606-.00117.23044.02778.332.084.2452.12354.39991.37464.4.6492z" opacity=".2"/><path d="m9.2 4.33321v7.73199c-.00195.4039-.32809.7313-.73199.7348h-4.46801v-9.19999h4.468c.11606-.00117.23044.02778.332.084.2452.12354.39991.37464.4.6492z" opacity=".2"/><path d="m8.8 4.33317v7.73203c-.00044.4045-.32747.7328-.732.7348h-4.068v-9.20002h4.06799c.4045.00021.73222.3283.732.7328 0 .00013.00001.00026.00001.00039z" opacity=".2"/></g><path d="m.733197 3.59998h7.333593c.40494 0 .7332.32826.7332.73319v7.33363c0 .4049-.32826.7332-.7332.7332h-7.333593c-.404937 0-.733197-.3283-.733197-.7332v-7.33363c0-.40493.328269-.73319.733197-.73319z" fill="url(#b)"/><path d="m2.29171 6.67519c.18071-.38501.47239-.70721.8376-.9252.40445-.23155.86495-.34699 1.33081-.3336.43176-.00937.8578.10009 1.23159.3164.35145.20958.6345.51667.8148.88399.19636.40476.29422.85021.2856 1.3.00952.47007-.09117.93584-.294 1.36-.18459.38046-.47662.69849-.84.91482-.3882.2229-.83006.3352-1.27759.3248-.44099.0106-.87643-.1001-1.2588-.32-.35449-.20988-.64109-.51731-.8256-.88563-.19753-.3989-.29655-.83934-.2888-1.28439-.00823-.46607.08899-.92797.28439-1.35119zm.8928 2.17199c.09635.2434.25973.4545.4712.60881.21539.15053.4733.2282.73599.22159.27977.01107.55553-.06924.78561-.2288.20878-.15382.36788-.36548.45759-.6088.10029-.27173.14979-.55958.146-.8492.0031-.29238-.04342-.58317-.1376-.85999-.08318-.24993-.23714-.47032-.4432-.6344-.22431-.16711-.49933-.25186-.7788-.24-.26838-.00695-.53207.07132-.75319.2236-.21504.15495-.38153.36792-.48.61399-.21844.56406-.21958 1.18915-.00321 1.754z" fill="#fff"/><path d="m12.7998 2.40002h3.6v3.6h-3.6z" fill="#50d9ff"/></g></svg>