<svg width="16" height="16" viewBox="0 0 16 16" fill="none" xmlns="http://www.w3.org/2000/svg">
<path fill-rule="evenodd" clip-rule="evenodd" d="M8 16C12.4183 16 16 12.4183 16 8C16 3.58172 12.4183 0 8 0C3.58172 0 0 3.58172 0 8C0 12.4183 3.58172 16 8 16ZM11.4624 6.128H10.096C10.1328 5.9136 10.2656 5.7936 10.5344 5.6576L10.7856 5.5296C11.2352 5.2992 11.4752 5.0384 11.4752 4.6128C11.4752 4.3456 11.3712 4.1344 11.1648 3.9824C10.9584 3.8304 10.7152 3.7552 10.4304 3.7552C10.2101 3.75261 9.99378 3.81433 9.808 3.9328C9.6208 4.048 9.4816 4.1968 9.3952 4.3824L9.7904 4.7792C9.944 4.4688 10.1664 4.3168 10.4592 4.3168C10.7072 4.3168 10.8592 4.4448 10.8592 4.6224C10.8592 4.7712 10.7856 4.8944 10.5008 5.0384L10.3392 5.1168C9.9888 5.2944 9.7456 5.4976 9.6048 5.728C9.464 5.9584 9.3952 6.24799 9.3952 6.59839V6.69439H11.4624V6.128ZM11.28 7.34719H9.0176L7.8864 9.30559H10.1488L11.28 11.2656L12.4112 9.30559L11.28 7.34719ZM5.4688 8C5.4688 9.44 6.6416 10.6128 8.0816 10.6128C8.70671 10.6127 9.31094 10.3878 9.784 9.9792L10.7728 11.6944C9.99201 12.2658 9.04915 12.573 8.0816 12.5712C5.5568 12.5712 3.5104 10.5248 3.5104 8C3.5104 5.4752 5.5568 3.4288 8.0816 3.4288C8.3819 3.42876 8.68147 3.45823 8.976 3.5168L8.0816 5.3872C6.6416 5.3872 5.4688 6.56 5.4688 8Z" fill="#FF492C"/>
</svg>
