<svg fill="none" height="520" viewBox="0 0 874 520" width="874" xmlns="http://www.w3.org/2000/svg" xmlns:xlink="http://www.w3.org/1999/xlink"><mask id="a" fill="#fff"><path d="m532.788 313.269c-17.863 5.156-37.559 5.241-55.977 4.46-21.422-.909-44.108-3.625-63.888-12.445-16.277-7.254-29.334-20.344-22.501-39.251 4.818-13.335 15.497-25.247 27.841-31.961 13.878-7.554 29.127-6.326 43.013.5 15.59 7.666 28.558 20.136 40.313 32.716 6.162 6.598 12.042 13.448 17.844 20.364 2.677 3.182 20.83 21.37 13.355 25.617zm296.932 6.501c-27.473-6.412-59.935-4.115-87.477-8.533-43.385-6.963-108.006-57.707-143.036-109.286-24.34-35.84-35.956-72.344-54.563-116.8253-12.987-31.0479-41.304-129.2496-80.904-83.28445-16.307 18.92975-34.562 81.24545-47.897 80.36715-9.877 2.3036-11.488-17.0071-14.614-25.26-5.674-14.9858-8.684-32.323-16.287-46.4544-6.077-11.294659-14.056-24.8243-26.276-30.3139-21.772-11.23-48.021 22.61696-61.047 62.7533-5.57 21.5219-43.013 63.2406-59.319 73.3306-74.192 45.926-223.1 94.312-238.2870766 255.427-.0619723.668-.0000001 2.7 2.5214966.87 17.75888-12.9 219.19158-158.437 89.91778 122.882-79.1966 172.352 303.1798 282.108 322.8358 282.555 2.65.058 2.457-1.15 2.546-1.947 30.513-275.083 331.954-246.125 402.153-312.006 69.567-65.28 70.985-128.47 9.733-144.275z" fill="#fff"/></mask><path d="m532.788 313.269c-17.863 5.156-37.559 5.241-55.977 4.46-21.422-.909-44.108-3.625-63.888-12.445-16.277-7.254-29.334-20.344-22.501-39.251 4.818-13.335 15.497-25.247 27.841-31.961 13.878-7.554 29.127-6.326 43.013.5 15.59 7.666 28.558 20.136 40.313 32.716 6.162 6.598 12.042 13.448 17.844 20.364 2.677 3.182 20.83 21.37 13.355 25.617zm296.932 6.501c-27.473-6.412-59.935-4.115-87.477-8.533-43.385-6.963-108.006-57.707-143.036-109.286-24.34-35.84-35.956-72.344-54.563-116.8253-12.987-31.0479-41.304-129.2496-80.904-83.28445-16.307 18.92975-34.562 81.24545-47.897 80.36715-9.877 2.3036-11.488-17.0071-14.614-25.26-5.674-14.9858-8.684-32.323-16.287-46.4544-6.077-11.294659-14.056-24.8243-26.276-30.3139-21.772-11.23-48.021 22.61696-61.047 62.7533-5.57 21.5219-43.013 63.2406-59.319 73.3306-74.192 45.926-223.1 94.312-238.2870766 255.427-.0619723.668-.0000001 2.7 2.5214966.87 17.75888-12.9 219.19158-158.437 89.91778 122.882-79.1966 172.352 303.1798 282.108 322.8358 282.555 2.65.058 2.457-1.15 2.546-1.947 30.513-275.083 331.954-246.125 402.153-312.006 69.567-65.28 70.985-128.47 9.733-144.275z" fill="#fcfcfd"/><path d="m476.811 317.729-.042 1zm-63.888-12.445.407-.913zm-22.501-39.251.941.34zm27.841-31.961.478.878zm43.013.5.441-.897zm40.313 32.716.73-.682zm17.844 20.364-.766.644-.001-.001zm222.81 23.585-.158.988h-.001zm-143.036-109.286-.827.562zm-54.563-116.8253-.923.386v-.0001zm-80.904-83.28445-.758-.65265v-.00006zm-47.897 80.36715-.227-.9739.144-.0338.148.0098zm-14.614-25.26-.935.3542zm-16.287-46.4544.881-.4739zm-26.276-30.3139-.41.9121-.025-.011-.024-.0124zm-61.047 62.7533-.968-.2505.007-.0294.009-.0288zm-59.319 73.3306-.527-.85h.001zm-238.2870766 255.427-.9957304-.092.000144-.002zm2.5214966.87.58771.809h-.0003zm89.91778 122.882-.9086-.418zm322.8358 282.555-.022 1zm2.546-1.947.994.111v.001zm402.153-312.006-.685-.729h.001zm-286.922-149.815c-18.03 5.204-37.865 5.28-56.296 4.499l.085-1.999c18.404.781 37.96.686 55.656-4.421zm-56.296 4.499c-21.459-.911-44.297-3.633-64.254-12.532l.815-1.826c19.605 8.741 42.138 11.452 63.524 12.359zm-64.253-12.532c-8.232-3.668-15.749-8.853-20.337-15.607-4.621-6.803-6.224-15.137-2.697-24.897l1.881.68c-3.306 9.147-1.797 16.811 2.471 23.093 4.301 6.332 11.451 11.319 19.496 14.905zm-23.034-40.504c4.906-13.579 15.758-25.676 28.303-32.499l.956 1.756c-12.143 6.605-22.649 18.333-27.378 31.423zm28.303-32.499c14.226-7.744 29.826-6.454 43.932.481l-.882 1.795c-13.666-6.719-28.564-7.884-42.094-.52zm43.932.481c15.764 7.751 28.836 20.337 40.602 32.931l-1.461 1.365c-11.743-12.568-24.607-24.921-40.023-32.501zm40.602 32.931c6.181 6.617 12.074 13.483 17.88 20.404l-1.533 1.285c-5.797-6.911-11.664-13.746-17.808-20.324zm17.879 20.403c1.257 1.494 6.569 6.96 10.531 12.468 1.983 2.758 3.719 5.642 4.461 8.163.373 1.264.522 2.525.253 3.668-.278 1.187-.99 2.165-2.161 2.831l-.988-1.739c.697-.396 1.054-.915 1.202-1.549.159-.677.096-1.558-.224-2.646-.643-2.183-2.211-4.841-4.166-7.56-3.916-5.443-9.019-10.661-10.439-12.349zm309.295 33.734c-13.64-3.183-28.542-4.209-43.537-4.989-14.963-.778-30.033-1.31-43.871-3.529l.316-1.975c13.704 2.198 28.636 2.726 43.658 3.507 14.99.779 30.055 1.81 43.888 5.039zm-87.409-8.518c-21.936-3.521-49.097-18.066-75.102-38.108-26.03-20.059-51.02-45.715-68.602-71.604l1.654-1.124c17.448 25.69 42.283 51.196 68.168 71.144 25.909 19.966 52.751 34.275 74.199 37.717zm-143.704-109.712c-24.415-35.951-36.092-72.617-54.659-117.0013l1.845-.7719c18.648 44.5782 30.204 80.9192 54.468 116.6492zm-54.659-117.0014c-6.551-15.6619-16.802-47.7872-30.406-70.3924-6.811-11.31787-14.322-19.98981-22.412-23.08856-4.001-1.53272-8.159-1.70807-12.511-.14044-4.376 1.57629-9.015 4.93988-13.895 10.60376l-1.515-1.30542c5.021-5.82739 9.929-9.44995 14.732-11.17993 4.827-1.73871 9.48-1.54061 13.905.15435 8.763 3.35657 16.568 12.55707 23.41 23.92504 13.701 22.7664 24.102 55.2659 30.537 70.6519zm-79.224-83.0177c-3.987 4.62823-8.138 11.9708-12.35 20.4587-4.205 8.4748-8.418 17.9807-12.563 26.9208-4.132 8.9135-8.199 17.27-12.082 23.3484-1.939 3.0367-3.865 5.5564-5.766 7.299-1.882 1.7262-3.887 2.8219-5.959 2.6854l.131-1.9957c1.262.0831 2.745-.5765 4.477-2.1639 1.714-1.5712 3.53-3.9237 5.432-6.9014 3.8-5.9503 7.816-14.1912 11.953-23.113 4.124-8.8953 8.365-18.4627 12.586-26.9686 4.214-8.4929 8.46-16.03839 12.626-20.875zm-48.427 80.6883c-2.855.6659-5.153-.2592-6.951-2.087-1.743-1.772-3.027-4.3932-4.055-7.216-1.033-2.8404-1.848-6.004-2.591-8.9322-.751-2.9597-1.423-5.6473-2.179-7.6444l1.87-.7083c.807 2.1293 1.509 4.9504 2.247 7.8607.747 2.9415 1.539 6.0091 2.533 8.74 1 2.7485 2.166 5.0388 3.601 6.4977 1.38 1.4029 2.987 2.0277 5.071 1.5418zm-15.776-25.8796c-2.853-7.5355-5.043-15.6801-7.442-23.6123-2.409-7.9637-5.039-15.7501-8.791-22.7226l1.762-.9476c3.851 7.1589 6.528 15.1069 8.943 23.0912 2.425 8.0157 4.577 16.0326 7.398 23.483zm-16.233-46.3348c-3.035-5.64071-6.515-11.782863-10.742-17.19198-4.227-5.41002-9.156-10.03002-15.063-12.68362l.819-1.8243c6.314 2.836 11.483 7.7257 15.82 13.27659 4.338 5.55176 7.885 11.82172 10.928 17.47561zm-25.854-29.899c-10.235-5.2792-21.755-.1075-32.602 11.89604-10.791 11.94043-20.551 30.29806-27.035 50.27726l-1.903-.6174c6.542-20.1572 16.42-38.79108 27.454-51.0008 10.976-12.1465 23.466-18.2833 35.003-12.3326zm-59.62 62.1151c-1.433 5.535-4.885 12.2841-9.452 19.4077-4.577 7.1405-10.317 14.7235-16.384 21.9378-12.11 14.3983-25.631 27.4526-33.925 32.5856l-1.052-1.701c8.012-4.958 21.365-17.8078 33.446-32.1719 6.028-7.1669 11.712-14.6797 16.232-21.7298 4.53-7.067 7.846-13.6035 9.199-18.8294zm-59.761 73.9301c-18.576 11.5-41.861 23.171-66.442 36.656-24.614 13.503-50.602 28.86-74.7372 47.798-48.2491 37.859-89.0774 90.005-96.63829 170.217l-1.991173-.188c7.626143-80.904 48.845163-133.508 97.394863-171.602 24.2638-19.039 50.3628-34.458 75.0098-47.979 24.681-13.539 47.832-25.138 66.351-36.602zm-237.81735 254.669c-.010774.116-.014697.286.00751.442.02529.177.06566.207.03567.173-.026-.029-.070875-.063-.126368-.081-.051377-.017-.065046-.005-.012562-.014.13068-.02.45489-.131 1.03411-.551l1.17482 1.618c-.68153.495-1.31063.817-1.8988.909-.656713.103-1.2525847-.088-1.665122-.551-.352916-.397-.474018-.886-.521716-1.221-.050782-.356-.039202-.691-.018998-.908zm.93806-.031c4.44776-3.231 20.40229-14.771 39.81239-25.862 19.3677-11.065 42.3421-21.782 60.7939-23.217 9.246-.719 17.51.881 23.592 6.103 6.09 5.228 9.794 13.916 10.292 26.933.992 25.974-10.756 69.818-43.0761 140.151l-1.8173-.835c32.3164-70.326 43.8674-113.785 42.8944-139.24-.485-12.698-4.08-20.756-9.595-25.492-5.524-4.742-13.172-6.323-22.135-5.626-17.9669 1.397-40.6008 11.901-59.9567 22.96-19.3134 11.035-35.1975 22.524-39.62917 25.743zm91.41419 124.108c-19.6174 42.693-10.6846 81.487 14.1691 115.794 24.891 34.358 65.728 64.164 109.757 88.657 44.01 24.483 91.118 43.609 128.458 56.642 18.668 6.516 34.887 11.507 47.047 14.881 6.081 1.688 11.141 2.969 14.981 3.835 3.879.875 6.426 1.304 7.538 1.329l-.045 2c-1.345-.031-4.089-.511-7.932-1.378-3.882-.875-8.975-2.165-15.077-3.859-12.204-3.386-28.464-8.39-47.171-14.92-37.409-13.057-84.63-32.226-128.772-56.782-44.123-24.546-85.259-54.523-110.404-89.232-25.1819-34.76-34.3473-74.318-14.3664-117.802zm321.9491 281.138c.597.013.958-.048 1.168-.117.193-.064.236-.127.241-.133.014-.019.042-.066.065-.206.011-.07.018-.15.026-.253.007-.09.016-.227.03-.349l1.988.223c-.009.076-.014.152-.023.28-.009.115-.022.26-.046.414-.05.31-.156.71-.436 1.086-.592.794-1.637 1.086-3.057 1.055zm1.53-1.057c7.65-68.967 32.293-118.936 66.091-156.1 33.786-37.149 76.67-61.449 120.724-79.171 44.04-17.717 89.333-28.89 127.901-39.727 19.3-5.422 36.908-10.758 51.874-16.787 14.974-6.032 27.23-12.729 35.872-20.84l1.369 1.458c-8.907 8.359-21.428 15.168-36.494 21.237-15.074 6.073-32.772 11.433-52.08 16.858-38.65 10.859-83.787 21.992-127.696 39.656-43.895 17.659-86.48 41.815-119.99 78.662-33.497 36.833-57.977 86.4-65.583 154.975zm402.463-312.625c34.704-32.566 52.236-64.457 53.609-90.015.686-12.752-2.647-23.921-9.867-32.873-7.228-8.96-18.416-15.779-33.575-19.69l.5-1.937c15.467 3.991 27.071 10.999 34.631 20.372 7.568 9.382 11.017 21.053 10.308 34.235-1.414 26.308-19.375 58.652-54.238 91.366z" fill="#eef0f3" mask="url(#a)"/></svg>