<svg fill="none" height="368" viewBox="0 0 1040 368" width="1040" xmlns="http://www.w3.org/2000/svg" xmlns:xlink="http://www.w3.org/1999/xlink"><g clip-rule="evenodd" fill="#3a444f" fill-rule="evenodd"><path d="m32-44.063c.8626-.222 1.5-1.0051 1.5-1.937 0-1.1046-.8954-2-2-2s-2 .8954-2 2c0 .9319.6374 1.715 1.5 1.937v64.3559l-5.3535 5.3535-.1465.1465v.2071 35 .2071l.1465.1465 13.3535 13.3535v44.2929h1v-44.5-.2071l-.1465-.1465-13.3535-13.3535v-34.5858l5.3535-5.3535.1465-.1465v-.2071zm82 7.7232-7.407-10.3696.814-.5812 7.5 10.5.093.1304v.1602 16.5.2534l-.204.1498-7.296 5.3502v20.53949l7.354 7.35351.146.1465v.2071 43h-1v-42.7929l-7.354-7.35355-.146-.14644v-.20711-21-.2534l.204-.1498 7.296-5.3502zm-234.5 180.8398v6.563c.863.222 1.5 1.005 1.5 1.937s-.637 1.715-1.5 1.937v.063h-.5-.5v-.063c-.863-.222-1.5-1.005-1.5-1.937s.637-1.715 1.5-1.937v-6.356l-2.854-2.853-.146-.147v-.207-2.563c-.863-.222-1.5-1.005-1.5-1.937s.637-1.715 1.5-1.937v-52.563-.2071l.146-.1464 8.854-8.8536v-30.0858l-5.854-5.8535-.146-.1465v-.2071-20.063c-.863-.222-1.5-1.0051-1.5-1.937s.637-1.715 1.5-1.937v-60.063h1v60.063c.863.222 1.5 1.0051 1.5 1.937s-.637 1.715-1.5 1.937v19.8559l5.854 5.8535.146.1465v.2071 30.5.2071l-.146.1465-8.854 8.8535v52.3559c.863.222 1.5 1.005 1.5 1.937s-.637 1.715-1.5 1.937v2.356l2.854 2.853.146.147zm99-107.2071v-59.3559c-.8626-.222-1.5-1.0051-1.5-1.937s.6374-1.715 1.5-1.937v-21.063h1v21.063c.8626.222 1.5 1.0051 1.5 1.937s-.6374 1.715-1.5 1.937v59.563.2071l-.1464.1465-5.8536 5.8535v33.2929h-1v-33.5-.2071l.1464-.1465zm232-24v-60.2929h1v60.5.2071l-.146.1465-5.854 5.8535v33.2929h-1v-33.5-.2071l.146-.1465zm-212-60.2929v45 .20711l.14645.14644 6.85355 6.85356v95.79289h1v-96-.20711l-.14645-.14644-6.85355-6.85356v-44.79289zm60 92v-92h1v92zm205-92v92 91.063c-.863.222-1.5 1.005-1.5 1.937s.637 1.715 1.5 1.937v7.856l-6.854 6.853-.146.147v.207 30.5h1v-30.293l6.854-6.853.146-.147v-.207-8.063c.863-.222 1.5-1.005 1.5-1.937s-.637-1.715-1.5-1.937v-91.063-92zm-316.5 38v-38h1v37.79289l5.8536 5.85356.1464.14644v.20711 13.063c.8626.222 1.5 1.0051 1.5 1.937s-.6374 1.715-1.5 1.937v13.063.2071l-.1464.1465-8.3536 8.3535v109.7929h-1v-110-.2071l.1464-.1465 8.3536-8.3535v-12.8559c-.8626-.222-1.5-1.0051-1.5-1.937s.6374-1.715 1.5-1.937v-12.85589l-5.8536-5.85356-.1464-.14644zm-21.5-38v15.063c-.8626.222-1.5 1.0051-1.5 1.937s.6374 1.715 1.5 1.937v114.3464l-7.842 7.3518-.158.1482v.2166 48 .217l.158.148 7.842 7.352v23.783h1v-24-.217l-.158-.148-7.842-7.352v-47.5664l7.842-7.3518.158-.1482v-.2166-114.563c.8626-.222 1.5-1.0051 1.5-1.937s-.6374-1.715-1.5-1.937v-15.063zm-24 57.7929v-57.7929h1v58 .2071l-.1464.1465-5.3536 5.3535v73.0858l5.3536 5.3536.1464.1464v.2071 59.5h-1v-59.2929l-5.354-5.3536-.146-.1464v-.2071-73.5-.2071l.146-.1465zm177-57.7929v18.5.2071l.1465.1465 7.8535 7.8535v29.35591c-.8626.22202-1.5 1.00509-1.5 1.93699s.6374 1.715 1.5 1.937v12.3559l-7.8535 7.8535-.1465.1465v.2071 58.5.2071l.1465.1464 7.8535 7.8535v52.293h1v-52.5-.2071l-.1465-.1464-7.8535-7.8536v-58.0858l7.8535-7.8535.1465-.1465v-.2071-12.563c.8626-.222 1.5-1.0051 1.5-1.937s-.6374-1.71497-1.5-1.93699v-29.56301-.2071l-.1465-.1465-7.8535-7.8535v-18.2929zm205 0v53.5.20711l.146.14644 7.354 7.35355v8.8559c-.863.222-1.5 1.0051-1.5 1.937s.637 1.715 1.5 1.937v30.063 52.5 25.563c-.863.222-1.5 1.005-1.5 1.937s.637 1.715 1.5 1.937v44.563h1v-44.563c.863-.222 1.5-1.005 1.5-1.937s-.637-1.715-1.5-1.937v-25.563-52.5-30.063c.863-.222 1.5-1.0051 1.5-1.937s-.637-1.715-1.5-1.937v-9.063-.2071l-.146-.1465-7.354-7.35351v-53.29289zm-149.944 12.2693 6.5-12.5.888.4614-6.444 12.3915v8.0602l6.371 7.0447.129.1428v.1926 13.6875 41.75 9.563c.863.222 1.5 1.0051 1.5 1.937s-.637 1.715-1.5 1.937v20.063.2071l-.146.1465-6.354 6.3535v28.2929h-1v-28.5-.2071l.146-.1465 6.354-6.3535v-19.8559c-.863-.222-1.5-1.0051-1.5-1.937s.637-1.715 1.5-1.937v-9.563-41.75-13.4949l-6.371-7.0447-.129-.1428v-.1926-8.375-.1222zm25.944-12.2693v54.81348l-6.378 7.35902-.122.141v.1865 62h1v-61.8135l6.378-7.35903.122-.14095v-.18652-55zm22 0v16.063c-.863.222-1.5 1.0051-1.5 1.937s.637 1.715 1.5 1.937v10.8559l-5.354 5.3535-.146.1465v.2071 53.5.2071l.146.1465 8.354 8.3535v64.2929h1v-64.5-.2071l-.146-.1465-8.354-8.3535v-53.0858l5.354-5.3535.146-.1465v-.2071-11.063c.863-.222 1.5-1.0051 1.5-1.937s-.637-1.715-1.5-1.937v-16.063zm49 57.937v6.563.2071l.146.1465 5.854 5.8535v39.5858l-5.854 5.8535-.146.1465v.2071 58.5h1v-58.2929l5.854-5.8535.146-.1465v-.2071-40-.2071l-.146-.1465-5.854-5.8535v-6.3559c.863-.222 1.5-1.00508 1.5-1.937s-.637-1.71497-1.5-1.93699v-54.06301h-1v54.06301c-.863.22202-1.5 1.00507-1.5 1.93699s.637 1.715 1.5 1.937zm-23.5 65.063c0 1.1046-.895 2-2 2s-2-.8954-2-2 .895-2 2-2 2 .8954 2 2z"/><path d="m468-44.063c.863-.222 1.5-1.0051 1.5-1.937 0-1.1046-.895-2-2-2s-2 .8954-2 2c0 .9319.637 1.715 1.5 1.937v64.3559l-5.354 5.3535-.146.1465v.2071 35 .2071l.146.1465 13.354 13.3535v44.2929h1v-44.5-.2071l-.146-.1465-13.354-13.3535v-34.5858l5.354-5.3535.146-.1465v-.2071zm82 7.7232-7.407-10.3696.814-.5812 7.5 10.5.093.1304v.1602 16.5.2534l-.204.1498-7.296 5.3502v20.53949l7.354 7.35351.146.1465v.2071 43h-1v-42.7929l-7.354-7.35355-.146-.14644v-.20711-21-.2534l.204-.1498 7.296-5.3502zm-234.5 180.8398v6.563c.863.222 1.5 1.005 1.5 1.937s-.637 1.715-1.5 1.937v.063h-.5-.5v-.063c-.863-.222-1.5-1.005-1.5-1.937s.637-1.715 1.5-1.937v-6.356l-2.854-2.853-.146-.147v-.207-2.563c-.863-.222-1.5-1.005-1.5-1.937s.637-1.715 1.5-1.937v-52.563-.2071l.146-.1464 8.854-8.8536v-30.0858l-5.854-5.8535-.146-.1465v-.2071-20.063c-.863-.222-1.5-1.0051-1.5-1.937s.637-1.715 1.5-1.937v-60.063h1v60.063c.863.222 1.5 1.0051 1.5 1.937s-.637 1.715-1.5 1.937v19.8559l5.854 5.8535.146.1465v.2071 30.5.2071l-.146.1465-8.854 8.8535v52.3559c.863.222 1.5 1.005 1.5 1.937s-.637 1.715-1.5 1.937v2.356l2.854 2.853.146.147zm99-107.2071v-59.3559c-.863-.222-1.5-1.0051-1.5-1.937s.637-1.715 1.5-1.937v-21.063h1v21.063c.863.222 1.5 1.0051 1.5 1.937s-.637 1.715-1.5 1.937v59.563.2071l-.146.1465-5.854 5.8535v33.2929h-1v-33.5-.2071l.146-.1465zm232-24v-60.2929h1v60.5.2071l-.146.1465-5.854 5.8535v33.2929h-1v-33.5-.2071l.146-.1465zm-212-60.2929v45 .20711l.146.14644 6.854 6.85356v95.79289h1v-96-.20711l-.146-.14644-6.854-6.85356v-44.79289zm60 92v-92h1v92zm205-92v92 91.063c-.863.222-1.5 1.005-1.5 1.937s.637 1.715 1.5 1.937v7.856l-6.854 6.853-.146.147v.207 30.5h1v-30.293l6.854-6.853.146-.147v-.207-8.063c.863-.222 1.5-1.005 1.5-1.937s-.637-1.715-1.5-1.937v-91.063-92zm-316.5 38v-38h1v37.79289l5.854 5.85356.146.14644v.20711 13.063c.863.222 1.5 1.0051 1.5 1.937s-.637 1.715-1.5 1.937v13.063.2071l-.146.1465-8.354 8.3535v109.7929h-1v-110-.2071l.146-.1465 8.354-8.3535v-12.8559c-.863-.222-1.5-1.0051-1.5-1.937s.637-1.715 1.5-1.937v-12.85589l-5.854-5.85356-.146-.14644zm-21.5-38v15.063c-.863.222-1.5 1.0051-1.5 1.937s.637 1.715 1.5 1.937v114.3464l-7.842 7.3518-.158.1482v.2166 48 .217l.158.148 7.842 7.352v23.783h1v-24-.217l-.158-.148-7.842-7.352v-47.5664l7.842-7.3518.158-.1482v-.2166-114.563c.863-.222 1.5-1.0051 1.5-1.937s-.637-1.715-1.5-1.937v-15.063zm-24 57.7929v-57.7929h1v58 .2071l-.146.1465-5.354 5.3535v73.0858l5.354 5.3536.146.1464v.2071 59.5h-1v-59.2929l-5.354-5.3536-.146-.1464v-.2071-73.5-.2071l.146-.1465zm177-57.7929v18.5.2071l.146.1465 7.854 7.8535v29.35591c-.863.22202-1.5 1.00509-1.5 1.93699s.637 1.715 1.5 1.937v12.3559l-7.854 7.8535-.146.1465v.2071 58.5.2071l.146.1464 7.854 7.8535v52.293h1v-52.5-.2071l-.146-.1464-7.854-7.8536v-58.0858l7.854-7.8535.146-.1465v-.2071-12.563c.863-.222 1.5-1.0051 1.5-1.937s-.637-1.71497-1.5-1.93699v-29.56301-.2071l-.146-.1465-7.854-7.8535v-18.2929zm205 0v53.5.20711l.146.14644 7.354 7.35355v8.8559c-.863.222-1.5 1.0051-1.5 1.937s.637 1.715 1.5 1.937v30.063 52.5 25.563c-.863.222-1.5 1.005-1.5 1.937s.637 1.715 1.5 1.937v44.563h1v-44.563c.863-.222 1.5-1.005 1.5-1.937s-.637-1.715-1.5-1.937v-25.563-52.5-30.063c.863-.222 1.5-1.0051 1.5-1.937s-.637-1.715-1.5-1.937v-9.063-.2071l-.146-.1465-7.354-7.35351v-53.29289zm-149.944 12.2693 6.5-12.5.888.4614-6.444 12.3915v8.0602l6.371 7.0447.129.1428v.1926 13.6875 41.75 9.563c.863.222 1.5 1.0051 1.5 1.937s-.637 1.715-1.5 1.937v20.063.2071l-.146.1465-6.354 6.3535v28.2929h-1v-28.5-.2071l.146-.1465 6.354-6.3535v-19.8559c-.863-.222-1.5-1.0051-1.5-1.937s.637-1.715 1.5-1.937v-9.563-41.75-13.4949l-6.371-7.0447-.129-.1428v-.1926-8.375-.1222zm25.944-12.2693v54.81348l-6.378 7.35902-.122.141v.1865 62h1v-61.8135l6.378-7.35903.122-.14095v-.18652-55zm22 0v16.063c-.863.222-1.5 1.0051-1.5 1.937s.637 1.715 1.5 1.937v10.8559l-5.354 5.3535-.146.1465v.2071 53.5.2071l.146.1465 8.354 8.3535v64.2929h1v-64.5-.2071l-.146-.1465-8.354-8.3535v-53.0858l5.354-5.3535.146-.1465v-.2071-11.063c.863-.222 1.5-1.0051 1.5-1.937s-.637-1.715-1.5-1.937v-16.063zm49 57.937v6.563.2071l.146.1465 5.854 5.8535v39.5858l-5.854 5.8535-.146.1465v.2071 58.5h1v-58.2929l5.854-5.8535.146-.1465v-.2071-40-.2071l-.146-.1465-5.854-5.8535v-6.3559c.863-.222 1.5-1.00508 1.5-1.937s-.637-1.71497-1.5-1.93699v-54.06301h-1v54.06301c-.863.22202-1.5 1.00507-1.5 1.93699s.637 1.715 1.5 1.937zm-23.5 65.063c0 1.1046-.895 2-2 2s-2-.8954-2-2 .895-2 2-2 2 .8954 2 2z"/><path d="m904-44.063c.863-.222 1.5-1.0051 1.5-1.937 0-1.1046-.895-2-2-2s-2 .8954-2 2c0 .9319.637 1.715 1.5 1.937v64.3559l-5.354 5.3535-.146.1465v.2071 35 .2071l.146.1465 13.354 13.3535v44.2929h1v-44.5-.2071l-.146-.1465-13.354-13.3535v-34.5858l5.354-5.3535.146-.1465v-.2071zm82 7.7232-7.407-10.3696.814-.5812 7.5 10.5.093.1304v.1602 16.5.2534l-.204.1498-7.296 5.3502v20.53949l7.354 7.35351.146.1465v.2071 43h-1v-42.7929l-7.354-7.35355-.146-.14644v-.20711-21-.2534l.204-.1498 7.296-5.3502zm-234.5 180.8398v6.563c.863.222 1.5 1.005 1.5 1.937s-.637 1.715-1.5 1.937v.063h-.5-.5v-.063c-.863-.222-1.5-1.005-1.5-1.937s.637-1.715 1.5-1.937v-6.356l-2.854-2.853-.146-.147v-.207-2.563c-.863-.222-1.5-1.005-1.5-1.937s.637-1.715 1.5-1.937v-52.563-.2071l.146-.1464 8.854-8.8536v-30.0858l-5.854-5.8535-.146-.1465v-.2071-20.063c-.863-.222-1.5-1.0051-1.5-1.937s.637-1.715 1.5-1.937v-60.063h1v60.063c.863.222 1.5 1.0051 1.5 1.937s-.637 1.715-1.5 1.937v19.8559l5.854 5.8535.146.1465v.2071 30.5.2071l-.146.1465-8.854 8.8535v52.3559c.863.222 1.5 1.005 1.5 1.937s-.637 1.715-1.5 1.937v2.356l2.854 2.853.146.147zm99-107.2071v-59.3559c-.863-.222-1.5-1.0051-1.5-1.937s.637-1.715 1.5-1.937v-21.063h1v21.063c.863.222 1.5 1.0051 1.5 1.937s-.637 1.715-1.5 1.937v59.563.2071l-.146.1465-5.854 5.8535v33.2929h-1v-33.5-.2071l.146-.1465zm232-24v-60.2929h1v60.5.2071l-.15.1465-5.85 5.8535v33.2929h-1v-33.5-.2071l.15-.1465zm-212-60.2929v45 .20711l.146.14644 6.854 6.85356v95.79289h1v-96-.20711l-.146-.14644-6.854-6.85356v-44.79289zm60 92v-92h1v92zm205-92v92 91.063c-.86.222-1.5 1.005-1.5 1.937s.64 1.715 1.5 1.937v7.856l-6.85 6.853-.15.147v.207 30.5h1v-30.293l6.85-6.853.15-.147v-.207-8.063c.86-.222 1.5-1.005 1.5-1.937s-.64-1.715-1.5-1.937v-91.063-92zm-316.5 38v-38h1v37.79289l5.854 5.85356.146.14644v.20711 13.063c.863.222 1.5 1.0051 1.5 1.937s-.637 1.715-1.5 1.937v13.063.2071l-.146.1465-8.354 8.3535v109.7929h-1v-110-.2071l.146-.1465 8.354-8.3535v-12.8559c-.863-.222-1.5-1.0051-1.5-1.937s.637-1.715 1.5-1.937v-12.85589l-5.854-5.85356-.146-.14644zm-21.5-38v15.063c-.863.222-1.5 1.0051-1.5 1.937s.637 1.715 1.5 1.937v114.3464l-7.842 7.3518-.158.1482v.2166 48 .217l.158.148 7.842 7.352v23.783h1v-24-.217l-.158-.148-7.842-7.352v-47.5664l7.842-7.3518.158-.1482v-.2166-114.563c.863-.222 1.5-1.0051 1.5-1.937s-.637-1.715-1.5-1.937v-15.063zm-24 57.7929v-57.7929h1v58 .2071l-.146.1465-5.354 5.3535v73.0858l5.354 5.3536.146.1464v.2071 59.5h-1v-59.2929l-5.354-5.3536-.146-.1464v-.2071-73.5-.2071l.146-.1465zm177-57.7929v18.5.2071l.146.1465 7.854 7.8535v29.35591c-.863.22202-1.5 1.00509-1.5 1.93699s.637 1.715 1.5 1.937v12.3559l-7.854 7.8535-.146.1465v.2071 58.5.2071l.146.1464 7.854 7.8535v52.293h1v-52.5-.2071l-.146-.1464-7.854-7.8536v-58.0858l7.854-7.8535.146-.1465v-.2071-12.563c.863-.222 1.5-1.0051 1.5-1.937s-.637-1.71497-1.5-1.93699v-29.56301-.2071l-.146-.1465-7.854-7.8535v-18.2929zm205 0v53.5.20711l.15.14644 7.35 7.35355v8.8559c-.86.222-1.5 1.0051-1.5 1.937s.64 1.715 1.5 1.937v30.063 52.5 25.563c-.86.222-1.5 1.005-1.5 1.937s.64 1.715 1.5 1.937v44.563h1v-44.563c.86-.222 1.5-1.005 1.5-1.937s-.64-1.715-1.5-1.937v-25.563-52.5-30.063c.86-.222 1.5-1.0051 1.5-1.937s-.64-1.715-1.5-1.937v-9.063-.2071l-.15-.1465-7.35-7.35351v-53.29289zm-149.94 12.2693 6.5-12.5.88.4614-6.44 12.3915v8.0602l6.37 7.0447.13.1428v.1926 13.6875 41.75 9.563c.86.222 1.5 1.0051 1.5 1.937s-.64 1.715-1.5 1.937v20.063.2071l-.15.1465-6.35 6.3535v28.2929h-1v-28.5-.2071l.15-.1465 6.35-6.3535v-19.8559c-.86-.222-1.5-1.0051-1.5-1.937s.64-1.715 1.5-1.937v-9.563-41.75-13.4949l-6.37-7.0447-.13-.1428v-.1926-8.375-.1222zm25.94-12.2693v54.81348l-6.38 7.35902-.12.141v.1865 62h1v-61.8135l6.38-7.35903.12-.14095v-.18652-55zm22 0v16.063c-.86.222-1.5 1.0051-1.5 1.937s.64 1.715 1.5 1.937v10.8559l-5.35 5.3535-.15.1465v.2071 53.5.2071l.15.1465 8.35 8.3535v64.2929h1v-64.5-.2071l-.15-.1465-8.35-8.3535v-53.0858l5.35-5.3535.15-.1465v-.2071-11.063c.86-.222 1.5-1.0051 1.5-1.937s-.64-1.715-1.5-1.937v-16.063zm49 57.937v6.563.2071l.15.1465 5.85 5.8535v39.5858l-5.85 5.8535-.15.1465v.2071 58.5h1v-58.2929l5.85-5.8535.15-.1465v-.2071-40-.2071l-.15-.1465-5.85-5.8535v-6.3559c.86-.222 1.5-1.00508 1.5-1.937s-.64-1.71497-1.5-1.93699v-54.06301h-1v54.06301c-.86.22202-1.5 1.00507-1.5 1.93699s.64 1.715 1.5 1.937zm-23.5 65.063c0 1.1046-.9 2-2 2s-2-.8954-2-2 .9-2 2-2 2 .8954 2 2z"/></g></svg>
