<svg fill="none" height="272" viewBox="0 0 316 272" width="316" xmlns="http://www.w3.org/2000/svg" xmlns:xlink="http://www.w3.org/1999/xlink"><linearGradient id="a"><stop offset="0" stop-opacity="0"/><stop offset="1"/></linearGradient><linearGradient id="b" gradientUnits="userSpaceOnUse" x1="158" x2="158.111" xlink:href="#a" y1="32" y2="271"/><linearGradient id="c" gradientUnits="userSpaceOnUse" x1="158" x2="158.029" xlink:href="#a" y1="141" y2="271"/><linearGradient id="d" gradientUnits="userSpaceOnUse" x1="153.75" x2="153.75" y1="158.056" y2="272"><stop offset="0" stop-color="#c7cdd4"/><stop offset="1" stop-color="#c7cdd4" stop-opacity="0"/></linearGradient><linearGradient id="e" gradientUnits="userSpaceOnUse" x1="171.5" x2="171.5" y1="212.779" y2="271.5"><stop offset="0" stop-color="#dfe3e8"/><stop offset="1" stop-color="#c7cdd4" stop-opacity="0"/></linearGradient><mask id="f" height="271" maskUnits="userSpaceOnUse" width="314" x="1" y="0"><rect fill="url(#b)" height="271" rx="4" width="314" x="1"/></mask><mask id="g" height="130" maskUnits="userSpaceOnUse" width="314" x="1" y="141"><rect fill="url(#c)" height="130" rx="4" width="314" x="1" y="141"/></mask><rect fill="#fff" height="271" rx="3.5" stroke="#dfe3e8" width="315" x=".5" y=".5"/><g mask="url(#f)" opacity=".15" stroke="#c7cdd4"><g stroke-dasharray="2 2"><path d="m1 247.5h305"/><path d="m1 223.5h305"/><path d="m1 199.5h305"/><path d="m1 175.5h305"/><path d="m1 175.5h305"/><path d="m1 151.5h305"/></g><path d="m32.5 271v-271"/><path d="m72.5 271v-271"/><path d="m112.5 271v-271"/><path d="m152.5 271v-271"/><path d="m192.5 271v-271"/><path d="m232.5 271v-271"/><path d="m272.5 271v-271"/></g><g mask="url(#g)" opacity=".15"><path d="m55.5 224c-25.5 0-44.6667 32.333-55 48h315.5v-113.5s-15.5-1-43 0-109.5 12.5-120 16.5c-12.616 4.806-30.5 14-39.5 25-12.273 15-33.9792 24-58 24z" fill="url(#d)" stroke="#a1a7ad"/><path d="m96 248c-32-1.2-53 16.167-59.5 24.5h280v-59.5c-9.5-.167-43.6-.4-64 0-25.5.5-36.5 12-61 11.5-19.6-.4-33.833 8.833-38.5 13.5-5.667 3.833-25 11.2-57 10z" fill="url(#e)" stroke="#a1a7ad"/><path d="m55.5 224c-25.5 0-44.6667 32.333-55 48h314.5v-113.5s-14.5-1-42 0-109.5 12.5-120 16.5c-12.616 4.806-30.5 14-39.5 25-12.273 15-33.9792 24-58 24z" stroke="#24a522"/><path d="m96 248c-32-1.2-53 16.167-59.5 24.5h279v-59.5c-9.5-.167-42.6-.4-63 0-25.5.5-36.5 12-61 11.5-19.6-.4-33.833 8.833-38.5 13.5-5.667 3.833-25 11.2-57 10z" stroke="#d946ef"/><path d="m1 162c11.8333 9.833 42.8 29.5 72 29.5 36.5 0 112 10.5 147 22s92 46.5 95 50.5" stroke="#707880"/></g><path d="m80 136c0 13.255-10.7452 24-24 24s-24-10.745-24-24 10.7452-24 24-24 24 10.745 24 24zm-40.8 0c0 9.278 7.5216 16.8 16.8 16.8s16.8-7.522 16.8-16.8-7.5216-16.8-16.8-16.8-16.8 7.522-16.8 16.8z" fill="#24a522"/><path d="m80 64c0 13.2548-10.7452 24-24 24s-24-10.7452-24-24 10.7452-24 24-24 24 10.7452 24 24zm-40.8 0c0 9.2784 7.5216 16.8 16.8 16.8s16.8-7.5216 16.8-16.8-7.5216-16.8-16.8-16.8-16.8 7.5216-16.8 16.8z" fill="#0f8df4"/><path d="m213 136c0 13.255-10.745 24-24 24s-24-10.745-24-24 10.745-24 24-24 24 10.745 24 24zm-40.8 0c0 9.278 7.522 16.8 16.8 16.8s16.8-7.522 16.8-16.8-7.522-16.8-16.8-16.8-16.8 7.522-16.8 16.8z" fill="#06b6d4"/><path d="m213 64c0 13.2548-10.745 24-24 24s-24-10.7452-24-24 10.745-24 24-24 24 10.7452 24 24zm-40.8 0c0 9.2784 7.522 16.8 16.8 16.8s16.8-7.5216 16.8-16.8-7.522-16.8-16.8-16.8-16.8 7.5216-16.8 16.8z" fill="#707880"/><path d="m80 208c0 13.255-10.7452 24-24 24s-24-10.745-24-24 10.7452-24 24-24 24 10.745 24 24zm-40.8 0c0 9.278 7.5216 16.8 16.8 16.8s16.8-7.522 16.8-16.8-7.5216-16.8-16.8-16.8-16.8 7.522-16.8 16.8z" fill="#d946ef"/><path d="m213 208c0 13.255-10.745 24-24 24s-24-10.745-24-24 10.745-24 24-24 24 10.745 24 24zm-40.8 0c0 9.278 7.522 16.8 16.8 16.8s16.8-7.522 16.8-16.8-7.522-16.8-16.8-16.8-16.8 7.522-16.8 16.8z" fill="#10b981"/><path d="m89.228 149 4.1271-8.162v-.069h-4.7734v-1.224h6.2507v1.265l-4.1133 8.19z" fill="#078605"/><path d="m100.025 139.545v9.455h-1.4314v-8.023h-.0553l-2.2621 1.477v-1.367l2.359-1.542z" fill="#078605"/><path d="m102.964 149.088c-.252 0-.469-.09-.651-.268-.181-.182-.272-.4-.272-.656 0-.252.091-.467.272-.646.182-.181.399-.272.651-.272.253 0 .47.091.651.272.182.179.273.394.273.646 0 .17-.043.325-.13.467-.083.138-.194.249-.332.332-.139.083-.292.125-.462.125z" fill="#078605"/><path d="m108.686 149.129c-.578 0-1.098-.111-1.56-.332-.459-.225-.825-.533-1.099-.923-.274-.391-.42-.838-.438-1.339h1.385c.034.406.214.74.54 1.002.326.261.717.392 1.172.392.364 0 .685-.083.965-.249.283-.17.505-.402.665-.697.163-.296.245-.633.245-1.011 0-.385-.083-.728-.25-1.03-.166-.301-.395-.538-.687-.711-.29-.172-.622-.26-.998-.263-.286 0-.574.049-.863.148-.289.098-.523.228-.702.388l-1.306-.194.531-4.765h5.198v1.224h-4.012l-.3 2.645h.056c.184-.178.429-.328.734-.448.307-.12.637-.18.988-.18.575 0 1.088.137 1.537.411.452.274.808.648 1.066 1.122.262.471.391 1.012.388 1.625.003.612-.135 1.159-.415 1.639-.277.48-.662.858-1.155 1.135-.489.274-1.051.411-1.685.411z" fill="#078605"/><path d="m118.562 147.227v-.498c0-.357.074-.684.222-.979.151-.299.369-.537.655-.716.29-.181.639-.272 1.048-.272.419 0 .77.089 1.053.268.283.178.497.417.642.715.147.299.221.627.221.984v.498c0 .357-.074.685-.221.984-.148.295-.365.534-.651.715-.284.179-.631.268-1.044.268-.415 0-.766-.089-1.052-.268-.286-.181-.503-.42-.651-.715-.148-.299-.222-.627-.222-.984zm1.076-.498v.498c0 .265.063.505.189.72.126.216.346.324.66.324.311 0 .528-.108.651-.324.123-.215.185-.455.185-.72v-.498c0-.265-.06-.505-.18-.72-.117-.216-.336-.324-.656-.324-.307 0-.526.108-.655.324-.13.215-.194.455-.194.72zm-5.831-4.912v-.499c0-.357.074-.685.222-.983.151-.299.369-.537.655-.716.29-.178.639-.267 1.048-.267.419 0 .77.089 1.053.267.283.179.497.417.642.716.144.298.217.626.217.983v.499c0 .357-.074.685-.222.983-.145.296-.36.534-.646.716-.283.178-.631.267-1.044.267-.418 0-.771-.089-1.057-.267-.283-.182-.498-.42-.646-.716-.148-.298-.222-.626-.222-.983zm1.081-.499v.499c0 .264.061.504.184.72.126.215.346.323.66.323.308 0 .524-.108.647-.323.126-.216.189-.456.189-.72v-.499c0-.264-.06-.505-.18-.72s-.339-.323-.656-.323c-.307 0-.526.108-.655.323-.126.215-.189.456-.189.72zm-.642 7.682 6.5-9.455h1.103l-6.5 9.455z" fill="#078605"/><path d="m92.0533 67.4162c.4216.0031.8371.08 1.2464.2308s.7787.397 1.108.7387c.3324.3416.597.8032.794 1.3849.2001.5786.3016 1.2988.3047 2.1605 0 .8279-.0831 1.565-.2493 2.2113-.1662.6432-.4047 1.1864-.7156 1.6296-.3077.4432-.6817.7802-1.1218 1.011s-.9356.3463-1.4865.3463c-.5632 0-1.0633-.1108-1.5003-.3324s-.7925-.5278-1.0664-.9187c-.2739-.3939-.4447-.8464-.5125-1.3572h1.4081c.0923.4062.28.7355.5632.9879.2862.2493.6555.3739 1.1079.3739.6925 0 1.2326-.3016 1.6204-.9048.3878-.6063.5832-1.4527.5863-2.5391h-.0738c-.1601.2647-.3601.4924-.6002.6833-.237.1908-.5032.3385-.7986.4431-.2955.1047-.611.157-.9464.157-.5448 0-1.0403-.1339-1.4865-.4016-.4463-.2678-.8018-.6356-1.0664-1.1034-.2647-.4678-.397-1.0017-.397-1.6019 0-.5971.1354-1.1387.4062-1.625.2739-.4863.6555-.871 1.1449-1.1541.4924-.2862 1.0695-.4263 1.7312-.4201zm.0046 1.2003c-.3601 0-.6848.0892-.9741.2677-.2862.1755-.5124.414-.6786.7156-.1662.2985-.2493.6309-.2493.9971 0 .3663.08.6987.2401.9972.1631.2955.3847.5309.6647.7063.2832.1724.6063.2585.9695.2585.2708 0 .5232-.0523.7571-.1569.2339-.1047.4386-.2493.614-.434.1754-.1877.3124-.4001.4108-.637.0985-.237.1478-.4863.1478-.7479 0-.3478-.0831-.6709-.2493-.9695-.1631-.2985-.3878-.5386-.674-.7201-.2862-.1847-.6125-.277-.9787-.277z" fill="#0578d6"/><path d="m97.1741 77v-1.0341l3.1989-3.3146c.342-.3601.624-.6756.845-.9464.225-.2739.393-.534.503-.7802.111-.2462.167-.5078.167-.7848 0-.3139-.074-.5847-.222-.8125-.148-.2308-.349-.4078-.605-.5309-.255-.1262-.543-.1893-.863-.1893-.3387 0-.6341.0693-.8865.2078-.2523.1385-.4462.3339-.5817.5863-.1354.2523-.2031.5478-.2031.8863h-1.3618c0-.5755.1323-1.0787.397-1.5095.2647-.4309.6278-.7648 1.0895-1.0018.4616-.2401.9864-.3601 1.5746-.3601.594 0 1.117.1185 1.569.3555.456.2339.811.5539 1.067.9602.255.4032.383.8587.383 1.3665 0 .3508-.066.694-.199 1.0294-.129.3355-.355.7094-.678 1.1218-.324.4094-.773.9064-1.348 1.4912l-1.8793 1.9666v.0692h4.2563v1.2234z" fill="#0578d6"/><path d="m110.082 75.2273v-.4986c0-.357.074-.6832.221-.9787.151-.2985.37-.5371.656-.7156.289-.1815.639-.2723 1.048-.2723.418 0 .769.0892 1.052.2677.284.1785.497.4171.642.7156.148.2985.222.6263.222.9833v.4986c0 .357-.074.6848-.222.9833-.148.2954-.365.534-.651.7155-.283.1785-.631.2678-1.043.2678-.416 0-.767-.0893-1.053-.2678-.286-.1815-.503-.4201-.651-.7155-.147-.2985-.221-.6263-.221-.9833zm1.075-.4986v.4986c0 .2647.063.5047.19.7201.126.2155.346.3232.66.3232.311 0 .528-.1077.651-.3232.123-.2154.184-.4554.184-.7201v-.4986c0-.2647-.06-.5047-.18-.7202-.117-.2154-.335-.3231-.655-.3231-.308 0-.526.1077-.656.3231-.129.2155-.194.4555-.194.7202zm-5.83-4.9119v-.4986c0-.357.074-.6848.221-.9833.151-.2986.37-.5371.656-.7156.289-.1785.639-.2677 1.048-.2677.418 0 .769.0892 1.052.2677.284.1785.497.417.642.7156.145.2985.217.6263.217.9833v.4986c0 .357-.074.6847-.222.9833-.144.2954-.36.5339-.646.7155-.283.1785-.631.2678-1.043.2678-.419 0-.771-.0893-1.057-.2678-.283-.1816-.499-.4201-.647-.7155-.147-.2986-.221-.6263-.221-.9833zm1.08-.4986v.4986c0 .2646.062.5047.185.7201.126.2155.346.3232.66.3232.308 0 .523-.1077.646-.3232.126-.2154.189-.4555.189-.7201v-.4986c0-.2647-.06-.5048-.18-.7202s-.338-.3231-.655-.3231c-.308 0-.526.1077-.656.3231-.126.2154-.189.4555-.189.7202zm-.642 7.6818 6.5-9.4545h1.104l-6.5 9.4545z" fill="#0578d6"/><path d="m221.909 149v-1.034l3.2-3.315c.341-.36.623-.675.844-.946.225-.274.393-.534.504-.78.11-.246.166-.508.166-.785 0-.314-.074-.585-.222-.813-.147-.23-.349-.407-.604-.53-.256-.127-.544-.19-.864-.19-.338 0-.634.069-.886.208-.252.138-.446.334-.582.586-.135.253-.203.548-.203.887h-1.362c0-.576.133-1.079.397-1.51.265-.431.628-.765 1.09-1.002.461-.24.986-.36 1.574-.36.594 0 1.117.119 1.57.356.455.234.81.554 1.066.96.255.403.383.859.383 1.366 0 .351-.066.694-.198 1.03-.13.335-.356.709-.679 1.122-.323.409-.773.906-1.348 1.491l-1.879 1.966v.07h4.256v1.223z" fill="#0e7490"/><path d="m229.48 147.153v-1.154l4.086-6.454h.909v1.699h-.577l-2.922 4.626v.074h5.6v1.209zm4.483 1.847v-2.197l.009-.527v-6.731h1.353v9.455z" fill="#0e7490"/><path d="m238.757 149.088c-.252 0-.469-.09-.651-.268-.181-.182-.272-.4-.272-.656 0-.252.091-.467.272-.646.182-.181.399-.272.651-.272.253 0 .47.091.651.272.182.179.273.394.273.646 0 .17-.044.325-.13.467-.083.138-.194.249-.332.332-.139.083-.292.125-.462.125z" fill="#0e7490"/><path d="m243.955 139.545v9.455h-1.431v-8.023h-.055l-2.262 1.477v-1.367l2.359-1.542z" fill="#0e7490"/><path d="m251.448 147.227v-.498c0-.357.074-.684.222-.979.15-.299.369-.537.655-.716.289-.181.639-.272 1.048-.272.419 0 .769.089 1.053.268.283.178.497.417.641.715.148.299.222.627.222.984v.498c0 .357-.074.685-.222.984-.147.295-.364.534-.651.715-.283.179-.631.268-1.043.268-.415 0-.766-.089-1.053-.268-.286-.181-.503-.42-.65-.715-.148-.299-.222-.627-.222-.984zm1.076-.498v.498c0 .265.063.505.189.72.126.216.346.324.66.324.311 0 .528-.108.651-.324.123-.215.185-.455.185-.72v-.498c0-.265-.06-.505-.18-.72-.117-.216-.336-.324-.656-.324-.308 0-.526.108-.655.324-.13.215-.194.455-.194.72zm-5.831-4.912v-.499c0-.357.074-.685.222-.983.15-.299.369-.537.655-.716.289-.178.639-.267 1.048-.267.419 0 .769.089 1.053.267.283.179.497.417.641.716.145.298.217.626.217.983v.499c0 .357-.074.685-.221.983-.145.296-.36.534-.647.716-.283.178-.631.267-1.043.267-.418 0-.771-.089-1.057-.267-.283-.182-.499-.42-.646-.716-.148-.298-.222-.626-.222-.983zm1.08-.499v.499c0 .264.062.504.185.72.126.215.346.323.66.323.308 0 .523-.108.646-.323.127-.216.19-.456.19-.72v-.499c0-.264-.06-.505-.18-.72s-.339-.323-.656-.323c-.308 0-.526.108-.655.323-.127.215-.19.456-.19.72zm-.641 7.682 6.5-9.455h1.103l-6.5 9.455z" fill="#0e7490"/><path d="m225.104 77.1293c-.662 0-1.246-.1139-1.754-.3417-.505-.2277-.9-.5416-1.187-.9417-.286-.4001-.427-.8556-.424-1.3665-.003-.4001.078-.7679.244-1.1033.17-.3386.399-.6202.688-.8449.289-.2277.613-.3723.97-.4339v-.0554c-.471-.1139-.848-.3662-1.131-.7571-.284-.3909-.424-.8402-.421-1.348-.003-.4832.125-.9141.384-1.2926.261-.3817.62-.6817 1.075-.9002.456-.2186.974-.3278 1.556-.3278.576 0 1.09.1108 1.542.3324.455.2185.814.5186 1.076.9002.261.3785.394.8079.397 1.288-.003.5078-.148.9571-.434 1.348-.287.3909-.659.6432-1.118.7571v.0554c.354.0616.673.2062.956.4339.286.2247.514.5063.683.8449.173.3354.26.7032.263 1.1033-.003.5109-.147.9664-.433 1.3665-.287.4001-.684.714-1.192.9417-.504.2278-1.084.3417-1.74.3417zm0-1.168c.391 0 .729-.0646 1.016-.1939.286-.1323.507-.3155.664-.5494.157-.2369.237-.5139.241-.8309-.004-.3293-.09-.6202-.259-.8725-.166-.2524-.392-.4509-.679-.5956-.286-.1446-.614-.2169-.983-.2169-.372 0-.703.0723-.992.2169-.29.1447-.518.3432-.684.5956-.166.2523-.247.5432-.244.8725-.003.317.072.594.226.8309.157.2339.38.4171.669.5494.289.1293.631.1939 1.025.1939zm0-4.3995c.314 0 .592-.0631.836-.1893.243-.1262.434-.3016.572-.5263.142-.2246.214-.4878.217-.7894-.003-.2954-.074-.554-.212-.7756-.136-.2215-.325-.3924-.568-.5124-.243-.1231-.525-.1846-.845-.1846-.326 0-.612.0615-.859.1846-.243.12-.432.2909-.567.5124-.136.2216-.202.4802-.199.7756-.003.3016.065.5648.203.7894.139.2247.329.4001.573.5263.246.1262.529.1893.849.1893z" fill="#3a444f"/><path d="m235.058 75.2273v-.4986c0-.357.074-.6832.222-.9787.151-.2985.369-.5371.655-.7156.29-.1815.639-.2723 1.048-.2723.419 0 .77.0892 1.053.2677s.497.4171.642.7156c.147.2985.221.6263.221.9833v.4986c0 .357-.074.6848-.221.9833-.148.2954-.365.534-.651.7155-.283.1785-.631.2678-1.044.2678-.415 0-.766-.0893-1.052-.2678-.286-.1815-.503-.4201-.651-.7155-.148-.2985-.222-.6263-.222-.9833zm1.076-.4986v.4986c0 .2647.063.5047.189.7201.126.2155.346.3232.66.3232.311 0 .528-.1077.651-.3232.123-.2154.185-.4554.185-.7201v-.4986c0-.2647-.06-.5047-.18-.7202-.117-.2154-.336-.3231-.656-.3231-.307 0-.526.1077-.655.3231-.129.2155-.194.4555-.194.7202zm-5.831-4.9119v-.4986c0-.357.074-.6848.222-.9833.151-.2986.369-.5371.655-.7156.29-.1785.639-.2677 1.048-.2677.419 0 .77.0892 1.053.2677s.497.417.642.7156c.144.2985.217.6263.217.9833v.4986c0 .357-.074.6847-.222.9833-.145.2954-.36.5339-.646.7155-.283.1785-.631.2678-1.044.2678-.418 0-.771-.0893-1.057-.2678-.283-.1816-.498-.4201-.646-.7155-.148-.2986-.222-.6263-.222-.9833zm1.081-.4986v.4986c0 .2646.061.5047.184.7201.126.2155.347.3232.66.3232.308 0 .524-.1077.647-.3232.126-.2154.189-.4555.189-.7201v-.4986c0-.2647-.06-.5048-.18-.7202s-.339-.3231-.656-.3231c-.307 0-.526.1077-.655.3231-.126.2154-.189.4555-.189.7202zm-.642 7.6818 6.5-9.4545h1.103l-6.5 9.4545z" fill="#3a444f"/><path d="m92.3533 222.129c-.634 0-1.2002-.109-1.6988-.328-.4955-.218-.8879-.521-1.1772-.909-.2862-.391-.4401-.843-.4617-1.357h1.4496c.0185.28.1123.523.2816.729.1724.203.397.36.674.471s.5848.166.9233.166c.3724 0 .7017-.064.9879-.194.2893-.129.5155-.309.6787-.54.1631-.234.2446-.503.2446-.808 0-.317-.0815-.595-.2446-.835-.1601-.243-.3955-.434-.7064-.573-.3077-.138-.6801-.207-1.1172-.207h-.7986v-1.164h.7986c.3509 0 .6587-.063.9233-.189.2678-.126.4771-.302.6279-.526.1508-.228.2262-.494.2262-.799 0-.292-.0662-.546-.1985-.762-.1293-.218-.3139-.389-.554-.512-.237-.123-.517-.185-.8402-.185-.3078 0-.5955.057-.8633.171-.2647.111-.4801.271-.6463.48-.1662.206-.2554.454-.2677.743h-1.3804c.0154-.51.1662-.96.4524-1.348.2893-.387.671-.691 1.1449-.909.474-.219 1.0003-.328 1.5789-.328.6063 0 1.1295.119 1.5696.356.4432.234.7848.546 1.0248.937.2432.391.3632.818.3601 1.283.0031.53-.1446.979-.4432 1.348-.2954.37-.6894.617-1.1818.743v.074c.6279.096 1.1141.345 1.4588.748.3478.403.5201.903.5171 1.501.003.52-.1416.986-.434 1.398-.2893.413-.6848.737-1.1864.974-.5017.234-1.0757.351-1.722.351z" fill="#bc26d3"/><path d="m97.4407 222v-1.034l3.1993-3.315c.342-.36.623-.675.845-.946.224-.274.392-.534.503-.78s.166-.508.166-.785c0-.314-.074-.585-.221-.813-.148-.23-.35-.407-.605-.53-.256-.127-.543-.19-.864-.19-.338 0-.6335.069-.8859.208-.2523.138-.4462.334-.5817.586-.1354.253-.2031.548-.2031.887h-1.3618c0-.576.1323-1.079.397-1.51s.6278-.765 1.0895-1.002c.4616-.24.9864-.36 1.574-.36.594 0 1.117.119 1.57.356.455.234.811.554 1.066.96.256.403.383.859.383 1.366 0 .351-.066.694-.198 1.03-.129.335-.356.709-.679 1.122-.323.409-.772.906-1.348 1.491l-1.8787 1.966v.07h4.2567v1.223z" fill="#bc26d3"/><path d="m106.341 222.088c-.252 0-.469-.09-.651-.268-.181-.182-.272-.4-.272-.656 0-.252.091-.467.272-.646.182-.181.399-.272.651-.272.253 0 .47.091.651.272.182.179.273.394.273.646 0 .17-.044.325-.13.467-.083.138-.194.249-.332.332-.139.083-.292.125-.462.125z" fill="#bc26d3"/><path d="m111.972 222.129c-.661 0-1.246-.114-1.754-.341-.505-.228-.9-.542-1.186-.942-.287-.4-.428-.856-.425-1.367-.003-.4.078-.767.244-1.103.17-.338.399-.62.688-.845.29-.227.613-.372.97-.434v-.055c-.471-.114-.848-.366-1.131-.757s-.423-.84-.42-1.348c-.003-.483.124-.914.383-1.293.261-.381.62-.682 1.075-.9.456-.219.975-.328 1.556-.328.576 0 1.09.111 1.542.333.456.218.814.518 1.076.9.261.378.394.808.397 1.288-.003.508-.148.957-.434 1.348s-.659.643-1.117.757v.055c.354.062.672.207.955.434.286.225.514.507.683.845.173.336.261.703.264 1.103-.003.511-.148.967-.434 1.367-.287.4-.684.714-1.191.942-.505.227-1.085.341-1.741.341zm0-1.168c.391 0 .73-.064 1.016-.194.286-.132.508-.315.665-.549.157-.237.237-.514.24-.831-.003-.329-.09-.62-.259-.872-.166-.253-.392-.451-.678-.596-.287-.145-.614-.217-.984-.217-.372 0-.703.072-.992.217-.29.145-.517.343-.684.596-.166.252-.247.543-.244.872-.003.317.072.594.226.831.157.234.38.417.669.549.29.13.631.194 1.025.194zm0-4.399c.314 0 .593-.063.836-.189.243-.127.434-.302.572-.527.142-.224.214-.488.217-.789-.003-.296-.074-.554-.212-.776-.136-.221-.325-.392-.568-.512-.243-.123-.525-.185-.845-.185-.326 0-.612.062-.858.185-.244.12-.433.291-.568.512-.136.222-.202.48-.199.776-.003.301.065.565.203.789.139.225.33.4.573.527.246.126.529.189.849.189z" fill="#bc26d3"/><path d="m121.926 220.227v-.498c0-.357.074-.684.222-.979.151-.299.369-.537.656-.716.289-.181.638-.272 1.048-.272.418 0 .769.089 1.052.268.283.178.497.417.642.715.148.299.221.627.221.984v.498c0 .357-.073.685-.221.984-.148.295-.365.534-.651.715-.283.179-.631.268-1.043.268-.416 0-.767-.089-1.053-.268-.286-.181-.503-.42-.651-.715-.148-.299-.222-.627-.222-.984zm1.076-.498v.498c0 .265.063.505.189.72.127.216.347.324.661.324.31 0 .527-.108.65-.324.124-.215.185-.455.185-.72v-.498c0-.265-.06-.505-.18-.72-.117-.216-.335-.324-.655-.324-.308 0-.527.108-.656.324-.129.215-.194.455-.194.72zm-5.83-4.912v-.499c0-.357.073-.685.221-.983.151-.299.369-.537.656-.716.289-.178.638-.267 1.048-.267.418 0 .769.089 1.052.267.283.179.497.417.642.716.144.298.217.626.217.983v.499c0 .357-.074.685-.222.983-.144.296-.36.534-.646.716-.283.178-.631.267-1.043.267-.419 0-.771-.089-1.058-.267-.283-.182-.498-.42-.646-.716-.148-.298-.221-.626-.221-.983zm1.08-.499v.499c0 .264.061.504.184.72.127.215.347.323.661.323.307 0 .523-.108.646-.323.126-.216.189-.456.189-.72v-.499c0-.264-.06-.505-.18-.72s-.338-.323-.655-.323c-.308 0-.527.108-.656.323-.126.215-.189.456-.189.72zm-.642 7.682 6.5-9.455h1.103l-6.5 9.455z" fill="#bc26d3"/><path d="m225.65 211.545v9.455h-1.431v-8.023h-.056l-2.262 1.477v-1.367l2.359-1.542z" fill="#047857"/><path d="m231.499 221.129c-.634 0-1.2-.109-1.699-.328-.496-.218-.888-.521-1.177-.909-.286-.391-.44-.843-.462-1.357h1.45c.018.28.112.523.281.729.173.203.397.36.674.471s.585.166.924.166c.372 0 .701-.064.988-.194.289-.129.515-.309.678-.54.163-.234.245-.503.245-.808 0-.317-.082-.595-.245-.835-.16-.243-.395-.434-.706-.573-.308-.138-.68-.207-1.117-.207h-.799v-1.164h.799c.35 0 .658-.063.923-.189.268-.126.477-.302.628-.526.151-.228.226-.494.226-.799 0-.292-.066-.546-.199-.762-.129-.218-.313-.389-.553-.512-.237-.123-.518-.185-.841-.185-.307 0-.595.057-.863.171-.265.111-.48.271-.646.48-.166.206-.256.454-.268.743h-1.38c.015-.51.166-.96.452-1.348.289-.387.671-.691 1.145-.909.474-.219 1-.328 1.579-.328.606 0 1.129.119 1.569.356.444.234.785.546 1.025.937.243.391.363.818.36 1.283.003.53-.144.979-.443 1.348-.295.37-.689.617-1.182.743v.074c.628.096 1.114.345 1.459.748.348.403.52.903.517 1.501.003.52-.141.986-.434 1.398-.289.413-.685.737-1.186.974-.502.234-1.076.351-1.722.351z" fill="#047857"/><path d="m237.235 221.088c-.253 0-.47-.09-.651-.268-.182-.182-.272-.4-.272-.656 0-.252.09-.467.272-.646.181-.181.398-.272.651-.272.252 0 .469.091.651.272.181.179.272.394.272.646 0 .17-.043.325-.129.467-.083.138-.194.249-.333.332-.138.083-.292.125-.461.125z" fill="#047857"/><path d="m242.433 211.545v9.455h-1.431v-8.023h-.056l-2.262 1.477v-1.367l2.359-1.542z" fill="#047857"/><path d="m249.926 219.227v-.498c0-.357.073-.684.221-.979.151-.299.369-.537.656-.716.289-.181.638-.272 1.048-.272.418 0 .769.089 1.052.268.283.178.497.417.642.715.148.299.221.627.221.984v.498c0 .357-.073.685-.221.984-.148.295-.365.534-.651.715-.283.179-.631.268-1.043.268-.416 0-.767-.089-1.053-.268-.286-.181-.503-.42-.651-.715-.148-.299-.221-.627-.221-.984zm1.075-.498v.498c0 .265.063.505.189.72.127.216.347.324.661.324.31 0 .527-.108.651-.324.123-.215.184-.455.184-.72v-.498c0-.265-.06-.505-.18-.72-.117-.216-.335-.324-.655-.324-.308 0-.527.108-.656.324-.129.215-.194.455-.194.72zm-5.83-4.912v-.499c0-.357.073-.685.221-.983.151-.299.369-.537.656-.716.289-.178.638-.267 1.048-.267.418 0 .769.089 1.052.267.283.179.497.417.642.716.145.298.217.626.217.983v.499c0 .357-.074.685-.222.983-.144.296-.36.534-.646.716-.283.178-.631.267-1.043.267-.419 0-.771-.089-1.058-.267-.283-.182-.498-.42-.646-.716-.148-.298-.221-.626-.221-.983zm1.08-.499v.499c0 .264.061.504.184.72.127.215.347.323.661.323.307 0 .523-.108.646-.323.126-.216.189-.456.189-.72v-.499c0-.264-.06-.505-.18-.72s-.338-.323-.655-.323c-.308 0-.527.108-.656.323-.126.215-.189.456-.189.72zm-.642 7.682 6.5-9.455h1.103l-6.5 9.455z" fill="#047857"/><g fill="#4c555e"><path d="m96.4205 126.636c0 .921-.1662 1.716-.4986 2.387-.3324.67-.7884 1.187-1.3679 1.551-.5796.364-1.2415.545-1.9858.545s-1.4063-.181-1.9858-.545c-.5796-.364-1.0355-.881-1.3679-1.551-.3324-.671-.4986-1.466-.4986-2.387 0-.92.1662-1.716.4986-2.386s.7883-1.187 1.3679-1.551c.5795-.364 1.2415-.546 1.9858-.546s1.4062.182 1.9858.546c.5795.364 1.0355.881 1.3679 1.551s.4986 1.466.4986 2.386zm-1.0228 0c0-.755-.1264-1.393-.3792-1.913-.25-.52-.5895-.913-1.0185-1.18-.4261-.267-.9034-.401-1.4318-.401s-1.0071.134-1.4361.401c-.4261.267-.7656.66-1.0185 1.18-.25.52-.375 1.158-.375 1.913 0 .756.125 1.394.375 1.914.2529.52.5924.913 1.0185 1.18.429.267.9077.401 1.4361.401s1.0057-.134 1.4318-.401c.429-.267.7685-.66 1.0185-1.18.2528-.52.3792-1.158.3792-1.914z"/><path d="m98.0611 133.455v-9h.9716v1.039h.1193c.0739-.113.1761-.258.3068-.434.1335-.179.3239-.338.5712-.478.25-.142.588-.213 1.014-.213.551 0 1.037.138 1.457.414.421.275.749.666.985 1.172.236.505.353 1.102.353 1.789 0 .694-.117 1.294-.353 1.803-.236.506-.563.898-.98 1.176-.418.276-.899.413-1.445.413-.42 0-.757-.069-1.01-.208-.2527-.142-.4473-.303-.5837-.482-.1363-.182-.2414-.332-.3153-.452h-.0852v3.461zm.9886-5.728c0 .495.0725.931.2173 1.309.1449.375.3566.669.635.882.278.21.619.315 1.023.315.42 0 .771-.111 1.052-.332.284-.225.497-.526.639-.904.145-.381.218-.804.218-1.27 0-.46-.071-.875-.213-1.244-.139-.372-.351-.666-.635-.882-.281-.219-.635-.328-1.061-.328-.409 0-.753.103-1.0315.311-.2784.204-.4887.491-.6307.861-.1421.366-.2131.794-.2131 1.282z"/><path d="m108.118 131.136c-.631 0-1.175-.139-1.632-.417-.455-.281-.806-.674-1.053-1.176-.244-.506-.366-1.094-.366-1.765 0-.67.122-1.261.366-1.772.247-.515.591-.915 1.031-1.202.444-.29.961-.435 1.552-.435.341 0 .677.057 1.01.171.332.113.635.298.907.554.273.253.49.588.652 1.005.162.418.243.932.243 1.543v.426h-5.045v-.869h4.022c0-.369-.073-.699-.221-.989-.145-.29-.352-.518-.622-.686-.267-.167-.583-.251-.946-.251-.401 0-.748.099-1.04.298-.29.196-.513.452-.669.767s-.235.653-.235 1.014v.58c0 .494.086.913.256 1.257.173.341.413.601.72.78.307.176.664.264 1.07.264.264 0 .503-.037.716-.111.216-.077.402-.19.558-.341.156-.153.277-.343.362-.571l.972.273c-.102.33-.274.619-.516.869-.241.247-.54.441-.895.58-.355.136-.754.204-1.197.204z"/><path d="m113.364 127.063v3.937h-1.006v-6.545h.972v1.022h.085c.153-.332.386-.599.699-.801.312-.204.716-.307 1.21-.307.443 0 .831.091 1.163.273.333.179.591.452.776.818.184.364.277.824.277 1.381v4.159h-1.006v-4.091c0-.514-.133-.915-.4-1.202-.268-.289-.634-.434-1.1-.434-.321 0-.608.069-.861.209-.25.139-.447.342-.592.609s-.217.591-.217.972z"/><path d="m122.122 131.136c-.631 0-1.175-.139-1.632-.417-.455-.281-.806-.674-1.053-1.176-.244-.506-.366-1.094-.366-1.765 0-.67.122-1.261.366-1.772.247-.515.591-.915 1.031-1.202.444-.29.961-.435 1.552-.435.34 0 .677.057 1.009.171.333.113.635.298.908.554.273.253.49.588.652 1.005.162.418.243.932.243 1.543v.426h-5.045v-.869h4.022c0-.369-.074-.699-.221-.989-.145-.29-.353-.518-.622-.686-.267-.167-.583-.251-.946-.251-.401 0-.748.099-1.04.298-.29.196-.513.452-.669.767-.157.315-.235.653-.235 1.014v.58c0 .494.086.913.256 1.257.173.341.413.601.72.78.307.176.664.264 1.07.264.264 0 .503-.037.716-.111.216-.077.402-.19.558-.341.156-.153.277-.343.362-.571l.972.273c-.103.33-.274.619-.516.869-.241.247-.54.441-.895.58-.355.136-.754.204-1.197.204z"/><path d="m128.833 131.136c-.545 0-1.027-.137-1.444-.413-.418-.278-.744-.67-.98-1.176-.236-.509-.354-1.109-.354-1.803 0-.687.118-1.284.354-1.789.236-.506.564-.897.984-1.172.421-.276.906-.414 1.458-.414.426 0 .762.071 1.009.213.25.14.441.299.571.478.134.176.238.321.312.434h.085v-3.221h1.005v8.727h-.971v-1.006h-.119c-.074.12-.179.27-.316.452-.136.179-.331.34-.584.482-.252.139-.589.208-1.01.208zm.137-.903c.403 0 .744-.105 1.023-.315.278-.213.49-.507.634-.882.145-.378.218-.814.218-1.309 0-.488-.071-.916-.213-1.282-.142-.37-.353-.657-.631-.861-.278-.208-.622-.311-1.031-.311-.426 0-.781.109-1.066.328-.281.216-.492.51-.634.882-.14.369-.209.784-.209 1.244 0 .466.071.889.213 1.27.145.378.358.679.639.904.284.221.636.332 1.057.332z"/><path d="m93.8296 52.4545c-.0512-.4318-.2586-.767-.6222-1.0056-.3636-.2387-.8097-.358-1.3381-.358-.3863 0-.7244.0625-1.0142.1875-.2869.125-.5113.2969-.6733.5156-.1591.2188-.2386.4674-.2386.7458 0 .2329.0554.4332.1662.6008.1136.1648.2585.3026.4346.4134.1762.1079.3608.1974.554.2684.1932.0682.3708.1236.5327.1662l.8864.2387c.2272.0596.4801.142.7585.2471.2812.1051.5497.2486.8054.4304.2585.179.4716.4091.6392.6904.1676.2812.2514.6264.2514 1.0355 0 .4716-.1236.8977-.3707 1.2784-.2444.3807-.6023.6832-1.0739.9077-.4688.2244-1.0384.3366-1.7088.3366-.625 0-1.1662-.1008-1.6236-.3025-.4545-.2017-.8125-.483-1.0739-.8438-.2585-.3608-.4048-.7798-.4389-1.2571h1.0909c.0284.3295.1392.6023.3324.8182.196.2131.4432.3721.7415.4773.3011.1022.625.1534.9716.1534.4034 0 .7656-.0654 1.0866-.1961.3211-.1335.5753-.3181.7628-.5539.1875-.2387.2813-.5171.2813-.8353 0-.2897-.081-.5255-.2429-.7073-.162-.1819-.375-.3296-.6392-.4432-.2642-.1137-.5497-.2131-.8566-.2983l-1.0738-.3068c-.6818-.1961-1.2216-.4759-1.6193-.8395-.3978-.3637-.5966-.8395-.5966-1.4276 0-.4886.1321-.9148.3963-1.2784.267-.3665.625-.6506 1.0738-.8523.4517-.2045.956-.3068 1.5128-.3068.5625 0 1.0625.1009 1.5.3026.4375.1988.7841.4716 1.0398.8182.2585.3465.3949.74.4091 1.1803z"/><path d="m99.3171 59.1364c-.6307 0-1.1747-.1392-1.6321-.4176-.4545-.2813-.8054-.6733-1.0525-1.1762-.2444-.5057-.3665-1.0937-.3665-1.7642 0-.6704.1221-1.2614.3665-1.7727.2471-.5142.5909-.9148 1.0312-1.2017.4432-.2898.9602-.4347 1.5511-.4347.341 0 .6776.0568 1.0102.1705.332.1136.635.2983.907.554.273.2528.491.588.652 1.0056.162.4176.243.9319.243 1.5426v.4262h-5.0451v-.8693h4.0231c0-.3694-.074-.6989-.222-.9887-.145-.2897-.352-.5184-.622-.686-.2672-.1677-.5825-.2515-.9462-.2515-.4005 0-.7471.0995-1.0397.2983-.2898.196-.5128.4517-.6691.7671-.1562.3153-.2343.6534-.2343 1.0142v.5795c0 .4943.0852.9134.2556 1.2571.1733.3409.4134.6009.7202.7799.3068.1761.6634.2642 1.0696.2642.2642 0 .5029-.037.7159-.1108.216-.0767.402-.1904.558-.3409.157-.1535.277-.3438.362-.5711l.972.2728c-.102.3295-.274.6193-.516.8693-.241.2471-.539.4403-.894.5795-.356.1364-.7547.2046-1.1979.2046z"/><path d="m104.563 55.0625v3.9375h-1.006v-6.5455h.972v1.0228h.085c.153-.3324.386-.5995.699-.8012.312-.2045.716-.3068 1.21-.3068.443 0 .831.0909 1.163.2727.333.179.591.4518.776.8182.185.3637.277.8239.277 1.3807v4.1591h-1.006v-4.0909c0-.5142-.133-.9148-.4-1.2017-.267-.2898-.634-.4347-1.1-.4347-.321 0-.608.0696-.86.2088-.25.1392-.448.3424-.593.6094-.145.2671-.217.5909-.217.9716z"/><path d="m113.423 52.4545v.8523h-3.392v-.8523zm-2.403-1.5681h1.006v6.2386c0 .2841.041.4972.123.6392.085.1392.193.233.324.2813.134.0454.274.0681.422.0681.111 0 .202-.0056.273-.017.071-.0142.127-.0256.17-.0341l.205.9034c-.069.0256-.164.0511-.286.0767-.122.0284-.277.0426-.464.0426-.284 0-.563-.061-.836-.1832-.269-.1222-.494-.3082-.673-.5582-.176-.25-.264-.5654-.264-.9461z"/><path d="m229.08 125h-1.057c-.063-.304-.172-.571-.328-.801-.154-.23-.341-.423-.563-.58-.219-.159-.462-.278-.729-.358-.267-.079-.545-.119-.835-.119-.528 0-1.007.134-1.436.401-.426.267-.766.66-1.018 1.18-.25.52-.375 1.158-.375 1.913 0 .756.125 1.394.375 1.914.252.52.592.913 1.018 1.18.429.267.908.401 1.436.401.29 0 .568-.04.835-.12.267-.079.51-.197.729-.353.222-.159.409-.354.563-.584.156-.233.265-.5.328-.801h1.057c-.08.446-.225.845-.435 1.197s-.472.652-.784.899c-.313.245-.664.431-1.053.559-.386.127-.799.191-1.24.191-.744 0-1.406-.181-1.986-.545-.579-.364-1.035-.881-1.368-1.551-.332-.671-.498-1.466-.498-2.387 0-.92.166-1.716.498-2.386.333-.67.789-1.188 1.368-1.551.58-.364 1.242-.546 1.986-.546.441 0 .854.064 1.24.192.389.128.74.316 1.053.563.312.244.574.542.784.895.21.349.355.748.435 1.197z"/><path d="m231.657 122.273v8.727h-1.006v-8.727z"/><path d="m233.499 131v-6.545h1.005v6.545zm.511-7.636c-.196 0-.365-.067-.507-.201-.139-.133-.209-.294-.209-.481 0-.188.07-.348.209-.482.142-.133.311-.2.507-.2s.364.067.503.2c.142.134.213.294.213.482 0 .187-.071.348-.213.481-.139.134-.307.201-.503.201z"/><path d="m239.005 131.136c-.613 0-1.142-.145-1.585-.434-.443-.29-.784-.689-1.023-1.198-.238-.508-.358-1.089-.358-1.743 0-.664.123-1.251.367-1.76.247-.511.591-.91 1.031-1.197.443-.29.96-.435 1.551-.435.461 0 .875.086 1.245.256.369.17.671.409.907.716s.382.665.439 1.074h-1.005c-.077-.299-.248-.563-.512-.793-.261-.233-.613-.349-1.057-.349-.392 0-.735.102-1.031.307-.293.201-.521.487-.686.856-.162.367-.243.797-.243 1.291 0 .506.08.946.239 1.321.162.375.389.666.682.874.295.207.642.311 1.039.311.262 0 .499-.045.712-.136s.393-.222.541-.392c.148-.171.253-.375.316-.614h1.005c-.057.386-.197.734-.422 1.044-.221.307-.515.551-.882.733-.363.179-.787.268-1.27.268z"/><path d="m243.987 128.614-.017-1.245h.204l2.864-2.914h1.244l-3.051 3.085h-.085zm-.938 2.386v-8.727h1.006v8.727zm4.159 0-2.556-3.239.716-.699 3.119 3.938z"/><path d="m252.051 131.136c-.63 0-1.174-.139-1.632-.417-.454-.281-.805-.674-1.052-1.176-.244-.506-.367-1.094-.367-1.765 0-.67.123-1.261.367-1.772.247-.515.591-.915 1.031-1.202.443-.29.96-.435 1.551-.435.341 0 .678.057 1.01.171.333.113.635.298.908.554.273.253.49.588.652 1.005.162.418.243.932.243 1.543v.426h-5.046v-.869h4.023c0-.369-.074-.699-.222-.989-.144-.29-.352-.518-.622-.686-.267-.167-.582-.251-.946-.251-.4 0-.747.099-1.04.298-.289.196-.512.452-.669.767-.156.315-.234.653-.234 1.014v.58c0 .494.085.913.256 1.257.173.341.413.601.72.78.307.176.663.264 1.069.264.265 0 .503-.037.716-.111.216-.077.402-.19.559-.341.156-.153.277-.344.362-.571l.971.273c-.102.33-.274.619-.515.869-.242.247-.54.441-.895.58-.355.136-.754.204-1.198.204z"/><path d="m258.763 131.136c-.545 0-1.027-.137-1.444-.413-.418-.278-.745-.67-.981-1.176-.235-.509-.353-1.11-.353-1.803 0-.687.118-1.284.353-1.789.236-.506.564-.897.985-1.172.42-.276.906-.414 1.457-.414.426 0 .763.071 1.01.213.25.14.44.299.571.478.134.176.237.321.311.434h.085v-3.221h1.006v8.727h-.971v-1.006h-.12c-.074.12-.179.27-.315.452-.136.179-.331.34-.584.482-.253.139-.589.208-1.01.208zm.137-.903c.403 0 .744-.105 1.022-.315.279-.213.49-.507.635-.882.145-.378.218-.814.218-1.309 0-.488-.072-.916-.214-1.282-.142-.37-.352-.657-.63-.861-.279-.208-.622-.311-1.031-.311-.427 0-.782.109-1.066.328-.281.216-.493.51-.635.882-.139.369-.209.784-.209 1.244 0 .466.071.889.213 1.27.145.378.358.679.64.904.284.221.636.332 1.057.332z"/><path d="m222.057 59v-8.7273h2.949c.684 0 1.244.1236 1.679.3708.437.2443.761.5753.971.9929s.316.8835.316 1.3977-.106.9815-.316 1.402c-.207.4204-.528.7557-.963 1.0057-.434.2471-.991.3707-1.67.3707h-2.114v-.9375h2.08c.468 0 .845-.081 1.129-.2429s.49-.3807.618-.6562c.13-.2785.196-.5924.196-.9418s-.066-.6619-.196-.9375c-.128-.2756-.335-.4915-.622-.6477-.287-.1591-.668-.2387-1.142-.2387h-1.858v7.7898z"/><path d="m232.212 59.1364c-.631 0-1.175-.1392-1.632-.4176-.455-.2813-.806-.6733-1.053-1.1762-.244-.5057-.366-1.0937-.366-1.7642 0-.6704.122-1.2614.366-1.7727.247-.5142.591-.9148 1.031-1.2017.443-.2898.96-.4347 1.551-.4347.341 0 .678.0568 1.01.1705.333.1136.635.2983.908.554.273.2528.49.588.652 1.0056s.243.9318.243 1.5426v.4262h-5.046v-.8693h4.023c0-.3694-.074-.6989-.221-.9887-.145-.2897-.353-.5184-.623-.6861-.267-.1676-.582-.2514-.946-.2514-.4 0-.747.0995-1.039.2983-.29.196-.513.4517-.669.7671-.157.3153-.235.6534-.235 1.0142v.5795c0 .4943.085.9134.256 1.2571.173.3409.413.6009.72.7799.307.1761.663.2642 1.07.2642.264 0 .502-.037.716-.1108.215-.0767.402-.1904.558-.341.156-.1534.277-.3437.362-.571l.972.2728c-.103.3295-.275.6193-.516.8693-.241.2471-.54.4403-.895.5795-.355.1364-.754.2046-1.197.2046z"/><path d="m237.457 55.0625v3.9375h-1.005v-6.5455h.971v1.0228h.086c.153-.3324.386-.5995.698-.8012.313-.2045.716-.3068 1.211-.3068.443 0 .831.0909 1.163.2727.332.179.591.4518.776.8182.184.3637.277.8239.277 1.3807v4.1591h-1.006v-4.0909c0-.5142-.134-.9148-.401-1.2017-.267-.2898-.633-.4347-1.099-.4347-.321 0-.608.0696-.861.2088-.25.1392-.447.3424-.592.6094-.145.2671-.218.5909-.218.9716z"/><path d="m245.943 59.1364c-.546 0-1.027-.1378-1.445-.4134-.417-.2784-.744-.6704-.98-1.1761-.236-.5085-.354-1.1094-.354-1.8026 0-.6875.118-1.2841.354-1.7898.236-.5056.564-.8963.984-1.1718.421-.2756.907-.4134 1.458-.4134.426 0 .763.071 1.01.2131.25.1392.44.2983.571.4773.133.1761.237.321.311.4346h.085v-3.2216h1.006v8.7273h-.972v-1.0057h-.119c-.074.1193-.179.2699-.315.4517-.137.179-.331.3395-.584.4816-.253.1392-.59.2088-1.01.2088zm.136-.9034c.404 0 .745-.1052 1.023-.3154.278-.2131.49-.5071.635-.8821.145-.3778.217-.8139.217-1.3082 0-.4887-.071-.9162-.213-1.2827-.142-.3693-.352-.6562-.631-.8608-.278-.2074-.622-.3111-1.031-.3111-.426 0-.781.1094-1.065.3282-.281.2159-.493.5099-.635.8821-.139.3693-.209.784-.209 1.2443 0 .4659.071.8892.213 1.2699.145.3778.358.6789.639.9034.284.2216.637.3324 1.057.3324z"/><path d="m250.924 59v-6.5455h1.006v6.5455zm.512-7.6364c-.196 0-.365-.0667-.507-.2002-.14-.1336-.209-.2941-.209-.4816s.069-.348.209-.4815c.142-.1335.311-.2003.507-.2003s.363.0668.503.2003c.142.1335.213.294.213.4815s-.071.348-.213.4816c-.14.1335-.307.2002-.503.2002z"/><path d="m254.778 55.0625v3.9375h-1.006v-6.5455h.972v1.0228h.085c.153-.3324.386-.5995.699-.8012.312-.2045.716-.3068 1.21-.3068.443 0 .831.0909 1.163.2727.333.179.591.4518.776.8182.185.3637.277.8239.277 1.3807v4.1591h-1.006v-4.0909c0-.5142-.133-.9148-.4-1.2017-.267-.2898-.634-.4347-1.1-.4347-.321 0-.608.0696-.861.2088-.25.1392-.447.3424-.592.6094-.145.2671-.217.5909-.217.9716z"/><path d="m263.434 61.5909c-.486 0-.904-.0625-1.253-.1875-.35-.1222-.641-.2841-.874-.4858-.23-.1988-.413-.4119-.55-.6392l.802-.5625c.091.1193.206.2557.345.4091.139.1562.329.2912.571.4048.244.1165.564.1747.959.1747.528 0 .964-.1278 1.308-.3835s.515-.6562.515-1.2017v-1.3295h-.085c-.074.1193-.179.267-.315.4432-.134.1733-.327.3281-.58.4644-.25.1336-.588.2003-1.014.2003-.528 0-1.003-.125-1.423-.375-.418-.25-.749-.6136-.993-1.0909-.242-.4773-.362-1.0568-.362-1.7386 0-.6705.118-1.2543.353-1.7514.236-.5.564-.8864.985-1.1591.42-.2756.906-.4134 1.457-.4134.426 0 .764.071 1.014.2131.253.1392.446.2983.58.4773.136.1761.241.321.315.4346h.103v-1.0398h.971v6.733c0 .5625-.128 1.0199-.383 1.3722-.253.3551-.594.615-1.023.7798-.426.1676-.901.2514-1.423.2514zm-.034-3.5966c.403 0 .744-.0923 1.022-.277.279-.1846.49-.4503.635-.7968.145-.3466.218-.7614.218-1.2444 0-.4716-.072-.8877-.214-1.2485s-.352-.6435-.63-.8481c-.279-.2045-.622-.3068-1.031-.3068-.427 0-.782.108-1.066.3239-.281.2159-.493.5057-.635.8693-.139.3636-.209.7671-.209 1.2102 0 .4546.071.8566.213 1.206.145.3466.358.6193.64.8182.284.196.636.294 1.057.294z"/><path d="m89.0568 204v-8.727h2.9489c.6818 0 1.2415.116 1.679.349.4375.23.7613.547.9716.95.2102.404.3153.863.3153 1.377s-.1051.97-.3153 1.368c-.2103.397-.5327.71-.9674.937-.4346.225-.99.337-1.6662.337h-2.3863v-.955h2.3522c.466 0 .841-.068 1.125-.204.287-.137.4944-.33.6222-.58.1307-.253.196-.554.196-.903 0-.35-.0653-.655-.196-.916-.1307-.262-.3395-.463-.6264-.605-.287-.145-.6662-.218-1.1378-.218h-1.858v7.79zm4.108-3.92 2.1477 3.92h-1.2273l-2.1136-3.92z"/><path d="m99.2702 204.136c-.6306 0-1.1747-.139-1.6321-.417-.4545-.281-.8054-.674-1.0525-1.176-.2443-.506-.3665-1.094-.3665-1.765 0-.67.1222-1.261.3665-1.772.2471-.515.5909-.915 1.0312-1.202.4432-.29.9603-.435 1.5512-.435.3409 0 .6775.057 1.01.171.332.113.635.298.908.554.272.253.49.588.652 1.005.162.418.242.932.242 1.543v.426h-5.045v-.869h4.023c0-.369-.074-.699-.222-.989-.145-.29-.352-.518-.622-.686-.267-.167-.5824-.251-.946-.251-.4006 0-.7472.099-1.0398.298-.2898.196-.5128.452-.669.767-.1563.315-.2344.653-.2344 1.014v.58c0 .494.0852.913.2557 1.257.1733.341.4133.601.7201.78.3069.176.6634.264 1.0696.264.2643 0 .5029-.037.716-.111.2158-.077.4018-.19.5578-.341.157-.153.277-.344.363-.571l.971.273c-.102.33-.274.619-.515.869-.242.247-.54.441-.895.58-.355.136-.7546.204-1.1978.204z"/><path d="m103.51 206.455v-9h.972v1.039h.119c.074-.113.176-.258.307-.434.134-.179.324-.338.571-.478.25-.142.588-.213 1.014-.213.551 0 1.037.138 1.458.414.42.275.748.666.984 1.172.236.505.354 1.102.354 1.789 0 .693-.118 1.294-.354 1.803-.236.506-.562.898-.98 1.176-.418.276-.899.413-1.445.413-.42 0-.757-.069-1.01-.208-.252-.142-.447-.303-.583-.482-.137-.182-.242-.332-.316-.452h-.085v3.461zm.989-5.728c0 .495.072.931.217 1.309.145.375.357.669.635.882.279.21.62.315 1.023.315.42 0 .771-.111 1.052-.332.285-.225.498-.526.64-.904.145-.381.217-.804.217-1.27 0-.46-.071-.875-.213-1.244-.139-.372-.351-.666-.635-.882-.281-.219-.635-.328-1.061-.328-.409 0-.753.103-1.031.311-.279.204-.489.491-.631.861-.142.366-.213.794-.213 1.282z"/><path d="m111.828 195.273v8.727h-1.005v-8.727z"/><path d="m113.67 204v-6.545h1.006v6.545zm.512-7.636c-.196 0-.365-.067-.507-.201-.139-.133-.209-.294-.209-.481 0-.188.07-.348.209-.482.142-.133.311-.2.507-.2s.363.067.503.2c.142.134.213.294.213.482 0 .187-.071.348-.213.481-.14.134-.307.201-.503.201z"/><path d="m119.262 204.136c-.63 0-1.174-.139-1.632-.417-.454-.281-.805-.674-1.052-1.176-.245-.506-.367-1.094-.367-1.765 0-.67.122-1.261.367-1.772.247-.515.591-.915 1.031-1.202.443-.29.96-.435 1.551-.435.341 0 .678.057 1.01.171.332.113.635.298.908.554.273.253.49.588.652 1.005.162.418.243.932.243 1.543v.426h-5.046v-.869h4.023c0-.369-.074-.699-.222-.989-.145-.29-.352-.518-.622-.686-.267-.167-.582-.251-.946-.251-.4 0-.747.099-1.04.298-.289.196-.512.452-.669.767-.156.315-.234.653-.234 1.014v.58c0 .494.085.913.256 1.257.173.341.413.601.72.78.307.176.663.264 1.069.264.265 0 .503-.037.716-.111.216-.077.402-.19.559-.341.156-.153.277-.344.362-.571l.971.273c-.102.33-.274.619-.515.869-.242.247-.54.441-.895.58-.355.136-.754.204-1.198.204z"/><path d="m125.974 204.136c-.545 0-1.027-.137-1.445-.413-.417-.278-.744-.67-.98-1.176-.235-.509-.353-1.11-.353-1.803 0-.687.118-1.284.353-1.789.236-.506.564-.897.985-1.172.42-.276.906-.414 1.457-.414.426 0 .763.071 1.01.213.25.14.44.299.571.478.134.176.237.321.311.434h.085v-3.221h1.006v8.727h-.972v-1.006h-.119c-.074.12-.179.27-.315.452-.137.179-.331.34-.584.482-.253.139-.589.208-1.01.208zm.136-.903c.404 0 .745-.105 1.023-.315.279-.213.49-.507.635-.882.145-.378.217-.814.217-1.309 0-.488-.071-.916-.213-1.282-.142-.37-.352-.657-.63-.861-.279-.208-.622-.311-1.032-.311-.426 0-.781.109-1.065.328-.281.216-.493.51-.635.882-.139.369-.209.784-.209 1.244 0 .466.071.889.213 1.27.145.378.358.679.64.904.284.221.636.332 1.056.332z"/><path d="m227.83 196.455c-.052-.432-.259-.768-.623-1.006-.363-.239-.809-.358-1.338-.358-.386 0-.724.062-1.014.187-.287.125-.511.297-.673.516-.159.219-.239.467-.239.746 0 .233.056.433.166.601.114.164.259.302.435.413.176.108.361.197.554.268.193.069.371.124.533.167l.886.238c.227.06.48.142.759.247.281.106.549.249.805.431.258.179.472.409.639.69.168.281.252.627.252 1.036 0 .471-.124.897-.371 1.278-.244.381-.602.683-1.074.908-.469.224-1.038.336-1.709.336-.625 0-1.166-.1-1.623-.302-.455-.202-.813-.483-1.074-.844-.259-.361-.405-.78-.439-1.257h1.091c.028.33.139.602.332.818.196.213.443.372.742.477.301.103.625.154.971.154.404 0 .766-.065 1.087-.196.321-.134.575-.318.763-.554.187-.239.281-.517.281-.835 0-.29-.081-.526-.243-.708s-.375-.329-.639-.443-.55-.213-.857-.298l-1.074-.307c-.681-.196-1.221-.476-1.619-.84-.398-.363-.597-.839-.597-1.427 0-.489.133-.915.397-1.279.267-.366.625-.65 1.074-.852.451-.204.956-.307 1.512-.307.563 0 1.063.101 1.5.303.438.199.785.472 1.04.818.259.347.395.74.409 1.181z"/><path d="m234.698 200.324v-3.869h1.005v6.545h-1.005v-1.108h-.068c-.154.332-.392.615-.716.848-.324.23-.733.345-1.228.345-.409 0-.772-.089-1.09-.268-.319-.182-.569-.455-.75-.818-.182-.367-.273-.829-.273-1.385v-4.159h1.005v4.09c0 .478.134.858.401 1.142.27.285.614.427 1.031.427.25 0 .505-.064.763-.192.261-.128.48-.324.656-.588.179-.264.269-.601.269-1.01z"/><path d="m240.205 203.136c-.614 0-1.142-.145-1.586-.434-.443-.29-.784-.689-1.022-1.198-.239-.508-.358-1.089-.358-1.743 0-.664.122-1.251.366-1.76.247-.511.591-.91 1.031-1.197.444-.29.961-.435 1.552-.435.46 0 .875.086 1.244.256s.672.409.907.716c.236.307.383.665.439 1.074h-1.005c-.077-.299-.247-.563-.512-.793-.261-.233-.613-.349-1.056-.349-.392 0-.736.102-1.032.307-.292.201-.521.487-.686.856-.162.367-.243.797-.243 1.291 0 .506.08.946.239 1.321.162.375.389.666.682.874.295.207.642.311 1.04.311.261 0 .498-.046.711-.136.213-.091.394-.222.541-.392.148-.171.253-.375.316-.614h1.005c-.056.386-.197.734-.421 1.044-.222.307-.516.551-.883.733-.363.179-.786.268-1.269.268z"/><path d="m246.908 203.136c-.614 0-1.142-.145-1.586-.434-.443-.29-.784-.689-1.022-1.198-.239-.508-.358-1.089-.358-1.743 0-.664.122-1.251.366-1.76.247-.511.591-.91 1.031-1.197.444-.29.961-.435 1.552-.435.46 0 .875.086 1.244.256s.672.409.908.716c.235.307.382.665.439 1.074h-1.006c-.077-.299-.247-.563-.512-.793-.261-.233-.613-.349-1.056-.349-.392 0-.736.102-1.032.307-.292.201-.521.487-.686.856-.162.367-.243.797-.243 1.291 0 .506.08.946.239 1.321.162.375.389.666.682.874.295.207.642.311 1.04.311.261 0 .498-.046.711-.136.213-.091.394-.222.542-.392.147-.171.252-.375.315-.614h1.006c-.057.386-.198.734-.422 1.044-.222.307-.516.551-.882.733-.364.179-.787.268-1.27.268z"/><path d="m253.696 203.136c-.631 0-1.175-.139-1.632-.417-.455-.282-.805-.674-1.053-1.176-.244-.506-.366-1.094-.366-1.765 0-.67.122-1.261.366-1.772.248-.515.591-.915 1.032-1.202.443-.29.96-.435 1.551-.435.341 0 .677.057 1.01.171.332.113.635.298.907.554.273.253.49.588.652 1.005.162.418.243.932.243 1.543v.426h-5.045v-.869h4.023c0-.369-.074-.699-.222-.989-.145-.29-.352-.518-.622-.686-.267-.167-.583-.251-.946-.251-.401 0-.747.099-1.04.298-.29.196-.513.452-.669.767s-.234.653-.234 1.014v.58c0 .494.085.913.255 1.257.174.341.414.601.72.78.307.176.664.264 1.07.264.264 0 .503-.037.716-.111.216-.077.402-.19.558-.341.156-.153.277-.344.362-.571l.972.273c-.102.329-.274.619-.516.869-.241.247-.539.441-.895.58-.355.136-.754.204-1.197.204z"/><path d="m262.572 197.92-.903.256c-.057-.15-.141-.297-.251-.439-.108-.145-.256-.264-.444-.358-.187-.093-.427-.14-.72-.14-.4 0-.734.092-1.001.277-.264.181-.396.413-.396.694 0 .25.09.448.272.593.182.144.466.265.853.362l.971.238c.585.142 1.021.36 1.308.652.287.29.431.664.431 1.121 0 .375-.108.71-.324 1.006-.213.295-.511.528-.895.699-.384.17-.83.255-1.338.255-.668 0-1.22-.145-1.658-.434-.437-.29-.714-.713-.831-1.27l.955-.239c.091.352.263.617.515.793.256.176.59.264 1.002.264.469 0 .841-.099 1.116-.298.279-.202.418-.443.418-.725 0-.227-.08-.417-.239-.571-.159-.156-.403-.272-.733-.349l-1.091-.256c-.599-.142-1.039-.362-1.321-.66-.278-.302-.417-.678-.417-1.13 0-.369.104-.696.311-.98.21-.284.496-.507.856-.669.364-.162.776-.243 1.236-.243.648 0 1.157.142 1.526.426.372.285.636.66.792 1.125z"/><path d="m268.842 197.92-.903.256c-.057-.15-.141-.297-.252-.439-.108-.145-.256-.264-.443-.358-.188-.093-.428-.14-.72-.14-.401 0-.735.092-1.002.277-.264.181-.396.413-.396.694 0 .25.091.448.273.593.182.144.466.265.852.362l.972.238c.585.142 1.021.36 1.308.652.287.29.43.664.43 1.121 0 .375-.108.71-.324 1.006-.213.295-.511.528-.894.699-.384.17-.83.255-1.339.255-.667 0-1.22-.145-1.657-.434-.438-.29-.715-.713-.831-1.27l.954-.239c.091.352.263.617.516.793.256.176.59.264 1.001.264.469 0 .841-.099 1.117-.298.278-.202.418-.443.418-.725 0-.227-.08-.417-.239-.571-.159-.156-.404-.272-.733-.349l-1.091-.256c-.599-.142-1.04-.362-1.321-.66-.278-.302-.418-.678-.418-1.13 0-.369.104-.696.311-.98.211-.284.496-.507.857-.669.364-.162.776-.243 1.236-.243.648 0 1.156.142 1.525.426.373.285.637.66.793 1.125z"/><path d="m273.39 196.455v.852h-3.528v-.852zm-2.472 6.545v-7.449c0-.375.088-.687.265-.937.176-.25.404-.438.686-.563.281-.125.578-.187.89-.187.247 0 .449.02.605.059.157.04.273.077.35.111l-.29.869c-.051-.017-.122-.038-.213-.064-.088-.025-.205-.038-.349-.038-.333 0-.573.084-.721.252-.145.167-.217.413-.217.737v7.21z"/><path d="m278.924 200.324v-3.869h1.006v6.545h-1.006v-1.108h-.068c-.153.332-.392.615-.716.848-.324.23-.733.345-1.227.345-.409 0-.773-.089-1.091-.268-.318-.182-.568-.455-.75-.818-.182-.367-.273-.829-.273-1.385v-4.159h1.006v4.09c0 .478.134.858.401 1.142.27.285.613.427 1.031.427.25 0 .504-.064.763-.192.261-.128.48-.324.656-.588.179-.264.268-.601.268-1.01z"/><path d="m282.778 194.273v8.727h-1.006v-8.727z"/></g><path d="m32.5689 141.195c-.7783-3.511-.7578-7.152.0601-10.654.818-3.502 2.4123-6.775 4.6653-9.578 2.253-2.802 5.107-5.063 8.3512-6.614 3.2441-1.552 6.7954-2.355 10.3914-2.349l-.0111 7.2c-2.5172-.004-5.0031.558-7.274 1.644s-4.2687 2.668-5.8458 4.63-2.6931 4.254-3.2657 6.705c-.5725 2.451-.5869 5-.0421 7.457z" fill="#eef0f3"/><path d="m44.4435 42.9655c3.5431-1.9465 7.5204-2.9666 11.5629-2.9655l-.0019 7.2c-2.8298-.0008-5.6139.7133-8.094 2.0759z" fill="#eef0f3"/><path d="m212.963 134.66c.268 4.797-.91 9.565-3.381 13.685-2.472 4.12-6.123 7.404-10.481 9.426s-9.223 2.689-13.965 1.916c-4.742-.774-9.142-2.953-12.632-6.255s-5.908-7.576-6.942-12.268-.635-9.586 1.143-14.05c1.779-4.463 4.857-8.289 8.834-10.984 3.978-2.695 8.673-4.133 13.478-4.13l-.005 7.2c-3.363-.002-6.65 1.005-9.434 2.891-2.785 1.886-4.939 4.565-6.184 7.689s-1.524 6.55-.801 9.835c.724 3.284 2.417 6.276 4.86 8.587 2.442 2.312 5.523 3.837 8.842 4.379 3.319.541 6.725.074 9.776-1.341 3.051-1.416 5.606-3.714 7.336-6.599 1.73-2.884 2.555-6.221 2.367-9.579z" fill="#eef0f3"/><path d="m200.573 42.9747c5.12 2.8182 9.036 7.4077 11.012 12.9074 1.977 5.4998 1.879 11.5319-.275 16.9646s-6.217 9.8927-11.425 12.5432c-5.209 2.6505-11.206 3.3093-16.866 1.853-5.66-1.4564-10.594-4.9279-13.876-9.7633s-4.688-10.7023-3.952-16.5001c.735-5.7978 3.561-11.1279 7.947-14.9905s10.03-5.9921 15.875-5.989l-.004 7.2c-4.091-.0021-8.042 1.4885-11.112 4.1923-3.071 2.7038-5.049 6.4349-5.563 10.4934-.515 4.0584.468 8.1652 2.766 11.55s5.752 5.8148 9.713 6.8343c3.962 1.0195 8.16.5583 11.806-1.2971 3.646-1.8553 6.49-4.9773 7.998-8.7802s1.577-8.0254.193-11.8752c-1.384-3.8499-4.125-7.0625-7.709-9.0352z" fill="#eef0f3"/><path d="m77.171 219.304c-2.0003 3.747-4.959 6.895-8.5739 9.124-3.615 2.229-7.7567 3.459-12.0024 3.565-4.2456.105-8.4432-.918-12.1641-2.966-3.721-2.047-6.832-5.045-9.0155-8.688-2.1836-3.642-3.3614-7.799-3.4133-12.046-.0519-4.246 1.024-8.431 3.1179-12.126s5.1308-6.768 8.8006-8.905c3.6698-2.138 7.8411-3.263 12.0881-3.262l-.0025 7.2c-2.9729-.001-5.8928.787-8.4617 2.283s-4.6947 3.648-6.1604 6.234c-1.4657 2.587-2.2189 5.516-2.1825 8.488.0363 2.973.8608 5.883 2.3892 8.433 1.5285 2.549 3.7062 4.648 6.3109 6.081s5.543 2.15 8.5149 2.076c2.972-.074 5.8712-.935 8.4016-2.495 2.5305-1.561 4.6016-3.765 6.0018-6.387z" fill="#eef0f3"/><path d="m206.552 191.632c3.763 4.035 6.021 9.243 6.393 14.747.373 5.505-1.163 10.97-4.347 15.475-3.185 4.505-7.824 7.775-13.138 9.26-5.313 1.485-10.976 1.094-16.035-1.107s-9.205-6.078-11.74-10.977c-2.536-4.9-3.306-10.524-2.18-15.925 1.125-5.401 4.077-10.25 8.358-13.729 4.281-3.48 9.631-5.378 15.148-5.376l-.004 7.2c-3.861-.002-7.606 1.327-10.603 3.763s-5.063 5.83-5.851 9.61c-.788 3.781-.249 7.718 1.526 11.148s4.677 6.143 8.219 7.684c3.541 1.541 7.505 1.814 11.224.775 3.72-1.04 6.967-3.329 9.196-6.482 2.23-3.154 3.304-6.979 3.044-10.832-.261-3.854-1.841-7.499-4.475-10.324z" fill="#eef0f3"/></svg>