<svg fill="none" height="265" viewBox="0 0 267 265" width="267" xmlns="http://www.w3.org/2000/svg" xmlns:xlink="http://www.w3.org/1999/xlink"><filter id="a" color-interpolation-filters="sRGB" filterUnits="userSpaceOnUse" height="58.5723" width="243" x="12" y="-6"><feFlood flood-opacity="0" result="BackgroundImageFix"/><feGaussianBlur in="BackgroundImageFix" stdDeviation="4"/><feComposite in2="SourceAlpha" operator="in" result="effect1_backgroundBlur_661_3572"/><feColorMatrix in="SourceAlpha" result="hardAlpha" type="matrix" values="0 0 0 0 0 0 0 0 0 0 0 0 0 0 0 0 0 0 127 0"/><feOffset dy="2"/><feGaussianBlur stdDeviation="2"/><feComposite in2="hardAlpha" operator="out"/><feColorMatrix type="matrix" values="0 0 0 0 0.1152 0 0 0 0 0.1476 0 0 0 0 0.18 0 0 0 0.04 0"/><feBlend in2="effect1_backgroundBlur_661_3572" mode="normal" result="effect2_dropShadow_661_3572"/><feBlend in="SourceGraphic" in2="effect2_dropShadow_661_3572" mode="normal" result="shape"/></filter><filter id="b" color-interpolation-filters="sRGB" filterUnits="userSpaceOnUse" height="50.5723" width="235" x="16" y="0"><feFlood flood-opacity="0" result="BackgroundImageFix"/><feColorMatrix in="SourceAlpha" result="hardAlpha" type="matrix" values="0 0 0 0 0 0 0 0 0 0 0 0 0 0 0 0 0 0 127 0"/><feOffset dy="2"/><feGaussianBlur stdDeviation="2"/><feComposite in2="hardAlpha" operator="out"/><feColorMatrix type="matrix" values="0 0 0 0 0.1152 0 0 0 0 0.1476 0 0 0 0 0.18 0 0 0 0.04 0"/><feBlend in2="BackgroundImageFix" mode="normal" result="effect1_dropShadow_661_3572"/><feBlend in="SourceGraphic" in2="effect1_dropShadow_661_3572" mode="normal" result="shape"/></filter><filter id="c" color-interpolation-filters="sRGB" filterUnits="userSpaceOnUse" height="58.5723" width="243" x="12" y="208"><feFlood flood-opacity="0" result="BackgroundImageFix"/><feGaussianBlur in="BackgroundImageFix" stdDeviation="4"/><feComposite in2="SourceAlpha" operator="in" result="effect1_backgroundBlur_661_3572"/><feColorMatrix in="SourceAlpha" result="hardAlpha" type="matrix" values="0 0 0 0 0 0 0 0 0 0 0 0 0 0 0 0 0 0 127 0"/><feOffset dy="2"/><feGaussianBlur stdDeviation="2"/><feComposite in2="hardAlpha" operator="out"/><feColorMatrix type="matrix" values="0 0 0 0 0.1152 0 0 0 0 0.1476 0 0 0 0 0.18 0 0 0 0.04 0"/><feBlend in2="effect1_backgroundBlur_661_3572" mode="normal" result="effect2_dropShadow_661_3572"/><feBlend in="SourceGraphic" in2="effect2_dropShadow_661_3572" mode="normal" result="shape"/></filter><filter id="d" color-interpolation-filters="sRGB" filterUnits="userSpaceOnUse" height="50.5723" width="235" x="16" y="214.145"><feFlood flood-opacity="0" result="BackgroundImageFix"/><feColorMatrix in="SourceAlpha" result="hardAlpha" type="matrix" values="0 0 0 0 0 0 0 0 0 0 0 0 0 0 0 0 0 0 127 0"/><feOffset dy="2"/><feGaussianBlur stdDeviation="2"/><feComposite in2="hardAlpha" operator="out"/><feColorMatrix type="matrix" values="0 0 0 0 0.1152 0 0 0 0 0.1476 0 0 0 0 0.18 0 0 0 0.04 0"/><feBlend in2="BackgroundImageFix" mode="normal" result="effect1_dropShadow_661_3572"/><feBlend in="SourceGraphic" in2="effect1_dropShadow_661_3572" mode="normal" result="shape"/></filter><filter id="e" color-interpolation-filters="sRGB" filterUnits="userSpaceOnUse" height="53.2871" width="251" x="8" y="50.5723"><feFlood flood-opacity="0" result="BackgroundImageFix"/><feColorMatrix in="SourceAlpha" result="hardAlpha" type="matrix" values="0 0 0 0 0 0 0 0 0 0 0 0 0 0 0 0 0 0 127 0"/><feOffset dy="2"/><feGaussianBlur stdDeviation="2"/><feComposite in2="hardAlpha" operator="out"/><feColorMatrix type="matrix" values="0 0 0 0 0.1152 0 0 0 0 0.1476 0 0 0 0 0.18 0 0 0 0.04 0"/><feBlend in2="BackgroundImageFix" mode="normal" result="effect1_dropShadow_661_3572"/><feBlend in="SourceGraphic" in2="effect1_dropShadow_661_3572" mode="normal" result="shape"/></filter><filter id="f" color-interpolation-filters="sRGB" filterUnits="userSpaceOnUse" height="61.2871" width="259" x="4" y="47.5723"><feFlood flood-opacity="0" result="BackgroundImageFix"/><feColorMatrix in="SourceAlpha" result="hardAlpha" type="matrix" values="0 0 0 0 0 0 0 0 0 0 0 0 0 0 0 0 0 0 127 0"/><feOffset dy="3"/><feGaussianBlur stdDeviation="4"/><feComposite in2="hardAlpha" operator="out"/><feColorMatrix type="matrix" values="0 0 0 0 0.1152 0 0 0 0 0.1476 0 0 0 0 0.18 0 0 0 0.07 0"/><feBlend in2="BackgroundImageFix" mode="normal" result="effect1_dropShadow_661_3572"/><feColorMatrix in="SourceAlpha" result="hardAlpha" type="matrix" values="0 0 0 0 0 0 0 0 0 0 0 0 0 0 0 0 0 0 127 0"/><feOffset dy="2"/><feGaussianBlur stdDeviation="2"/><feComposite in2="hardAlpha" operator="out"/><feColorMatrix type="matrix" values="0 0 0 0 0.1152 0 0 0 0 0.1476 0 0 0 0 0.18 0 0 0 0.04 0"/><feBlend in2="effect1_dropShadow_661_3572" mode="normal" result="effect2_dropShadow_661_3572"/><feBlend in="SourceGraphic" in2="effect2_dropShadow_661_3572" mode="normal" result="shape"/></filter><filter id="g" color-interpolation-filters="sRGB" filterUnits="userSpaceOnUse" height="61.2871" width="259" x="4" y="154.859"><feFlood flood-opacity="0" result="BackgroundImageFix"/><feGaussianBlur in="BackgroundImageFix" stdDeviation="4"/><feComposite in2="SourceAlpha" operator="in" result="effect1_backgroundBlur_661_3572"/><feColorMatrix in="SourceAlpha" result="hardAlpha" type="matrix" values="0 0 0 0 0 0 0 0 0 0 0 0 0 0 0 0 0 0 127 0"/><feOffset dy="2"/><feGaussianBlur stdDeviation="2"/><feComposite in2="hardAlpha" operator="out"/><feColorMatrix type="matrix" values="0 0 0 0 0.1152 0 0 0 0 0.1476 0 0 0 0 0.18 0 0 0 0.04 0"/><feBlend in2="effect1_backgroundBlur_661_3572" mode="normal" result="effect2_dropShadow_661_3572"/><feBlend in="SourceGraphic" in2="effect2_dropShadow_661_3572" mode="normal" result="shape"/></filter><filter id="h" color-interpolation-filters="sRGB" filterUnits="userSpaceOnUse" height="53.2871" width="251" x="8" y="160.859"><feFlood flood-opacity="0" result="BackgroundImageFix"/><feColorMatrix in="SourceAlpha" result="hardAlpha" type="matrix" values="0 0 0 0 0 0 0 0 0 0 0 0 0 0 0 0 0 0 127 0"/><feOffset dy="2"/><feGaussianBlur stdDeviation="2"/><feComposite in2="hardAlpha" operator="out"/><feColorMatrix type="matrix" values="0 0 0 0 0.1152 0 0 0 0 0.1476 0 0 0 0 0.18 0 0 0 0.04 0"/><feBlend in2="BackgroundImageFix" mode="normal" result="effect1_dropShadow_661_3572"/><feBlend in="SourceGraphic" in2="effect1_dropShadow_661_3572" mode="normal" result="shape"/></filter><filter id="i" color-interpolation-filters="sRGB" filterUnits="userSpaceOnUse" height="56" width="267" x="0" y="103.859"><feFlood flood-opacity="0" result="BackgroundImageFix"/><feColorMatrix in="SourceAlpha" result="hardAlpha" type="matrix" values="0 0 0 0 0 0 0 0 0 0 0 0 0 0 0 0 0 0 127 0"/><feOffset dy="2"/><feGaussianBlur stdDeviation="2"/><feComposite in2="hardAlpha" operator="out"/><feColorMatrix type="matrix" values="0 0 0 0 0.1152 0 0 0 0 0.1476 0 0 0 0 0.18 0 0 0 0.04 0"/><feBlend in2="BackgroundImageFix" mode="normal" result="effect1_dropShadow_661_3572"/><feBlend in="SourceGraphic" in2="effect1_dropShadow_661_3572" mode="normal" result="shape"/></filter><g opacity=".7"><g filter="url(#a)"><path d="m20 3.77385c0-.97967.7182-1.77385 1.6042-1.77385h223.7918c.886 0 1.604.79418 1.604 1.77385v39.02475c0 .9797-.718 1.7738-1.604 1.7738h-223.7918c-.886 0-1.6042-.7941-1.6042-1.7738z" fill="#fff"/></g><g filter="url(#b)"><path clip-rule="evenodd" d="m245.396 2.88693h-223.7918c-.443 0-.8021.39709-.8021.88692v39.02475c0 .4898.3591.8869.8021.8869h223.7918c.443 0 .802-.3971.802-.8869v-39.02475c0-.48983-.359-.88692-.802-.88692zm-223.7918-.88693c-.886 0-1.6042.79418-1.6042 1.77385v39.02475c0 .9797.7182 1.7738 1.6042 1.7738h223.7918c.886 0 1.604-.7941 1.604-1.7738v-39.02475c0-.97967-.718-1.77385-1.604-1.77385z" fill="#dfe3e8" fill-rule="evenodd"/></g><rect fill="#e6fce5" height="21.2862" rx="2" width="54.0352" x="182.254" y="12.6426"/><path d="m196.559 17.8555c-.094-.0469-.211-.0703-.305-.0703-.117 0-.234.0234-.328.0703l-4.406 1.875c-.516.2343-.915.7265-.891 1.3359 0 2.3438.961 6.5859 4.992 8.5313.399.1875.844.1875 1.242 0 4.032-1.9454 4.992-6.1875 5.016-8.5313 0-.6094-.399-1.1016-.914-1.3359zm2.343 4.8281-3 3c-.234.2344-.586.2344-.797 0l-1.5-1.5c-.234-.2109-.234-.5625 0-.7734.211-.2344.563-.2344.797 0l1.102 1.1015 2.601-2.625c.211-.2109.563-.2109.774 0 .234.2344.234.586 0 .7969z" fill="#24a522"/><g fill="#078605"><path d="m209.141 19.1758c.382.0026.755.0703 1.117.2031.364.1302.693.3438.984.6406.292.2943.524.6888.696 1.1836.171.4948.257 1.1068.257 1.836.003.6875-.07 1.302-.218 1.8437-.146.5391-.356.9948-.629 1.3672-.274.3724-.603.6562-.989.8516-.385.1953-.819.2929-1.3.2929-.506 0-.954-.0989-1.344-.2968-.388-.198-.702-.4688-.942-.8125-.239-.3438-.386-.737-.441-1.1797h1.426c.073.3177.221.5703.445.7578.227.1849.512.2773.856.2773.554 0 .981-.2409 1.281-.7226.299-.4818.449-1.1511.449-2.0078h-.055c-.127.2291-.293.427-.496.5937-.203.1641-.433.2904-.691.3789-.255.0886-.526.1328-.813.1328-.468 0-.89-.112-1.265-.3359-.373-.224-.668-.5313-.887-.9219-.216-.3906-.325-.8372-.328-1.3398 0-.5209.12-.9883.359-1.4024.242-.4166.58-.7448 1.012-.9843.432-.2422.937-.3607 1.516-.3555zm.004 1.1719c-.282 0-.536.069-.762.207-.224.1354-.401.3203-.531.5547-.128.2317-.192.4909-.192.7773.003.2839.067.5417.192.7735.127.2317.3.4153.519.5507.221.1355.474.2032.758.2032.211 0 .407-.0404.59-.1211.182-.0808.341-.1927.476-.336.138-.1458.245-.3112.321-.4961.078-.1849.116-.3802.113-.5859 0-.2734-.065-.526-.195-.7578-.128-.2318-.304-.418-.528-.5586-.221-.1406-.475-.2109-.761-.2109z"/><path d="m216.273 19.1758c.383.0026.756.0703 1.118.2031.364.1302.692.3438.984.6406.292.2943.523.6888.695 1.1836s.258 1.1068.258 1.836c.003.6875-.07 1.302-.219 1.8437-.145.5391-.355.9948-.629 1.3672-.273.3724-.602.6562-.988.8516-.385.1953-.819.2929-1.301.2929-.505 0-.953-.0989-1.343-.2968-.388-.198-.702-.4688-.942-.8125-.239-.3438-.386-.737-.441-1.1797h1.426c.073.3177.221.5703.445.7578.226.1849.512.2773.855.2773.555 0 .982-.2409 1.282-.7226.299-.4818.449-1.1511.449-2.0078h-.055c-.127.2291-.293.427-.496.5937-.203.1641-.433.2904-.691.3789-.256.0886-.526.1328-.813.1328-.469 0-.89-.112-1.265-.3359-.373-.224-.668-.5313-.887-.9219-.216-.3906-.326-.8372-.328-1.3398 0-.5209.12-.9883.359-1.4024.242-.4166.58-.7448 1.012-.9843.432-.2422.937-.3607 1.515-.3555zm.004 1.1719c-.281 0-.535.069-.761.207-.224.1354-.401.3203-.532.5547-.127.2317-.191.4909-.191.7773.003.2839.066.5417.191.7735.128.2317.301.4153.52.5507.221.1355.474.2032.758.2032.211 0 .407-.0404.59-.1211.182-.0808.341-.1927.476-.336.138-.1458.245-.3112.32-.4961.079-.1849.116-.3802.114-.5859 0-.2734-.065-.526-.196-.7578-.127-.2318-.303-.418-.527-.5586-.221-.1406-.475-.2109-.762-.2109z"/><path d="m224.906 25.7852v-.4219c0-.3099.065-.5951.196-.8555.132-.2604.325-.47.578-.6289.252-.1588.558-.2383.918-.2383.369 0 .679.0795.929.2383.25.1563.439.3646.567.625.13.2604.195.5469.195.8594v.4219c0 .3099-.065.595-.195.8554s-.322.4701-.574.6289c-.25.1589-.558.2383-.922.2383-.365 0-.674-.0794-.926-.2383-.253-.1588-.444-.3685-.574-.6289-.128-.2604-.192-.5455-.192-.8554zm1.02-.4219v.4219c0 .2057.049.3945.148.5664.099.1718.274.2578.524.2578.252 0 .425-.0847.519-.2539.097-.1719.145-.362.145-.5703v-.4219c0-.2084-.046-.3985-.137-.5703-.091-.1745-.267-.2617-.527-.2617-.245 0-.418.0872-.52.2617-.101.1718-.152.3619-.152.5703zm-5.086-4.1563v-.4218c0-.3125.066-.599.199-.8594s.326-.4688.578-.625c.253-.1589.559-.2383.918-.2383.367 0 .676.0794.926.2383.253.1562.443.3646.57.625.128.2604.192.5469.192.8594v.4218c0 .3125-.065.599-.196.8594-.127.2578-.317.4649-.57.6211-.253.1563-.56.2344-.922.2344-.367 0-.677-.0781-.93-.2344-.25-.1562-.44-.3646-.57-.625s-.195-.5456-.195-.8555zm1.027-.4218v.4218c0 .2084.048.3985.145.5703.099.1693.273.254.523.254s.422-.0847.516-.254c.096-.1718.144-.3619.144-.5703v-.4218c0-.2084-.045-.3985-.136-.5704-.092-.1744-.266-.2617-.524-.2617-.247 0-.42.0873-.519.2617-.099.1745-.149.3646-.149.5704zm-.582 6.5 5.5-8h.977l-5.5 8z"/></g><rect fill="#eef0f3" height="12" rx="1" width="81" x="35" y="19"/></g><g opacity=".7"><g filter="url(#c)"><path d="m20 217.774c0-.98.7182-1.774 1.6042-1.774h223.7918c.886 0 1.604.794 1.604 1.774v39.025c0 .979-.718 1.773-1.604 1.773h-223.7918c-.886 0-1.6042-.794-1.6042-1.773z" fill="#fff"/></g><rect fill="#eef0f3" height="12" rx="1" width="94" x="38" y="231"/><g filter="url(#d)"><path clip-rule="evenodd" d="m245.396 217.031h-223.7918c-.443 0-.8021.398-.8021.887v39.025c0 .49.3591.887.8021.887h223.7918c.443 0 .802-.397.802-.887v-39.025c0-.489-.359-.887-.802-.887zm-223.7918-.886c-.886 0-1.6042.794-1.6042 1.773v39.025c0 .98.7182 1.774 1.6042 1.774h223.7918c.886 0 1.604-.794 1.604-1.774v-39.025c0-.979-.718-1.773-1.604-1.773z" fill="#dfe3e8" fill-rule="evenodd"/></g><rect fill="#fff6c9" height="21.2862" rx="2" width="53.3497" x="182.254" y="226.789"/><path d="m196.254 231.932c.094 0 .211.023.305.07l4.406 1.875c.515.234.914.727.914 1.336-.024 2.344-.984 6.586-5.016 8.531-.398.188-.843.188-1.242 0-4.031-1.945-4.992-6.187-4.992-8.531-.024-.609.375-1.102.891-1.336l4.406-1.875c.094-.047.211-.07.328-.07zm0 1.57v8.859c3.234-1.57 4.101-5.015 4.125-7.101z" fill="#e0b115"/><g fill="#b78b06"><path d="m209.231 241.541c-.581 0-1.097-.098-1.547-.293-.448-.195-.8-.462-1.055-.801-.253-.341-.378-.728-.375-1.16-.003-.336.07-.644.219-.926.148-.281.349-.515.601-.703.255-.19.539-.311.852-.363v-.055c-.412-.091-.745-.301-1-.629-.253-.33-.378-.712-.375-1.144-.003-.412.112-.779.344-1.102.231-.323.549-.577.953-.761.403-.188.864-.282 1.383-.282.513 0 .97.094 1.371.282.403.184.721.438.953.761.234.323.351.69.351 1.102 0 .432-.129.814-.386 1.144-.256.328-.585.538-.989.629v.055c.313.052.594.173.844.363.253.188.453.422.602.703.151.282.226.59.226.926 0 .432-.127.819-.383 1.16-.255.339-.606.606-1.054.801-.446.195-.957.293-1.535.293zm0-1.117c.299 0 .559-.051.781-.153.221-.104.393-.25.515-.437.123-.188.185-.404.188-.648-.003-.256-.069-.481-.199-.676-.128-.198-.304-.353-.528-.465-.221-.112-.474-.168-.757-.168-.287 0-.542.056-.766.168s-.401.267-.531.465c-.128.195-.19.42-.188.676-.002.244.057.46.18.648.122.185.294.329.515.434.224.104.487.156.79.156zm0-3.645c.244 0 .46-.049.648-.148.19-.099.34-.237.449-.414.11-.177.166-.382.168-.613-.002-.23-.057-.43-.164-.602-.107-.175-.255-.309-.445-.402-.19-.097-.409-.145-.656-.145-.253 0-.476.048-.668.145-.191.093-.339.227-.446.402-.104.172-.155.372-.152.602-.003.231.049.436.156.613.11.174.259.312.449.414.193.099.413.148.661.148z"/><path d="m213.78 241.432 3.403-6.735v-.054h-3.95v-1.211h5.45v1.238l-3.399 6.762z"/><path d="m224.221 239.932v-.422c0-.31.065-.595.195-.856.133-.26.326-.47.578-.629.253-.158.559-.238.918-.238.37 0 .68.08.93.238.25.157.439.365.566.625.13.261.196.547.196.86v.422c0 .31-.066.595-.196.855-.13.261-.321.47-.574.629-.25.159-.557.238-.922.238-.364 0-.673-.079-.926-.238-.252-.159-.444-.368-.574-.629-.127-.26-.191-.545-.191-.855zm1.019-.422v.422c0 .205.05.394.149.566s.273.258.523.258c.253 0 .426-.085.52-.254.096-.172.144-.362.144-.57v-.422c0-.209-.045-.399-.136-.571-.092-.174-.267-.261-.528-.261-.245 0-.418.087-.519.261-.102.172-.153.362-.153.571zm-5.086-4.156v-.422c0-.313.067-.599.2-.86.132-.26.325-.468.578-.625.252-.159.558-.238.918-.238.367 0 .675.079.925.238.253.157.443.365.571.625.127.261.191.547.191.86v.422c0 .312-.065.598-.195.859-.128.258-.318.465-.57.621-.253.156-.56.234-.922.234-.368 0-.677-.078-.93-.234-.25-.156-.44-.365-.57-.625-.131-.26-.196-.546-.196-.855zm1.028-.422v.422c0 .208.048.398.144.57.099.169.274.254.524.254s.422-.085.515-.254c.097-.172.145-.362.145-.57v-.422c0-.209-.046-.399-.137-.571-.091-.174-.266-.261-.523-.261-.248 0-.421.087-.52.261-.099.175-.148.365-.148.571zm-.582 6.5 5.5-8h.976l-5.5 8z"/></g></g><g opacity=".8"><g filter="url(#e)"><path d="m12 54.4592c0-1.0421.7689-1.8869 1.7173-1.8869h239.5657c.948 0 1.717.8448 1.717 1.8869v41.5124c0 1.0421-.769 1.8869-1.717 1.8869h-239.5657c-.9484 0-1.7173-.8448-1.7173-1.8869z" fill="#fff"/></g><g filter="url(#f)"><path clip-rule="evenodd" d="m253.283 53.5157h-239.5657c-.4742 0-.8586.4224-.8586.9435v41.5124c0 .521.3844.9434.8586.9434h239.5657c.474 0 .858-.4224.858-.9434v-41.5124c0-.5211-.384-.9435-.858-.9435zm-239.5657-.9434c-.9484 0-1.7173.8448-1.7173 1.8869v41.5124c0 1.0421.7689 1.8869 1.7173 1.8869h239.5657c.948 0 1.717-.8448 1.717-1.8869v-41.5124c0-1.0421-.769-1.8869-1.717-1.8869z" fill="#dfe3e8" fill-rule="evenodd"/></g><rect fill="#e6fce5" height="22.6431" rx="2" width="54.0352" x="186.127" y="63.8945"/><path d="m200.432 69.7871c-.094-.0469-.211-.0703-.305-.0703-.117 0-.234.0234-.328.0703l-4.406 1.875c-.516.2344-.914.7266-.891 1.3359 0 2.3438.961 6.586 4.992 8.5313.399.1875.844.1875 1.242 0 4.032-1.9453 4.993-6.1875 5.016-8.5313 0-.6093-.398-1.1015-.914-1.3359zm2.343 4.8281-3 3c-.234.2344-.586.2344-.796 0l-1.5-1.5c-.235-.2109-.235-.5625 0-.7734.21-.2344.562-.2344.796 0l1.102 1.1016 2.602-2.625c.21-.211.562-.211.773 0 .234.2343.234.5859 0 .7968z" fill="#24a522"/><g fill="#078605"><path d="m213.014 71.1074c.382.0026.755.0703 1.117.2031.364.1303.693.3438.984.6407.292.2942.524.6888.696 1.1836.171.4948.257 1.1067.257 1.8359.003.6875-.07 1.3021-.218 1.8438-.146.539-.356.9947-.629 1.3671-.274.3724-.603.6563-.989.8516-.385.1953-.819.293-1.3.293-.506 0-.953-.099-1.344-.2969-.388-.1979-.702-.4688-.942-.8125-.239-.3438-.386-.737-.441-1.1797h1.426c.073.3177.221.5703.445.7578.227.1849.512.2774.856.2774.554 0 .981-.2409 1.281-.7227.299-.4818.449-1.151.449-2.0078h-.055c-.127.2292-.293.4271-.496.5937-.203.1641-.433.2904-.691.379-.255.0885-.526.1328-.813.1328-.468 0-.89-.112-1.265-.336-.373-.2239-.668-.5312-.887-.9218-.216-.3907-.325-.8373-.328-1.3399 0-.5208.12-.9883.359-1.4023.243-.4167.58-.7448 1.012-.9844.432-.2422.938-.3607 1.516-.3555zm.004 1.1719c-.282 0-.536.069-.762.207-.224.1354-.401.3203-.531.5547-.128.2318-.192.4909-.192.7774.003.2838.067.5416.192.7734.127.2318.3.4154.519.5508.221.1354.474.2031.758.2031.211 0 .408-.0404.59-.1211s.341-.1927.476-.3359c.138-.1459.245-.3112.321-.4961.078-.1849.116-.3802.113-.586 0-.2734-.065-.526-.195-.7578-.128-.2317-.304-.4179-.528-.5586-.221-.1406-.475-.2109-.761-.2109z"/><path d="m220.146 71.1074c.383.0026.756.0703 1.118.2031.364.1303.692.3438.984.6407.292.2942.523.6888.695 1.1836s.258 1.1067.258 1.8359c.003.6875-.07 1.3021-.219 1.8438-.145.539-.355.9947-.628 1.3671-.274.3724-.603.6563-.989.8516-.385.1953-.819.293-1.301.293-.505 0-.953-.099-1.343-.2969-.388-.1979-.702-.4688-.942-.8125-.239-.3438-.386-.737-.441-1.1797h1.426c.073.3177.221.5703.445.7578.227.1849.512.2774.855.2774.555 0 .982-.2409 1.282-.7227.299-.4818.449-1.151.449-2.0078h-.055c-.127.2292-.293.4271-.496.5937-.203.1641-.433.2904-.691.379-.255.0885-.526.1328-.813.1328-.469 0-.89-.112-1.265-.336-.373-.2239-.668-.5312-.887-.9218-.216-.3907-.326-.8373-.328-1.3399 0-.5208.12-.9883.359-1.4023.242-.4167.58-.7448 1.012-.9844.432-.2422.937-.3607 1.515-.3555zm.004 1.1719c-.281 0-.535.069-.761.207-.224.1354-.401.3203-.532.5547-.127.2318-.191.4909-.191.7774.003.2838.066.5416.191.7734.128.2318.301.4154.52.5508.221.1354.474.2031.758.2031.211 0 .407-.0404.59-.1211.182-.0807.341-.1927.476-.3359.138-.1459.245-.3112.32-.4961.079-.1849.116-.3802.114-.586 0-.2734-.065-.526-.196-.7578-.127-.2317-.303-.4179-.527-.5586-.221-.1406-.475-.2109-.762-.2109z"/><path d="m228.779 77.7168v-.4219c0-.3099.065-.595.196-.8554.132-.2605.325-.4701.578-.629.252-.1588.558-.2382.918-.2382.369 0 .679.0794.929.2382.25.1563.439.3646.567.625.13.2605.195.5469.195.8594v.4219c0 .3099-.065.595-.195.8555-.13.2604-.322.47-.574.6289-.25.1588-.558.2383-.922.2383-.365 0-.673-.0795-.926-.2383-.253-.1589-.444-.3685-.574-.6289-.128-.2605-.192-.5456-.192-.8555zm1.02-.4219v.4219c0 .2057.049.3945.148.5664s.274.2578.524.2578c.252 0 .425-.0846.519-.2539.097-.1719.145-.362.145-.5703v-.4219c0-.2083-.046-.3984-.137-.5703-.091-.1745-.267-.2617-.527-.2617-.245 0-.418.0872-.52.2617-.101.1719-.152.362-.152.5703zm-5.086-4.1562v-.4219c0-.3125.066-.599.199-.8594s.326-.4687.578-.625c.253-.1588.559-.2383.918-.2383.367 0 .676.0795.926.2383.253.1563.443.3646.57.625.128.2604.192.5469.192.8594v.4219c0 .3125-.065.5989-.196.8593-.127.2579-.317.4649-.57.6211-.253.1563-.56.2344-.922.2344-.367 0-.677-.0781-.929-.2344-.25-.1562-.441-.3645-.571-.625-.13-.2604-.195-.5455-.195-.8554zm1.027-.4219v.4219c0 .2083.048.3984.145.5703.099.1693.273.2539.523.2539s.422-.0846.516-.2539c.096-.1719.144-.362.144-.5703v-.4219c0-.2083-.045-.3984-.136-.5703-.092-.1745-.266-.2617-.524-.2617-.247 0-.42.0872-.519.2617s-.149.3646-.149.5703zm-.582 6.5 5.5-8h.977l-5.5 8z"/></g><rect fill="#eef0f3" height="12" rx="1" width="125" x="30" y="70"/></g><g opacity=".8"><g filter="url(#g)"><path d="m12 164.746c0-1.042.7689-1.887 1.7173-1.887h239.5657c.948 0 1.717.845 1.717 1.887v41.513c0 1.042-.769 1.887-1.717 1.887h-239.5657c-.9484 0-1.7173-.845-1.7173-1.887z" fill="#fff"/></g><g filter="url(#h)"><path clip-rule="evenodd" d="m253.283 163.803h-239.5657c-.4742 0-.8586.422-.8586.943v41.513c0 .521.3844.943.8586.943h239.5657c.474 0 .858-.422.858-.943v-41.513c0-.521-.384-.943-.858-.943zm-239.5657-.944c-.9484 0-1.7173.845-1.7173 1.887v41.513c0 1.042.7689 1.887 1.7173 1.887h239.5657c.948 0 1.717-.845 1.717-1.887v-41.513c0-1.042-.769-1.887-1.717-1.887z" fill="#dfe3e8" fill-rule="evenodd"/></g><rect fill="#e6fce5" height="22.6431" rx="2" width="54.0352" x="186.127" y="174.182"/><path d="m200.432 180.074c-.094-.047-.211-.07-.305-.07-.117 0-.234.023-.328.07l-4.406 1.875c-.516.235-.914.727-.891 1.336 0 2.344.961 6.586 4.992 8.531.399.188.844.188 1.242 0 4.032-1.945 4.993-6.187 5.016-8.531 0-.609-.398-1.101-.914-1.336zm2.343 4.828-3 3c-.234.235-.586.235-.796 0l-1.5-1.5c-.235-.211-.235-.562 0-.773.21-.234.562-.234.796 0l1.102 1.101 2.602-2.625c.21-.21.562-.21.773 0 .234.235.234.586 0 .797z" fill="#24a522"/><g fill="#078605"><path d="m213.014 181.395c.382.002.755.07 1.117.203.364.13.693.343.984.64.292.295.524.689.696 1.184.171.495.257 1.107.257 1.836.003.687-.07 1.302-.218 1.844-.146.539-.356.994-.629 1.367-.274.372-.603.656-.989.851-.385.196-.819.293-1.3.293-.506 0-.953-.099-1.344-.297-.388-.198-.702-.468-.942-.812-.239-.344-.386-.737-.441-1.18h1.426c.073.318.221.571.445.758.227.185.512.277.856.277.554 0 .981-.241 1.281-.722.299-.482.449-1.151.449-2.008h-.055c-.127.229-.293.427-.496.594-.203.164-.433.29-.691.379-.255.088-.526.132-.813.132-.468 0-.89-.112-1.265-.336-.373-.224-.668-.531-.887-.921-.216-.391-.325-.838-.328-1.34 0-.521.12-.989.359-1.403.243-.416.58-.744 1.012-.984.432-.242.938-.361 1.516-.355zm.004 1.171c-.282 0-.536.069-.762.207-.224.136-.401.321-.531.555-.128.232-.192.491-.192.777.003.284.067.542.192.774.127.232.3.415.519.551.221.135.474.203.758.203.211 0 .408-.041.59-.121.182-.081.341-.193.476-.336.138-.146.245-.311.321-.496.078-.185.116-.381.113-.586 0-.274-.065-.526-.195-.758-.128-.232-.304-.418-.528-.559-.221-.14-.475-.211-.761-.211z"/><path d="m220.299 189.613c-.383-.002-.757-.069-1.121-.199-.365-.133-.693-.348-.985-.644-.291-.3-.523-.697-.695-1.192-.172-.497-.256-1.113-.254-1.848 0-.684.073-1.295.219-1.832.146-.536.355-.989.629-1.359.273-.372.603-.656.988-.851.388-.196.822-.293 1.301-.293.502 0 .948.098 1.336.296.39.198.706.469.945.813.24.341.388.726.445 1.156h-1.425c-.073-.307-.223-.552-.45-.734-.224-.185-.507-.278-.851-.278-.555 0-.982.241-1.281.723-.297.482-.447 1.143-.45 1.984h.055c.128-.229.293-.425.496-.589s.432-.291.688-.379c.257-.091.53-.137.816-.137.469 0 .889.112 1.262.336.375.224.672.532.89.926.219.39.327.838.325 1.343.002.527-.118.999-.36 1.418-.242.417-.579.745-1.011.985-.433.239-.937.358-1.512.355zm-.008-1.172c.284 0 .538-.069.762-.207s.401-.324.531-.558c.13-.235.194-.498.191-.789.003-.287-.06-.546-.187-.778-.125-.231-.298-.415-.52-.55-.221-.136-.474-.204-.757-.204-.211 0-.408.041-.59.122-.183.08-.341.192-.477.336-.135.14-.242.304-.32.492-.076.185-.115.383-.117.593.002.279.067.536.195.77s.303.422.527.562c.224.141.478.211.762.211z"/><path d="m228.779 188.004v-.422c0-.31.065-.595.196-.855.132-.261.325-.47.578-.629.252-.159.558-.239.918-.239.369 0 .679.08.929.239.25.156.439.364.567.625.13.26.195.547.195.859v.422c0 .31-.065.595-.195.855-.13.261-.322.47-.574.629-.25.159-.558.239-.922.239-.365 0-.673-.08-.926-.239s-.444-.368-.574-.629c-.128-.26-.192-.545-.192-.855zm1.02-.422v.422c0 .206.049.394.148.566s.274.258.524.258c.252 0 .425-.085.519-.254.097-.172.145-.362.145-.57v-.422c0-.208-.046-.398-.137-.57-.091-.175-.267-.262-.527-.262-.245 0-.418.087-.52.262-.101.172-.152.362-.152.57zm-5.086-4.156v-.422c0-.313.066-.599.199-.859.133-.261.326-.469.578-.625.253-.159.559-.239.918-.239.367 0 .676.08.926.239.253.156.443.364.57.625.128.26.192.546.192.859v.422c0 .312-.065.599-.196.859-.127.258-.317.465-.57.621-.253.157-.56.235-.922.235-.367 0-.677-.078-.929-.235-.25-.156-.441-.364-.571-.625-.13-.26-.195-.545-.195-.855zm1.027-.422v.422c0 .208.048.398.145.57.099.169.273.254.523.254s.422-.085.516-.254c.096-.172.144-.362.144-.57v-.422c0-.208-.045-.399-.136-.57-.092-.175-.266-.262-.524-.262-.247 0-.42.087-.519.262-.099.174-.149.364-.149.57zm-.582 6.5 5.5-8h.977l-5.5 8z"/></g><rect fill="#eef0f3" height="12" rx="1" width="132" x="30" y="180"/></g><g filter="url(#i)"><rect fill="#fff" height="48" rx="2" width="259" x="4" y="105.859"/><rect height="47" rx="1.5" stroke="#dfe3e8" width="258" x="4.5" y="106.359"/></g><rect fill="#e6fce5" height="24" rx="2" width="56" x="190" y="117.859"/><path d="m204.305 124.43c-.094-.047-.211-.071-.305-.071-.117 0-.234.024-.328.071l-4.406 1.875c-.516.234-.914.726-.891 1.336 0 2.343.961 6.586 4.992 8.531.399.187.844.187 1.242 0 4.032-1.945 4.993-6.188 5.016-8.531 0-.61-.398-1.102-.914-1.336zm2.343 4.828-3 3c-.234.234-.586.234-.796 0l-1.5-1.5c-.235-.211-.235-.563 0-.774.21-.234.562-.234.796 0l1.102 1.102 2.602-2.625c.21-.211.562-.211.773 0 .234.234.234.586 0 .797z" fill="#24a522"/><path d="m217.488 125.75c.383.003.755.07 1.117.203.365.13.693.344.985.641.292.294.523.689.695 1.183.172.495.258 1.107.258 1.836.003.688-.07 1.302-.219 1.844-.146.539-.355.995-.629 1.367-.273.373-.603.656-.988.852-.385.195-.819.293-1.301.293-.505 0-.953-.099-1.344-.297-.388-.198-.701-.469-.941-.813-.239-.343-.387-.737-.441-1.179h1.425c.073.317.222.57.446.757.226.185.512.278.855.278.555 0 .982-.241 1.282-.723.299-.482.449-1.151.449-2.008h-.055c-.128.23-.293.427-.496.594-.203.164-.434.29-.691.379-.256.089-.527.133-.813.133-.469 0-.891-.112-1.266-.336-.372-.224-.668-.531-.886-.922-.216-.391-.326-.837-.328-1.34 0-.521.119-.988.359-1.402.242-.417.579-.745 1.012-.985.432-.242.937-.36 1.515-.355zm.004 1.172c-.281 0-.535.069-.762.207-.223.135-.401.32-.531.555-.127.231-.191.49-.191.777.002.284.066.542.191.773.128.232.301.416.52.551.221.136.474.203.758.203.211 0 .407-.04.589-.121.183-.081.342-.193.477-.336.138-.146.245-.311.32-.496.078-.185.116-.38.114-.586 0-.273-.066-.526-.196-.758-.127-.231-.303-.418-.527-.558-.221-.141-.475-.211-.762-.211zm7.129-1.172c.383.003.755.07 1.117.203.365.13.693.344.985.641.291.294.523.689.695 1.183.172.495.258 1.107.258 1.836.002.688-.071 1.302-.219 1.844-.146.539-.355.995-.629 1.367-.273.373-.603.656-.988.852-.386.195-.819.293-1.301.293-.505 0-.953-.099-1.344-.297-.388-.198-.702-.469-.941-.813-.24-.343-.387-.737-.441-1.179h1.425c.073.317.222.57.446.757.226.185.511.278.855.278.555 0 .982-.241 1.281-.723.3-.482.45-1.151.45-2.008h-.055c-.128.23-.293.427-.496.594-.203.164-.434.29-.692.379-.255.089-.526.133-.812.133-.469 0-.891-.112-1.266-.336-.372-.224-.668-.531-.886-.922-.217-.391-.326-.837-.329-1.34 0-.521.12-.988.36-1.402.242-.417.579-.745 1.011-.985.433-.242.938-.36 1.516-.355zm.004 1.172c-.281 0-.535.069-.762.207-.224.135-.401.32-.531.555-.128.231-.191.49-.191.777.002.284.066.542.191.773.128.232.301.416.52.551.221.136.474.203.757.203.211 0 .408-.04.59-.121.183-.081.341-.193.477-.336.138-.146.245-.311.32-.496.078-.185.116-.38.113-.586 0-.273-.065-.526-.195-.758-.128-.231-.303-.418-.527-.558-.222-.141-.476-.211-.762-.211zm8.629 5.437v-.422c0-.309.065-.595.195-.855.133-.26.326-.47.578-.629.253-.159.559-.238.918-.238.37 0 .68.079.93.238.25.156.439.365.566.625.131.261.196.547.196.859v.422c0 .31-.065.595-.196.856-.13.26-.321.47-.574.629-.25.159-.557.238-.922.238-.364 0-.673-.079-.925-.238-.253-.159-.444-.369-.575-.629-.127-.261-.191-.546-.191-.856zm1.019-.422v.422c0 .206.05.395.149.567s.273.258.523.258c.253 0 .426-.085.52-.254.096-.172.144-.362.144-.571v-.422c0-.208-.045-.398-.136-.57-.091-.174-.267-.262-.528-.262-.244 0-.418.088-.519.262-.102.172-.153.362-.153.57zm-5.085-4.156v-.422c0-.312.066-.599.199-.859s.325-.469.578-.625c.252-.159.558-.238.918-.238.367 0 .676.079.926.238.252.156.442.365.57.625s.191.547.191.859v.422c0 .313-.065.599-.195.86-.128.257-.318.464-.57.621-.253.156-.56.234-.922.234-.367 0-.677-.078-.93-.234-.25-.157-.44-.365-.57-.625-.13-.261-.195-.546-.195-.856zm1.027-.422v.422c0 .209.048.399.144.571.099.169.274.253.524.253s.422-.084.515-.253c.097-.172.145-.362.145-.571v-.422c0-.208-.046-.398-.137-.57-.091-.174-.265-.262-.523-.262-.248 0-.421.088-.52.262-.099.175-.148.365-.148.57zm-.582 6.5 5.5-8h.976l-5.5 8z" fill="#078605"/><path d="m27.9148 135.002c-.6863 0-1.2773-.155-1.7728-.466-.4924-.314-.8709-.746-1.1356-1.297s-.397-1.182-.397-1.893c0-.72.1354-1.355.4062-1.906.2709-.554.6525-.987 1.1449-1.298.4924-.31 1.0726-.466 1.7404-.466.5386 0 1.0187.1 1.4404.3.4216.197.7617.474 1.0202.831.2616.357.417.774.4663 1.251h-1.3434c-.0739-.332-.2432-.618-.5078-.858-.2616-.24-.6125-.361-1.0526-.361-.3847 0-.7217.102-1.011.305-.2862.2-.5094.486-.6694.859-.16.369-.24.806-.24 1.311 0 .517.0784.963.2354 1.339.157.375.3785.666.6648.872.2893.206.6293.31 1.0202.31.2616 0 .4986-.048.7109-.144.2155-.098.3955-.238.5402-.42.1477-.181.2508-.4.3093-.655h1.3434c-.0493.458-.1985.868-.4478 1.228s-.5832.643-1.0018.849c-.4155.206-.9033.309-1.4634.309zm5.7694-4.353v4.21h-1.3803v-9.454h1.3618v3.518h.0878c.1662-.382.4201-.685.7617-.91s.7879-.337 1.3388-.337c.4862 0 .9109.1 1.2741.3.3662.2.6494.499.8494.896.2032.394.3047.886.3047 1.477v4.51h-1.3803v-4.344c0-.52-.1339-.923-.4016-1.209-.2678-.29-.6402-.434-1.1172-.434-.3263 0-.6186.069-.8772.208-.2554.138-.457.341-.6047.609-.1447.265-.217.585-.217.96zm6.44 4.21v-7.091h1.3342v1.127h.0738c.1293-.382.357-.682.6833-.9.3293-.222.7017-.333 1.1172-.333.0861 0 .1877.003.3046.01.1201.006.2139.013.2816.023v1.32c-.0554-.015-.1538-.032-.2954-.051-.1416-.021-.2832-.032-.4247-.032-.3263 0-.6171.069-.8725.208-.2524.135-.4525.324-.6002.567-.1477.24-.2216.514-.2216.822v4.33zm4.9893 0v-7.091h1.3803v7.091zm.697-8.185c-.24 0-.4462-.08-.6186-.24-.1692-.163-.2539-.357-.2539-.581 0-.228.0847-.422.2539-.582.1724-.163.3786-.245.6186-.245.2401 0 .4448.082.614.245.1724.16.2586.354.2586.582 0 .224-.0862.418-.2586.581-.1692.16-.3739.24-.614.24zm7.8538 2.826-1.251.221c-.0524-.16-.1355-.312-.2493-.457-.1108-.144-.2616-.263-.4524-.355-.1909-.093-.4294-.139-.7156-.139-.3909 0-.7171.088-.9787.263-.2616.173-.3924.396-.3924.67 0 .237.0877.428.2632.572.1754.145.4585.263.8494.356l1.1264.258c.6525.151 1.1387.383 1.4588.697s.4801.722.4801 1.224c0 .424-.1231.803-.3693 1.135-.2431.33-.5832.588-1.0202.776-.434.188-.9372.281-1.5096.281-.7941 0-1.4419-.169-1.9436-.507-.5016-.342-.8094-.827-.9233-1.455l1.3342-.203c.0831.348.2539.611.5124.79.2586.175.5956.263 1.011.263.4525 0 .8141-.094 1.0849-.282.2708-.191.4063-.423.4063-.697 0-.221-.0831-.408-.2493-.558-.1631-.151-.414-.265-.7525-.342l-1.2003-.263c-.6617-.151-1.151-.391-1.468-.72-.314-.33-.4709-.747-.4709-1.251 0-.419.1169-.785.3508-1.099s.5571-.559.9695-.734c.4124-.179.8848-.268 1.4173-.268.7663 0 1.3695.166 1.8096.499.4401.329.731.771.8725 1.325zm4.9662-1.732v1.108h-3.8732v-1.108zm-2.8345-1.698h1.3803v6.707c0 .268.04.47.12.605.0801.132.1832.223.3093.272.1293.047.2693.07.4201.07.1108 0 .2078-.008.2909-.023.0831-.016.1477-.028.1939-.037l.2493 1.14c-.0801.031-.1939.062-.3417.092-.1477.034-.3323.053-.5539.056-.3632.006-.7017-.059-1.0157-.194-.3139-.136-.5678-.345-.7617-.628s-.2908-.639-.2908-1.066zm7.2721 8.932c-.6648 0-1.2449-.152-1.7404-.457-.4955-.304-.8802-.73-1.1541-1.278s-.4109-1.188-.4109-1.921c0-.735.137-1.379.4109-1.929.2739-.551.6586-.979 1.1541-1.284s1.0756-.457 1.7404-.457 1.2449.152 1.7404.457.8802.733 1.1541 1.284c.2739.55.4109 1.194.4109 1.929 0 .733-.137 1.373-.4109 1.921s-.6586.974-1.1541 1.278c-.4955.305-1.0756.457-1.7404.457zm.0046-1.158c.4309 0 .7879-.114 1.071-.342.2832-.228.4925-.531.6279-.909.1385-.379.2077-.796.2077-1.251 0-.453-.0692-.868-.2077-1.247-.1354-.381-.3447-.688-.6279-.919-.2831-.23-.6401-.346-1.071-.346-.4339 0-.794.116-1.0802.346-.2832.231-.494.538-.6325.919-.1354.379-.2031.794-.2031 1.247 0 .455.0677.872.2031 1.251.1385.378.3493.681.6325.909.2862.228.6463.342 1.0802.342zm4.8415 3.674v-9.75h1.3481v1.15h.1154c.08-.148.1954-.319.3462-.512.1508-.194.3601-.364.6278-.508.2678-.148.6217-.222 1.0618-.222.5725 0 1.0834.145 1.5327.434s.8017.706 1.0572 1.251c.2585.545.3878 1.2.3878 1.967 0 .766-.1278 1.423-.3832 1.971-.2555.545-.6063.965-1.0526 1.26-.4462.293-.9556.439-1.528.439-.4309 0-.7833-.072-1.0572-.217-.2708-.145-.4832-.314-.6371-.508s-.2723-.366-.3554-.517h-.0831v3.762zm1.3527-6.204c0 .498.0723.936.2169 1.311.1447.375.354.669.6279.882.2739.209.6094.314 1.0064.314.4124 0 .7571-.11 1.0341-.328.277-.222.4862-.522.6278-.9.1447-.379.217-.805.217-1.279 0-.468-.0708-.888-.2124-1.26-.1385-.373-.3478-.667-.6278-.882-.277-.216-.6232-.323-1.0387-.323-.4001 0-.7387.103-1.0156.309-.274.206-.4817.494-.6233.863-.1415.37-.2123.8-.2123 1.293zm8.0511-.665v4.21h-1.3803v-9.454h1.3618v3.518h.0878c.1661-.382.4201-.685.7617-.91s.7878-.337 1.3387-.337c.4863 0 .911.1 1.2742.3.3662.2.6494.499.8494.896.2032.394.3047.886.3047 1.477v4.51h-1.3803v-4.344c0-.52-.1339-.923-.4016-1.209-.2678-.29-.6402-.434-1.1172-.434-.3263 0-.6186.069-.8772.208-.2554.138-.457.341-.6047.609-.1447.265-.217.585-.217.96zm9.4961 4.353c-.6986 0-1.3003-.149-1.805-.447-.5017-.302-.8895-.725-1.1634-1.27-.2708-.548-.4062-1.189-.4062-1.925 0-.726.1354-1.366.4062-1.92.2739-.554.6555-.987 1.1449-1.298.4924-.31 1.0679-.466 1.7266-.466.4 0 .7878.066 1.1633.199.3755.132.7125.34 1.011.623s.534.651.7063 1.103c.1724.45.2586.996.2586 1.639v.489h-5.6368v-1.034h4.2841c0-.363-.0738-.684-.2216-.965-.1477-.283-.3554-.506-.6232-.669-.2647-.163-.5755-.245-.9325-.245-.3878 0-.7263.096-1.0156.287-.2863.187-.5079.434-.6648.738-.1539.302-.2308.63-.2308.984v.807c0 .474.0831.878.2493 1.21.1692.332.4047.586.7063.762.3016.172.654.258 1.0571.258.2616 0 .5002-.037.7156-.111.2154-.077.4016-.19.5586-.341s.277-.337.3601-.559l1.3064.236c-.1046.384-.2923.721-.5632 1.011-.2677.286-.6047.509-1.011.669-.4031.157-.8633.235-1.3803.235zm4.5738-.143v-7.091h1.3341v1.127h.0739c.1293-.382.357-.682.6832-.9.3293-.222.7017-.333 1.1172-.333.0862 0 .1878.003.3047.01.12.006.2139.013.2816.023v1.32c-.0554-.015-.1539-.032-.2954-.051-.1416-.021-.2832-.032-.4248-.032-.3262 0-.617.069-.8725.208-.2523.135-.4524.324-.6001.567-.1477.24-.2216.514-.2216.822v4.33zm10.6811 2.572c-.954 0-1.8-.131-2.5388-.393-.7356-.258-1.3557-.64-1.8605-1.145-.5047-.501-.8879-1.117-1.1495-1.846-.2616-.73-.3924-1.562-.3924-2.498 0-.911.1324-1.729.3971-2.456.2646-.726.6493-1.345 1.1541-1.855.5078-.514 1.1249-.907 1.8512-1.178.7268-.27 1.5508-.406 2.4748-.406.883 0 1.662.139 2.336.416s1.24.657 1.698 1.14c.462.483.81 1.037 1.044 1.662s.351 1.285.351 1.98c0 .487-.031.962-.093 1.427-.061.461-.175.88-.341 1.255-.163.373-.4.671-.711.896-.308.222-.708.337-1.201.346-.261.01-.515-.021-.761-.092-.247-.071-.456-.185-.628-.342-.172-.16-.277-.363-.314-.609h-.055c-.074.182-.197.351-.37.508-.172.154-.392.277-.66.369-.265.089-.572.126-.923.111-.388-.016-.737-.103-1.048-.263s-.5772-.382-.7988-.665c-.2185-.283-.3863-.619-.5032-1.006-.117-.388-.1754-.819-.1754-1.293 0-.456.0661-.863.1985-1.223.1323-.364.3124-.676.5401-.938.2308-.264.4958-.474.7938-.627.299-.154.614-.251.947-.291.323-.037.62-.028.891.027.27.056.495.141.674.254.181.114.295.239.341.374h.06v-.517h1.136v4.284c0 .243.063.45.189.619.129.169.313.254.55.254.28 0 .498-.103.655-.309.16-.207.272-.524.337-.951.068-.428.102-.976.102-1.644 0-.468-.063-.908-.19-1.32-.123-.416-.306-.791-.549-1.127-.24-.338-.536-.629-.886-.872-.351-.243-.751-.431-1.201-.563-.446-.133-.94-.199-1.482-.199-.735 0-1.389.114-1.9616.342-.5724.224-1.0556.549-1.4495.974-.3909.425-.6879.934-.891 1.528-.2001.591-.3001 1.254-.3001 1.99 0 .766.1031 1.446.3093 2.04.2062.591.5109 1.09.9141 1.496s.9017.714 1.4958.923c.594.212 1.279.319 2.054.319.345 0 .684-.031 1.016-.093.332-.058.628-.126.886-.203.262-.074.457-.134.587-.18l.323 1.011c-.191.089-.445.177-.762.263-.314.086-.656.157-1.025.213-.366.055-.728.083-1.085.083zm-.424-3.841c.4 0 .721-.08.964-.24.247-.16.424-.399.531-.716.111-.32.166-.72.166-1.2-.003-.468-.063-.84-.18-1.117-.113-.28-.292-.48-.535-.6-.24-.123-.549-.185-.928-.185-.348 0-.645.085-.891.254-.243.169-.429.398-.559.688-.126.289-.19.611-.193.965.003.372.055.723.156 1.052.105.326.274.591.508.794.237.203.557.305.961.305zm9.377 1.426c-.45 0-.856-.083-1.219-.249-.363-.169-.651-.414-.863-.734-.21-.32-.314-.712-.314-1.177 0-.4.077-.73.231-.988.154-.259.361-.463.623-.614.261-.151.554-.265.877-.342s.652-.135.988-.175c.425-.049.769-.089 1.034-.12.265-.034.457-.088.577-.162s.18-.194.18-.36v-.032c0-.403-.114-.716-.342-.937-.224-.222-.56-.333-1.006-.333-.465 0-.831.103-1.099.31-.264.203-.447.429-.549.678l-1.297-.295c.154-.431.378-.779.674-1.044.298-.267.641-.461 1.029-.581.388-.123.796-.185 1.224-.185.283 0 .583.034.9.102.32.064.618.184.895.36.28.175.51.426.688.752.179.323.268.744.268 1.261v4.708h-1.348v-.969h-.055c-.09.178-.223.354-.402.526-.179.173-.408.316-.688.43-.28.113-.615.17-1.006.17zm.3-1.108c.381 0 .708-.075.979-.226.273-.151.481-.348.623-.591.144-.246.217-.509.217-.789v-.914c-.05.049-.145.095-.287.138-.138.04-.297.076-.475.106-.179.028-.352.054-.522.079-.169.021-.311.04-.424.055-.268.034-.513.091-.734.171-.219.08-.394.196-.527.346-.129.148-.194.345-.194.591 0 .342.127.6.379.776.252.172.574.258.965.258zm8.024 1.094c-.686 0-1.277-.155-1.772-.466-.493-.314-.871-.746-1.136-1.297s-.397-1.182-.397-1.893c0-.72.135-1.355.406-1.906.271-.554.653-.987 1.145-1.298.493-.31 1.073-.466 1.741-.466.538 0 1.018.1 1.44.3.422.197.762.474 1.02.831.262.357.417.774.466 1.251h-1.343c-.074-.332-.243-.618-.508-.858-.261-.24-.612-.361-1.052-.361-.385 0-.722.102-1.011.305-.287.2-.51.486-.67.859-.16.369-.24.806-.24 1.311 0 .517.079.963.236 1.339.157.375.378.666.664.872.29.206.63.31 1.021.31.261 0 .498-.048.711-.144.215-.098.395-.238.54-.42.147-.181.251-.4.309-.655h1.343c-.049.458-.198.868-.447 1.228-.25.36-.584.643-1.002.849-.416.206-.903.309-1.464.309zm4.39-.143v-7.091h1.324v1.155h.088c.148-.391.389-.696.725-.914.335-.222.737-.333 1.205-.333.474 0 .871.111 1.191.333.323.221.562.526.715.914h.074c.17-.379.439-.681.808-.905.37-.228.81-.342 1.321-.342.643 0 1.167.202 1.574.605.409.403.614 1.011.614 1.823v4.755h-1.381v-4.625c0-.48-.13-.828-.392-1.044-.262-.215-.574-.323-.937-.323-.449 0-.799.139-1.048.416-.249.274-.374.626-.374 1.057v4.519h-1.376v-4.713c0-.385-.12-.694-.36-.928s-.552-.351-.937-.351c-.262 0-.503.069-.725.208-.218.135-.395.325-.531.568-.132.243-.198.524-.198.845v4.371zm14.545.143c-.699 0-1.3-.149-1.805-.447-.502-.302-.89-.725-1.164-1.27-.27-.548-.406-1.189-.406-1.925 0-.726.136-1.366.406-1.92.274-.554.656-.987 1.145-1.298.493-.31 1.068-.466 1.727-.466.4 0 .788.066 1.163.199.376.132.713.34 1.011.623.299.283.534.651.707 1.103.172.45.258.996.258 1.639v.489h-5.637v-1.034h4.285c0-.363-.074-.684-.222-.965-.148-.283-.356-.506-.623-.669-.265-.163-.576-.245-.933-.245-.388 0-.726.096-1.015.287-.287.187-.508.434-.665.738-.154.302-.231.63-.231.984v.807c0 .474.083.878.249 1.21.17.332.405.586.707.762.301.172.654.258 1.057.258.261 0 .5-.037.715-.111.216-.077.402-.19.559-.341s.277-.337.36-.559l1.306.236c-.104.384-.292.721-.563 1.011-.268.286-.605.509-1.011.669-.403.157-.863.235-1.38.235zm5.483-.055c-.252 0-.469-.089-.651-.268-.181-.181-.272-.4-.272-.655 0-.253.091-.468.272-.647.182-.181.399-.272.651-.272s.469.091.651.272c.182.179.272.394.272.647 0 .169-.043.324-.129.466-.083.139-.194.249-.332.332-.139.084-.293.125-.462.125zm5.759.055c-.686 0-1.277-.155-1.773-.466-.492-.314-.871-.746-1.135-1.297-.265-.551-.397-1.182-.397-1.893 0-.72.135-1.355.406-1.906.271-.554.652-.987 1.145-1.298.492-.31 1.072-.466 1.74-.466.539 0 1.019.1 1.441.3.421.197.761.474 1.02.831.262.357.417.774.466 1.251h-1.343c-.074-.332-.243-.618-.508-.858-.262-.24-.612-.361-1.053-.361-.384 0-.721.102-1.011.305-.286.2-.509.486-.669.859-.16.369-.24.806-.24 1.311 0 .517.078.963.235 1.339.157.375.379.666.665.872.289.206.63.31 1.02.31.262 0 .499-.048.711-.144.216-.098.396-.238.54-.42.148-.181.251-.4.31-.655h1.343c-.049.458-.198.868-.448 1.228-.249.36-.583.643-1.001.849-.416.206-.904.309-1.464.309zm7.376 0c-.665 0-1.245-.152-1.74-.457-.496-.304-.88-.73-1.154-1.278s-.411-1.188-.411-1.921c0-.735.137-1.379.411-1.929.274-.551.658-.979 1.154-1.284.495-.305 1.075-.457 1.74-.457s1.245.152 1.741.457c.495.305.88.733 1.154 1.284.274.55.411 1.194.411 1.929 0 .733-.137 1.373-.411 1.921s-.659.974-1.154 1.278c-.496.305-1.076.457-1.741.457zm.005-1.158c.431 0 .788-.114 1.071-.342s.492-.531.628-.909c.138-.379.207-.796.207-1.251 0-.453-.069-.868-.207-1.247-.136-.381-.345-.688-.628-.919-.283-.23-.64-.346-1.071-.346-.434 0-.794.116-1.08.346-.284.231-.494.538-.633.919-.135.379-.203.794-.203 1.247 0 .455.068.872.203 1.251.139.378.349.681.633.909.286.228.646.342 1.08.342z" fill="#28323b"/></svg>