<svg fill="none" height="260" viewBox="0 0 136 260" width="136" xmlns="http://www.w3.org/2000/svg" xmlns:xlink="http://www.w3.org/1999/xlink"><filter id="a" color-interpolation-filters="sRGB" filterUnits="userSpaceOnUse" height="48" width="136" x="0" y="0"><feFlood flood-opacity="0" result="BackgroundImageFix"/><feColorMatrix in="SourceAlpha" result="hardAlpha" type="matrix" values="0 0 0 0 0 0 0 0 0 0 0 0 0 0 0 0 0 0 127 0"/><feOffset dy="3"/><feGaussianBlur stdDeviation="4"/><feComposite in2="hardAlpha" operator="out"/><feColorMatrix type="matrix" values="0 0 0 0 0.1152 0 0 0 0 0.1476 0 0 0 0 0.18 0 0 0 0.07 0"/><feBlend in2="BackgroundImageFix" mode="normal" result="effect1_dropShadow_674_3143"/><feColorMatrix in="SourceAlpha" result="hardAlpha" type="matrix" values="0 0 0 0 0 0 0 0 0 0 0 0 0 0 0 0 0 0 127 0"/><feOffset dy="2"/><feGaussianBlur stdDeviation="2"/><feComposite in2="hardAlpha" operator="out"/><feColorMatrix type="matrix" values="0 0 0 0 0.1152 0 0 0 0 0.1476 0 0 0 0 0.18 0 0 0 0.04 0"/><feBlend in2="effect1_dropShadow_674_3143" mode="normal" result="effect2_dropShadow_674_3143"/><feBlend in="SourceGraphic" in2="effect2_dropShadow_674_3143" mode="normal" result="shape"/></filter><filter id="b" color-interpolation-filters="sRGB" filterUnits="userSpaceOnUse" height="48" width="136" x="0" y="56"><feFlood flood-opacity="0" result="BackgroundImageFix"/><feColorMatrix in="SourceAlpha" result="hardAlpha" type="matrix" values="0 0 0 0 0 0 0 0 0 0 0 0 0 0 0 0 0 0 127 0"/><feOffset dy="3"/><feGaussianBlur stdDeviation="4"/><feComposite in2="hardAlpha" operator="out"/><feColorMatrix type="matrix" values="0 0 0 0 0.1152 0 0 0 0 0.1476 0 0 0 0 0.18 0 0 0 0.07 0"/><feBlend in2="BackgroundImageFix" mode="normal" result="effect1_dropShadow_674_3143"/><feColorMatrix in="SourceAlpha" result="hardAlpha" type="matrix" values="0 0 0 0 0 0 0 0 0 0 0 0 0 0 0 0 0 0 127 0"/><feOffset dy="2"/><feGaussianBlur stdDeviation="2"/><feComposite in2="hardAlpha" operator="out"/><feColorMatrix type="matrix" values="0 0 0 0 0.1152 0 0 0 0 0.1476 0 0 0 0 0.18 0 0 0 0.04 0"/><feBlend in2="effect1_dropShadow_674_3143" mode="normal" result="effect2_dropShadow_674_3143"/><feBlend in="SourceGraphic" in2="effect2_dropShadow_674_3143" mode="normal" result="shape"/></filter><filter id="c" color-interpolation-filters="sRGB" filterUnits="userSpaceOnUse" height="48" width="136" x="0" y="112"><feFlood flood-opacity="0" result="BackgroundImageFix"/><feColorMatrix in="SourceAlpha" result="hardAlpha" type="matrix" values="0 0 0 0 0 0 0 0 0 0 0 0 0 0 0 0 0 0 127 0"/><feOffset dy="3"/><feGaussianBlur stdDeviation="4"/><feComposite in2="hardAlpha" operator="out"/><feColorMatrix type="matrix" values="0 0 0 0 0.1152 0 0 0 0 0.1476 0 0 0 0 0.18 0 0 0 0.07 0"/><feBlend in2="BackgroundImageFix" mode="normal" result="effect1_dropShadow_674_3143"/><feColorMatrix in="SourceAlpha" result="hardAlpha" type="matrix" values="0 0 0 0 0 0 0 0 0 0 0 0 0 0 0 0 0 0 127 0"/><feOffset dy="2"/><feGaussianBlur stdDeviation="2"/><feComposite in2="hardAlpha" operator="out"/><feColorMatrix type="matrix" values="0 0 0 0 0.1152 0 0 0 0 0.1476 0 0 0 0 0.18 0 0 0 0.04 0"/><feBlend in2="effect1_dropShadow_674_3143" mode="normal" result="effect2_dropShadow_674_3143"/><feBlend in="SourceGraphic" in2="effect2_dropShadow_674_3143" mode="normal" result="shape"/></filter><filter id="d" color-interpolation-filters="sRGB" filterUnits="userSpaceOnUse" height="48" width="136" x="0" y="168"><feFlood flood-opacity="0" result="BackgroundImageFix"/><feColorMatrix in="SourceAlpha" result="hardAlpha" type="matrix" values="0 0 0 0 0 0 0 0 0 0 0 0 0 0 0 0 0 0 127 0"/><feOffset dy="3"/><feGaussianBlur stdDeviation="4"/><feComposite in2="hardAlpha" operator="out"/><feColorMatrix type="matrix" values="0 0 0 0 0.1152 0 0 0 0 0.1476 0 0 0 0 0.18 0 0 0 0.07 0"/><feBlend in2="BackgroundImageFix" mode="normal" result="effect1_dropShadow_674_3143"/><feColorMatrix in="SourceAlpha" result="hardAlpha" type="matrix" values="0 0 0 0 0 0 0 0 0 0 0 0 0 0 0 0 0 0 127 0"/><feOffset dy="2"/><feGaussianBlur stdDeviation="2"/><feComposite in2="hardAlpha" operator="out"/><feColorMatrix type="matrix" values="0 0 0 0 0.1152 0 0 0 0 0.1476 0 0 0 0 0.18 0 0 0 0.04 0"/><feBlend in2="effect1_dropShadow_674_3143" mode="normal" result="effect2_dropShadow_674_3143"/><feBlend in="SourceGraphic" in2="effect2_dropShadow_674_3143" mode="normal" result="shape"/></filter><filter id="e" color-interpolation-filters="sRGB" filterUnits="userSpaceOnUse" height="12.9863" width="11.9907" x="37.5952" y="238"><feFlood flood-opacity="0" result="BackgroundImageFix"/><feColorMatrix in="SourceAlpha" result="hardAlpha" type="matrix" values="0 0 0 0 0 0 0 0 0 0 0 0 0 0 0 0 0 0 127 0"/><feOffset dy="1"/><feComposite in2="hardAlpha" operator="out"/><feColorMatrix type="matrix" values="0 0 0 0 0.83 0 0 0 0 0.270027 0 0 0 0 0.0996 0 0 0 0.5 0"/><feBlend in2="BackgroundImageFix" mode="normal" result="effect1_dropShadow_674_3143"/><feBlend in="SourceGraphic" in2="effect1_dropShadow_674_3143" mode="normal" result="shape"/></filter><filter id="f" color-interpolation-filters="sRGB" filterUnits="userSpaceOnUse" height="9.85938" width="40.8184" x="57.5859" y="239.562"><feFlood flood-opacity="0" result="BackgroundImageFix"/><feColorMatrix in="SourceAlpha" result="hardAlpha" type="matrix" values="0 0 0 0 0 0 0 0 0 0 0 0 0 0 0 0 0 0 127 0"/><feOffset dy="1"/><feComposite in2="hardAlpha" operator="out"/><feColorMatrix type="matrix" values="0 0 0 0 0.83 0 0 0 0 0.270027 0 0 0 0 0.0996 0 0 0 0.5 0"/><feBlend in2="BackgroundImageFix" mode="normal" result="effect1_dropShadow_674_3143"/><feBlend in="SourceGraphic" in2="effect1_dropShadow_674_3143" mode="normal" result="shape"/></filter><mask id="g" fill="#fff"><path d="m8 234.4c0-2.24 0-3.36.43597-4.216.3835-.753.99542-1.365 1.74803-1.748.8557-.436 1.9758-.436 4.216-.436h107.2c2.24 0 3.36 0 4.216.436.753.383 1.365.995 1.748 1.748.436.856.436 1.976.436 4.216v19.2c0 2.24 0 3.36-.436 4.216-.383.753-.995 1.365-1.748 1.748-.856.436-1.976.436-4.216.436h-107.2c-2.2402 0-3.3603 0-4.216-.436-.75261-.383-1.36453-.995-1.74803-1.748-.43597-.856-.43597-1.976-.43597-4.216z" fill="#fff"/></mask><path clip-rule="evenodd" d="m71.5357 220.172-3.182 3.182c-.1953.195-.5119.195-.7071 0l-3.182-3.182c-.1953-.196-.1953-.512 0-.708.1953-.195.5119-.195.7071 0l2.3284 2.329v-.782h1v.782l2.3285-2.329c.1952-.195.5118-.195.7071 0 .1952.196.1952.512 0 .708zm-4.0356-178.1829v-1.9891h1v1.9891zm0 7.9566v-3.9783h1v3.9783zm0 7.9565v-3.9783h1v3.9783zm0 7.9565v-3.9783h1v3.9783zm0 7.9565v-3.9782h1v3.9782zm0 7.9565v-3.9782h1v3.9782zm0 7.9566v-3.9783h1v3.9783zm0 7.9565v-3.9783h1v3.9783zm0 7.9562v-3.978h1v3.978zm0 7.957v-3.978h1v3.978zm0 7.956v-3.978h1v3.978zm0 7.957v-3.978h1v3.978zm0 7.956v-3.978h1v3.978zm0 7.957v-3.978h1v3.978zm0 7.956v-3.978h1v3.978zm0 7.957v-3.978h1v3.978zm0 7.957v-3.979h1v3.979zm0 7.956v-3.978h1v3.978zm0 7.957v-3.979h1v3.979zm0 7.956v-3.978h1v3.978zm0 7.957v-3.979h1v3.979zm0 7.956v-3.978h1v3.978zm0 7.957v-3.979h1v3.979z" fill="#a1a7ad" fill-rule="evenodd"/><g filter="url(#a)"><rect fill="#fff" height="32" rx="16" width="120" x="8" y="5"/><rect height="31" rx="15.5" stroke="#dfe3e8" width="119" x="8.5" y="5.5"/></g><g filter="url(#b)"><rect fill="#fff" height="32" rx="16" width="120" x="8" y="61"/><rect height="31" rx="15.5" stroke="#dfe3e8" width="119" x="8.5" y="61.5"/></g><g filter="url(#c)"><rect fill="#fff" height="32" rx="16" width="120" x="8" y="117"/><rect height="31" rx="15.5" stroke="#dfe3e8" width="119" x="8.5" y="117.5"/></g><g filter="url(#d)"><rect fill="#fff" height="32" rx="16" width="120" x="8" y="173"/><rect height="31" rx="15.5" stroke="#dfe3e8" width="119" x="8.5" y="173.5"/></g><path d="m8 234.4c0-2.24 0-3.36.43597-4.216.3835-.753.99542-1.365 1.74803-1.748.8557-.436 1.9758-.436 4.216-.436h107.2c2.24 0 3.36 0 4.216.436.753.383 1.365.995 1.748 1.748.436.856.436 1.976.436 4.216v19.2c0 2.24 0 3.36-.436 4.216-.383.753-.995 1.365-1.748 1.748-.856.436-1.976.436-4.216.436h-107.2c-2.2402 0-3.3603 0-4.216-.436-.75261-.383-1.36453-.995-1.74803-1.748-.43597-.856-.43597-1.976-.43597-4.216z" fill="#fa5320"/><g filter="url(#e)"><path d="m37.9743 244.103c-.5391.304-.4922 1.101.0703 1.336l3.3047 1.359v2.438c0 .421.3281.75.75.75.2344 0 .4453-.094.5859-.258l1.4532-1.758 2.9062 1.219c.4453.187.961-.118 1.0313-.586l1.5-9.75c.0469-.282-.0703-.563-.3047-.727s-.5625-.164-.7969-.023zm1.2188.586 7.9922-4.571-5.1329 5.743.0235.023zm7.8515 3.281-3.914-1.641 5.0156-5.601z" fill="#fff"/></g><g fill="#fff" filter="url(#f)"><path d="m57.5859 248.29v-8.728h1.3168v7.594h3.9545v1.134z"/><path d="m66.7074 248.418c-.5284 0-1-.135-1.4148-.405-.4119-.273-.7358-.661-.9716-1.164-.2329-.505-.3494-1.112-.3494-1.819 0-.708.1179-1.313.3537-1.816.2386-.502.5653-.887.9801-1.154s.8849-.401 1.4105-.401c.4063 0 .733.068.9801.205.25.133.4432.289.5796.468.1392.179.2471.337.3238.473h.0767v-1.061h1.2742v6.546h-1.2443v-1.019h-.1066c-.0767.14-.1875.299-.3324.478-.142.179-.338.335-.588.468-.25.134-.5739.201-.9716.201zm.2812-1.087c.3665 0 .6762-.097.929-.29.2557-.196.4489-.467.5796-.814.1335-.346.2002-.75.2002-1.21 0-.454-.0653-.852-.196-1.193s-.3224-.607-.5753-.797c-.2528-.19-.5653-.286-.9375-.286-.3835 0-.7031.1-.9588.299s-.4488.47-.5795.814c-.1279.343-.1918.731-.1918 1.163 0 .438.0654.831.196 1.18.1307.35.3239.627.5796.831.2585.202.5767.303.9545.303z"/><path d="m75.9151 245.575v-3.831h1.2784v6.546h-1.2528v-1.134h-.0682c-.1506.35-.392.641-.7244.874-.3296.23-.7401.345-1.2316.345-.4204 0-.7926-.092-1.1164-.277-.3211-.187-.5739-.464-.7586-.831-.1818-.366-.2727-.82-.2727-1.359v-4.164h1.2742v4.01c0 .446.1235.801.3707 1.066.2472.264.5682.396.9631.396.2386 0 .4758-.06.7116-.179.2387-.119.4361-.3.5924-.541.159-.242.2372-.549.2343-.921z"/><path d="m80.1797 244.403v3.887h-1.2742v-6.546h1.2231v1.066h.0809c.1506-.347.3864-.625.7074-.836.3239-.21.7315-.315 1.223-.315.446 0 .8367.094 1.1719.281.3352.185.5952.461.7798.827.1847.367.277.82.277 1.359v4.164h-1.2741v-4.01c0-.475-.1236-.845-.3708-1.112-.2471-.27-.5866-.405-1.0184-.405-.2955 0-.5583.064-.7884.192-.2273.127-.4077.315-.5412.562-.1307.244-.196.54-.196.886z"/><path d="m88.8345 248.422c-.6335 0-1.179-.144-1.6363-.431-.4546-.289-.804-.688-1.0483-1.197-.2444-.508-.3665-1.091-.3665-1.747 0-.665.125-1.252.375-1.76.25-.511.6023-.911 1.0568-1.198.4545-.286.9901-.43 1.6065-.43.4972 0 .9404.092 1.3296.277.3892.182.7031.438.9417.767.2415.33.385.715.4304 1.155h-1.24c-.0682-.307-.2244-.571-.4688-.793-.2414-.221-.5653-.332-.9716-.332-.3551 0-.6662.094-.9332.281-.2642.185-.4702.449-.6179.793-.1477.341-.2216.744-.2216 1.21 0 .477.0725.889.2173 1.236.1449.346.3495.615.6137.805.267.191.5809.286.9417.286.2415 0 .4603-.044.6563-.132.1989-.091.365-.221.4986-.388.1363-.168.2315-.369.2855-.605h1.24c-.0454.423-.1832.801-.4133 1.133-.2301.333-.5384.594-.9247.784-.3836.191-.8338.286-1.3509.286z"/><path d="m94.1602 244.403v3.887h-1.2742v-8.728h1.2571v3.248h.081c.1534-.353.3878-.632.7031-.84.3153-.207.7273-.311 1.2358-.311.4489 0 .8409.092 1.1761.277.3381.185.5995.46.7841.827.1875.363.2813.818.2813 1.363v4.164h-1.2742v-4.01c0-.48-.1236-.852-.3707-1.117-.2472-.267-.5909-.4-1.0313-.4-.3011 0-.571.064-.8096.192-.2358.127-.4219.315-.5583.562-.1335.244-.2002.54-.2002.886z"/></g><path d="m8 228h120zm120 28c0 2.761-2.239 5-5 5h-110c-2.7614 0-5-2.239-5-5 0 1.657 1.79086 3 4 3h112c2.209 0 4-1.343 4-3zm-120 4v-32zm120-32v32z" fill="#d44519" mask="url(#g)"/><path d="m52.8912 19.6199h-1.4403c-.0554-.3078-.1585-.5786-.3093-.8125-.1508-.234-.3355-.4325-.554-.5956s-.4632-.2862-.734-.3693c-.2678-.0831-.5525-.1246-.8541-.1246-.5447 0-1.0325.1369-1.4634.4108-.4278.2739-.7663.6756-1.0156 1.2049-.2462.5294-.3694 1.1757-.3694 1.9389 0 .7695.1232 1.4188.3694 1.9482.2493.5294.5893.9295 1.0202 1.2003s.9156.4062 1.4542.4062c.2985 0 .5817-.04.8494-.12.2709-.0831.5155-.2047.734-.3647.2186-.16.4032-.3555.554-.5863.1539-.2339.2601-.5016.3186-.8033l1.4403.0047c-.0769.4647-.2262.8925-.4478 1.2833-.2185.3878-.5001.7233-.8448 1.0064-.3416.2801-.7325.4971-1.1726.651-.4401.1538-.9202.2308-1.4403.2308-.8187 0-1.5481-.1939-2.1882-.5817-.6402-.3909-1.1449-.9494-1.5143-1.6758-.3662-.7263-.5493-1.5927-.5493-2.5991 0-1.0094.1846-1.8758.554-2.599.3693-.7264.874-1.2834 1.5142-1.6712.6401-.3909 1.368-.5863 2.1836-.5863.5016 0 .9694.0723 1.4034.217.437.1416.8294.3508 1.1772.6278.3477.2739.6355.6094.8633 1.0064.2277.394.3816.8448.4616 1.3527z" fill="#707880"/><path d="m57.4742 26.1429c-.6648 0-1.2449-.1523-1.7404-.457s-.8802-.7309-1.1541-1.2788c-.2739-.5478-.4109-1.1879-.4109-1.9204 0-.7356.137-1.3788.4109-1.9297s.6586-.9787 1.1541-1.2834 1.0756-.457 1.7404-.457 1.2449.1523 1.7404.457.8802.7325 1.1541 1.2834c.274.5509.4109 1.1941.4109 1.9297 0 .7325-.1369 1.3726-.4109 1.9204-.2739.5479-.6586.9741-1.1541 1.2788s-1.0756.457-1.7404.457zm.0046-1.1587c.4309 0 .7879-.1139 1.071-.3416.2832-.2278.4925-.5309.6279-.9095.1385-.3785.2077-.7955.2077-1.251 0-.4524-.0692-.8679-.2077-1.2465-.1354-.3816-.3447-.6878-.6279-.9187-.2831-.2308-.6401-.3462-1.071-.3462-.4339 0-.794.1154-1.0802.3462-.2832.2309-.494.5371-.6325.9187-.1354.3786-.2031.7941-.2031 1.2465 0 .4555.0677.8725.2031 1.251.1385.3786.3493.6817.6325.9095.2862.2277.6463.3416 1.0802.3416z" fill="#707880"/><path d="m63.7007 21.7896v4.2102h-1.3803v-7.0909h1.3249v1.1541h.0877c.1631-.3754.4186-.6771.7663-.9048.3509-.2277.7925-.3416 1.325-.3416.4832 0 .9063.1015 1.2695.3047.3632.2.6448.4986.8448.8956.2001.397.3001.8879.3001 1.4726v4.5103h-1.3803v-4.3441c0-.5139-.1339-.9156-.4017-1.2049-.2677-.2924-.6355-.4385-1.1033-.4385-.3201 0-.6048.0692-.8541.2077-.2462.1385-.4416.3416-.5863.6094-.1415.2646-.2123.5847-.2123.9602z" fill="#707880"/><path d="m73.3999 18.9089v1.108h-3.8732v-1.108zm-2.8345-1.6989h1.3803v6.7078c0 .2677.04.4693.12.6047.0801.1324.1832.2232.3093.2724.1293.0462.2693.0693.4201.0693.1108 0 .2078-.0077.2909-.0231s.1477-.0277.1939-.0369l.2493 1.1402c-.0801.0308-.1939.0616-.3417.0924-.1477.0338-.3323.0523-.5539.0554-.3632.0061-.7017-.0585-1.0157-.1939-.3139-.1355-.5678-.3447-.7617-.6279-.1939-.2831-.2908-.6386-.2908-1.0664z" fill="#707880"/><path d="m77.9067 26.1429c-.6986 0-1.3003-.1492-1.805-.4478-.5017-.3016-.8894-.7248-1.1634-1.2695-.2708-.5478-.4062-1.1895-.4062-1.9251 0-.7263.1354-1.3664.4062-1.9204.274-.554.6556-.9864 1.1449-1.2973.4925-.3108 1.068-.4662 1.7266-.4662.4001 0 .7879.0662 1.1633.1985.3755.1323.7125.3401 1.0111.6232.2985.2832.5339.6509.7063 1.1034.1723.4493.2585.9956.2585 1.6388v.4894h-5.6367v-1.0341h4.2841c0-.3632-.0739-.6848-.2216-.9649-.1477-.2831-.3555-.5063-.6232-.6694-.2647-.1631-.5756-.2446-.9326-.2446-.3878 0-.7263.0954-1.0156.2862-.2862.1877-.5078.4339-.6648.7386-.1539.3016-.2308.6294-.2308.9833v.8079c0 .474.0831.8771.2493 1.2095.1693.3324.4047.5863.7063.7617.3016.1724.654.2586 1.0572.2586.2616 0 .5001-.037.7155-.1108.2155-.077.4017-.1908.5586-.3417.157-.1508.277-.337.3601-.5585l1.3065.2354c-.1047.3847-.2924.7217-.5632 1.011-.2678.2862-.6048.5094-1.011.6694-.4032.157-.8633.2354-1.3804.2354z" fill="#707880"/><path d="m83.8608 21.7896v4.2102h-1.3803v-7.0909h1.3249v1.1541h.0878c.1631-.3754.4185-.6771.7663-.9048.3508-.2277.7925-.3416 1.3249-.3416.4832 0 .9064.1015 1.2696.3047.3631.2.6447.4986.8448.8956.2.397.3.8879.3 1.4726v4.5103h-1.3803v-4.3441c0-.5139-.1339-.9156-.4016-1.2049-.2678-.2924-.6356-.4385-1.1034-.4385-.32 0-.6047.0692-.854.2077-.2462.1385-.4417.3416-.5863.6094-.1416.2646-.2124.5847-.2124.9602z" fill="#707880"/><path d="m93.5601 18.9089v1.108h-3.8733v-1.108zm-2.8346-1.6989h1.3804v6.7078c0 .2677.04.4693.12.6047.08.1324.1831.2232.3093.2724.1293.0462.2693.0693.4201.0693.1108 0 .2077-.0077.2908-.0231s.1478-.0277.1939-.0369l.2493 1.1402c-.08.0308-.1939.0616-.3416.0924-.1477.0338-.3324.0523-.554.0554-.3631.0061-.7017-.0585-1.0156-.1939-.3139-.1355-.5678-.3447-.7617-.6279-.1939-.2831-.2909-.6386-.2909-1.0664z" fill="#707880"/><path d="m45.8374 81.9991h-1.5142l3.4024-9.4545h1.6481l3.4023 9.4545h-1.5142l-2.6729-7.7372h-.0739zm.254-3.7024h4.9119v1.2003h-4.9119z" fill="#28323b"/><path d="m58.5224 79.0584v-4.1502h1.3849v7.0909h-1.3572v-1.228h-.0739c-.1631.3786-.4247.694-.7848.9464-.357.2493-.8017.3739-1.3342.3739-.4554 0-.8586-.1-1.2095-.3-.3477-.2032-.6217-.5032-.8217-.9002-.197-.3971-.2955-.8879-.2955-1.4727v-4.5103h1.3804v4.3441c0 .4832.1338.8679.4016 1.1541s.6155.4294 1.0433.4294c.2585 0 .5155-.0647.771-.1939.2585-.1293.4724-.3247.6417-.5863.1723-.2616.2569-.594.2539-.9972z" fill="#28323b"/><path d="m64.4165 82.1376c-.5725 0-1.0834-.1462-1.5327-.4386-.4463-.2954-.7971-.7155-1.0526-1.2603-.2523-.5478-.3785-1.2049-.3785-1.9712s.1277-1.4219.3831-1.9666c.2586-.5448.6125-.9618 1.0618-1.2511.4494-.2893.9587-.4339 1.5281-.4339.4401 0 .794.0738 1.0618.2216.2708.1446.4801.3139.6278.5078.1508.1939.2678.3647.3509.5124h.0831v-3.5131h1.3803v9.4545h-1.348v-1.1033h-.1154c-.0831.1508-.2031.3231-.3601.517-.1539.1939-.3662.3632-.6371.5078-.2708.1447-.6217.217-1.0525.217zm.3046-1.1772c.3971 0 .7325-.1046 1.0064-.3139.277-.2124.4863-.5063.6279-.8818.1446-.3754.217-.8125.217-1.311 0-.4925-.0708-.9233-.2124-1.2927-.1416-.3693-.3493-.657-.6232-.8632s-.6125-.3093-1.0157-.3093c-.4154 0-.7617.1077-1.0387.3231-.2769.2154-.4862.5094-.6278.8818-.1385.3724-.2077.7925-.2077 1.2603 0 .4739.0707.9002.2123 1.2787.1416.3786.3509.6786.6279.9002.28.2185.6247.3278 1.034.3278z" fill="#28323b"/><path d="m69.8997 81.9991v-7.0909h1.3803v7.0909zm.6971-8.185c-.2401 0-.4463-.08-.6186-.2401-.1693-.1631-.2539-.357-.2539-.5816 0-.2278.0846-.4217.2539-.5817.1723-.1631.3785-.2447.6186-.2447.24 0 .4447.0816.614.2447.1723.16.2585.3539.2585.5817 0 .2246-.0862.4185-.2585.5816-.1693.1601-.374.2401-.614.2401z" fill="#28323b"/><path d="m76.1931 82.1422c-.6986 0-1.3003-.1492-1.805-.4478-.5017-.3016-.8895-.7248-1.1634-1.2695-.2708-.5478-.4063-1.1895-.4063-1.9251 0-.7263.1355-1.3665.4063-1.9204.2739-.554.6555-.9864 1.1449-1.2973.4924-.3108 1.0679-.4662 1.7265-.4662.4001 0 .7879.0661 1.1634.1985.3755.1323.7125.3401 1.011.6232.2985.2832.534.6509.7063 1.1033.1724.4494.2586.9957.2586 1.6389v.4893h-5.6368v-1.034h4.2841c0-.3632-.0738-.6848-.2216-.9649-.1477-.2831-.3554-.5063-.6232-.6694-.2647-.1631-.5755-.2447-.9325-.2447-.3878 0-.7263.0955-1.0156.2863-.2863.1877-.5079.4339-.6648.7386-.1539.3016-.2308.6294-.2308.9833v.8079c0 .474.0831.8771.2492 1.2095.1693.3324.4048.5863.7064.7617.3016.1724.654.2586 1.0571.2586.2616 0 .5002-.037.7156-.1108.2154-.077.4016-.1909.5586-.3417s.277-.337.3601-.5586l1.3064.2355c-.1046.3847-.2923.7217-.5632 1.011-.2677.2862-.6047.5093-1.011.6694-.4032.1569-.8633.2354-1.3803.2354z" fill="#28323b"/><path d="m82.1472 77.7889v4.2102h-1.3803v-7.0909h1.3249v1.1541h.0877c.1631-.3755.4186-.6771.7663-.9048.3509-.2278.7925-.3416 1.325-.3416.4832 0 .9063.1015 1.2695.3047.3632.2.6448.4985.8448.8956.2001.397.3001.8879.3001 1.4726v4.5103h-1.3803v-4.3441c0-.514-.1339-.9156-.4017-1.2049-.2677-.2924-.6355-.4386-1.1033-.4386-.3201 0-.6048.0693-.8541.2078-.2462.1385-.4416.3416-.5862.6094-.1416.2646-.2124.5847-.2124.9602z" fill="#28323b"/><path d="m91.5233 82.1422c-.6864 0-1.2773-.1554-1.7728-.4662-.4924-.314-.8709-.7464-1.1356-1.2973s-.397-1.1818-.397-1.8927c0-.7202.1354-1.3557.4062-1.9066.2708-.554.6525-.9864 1.1449-1.2973.4924-.3108 1.0726-.4662 1.7404-.4662.5386 0 1.0187.1 1.4403.3.4217.197.7618.474 1.0203.831.2616.357.417.774.4663 1.2511h-1.3434c-.0739-.3324-.2432-.6186-.5079-.8587-.2616-.24-.6124-.3601-1.0525-.3601-.3847 0-.7217.1016-1.011.3047-.2862.2001-.5094.4863-.6694.8587-.16.3693-.2401.8063-.2401 1.3111 0 .517.0785.9633.2355 1.3387.1569.3755.3785.6663.6647.8726.2893.2062.6294.3093 1.0203.3093.2616 0 .4986-.0477.7109-.1432.2155-.0984.3955-.2385.5402-.4201.1477-.1815.2508-.4001.3093-.6555h1.3434c-.0493.4586-.1986.8679-.4478 1.228-.2493.3601-.5833.6432-1.0018.8494-.4155.2062-.9033.3093-1.4634.3093z" fill="#28323b"/><path d="m98.9685 82.1422c-.6986 0-1.3003-.1492-1.8051-.4478-.5016-.3016-.8894-.7248-1.1633-1.2695-.2708-.5478-.4063-1.1895-.4063-1.9251 0-.7263.1355-1.3665.4063-1.9204.2739-.554.6555-.9864 1.1449-1.2973.4924-.3108 1.0679-.4662 1.7265-.4662.4001 0 .7879.0661 1.1635.1985.375.1323.712.3401 1.011.6232.298.2832.534.6509.706 1.1033.173.4494.259.9957.259 1.6389v.4893h-5.637v-1.034h4.284c0-.3632-.074-.6848-.221-.9649-.148-.2831-.356-.5063-.6237-.6694-.2647-.1631-.5755-.2447-.9325-.2447-.3878 0-.7264.0955-1.0157.2863-.2862.1877-.5078.4339-.6647.7386-.1539.3016-.2309.6294-.2309.9833v.8079c0 .474.0831.8771.2493 1.2095.1693.3324.4047.5863.7064.7617.3016.1724.654.2586 1.0571.2586.2616 0 .5002-.037.7156-.1108.2154-.077.4021-.1909.5581-.3417.157-.1508.277-.337.361-.5586l1.306.2355c-.105.3847-.292.7217-.563 1.011-.268.2862-.605.5093-1.011.6694-.4034.1569-.8635.2354-1.3805.2354z" fill="#28323b"/><g fill="#707880"><path d="m50.1951 131.028c-.0493-.437-.2524-.775-.6094-1.015-.357-.244-.8063-.365-1.348-.365-.3878 0-.7232.061-1.0064.185-.2831.12-.5032.286-.6601.498-.1539.209-.2309.448-.2309.716 0 .224.0524.418.157.581.1077.163.2477.3.4201.411.1754.108.3632.199.5632.273.2.07.3924.129.5771.175l.9233.24c.3016.074.6109.174.9279.3s.6109.293.8817.499.4894.461.6556.766c.1692.305.2539.669.2539 1.094 0 .536-.1385 1.011-.4155 1.427-.2739.415-.6725.743-1.1957.983-.5201.24-1.1495.36-1.8881.36-.7079 0-1.3203-.112-1.8374-.337-.517-.225-.9217-.543-1.2141-.956-.2924-.415-.454-.907-.4847-1.477h1.4311c.0277.342.1385.626.3323.854.197.225.4478.393.7525.503.3078.108.6448.162 1.011.162.4032 0 .7618-.063 1.0757-.189.317-.13.5663-.308.7478-.536.1816-.231.2724-.5.2724-.808 0-.28-.08-.509-.24-.688-.157-.178-.3709-.326-.6417-.443-.2678-.117-.5709-.22-.9095-.309l-1.1172-.305c-.7571-.206-1.3572-.509-1.8004-.909-.4401-.4-.6601-.93-.6601-1.588 0-.545.1477-1.02.4431-1.427.2955-.406.6956-.721 1.2003-.946.5048-.228 1.0741-.342 1.7081-.342.6402 0 1.2049.113 1.6943.337.4924.225.8802.534 1.1633.928.2832.391.4309.84.4432 1.348z"/><path d="m56.35 138.142c-.6986 0-1.3003-.149-1.805-.448-.5017-.301-.8895-.724-1.1634-1.269-.2708-.548-.4062-1.19-.4062-1.925 0-.727.1354-1.367.4062-1.921.2739-.554.6556-.986 1.1449-1.297.4924-.311 1.0679-.466 1.7266-.466.4001 0 .7878.066 1.1633.198.3755.133.7125.34 1.011.624.2986.283.534.651.7063 1.103.1724.449.2586.996.2586 1.639v.489h-5.6368v-1.034h4.2841c0-.363-.0738-.685-.2216-.965-.1477-.283-.3554-.506-.6232-.669-.2647-.163-.5755-.245-.9325-.245-.3878 0-.7263.096-1.0156.286-.2863.188-.5078.434-.6648.739-.1539.302-.2308.629-.2308.983v.808c0 .474.0831.877.2493 1.21.1692.332.4047.586.7063.761.3016.173.654.259 1.0572.259.2616 0 .5001-.037.7155-.111.2154-.077.4016-.191.5586-.341.157-.151.277-.337.3601-.559l1.3065.235c-.1047.385-.2924.722-.5633 1.011-.2677.287-.6047.51-1.011.67-.4031.157-.8632.235-1.3803.235z"/><path d="m64.2338 130.908v1.108h-3.8732v-1.108zm-2.8345-1.699h1.3803v6.708c0 .268.04.469.12.605.0801.132.1832.223.3093.272.1293.046.2693.069.4201.069.1108 0 .2078-.007.2909-.023.0831-.015.1477-.027.1939-.037l.2493 1.141c-.0801.03-.1939.061-.3417.092-.1477.034-.3323.052-.5539.055-.3632.007-.7017-.058-1.0157-.193-.3139-.136-.5678-.345-.7617-.628s-.2908-.639-.2908-1.067z"/><path d="m69.0707 130.908v1.108h-3.8732v-1.108zm-2.8345-1.699h1.3803v6.708c0 .268.04.469.1201.605.08.132.1831.223.3093.272.1292.046.2692.069.4201.069.1107 0 .2077-.007.2908-.023.0831-.015.1477-.027.1939-.037l.2493 1.141c-.08.03-.1939.061-.3416.092-.1478.034-.3324.052-.554.055-.3632.007-.7017-.058-1.0156-.193-.314-.136-.5679-.345-.7618-.628s-.2908-.639-.2908-1.067z"/><path d="m70.5976 137.999v-7.091h1.3803v7.091zm.6971-8.185c-.2401 0-.4463-.08-.6186-.24-.1693-.163-.2539-.357-.2539-.582 0-.227.0846-.421.2539-.581.1723-.163.3785-.245.6186-.245s.4447.082.614.245c.1723.16.2585.354.2585.581 0 .225-.0862.419-.2585.582-.1693.16-.3739.24-.614.24z"/><path d="m75.2152 133.789v4.21h-1.3803v-7.091h1.3249v1.154h.0878c.1631-.375.4185-.677.7663-.905.3508-.227.7925-.341 1.3249-.341.4832 0 .9064.101 1.2696.305.3631.2.6447.498.8448.895.2.397.3.888.3 1.473v4.51h-1.3803v-4.344c0-.514-.1339-.916-.4016-1.205-.2678-.292-.6356-.438-1.1034-.438-.32 0-.6047.069-.854.207-.2462.139-.4416.342-.5863.61-.1416.264-.2124.584-.2124.96z"/><path d="m84.5775 140.806c-.5632 0-1.048-.074-1.4542-.222-.4032-.147-.7325-.343-.988-.586-.2554-.243-.4462-.509-.5724-.799l1.1864-.489c.0831.135.1939.279.3324.429.1416.154.3324.285.5725.393.2431.108.5555.161.9371.161.5232 0 .9556-.127 1.2972-.383.3417-.252.5125-.655.5125-1.209v-1.395h-.0877c-.0831.151-.2032.319-.3601.504-.1539.184-.3663.344-.6371.48-.2708.135-.6232.203-1.0572.203-.5601 0-1.0648-.131-1.5142-.392-.4462-.265-.8002-.654-1.0618-1.168-.2585-.517-.3878-1.153-.3878-1.907s.1278-1.4.3832-1.939c.2585-.539.6125-.951 1.0618-1.237.4493-.289.9587-.434 1.5281-.434.4401 0 .7955.074 1.0664.221.2708.145.4816.314.6324.508.1539.194.2724.365.3555.513h.1015v-1.15h1.3527v7.248c0 .609-.1416 1.11-.4247 1.5-.2832.391-.6663.681-1.1495.868-.4802.188-1.0218.282-1.625.282zm-.0139-4.058c.397 0 .7325-.092 1.0064-.277.277-.188.4863-.455.6278-.803.1447-.351.217-.771.217-1.261 0-.477-.0708-.897-.2123-1.26-.1416-.363-.3494-.646-.6233-.849-.2739-.206-.6124-.31-1.0156-.31-.4155 0-.7617.108-1.0387.324-.277.212-.4863.501-.6278.868-.1385.366-.2078.775-.2078 1.227 0 .465.0708.873.2124 1.224s.3508.625.6278.822c.2801.197.6248.295 1.0341.295z"/><path d="m94.9415 132.639-1.2511.222c-.0523-.16-.1354-.312-.2493-.457-.1108-.145-.2616-.263-.4524-.356-.1908-.092-.4293-.138-.7156-.138-.3908 0-.7171.088-.9787.263-.2616.172-.3924.396-.3924.67 0 .236.0877.427.2632.572.1754.145.4585.263.8494.355l1.1264.259c.6525.151 1.1388.383 1.4588.697.3201.314.4801.722.4801 1.223 0 .425-.1231.804-.3693 1.136-.2431.329-.5832.588-1.0202.776-.434.187-.9372.281-1.5096.281-.794 0-1.4419-.169-1.9435-.508-.5017-.341-.8095-.826-.9233-1.454l1.3341-.203c.0831.348.2539.611.5125.79.2585.175.5955.263 1.011.263.4524 0 .814-.094 1.0848-.282.2709-.191.4063-.423.4063-.697 0-.222-.0831-.408-.2493-.559-.1631-.15-.4139-.264-.7525-.341l-1.2003-.263c-.6617-.151-1.151-.391-1.468-.721-.3139-.329-.4709-.746-.4709-1.251 0-.418.117-.784.3509-1.098s.557-.559.9694-.734c.4124-.179.8848-.268 1.4173-.268.7663 0 1.3695.166 1.8096.498.4401.33.731.771.8726 1.325z"/><path d="m45.0386 193.999v-9.454h3.37c.7325 0 1.3403.126 1.8235.378.4863.252.8494.602 1.0895 1.048.2401.443.3601.956.3601 1.537 0 .579-.1216 1.088-.3647 1.528-.2401.437-.6032.778-1.0895 1.021-.4832.243-1.091.364-1.8235.364h-2.5529v-1.228h2.4236c.4617 0 .8371-.066 1.1264-.198.2924-.132.5063-.325.6417-.577.1355-.253.2032-.556.2032-.91 0-.357-.0693-.666-.2078-.928-.1354-.261-.3493-.461-.6417-.6-.2893-.141-.6694-.212-1.1402-.212h-1.7912v8.231zm4.6672-4.266 2.336 4.266h-1.625l-2.2898-4.266z"/><path d="m56.2739 194.142c-.6986 0-1.3003-.149-1.805-.448-.5017-.301-.8895-.724-1.1634-1.269-.2708-.548-.4062-1.19-.4062-1.925 0-.727.1354-1.367.4062-1.921.2739-.554.6556-.986 1.1449-1.297.4924-.311 1.068-.466 1.7266-.466.4001 0 .7879.066 1.1633.198.3755.133.7125.34 1.011.624.2986.283.534.651.7064 1.103.1723.449.2585.996.2585 1.639v.489h-5.6367v-1.034h4.2841c0-.363-.0739-.685-.2216-.965-.1478-.283-.3555-.506-.6233-.669-.2646-.163-.5755-.245-.9325-.245-.3878 0-.7263.096-1.0156.286-.2862.188-.5078.434-.6648.739-.1539.302-.2308.629-.2308.983v.808c0 .474.0831.877.2493 1.21.1693.332.4047.586.7063.761.3016.173.654.259 1.0572.259.2616 0 .5001-.037.7155-.111.2155-.077.4017-.191.5586-.341.157-.151.277-.337.3601-.559l1.3065.235c-.1047.385-.2924.722-.5632 1.011-.2678.287-.6048.51-1.011.67-.4032.157-.8633.235-1.3804.235z"/><path d="m66.7106 186.908-2.5714 7.091h-1.4772l-2.576-7.091h1.4819l1.7958 5.457h.0738l1.7912-5.457z"/><path d="m68.0079 193.999v-7.091h1.3803v7.091zm.697-8.185c-.24 0-.4462-.08-.6186-.24-.1692-.163-.2539-.357-.2539-.582 0-.227.0847-.421.2539-.581.1724-.163.3786-.245.6186-.245.2401 0 .4448.082.614.245.1724.16.2586.354.2586.581 0 .225-.0862.419-.2586.582-.1692.16-.3739.24-.614.24z"/><path d="m74.3013 194.142c-.6987 0-1.3003-.149-1.8051-.448-.5016-.301-.8894-.724-1.1633-1.269-.2709-.548-.4063-1.19-.4063-1.925 0-.727.1354-1.367.4063-1.921.2739-.554.6555-.986 1.1449-1.297.4924-.311 1.0679-.466 1.7265-.466.4001 0 .7879.066 1.1634.198.3754.133.7125.34 1.011.624.2985.283.534.651.7063 1.103.1724.449.2585.996.2585 1.639v.489h-5.6367v-1.034h4.2841c0-.363-.0739-.685-.2216-.965-.1477-.283-.3555-.506-.6232-.669-.2647-.163-.5755-.245-.9325-.245-.3878 0-.7264.096-1.0157.286-.2862.188-.5078.434-.6647.739-.1539.302-.2309.629-.2309.983v.808c0 .474.0831.877.2493 1.21.1693.332.4047.586.7063.761.3017.173.654.259 1.0572.259.2616 0 .5001-.037.7156-.111.2154-.077.4016-.191.5586-.341.1569-.151.277-.337.3601-.559l1.3064.235c-.1046.385-.2924.722-.5632 1.011-.2678.287-.6048.51-1.011.67-.4032.157-.8633.235-1.3803.235z"/><path d="m80.3996 193.999-2.0866-7.091h1.4265l1.3895 5.208h.0693l1.3942-5.208h1.4265l1.3849 5.185h.0692l1.3804-5.185h1.4265l-2.0821 7.091h-1.408l-1.4403-5.12h-.1062l-1.4404 5.12z"/></g><rect fill="#a1a7ad" height="24" rx="12" width="24" x="12" y="9"/><rect fill="#fa5320" height="24" rx="12" width="24" x="12" y="65"/><rect fill="#f7f9fa" height="24" rx="12" width="24" x="12" y="121"/><rect fill="#f7f9fa" height="24" rx="12" width="24" x="12" y="177"/><path d="m29.5625 17.9141c.2344.2343.2344.5859 0 .7968l-6.1875 6.1875c-.2109.2344-.5625.2344-.7734 0l-3.1875-3.1875c-.2344-.2109-.2344-.5625 0-.7968.2109-.211.5625-.211.7734 0l2.8125 2.8125 5.7891-5.8125c.2109-.211.5625-.211.7734 0z" fill="#fff"/><path d="m21.1599 81.0009v-.9546l2.9531-3.0596c.3154-.3324.5753-.6236.7798-.8736.2074-.2528.3623-.4929.4645-.7202.1023-.2272.1534-.4687.1534-.7244 0-.2898-.0681-.5398-.2045-.75-.1364-.2131-.3224-.3764-.5582-.4901-.2358-.1164-.5015-.1747-.7969-.1747-.3125 0-.5852.0639-.8182.1918-.233.1278-.4119.3082-.5369.5412-.125.2329-.1875.5057-.1875.8182h-1.2571c0-.5313.1221-.9958.3664-1.3935.2444-.3977.5796-.706 1.0057-.9247.4262-.2216.9105-.3324 1.4532-.3324.5482 0 1.0312.1094 1.4488.3281.4205.2159.7486.5114.9844.8864.2358.3721.3537.7926.3537 1.2613 0 .3239-.0611.6407-.1833.9503-.1193.3097-.3281.6549-.6264 1.0355-.2983.3779-.713.8367-1.2443 1.3765l-1.7344 1.8153v.0639h3.929v1.1293z" fill="#fff"/><path d="m24.0107 137.12c-.5853 0-1.108-.101-1.5682-.302-.4574-.202-.8196-.482-1.0867-.84-.2642-.361-.4062-.778-.4261-1.253h1.3381c.017.259.1036.483.2599.674.1591.187.3665.332.6222.434.2556.103.5397.154.8522.154.3438 0 .6478-.06.912-.179.267-.12.4758-.286.6264-.499.1506-.216.2258-.464.2258-.746 0-.292-.0752-.549-.2258-.771-.1477-.224-.3651-.4-.652-.528-.2841-.128-.6278-.192-1.0313-.192h-.7372v-1.074h.7372c.3239 0 .608-.058.8523-.175.2472-.116.4404-.278.5796-.485.1392-.211.2088-.456.2088-.738 0-.27-.0611-.504-.1833-.703-.1193-.202-.2897-.359-.5113-.473-.2188-.113-.4773-.17-.7756-.17-.2841 0-.5497.052-.7969.157-.2443.103-.4432.25-.5966.444-.1534.19-.2358.419-.2471.686h-1.2742c.0142-.472.1534-.887.4176-1.245.2671-.358.6194-.637 1.0569-.839s.9233-.303 1.4573-.303c.5597 0 1.0427.11 1.4489.328.4091.216.7244.505.946.865.2245.361.3353.756.3324 1.185.0029.489-.1335.904-.4091 1.244-.2727.341-.6363.57-1.0909.687v.068c.5796.088 1.0284.318 1.3466.69.321.372.4801.834.4773 1.385.0028.48-.1307.911-.4006 1.291-.267.381-.6321.681-1.0952.899-.463.216-.9929.324-1.5894.324z" fill="#707880"/><path d="m20.7305 191.296v-1.065l3.7713-5.958h.8395v1.569h-.5327l-2.6974 4.27v.068h5.169v1.116zm4.1378 1.705v-2.029l.0085-.485v-6.214h1.2486v8.728z" fill="#707880"/></svg>