<svg fill="none" height="340" viewBox="0 0 440 340" width="440" xmlns="http://www.w3.org/2000/svg" xmlns:xlink="http://www.w3.org/1999/xlink"><mask id="a" fill="#fff"><path d="m0 1h440v170h-440z" fill="#fff"/></mask><path d="m0 0h440v340h-440z" fill="#fff"/><path d="m0 170h440v170h-440z" fill="#28323b"/><path d="m0 1h440v170h-440z" fill="#fff"/><path d="m0 1v-2h-2v2zm0 2h440v-4h-440zm2 168v-170h-4v170z" fill="#f7f9fa" mask="url(#a)"/><path d="m186.384 106.9c-.327.327-.713.489-1.161.489h-4.645c-.449 0-.835-.162-1.161-.489-.327-.326-.489-.712-.489-1.161v-15.5222c0-2.5255-.591-4.5013-1.772-5.9277-1.182-1.4257-2.913-2.139-5.194-2.139-2.119 0-3.81.7333-5.073 2.2001-1.263 1.4667-1.894 3.4221-1.894 5.8666v15.5222c0 .449-.163.835-.489 1.161-.326.327-.713.489-1.161.489h-4.644c-.449 0-.836-.162-1.162-.489-.326-.326-.489-.712-.489-1.161v-40.0887c0-.4479.163-.8347.489-1.1612.326-.3256.713-.4891 1.162-.4891h4.644c.448 0 .835.1635 1.161.4891.326.3265.489.7133.489 1.1612v13.0166c2.444-2.4445 5.378-3.6668 8.8-3.6668 4.603 0 7.934 1.3246 9.992 3.9723 2.056 2.6486 3.086 6.091 3.086 10.3279v16.4387c0 .449-.164.835-.489 1.161" fill="#fa5320"/><path d="m193.349 76.0999c.326-.3252.713-.4886 1.162-.4886h4.644c.448 0 .835.1634 1.161.4886.326.3267.489.7135.489 1.1612v15.5224c0 2.5666.539 4.5527 1.619 5.9581 1.079 1.4054 2.76 2.1084 5.042 2.1084 2.118 0 3.758-.723 4.92-2.1695 1.161-1.4456 1.741-3.4117 1.741-5.897v-15.5224c0-.4477.163-.8345.489-1.1612.326-.3252.712-.4886 1.161-.4886h4.645c.448 0 .834.1634 1.161.4886.325.3267.489.7135.489 1.1612v28.4779c0 .449-.164.835-.489 1.161-.327.327-.713.489-1.161.489h-4.645c-.449 0-.835-.162-1.161-.489-.326-.326-.489-.712-.489-1.161v-1.406c-2.363 2.445-5.194 3.667-8.494 3.667-4.605 0-7.883-1.314-9.839-3.942-1.956-2.627-2.934-6.0801-2.934-10.358v-16.4389c0-.4477.163-.8345.489-1.1612" fill="#fa5320"/><path d="m258.005 106.9c-.327.327-.714.489-1.162.489h-4.644c-.449 0-.835-.162-1.161-.489-.327-.326-.489-.712-.489-1.161v-15.5222c0-2.5255-.591-4.5013-1.772-5.9277-1.182-1.4257-2.914-2.139-5.195-2.139-2.119 0-3.81.7333-5.072 2.2001-1.263 1.4667-1.895 3.4221-1.895 5.8666v15.5222c0 .449-.163.835-.488 1.161-.327.327-.714.489-1.161.489h-4.645c-.448 0-.836-.162-1.161-.489-.327-.326-.489-.712-.489-1.161v-28.4779c0-.4477.162-.8345.489-1.1612.325-.3252.713-.4886 1.161-.4886h4.645c.447 0 .834.1634 1.161.4886.325.3267.488.7135.488 1.1612v1.4058c2.445-2.4445 5.378-3.6668 8.8-3.6668 4.604 0 7.934 1.3246 9.992 3.9723 2.057 2.6486 3.086 6.091 3.086 10.3279v16.4387c0 .449-.163.835-.488 1.161" fill="#fa5320"/><path d="m276.246 98.9863c.712.713 1.945 1.0697 3.697 1.0697h3.728c.448 0 .834.163 1.161.488.325.327.489.714.489 1.162v4.033c0 .449-.164.835-.489 1.161-.327.327-.713.489-1.161.489h-4.522c-3.872 0-6.825-.947-8.862-2.842-2.037-1.894-3.055-4.7148-3.055-8.4636v-13.1388h-4.033c-.449 0-.836-.1625-1.162-.4889-.326-.3255-.488-.7123-.488-1.1612v-4.0334c0-.4477.162-.8345.488-1.1612.326-.3252.713-.4886 1.162-.4886h4.033v-9.961c0-.4479.162-.8347.489-1.1612.326-.3256.712-.4891 1.161-.4891h4.644c.448 0 .835.1635 1.161.4891.326.3265.49.7133.49 1.1612v9.961h7.883c.448 0 .834.1634 1.161.4886.325.3267.489.7135.489 1.1612v4.0334c0 .4489-.164.8357-.489 1.1612-.327.3264-.713.4889-1.161.4889h-7.883v12.9555c0 1.3445.355 2.3737 1.069 3.0862" fill="#fa5320"/><path d="m309.643 87.9556c-.449-3.7478-2.71-5.6219-6.784-5.6219-2.118 0-3.779.5706-4.98 1.7109-1.202 1.1409-1.885 2.4443-2.048 3.911zm1.1-10.8471c2.281 1.4054 4.042 3.2904 5.286 5.6527 1.242 2.3635 1.864 4.9499 1.864 7.761v2.7502c0 .4485-.163.8355-.49 1.1612-.326.3264-.713.4887-1.16.4887h-20.412c0 1.7523.693 3.1471 2.079 4.1862 1.384 1.0385 3.034 1.5585 4.949 1.5585 2.241 0 3.973-.468 5.195-1.4059.448-.3255.814-.5501 1.1-.6721.284-.1222.672-.1833 1.161-.1833h4.889c.447 0 .834.1528 1.161.4584.325.3053.488.6625.488 1.0692 0 .8557-.56 1.9357-1.68 3.2387-1.121 1.305-2.741 2.435-4.858 3.392-2.119.957-4.605 1.436-7.456 1.436-3.015 0-5.652-.692-7.913-2.078-2.262-1.384-4.004-3.32-5.225-5.805-1.223-2.4847-1.834-5.357-1.834-8.6168 0-3.0557.611-5.8361 1.834-8.3417 1.221-2.5055 2.973-4.4916 5.255-5.9583 2.281-1.4667 4.909-2.2001 7.883-2.2001s5.602.7028 7.884 2.1084" fill="#fa5320"/><path d="m332.284 84.5641c-1.08 1.0799-1.62 2.8417-1.62 5.286v15.8889c0 .449-.163.835-.489 1.161-.326.327-.713.489-1.161.489h-4.644c-.449 0-.836-.162-1.161-.489-.327-.326-.489-.712-.489-1.161v-28.4779c0-.4477.162-.8345.489-1.1612.325-.3252.712-.4886 1.161-.4886h4.644c.448 0 .835.1634 1.161.4886.326.3267.489.7135.489 1.1612v1.4058c1.1-1.0588 2.261-1.8334 3.484-2.3223 1.222-.4889 2.77-.7333 4.644-.7333h2.75c.448 0 .834.1634 1.161.4886.326.3267.489.7135.489 1.1612v4.0334c0 .4489-.163.8357-.489 1.1612-.327.3264-.713.4889-1.161.4889h-3.972c-2.445 0-4.207.5403-5.286 1.6195" fill="#fa5320"/><path d="m123.117 82.9543c-.909.2615-1.911.2659-2.849.2262-1.09-.0461-2.245-.1839-3.252-.6314-.828-.3681-1.492-1.0322-1.145-1.9915.246-.6766.789-1.2809 1.417-1.6216.707-.3833 1.483-.321 2.19.0254.793.3889 1.453 1.0216 2.051 1.6599.314.3348.613.6823.909 1.0332.136.1615 1.06 1.0843.679 1.2998zm15.113.3298c-1.398-.3254-3.05-.2088-4.452-.433-2.208-.3532-5.497-2.9279-7.28-5.5448-1.239-1.8185-1.83-3.6706-2.777-5.9274-.661-1.5753-2.103-6.5578-4.118-4.2256-.83.9604-1.759 4.1221-2.438 4.0776-.503.1168-.585-.8629-.744-1.2817-.288-.7603-.442-1.6399-.829-2.3569-.309-.5731-.715-1.2595-1.337-1.5381-1.108-.5697-2.444 1.1476-3.107 3.184-.284 1.0919-2.189 3.2086-3.019 3.7206-3.776 2.3301-11.3554 4.7851-12.1284 12.9596-.0032.0339 0 .137.1283.0442.9039-.6546 11.1561-8.0387 4.5761 6.2346-4.0304 8.7448 15.431 14.3138 16.432 14.3358.135.003.125-.058.129-.098 1.553-13.9574 16.896-12.4882 20.469-15.8308 3.541-3.3121 3.613-6.5182.495-7.3201" fill="#fa5320"/><g fill="#fff"><path d="m186.384 275.9c-.327.327-.713.489-1.161.489h-4.645c-.449 0-.835-.162-1.161-.489-.327-.326-.489-.712-.489-1.161v-15.522c0-2.526-.591-4.501-1.772-5.928-1.182-1.426-2.913-2.139-5.194-2.139-2.119 0-3.81.733-5.073 2.2s-1.894 3.422-1.894 5.867v15.522c0 .449-.163.835-.489 1.161-.326.327-.713.489-1.161.489h-4.644c-.449 0-.836-.162-1.162-.489-.326-.326-.489-.712-.489-1.161v-40.089c0-.448.163-.834.489-1.161.326-.326.713-.489 1.162-.489h4.644c.448 0 .835.163 1.161.489.326.327.489.713.489 1.161v13.017c2.444-2.445 5.378-3.667 8.8-3.667 4.603 0 7.934 1.325 9.992 3.972 2.056 2.649 3.086 6.091 3.086 10.328v16.439c0 .449-.164.835-.489 1.161"/><path d="m193.349 245.1c.326-.325.713-.489 1.162-.489h4.644c.448 0 .835.164 1.161.489.326.327.489.713.489 1.161v15.523c0 2.566.539 4.552 1.619 5.958 1.079 1.405 2.76 2.108 5.042 2.108 2.118 0 3.758-.723 4.92-2.169 1.161-1.446 1.741-3.412 1.741-5.897v-15.523c0-.448.163-.834.489-1.161.326-.325.712-.489 1.161-.489h4.645c.448 0 .834.164 1.161.489.325.327.489.713.489 1.161v28.478c0 .449-.164.835-.489 1.161-.327.327-.713.489-1.161.489h-4.645c-.449 0-.835-.162-1.161-.489-.326-.326-.489-.712-.489-1.161v-1.406c-2.363 2.445-5.194 3.667-8.494 3.667-4.605 0-7.883-1.314-9.839-3.942-1.956-2.627-2.934-6.08-2.934-10.358v-16.439c0-.448.163-.834.489-1.161"/><path d="m258.005 275.9c-.327.327-.714.489-1.162.489h-4.644c-.449 0-.835-.162-1.161-.489-.327-.326-.489-.712-.489-1.161v-15.522c0-2.526-.591-4.501-1.772-5.928-1.182-1.426-2.914-2.139-5.195-2.139-2.119 0-3.81.733-5.072 2.2-1.263 1.467-1.895 3.422-1.895 5.867v15.522c0 .449-.163.835-.488 1.161-.327.327-.714.489-1.161.489h-4.645c-.448 0-.836-.162-1.161-.489-.327-.326-.489-.712-.489-1.161v-28.478c0-.448.162-.834.489-1.161.325-.325.713-.489 1.161-.489h4.645c.447 0 .834.164 1.161.489.325.327.488.713.488 1.161v1.406c2.445-2.445 5.378-3.667 8.8-3.667 4.604 0 7.934 1.325 9.992 3.972 2.057 2.649 3.086 6.091 3.086 10.328v16.439c0 .449-.163.835-.488 1.161"/><path d="m276.246 267.986c.712.713 1.945 1.07 3.697 1.07h3.728c.448 0 .834.163 1.161.488.325.327.489.714.489 1.162v4.033c0 .449-.164.835-.489 1.161-.327.327-.713.489-1.161.489h-4.522c-3.872 0-6.825-.947-8.862-2.842-2.037-1.894-3.055-4.715-3.055-8.464v-13.138h-4.033c-.449 0-.836-.163-1.162-.489s-.488-.713-.488-1.161v-4.034c0-.448.162-.834.488-1.161.326-.325.713-.489 1.162-.489h4.033v-9.961c0-.448.162-.834.489-1.161.326-.326.712-.489 1.161-.489h4.644c.448 0 .835.163 1.161.489.326.327.49.713.49 1.161v9.961h7.883c.448 0 .834.164 1.161.489.325.327.489.713.489 1.161v4.034c0 .448-.164.835-.489 1.161-.327.326-.713.489-1.161.489h-7.883v12.955c0 1.345.355 2.374 1.069 3.086"/><path d="m309.643 256.956c-.449-3.748-2.71-5.622-6.784-5.622-2.118 0-3.779.57-4.98 1.711-1.202 1.14-1.885 2.444-2.048 3.911zm1.1-10.847c2.281 1.405 4.042 3.29 5.286 5.652 1.242 2.364 1.864 4.95 1.864 7.761v2.75c0 .449-.163.836-.49 1.162-.326.326-.713.488-1.16.488h-20.412c0 1.753.693 3.147 2.079 4.186 1.384 1.039 3.034 1.559 4.949 1.559 2.241 0 3.973-.468 5.195-1.406.448-.325.814-.55 1.1-.672.284-.122.672-.183 1.161-.183h4.889c.447 0 .834.152 1.161.458.325.305.488.663.488 1.069 0 .856-.56 1.936-1.68 3.239-1.121 1.305-2.741 2.435-4.858 3.392-2.119.957-4.605 1.436-7.456 1.436-3.015 0-5.652-.692-7.913-2.078-2.262-1.384-4.004-3.32-5.225-5.805-1.223-2.485-1.834-5.357-1.834-8.617 0-3.055.611-5.836 1.834-8.342 1.221-2.505 2.973-4.491 5.255-5.958 2.281-1.467 4.909-2.2 7.883-2.2s5.602.703 7.884 2.109"/><path d="m332.284 253.564c-1.08 1.08-1.62 2.842-1.62 5.286v15.889c0 .449-.163.835-.489 1.161-.326.327-.713.489-1.161.489h-4.644c-.449 0-.836-.162-1.161-.489-.327-.326-.489-.712-.489-1.161v-28.478c0-.448.162-.834.489-1.161.325-.325.712-.489 1.161-.489h4.644c.448 0 .835.164 1.161.489.326.327.489.713.489 1.161v1.406c1.1-1.059 2.261-1.834 3.484-2.322 1.222-.489 2.77-.734 4.644-.734h2.75c.448 0 .834.164 1.161.489.326.327.489.713.489 1.161v4.034c0 .448-.163.835-.489 1.161-.327.326-.713.489-1.161.489h-3.972c-2.445 0-4.207.54-5.286 1.619"/><path d="m123.117 251.954c-.909.262-1.911.266-2.849.227-1.09-.047-2.245-.184-3.252-.632-.828-.368-1.492-1.032-1.145-1.991.246-.677.789-1.281 1.417-1.622.707-.383 1.483-.321 2.19.025.793.389 1.453 1.022 2.051 1.66.314.335.613.683.909 1.034.136.161 1.06 1.084.679 1.299zm15.113.33c-1.398-.325-3.05-.209-4.452-.433-2.208-.353-5.497-2.928-7.28-5.545-1.239-1.818-1.83-3.67-2.777-5.927-.661-1.575-2.103-6.558-4.118-4.226-.83.961-1.759 4.122-2.438 4.078-.503.117-.585-.863-.744-1.282-.288-.76-.442-1.64-.829-2.357-.309-.573-.715-1.259-1.337-1.538-1.108-.57-2.444 1.148-3.107 3.184-.284 1.092-2.189 3.209-3.019 3.721-3.776 2.33-11.3554 4.785-12.1284 12.959-.0032.034 0 .137.1283.045.9039-.655 11.1561-8.039 4.5761 6.234-4.0304 8.745 15.431 14.314 16.432 14.336.135.003.125-.058.129-.098 1.553-13.957 16.896-12.488 20.469-15.831 3.541-3.312 3.613-6.518.495-7.32"/></g></svg>