<svg fill="none" height="160" viewBox="0 0 1593 160" width="1593" xmlns="http://www.w3.org/2000/svg" xmlns:xlink="http://www.w3.org/1999/xlink"><clipPath id="a"><path d="m0 0h1593v160h-1593z"/></clipPath><g clip-path="url(#a)" fill="#f7f9fa"><path d="m-8 29.9187h40.4018v130.0813h-40.4018z"/><path d="m187.948 35h40.402v125h-40.402z"/><path d="m383.897 40h40.402v120h-40.402z"/><path d="m579.846 29.9187h40.401v130.0813h-40.401z"/><path d="m775.794 29.9187h40.402v130.0813h-40.402z"/><path d="m971.743 38h40.397v122h-40.397z"/><path d="m1167.69 65h40.4v95h-40.4z"/><path d="m40.9872 48.1301h40.4017v111.8699h-40.4017z"/><path d="m237.441 71h40.401v89h-40.401z"/><path d="m432.379 71h40.402v89h-40.402z"/><path d="m628.328 61h40.401v99h-40.401z"/><path d="m824.276 61h40.402v99h-40.402z"/><path d="m1020.22 61h40.41v99h-40.41z"/><path d="m1216.17 38h40.4v122h-40.4z"/><path d="m89.9742 13.0081h40.4018v146.9919h-40.4018z"/><path d="m285.923 11h40.402v149h-40.402z"/><path d="m481.871 43h40.402v117h-40.402z"/><path d="m677.82 30h40.402v130h-40.402z"/><path d="m873.768 30h40.402v130h-40.402z"/><path d="m1069.72 24h40.4v136h-40.4z"/><path d="m1265.67 24h40.4v136h-40.4z"/><path d="m1363.64 30h40.4v130h-40.4z"/><path d="m1413.13 74h40.4v86h-40.4z"/><path d="m1462.62 52h40.41v108h-40.41z"/><path d="m1560.6 27h40.4v133h-40.4z"/><path d="m1511.11 5h40.4v155h-40.4z"/><path d="m138.961 0h40.402v160h-40.402z"/><path d="m335.415 22h40.402v138h-40.402z"/><path d="m531.363 0h40.402v160h-40.402z"/><path d="m727.312 11h40.402v149h-40.402z"/><path d="m923.26 17h40.402v143h-40.402z"/><path d="m1119.21 17h40.4v143h-40.4z"/><path d="m1315.16 48h40.4v112h-40.4z"/></g></svg>