<svg fill="none" height="580" viewBox="0 0 680 580" width="680" xmlns="http://www.w3.org/2000/svg" xmlns:xlink="http://www.w3.org/1999/xlink"><mask id="a" height="580" maskUnits="userSpaceOnUse" width="680" x="0" y="0"><path d="m.5.5h679v579h-679z" fill="#fcfcfd" stroke="#eef0f3"/></mask><g mask="url(#a)"><path clip-rule="evenodd" d="m910.896 33.6764-438.343 795.4936.928.372 438.343-795.4935zm-186.747-74.8633-438.343 795.4929.928.372 438.343-795.4928zm-777.8831 659.3779 438.3431-795.493.928.372-438.3429 795.493zm344.9691-832.925-438.343 795.493.929.372 438.342-795.493zm-152.793-61.252-438.343 795.493.928.372 438.343-795.493zm-33.954-13.611-438.342 795.493.928.372 438.342-795.493zm-8.4883-3.402-438.3427 795.493.928.372 438.3429-795.493zm-421.3657 802.299 438.343-795.493.928.372-438.343 795.493zm446.831-792.09-438.342 795.493.928.372 438.343-795.493zm-429.854 798.895 438.342-795.493.929.372-438.343 795.493zm16.977 6.807 438.342-795.493.929.372-438.343 795.493zm446.831-792.091-438.343 795.493.928.372 438.343-795.493zm-429.854 798.895 438.343-795.493.928.372-438.343 795.494zm446.831-792.088-438.343 795.493.929.372 438.342-795.493zm-429.854 798.895 438.343-795.493.928.372-438.343 795.493zm446.831-792.091-438.343 795.493.929.372 438.342-795.493zm-429.854 798.896 438.343-795.493.928.372-438.343 795.493zm446.831-792.089-438.342 795.493.928.372 438.342-795.493zm-429.854 798.895 438.343-795.493.928.372-438.343 795.493zm446.831-792.09-438.342 795.493.928.372 438.343-795.493zm-429.854 798.897 438.342-795.493.929.372-438.343 795.493zm446.831-792.091-438.343 795.493.928.372 438.343-795.493zm-429.854 798.896 438.342-795.493.929.372-438.343 795.493zm446.831-792.091-438.343 795.493.928.372 438.343-795.493zm-429.854 798.897 438.343-795.493.928.372-438.343 795.493zm446.831-792.09-438.343 795.493.929.372 438.342-795.493zm-429.854 798.895 438.343-795.493.928.372-438.343 795.493zm16.977 6.807 438.343-795.494.928.373-438.343 795.493zm446.831-792.091-438.342 795.493.928.372 438.342-795.493zm-429.854 798.895 438.343-795.493.928.372-438.343 795.493zm446.831-792.089-438.342 795.494.928.372 438.343-795.493zm-429.854 798.896 438.343-795.493.928.372-438.343 795.493zm446.831-792.091-438.3422 795.493.9282.372 438.343-795.493zm-429.8537 798.896 438.3427-795.493.928.372-438.3425 795.493zm446.8307-792.089-438.3427 795.493.9282.372 438.3425-795.493zm-429.8542 798.895 438.3432-795.493.928.372-438.343 795.493zm446.8312-792.091-438.3426 795.494.9282.372 438.3424-795.493zm16.977 6.807-438.3425 795.493.9282.372 438.3423-795.493zm-429.854 798.896 438.343-795.494.928.373-438.3428 795.493zm752.417-669.5873-438.342 795.4933.928.372 438.343-795.4932zm-743.9284 672.9893 438.3424-795.493.929.372-438.3432 795.493zm8.4885 3.404 438.3429-795.493.928.372-438.3427 795.493zm752.4179-669.5866-438.343 795.4936.928.372 438.343-795.4935zm-743.9293 672.9896 438.3423-795.494.929.373-438.3431 795.493zm752.4173-669.5873-438.343 795.4933.929.372 438.342-795.4932zm-743.92876 672.9893 438.34276-795.493.928.372-438.34257 795.493zm752.41776-669.5869-438.343 795.4929.928.372 438.343-795.4929zm-743.9292 672.9889 438.3432-795.493.928.372-438.34301 795.493zm752.4172-669.5846-438.343 795.4936.929.372 438.342-795.4935zm-743.9286 672.9896 438.3426-795.494.928.373-438.3424 795.493zm752.4166-669.5873-438.343 795.4933.928.372 438.343-795.4932zm-743.9287 672.9893 438.3427-795.493.928.372-438.3425 795.493zm752.4167-669.587-438.343 795.493.929.372 438.342-795.4929zm-743.9281 672.989 438.3431-795.493.928.372-438.3429 795.493zm752.4171-669.5866-438.343 795.4936.928.372 438.343-795.4935zm-743.9286 672.9896 438.3426-795.494.928.373-438.3424 795.493zm752.4166-669.5853-438.342 795.4933.928.372 438.342-795.4932zm-743.928 672.9893 438.343-795.493.928.372-438.3428 795.493zm752.417-669.587-438.343 795.493.928.372 438.343-795.4929zm-743.9285 672.989 438.3425-795.493.928.372-438.3423 795.493zm752.4165-669.58663-438.342 795.49363.928.372 438.343-795.49353zm-743.9279 672.98963 438.3429-795.494.928.373-438.3427 795.493zm752.4169-669.58729-438.343 795.49329.928.372 438.343-795.49319zm-743.9284 672.99129 438.3424-795.493.929.372-438.3432 795.493zm752.4164-669.586979-438.342 795.492979.928.372 438.343-795.4928832zm-743.9278 672.988979 438.3428-795.493.928.372-438.3426 795.493zm752.4168-669.58664-438.343 795.49364.928.372 438.343-795.49354zm-743.9283 672.98964 438.3423-795.494.929.373-438.3431 795.493zm752.4173-669.58729-438.343 795.49329.928.372 438.343-795.4932zm-743.9287 672.98929 438.3427-795.493.928.372-438.3425 795.493zm752.4167-669.58501-438.343 795.49301.929.372 438.342-795.4929zm-743.928 672.98901 438.343-795.493.928.372-438.343 795.493zm752.417-669.5867-438.343 795.4937.928.372 438.343-795.4936zm-743.929 672.9897 438.343-795.494.928.373-438.342 795.493zm752.417-669.5873-438.343 795.4933.929.372 438.342-795.4932zm-743.929 672.9893 438.343-795.493.928.372-438.342 795.493zm752.418-669.587-438.343 795.493.928.372 438.343-795.4929zm-743.929 672.989 438.343-795.493.928.372-438.343 795.493zm752.417-669.5847-438.342 795.4927.928.373 438.343-795.4936zm-743.929 672.9897 438.343-795.4936.928.3721-438.342 795.4935zm752.418-669.5873-438.343 795.4933.928.372 438.343-795.4932zm-743.929 672.9893 438.343-795.4932.928.3721-438.343 795.4931zm752.417-669.587-438.342 795.493.928.372 438.343-795.4929zm-743.928 672.989 438.342-795.4929.929.3721-438.343 795.4928zm8.488 3.405 438.343-795.4936.928.3721-438.343 795.4935zm752.417-669.5874-438.342 795.4934.928.372 438.343-795.4933zm-743.928 672.9894 438.342-795.4933.929.3721-438.343 795.4932zm752.417-669.587-438.343 795.493.928.372 438.343-795.4929zm-743.929 672.989 438.343-795.4929.928.3721-438.343 795.4928zm752.418-669.5867-438.343 795.4927.928.373 438.343-795.4936zm-743.929 672.9897 438.342-795.4936.929.3721-438.343 795.4935zm752.417-669.5854-438.343 795.4934.929.372 438.342-795.4933zm-743.929 672.9894 438.343-795.4933.928.3721-438.342 795.4932zm752.418-669.587-438.343 795.493.928.372 438.343-795.4929zm-743.929 672.989 438.343-795.4929.928.3721-438.343 795.4928zm752.417-669.5867-438.342 795.4937.928.372 438.342-795.4936zm-743.929 672.9897 438.343-795.4936.928.3721-438.342 795.4935zm752.417-669.5873-438.343 795.4933.928.372 438.343-795.4932zm-743.929 672.9913 438.343-795.4933.928.3721-438.342 795.4932zm752.417-669.587-438.343 795.493.929.372 438.342-795.4929zm-743.928 672.989 438.343-795.4929.928.3721-438.343 795.4928zm752.417-669.5867-438.343 795.4927.928.373 438.343-795.4936zm-743.929 672.9897 438.343-795.4936.928.3721-438.342 795.4935zm752.417-669.5873-438.342 795.4933.928.372 438.343-795.4933zm-743.928 672.9893 438.343-795.4933.928.3721-438.343 795.4932zm752.418-669.585-438.344 795.493.928.372 438.346-795.4929zm-743.929 672.989 438.342-795.493.929.3721-438.343 795.4929zm752.419-669.5867-438.345 795.4927.928.373 438.347-795.4936zm-743.931 672.9897 438.343-795.4936.928.3721-438.343 795.4935zm752.421-669.5874-438.347 795.4934.928.372 438.339-795.4933z" fill="#eef0f3" fill-rule="evenodd"/></g></svg>