<svg fill="none" height="418" viewBox="0 0 399 418" width="399" xmlns="http://www.w3.org/2000/svg" xmlns:xlink="http://www.w3.org/1999/xlink"><filter id="a" color-interpolation-filters="sRGB" filterUnits="userSpaceOnUse" height="48" width="48" x="76" y="101"><feFlood flood-opacity="0" result="BackgroundImageFix"/><feGaussianBlur in="BackgroundImageFix" stdDeviation="2"/><feComposite in2="SourceAlpha" operator="in" result="effect1_backgroundBlur_485_11466"/><feBlend in="SourceGraphic" in2="effect1_backgroundBlur_485_11466" mode="normal" result="shape"/></filter><filter id="b" color-interpolation-filters="sRGB" filterUnits="userSpaceOnUse" height="48" width="48" x="316" y="380"><feFlood flood-opacity="0" result="BackgroundImageFix"/><feGaussianBlur in="BackgroundImageFix" stdDeviation="2"/><feComposite in2="SourceAlpha" operator="in" result="effect1_backgroundBlur_485_11466"/><feBlend in="SourceGraphic" in2="effect1_backgroundBlur_485_11466" mode="normal" result="shape"/></filter><filter id="c" color-interpolation-filters="sRGB" filterUnits="userSpaceOnUse" height="48" width="48" x="116" y="220"><feFlood flood-opacity="0" result="BackgroundImageFix"/><feGaussianBlur in="BackgroundImageFix" stdDeviation="2"/><feComposite in2="SourceAlpha" operator="in" result="effect1_backgroundBlur_485_11466"/><feBlend in="SourceGraphic" in2="effect1_backgroundBlur_485_11466" mode="normal" result="shape"/></filter><filter id="d" color-interpolation-filters="sRGB" filterUnits="userSpaceOnUse" height="48" width="48" x="316" y="180"><feFlood flood-opacity="0" result="BackgroundImageFix"/><feGaussianBlur in="BackgroundImageFix" stdDeviation="2"/><feComposite in2="SourceAlpha" operator="in" result="effect1_backgroundBlur_485_11466"/><feBlend in="SourceGraphic" in2="effect1_backgroundBlur_485_11466" mode="normal" result="shape"/></filter><filter id="e" color-interpolation-filters="sRGB" filterUnits="userSpaceOnUse" height="48" width="48" x="156" y="180"><feFlood flood-opacity="0" result="BackgroundImageFix"/><feGaussianBlur in="BackgroundImageFix" stdDeviation="2"/><feComposite in2="SourceAlpha" operator="in" result="effect1_backgroundBlur_485_11466"/><feBlend in="SourceGraphic" in2="effect1_backgroundBlur_485_11466" mode="normal" result="shape"/></filter><filter id="f" color-interpolation-filters="sRGB" filterUnits="userSpaceOnUse" height="48" width="48" x="-4" y="180"><feFlood flood-opacity="0" result="BackgroundImageFix"/><feGaussianBlur in="BackgroundImageFix" stdDeviation="2"/><feComposite in2="SourceAlpha" operator="in" result="effect1_backgroundBlur_485_11466"/><feBlend in="SourceGraphic" in2="effect1_backgroundBlur_485_11466" mode="normal" result="shape"/></filter><filter id="g" color-interpolation-filters="sRGB" filterUnits="userSpaceOnUse" height="48" width="48" x="316" y="140"><feFlood flood-opacity="0" result="BackgroundImageFix"/><feGaussianBlur in="BackgroundImageFix" stdDeviation="2"/><feComposite in2="SourceAlpha" operator="in" result="effect1_backgroundBlur_485_11466"/><feBlend in="SourceGraphic" in2="effect1_backgroundBlur_485_11466" mode="normal" result="shape"/></filter><filter id="h" color-interpolation-filters="sRGB" filterUnits="userSpaceOnUse" height="48" width="48" x="316" y="20"><feFlood flood-opacity="0" result="BackgroundImageFix"/><feGaussianBlur in="BackgroundImageFix" stdDeviation="2"/><feComposite in2="SourceAlpha" operator="in" result="effect1_backgroundBlur_485_11466"/><feBlend in="SourceGraphic" in2="effect1_backgroundBlur_485_11466" mode="normal" result="shape"/></filter><filter id="i" color-interpolation-filters="sRGB" filterUnits="userSpaceOnUse" height="48" width="48" x="156" y="20"><feFlood flood-opacity="0" result="BackgroundImageFix"/><feGaussianBlur in="BackgroundImageFix" stdDeviation="2"/><feComposite in2="SourceAlpha" operator="in" result="effect1_backgroundBlur_485_11466"/><feBlend in="SourceGraphic" in2="effect1_backgroundBlur_485_11466" mode="normal" result="shape"/></filter><filter id="j" color-interpolation-filters="sRGB" filterUnits="userSpaceOnUse" height="48" width="48" x="-4" y="20"><feFlood flood-opacity="0" result="BackgroundImageFix"/><feGaussianBlur in="BackgroundImageFix" stdDeviation="2"/><feComposite in2="SourceAlpha" operator="in" result="effect1_backgroundBlur_485_11466"/><feBlend in="SourceGraphic" in2="effect1_backgroundBlur_485_11466" mode="normal" result="shape"/></filter><filter id="k" color-interpolation-filters="sRGB" filterUnits="userSpaceOnUse" height="48" width="48" x="276" y="-20"><feFlood flood-opacity="0" result="BackgroundImageFix"/><feGaussianBlur in="BackgroundImageFix" stdDeviation="2"/><feComposite in2="SourceAlpha" operator="in" result="effect1_backgroundBlur_485_11466"/><feBlend in="SourceGraphic" in2="effect1_backgroundBlur_485_11466" mode="normal" result="shape"/></filter><path d="m80.25 264.75h39.5v39.5h-39.5z" stroke="#eef0f3" stroke-width=".5" transform="matrix(0 -1 1 0 -184.5 345)"/><path d="m80.25 224.75h39.5v39.5h-39.5z" stroke="#eef0f3" stroke-width=".5" transform="matrix(0 -1 1 0 -144.5 305)"/><path d="m80.25 184.75h39.5v39.5h-39.5z" stroke="#eef0f3" stroke-width=".5" transform="matrix(0 -1 1 0 -104.5 265)"/><g filter="url(#a)" opacity=".9"><path d="m80 145h40v40h-40z" fill="#fff" transform="matrix(0 -1 1 0 -65 225)"/><path d="m80.25 144.75h39.5v39.5h-39.5z" stroke="#eef0f3" stroke-width=".5" transform="matrix(0 -1 1 0 -64.5 225)"/></g><path d="m360.25 423.75h39.5v39.5h-39.5z" stroke="#eef0f3" stroke-width=".5" transform="matrix(0 -1 1 0 -63.5 784)"/><g filter="url(#b)" opacity=".8"><path d="m320 424h40v40h-40z" fill="#fff" transform="matrix(0 -1 1 0 -104 744)"/><path d="m320.25 423.75h39.5v39.5h-39.5z" stroke="#eef0f3" stroke-width=".5" transform="matrix(0 -1 1 0 -103.5 744)"/></g><g stroke="#eef0f3" stroke-width=".5"><path d="m280.25 423.75h39.5v39.5h-39.5z" transform="matrix(0 -1 1 0 -143.5 704)"/><path d="m240.25 423.75h39.5v39.5h-39.5z" transform="matrix(0 -1 1 0 -183.5 664)"/><path d="m40.25 423.75h39.5v39.5h-39.5z" transform="matrix(0 -1 1 0 -383.5 464)"/><path d="m200.25 423.75h39.5v39.5h-39.5z" transform="matrix(0 -1 1 0 -223.5 624)"/><path d="m160.25 423.75h39.5v39.5h-39.5z" transform="matrix(0 -1 1 0 -263.5 584)"/><path d="m.25 423.75h39.5v39.5h-39.5z" transform="matrix(0 -1 1 0 -423.5 424)"/><path d="m120.25 423.75h39.5v39.5h-39.5z" transform="matrix(0 -1 1 0 -303.5 544)"/><path d="m80.25 423.75h39.5v39.5h-39.5z" transform="matrix(0 -1 1 0 -343.5 504)"/><path d="m80.25 104.75h39.5v39.5h-39.5z" transform="matrix(0 -1 1 0 -24.5 185)"/><path d="m360.25 383.75h39.5v39.5h-39.5z" transform="matrix(0 -1 1 0 -23.5 744)"/><path d="m320.25 383.75h39.5v39.5h-39.5z" transform="matrix(0 -1 1 0 -63.5 704)"/><path d="m280.25 383.75h39.5v39.5h-39.5z" transform="matrix(0 -1 1 0 -103.5 664)"/><path d="m240.25 383.75h39.5v39.5h-39.5z" transform="matrix(0 -1 1 0 -143.5 624)"/><path d="m40.25 383.75h39.5v39.5h-39.5z" transform="matrix(0 -1 1 0 -343.5 424)"/><path d="m200.25 383.75h39.5v39.5h-39.5z" transform="matrix(0 -1 1 0 -183.5 584)"/><path d="m160.25 383.75h39.5v39.5h-39.5z" transform="matrix(0 -1 1 0 -223.5 544)"/><path d="m.25 383.75h39.5v39.5h-39.5z" transform="matrix(0 -1 1 0 -383.5 384)"/><path d="m120.25 383.75h39.5v39.5h-39.5z" transform="matrix(0 -1 1 0 -263.5 504)"/><path d="m80.25 383.75h39.5v39.5h-39.5z" transform="matrix(0 -1 1 0 -303.5 464)"/><path d="m80.25 64.75h39.5v39.5h-39.5z" transform="matrix(0 -1 1 0 15.5 145)"/><path d="m360.25 343.75h39.5v39.5h-39.5z" transform="matrix(0 -1 1 0 16.5 704)"/><path d="m320.25 343.75h39.5v39.5h-39.5z" transform="matrix(0 -1 1 0 -23.5 664)"/><path d="m280.25 343.75h39.5v39.5h-39.5z" transform="matrix(0 -1 1 0 -63.5 624)"/><path d="m240.25 343.75h39.5v39.5h-39.5z" transform="matrix(0 -1 1 0 -103.5 584)"/><path d="m40.25 343.75h39.5v39.5h-39.5z" transform="matrix(0 -1 1 0 -303.5 384)"/><path d="m200.25 343.75h39.5v39.5h-39.5z" transform="matrix(0 -1 1 0 -143.5 544)"/><path d="m160.25 343.75h39.5v39.5h-39.5z" transform="matrix(0 -1 1 0 -183.5 504)"/><path d="m.25 343.75h39.5v39.5h-39.5z" transform="matrix(0 -1 1 0 -343.5 344)"/><path d="m120.25 343.75h39.5v39.5h-39.5z" transform="matrix(0 -1 1 0 -223.5 464)"/><path d="m80.25 343.75h39.5v39.5h-39.5z" transform="matrix(0 -1 1 0 -263.5 424)"/><path d="m80.25 24.75h39.5v39.5h-39.5z" transform="matrix(0 -1 1 0 55.5 105)"/><path d="m360.25 303.75h39.5v39.5h-39.5z" transform="matrix(0 -1 1 0 56.5 664)"/><path d="m320.25 303.75h39.5v39.5h-39.5z" transform="matrix(0 -1 1 0 16.5 624)"/><path d="m280.25 303.75h39.5v39.5h-39.5z" transform="matrix(0 -1 1 0 -23.5 584)"/><path d="m240.25 303.75h39.5v39.5h-39.5z" transform="matrix(0 -1 1 0 -63.5 544)"/><path d="m40.25 303.75h39.5v39.5h-39.5z" transform="matrix(0 -1 1 0 -263.5 344)"/><path d="m200.25 303.75h39.5v39.5h-39.5z" transform="matrix(0 -1 1 0 -103.5 504)"/><path d="m160.25 303.75h39.5v39.5h-39.5z" transform="matrix(0 -1 1 0 -143.5 464)"/><path d="m.25 303.75h39.5v39.5h-39.5z" transform="matrix(0 -1 1 0 -303.5 304)"/><path d="m120.25 303.75h39.5v39.5h-39.5z" transform="matrix(0 -1 1 0 -183.5 424)"/><path d="m80.25 303.75h39.5v39.5h-39.5z" transform="matrix(0 -1 1 0 -223.5 384)"/><path d="m360.25 263.75h39.5v39.5h-39.5z" transform="matrix(0 -1 1 0 96.5 624)"/><path d="m320.25 263.75h39.5v39.5h-39.5z" transform="matrix(0 -1 1 0 56.5 584)"/><path d="m280.25 263.75h39.5v39.5h-39.5z" transform="matrix(0 -1 1 0 16.5 544)"/><path d="m240.25 263.75h39.5v39.5h-39.5z" transform="matrix(0 -1 1 0 -23.5 504)"/><path d="m40.25 263.75h39.5v39.5h-39.5z" transform="matrix(0 -1 1 0 -223.5 304)"/><path d="m200.25 263.75h39.5v39.5h-39.5z" transform="matrix(0 -1 1 0 -63.5 464)"/><path d="m160.25 263.75h39.5v39.5h-39.5z" transform="matrix(0 -1 1 0 -103.5 424)"/><path d="m.25 263.75h39.5v39.5h-39.5z" transform="matrix(0 -1 1 0 -263.5 264)"/></g><g filter="url(#c)" opacity=".9"><path d="m120 264h40v40h-40z" fill="#fff" transform="matrix(0 -1 1 0 -144 384)"/><path d="m120.25 263.75h39.5v39.5h-39.5z" stroke="#eef0f3" stroke-width=".5" transform="matrix(0 -1 1 0 -143.5 384)"/></g><path d="m360.25 223.75h39.5v39.5h-39.5z" stroke="#eef0f3" stroke-width=".5" transform="matrix(0 -1 1 0 136.5 584)"/><g filter="url(#d)" opacity=".8"><path d="m320 224h40v40h-40z" fill="#fff" transform="matrix(0 -1 1 0 96 544)"/><path d="m320.25 223.75h39.5v39.5h-39.5z" stroke="#eef0f3" stroke-width=".5" transform="matrix(0 -1 1 0 96.5 544)"/></g><path d="m280.25 223.75h39.5v39.5h-39.5z" stroke="#eef0f3" stroke-width=".5" transform="matrix(0 -1 1 0 56.5 504)"/><path d="m240.25 223.75h39.5v39.5h-39.5z" stroke="#eef0f3" stroke-width=".5" transform="matrix(0 -1 1 0 16.5 464)"/><path d="m40.25 223.75h39.5v39.5h-39.5z" stroke="#eef0f3" stroke-width=".5" transform="matrix(0 -1 1 0 -183.5 264)"/><path d="m200.25 223.75h39.5v39.5h-39.5z" stroke="#eef0f3" stroke-width=".5" transform="matrix(0 -1 1 0 -23.5 424)"/><g filter="url(#e)" opacity=".9"><path d="m160 224h40v40h-40z" fill="#fff" transform="matrix(0 -1 1 0 -64 384)"/><path d="m160.25 223.75h39.5v39.5h-39.5z" stroke="#eef0f3" stroke-width=".5" transform="matrix(0 -1 1 0 -63.5 384)"/></g><g filter="url(#f)" opacity=".9"><path d="m0 224h40v40h-40z" fill="#fff" transform="matrix(0 -1 1 0 -224 224)"/><path d="m.25 223.75h39.5v39.5h-39.5z" stroke="#eef0f3" stroke-width=".5" transform="matrix(0 -1 1 0 -223.5 224)"/></g><path d="m120.25 223.75h39.5v39.5h-39.5z" stroke="#eef0f3" stroke-width=".5" transform="matrix(0 -1 1 0 -103.5 344)"/><path d="m360.25 183.75h39.5v39.5h-39.5z" stroke="#eef0f3" stroke-width=".5" transform="matrix(0 -1 1 0 176.5 544)"/><g filter="url(#g)" opacity=".8"><path d="m320 184h40v40h-40z" fill="#fff" transform="matrix(0 -1 1 0 136 504)"/><path d="m320.25 183.75h39.5v39.5h-39.5z" stroke="#eef0f3" stroke-width=".5" transform="matrix(0 -1 1 0 136.5 504)"/></g><path d="m280.25 183.75h39.5v39.5h-39.5z" stroke="#eef0f3" stroke-width=".5" transform="matrix(0 -1 1 0 96.5 464)"/><path d="m240.25 183.75h39.5v39.5h-39.5z" stroke="#eef0f3" stroke-width=".5" transform="matrix(0 -1 1 0 56.5 424)"/><path d="m40.25 183.75h39.5v39.5h-39.5z" stroke="#eef0f3" stroke-width=".5" transform="matrix(0 -1 1 0 -143.5 224)"/><path d="m200.25 183.75h39.5v39.5h-39.5z" stroke="#eef0f3" stroke-width=".5" transform="matrix(0 -1 1 0 16.5 384)"/><path d="m160.25 183.75h39.5v39.5h-39.5z" stroke="#eef0f3" stroke-width=".5" transform="matrix(0 -1 1 0 -23.5 344)"/><path d="m.25 183.75h39.5v39.5h-39.5z" stroke="#eef0f3" stroke-width=".5" transform="matrix(0 -1 1 0 -183.5 184)"/><path d="m120.25 183.75h39.5v39.5h-39.5z" stroke="#eef0f3" stroke-width=".5" transform="matrix(0 -1 1 0 -63.5 304)"/><path d="m360.25 143.75h39.5v39.5h-39.5z" stroke="#eef0f3" stroke-width=".5" transform="matrix(0 -1 1 0 216.5 504)"/><path d="m320.25 143.75h39.5v39.5h-39.5z" stroke="#eef0f3" stroke-width=".5" transform="matrix(0 -1 1 0 176.5 464)"/><path d="m280.25 143.75h39.5v39.5h-39.5z" stroke="#eef0f3" stroke-width=".5" transform="matrix(0 -1 1 0 136.5 424)"/><path d="m240.25 143.75h39.5v39.5h-39.5z" stroke="#eef0f3" stroke-width=".5" transform="matrix(0 -1 1 0 96.5 384)"/><path d="m40.25 143.75h39.5v39.5h-39.5z" stroke="#eef0f3" stroke-width=".5" transform="matrix(0 -1 1 0 -103.5 184)"/><path d="m200.25 143.75h39.5v39.5h-39.5z" stroke="#eef0f3" stroke-width=".5" transform="matrix(0 -1 1 0 56.5 344)"/><path d="m160.25 143.75h39.5v39.5h-39.5z" stroke="#eef0f3" stroke-width=".5" transform="matrix(0 -1 1 0 16.5 304)"/><path d="m.25 143.75h39.5v39.5h-39.5z" stroke="#eef0f3" stroke-width=".5" transform="matrix(0 -1 1 0 -143.5 144)"/><path d="m120.25 143.75h39.5v39.5h-39.5z" stroke="#eef0f3" stroke-width=".5" transform="matrix(0 -1 1 0 -23.5 264)"/><path d="m360.25 103.75h39.5v39.5h-39.5z" stroke="#eef0f3" stroke-width=".5" transform="matrix(0 -1 1 0 256.5 464)"/><path d="m320.25 103.75h39.5v39.5h-39.5z" stroke="#eef0f3" stroke-width=".5" transform="matrix(0 -1 1 0 216.5 424)"/><path d="m280.25 103.75h39.5v39.5h-39.5z" stroke="#eef0f3" stroke-width=".5" transform="matrix(0 -1 1 0 176.5 384)"/><path d="m240.25 103.75h39.5v39.5h-39.5z" stroke="#eef0f3" stroke-width=".5" transform="matrix(0 -1 1 0 136.5 344)"/><path d="m40.25 103.75h39.5v39.5h-39.5z" stroke="#eef0f3" stroke-width=".5" transform="matrix(0 -1 1 0 -63.5 144)"/><path d="m200.25 103.75h39.5v39.5h-39.5z" stroke="#eef0f3" stroke-width=".5" transform="matrix(0 -1 1 0 96.5 304)"/><path d="m160.25 103.75h39.5v39.5h-39.5z" stroke="#eef0f3" stroke-width=".5" transform="matrix(0 -1 1 0 56.5 264)"/><path d="m.25 103.75h39.5v39.5h-39.5z" stroke="#eef0f3" stroke-width=".5" transform="matrix(0 -1 1 0 -103.5 104)"/><path d="m120.25 103.75h39.5v39.5h-39.5z" stroke="#eef0f3" stroke-width=".5" transform="matrix(0 -1 1 0 16.5 224)"/><path d="m360.25 63.75h39.5v39.5h-39.5z" stroke="#eef0f3" stroke-width=".5" transform="matrix(0 -1 1 0 296.5 424)"/><g filter="url(#h)" opacity=".8"><path d="m320 64h40v40h-40z" fill="#fff" transform="matrix(0 -1 1 0 256 384)"/><path d="m320.25 63.75h39.5v39.5h-39.5z" stroke="#eef0f3" stroke-width=".5" transform="matrix(0 -1 1 0 256.5 384)"/></g><path d="m280.25 63.75h39.5v39.5h-39.5z" stroke="#eef0f3" stroke-width=".5" transform="matrix(0 -1 1 0 216.5 344)"/><path d="m240.25 63.75h39.5v39.5h-39.5z" stroke="#eef0f3" stroke-width=".5" transform="matrix(0 -1 1 0 176.5 304)"/><path d="m40.25 63.75h39.5v39.5h-39.5z" stroke="#eef0f3" stroke-width=".5" transform="matrix(0 -1 1 0 -23.5 104)"/><path d="m200.25 63.75h39.5v39.5h-39.5z" stroke="#eef0f3" stroke-width=".5" transform="matrix(0 -1 1 0 136.5 264)"/><g filter="url(#i)" opacity=".9"><path d="m160 64h40v40h-40z" fill="#fff" transform="matrix(0 -1 1 0 96 224)"/><path d="m160.25 63.75h39.5v39.5h-39.5z" stroke="#eef0f3" stroke-width=".5" transform="matrix(0 -1 1 0 96.5 224)"/></g><g filter="url(#j)" opacity=".9"><path d="m0 64h40v40h-40z" fill="#fff" transform="matrix(0 -1 1 0 -64 64)"/><path d="m.25 63.75h39.5v39.5h-39.5z" stroke="#eef0f3" stroke-width=".5" transform="matrix(0 -1 1 0 -63.5 64)"/></g><path d="m120.25 63.75h39.5v39.5h-39.5z" stroke="#eef0f3" stroke-width=".5" transform="matrix(0 -1 1 0 56.5 184)"/><path d="m360.25 23.75h39.5v39.5h-39.5z" stroke="#eef0f3" stroke-width=".5" transform="matrix(0 -1 1 0 336.5 384)"/><path d="m320.25 23.75h39.5v39.5h-39.5z" stroke="#eef0f3" stroke-width=".5" transform="matrix(0 -1 1 0 296.5 344)"/><g filter="url(#k)" opacity=".8"><path d="m280 24h40v40h-40z" fill="#fff" transform="matrix(0 -1 1 0 256 304)"/><path d="m280.25 23.75h39.5v39.5h-39.5z" stroke="#eef0f3" stroke-width=".5" transform="matrix(0 -1 1 0 256.5 304)"/></g><path d="m240.25 23.75h39.5v39.5h-39.5z" stroke="#eef0f3" stroke-width=".5" transform="matrix(0 -1 1 0 216.5 264)"/><path d="m40.25 23.75h39.5v39.5h-39.5z" stroke="#eef0f3" stroke-width=".5" transform="matrix(0 -1 1 0 16.5 64)"/><path d="m200.25 23.75h39.5v39.5h-39.5z" stroke="#eef0f3" stroke-width=".5" transform="matrix(0 -1 1 0 176.5 224)"/><path d="m160.25 23.75h39.5v39.5h-39.5z" stroke="#eef0f3" stroke-width=".5" transform="matrix(0 -1 1 0 136.5 184)"/><path d="m.25 23.75h39.5v39.5h-39.5z" stroke="#eef0f3" stroke-width=".5" transform="matrix(0 -1 1 0 -23.5 24)"/><path d="m120.25 23.75h39.5v39.5h-39.5z" stroke="#eef0f3" stroke-width=".5" transform="matrix(0 -1 1 0 96.5 144)"/></svg>