<svg fill="none" height="532" viewBox="0 0 622 532" width="622" xmlns="http://www.w3.org/2000/svg"><g fill="#eef0f3"><path d="m0 0h2v2h-2z"/><path d="m200 0h2v2h-2z"/><path d="m0 200h2v2h-2z"/><path d="m200 200h2v2h-2z"/><path d="m100 0h2v2h-2z"/><path d="m300 0h2v2h-2z"/><path d="m100 200h2v2h-2z"/><path d="m300 200h2v2h-2z"/><path d="m50 0h2v2h-2z"/><path d="m250 0h2v2h-2z"/><path d="m50 200h2v2h-2z"/><path d="m250 200h2v2h-2z"/><path d="m150 0h2v2h-2z"/><path d="m350 0h2v2h-2z"/><path d="m150 200h2v2h-2z"/><path d="m350 200h2v2h-2z"/><path d="m0 20h2v2h-2z"/><path d="m200 20h2v2h-2z"/><path d="m0 220h2v2h-2z"/><path d="m200 220h2v2h-2z"/><path d="m100 20h2v2h-2z"/><path d="m300 20h2v2h-2z"/><path d="m100 220h2v2h-2z"/><path d="m300 220h2v2h-2z"/><path d="m50 20h2v2h-2z"/><path d="m250 20h2v2h-2z"/><path d="m50 220h2v2h-2z"/><path d="m250 220h2v2h-2z"/><path d="m150 20h2v2h-2z"/><path d="m350 20h2v2h-2z"/><path d="m150 220h2v2h-2z"/><path d="m350 220h2v2h-2z"/><path d="m0 40h2v2h-2z"/><path d="m200 40h2v2h-2z"/><path d="m0 240h2v2h-2z"/><path d="m200 240h2v2h-2z"/><path d="m100 40h2v2h-2z"/><path d="m300 40h2v2h-2z"/><path d="m100 240h2v2h-2z"/><path d="m300 240h2v2h-2z"/><path d="m50 40h2v2h-2z"/><path d="m250 40h2v2h-2z"/><path d="m50 240h2v2h-2z"/><path d="m250 240h2v2h-2z"/><path d="m150 40h2v2h-2z"/><path d="m350 40h2v2h-2z"/><path d="m150 240h2v2h-2z"/><path d="m350 240h2v2h-2z"/><path d="m0 60h2v2h-2z"/><path d="m200 60h2v2h-2z"/><path d="m0 260h2v2h-2z"/><path d="m0 400h2v2h-2z"/><path d="m200 260h2v2h-2z"/><path d="m200 400h2v2h-2z"/><path d="m100 60h2v2h-2z"/><path d="m300 60h2v2h-2z"/><path d="m100 260h2v2h-2z"/><path d="m100 400h2v2h-2z"/><path d="m300 260h2v2h-2z"/><path d="m300 400h2v2h-2z"/><path d="m50 60h2v2h-2z"/><path d="m250 60h2v2h-2z"/><path d="m50 260h2v2h-2z"/><path d="m50 400h2v2h-2z"/><path d="m250 260h2v2h-2z"/><path d="m250 400h2v2h-2z"/><path d="m150 60h2v2h-2z"/><path d="m350 60h2v2h-2z"/><path d="m150 260h2v2h-2z"/><path d="m150 400h2v2h-2z"/><path d="m350 260h2v2h-2z"/><path d="m350 400h2v2h-2z"/><path d="m0 80h2v2h-2z"/><path d="m200 80h2v2h-2z"/><path d="m0 280h2v2h-2z"/><path d="m0 420h2v2h-2z"/><path d="m200 280h2v2h-2z"/><path d="m200 420h2v2h-2z"/><path d="m100 80h2v2h-2z"/><path d="m300 80h2v2h-2z"/><path d="m100 280h2v2h-2z"/><path d="m100 420h2v2h-2z"/><path d="m300 280h2v2h-2z"/><path d="m300 420h2v2h-2z"/><path d="m50 80h2v2h-2z"/><path d="m250 80h2v2h-2z"/><path d="m50 280h2v2h-2z"/><path d="m50 420h2v2h-2z"/><path d="m250 280h2v2h-2z"/><path d="m250 420h2v2h-2z"/><path d="m150 80h2v2h-2z"/><path d="m350 80h2v2h-2z"/><path d="m150 280h2v2h-2z"/><path d="m150 420h2v2h-2z"/><path d="m350 280h2v2h-2z"/><path d="m350 420h2v2h-2z"/><path d="m0 100h2v2h-2z"/><path d="m200 100h2v2h-2z"/><path d="m0 300h2v2h-2z"/><path d="m0 440h2v2h-2z"/><path d="m200 300h2v2h-2z"/><path d="m200 440h2v2h-2z"/><path d="m100 100h2v2h-2z"/><path d="m300 100h2v2h-2z"/><path d="m100 300h2v2h-2z"/><path d="m100 440h2v2h-2z"/><path d="m300 300h2v2h-2z"/><path d="m300 440h2v2h-2z"/><path d="m50 100h2v2h-2z"/><path d="m250 100h2v2h-2z"/><path d="m50 300h2v2h-2z"/><path d="m50 440h2v2h-2z"/><path d="m250 300h2v2h-2z"/><path d="m250 440h2v2h-2z"/><path d="m150 100h2v2h-2z"/><path d="m350 100h2v2h-2z"/><path d="m150 300h2v2h-2z"/><path d="m150 440h2v2h-2z"/><path d="m350 300h2v2h-2z"/><path d="m350 440h2v2h-2z"/><path d="m0 120h2v2h-2z"/><path d="m200 120h2v2h-2z"/><path d="m0 320h2v2h-2z"/><path d="m0 460h2v2h-2z"/><path d="m200 320h2v2h-2z"/><path d="m200 460h2v2h-2z"/><path d="m100 120h2v2h-2z"/><path d="m300 120h2v2h-2z"/><path d="m100 320h2v2h-2z"/><path d="m100 460h2v2h-2z"/><path d="m300 320h2v2h-2z"/><path d="m300 460h2v2h-2z"/><path d="m50 120h2v2h-2z"/><path d="m250 120h2v2h-2z"/><path d="m50 320h2v2h-2z"/><path d="m50 460h2v2h-2z"/><path d="m250 320h2v2h-2z"/><path d="m250 460h2v2h-2z"/><path d="m150 120h2v2h-2z"/><path d="m350 120h2v2h-2z"/><path d="m150 320h2v2h-2z"/><path d="m150 460h2v2h-2z"/><path d="m350 320h2v2h-2z"/><path d="m350 460h2v2h-2z"/><path d="m0 140h2v2h-2z"/><path d="m200 140h2v2h-2z"/><path d="m0 340h2v2h-2z"/><path d="m0 480h2v2h-2z"/><path d="m200 340h2v2h-2z"/><path d="m200 480h2v2h-2z"/><path d="m100 140h2v2h-2z"/><path d="m300 140h2v2h-2z"/><path d="m100 340h2v2h-2z"/><path d="m100 480h2v2h-2z"/><path d="m300 340h2v2h-2z"/><path d="m300 480h2v2h-2z"/><path d="m50 140h2v2h-2z"/><path d="m250 140h2v2h-2z"/><path d="m50 340h2v2h-2z"/><path d="m50 480h2v2h-2z"/><path d="m250 340h2v2h-2z"/><path d="m250 480h2v2h-2z"/><path d="m150 140h2v2h-2z"/><path d="m350 140h2v2h-2z"/><path d="m150 340h2v2h-2z"/><path d="m150 480h2v2h-2z"/><path d="m350 340h2v2h-2z"/><path d="m350 480h2v2h-2z"/><path d="m0 160h2v2h-2z"/><path d="m200 160h2v2h-2z"/><path d="m0 360h2v2h-2z"/><path d="m0 500h2v2h-2z"/><path d="m200 360h2v2h-2z"/><path d="m200 500h2v2h-2z"/><path d="m100 160h2v2h-2z"/><path d="m300 160h2v2h-2z"/><path d="m100 360h2v2h-2z"/><path d="m100 500h2v2h-2z"/><path d="m300 360h2v2h-2z"/><path d="m300 500h2v2h-2z"/><path d="m50 160h2v2h-2z"/><path d="m250 160h2v2h-2z"/><path d="m50 360h2v2h-2z"/><path d="m50 500h2v2h-2z"/><path d="m250 360h2v2h-2z"/><path d="m250 500h2v2h-2z"/><path d="m150 160h2v2h-2z"/><path d="m350 160h2v2h-2z"/><path d="m150 360h2v2h-2z"/><path d="m150 500h2v2h-2z"/><path d="m350 360h2v2h-2z"/><path d="m350 500h2v2h-2z"/><path d="m0 180h2v2h-2z"/><path d="m200 180h2v2h-2z"/><path d="m0 380h2v2h-2z"/><path d="m0 520h2v2h-2z"/><path d="m200 380h2v2h-2z"/><path d="m200 520h2v2h-2z"/><path d="m100 180h2v2h-2z"/><path d="m300 180h2v2h-2z"/><path d="m100 380h2v2h-2z"/><path d="m100 520h2v2h-2z"/><path d="m300 380h2v2h-2z"/><path d="m300 520h2v2h-2z"/><path d="m50 180h2v2h-2z"/><path d="m250 180h2v2h-2z"/><path d="m50 380h2v2h-2z"/><path d="m50 520h2v2h-2z"/><path d="m250 380h2v2h-2z"/><path d="m250 520h2v2h-2z"/><path d="m150 180h2v2h-2z"/><path d="m350 180h2v2h-2z"/><path d="m150 380h2v2h-2z"/><path d="m150 520h2v2h-2z"/><path d="m350 380h2v2h-2z"/><path d="m350 520h2v2h-2z"/><path d="m0 10h2v2h-2z"/><path d="m200 10h2v2h-2z"/><path d="m0 210h2v2h-2z"/><path d="m200 210h2v2h-2z"/><path d="m100 10h2v2h-2z"/><path d="m300 10h2v2h-2z"/><path d="m100 210h2v2h-2z"/><path d="m300 210h2v2h-2z"/><path d="m50 10h2v2h-2z"/><path d="m250 10h2v2h-2z"/><path d="m50 210h2v2h-2z"/><path d="m250 210h2v2h-2z"/><path d="m150 10h2v2h-2z"/><path d="m350 10h2v2h-2z"/><path d="m150 210h2v2h-2z"/><path d="m350 210h2v2h-2z"/><path d="m0 30h2v2h-2z"/><path d="m200 30h2v2h-2z"/><path d="m0 230h2v2h-2z"/><path d="m200 230h2v2h-2z"/><path d="m100 30h2v2h-2z"/><path d="m300 30h2v2h-2z"/><path d="m100 230h2v2h-2z"/><path d="m300 230h2v2h-2z"/><path d="m50 30h2v2h-2z"/><path d="m250 30h2v2h-2z"/><path d="m50 230h2v2h-2z"/><path d="m250 230h2v2h-2z"/><path d="m150 30h2v2h-2z"/><path d="m350 30h2v2h-2z"/><path d="m150 230h2v2h-2z"/><path d="m350 230h2v2h-2z"/><path d="m0 50h2v2h-2z"/><path d="m200 50h2v2h-2z"/><path d="m0 250h2v2h-2z"/><path d="m200 250h2v2h-2z"/><path d="m100 50h2v2h-2z"/><path d="m300 50h2v2h-2z"/><path d="m100 250h2v2h-2z"/><path d="m300 250h2v2h-2z"/><path d="m50 50h2v2h-2z"/><path d="m250 50h2v2h-2z"/><path d="m50 250h2v2h-2z"/><path d="m250 250h2v2h-2z"/><path d="m150 50h2v2h-2z"/><path d="m350 50h2v2h-2z"/><path d="m150 250h2v2h-2z"/><path d="m350 250h2v2h-2z"/><path d="m0 70h2v2h-2z"/><path d="m200 70h2v2h-2z"/><path d="m0 270h2v2h-2z"/><path d="m0 410h2v2h-2z"/><path d="m200 270h2v2h-2z"/><path d="m200 410h2v2h-2z"/><path d="m100 70h2v2h-2z"/><path d="m300 70h2v2h-2z"/><path d="m100 270h2v2h-2z"/><path d="m100 410h2v2h-2z"/><path d="m300 270h2v2h-2z"/><path d="m300 410h2v2h-2z"/><path d="m50 70h2v2h-2z"/><path d="m250 70h2v2h-2z"/><path d="m50 270h2v2h-2z"/><path d="m50 410h2v2h-2z"/><path d="m250 270h2v2h-2z"/><path d="m250 410h2v2h-2z"/><path d="m150 70h2v2h-2z"/><path d="m350 70h2v2h-2z"/><path d="m150 270h2v2h-2z"/><path d="m150 410h2v2h-2z"/><path d="m350 270h2v2h-2z"/><path d="m350 410h2v2h-2z"/><path d="m0 90h2v2h-2z"/><path d="m200 90h2v2h-2z"/><path d="m0 290h2v2h-2z"/><path d="m0 430h2v2h-2z"/><path d="m200 290h2v2h-2z"/><path d="m200 430h2v2h-2z"/><path d="m100 90h2v2h-2z"/><path d="m300 90h2v2h-2z"/><path d="m100 290h2v2h-2z"/><path d="m100 430h2v2h-2z"/><path d="m300 290h2v2h-2z"/><path d="m300 430h2v2h-2z"/><path d="m50 90h2v2h-2z"/><path d="m250 90h2v2h-2z"/><path d="m50 290h2v2h-2z"/><path d="m50 430h2v2h-2z"/><path d="m250 290h2v2h-2z"/><path d="m250 430h2v2h-2z"/><path d="m150 90h2v2h-2z"/><path d="m350 90h2v2h-2z"/><path d="m150 290h2v2h-2z"/><path d="m150 430h2v2h-2z"/><path d="m350 290h2v2h-2z"/><path d="m350 430h2v2h-2z"/><path d="m0 110h2v2h-2z"/><path d="m200 110h2v2h-2z"/><path d="m0 310h2v2h-2z"/><path d="m0 450h2v2h-2z"/><path d="m200 310h2v2h-2z"/><path d="m200 450h2v2h-2z"/><path d="m100 110h2v2h-2z"/><path d="m300 110h2v2h-2z"/><path d="m100 310h2v2h-2z"/><path d="m100 450h2v2h-2z"/><path d="m300 310h2v2h-2z"/><path d="m300 450h2v2h-2z"/><path d="m50 110h2v2h-2z"/><path d="m250 110h2v2h-2z"/><path d="m50 310h2v2h-2z"/><path d="m50 450h2v2h-2z"/><path d="m250 310h2v2h-2z"/><path d="m250 450h2v2h-2z"/><path d="m150 110h2v2h-2z"/><path d="m350 110h2v2h-2z"/><path d="m150 310h2v2h-2z"/><path d="m150 450h2v2h-2z"/><path d="m350 310h2v2h-2z"/><path d="m350 450h2v2h-2z"/><path d="m0 130h2v2h-2z"/><path d="m200 130h2v2h-2z"/><path d="m0 330h2v2h-2z"/><path d="m0 470h2v2h-2z"/><path d="m200 330h2v2h-2z"/><path d="m200 470h2v2h-2z"/><path d="m100 130h2v2h-2z"/><path d="m300 130h2v2h-2z"/><path d="m100 330h2v2h-2z"/><path d="m100 470h2v2h-2z"/><path d="m300 330h2v2h-2z"/><path d="m300 470h2v2h-2z"/><path d="m50 130h2v2h-2z"/><path d="m250 130h2v2h-2z"/><path d="m50 330h2v2h-2z"/><path d="m50 470h2v2h-2z"/><path d="m250 330h2v2h-2z"/><path d="m250 470h2v2h-2z"/><path d="m150 130h2v2h-2z"/><path d="m350 130h2v2h-2z"/><path d="m150 330h2v2h-2z"/><path d="m150 470h2v2h-2z"/><path d="m350 330h2v2h-2z"/><path d="m350 470h2v2h-2z"/><path d="m0 150h2v2h-2z"/><path d="m200 150h2v2h-2z"/><path d="m0 350h2v2h-2z"/><path d="m0 490h2v2h-2z"/><path d="m200 350h2v2h-2z"/><path d="m200 490h2v2h-2z"/><path d="m100 150h2v2h-2z"/><path d="m300 150h2v2h-2z"/><path d="m100 350h2v2h-2z"/><path d="m100 490h2v2h-2z"/><path d="m300 350h2v2h-2z"/><path d="m300 490h2v2h-2z"/><path d="m50 150h2v2h-2z"/><path d="m250 150h2v2h-2z"/><path d="m50 350h2v2h-2z"/><path d="m50 490h2v2h-2z"/><path d="m250 350h2v2h-2z"/><path d="m250 490h2v2h-2z"/><path d="m150 150h2v2h-2z"/><path d="m350 150h2v2h-2z"/><path d="m150 350h2v2h-2z"/><path d="m150 490h2v2h-2z"/><path d="m350 350h2v2h-2z"/><path d="m350 490h2v2h-2z"/><path d="m0 170h2v2h-2z"/><path d="m200 170h2v2h-2z"/><path d="m0 370h2v2h-2z"/><path d="m0 510h2v2h-2z"/><path d="m200 370h2v2h-2z"/><path d="m200 510h2v2h-2z"/><path d="m100 170h2v2h-2z"/><path d="m300 170h2v2h-2z"/><path d="m100 370h2v2h-2z"/><path d="m100 510h2v2h-2z"/><path d="m300 370h2v2h-2z"/><path d="m300 510h2v2h-2z"/><path d="m50 170h2v2h-2z"/><path d="m250 170h2v2h-2z"/><path d="m50 370h2v2h-2z"/><path d="m50 510h2v2h-2z"/><path d="m250 370h2v2h-2z"/><path d="m250 510h2v2h-2z"/><path d="m150 170h2v2h-2z"/><path d="m350 170h2v2h-2z"/><path d="m150 370h2v2h-2z"/><path d="m150 510h2v2h-2z"/><path d="m350 370h2v2h-2z"/><path d="m350 510h2v2h-2z"/><path d="m0 190h2v2h-2z"/><path d="m200 190h2v2h-2z"/><path d="m0 390h2v2h-2z"/><path d="m0 530h2v2h-2z"/><path d="m200 390h2v2h-2z"/><path d="m200 530h2v2h-2z"/><path d="m100 190h2v2h-2z"/><path d="m300 190h2v2h-2z"/><path d="m100 390h2v2h-2z"/><path d="m100 530h2v2h-2z"/><path d="m300 390h2v2h-2z"/><path d="m300 530h2v2h-2z"/><path d="m50 190h2v2h-2z"/><path d="m250 190h2v2h-2z"/><path d="m50 390h2v2h-2z"/><path d="m50 530h2v2h-2z"/><path d="m250 390h2v2h-2z"/><path d="m250 530h2v2h-2z"/><path d="m150 190h2v2h-2z"/><path d="m350 190h2v2h-2z"/><path d="m150 390h2v2h-2z"/><path d="m150 530h2v2h-2z"/><path d="m350 390h2v2h-2z"/><path d="m350 530h2v2h-2z"/><path d="m10 0h2v2h-2z"/><path d="m210 0h2v2h-2z"/><path d="m10 200h2v2h-2z"/><path d="m210 200h2v2h-2z"/><path d="m110 0h2v2h-2z"/><path d="m310 0h2v2h-2z"/><path d="m110 200h2v2h-2z"/><path d="m310 200h2v2h-2z"/><path d="m60 0h2v2h-2z"/><path d="m260 0h2v2h-2z"/><path d="m60 200h2v2h-2z"/><path d="m260 200h2v2h-2z"/><path d="m160 0h2v2h-2z"/><path d="m360 0h2v2h-2z"/><path d="m160 200h2v2h-2z"/><path d="m360 200h2v2h-2z"/><path d="m10 20h2v2h-2z"/><path d="m210 20h2v2h-2z"/><path d="m10 220h2v2h-2z"/><path d="m210 220h2v2h-2z"/><path d="m110 20h2v2h-2z"/><path d="m310 20h2v2h-2z"/><path d="m110 220h2v2h-2z"/><path d="m310 220h2v2h-2z"/><path d="m60 20h2v2h-2z"/><path d="m260 20h2v2h-2z"/><path d="m60 220h2v2h-2z"/><path d="m260 220h2v2h-2z"/><path d="m160 20h2v2h-2z"/><path d="m360 20h2v2h-2z"/><path d="m160 220h2v2h-2z"/><path d="m360 220h2v2h-2z"/><path d="m10 40h2v2h-2z"/><path d="m210 40h2v2h-2z"/><path d="m10 240h2v2h-2z"/><path d="m210 240h2v2h-2z"/><path d="m110 40h2v2h-2z"/><path d="m310 40h2v2h-2z"/><path d="m110 240h2v2h-2z"/><path d="m310 240h2v2h-2z"/><path d="m60 40h2v2h-2z"/><path d="m260 40h2v2h-2z"/><path d="m60 240h2v2h-2z"/><path d="m260 240h2v2h-2z"/><path d="m160 40h2v2h-2z"/><path d="m360 40h2v2h-2z"/><path d="m160 240h2v2h-2z"/><path d="m360 240h2v2h-2z"/><path d="m10 60h2v2h-2z"/><path d="m210 60h2v2h-2z"/><path d="m10 260h2v2h-2z"/><path d="m10 400h2v2h-2z"/><path d="m210 260h2v2h-2z"/><path d="m210 400h2v2h-2z"/><path d="m110 60h2v2h-2z"/><path d="m310 60h2v2h-2z"/><path d="m110 260h2v2h-2z"/><path d="m110 400h2v2h-2z"/><path d="m310 260h2v2h-2z"/><path d="m310 400h2v2h-2z"/><path d="m60 60h2v2h-2z"/><path d="m260 60h2v2h-2z"/><path d="m60 260h2v2h-2z"/><path d="m60 400h2v2h-2z"/><path d="m260 260h2v2h-2z"/><path d="m260 400h2v2h-2z"/><path d="m160 60h2v2h-2z"/><path d="m360 60h2v2h-2z"/><path d="m160 260h2v2h-2z"/><path d="m160 400h2v2h-2z"/><path d="m360 260h2v2h-2z"/><path d="m360 400h2v2h-2z"/><path d="m10 80h2v2h-2z"/><path d="m210 80h2v2h-2z"/><path d="m10 280h2v2h-2z"/><path d="m10 420h2v2h-2z"/><path d="m210 280h2v2h-2z"/><path d="m210 420h2v2h-2z"/><path d="m110 80h2v2h-2z"/><path d="m310 80h2v2h-2z"/><path d="m110 280h2v2h-2z"/><path d="m110 420h2v2h-2z"/><path d="m310 280h2v2h-2z"/><path d="m310 420h2v2h-2z"/><path d="m60 80h2v2h-2z"/><path d="m260 80h2v2h-2z"/><path d="m60 280h2v2h-2z"/><path d="m60 420h2v2h-2z"/><path d="m260 280h2v2h-2z"/><path d="m260 420h2v2h-2z"/><path d="m160 80h2v2h-2z"/><path d="m360 80h2v2h-2z"/><path d="m160 280h2v2h-2z"/><path d="m160 420h2v2h-2z"/><path d="m360 280h2v2h-2z"/><path d="m360 420h2v2h-2z"/><path d="m10 100h2v2h-2z"/><path d="m210 100h2v2h-2z"/><path d="m10 300h2v2h-2z"/><path d="m10 440h2v2h-2z"/><path d="m210 300h2v2h-2z"/><path d="m210 440h2v2h-2z"/><path d="m110 100h2v2h-2z"/><path d="m310 100h2v2h-2z"/><path d="m110 300h2v2h-2z"/><path d="m110 440h2v2h-2z"/><path d="m310 300h2v2h-2z"/><path d="m310 440h2v2h-2z"/><path d="m60 100h2v2h-2z"/><path d="m260 100h2v2h-2z"/><path d="m60 300h2v2h-2z"/><path d="m60 440h2v2h-2z"/><path d="m260 300h2v2h-2z"/><path d="m260 440h2v2h-2z"/><path d="m160 100h2v2h-2z"/><path d="m360 100h2v2h-2z"/><path d="m160 300h2v2h-2z"/><path d="m160 440h2v2h-2z"/><path d="m360 300h2v2h-2z"/><path d="m360 440h2v2h-2z"/><path d="m10 120h2v2h-2z"/><path d="m210 120h2v2h-2z"/><path d="m10 320h2v2h-2z"/><path d="m10 460h2v2h-2z"/><path d="m210 320h2v2h-2z"/><path d="m210 460h2v2h-2z"/><path d="m110 120h2v2h-2z"/><path d="m310 120h2v2h-2z"/><path d="m110 320h2v2h-2z"/><path d="m110 460h2v2h-2z"/><path d="m310 320h2v2h-2z"/><path d="m310 460h2v2h-2z"/><path d="m60 120h2v2h-2z"/><path d="m260 120h2v2h-2z"/><path d="m60 320h2v2h-2z"/><path d="m60 460h2v2h-2z"/><path d="m260 320h2v2h-2z"/><path d="m260 460h2v2h-2z"/><path d="m160 120h2v2h-2z"/><path d="m360 120h2v2h-2z"/><path d="m160 320h2v2h-2z"/><path d="m160 460h2v2h-2z"/><path d="m360 320h2v2h-2z"/><path d="m360 460h2v2h-2z"/><path d="m10 140h2v2h-2z"/><path d="m210 140h2v2h-2z"/><path d="m10 340h2v2h-2z"/><path d="m10 480h2v2h-2z"/><path d="m210 340h2v2h-2z"/><path d="m210 480h2v2h-2z"/><path d="m110 140h2v2h-2z"/><path d="m310 140h2v2h-2z"/><path d="m110 340h2v2h-2z"/><path d="m110 480h2v2h-2z"/><path d="m310 340h2v2h-2z"/><path d="m310 480h2v2h-2z"/><path d="m60 140h2v2h-2z"/><path d="m260 140h2v2h-2z"/><path d="m60 340h2v2h-2z"/><path d="m60 480h2v2h-2z"/><path d="m260 340h2v2h-2z"/><path d="m260 480h2v2h-2z"/><path d="m160 140h2v2h-2z"/><path d="m360 140h2v2h-2z"/><path d="m160 340h2v2h-2z"/><path d="m160 480h2v2h-2z"/><path d="m360 340h2v2h-2z"/><path d="m360 480h2v2h-2z"/><path d="m10 160h2v2h-2z"/><path d="m210 160h2v2h-2z"/><path d="m10 360h2v2h-2z"/><path d="m10 500h2v2h-2z"/><path d="m210 360h2v2h-2z"/><path d="m210 500h2v2h-2z"/><path d="m110 160h2v2h-2z"/><path d="m310 160h2v2h-2z"/><path d="m110 360h2v2h-2z"/><path d="m110 500h2v2h-2z"/><path d="m310 360h2v2h-2z"/><path d="m310 500h2v2h-2z"/><path d="m60 160h2v2h-2z"/><path d="m260 160h2v2h-2z"/><path d="m60 360h2v2h-2z"/><path d="m60 500h2v2h-2z"/><path d="m260 360h2v2h-2z"/><path d="m260 500h2v2h-2z"/><path d="m160 160h2v2h-2z"/><path d="m360 160h2v2h-2z"/><path d="m160 360h2v2h-2z"/><path d="m160 500h2v2h-2z"/><path d="m360 360h2v2h-2z"/><path d="m360 500h2v2h-2z"/><path d="m10 180h2v2h-2z"/><path d="m210 180h2v2h-2z"/><path d="m10 380h2v2h-2z"/><path d="m10 520h2v2h-2z"/><path d="m210 380h2v2h-2z"/><path d="m210 520h2v2h-2z"/><path d="m110 180h2v2h-2z"/><path d="m310 180h2v2h-2z"/><path d="m110 380h2v2h-2z"/><path d="m110 520h2v2h-2z"/><path d="m310 380h2v2h-2z"/><path d="m310 520h2v2h-2z"/><path d="m60 180h2v2h-2z"/><path d="m260 180h2v2h-2z"/><path d="m60 380h2v2h-2z"/><path d="m60 520h2v2h-2z"/><path d="m260 380h2v2h-2z"/><path d="m260 520h2v2h-2z"/><path d="m160 180h2v2h-2z"/><path d="m360 180h2v2h-2z"/><path d="m160 380h2v2h-2z"/><path d="m160 520h2v2h-2z"/><path d="m360 380h2v2h-2z"/><path d="m360 520h2v2h-2z"/><path d="m10 10h2v2h-2z"/><path d="m210 10h2v2h-2z"/><path d="m10 210h2v2h-2z"/><path d="m210 210h2v2h-2z"/><path d="m110 10h2v2h-2z"/><path d="m310 10h2v2h-2z"/><path d="m110 210h2v2h-2z"/><path d="m310 210h2v2h-2z"/><path d="m60 10h2v2h-2z"/><path d="m260 10h2v2h-2z"/><path d="m60 210h2v2h-2z"/><path d="m260 210h2v2h-2z"/><path d="m160 10h2v2h-2z"/><path d="m360 10h2v2h-2z"/><path d="m160 210h2v2h-2z"/><path d="m360 210h2v2h-2z"/><path d="m10 30h2v2h-2z"/><path d="m210 30h2v2h-2z"/><path d="m10 230h2v2h-2z"/><path d="m210 230h2v2h-2z"/><path d="m110 30h2v2h-2z"/><path d="m310 30h2v2h-2z"/><path d="m110 230h2v2h-2z"/><path d="m310 230h2v2h-2z"/><path d="m60 30h2v2h-2z"/><path d="m260 30h2v2h-2z"/><path d="m60 230h2v2h-2z"/><path d="m260 230h2v2h-2z"/><path d="m160 30h2v2h-2z"/><path d="m360 30h2v2h-2z"/><path d="m160 230h2v2h-2z"/><path d="m360 230h2v2h-2z"/><path d="m10 50h2v2h-2z"/><path d="m210 50h2v2h-2z"/><path d="m10 250h2v2h-2z"/><path d="m210 250h2v2h-2z"/><path d="m110 50h2v2h-2z"/><path d="m310 50h2v2h-2z"/><path d="m110 250h2v2h-2z"/><path d="m310 250h2v2h-2z"/><path d="m60 50h2v2h-2z"/><path d="m260 50h2v2h-2z"/><path d="m60 250h2v2h-2z"/><path d="m260 250h2v2h-2z"/><path d="m160 50h2v2h-2z"/><path d="m360 50h2v2h-2z"/><path d="m160 250h2v2h-2z"/><path d="m360 250h2v2h-2z"/><path d="m10 70h2v2h-2z"/><path d="m210 70h2v2h-2z"/><path d="m10 270h2v2h-2z"/><path d="m10 410h2v2h-2z"/><path d="m210 270h2v2h-2z"/><path d="m210 410h2v2h-2z"/><path d="m110 70h2v2h-2z"/><path d="m310 70h2v2h-2z"/><path d="m110 270h2v2h-2z"/><path d="m110 410h2v2h-2z"/><path d="m310 270h2v2h-2z"/><path d="m310 410h2v2h-2z"/><path d="m60 70h2v2h-2z"/><path d="m260 70h2v2h-2z"/><path d="m60 270h2v2h-2z"/><path d="m60 410h2v2h-2z"/><path d="m260 270h2v2h-2z"/><path d="m260 410h2v2h-2z"/><path d="m160 70h2v2h-2z"/><path d="m360 70h2v2h-2z"/><path d="m160 270h2v2h-2z"/><path d="m160 410h2v2h-2z"/><path d="m360 270h2v2h-2z"/><path d="m360 410h2v2h-2z"/><path d="m10 90h2v2h-2z"/><path d="m210 90h2v2h-2z"/><path d="m10 290h2v2h-2z"/><path d="m10 430h2v2h-2z"/><path d="m210 290h2v2h-2z"/><path d="m210 430h2v2h-2z"/><path d="m110 90h2v2h-2z"/><path d="m310 90h2v2h-2z"/><path d="m110 290h2v2h-2z"/><path d="m110 430h2v2h-2z"/><path d="m310 290h2v2h-2z"/><path d="m310 430h2v2h-2z"/><path d="m60 90h2v2h-2z"/><path d="m260 90h2v2h-2z"/><path d="m60 290h2v2h-2z"/><path d="m60 430h2v2h-2z"/><path d="m260 290h2v2h-2z"/><path d="m260 430h2v2h-2z"/><path d="m160 90h2v2h-2z"/><path d="m360 90h2v2h-2z"/><path d="m160 290h2v2h-2z"/><path d="m160 430h2v2h-2z"/><path d="m360 290h2v2h-2z"/><path d="m360 430h2v2h-2z"/><path d="m10 110h2v2h-2z"/><path d="m210 110h2v2h-2z"/><path d="m10 310h2v2h-2z"/><path d="m10 450h2v2h-2z"/><path d="m210 310h2v2h-2z"/><path d="m210 450h2v2h-2z"/><path d="m110 110h2v2h-2z"/><path d="m310 110h2v2h-2z"/><path d="m110 310h2v2h-2z"/><path d="m110 450h2v2h-2z"/><path d="m310 310h2v2h-2z"/><path d="m310 450h2v2h-2z"/><path d="m60 110h2v2h-2z"/><path d="m260 110h2v2h-2z"/><path d="m60 310h2v2h-2z"/><path d="m60 450h2v2h-2z"/><path d="m260 310h2v2h-2z"/><path d="m260 450h2v2h-2z"/><path d="m160 110h2v2h-2z"/><path d="m360 110h2v2h-2z"/><path d="m160 310h2v2h-2z"/><path d="m160 450h2v2h-2z"/><path d="m360 310h2v2h-2z"/><path d="m360 450h2v2h-2z"/><path d="m10 130h2v2h-2z"/><path d="m210 130h2v2h-2z"/><path d="m10 330h2v2h-2z"/><path d="m10 470h2v2h-2z"/><path d="m210 330h2v2h-2z"/><path d="m210 470h2v2h-2z"/><path d="m110 130h2v2h-2z"/><path d="m310 130h2v2h-2z"/><path d="m110 330h2v2h-2z"/><path d="m110 470h2v2h-2z"/><path d="m310 330h2v2h-2z"/><path d="m310 470h2v2h-2z"/><path d="m60 130h2v2h-2z"/><path d="m260 130h2v2h-2z"/><path d="m60 330h2v2h-2z"/><path d="m60 470h2v2h-2z"/><path d="m260 330h2v2h-2z"/><path d="m260 470h2v2h-2z"/><path d="m160 130h2v2h-2z"/><path d="m360 130h2v2h-2z"/><path d="m160 330h2v2h-2z"/><path d="m160 470h2v2h-2z"/><path d="m360 330h2v2h-2z"/><path d="m360 470h2v2h-2z"/><path d="m10 150h2v2h-2z"/><path d="m210 150h2v2h-2z"/><path d="m10 350h2v2h-2z"/><path d="m10 490h2v2h-2z"/><path d="m210 350h2v2h-2z"/><path d="m210 490h2v2h-2z"/><path d="m110 150h2v2h-2z"/><path d="m310 150h2v2h-2z"/><path d="m110 350h2v2h-2z"/><path d="m110 490h2v2h-2z"/><path d="m310 350h2v2h-2z"/><path d="m310 490h2v2h-2z"/><path d="m60 150h2v2h-2z"/><path d="m260 150h2v2h-2z"/><path d="m60 350h2v2h-2z"/><path d="m60 490h2v2h-2z"/><path d="m260 350h2v2h-2z"/><path d="m260 490h2v2h-2z"/><path d="m160 150h2v2h-2z"/><path d="m360 150h2v2h-2z"/><path d="m160 350h2v2h-2z"/><path d="m160 490h2v2h-2z"/><path d="m360 350h2v2h-2z"/><path d="m360 490h2v2h-2z"/><path d="m10 170h2v2h-2z"/><path d="m210 170h2v2h-2z"/><path d="m10 370h2v2h-2z"/><path d="m10 510h2v2h-2z"/><path d="m210 370h2v2h-2z"/><path d="m210 510h2v2h-2z"/><path d="m110 170h2v2h-2z"/><path d="m310 170h2v2h-2z"/><path d="m110 370h2v2h-2z"/><path d="m110 510h2v2h-2z"/><path d="m310 370h2v2h-2z"/><path d="m310 510h2v2h-2z"/><path d="m60 170h2v2h-2z"/><path d="m260 170h2v2h-2z"/><path d="m60 370h2v2h-2z"/><path d="m60 510h2v2h-2z"/><path d="m260 370h2v2h-2z"/><path d="m260 510h2v2h-2z"/><path d="m160 170h2v2h-2z"/><path d="m360 170h2v2h-2z"/><path d="m160 370h2v2h-2z"/><path d="m160 510h2v2h-2z"/><path d="m360 370h2v2h-2z"/><path d="m360 510h2v2h-2z"/><path d="m10 190h2v2h-2z"/><path d="m210 190h2v2h-2z"/><path d="m10 390h2v2h-2z"/><path d="m10 530h2v2h-2z"/><path d="m210 390h2v2h-2z"/><path d="m210 530h2v2h-2z"/><path d="m110 190h2v2h-2z"/><path d="m310 190h2v2h-2z"/><path d="m110 390h2v2h-2z"/><path d="m110 530h2v2h-2z"/><path d="m310 390h2v2h-2z"/><path d="m310 530h2v2h-2z"/><path d="m60 190h2v2h-2z"/><path d="m260 190h2v2h-2z"/><path d="m60 390h2v2h-2z"/><path d="m60 530h2v2h-2z"/><path d="m260 390h2v2h-2z"/><path d="m260 530h2v2h-2z"/><path d="m160 190h2v2h-2z"/><path d="m360 190h2v2h-2z"/><path d="m160 390h2v2h-2z"/><path d="m160 530h2v2h-2z"/><path d="m360 390h2v2h-2z"/><path d="m360 530h2v2h-2z"/><path d="m20 0h2v2h-2z"/><path d="m220 0h2v2h-2z"/><path d="m20 200h2v2h-2z"/><path d="m220 200h2v2h-2z"/><path d="m120 0h2v2h-2z"/><path d="m320 0h2v2h-2z"/><path d="m120 200h2v2h-2z"/><path d="m320 200h2v2h-2z"/><path d="m70 0h2v2h-2z"/><path d="m270 0h2v2h-2z"/><path d="m70 200h2v2h-2z"/><path d="m270 200h2v2h-2z"/><path d="m170 0h2v2h-2z"/><path d="m370 0h2v2h-2z"/><path d="m170 200h2v2h-2z"/><path d="m370 200h2v2h-2z"/><path d="m20 20h2v2h-2z"/><path d="m220 20h2v2h-2z"/><path d="m20 220h2v2h-2z"/><path d="m220 220h2v2h-2z"/><path d="m120 20h2v2h-2z"/><path d="m320 20h2v2h-2z"/><path d="m120 220h2v2h-2z"/><path d="m320 220h2v2h-2z"/><path d="m70 20h2v2h-2z"/><path d="m270 20h2v2h-2z"/><path d="m70 220h2v2h-2z"/><path d="m270 220h2v2h-2z"/><path d="m170 20h2v2h-2z"/><path d="m370 20h2v2h-2z"/><path d="m170 220h2v2h-2z"/><path d="m370 220h2v2h-2z"/><path d="m20 40h2v2h-2z"/><path d="m220 40h2v2h-2z"/><path d="m20 240h2v2h-2z"/><path d="m220 240h2v2h-2z"/><path d="m120 40h2v2h-2z"/><path d="m320 40h2v2h-2z"/><path d="m120 240h2v2h-2z"/><path d="m320 240h2v2h-2z"/><path d="m70 40h2v2h-2z"/><path d="m270 40h2v2h-2z"/><path d="m70 240h2v2h-2z"/><path d="m270 240h2v2h-2z"/><path d="m170 40h2v2h-2z"/><path d="m370 40h2v2h-2z"/><path d="m170 240h2v2h-2z"/><path d="m370 240h2v2h-2z"/><path d="m20 60h2v2h-2z"/><path d="m220 60h2v2h-2z"/><path d="m20 260h2v2h-2z"/><path d="m20 400h2v2h-2z"/><path d="m220 260h2v2h-2z"/><path d="m220 400h2v2h-2z"/><path d="m120 60h2v2h-2z"/><path d="m320 60h2v2h-2z"/><path d="m120 260h2v2h-2z"/><path d="m120 400h2v2h-2z"/><path d="m320 260h2v2h-2z"/><path d="m320 400h2v2h-2z"/><path d="m70 60h2v2h-2z"/><path d="m270 60h2v2h-2z"/><path d="m70 260h2v2h-2z"/><path d="m70 400h2v2h-2z"/><path d="m270 260h2v2h-2z"/><path d="m270 400h2v2h-2z"/><path d="m170 60h2v2h-2z"/><path d="m370 60h2v2h-2z"/><path d="m170 260h2v2h-2z"/><path d="m170 400h2v2h-2z"/><path d="m370 260h2v2h-2z"/><path d="m370 400h2v2h-2z"/><path d="m20 80h2v2h-2z"/><path d="m220 80h2v2h-2z"/><path d="m20 280h2v2h-2z"/><path d="m20 420h2v2h-2z"/><path d="m220 280h2v2h-2z"/><path d="m220 420h2v2h-2z"/><path d="m120 80h2v2h-2z"/><path d="m320 80h2v2h-2z"/><path d="m120 280h2v2h-2z"/><path d="m120 420h2v2h-2z"/><path d="m320 280h2v2h-2z"/><path d="m320 420h2v2h-2z"/><path d="m70 80h2v2h-2z"/><path d="m270 80h2v2h-2z"/><path d="m70 280h2v2h-2z"/><path d="m70 420h2v2h-2z"/><path d="m270 280h2v2h-2z"/><path d="m270 420h2v2h-2z"/><path d="m170 80h2v2h-2z"/><path d="m370 80h2v2h-2z"/><path d="m170 280h2v2h-2z"/><path d="m170 420h2v2h-2z"/><path d="m370 280h2v2h-2z"/><path d="m370 420h2v2h-2z"/><path d="m20 100h2v2h-2z"/><path d="m220 100h2v2h-2z"/><path d="m20 300h2v2h-2z"/><path d="m20 440h2v2h-2z"/><path d="m220 300h2v2h-2z"/><path d="m220 440h2v2h-2z"/><path d="m120 100h2v2h-2z"/><path d="m320 100h2v2h-2z"/><path d="m120 300h2v2h-2z"/><path d="m120 440h2v2h-2z"/><path d="m320 300h2v2h-2z"/><path d="m320 440h2v2h-2z"/><path d="m70 100h2v2h-2z"/><path d="m270 100h2v2h-2z"/><path d="m70 300h2v2h-2z"/><path d="m70 440h2v2h-2z"/><path d="m270 300h2v2h-2z"/><path d="m270 440h2v2h-2z"/><path d="m170 100h2v2h-2z"/><path d="m370 100h2v2h-2z"/><path d="m170 300h2v2h-2z"/><path d="m170 440h2v2h-2z"/><path d="m370 300h2v2h-2z"/><path d="m370 440h2v2h-2z"/><path d="m20 120h2v2h-2z"/><path d="m220 120h2v2h-2z"/><path d="m20 320h2v2h-2z"/><path d="m20 460h2v2h-2z"/><path d="m220 320h2v2h-2z"/><path d="m220 460h2v2h-2z"/><path d="m120 120h2v2h-2z"/><path d="m320 120h2v2h-2z"/><path d="m120 320h2v2h-2z"/><path d="m120 460h2v2h-2z"/><path d="m320 320h2v2h-2z"/><path d="m320 460h2v2h-2z"/><path d="m70 120h2v2h-2z"/><path d="m270 120h2v2h-2z"/><path d="m70 320h2v2h-2z"/><path d="m70 460h2v2h-2z"/><path d="m270 320h2v2h-2z"/><path d="m270 460h2v2h-2z"/><path d="m170 120h2v2h-2z"/><path d="m370 120h2v2h-2z"/><path d="m170 320h2v2h-2z"/><path d="m170 460h2v2h-2z"/><path d="m370 320h2v2h-2z"/><path d="m370 460h2v2h-2z"/><path d="m20 140h2v2h-2z"/><path d="m220 140h2v2h-2z"/><path d="m20 340h2v2h-2z"/><path d="m20 480h2v2h-2z"/><path d="m220 340h2v2h-2z"/><path d="m220 480h2v2h-2z"/><path d="m120 140h2v2h-2z"/><path d="m320 140h2v2h-2z"/><path d="m120 340h2v2h-2z"/><path d="m120 480h2v2h-2z"/><path d="m320 340h2v2h-2z"/><path d="m320 480h2v2h-2z"/><path d="m70 140h2v2h-2z"/><path d="m270 140h2v2h-2z"/><path d="m70 340h2v2h-2z"/><path d="m70 480h2v2h-2z"/><path d="m270 340h2v2h-2z"/><path d="m270 480h2v2h-2z"/><path d="m170 140h2v2h-2z"/><path d="m370 140h2v2h-2z"/><path d="m170 340h2v2h-2z"/><path d="m170 480h2v2h-2z"/><path d="m370 340h2v2h-2z"/><path d="m370 480h2v2h-2z"/><path d="m20 160h2v2h-2z"/><path d="m220 160h2v2h-2z"/><path d="m20 360h2v2h-2z"/><path d="m20 500h2v2h-2z"/><path d="m220 360h2v2h-2z"/><path d="m220 500h2v2h-2z"/><path d="m120 160h2v2h-2z"/><path d="m320 160h2v2h-2z"/><path d="m120 360h2v2h-2z"/><path d="m120 500h2v2h-2z"/><path d="m320 360h2v2h-2z"/><path d="m320 500h2v2h-2z"/><path d="m70 160h2v2h-2z"/><path d="m270 160h2v2h-2z"/><path d="m70 360h2v2h-2z"/><path d="m70 500h2v2h-2z"/><path d="m270 360h2v2h-2z"/><path d="m270 500h2v2h-2z"/><path d="m170 160h2v2h-2z"/><path d="m370 160h2v2h-2z"/><path d="m170 360h2v2h-2z"/><path d="m170 500h2v2h-2z"/><path d="m370 360h2v2h-2z"/><path d="m370 500h2v2h-2z"/><path d="m20 180h2v2h-2z"/><path d="m220 180h2v2h-2z"/><path d="m20 380h2v2h-2z"/><path d="m20 520h2v2h-2z"/><path d="m220 380h2v2h-2z"/><path d="m220 520h2v2h-2z"/><path d="m120 180h2v2h-2z"/><path d="m320 180h2v2h-2z"/><path d="m120 380h2v2h-2z"/><path d="m120 520h2v2h-2z"/><path d="m320 380h2v2h-2z"/><path d="m320 520h2v2h-2z"/><path d="m70 180h2v2h-2z"/><path d="m270 180h2v2h-2z"/><path d="m70 380h2v2h-2z"/><path d="m70 520h2v2h-2z"/><path d="m270 380h2v2h-2z"/><path d="m270 520h2v2h-2z"/><path d="m170 180h2v2h-2z"/><path d="m370 180h2v2h-2z"/><path d="m170 380h2v2h-2z"/><path d="m170 520h2v2h-2z"/><path d="m370 380h2v2h-2z"/><path d="m370 520h2v2h-2z"/><path d="m20 10h2v2h-2z"/><path d="m220 10h2v2h-2z"/><path d="m20 210h2v2h-2z"/><path d="m220 210h2v2h-2z"/><path d="m120 10h2v2h-2z"/><path d="m320 10h2v2h-2z"/><path d="m120 210h2v2h-2z"/><path d="m320 210h2v2h-2z"/><path d="m70 10h2v2h-2z"/><path d="m270 10h2v2h-2z"/><path d="m70 210h2v2h-2z"/><path d="m270 210h2v2h-2z"/><path d="m170 10h2v2h-2z"/><path d="m370 10h2v2h-2z"/><path d="m170 210h2v2h-2z"/><path d="m370 210h2v2h-2z"/><path d="m20 30h2v2h-2z"/><path d="m220 30h2v2h-2z"/><path d="m20 230h2v2h-2z"/><path d="m220 230h2v2h-2z"/><path d="m120 30h2v2h-2z"/><path d="m320 30h2v2h-2z"/><path d="m120 230h2v2h-2z"/><path d="m320 230h2v2h-2z"/><path d="m70 30h2v2h-2z"/><path d="m270 30h2v2h-2z"/><path d="m70 230h2v2h-2z"/><path d="m270 230h2v2h-2z"/><path d="m170 30h2v2h-2z"/><path d="m370 30h2v2h-2z"/><path d="m170 230h2v2h-2z"/><path d="m370 230h2v2h-2z"/><path d="m20 50h2v2h-2z"/><path d="m220 50h2v2h-2z"/><path d="m20 250h2v2h-2z"/><path d="m220 250h2v2h-2z"/><path d="m120 50h2v2h-2z"/><path d="m320 50h2v2h-2z"/><path d="m120 250h2v2h-2z"/><path d="m320 250h2v2h-2z"/><path d="m70 50h2v2h-2z"/><path d="m270 50h2v2h-2z"/><path d="m70 250h2v2h-2z"/><path d="m270 250h2v2h-2z"/><path d="m170 50h2v2h-2z"/><path d="m370 50h2v2h-2z"/><path d="m170 250h2v2h-2z"/><path d="m370 250h2v2h-2z"/><path d="m20 70h2v2h-2z"/><path d="m220 70h2v2h-2z"/><path d="m20 270h2v2h-2z"/><path d="m20 410h2v2h-2z"/><path d="m220 270h2v2h-2z"/><path d="m220 410h2v2h-2z"/><path d="m120 70h2v2h-2z"/><path d="m320 70h2v2h-2z"/><path d="m120 270h2v2h-2z"/><path d="m120 410h2v2h-2z"/><path d="m320 270h2v2h-2z"/><path d="m320 410h2v2h-2z"/><path d="m70 70h2v2h-2z"/><path d="m270 70h2v2h-2z"/><path d="m70 270h2v2h-2z"/><path d="m70 410h2v2h-2z"/><path d="m270 270h2v2h-2z"/><path d="m270 410h2v2h-2z"/><path d="m170 70h2v2h-2z"/><path d="m370 70h2v2h-2z"/><path d="m170 270h2v2h-2z"/><path d="m170 410h2v2h-2z"/><path d="m370 270h2v2h-2z"/><path d="m370 410h2v2h-2z"/><path d="m20 90h2v2h-2z"/><path d="m220 90h2v2h-2z"/><path d="m20 290h2v2h-2z"/><path d="m20 430h2v2h-2z"/><path d="m220 290h2v2h-2z"/><path d="m220 430h2v2h-2z"/><path d="m120 90h2v2h-2z"/><path d="m320 90h2v2h-2z"/><path d="m120 290h2v2h-2z"/><path d="m120 430h2v2h-2z"/><path d="m320 290h2v2h-2z"/><path d="m320 430h2v2h-2z"/><path d="m70 90h2v2h-2z"/><path d="m270 90h2v2h-2z"/><path d="m70 290h2v2h-2z"/><path d="m70 430h2v2h-2z"/><path d="m270 290h2v2h-2z"/><path d="m270 430h2v2h-2z"/><path d="m170 90h2v2h-2z"/><path d="m370 90h2v2h-2z"/><path d="m170 290h2v2h-2z"/><path d="m170 430h2v2h-2z"/><path d="m370 290h2v2h-2z"/><path d="m370 430h2v2h-2z"/><path d="m20 110h2v2h-2z"/><path d="m220 110h2v2h-2z"/><path d="m20 310h2v2h-2z"/><path d="m20 450h2v2h-2z"/><path d="m220 310h2v2h-2z"/><path d="m220 450h2v2h-2z"/><path d="m120 110h2v2h-2z"/><path d="m320 110h2v2h-2z"/><path d="m120 310h2v2h-2z"/><path d="m120 450h2v2h-2z"/><path d="m320 310h2v2h-2z"/><path d="m320 450h2v2h-2z"/><path d="m70 110h2v2h-2z"/><path d="m270 110h2v2h-2z"/><path d="m70 310h2v2h-2z"/><path d="m70 450h2v2h-2z"/><path d="m270 310h2v2h-2z"/><path d="m270 450h2v2h-2z"/><path d="m170 110h2v2h-2z"/><path d="m370 110h2v2h-2z"/><path d="m170 310h2v2h-2z"/><path d="m170 450h2v2h-2z"/><path d="m370 310h2v2h-2z"/><path d="m370 450h2v2h-2z"/><path d="m20 130h2v2h-2z"/><path d="m220 130h2v2h-2z"/><path d="m20 330h2v2h-2z"/><path d="m20 470h2v2h-2z"/><path d="m220 330h2v2h-2z"/><path d="m220 470h2v2h-2z"/><path d="m120 130h2v2h-2z"/><path d="m320 130h2v2h-2z"/><path d="m120 330h2v2h-2z"/><path d="m120 470h2v2h-2z"/><path d="m320 330h2v2h-2z"/><path d="m320 470h2v2h-2z"/><path d="m70 130h2v2h-2z"/><path d="m270 130h2v2h-2z"/><path d="m70 330h2v2h-2z"/><path d="m70 470h2v2h-2z"/><path d="m270 330h2v2h-2z"/><path d="m270 470h2v2h-2z"/><path d="m170 130h2v2h-2z"/><path d="m370 130h2v2h-2z"/><path d="m170 330h2v2h-2z"/><path d="m170 470h2v2h-2z"/><path d="m370 330h2v2h-2z"/><path d="m370 470h2v2h-2z"/><path d="m20 150h2v2h-2z"/><path d="m220 150h2v2h-2z"/><path d="m20 350h2v2h-2z"/><path d="m20 490h2v2h-2z"/><path d="m220 350h2v2h-2z"/><path d="m220 490h2v2h-2z"/><path d="m120 150h2v2h-2z"/><path d="m320 150h2v2h-2z"/><path d="m120 350h2v2h-2z"/><path d="m120 490h2v2h-2z"/><path d="m320 350h2v2h-2z"/><path d="m320 490h2v2h-2z"/><path d="m70 150h2v2h-2z"/><path d="m270 150h2v2h-2z"/><path d="m70 350h2v2h-2z"/><path d="m70 490h2v2h-2z"/><path d="m270 350h2v2h-2z"/><path d="m270 490h2v2h-2z"/><path d="m170 150h2v2h-2z"/><path d="m370 150h2v2h-2z"/><path d="m170 350h2v2h-2z"/><path d="m170 490h2v2h-2z"/><path d="m370 350h2v2h-2z"/><path d="m370 490h2v2h-2z"/><path d="m20 170h2v2h-2z"/><path d="m220 170h2v2h-2z"/><path d="m20 370h2v2h-2z"/><path d="m20 510h2v2h-2z"/><path d="m220 370h2v2h-2z"/><path d="m220 510h2v2h-2z"/><path d="m120 170h2v2h-2z"/><path d="m320 170h2v2h-2z"/><path d="m120 370h2v2h-2z"/><path d="m120 510h2v2h-2z"/><path d="m320 370h2v2h-2z"/><path d="m320 510h2v2h-2z"/><path d="m70 170h2v2h-2z"/><path d="m270 170h2v2h-2z"/><path d="m70 370h2v2h-2z"/><path d="m70 510h2v2h-2z"/><path d="m270 370h2v2h-2z"/><path d="m270 510h2v2h-2z"/><path d="m170 170h2v2h-2z"/><path d="m370 170h2v2h-2z"/><path d="m170 370h2v2h-2z"/><path d="m170 510h2v2h-2z"/><path d="m370 370h2v2h-2z"/><path d="m370 510h2v2h-2z"/><path d="m20 190h2v2h-2z"/><path d="m220 190h2v2h-2z"/><path d="m20 390h2v2h-2z"/><path d="m20 530h2v2h-2z"/><path d="m220 390h2v2h-2z"/><path d="m220 530h2v2h-2z"/><path d="m120 190h2v2h-2z"/><path d="m320 190h2v2h-2z"/><path d="m120 390h2v2h-2z"/><path d="m120 530h2v2h-2z"/><path d="m320 390h2v2h-2z"/><path d="m320 530h2v2h-2z"/><path d="m70 190h2v2h-2z"/><path d="m270 190h2v2h-2z"/><path d="m70 390h2v2h-2z"/><path d="m70 530h2v2h-2z"/><path d="m270 390h2v2h-2z"/><path d="m270 530h2v2h-2z"/><path d="m170 190h2v2h-2z"/><path d="m370 190h2v2h-2z"/><path d="m170 390h2v2h-2z"/><path d="m170 530h2v2h-2z"/><path d="m370 390h2v2h-2z"/><path d="m370 530h2v2h-2z"/><path d="m30 0h2v2h-2z"/><path d="m230 0h2v2h-2z"/><path d="m30 200h2v2h-2z"/><path d="m230 200h2v2h-2z"/><path d="m130 0h2v2h-2z"/><path d="m330 0h2v2h-2z"/><path d="m130 200h2v2h-2z"/><path d="m330 200h2v2h-2z"/><path d="m80 0h2v2h-2z"/><path d="m280 0h2v2h-2z"/><path d="m80 200h2v2h-2z"/><path d="m280 200h2v2h-2z"/><path d="m180 0h2v2h-2z"/><path d="m380 0h2v2h-2z"/><path d="m180 200h2v2h-2z"/><path d="m380 200h2v2h-2z"/><path d="m30 20h2v2h-2z"/><path d="m230 20h2v2h-2z"/><path d="m30 220h2v2h-2z"/><path d="m230 220h2v2h-2z"/><path d="m130 20h2v2h-2z"/><path d="m330 20h2v2h-2z"/><path d="m130 220h2v2h-2z"/><path d="m330 220h2v2h-2z"/><path d="m80 20h2v2h-2z"/><path d="m280 20h2v2h-2z"/><path d="m80 220h2v2h-2z"/><path d="m280 220h2v2h-2z"/><path d="m180 20h2v2h-2z"/><path d="m380 20h2v2h-2z"/><path d="m180 220h2v2h-2z"/><path d="m380 220h2v2h-2z"/><path d="m30 40h2v2h-2z"/><path d="m230 40h2v2h-2z"/><path d="m30 240h2v2h-2z"/><path d="m230 240h2v2h-2z"/><path d="m130 40h2v2h-2z"/><path d="m330 40h2v2h-2z"/><path d="m130 240h2v2h-2z"/><path d="m330 240h2v2h-2z"/><path d="m80 40h2v2h-2z"/><path d="m280 40h2v2h-2z"/><path d="m80 240h2v2h-2z"/><path d="m280 240h2v2h-2z"/><path d="m180 40h2v2h-2z"/><path d="m380 40h2v2h-2z"/><path d="m180 240h2v2h-2z"/><path d="m380 240h2v2h-2z"/><path d="m30 60h2v2h-2z"/><path d="m230 60h2v2h-2z"/><path d="m30 260h2v2h-2z"/><path d="m30 400h2v2h-2z"/><path d="m230 260h2v2h-2z"/><path d="m230 400h2v2h-2z"/><path d="m130 60h2v2h-2z"/><path d="m330 60h2v2h-2z"/><path d="m130 260h2v2h-2z"/><path d="m130 400h2v2h-2z"/><path d="m330 260h2v2h-2z"/><path d="m330 400h2v2h-2z"/><path d="m80 60h2v2h-2z"/><path d="m280 60h2v2h-2z"/><path d="m80 260h2v2h-2z"/><path d="m80 400h2v2h-2z"/><path d="m280 260h2v2h-2z"/><path d="m280 400h2v2h-2z"/><path d="m180 60h2v2h-2z"/><path d="m380 60h2v2h-2z"/><path d="m180 260h2v2h-2z"/><path d="m180 400h2v2h-2z"/><path d="m380 260h2v2h-2z"/><path d="m380 400h2v2h-2z"/><path d="m30 80h2v2h-2z"/><path d="m230 80h2v2h-2z"/><path d="m30 280h2v2h-2z"/><path d="m30 420h2v2h-2z"/><path d="m230 280h2v2h-2z"/><path d="m230 420h2v2h-2z"/><path d="m130 80h2v2h-2z"/><path d="m330 80h2v2h-2z"/><path d="m130 280h2v2h-2z"/><path d="m130 420h2v2h-2z"/><path d="m330 280h2v2h-2z"/><path d="m330 420h2v2h-2z"/><path d="m80 80h2v2h-2z"/><path d="m280 80h2v2h-2z"/><path d="m80 280h2v2h-2z"/><path d="m80 420h2v2h-2z"/><path d="m280 280h2v2h-2z"/><path d="m280 420h2v2h-2z"/><path d="m180 80h2v2h-2z"/><path d="m380 80h2v2h-2z"/><path d="m180 280h2v2h-2z"/><path d="m180 420h2v2h-2z"/><path d="m380 280h2v2h-2z"/><path d="m380 420h2v2h-2z"/><path d="m30 100h2v2h-2z"/><path d="m230 100h2v2h-2z"/><path d="m30 300h2v2h-2z"/><path d="m30 440h2v2h-2z"/><path d="m230 300h2v2h-2z"/><path d="m230 440h2v2h-2z"/><path d="m130 100h2v2h-2z"/><path d="m330 100h2v2h-2z"/><path d="m130 300h2v2h-2z"/><path d="m130 440h2v2h-2z"/><path d="m330 300h2v2h-2z"/><path d="m330 440h2v2h-2z"/><path d="m80 100h2v2h-2z"/><path d="m280 100h2v2h-2z"/><path d="m80 300h2v2h-2z"/><path d="m80 440h2v2h-2z"/><path d="m280 300h2v2h-2z"/><path d="m280 440h2v2h-2z"/><path d="m180 100h2v2h-2z"/><path d="m380 100h2v2h-2z"/><path d="m180 300h2v2h-2z"/><path d="m180 440h2v2h-2z"/><path d="m380 300h2v2h-2z"/><path d="m380 440h2v2h-2z"/><path d="m30 120h2v2h-2z"/><path d="m230 120h2v2h-2z"/><path d="m30 320h2v2h-2z"/><path d="m30 460h2v2h-2z"/><path d="m230 320h2v2h-2z"/><path d="m230 460h2v2h-2z"/><path d="m130 120h2v2h-2z"/><path d="m330 120h2v2h-2z"/><path d="m130 320h2v2h-2z"/><path d="m130 460h2v2h-2z"/><path d="m330 320h2v2h-2z"/><path d="m330 460h2v2h-2z"/><path d="m80 120h2v2h-2z"/><path d="m280 120h2v2h-2z"/><path d="m80 320h2v2h-2z"/><path d="m80 460h2v2h-2z"/><path d="m280 320h2v2h-2z"/><path d="m280 460h2v2h-2z"/><path d="m180 120h2v2h-2z"/><path d="m380 120h2v2h-2z"/><path d="m180 320h2v2h-2z"/><path d="m180 460h2v2h-2z"/><path d="m380 320h2v2h-2z"/><path d="m380 460h2v2h-2z"/><path d="m30 140h2v2h-2z"/><path d="m230 140h2v2h-2z"/><path d="m30 340h2v2h-2z"/><path d="m30 480h2v2h-2z"/><path d="m230 340h2v2h-2z"/><path d="m230 480h2v2h-2z"/><path d="m130 140h2v2h-2z"/><path d="m330 140h2v2h-2z"/><path d="m130 340h2v2h-2z"/><path d="m130 480h2v2h-2z"/><path d="m330 340h2v2h-2z"/><path d="m330 480h2v2h-2z"/><path d="m80 140h2v2h-2z"/><path d="m280 140h2v2h-2z"/><path d="m80 340h2v2h-2z"/><path d="m80 480h2v2h-2z"/><path d="m280 340h2v2h-2z"/><path d="m280 480h2v2h-2z"/><path d="m180 140h2v2h-2z"/><path d="m380 140h2v2h-2z"/><path d="m180 340h2v2h-2z"/><path d="m180 480h2v2h-2z"/><path d="m380 340h2v2h-2z"/><path d="m380 480h2v2h-2z"/><path d="m30 160h2v2h-2z"/><path d="m230 160h2v2h-2z"/><path d="m30 360h2v2h-2z"/><path d="m30 500h2v2h-2z"/><path d="m230 360h2v2h-2z"/><path d="m230 500h2v2h-2z"/><path d="m130 160h2v2h-2z"/><path d="m330 160h2v2h-2z"/><path d="m130 360h2v2h-2z"/><path d="m130 500h2v2h-2z"/><path d="m330 360h2v2h-2z"/><path d="m330 500h2v2h-2z"/><path d="m80 160h2v2h-2z"/><path d="m280 160h2v2h-2z"/><path d="m80 360h2v2h-2z"/><path d="m80 500h2v2h-2z"/><path d="m280 360h2v2h-2z"/><path d="m280 500h2v2h-2z"/><path d="m180 160h2v2h-2z"/><path d="m380 160h2v2h-2z"/><path d="m180 360h2v2h-2z"/><path d="m180 500h2v2h-2z"/><path d="m380 360h2v2h-2z"/><path d="m380 500h2v2h-2z"/><path d="m30 180h2v2h-2z"/><path d="m230 180h2v2h-2z"/><path d="m30 380h2v2h-2z"/><path d="m30 520h2v2h-2z"/><path d="m230 380h2v2h-2z"/><path d="m230 520h2v2h-2z"/><path d="m130 180h2v2h-2z"/><path d="m330 180h2v2h-2z"/><path d="m130 380h2v2h-2z"/><path d="m130 520h2v2h-2z"/><path d="m330 380h2v2h-2z"/><path d="m330 520h2v2h-2z"/><path d="m80 180h2v2h-2z"/><path d="m280 180h2v2h-2z"/><path d="m80 380h2v2h-2z"/><path d="m80 520h2v2h-2z"/><path d="m280 380h2v2h-2z"/><path d="m280 520h2v2h-2z"/><path d="m180 180h2v2h-2z"/><path d="m380 180h2v2h-2z"/><path d="m180 380h2v2h-2z"/><path d="m180 520h2v2h-2z"/><path d="m380 380h2v2h-2z"/><path d="m380 520h2v2h-2z"/><path d="m30 10h2v2h-2z"/><path d="m230 10h2v2h-2z"/><path d="m30 210h2v2h-2z"/><path d="m230 210h2v2h-2z"/><path d="m130 10h2v2h-2z"/><path d="m330 10h2v2h-2z"/><path d="m130 210h2v2h-2z"/><path d="m330 210h2v2h-2z"/><path d="m80 10h2v2h-2z"/><path d="m280 10h2v2h-2z"/><path d="m80 210h2v2h-2z"/><path d="m280 210h2v2h-2z"/><path d="m180 10h2v2h-2z"/><path d="m380 10h2v2h-2z"/><path d="m180 210h2v2h-2z"/><path d="m380 210h2v2h-2z"/><path d="m30 30h2v2h-2z"/><path d="m230 30h2v2h-2z"/><path d="m30 230h2v2h-2z"/><path d="m230 230h2v2h-2z"/><path d="m130 30h2v2h-2z"/><path d="m330 30h2v2h-2z"/><path d="m130 230h2v2h-2z"/><path d="m330 230h2v2h-2z"/><path d="m80 30h2v2h-2z"/><path d="m280 30h2v2h-2z"/><path d="m80 230h2v2h-2z"/><path d="m280 230h2v2h-2z"/><path d="m180 30h2v2h-2z"/><path d="m380 30h2v2h-2z"/><path d="m180 230h2v2h-2z"/><path d="m380 230h2v2h-2z"/><path d="m30 50h2v2h-2z"/><path d="m230 50h2v2h-2z"/><path d="m30 250h2v2h-2z"/><path d="m230 250h2v2h-2z"/><path d="m130 50h2v2h-2z"/><path d="m330 50h2v2h-2z"/><path d="m130 250h2v2h-2z"/><path d="m330 250h2v2h-2z"/><path d="m80 50h2v2h-2z"/><path d="m280 50h2v2h-2z"/><path d="m80 250h2v2h-2z"/><path d="m280 250h2v2h-2z"/><path d="m180 50h2v2h-2z"/><path d="m380 50h2v2h-2z"/><path d="m180 250h2v2h-2z"/><path d="m380 250h2v2h-2z"/><path d="m30 70h2v2h-2z"/><path d="m230 70h2v2h-2z"/><path d="m30 270h2v2h-2z"/><path d="m30 410h2v2h-2z"/><path d="m230 270h2v2h-2z"/><path d="m230 410h2v2h-2z"/><path d="m130 70h2v2h-2z"/><path d="m330 70h2v2h-2z"/><path d="m130 270h2v2h-2z"/><path d="m130 410h2v2h-2z"/><path d="m330 270h2v2h-2z"/><path d="m330 410h2v2h-2z"/><path d="m80 70h2v2h-2z"/><path d="m280 70h2v2h-2z"/><path d="m80 270h2v2h-2z"/><path d="m80 410h2v2h-2z"/><path d="m280 270h2v2h-2z"/><path d="m280 410h2v2h-2z"/><path d="m180 70h2v2h-2z"/><path d="m380 70h2v2h-2z"/><path d="m180 270h2v2h-2z"/><path d="m180 410h2v2h-2z"/><path d="m380 270h2v2h-2z"/><path d="m380 410h2v2h-2z"/><path d="m30 90h2v2h-2z"/><path d="m230 90h2v2h-2z"/><path d="m30 290h2v2h-2z"/><path d="m30 430h2v2h-2z"/><path d="m230 290h2v2h-2z"/><path d="m230 430h2v2h-2z"/><path d="m130 90h2v2h-2z"/><path d="m330 90h2v2h-2z"/><path d="m130 290h2v2h-2z"/><path d="m130 430h2v2h-2z"/><path d="m330 290h2v2h-2z"/><path d="m330 430h2v2h-2z"/><path d="m80 90h2v2h-2z"/><path d="m280 90h2v2h-2z"/><path d="m80 290h2v2h-2z"/><path d="m80 430h2v2h-2z"/><path d="m280 290h2v2h-2z"/><path d="m280 430h2v2h-2z"/><path d="m180 90h2v2h-2z"/><path d="m380 90h2v2h-2z"/><path d="m180 290h2v2h-2z"/><path d="m180 430h2v2h-2z"/><path d="m380 290h2v2h-2z"/><path d="m380 430h2v2h-2z"/><path d="m30 110h2v2h-2z"/><path d="m230 110h2v2h-2z"/><path d="m30 310h2v2h-2z"/><path d="m30 450h2v2h-2z"/><path d="m230 310h2v2h-2z"/><path d="m230 450h2v2h-2z"/><path d="m130 110h2v2h-2z"/><path d="m330 110h2v2h-2z"/><path d="m130 310h2v2h-2z"/><path d="m130 450h2v2h-2z"/><path d="m330 310h2v2h-2z"/><path d="m330 450h2v2h-2z"/><path d="m80 110h2v2h-2z"/><path d="m280 110h2v2h-2z"/><path d="m80 310h2v2h-2z"/><path d="m80 450h2v2h-2z"/><path d="m280 310h2v2h-2z"/><path d="m280 450h2v2h-2z"/><path d="m180 110h2v2h-2z"/><path d="m380 110h2v2h-2z"/><path d="m180 310h2v2h-2z"/><path d="m180 450h2v2h-2z"/><path d="m380 310h2v2h-2z"/><path d="m380 450h2v2h-2z"/><path d="m30 130h2v2h-2z"/><path d="m230 130h2v2h-2z"/><path d="m30 330h2v2h-2z"/><path d="m30 470h2v2h-2z"/><path d="m230 330h2v2h-2z"/><path d="m230 470h2v2h-2z"/><path d="m130 130h2v2h-2z"/><path d="m330 130h2v2h-2z"/><path d="m130 330h2v2h-2z"/><path d="m130 470h2v2h-2z"/><path d="m330 330h2v2h-2z"/><path d="m330 470h2v2h-2z"/><path d="m80 130h2v2h-2z"/><path d="m280 130h2v2h-2z"/><path d="m80 330h2v2h-2z"/><path d="m80 470h2v2h-2z"/><path d="m280 330h2v2h-2z"/><path d="m280 470h2v2h-2z"/><path d="m180 130h2v2h-2z"/><path d="m380 130h2v2h-2z"/><path d="m180 330h2v2h-2z"/><path d="m180 470h2v2h-2z"/><path d="m380 330h2v2h-2z"/><path d="m380 470h2v2h-2z"/><path d="m30 150h2v2h-2z"/><path d="m230 150h2v2h-2z"/><path d="m30 350h2v2h-2z"/><path d="m30 490h2v2h-2z"/><path d="m230 350h2v2h-2z"/><path d="m230 490h2v2h-2z"/><path d="m130 150h2v2h-2z"/><path d="m330 150h2v2h-2z"/><path d="m130 350h2v2h-2z"/><path d="m130 490h2v2h-2z"/><path d="m330 350h2v2h-2z"/><path d="m330 490h2v2h-2z"/><path d="m80 150h2v2h-2z"/><path d="m280 150h2v2h-2z"/><path d="m80 350h2v2h-2z"/><path d="m80 490h2v2h-2z"/><path d="m280 350h2v2h-2z"/><path d="m280 490h2v2h-2z"/><path d="m180 150h2v2h-2z"/><path d="m380 150h2v2h-2z"/><path d="m180 350h2v2h-2z"/><path d="m180 490h2v2h-2z"/><path d="m380 350h2v2h-2z"/><path d="m380 490h2v2h-2z"/><path d="m30 170h2v2h-2z"/><path d="m230 170h2v2h-2z"/><path d="m30 370h2v2h-2z"/><path d="m30 510h2v2h-2z"/><path d="m230 370h2v2h-2z"/><path d="m230 510h2v2h-2z"/><path d="m130 170h2v2h-2z"/><path d="m330 170h2v2h-2z"/><path d="m130 370h2v2h-2z"/><path d="m130 510h2v2h-2z"/><path d="m330 370h2v2h-2z"/><path d="m330 510h2v2h-2z"/><path d="m80 170h2v2h-2z"/><path d="m280 170h2v2h-2z"/><path d="m80 370h2v2h-2z"/><path d="m80 510h2v2h-2z"/><path d="m280 370h2v2h-2z"/><path d="m280 510h2v2h-2z"/><path d="m180 170h2v2h-2z"/><path d="m380 170h2v2h-2z"/><path d="m180 370h2v2h-2z"/><path d="m180 510h2v2h-2z"/><path d="m380 370h2v2h-2z"/><path d="m380 510h2v2h-2z"/><path d="m30 190h2v2h-2z"/><path d="m230 190h2v2h-2z"/><path d="m30 390h2v2h-2z"/><path d="m30 530h2v2h-2z"/><path d="m230 390h2v2h-2z"/><path d="m230 530h2v2h-2z"/><path d="m130 190h2v2h-2z"/><path d="m330 190h2v2h-2z"/><path d="m130 390h2v2h-2z"/><path d="m130 530h2v2h-2z"/><path d="m330 390h2v2h-2z"/><path d="m330 530h2v2h-2z"/><path d="m80 190h2v2h-2z"/><path d="m280 190h2v2h-2z"/><path d="m80 390h2v2h-2z"/><path d="m80 530h2v2h-2z"/><path d="m280 390h2v2h-2z"/><path d="m280 530h2v2h-2z"/><path d="m180 190h2v2h-2z"/><path d="m380 190h2v2h-2z"/><path d="m180 390h2v2h-2z"/><path d="m180 530h2v2h-2z"/><path d="m380 390h2v2h-2z"/><path d="m380 530h2v2h-2z"/><path d="m40 0h2v2h-2z"/><path d="m240 0h2v2h-2z"/><path d="m40 200h2v2h-2z"/><path d="m240 200h2v2h-2z"/><path d="m140 0h2v2h-2z"/><path d="m340 0h2v2h-2z"/><path d="m140 200h2v2h-2z"/><path d="m340 200h2v2h-2z"/><path d="m90 0h2v2h-2z"/><path d="m290 0h2v2h-2z"/><path d="m90 200h2v2h-2z"/><path d="m290 200h2v2h-2z"/><path d="m190 0h2v2h-2z"/><path d="m390 0h2v2h-2z"/><path d="m190 200h2v2h-2z"/><path d="m390 200h2v2h-2z"/><path d="m40 20h2v2h-2z"/><path d="m240 20h2v2h-2z"/><path d="m40 220h2v2h-2z"/><path d="m240 220h2v2h-2z"/><path d="m140 20h2v2h-2z"/><path d="m340 20h2v2h-2z"/><path d="m140 220h2v2h-2z"/><path d="m340 220h2v2h-2z"/><path d="m90 20h2v2h-2z"/><path d="m290 20h2v2h-2z"/><path d="m90 220h2v2h-2z"/><path d="m290 220h2v2h-2z"/><path d="m190 20h2v2h-2z"/><path d="m390 20h2v2h-2z"/><path d="m190 220h2v2h-2z"/><path d="m390 220h2v2h-2z"/><path d="m40 40h2v2h-2z"/><path d="m240 40h2v2h-2z"/><path d="m40 240h2v2h-2z"/><path d="m240 240h2v2h-2z"/><path d="m140 40h2v2h-2z"/><path d="m340 40h2v2h-2z"/><path d="m140 240h2v2h-2z"/><path d="m340 240h2v2h-2z"/><path d="m90 40h2v2h-2z"/><path d="m290 40h2v2h-2z"/><path d="m90 240h2v2h-2z"/><path d="m290 240h2v2h-2z"/><path d="m190 40h2v2h-2z"/><path d="m390 40h2v2h-2z"/><path d="m190 240h2v2h-2z"/><path d="m390 240h2v2h-2z"/><path d="m40 60h2v2h-2z"/><path d="m240 60h2v2h-2z"/><path d="m40 260h2v2h-2z"/><path d="m40 400h2v2h-2z"/><path d="m240 260h2v2h-2z"/><path d="m240 400h2v2h-2z"/><path d="m140 60h2v2h-2z"/><path d="m340 60h2v2h-2z"/><path d="m140 260h2v2h-2z"/><path d="m140 400h2v2h-2z"/><path d="m340 260h2v2h-2z"/><path d="m340 400h2v2h-2z"/><path d="m90 60h2v2h-2z"/><path d="m290 60h2v2h-2z"/><path d="m90 260h2v2h-2z"/><path d="m90 400h2v2h-2z"/><path d="m290 260h2v2h-2z"/><path d="m290 400h2v2h-2z"/><path d="m190 60h2v2h-2z"/><path d="m390 60h2v2h-2z"/><path d="m190 260h2v2h-2z"/><path d="m190 400h2v2h-2z"/><path d="m390 260h2v2h-2z"/><path d="m390 400h2v2h-2z"/><path d="m40 80h2v2h-2z"/><path d="m240 80h2v2h-2z"/><path d="m40 280h2v2h-2z"/><path d="m40 420h2v2h-2z"/><path d="m240 280h2v2h-2z"/><path d="m240 420h2v2h-2z"/><path d="m140 80h2v2h-2z"/><path d="m340 80h2v2h-2z"/><path d="m140 280h2v2h-2z"/><path d="m140 420h2v2h-2z"/><path d="m340 280h2v2h-2z"/><path d="m340 420h2v2h-2z"/><path d="m90 80h2v2h-2z"/><path d="m290 80h2v2h-2z"/><path d="m90 280h2v2h-2z"/><path d="m90 420h2v2h-2z"/><path d="m290 280h2v2h-2z"/><path d="m290 420h2v2h-2z"/><path d="m190 80h2v2h-2z"/><path d="m390 80h2v2h-2z"/><path d="m190 280h2v2h-2z"/><path d="m190 420h2v2h-2z"/><path d="m390 280h2v2h-2z"/><path d="m390 420h2v2h-2z"/><path d="m40 100h2v2h-2z"/><path d="m240 100h2v2h-2z"/><path d="m40 300h2v2h-2z"/><path d="m40 440h2v2h-2z"/><path d="m240 300h2v2h-2z"/><path d="m240 440h2v2h-2z"/><path d="m140 100h2v2h-2z"/><path d="m340 100h2v2h-2z"/><path d="m140 300h2v2h-2z"/><path d="m140 440h2v2h-2z"/><path d="m340 300h2v2h-2z"/><path d="m340 440h2v2h-2z"/><path d="m90 100h2v2h-2z"/><path d="m290 100h2v2h-2z"/><path d="m90 300h2v2h-2z"/><path d="m90 440h2v2h-2z"/><path d="m290 300h2v2h-2z"/><path d="m290 440h2v2h-2z"/><path d="m190 100h2v2h-2z"/><path d="m390 100h2v2h-2z"/><path d="m190 300h2v2h-2z"/><path d="m190 440h2v2h-2z"/><path d="m390 300h2v2h-2z"/><path d="m390 440h2v2h-2z"/><path d="m40 120h2v2h-2z"/><path d="m240 120h2v2h-2z"/><path d="m40 320h2v2h-2z"/><path d="m40 460h2v2h-2z"/><path d="m240 320h2v2h-2z"/><path d="m240 460h2v2h-2z"/><path d="m140 120h2v2h-2z"/><path d="m340 120h2v2h-2z"/><path d="m140 320h2v2h-2z"/><path d="m140 460h2v2h-2z"/><path d="m340 320h2v2h-2z"/><path d="m340 460h2v2h-2z"/><path d="m90 120h2v2h-2z"/><path d="m290 120h2v2h-2z"/><path d="m90 320h2v2h-2z"/><path d="m90 460h2v2h-2z"/><path d="m290 320h2v2h-2z"/><path d="m290 460h2v2h-2z"/><path d="m190 120h2v2h-2z"/><path d="m390 120h2v2h-2z"/><path d="m190 320h2v2h-2z"/><path d="m190 460h2v2h-2z"/><path d="m390 320h2v2h-2z"/><path d="m390 460h2v2h-2z"/><path d="m40 140h2v2h-2z"/><path d="m240 140h2v2h-2z"/><path d="m40 340h2v2h-2z"/><path d="m40 480h2v2h-2z"/><path d="m240 340h2v2h-2z"/><path d="m240 480h2v2h-2z"/><path d="m140 140h2v2h-2z"/><path d="m340 140h2v2h-2z"/><path d="m140 340h2v2h-2z"/><path d="m140 480h2v2h-2z"/><path d="m340 340h2v2h-2z"/><path d="m340 480h2v2h-2z"/><path d="m90 140h2v2h-2z"/><path d="m290 140h2v2h-2z"/><path d="m90 340h2v2h-2z"/><path d="m90 480h2v2h-2z"/><path d="m290 340h2v2h-2z"/><path d="m290 480h2v2h-2z"/><path d="m190 140h2v2h-2z"/><path d="m390 140h2v2h-2z"/><path d="m190 340h2v2h-2z"/><path d="m190 480h2v2h-2z"/><path d="m390 340h2v2h-2z"/><path d="m390 480h2v2h-2z"/><path d="m40 160h2v2h-2z"/><path d="m240 160h2v2h-2z"/><path d="m40 360h2v2h-2z"/><path d="m40 500h2v2h-2z"/><path d="m240 360h2v2h-2z"/><path d="m240 500h2v2h-2z"/><path d="m140 160h2v2h-2z"/><path d="m340 160h2v2h-2z"/><path d="m140 360h2v2h-2z"/><path d="m140 500h2v2h-2z"/><path d="m340 360h2v2h-2z"/><path d="m340 500h2v2h-2z"/><path d="m90 160h2v2h-2z"/><path d="m290 160h2v2h-2z"/><path d="m90 360h2v2h-2z"/><path d="m90 500h2v2h-2z"/><path d="m290 360h2v2h-2z"/><path d="m290 500h2v2h-2z"/><path d="m190 160h2v2h-2z"/><path d="m390 160h2v2h-2z"/><path d="m190 360h2v2h-2z"/><path d="m190 500h2v2h-2z"/><path d="m390 360h2v2h-2z"/><path d="m390 500h2v2h-2z"/><path d="m40 180h2v2h-2z"/><path d="m240 180h2v2h-2z"/><path d="m40 380h2v2h-2z"/><path d="m40 520h2v2h-2z"/><path d="m240 380h2v2h-2z"/><path d="m240 520h2v2h-2z"/><path d="m140 180h2v2h-2z"/><path d="m340 180h2v2h-2z"/><path d="m140 380h2v2h-2z"/><path d="m140 520h2v2h-2z"/><path d="m340 380h2v2h-2z"/><path d="m340 520h2v2h-2z"/><path d="m90 180h2v2h-2z"/><path d="m290 180h2v2h-2z"/><path d="m90 380h2v2h-2z"/><path d="m90 520h2v2h-2z"/><path d="m290 380h2v2h-2z"/><path d="m290 520h2v2h-2z"/><path d="m190 180h2v2h-2z"/><path d="m390 180h2v2h-2z"/><path d="m190 380h2v2h-2z"/><path d="m190 520h2v2h-2z"/><path d="m390 380h2v2h-2z"/><path d="m390 520h2v2h-2z"/><path d="m40 10h2v2h-2z"/><path d="m240 10h2v2h-2z"/><path d="m40 210h2v2h-2z"/><path d="m240 210h2v2h-2z"/><path d="m140 10h2v2h-2z"/><path d="m340 10h2v2h-2z"/><path d="m140 210h2v2h-2z"/><path d="m340 210h2v2h-2z"/><path d="m90 10h2v2h-2z"/><path d="m290 10h2v2h-2z"/><path d="m90 210h2v2h-2z"/><path d="m290 210h2v2h-2z"/><path d="m190 10h2v2h-2z"/><path d="m390 10h2v2h-2z"/><path d="m190 210h2v2h-2z"/><path d="m390 210h2v2h-2z"/><path d="m40 30h2v2h-2z"/><path d="m240 30h2v2h-2z"/><path d="m40 230h2v2h-2z"/><path d="m240 230h2v2h-2z"/><path d="m140 30h2v2h-2z"/><path d="m340 30h2v2h-2z"/><path d="m140 230h2v2h-2z"/><path d="m340 230h2v2h-2z"/><path d="m90 30h2v2h-2z"/><path d="m290 30h2v2h-2z"/><path d="m90 230h2v2h-2z"/><path d="m290 230h2v2h-2z"/><path d="m190 30h2v2h-2z"/><path d="m390 30h2v2h-2z"/><path d="m190 230h2v2h-2z"/><path d="m390 230h2v2h-2z"/><path d="m40 50h2v2h-2z"/><path d="m240 50h2v2h-2z"/><path d="m40 250h2v2h-2z"/><path d="m240 250h2v2h-2z"/><path d="m140 50h2v2h-2z"/><path d="m340 50h2v2h-2z"/><path d="m140 250h2v2h-2z"/><path d="m340 250h2v2h-2z"/><path d="m90 50h2v2h-2z"/><path d="m290 50h2v2h-2z"/><path d="m90 250h2v2h-2z"/><path d="m290 250h2v2h-2z"/><path d="m190 50h2v2h-2z"/><path d="m390 50h2v2h-2z"/><path d="m190 250h2v2h-2z"/><path d="m390 250h2v2h-2z"/><path d="m40 70h2v2h-2z"/><path d="m240 70h2v2h-2z"/><path d="m40 270h2v2h-2z"/><path d="m40 410h2v2h-2z"/><path d="m240 270h2v2h-2z"/><path d="m240 410h2v2h-2z"/><path d="m140 70h2v2h-2z"/><path d="m340 70h2v2h-2z"/><path d="m140 270h2v2h-2z"/><path d="m140 410h2v2h-2z"/><path d="m340 270h2v2h-2z"/><path d="m340 410h2v2h-2z"/><path d="m90 70h2v2h-2z"/><path d="m290 70h2v2h-2z"/><path d="m90 270h2v2h-2z"/><path d="m90 410h2v2h-2z"/><path d="m290 270h2v2h-2z"/><path d="m290 410h2v2h-2z"/><path d="m190 70h2v2h-2z"/><path d="m390 70h2v2h-2z"/><path d="m190 270h2v2h-2z"/><path d="m190 410h2v2h-2z"/><path d="m390 270h2v2h-2z"/><path d="m390 410h2v2h-2z"/><path d="m40 90h2v2h-2z"/><path d="m240 90h2v2h-2z"/><path d="m40 290h2v2h-2z"/><path d="m40 430h2v2h-2z"/><path d="m240 290h2v2h-2z"/><path d="m240 430h2v2h-2z"/><path d="m140 90h2v2h-2z"/><path d="m340 90h2v2h-2z"/><path d="m140 290h2v2h-2z"/><path d="m140 430h2v2h-2z"/><path d="m340 290h2v2h-2z"/><path d="m340 430h2v2h-2z"/><path d="m90 90h2v2h-2z"/><path d="m290 90h2v2h-2z"/><path d="m90 290h2v2h-2z"/><path d="m90 430h2v2h-2z"/><path d="m290 290h2v2h-2z"/><path d="m290 430h2v2h-2z"/><path d="m190 90h2v2h-2z"/><path d="m390 90h2v2h-2z"/><path d="m190 290h2v2h-2z"/><path d="m190 430h2v2h-2z"/><path d="m390 290h2v2h-2z"/><path d="m390 430h2v2h-2z"/><path d="m40 110h2v2h-2z"/><path d="m240 110h2v2h-2z"/><path d="m40 310h2v2h-2z"/><path d="m40 450h2v2h-2z"/><path d="m240 310h2v2h-2z"/><path d="m240 450h2v2h-2z"/><path d="m140 110h2v2h-2z"/><path d="m340 110h2v2h-2z"/><path d="m140 310h2v2h-2z"/><path d="m140 450h2v2h-2z"/><path d="m340 310h2v2h-2z"/><path d="m340 450h2v2h-2z"/><path d="m90 110h2v2h-2z"/><path d="m290 110h2v2h-2z"/><path d="m90 310h2v2h-2z"/><path d="m90 450h2v2h-2z"/><path d="m290 310h2v2h-2z"/><path d="m290 450h2v2h-2z"/><path d="m190 110h2v2h-2z"/><path d="m390 110h2v2h-2z"/><path d="m190 310h2v2h-2z"/><path d="m190 450h2v2h-2z"/><path d="m390 310h2v2h-2z"/><path d="m390 450h2v2h-2z"/><path d="m40 130h2v2h-2z"/><path d="m240 130h2v2h-2z"/><path d="m40 330h2v2h-2z"/><path d="m40 470h2v2h-2z"/><path d="m240 330h2v2h-2z"/><path d="m240 470h2v2h-2z"/><path d="m140 130h2v2h-2z"/><path d="m340 130h2v2h-2z"/><path d="m140 330h2v2h-2z"/><path d="m140 470h2v2h-2z"/><path d="m340 330h2v2h-2z"/><path d="m340 470h2v2h-2z"/><path d="m90 130h2v2h-2z"/><path d="m290 130h2v2h-2z"/><path d="m90 330h2v2h-2z"/><path d="m90 470h2v2h-2z"/><path d="m290 330h2v2h-2z"/><path d="m290 470h2v2h-2z"/><path d="m190 130h2v2h-2z"/><path d="m390 130h2v2h-2z"/><path d="m190 330h2v2h-2z"/><path d="m190 470h2v2h-2z"/><path d="m390 330h2v2h-2z"/><path d="m390 470h2v2h-2z"/><path d="m40 150h2v2h-2z"/><path d="m240 150h2v2h-2z"/><path d="m40 350h2v2h-2z"/><path d="m40 490h2v2h-2z"/><path d="m240 350h2v2h-2z"/><path d="m240 490h2v2h-2z"/><path d="m140 150h2v2h-2z"/><path d="m340 150h2v2h-2z"/><path d="m140 350h2v2h-2z"/><path d="m140 490h2v2h-2z"/><path d="m340 350h2v2h-2z"/><path d="m340 490h2v2h-2z"/><path d="m90 150h2v2h-2z"/><path d="m290 150h2v2h-2z"/><path d="m90 350h2v2h-2z"/><path d="m90 490h2v2h-2z"/><path d="m290 350h2v2h-2z"/><path d="m290 490h2v2h-2z"/><path d="m190 150h2v2h-2z"/><path d="m390 150h2v2h-2z"/><path d="m190 350h2v2h-2z"/><path d="m190 490h2v2h-2z"/><path d="m390 350h2v2h-2z"/><path d="m390 490h2v2h-2z"/><path d="m40 170h2v2h-2z"/><path d="m240 170h2v2h-2z"/><path d="m40 370h2v2h-2z"/><path d="m40 510h2v2h-2z"/><path d="m240 370h2v2h-2z"/><path d="m240 510h2v2h-2z"/><path d="m140 170h2v2h-2z"/><path d="m340 170h2v2h-2z"/><path d="m140 370h2v2h-2z"/><path d="m140 510h2v2h-2z"/><path d="m340 370h2v2h-2z"/><path d="m340 510h2v2h-2z"/><path d="m90 170h2v2h-2z"/><path d="m290 170h2v2h-2z"/><path d="m90 370h2v2h-2z"/><path d="m90 510h2v2h-2z"/><path d="m290 370h2v2h-2z"/><path d="m290 510h2v2h-2z"/><path d="m190 170h2v2h-2z"/><path d="m390 170h2v2h-2z"/><path d="m190 370h2v2h-2z"/><path d="m190 510h2v2h-2z"/><path d="m390 370h2v2h-2z"/><path d="m390 510h2v2h-2z"/><path d="m40 190h2v2h-2z"/><path d="m240 190h2v2h-2z"/><path d="m40 390h2v2h-2z"/><path d="m40 530h2v2h-2z"/><path d="m240 390h2v2h-2z"/><path d="m240 530h2v2h-2z"/><path d="m140 190h2v2h-2z"/><path d="m340 190h2v2h-2z"/><path d="m140 390h2v2h-2z"/><path d="m140 530h2v2h-2z"/><path d="m340 390h2v2h-2z"/><path d="m340 530h2v2h-2z"/><path d="m90 190h2v2h-2z"/><path d="m290 190h2v2h-2z"/><path d="m90 390h2v2h-2z"/><path d="m90 530h2v2h-2z"/><path d="m290 390h2v2h-2z"/><path d="m290 530h2v2h-2z"/><path d="m190 190h2v2h-2z"/><path d="m390 190h2v2h-2z"/><path d="m190 390h2v2h-2z"/><path d="m190 530h2v2h-2z"/><path d="m390 390h2v2h-2z"/><path d="m390 530h2v2h-2z"/><path d="m400 0h2v2h-2z"/><path d="m600 0h2v2h-2z"/><path d="m400 200h2v2h-2z"/><path d="m600 200h2v2h-2z"/><path d="m500 0h2v2h-2z"/><path d="m500 200h2v2h-2z"/><path d="m450 0h2v2h-2z"/><path d="m450 200h2v2h-2z"/><path d="m550 0h2v2h-2z"/><path d="m550 200h2v2h-2z"/><path d="m400 20h2v2h-2z"/><path d="m600 20h2v2h-2z"/><path d="m400 220h2v2h-2z"/><path d="m600 220h2v2h-2z"/><path d="m500 20h2v2h-2z"/><path d="m500 220h2v2h-2z"/><path d="m450 20h2v2h-2z"/><path d="m450 220h2v2h-2z"/><path d="m550 20h2v2h-2z"/><path d="m550 220h2v2h-2z"/><path d="m400 40h2v2h-2z"/><path d="m600 40h2v2h-2z"/><path d="m400 240h2v2h-2z"/><path d="m600 240h2v2h-2z"/><path d="m500 40h2v2h-2z"/><path d="m500 240h2v2h-2z"/><path d="m450 40h2v2h-2z"/><path d="m450 240h2v2h-2z"/><path d="m550 40h2v2h-2z"/><path d="m550 240h2v2h-2z"/><path d="m400 60h2v2h-2z"/><path d="m600 60h2v2h-2z"/><path d="m400 260h2v2h-2z"/><path d="m400 400h2v2h-2z"/><path d="m600 260h2v2h-2z"/><path d="m600 400h2v2h-2z"/><path d="m500 60h2v2h-2z"/><path d="m500 260h2v2h-2z"/><path d="m500 400h2v2h-2z"/><path d="m450 60h2v2h-2z"/><path d="m450 260h2v2h-2z"/><path d="m450 400h2v2h-2z"/><path d="m550 60h2v2h-2z"/><path d="m550 260h2v2h-2z"/><path d="m550 400h2v2h-2z"/><path d="m400 80h2v2h-2z"/><path d="m600 80h2v2h-2z"/><path d="m400 280h2v2h-2z"/><path d="m400 420h2v2h-2z"/><path d="m600 280h2v2h-2z"/><path d="m600 420h2v2h-2z"/><path d="m500 80h2v2h-2z"/><path d="m500 280h2v2h-2z"/><path d="m500 420h2v2h-2z"/><path d="m450 80h2v2h-2z"/><path d="m450 280h2v2h-2z"/><path d="m450 420h2v2h-2z"/><path d="m550 80h2v2h-2z"/><path d="m550 280h2v2h-2z"/><path d="m550 420h2v2h-2z"/><path d="m400 100h2v2h-2z"/><path d="m600 100h2v2h-2z"/><path d="m400 300h2v2h-2z"/><path d="m400 440h2v2h-2z"/><path d="m600 300h2v2h-2z"/><path d="m600 440h2v2h-2z"/><path d="m500 100h2v2h-2z"/><path d="m500 300h2v2h-2z"/><path d="m500 440h2v2h-2z"/><path d="m450 100h2v2h-2z"/><path d="m450 300h2v2h-2z"/><path d="m450 440h2v2h-2z"/><path d="m550 100h2v2h-2z"/><path d="m550 300h2v2h-2z"/><path d="m550 440h2v2h-2z"/><path d="m400 120h2v2h-2z"/><path d="m600 120h2v2h-2z"/><path d="m400 320h2v2h-2z"/><path d="m400 460h2v2h-2z"/><path d="m600 320h2v2h-2z"/><path d="m600 460h2v2h-2z"/><path d="m500 120h2v2h-2z"/><path d="m500 320h2v2h-2z"/><path d="m500 460h2v2h-2z"/><path d="m450 120h2v2h-2z"/><path d="m450 320h2v2h-2z"/><path d="m450 460h2v2h-2z"/><path d="m550 120h2v2h-2z"/><path d="m550 320h2v2h-2z"/><path d="m550 460h2v2h-2z"/><path d="m400 140h2v2h-2z"/><path d="m600 140h2v2h-2z"/><path d="m400 340h2v2h-2z"/><path d="m400 480h2v2h-2z"/><path d="m600 340h2v2h-2z"/><path d="m600 480h2v2h-2z"/><path d="m500 140h2v2h-2z"/><path d="m500 340h2v2h-2z"/><path d="m500 480h2v2h-2z"/><path d="m450 140h2v2h-2z"/><path d="m450 340h2v2h-2z"/><path d="m450 480h2v2h-2z"/><path d="m550 140h2v2h-2z"/><path d="m550 340h2v2h-2z"/><path d="m550 480h2v2h-2z"/><path d="m400 160h2v2h-2z"/><path d="m600 160h2v2h-2z"/><path d="m400 360h2v2h-2z"/><path d="m400 500h2v2h-2z"/><path d="m600 360h2v2h-2z"/><path d="m600 500h2v2h-2z"/><path d="m500 160h2v2h-2z"/><path d="m500 360h2v2h-2z"/><path d="m500 500h2v2h-2z"/><path d="m450 160h2v2h-2z"/><path d="m450 360h2v2h-2z"/><path d="m450 500h2v2h-2z"/><path d="m550 160h2v2h-2z"/><path d="m550 360h2v2h-2z"/><path d="m550 500h2v2h-2z"/><path d="m400 180h2v2h-2z"/><path d="m600 180h2v2h-2z"/><path d="m400 380h2v2h-2z"/><path d="m400 520h2v2h-2z"/><path d="m600 380h2v2h-2z"/><path d="m600 520h2v2h-2z"/><path d="m500 180h2v2h-2z"/><path d="m500 380h2v2h-2z"/><path d="m500 520h2v2h-2z"/><path d="m450 180h2v2h-2z"/><path d="m450 380h2v2h-2z"/><path d="m450 520h2v2h-2z"/><path d="m550 180h2v2h-2z"/><path d="m550 380h2v2h-2z"/><path d="m550 520h2v2h-2z"/><path d="m400 10h2v2h-2z"/><path d="m600 10h2v2h-2z"/><path d="m400 210h2v2h-2z"/><path d="m600 210h2v2h-2z"/><path d="m500 10h2v2h-2z"/><path d="m500 210h2v2h-2z"/><path d="m450 10h2v2h-2z"/><path d="m450 210h2v2h-2z"/><path d="m550 10h2v2h-2z"/><path d="m550 210h2v2h-2z"/><path d="m400 30h2v2h-2z"/><path d="m600 30h2v2h-2z"/><path d="m400 230h2v2h-2z"/><path d="m600 230h2v2h-2z"/><path d="m500 30h2v2h-2z"/><path d="m500 230h2v2h-2z"/><path d="m450 30h2v2h-2z"/><path d="m450 230h2v2h-2z"/><path d="m550 30h2v2h-2z"/><path d="m550 230h2v2h-2z"/><path d="m400 50h2v2h-2z"/><path d="m600 50h2v2h-2z"/><path d="m400 250h2v2h-2z"/><path d="m600 250h2v2h-2z"/><path d="m500 50h2v2h-2z"/><path d="m500 250h2v2h-2z"/><path d="m450 50h2v2h-2z"/><path d="m450 250h2v2h-2z"/><path d="m550 50h2v2h-2z"/><path d="m550 250h2v2h-2z"/><path d="m400 70h2v2h-2z"/><path d="m600 70h2v2h-2z"/><path d="m400 270h2v2h-2z"/><path d="m400 410h2v2h-2z"/><path d="m600 270h2v2h-2z"/><path d="m600 410h2v2h-2z"/><path d="m500 70h2v2h-2z"/><path d="m500 270h2v2h-2z"/><path d="m500 410h2v2h-2z"/><path d="m450 70h2v2h-2z"/><path d="m450 270h2v2h-2z"/><path d="m450 410h2v2h-2z"/><path d="m550 70h2v2h-2z"/><path d="m550 270h2v2h-2z"/><path d="m550 410h2v2h-2z"/><path d="m400 90h2v2h-2z"/><path d="m600 90h2v2h-2z"/><path d="m400 290h2v2h-2z"/><path d="m400 430h2v2h-2z"/><path d="m600 290h2v2h-2z"/><path d="m600 430h2v2h-2z"/><path d="m500 90h2v2h-2z"/><path d="m500 290h2v2h-2z"/><path d="m500 430h2v2h-2z"/><path d="m450 90h2v2h-2z"/><path d="m450 290h2v2h-2z"/><path d="m450 430h2v2h-2z"/><path d="m550 90h2v2h-2z"/><path d="m550 290h2v2h-2z"/><path d="m550 430h2v2h-2z"/><path d="m400 110h2v2h-2z"/><path d="m600 110h2v2h-2z"/><path d="m400 310h2v2h-2z"/><path d="m400 450h2v2h-2z"/><path d="m600 310h2v2h-2z"/><path d="m600 450h2v2h-2z"/><path d="m500 110h2v2h-2z"/><path d="m500 310h2v2h-2z"/><path d="m500 450h2v2h-2z"/><path d="m450 110h2v2h-2z"/><path d="m450 310h2v2h-2z"/><path d="m450 450h2v2h-2z"/><path d="m550 110h2v2h-2z"/><path d="m550 310h2v2h-2z"/><path d="m550 450h2v2h-2z"/><path d="m400 130h2v2h-2z"/><path d="m600 130h2v2h-2z"/><path d="m400 330h2v2h-2z"/><path d="m400 470h2v2h-2z"/><path d="m600 330h2v2h-2z"/><path d="m600 470h2v2h-2z"/><path d="m500 130h2v2h-2z"/><path d="m500 330h2v2h-2z"/><path d="m500 470h2v2h-2z"/><path d="m450 130h2v2h-2z"/><path d="m450 330h2v2h-2z"/><path d="m450 470h2v2h-2z"/><path d="m550 130h2v2h-2z"/><path d="m550 330h2v2h-2z"/><path d="m550 470h2v2h-2z"/><path d="m400 150h2v2h-2z"/><path d="m600 150h2v2h-2z"/><path d="m400 350h2v2h-2z"/><path d="m400 490h2v2h-2z"/><path d="m600 350h2v2h-2z"/><path d="m600 490h2v2h-2z"/><path d="m500 150h2v2h-2z"/><path d="m500 350h2v2h-2z"/><path d="m500 490h2v2h-2z"/><path d="m450 150h2v2h-2z"/><path d="m450 350h2v2h-2z"/><path d="m450 490h2v2h-2z"/><path d="m550 150h2v2h-2z"/><path d="m550 350h2v2h-2z"/><path d="m550 490h2v2h-2z"/><path d="m400 170h2v2h-2z"/><path d="m600 170h2v2h-2z"/><path d="m400 370h2v2h-2z"/><path d="m400 510h2v2h-2z"/><path d="m600 370h2v2h-2z"/><path d="m600 510h2v2h-2z"/><path d="m500 170h2v2h-2z"/><path d="m500 370h2v2h-2z"/><path d="m500 510h2v2h-2z"/><path d="m450 170h2v2h-2z"/><path d="m450 370h2v2h-2z"/><path d="m450 510h2v2h-2z"/><path d="m550 170h2v2h-2z"/><path d="m550 370h2v2h-2z"/><path d="m550 510h2v2h-2z"/><path d="m400 190h2v2h-2z"/><path d="m600 190h2v2h-2z"/><path d="m400 390h2v2h-2z"/><path d="m400 530h2v2h-2z"/><path d="m600 390h2v2h-2z"/><path d="m600 530h2v2h-2z"/><path d="m500 190h2v2h-2z"/><path d="m500 390h2v2h-2z"/><path d="m500 530h2v2h-2z"/><path d="m450 190h2v2h-2z"/><path d="m450 390h2v2h-2z"/><path d="m450 530h2v2h-2z"/><path d="m550 190h2v2h-2z"/><path d="m550 390h2v2h-2z"/><path d="m550 530h2v2h-2z"/><path d="m410 0h2v2h-2z"/><path d="m610 0h2v2h-2z"/><path d="m410 200h2v2h-2z"/><path d="m610 200h2v2h-2z"/><path d="m510 0h2v2h-2z"/><path d="m510 200h2v2h-2z"/><path d="m460 0h2v2h-2z"/><path d="m460 200h2v2h-2z"/><path d="m560 0h2v2h-2z"/><path d="m560 200h2v2h-2z"/><path d="m410 20h2v2h-2z"/><path d="m610 20h2v2h-2z"/><path d="m410 220h2v2h-2z"/><path d="m610 220h2v2h-2z"/><path d="m510 20h2v2h-2z"/><path d="m510 220h2v2h-2z"/><path d="m460 20h2v2h-2z"/><path d="m460 220h2v2h-2z"/><path d="m560 20h2v2h-2z"/><path d="m560 220h2v2h-2z"/><path d="m410 40h2v2h-2z"/><path d="m610 40h2v2h-2z"/><path d="m410 240h2v2h-2z"/><path d="m610 240h2v2h-2z"/><path d="m510 40h2v2h-2z"/><path d="m510 240h2v2h-2z"/><path d="m460 40h2v2h-2z"/><path d="m460 240h2v2h-2z"/><path d="m560 40h2v2h-2z"/><path d="m560 240h2v2h-2z"/><path d="m410 60h2v2h-2z"/><path d="m610 60h2v2h-2z"/><path d="m410 260h2v2h-2z"/><path d="m410 400h2v2h-2z"/><path d="m610 260h2v2h-2z"/><path d="m610 400h2v2h-2z"/><path d="m510 60h2v2h-2z"/><path d="m510 260h2v2h-2z"/><path d="m510 400h2v2h-2z"/><path d="m460 60h2v2h-2z"/><path d="m460 260h2v2h-2z"/><path d="m460 400h2v2h-2z"/><path d="m560 60h2v2h-2z"/><path d="m560 260h2v2h-2z"/><path d="m560 400h2v2h-2z"/><path d="m410 80h2v2h-2z"/><path d="m610 80h2v2h-2z"/><path d="m410 280h2v2h-2z"/><path d="m410 420h2v2h-2z"/><path d="m610 280h2v2h-2z"/><path d="m610 420h2v2h-2z"/><path d="m510 80h2v2h-2z"/><path d="m510 280h2v2h-2z"/><path d="m510 420h2v2h-2z"/><path d="m460 80h2v2h-2z"/><path d="m460 280h2v2h-2z"/><path d="m460 420h2v2h-2z"/><path d="m560 80h2v2h-2z"/><path d="m560 280h2v2h-2z"/><path d="m560 420h2v2h-2z"/><path d="m410 100h2v2h-2z"/><path d="m610 100h2v2h-2z"/><path d="m410 300h2v2h-2z"/><path d="m410 440h2v2h-2z"/><path d="m610 300h2v2h-2z"/><path d="m610 440h2v2h-2z"/><path d="m510 100h2v2h-2z"/><path d="m510 300h2v2h-2z"/><path d="m510 440h2v2h-2z"/><path d="m460 100h2v2h-2z"/><path d="m460 300h2v2h-2z"/><path d="m460 440h2v2h-2z"/><path d="m560 100h2v2h-2z"/><path d="m560 300h2v2h-2z"/><path d="m560 440h2v2h-2z"/><path d="m410 120h2v2h-2z"/><path d="m610 120h2v2h-2z"/><path d="m410 320h2v2h-2z"/><path d="m410 460h2v2h-2z"/><path d="m610 320h2v2h-2z"/><path d="m610 460h2v2h-2z"/><path d="m510 120h2v2h-2z"/><path d="m510 320h2v2h-2z"/><path d="m510 460h2v2h-2z"/><path d="m460 120h2v2h-2z"/><path d="m460 320h2v2h-2z"/><path d="m460 460h2v2h-2z"/><path d="m560 120h2v2h-2z"/><path d="m560 320h2v2h-2z"/><path d="m560 460h2v2h-2z"/><path d="m410 140h2v2h-2z"/><path d="m610 140h2v2h-2z"/><path d="m410 340h2v2h-2z"/><path d="m410 480h2v2h-2z"/><path d="m610 340h2v2h-2z"/><path d="m610 480h2v2h-2z"/><path d="m510 140h2v2h-2z"/><path d="m510 340h2v2h-2z"/><path d="m510 480h2v2h-2z"/><path d="m460 140h2v2h-2z"/><path d="m460 340h2v2h-2z"/><path d="m460 480h2v2h-2z"/><path d="m560 140h2v2h-2z"/><path d="m560 340h2v2h-2z"/><path d="m560 480h2v2h-2z"/><path d="m410 160h2v2h-2z"/><path d="m610 160h2v2h-2z"/><path d="m410 360h2v2h-2z"/><path d="m410 500h2v2h-2z"/><path d="m610 360h2v2h-2z"/><path d="m610 500h2v2h-2z"/><path d="m510 160h2v2h-2z"/><path d="m510 360h2v2h-2z"/><path d="m510 500h2v2h-2z"/><path d="m460 160h2v2h-2z"/><path d="m460 360h2v2h-2z"/><path d="m460 500h2v2h-2z"/><path d="m560 160h2v2h-2z"/><path d="m560 360h2v2h-2z"/><path d="m560 500h2v2h-2z"/><path d="m410 180h2v2h-2z"/><path d="m610 180h2v2h-2z"/><path d="m410 380h2v2h-2z"/><path d="m410 520h2v2h-2z"/><path d="m610 380h2v2h-2z"/><path d="m610 520h2v2h-2z"/><path d="m510 180h2v2h-2z"/><path d="m510 380h2v2h-2z"/><path d="m510 520h2v2h-2z"/><path d="m460 180h2v2h-2z"/><path d="m460 380h2v2h-2z"/><path d="m460 520h2v2h-2z"/><path d="m560 180h2v2h-2z"/><path d="m560 380h2v2h-2z"/><path d="m560 520h2v2h-2z"/><path d="m410 10h2v2h-2z"/><path d="m610 10h2v2h-2z"/><path d="m410 210h2v2h-2z"/><path d="m610 210h2v2h-2z"/><path d="m510 10h2v2h-2z"/><path d="m510 210h2v2h-2z"/><path d="m460 10h2v2h-2z"/><path d="m460 210h2v2h-2z"/><path d="m560 10h2v2h-2z"/><path d="m560 210h2v2h-2z"/><path d="m410 30h2v2h-2z"/><path d="m610 30h2v2h-2z"/><path d="m410 230h2v2h-2z"/><path d="m610 230h2v2h-2z"/><path d="m510 30h2v2h-2z"/><path d="m510 230h2v2h-2z"/><path d="m460 30h2v2h-2z"/><path d="m460 230h2v2h-2z"/><path d="m560 30h2v2h-2z"/><path d="m560 230h2v2h-2z"/><path d="m410 50h2v2h-2z"/><path d="m610 50h2v2h-2z"/><path d="m410 250h2v2h-2z"/><path d="m610 250h2v2h-2z"/><path d="m510 50h2v2h-2z"/><path d="m510 250h2v2h-2z"/><path d="m460 50h2v2h-2z"/><path d="m460 250h2v2h-2z"/><path d="m560 50h2v2h-2z"/><path d="m560 250h2v2h-2z"/><path d="m410 70h2v2h-2z"/><path d="m610 70h2v2h-2z"/><path d="m410 270h2v2h-2z"/><path d="m410 410h2v2h-2z"/><path d="m610 270h2v2h-2z"/><path d="m610 410h2v2h-2z"/><path d="m510 70h2v2h-2z"/><path d="m510 270h2v2h-2z"/><path d="m510 410h2v2h-2z"/><path d="m460 70h2v2h-2z"/><path d="m460 270h2v2h-2z"/><path d="m460 410h2v2h-2z"/><path d="m560 70h2v2h-2z"/><path d="m560 270h2v2h-2z"/><path d="m560 410h2v2h-2z"/><path d="m410 90h2v2h-2z"/><path d="m610 90h2v2h-2z"/><path d="m410 290h2v2h-2z"/><path d="m410 430h2v2h-2z"/><path d="m610 290h2v2h-2z"/><path d="m610 430h2v2h-2z"/><path d="m510 90h2v2h-2z"/><path d="m510 290h2v2h-2z"/><path d="m510 430h2v2h-2z"/><path d="m460 90h2v2h-2z"/><path d="m460 290h2v2h-2z"/><path d="m460 430h2v2h-2z"/><path d="m560 90h2v2h-2z"/><path d="m560 290h2v2h-2z"/><path d="m560 430h2v2h-2z"/><path d="m410 110h2v2h-2z"/><path d="m610 110h2v2h-2z"/><path d="m410 310h2v2h-2z"/><path d="m410 450h2v2h-2z"/><path d="m610 310h2v2h-2z"/><path d="m610 450h2v2h-2z"/><path d="m510 110h2v2h-2z"/><path d="m510 310h2v2h-2z"/><path d="m510 450h2v2h-2z"/><path d="m460 110h2v2h-2z"/><path d="m460 310h2v2h-2z"/><path d="m460 450h2v2h-2z"/><path d="m560 110h2v2h-2z"/><path d="m560 310h2v2h-2z"/><path d="m560 450h2v2h-2z"/><path d="m410 130h2v2h-2z"/><path d="m610 130h2v2h-2z"/><path d="m410 330h2v2h-2z"/><path d="m410 470h2v2h-2z"/><path d="m610 330h2v2h-2z"/><path d="m610 470h2v2h-2z"/><path d="m510 130h2v2h-2z"/><path d="m510 330h2v2h-2z"/><path d="m510 470h2v2h-2z"/><path d="m460 130h2v2h-2z"/><path d="m460 330h2v2h-2z"/><path d="m460 470h2v2h-2z"/><path d="m560 130h2v2h-2z"/><path d="m560 330h2v2h-2z"/><path d="m560 470h2v2h-2z"/><path d="m410 150h2v2h-2z"/><path d="m610 150h2v2h-2z"/><path d="m410 350h2v2h-2z"/><path d="m410 490h2v2h-2z"/><path d="m610 350h2v2h-2z"/><path d="m610 490h2v2h-2z"/><path d="m510 150h2v2h-2z"/><path d="m510 350h2v2h-2z"/><path d="m510 490h2v2h-2z"/><path d="m460 150h2v2h-2z"/><path d="m460 350h2v2h-2z"/><path d="m460 490h2v2h-2z"/><path d="m560 150h2v2h-2z"/><path d="m560 350h2v2h-2z"/><path d="m560 490h2v2h-2z"/><path d="m410 170h2v2h-2z"/><path d="m610 170h2v2h-2z"/><path d="m410 370h2v2h-2z"/><path d="m410 510h2v2h-2z"/><path d="m610 370h2v2h-2z"/><path d="m610 510h2v2h-2z"/><path d="m510 170h2v2h-2z"/><path d="m510 370h2v2h-2z"/><path d="m510 510h2v2h-2z"/><path d="m460 170h2v2h-2z"/><path d="m460 370h2v2h-2z"/><path d="m460 510h2v2h-2z"/><path d="m560 170h2v2h-2z"/><path d="m560 370h2v2h-2z"/><path d="m560 510h2v2h-2z"/><path d="m410 190h2v2h-2z"/><path d="m610 190h2v2h-2z"/><path d="m410 390h2v2h-2z"/><path d="m410 530h2v2h-2z"/><path d="m610 390h2v2h-2z"/><path d="m610 530h2v2h-2z"/><path d="m510 190h2v2h-2z"/><path d="m510 390h2v2h-2z"/><path d="m510 530h2v2h-2z"/><path d="m460 190h2v2h-2z"/><path d="m460 390h2v2h-2z"/><path d="m460 530h2v2h-2z"/><path d="m560 190h2v2h-2z"/><path d="m560 390h2v2h-2z"/><path d="m560 530h2v2h-2z"/><path d="m420 0h2v2h-2z"/><path d="m620 0h2v2h-2z"/><path d="m420 200h2v2h-2z"/><path d="m620 200h2v2h-2z"/><path d="m520 0h2v2h-2z"/><path d="m520 200h2v2h-2z"/><path d="m470 0h2v2h-2z"/><path d="m470 200h2v2h-2z"/><path d="m570 0h2v2h-2z"/><path d="m570 200h2v2h-2z"/><path d="m420 20h2v2h-2z"/><path d="m620 20h2v2h-2z"/><path d="m420 220h2v2h-2z"/><path d="m620 220h2v2h-2z"/><path d="m520 20h2v2h-2z"/><path d="m520 220h2v2h-2z"/><path d="m470 20h2v2h-2z"/><path d="m470 220h2v2h-2z"/><path d="m570 20h2v2h-2z"/><path d="m570 220h2v2h-2z"/><path d="m420 40h2v2h-2z"/><path d="m620 40h2v2h-2z"/><path d="m420 240h2v2h-2z"/><path d="m620 240h2v2h-2z"/><path d="m520 40h2v2h-2z"/><path d="m520 240h2v2h-2z"/><path d="m470 40h2v2h-2z"/><path d="m470 240h2v2h-2z"/><path d="m570 40h2v2h-2z"/><path d="m570 240h2v2h-2z"/><path d="m420 60h2v2h-2z"/><path d="m620 60h2v2h-2z"/><path d="m420 260h2v2h-2z"/><path d="m420 400h2v2h-2z"/><path d="m620 260h2v2h-2z"/><path d="m620 400h2v2h-2z"/><path d="m520 60h2v2h-2z"/><path d="m520 260h2v2h-2z"/><path d="m520 400h2v2h-2z"/><path d="m470 60h2v2h-2z"/><path d="m470 260h2v2h-2z"/><path d="m470 400h2v2h-2z"/><path d="m570 60h2v2h-2z"/><path d="m570 260h2v2h-2z"/><path d="m570 400h2v2h-2z"/><path d="m420 80h2v2h-2z"/><path d="m620 80h2v2h-2z"/><path d="m420 280h2v2h-2z"/><path d="m420 420h2v2h-2z"/><path d="m620 280h2v2h-2z"/><path d="m620 420h2v2h-2z"/><path d="m520 80h2v2h-2z"/><path d="m520 280h2v2h-2z"/><path d="m520 420h2v2h-2z"/><path d="m470 80h2v2h-2z"/><path d="m470 280h2v2h-2z"/><path d="m470 420h2v2h-2z"/><path d="m570 80h2v2h-2z"/><path d="m570 280h2v2h-2z"/><path d="m570 420h2v2h-2z"/><path d="m420 100h2v2h-2z"/><path d="m620 100h2v2h-2z"/><path d="m420 300h2v2h-2z"/><path d="m420 440h2v2h-2z"/><path d="m620 300h2v2h-2z"/><path d="m620 440h2v2h-2z"/><path d="m520 100h2v2h-2z"/><path d="m520 300h2v2h-2z"/><path d="m520 440h2v2h-2z"/><path d="m470 100h2v2h-2z"/><path d="m470 300h2v2h-2z"/><path d="m470 440h2v2h-2z"/><path d="m570 100h2v2h-2z"/><path d="m570 300h2v2h-2z"/><path d="m570 440h2v2h-2z"/><path d="m420 120h2v2h-2z"/><path d="m620 120h2v2h-2z"/><path d="m420 320h2v2h-2z"/><path d="m420 460h2v2h-2z"/><path d="m620 320h2v2h-2z"/><path d="m620 460h2v2h-2z"/><path d="m520 120h2v2h-2z"/><path d="m520 320h2v2h-2z"/><path d="m520 460h2v2h-2z"/><path d="m470 120h2v2h-2z"/><path d="m470 320h2v2h-2z"/><path d="m470 460h2v2h-2z"/><path d="m570 120h2v2h-2z"/><path d="m570 320h2v2h-2z"/><path d="m570 460h2v2h-2z"/><path d="m420 140h2v2h-2z"/><path d="m620 140h2v2h-2z"/><path d="m420 340h2v2h-2z"/><path d="m420 480h2v2h-2z"/><path d="m620 340h2v2h-2z"/><path d="m620 480h2v2h-2z"/><path d="m520 140h2v2h-2z"/><path d="m520 340h2v2h-2z"/><path d="m520 480h2v2h-2z"/><path d="m470 140h2v2h-2z"/><path d="m470 340h2v2h-2z"/><path d="m470 480h2v2h-2z"/><path d="m570 140h2v2h-2z"/><path d="m570 340h2v2h-2z"/><path d="m570 480h2v2h-2z"/><path d="m420 160h2v2h-2z"/><path d="m620 160h2v2h-2z"/><path d="m420 360h2v2h-2z"/><path d="m420 500h2v2h-2z"/><path d="m620 360h2v2h-2z"/><path d="m620 500h2v2h-2z"/><path d="m520 160h2v2h-2z"/><path d="m520 360h2v2h-2z"/><path d="m520 500h2v2h-2z"/><path d="m470 160h2v2h-2z"/><path d="m470 360h2v2h-2z"/><path d="m470 500h2v2h-2z"/><path d="m570 160h2v2h-2z"/><path d="m570 360h2v2h-2z"/><path d="m570 500h2v2h-2z"/><path d="m420 180h2v2h-2z"/><path d="m620 180h2v2h-2z"/><path d="m420 380h2v2h-2z"/><path d="m420 520h2v2h-2z"/><path d="m620 380h2v2h-2z"/><path d="m620 520h2v2h-2z"/><path d="m520 180h2v2h-2z"/><path d="m520 380h2v2h-2z"/><path d="m520 520h2v2h-2z"/><path d="m470 180h2v2h-2z"/><path d="m470 380h2v2h-2z"/><path d="m470 520h2v2h-2z"/><path d="m570 180h2v2h-2z"/><path d="m570 380h2v2h-2z"/><path d="m570 520h2v2h-2z"/><path d="m420 10h2v2h-2z"/><path d="m620 10h2v2h-2z"/><path d="m420 210h2v2h-2z"/><path d="m620 210h2v2h-2z"/><path d="m520 10h2v2h-2z"/><path d="m520 210h2v2h-2z"/><path d="m470 10h2v2h-2z"/><path d="m470 210h2v2h-2z"/><path d="m570 10h2v2h-2z"/><path d="m570 210h2v2h-2z"/><path d="m420 30h2v2h-2z"/><path d="m620 30h2v2h-2z"/><path d="m420 230h2v2h-2z"/><path d="m620 230h2v2h-2z"/><path d="m520 30h2v2h-2z"/><path d="m520 230h2v2h-2z"/><path d="m470 30h2v2h-2z"/><path d="m470 230h2v2h-2z"/><path d="m570 30h2v2h-2z"/><path d="m570 230h2v2h-2z"/><path d="m420 50h2v2h-2z"/><path d="m620 50h2v2h-2z"/><path d="m420 250h2v2h-2z"/><path d="m620 250h2v2h-2z"/><path d="m520 50h2v2h-2z"/><path d="m520 250h2v2h-2z"/><path d="m470 50h2v2h-2z"/><path d="m470 250h2v2h-2z"/><path d="m570 50h2v2h-2z"/><path d="m570 250h2v2h-2z"/><path d="m420 70h2v2h-2z"/><path d="m620 70h2v2h-2z"/><path d="m420 270h2v2h-2z"/><path d="m420 410h2v2h-2z"/><path d="m620 270h2v2h-2z"/><path d="m620 410h2v2h-2z"/><path d="m520 70h2v2h-2z"/><path d="m520 270h2v2h-2z"/><path d="m520 410h2v2h-2z"/><path d="m470 70h2v2h-2z"/><path d="m470 270h2v2h-2z"/><path d="m470 410h2v2h-2z"/><path d="m570 70h2v2h-2z"/><path d="m570 270h2v2h-2z"/><path d="m570 410h2v2h-2z"/><path d="m420 90h2v2h-2z"/><path d="m620 90h2v2h-2z"/><path d="m420 290h2v2h-2z"/><path d="m420 430h2v2h-2z"/><path d="m620 290h2v2h-2z"/><path d="m620 430h2v2h-2z"/><path d="m520 90h2v2h-2z"/><path d="m520 290h2v2h-2z"/><path d="m520 430h2v2h-2z"/><path d="m470 90h2v2h-2z"/><path d="m470 290h2v2h-2z"/><path d="m470 430h2v2h-2z"/><path d="m570 90h2v2h-2z"/><path d="m570 290h2v2h-2z"/><path d="m570 430h2v2h-2z"/><path d="m420 110h2v2h-2z"/><path d="m620 110h2v2h-2z"/><path d="m420 310h2v2h-2z"/><path d="m420 450h2v2h-2z"/><path d="m620 310h2v2h-2z"/><path d="m620 450h2v2h-2z"/><path d="m520 110h2v2h-2z"/><path d="m520 310h2v2h-2z"/><path d="m520 450h2v2h-2z"/><path d="m470 110h2v2h-2z"/><path d="m470 310h2v2h-2z"/><path d="m470 450h2v2h-2z"/><path d="m570 110h2v2h-2z"/><path d="m570 310h2v2h-2z"/><path d="m570 450h2v2h-2z"/><path d="m420 130h2v2h-2z"/><path d="m620 130h2v2h-2z"/><path d="m420 330h2v2h-2z"/><path d="m420 470h2v2h-2z"/><path d="m620 330h2v2h-2z"/><path d="m620 470h2v2h-2z"/><path d="m520 130h2v2h-2z"/><path d="m520 330h2v2h-2z"/><path d="m520 470h2v2h-2z"/><path d="m470 130h2v2h-2z"/><path d="m470 330h2v2h-2z"/><path d="m470 470h2v2h-2z"/><path d="m570 130h2v2h-2z"/><path d="m570 330h2v2h-2z"/><path d="m570 470h2v2h-2z"/><path d="m420 150h2v2h-2z"/><path d="m620 150h2v2h-2z"/><path d="m420 350h2v2h-2z"/><path d="m420 490h2v2h-2z"/><path d="m620 350h2v2h-2z"/><path d="m620 490h2v2h-2z"/><path d="m520 150h2v2h-2z"/><path d="m520 350h2v2h-2z"/><path d="m520 490h2v2h-2z"/><path d="m470 150h2v2h-2z"/><path d="m470 350h2v2h-2z"/><path d="m470 490h2v2h-2z"/><path d="m570 150h2v2h-2z"/><path d="m570 350h2v2h-2z"/><path d="m570 490h2v2h-2z"/><path d="m420 170h2v2h-2z"/><path d="m620 170h2v2h-2z"/><path d="m420 370h2v2h-2z"/><path d="m420 510h2v2h-2z"/><path d="m620 370h2v2h-2z"/><path d="m620 510h2v2h-2z"/><path d="m520 170h2v2h-2z"/><path d="m520 370h2v2h-2z"/><path d="m520 510h2v2h-2z"/><path d="m470 170h2v2h-2z"/><path d="m470 370h2v2h-2z"/><path d="m470 510h2v2h-2z"/><path d="m570 170h2v2h-2z"/><path d="m570 370h2v2h-2z"/><path d="m570 510h2v2h-2z"/><path d="m420 190h2v2h-2z"/><path d="m620 190h2v2h-2z"/><path d="m420 390h2v2h-2z"/><path d="m420 530h2v2h-2z"/><path d="m620 390h2v2h-2z"/><path d="m620 530h2v2h-2z"/><path d="m520 190h2v2h-2z"/><path d="m520 390h2v2h-2z"/><path d="m520 530h2v2h-2z"/><path d="m470 190h2v2h-2z"/><path d="m470 390h2v2h-2z"/><path d="m470 530h2v2h-2z"/><path d="m570 190h2v2h-2z"/><path d="m570 390h2v2h-2z"/><path d="m570 530h2v2h-2z"/><path d="m430 0h2v2h-2z"/><path d="m430 200h2v2h-2z"/><path d="m530 0h2v2h-2z"/><path d="m530 200h2v2h-2z"/><path d="m480 0h2v2h-2z"/><path d="m480 200h2v2h-2z"/><path d="m580 0h2v2h-2z"/><path d="m580 200h2v2h-2z"/><path d="m430 20h2v2h-2z"/><path d="m430 220h2v2h-2z"/><path d="m530 20h2v2h-2z"/><path d="m530 220h2v2h-2z"/><path d="m480 20h2v2h-2z"/><path d="m480 220h2v2h-2z"/><path d="m580 20h2v2h-2z"/><path d="m580 220h2v2h-2z"/><path d="m430 40h2v2h-2z"/><path d="m430 240h2v2h-2z"/><path d="m530 40h2v2h-2z"/><path d="m530 240h2v2h-2z"/><path d="m480 40h2v2h-2z"/><path d="m480 240h2v2h-2z"/><path d="m580 40h2v2h-2z"/><path d="m580 240h2v2h-2z"/><path d="m430 60h2v2h-2z"/><path d="m430 260h2v2h-2z"/><path d="m430 400h2v2h-2z"/><path d="m530 60h2v2h-2z"/><path d="m530 260h2v2h-2z"/><path d="m530 400h2v2h-2z"/><path d="m480 60h2v2h-2z"/><path d="m480 260h2v2h-2z"/><path d="m480 400h2v2h-2z"/><path d="m580 60h2v2h-2z"/><path d="m580 260h2v2h-2z"/><path d="m580 400h2v2h-2z"/><path d="m430 80h2v2h-2z"/><path d="m430 280h2v2h-2z"/><path d="m430 420h2v2h-2z"/><path d="m530 80h2v2h-2z"/><path d="m530 280h2v2h-2z"/><path d="m530 420h2v2h-2z"/><path d="m480 80h2v2h-2z"/><path d="m480 280h2v2h-2z"/><path d="m480 420h2v2h-2z"/><path d="m580 80h2v2h-2z"/><path d="m580 280h2v2h-2z"/><path d="m580 420h2v2h-2z"/><path d="m430 100h2v2h-2z"/><path d="m430 300h2v2h-2z"/><path d="m430 440h2v2h-2z"/><path d="m530 100h2v2h-2z"/><path d="m530 300h2v2h-2z"/><path d="m530 440h2v2h-2z"/><path d="m480 100h2v2h-2z"/><path d="m480 300h2v2h-2z"/><path d="m480 440h2v2h-2z"/><path d="m580 100h2v2h-2z"/><path d="m580 300h2v2h-2z"/><path d="m580 440h2v2h-2z"/><path d="m430 120h2v2h-2z"/><path d="m430 320h2v2h-2z"/><path d="m430 460h2v2h-2z"/><path d="m530 120h2v2h-2z"/><path d="m530 320h2v2h-2z"/><path d="m530 460h2v2h-2z"/><path d="m480 120h2v2h-2z"/><path d="m480 320h2v2h-2z"/><path d="m480 460h2v2h-2z"/><path d="m580 120h2v2h-2z"/><path d="m580 320h2v2h-2z"/><path d="m580 460h2v2h-2z"/><path d="m430 140h2v2h-2z"/><path d="m430 340h2v2h-2z"/><path d="m430 480h2v2h-2z"/><path d="m530 140h2v2h-2z"/><path d="m530 340h2v2h-2z"/><path d="m530 480h2v2h-2z"/><path d="m480 140h2v2h-2z"/><path d="m480 340h2v2h-2z"/><path d="m480 480h2v2h-2z"/><path d="m580 140h2v2h-2z"/><path d="m580 340h2v2h-2z"/><path d="m580 480h2v2h-2z"/><path d="m430 160h2v2h-2z"/><path d="m430 360h2v2h-2z"/><path d="m430 500h2v2h-2z"/><path d="m530 160h2v2h-2z"/><path d="m530 360h2v2h-2z"/><path d="m530 500h2v2h-2z"/><path d="m480 160h2v2h-2z"/><path d="m480 360h2v2h-2z"/><path d="m480 500h2v2h-2z"/><path d="m580 160h2v2h-2z"/><path d="m580 360h2v2h-2z"/><path d="m580 500h2v2h-2z"/><path d="m430 180h2v2h-2z"/><path d="m430 380h2v2h-2z"/><path d="m430 520h2v2h-2z"/><path d="m530 180h2v2h-2z"/><path d="m530 380h2v2h-2z"/><path d="m530 520h2v2h-2z"/><path d="m480 180h2v2h-2z"/><path d="m480 380h2v2h-2z"/><path d="m480 520h2v2h-2z"/><path d="m580 180h2v2h-2z"/><path d="m580 380h2v2h-2z"/><path d="m580 520h2v2h-2z"/><path d="m430 10h2v2h-2z"/><path d="m430 210h2v2h-2z"/><path d="m530 10h2v2h-2z"/><path d="m530 210h2v2h-2z"/><path d="m480 10h2v2h-2z"/><path d="m480 210h2v2h-2z"/><path d="m580 10h2v2h-2z"/><path d="m580 210h2v2h-2z"/><path d="m430 30h2v2h-2z"/><path d="m430 230h2v2h-2z"/><path d="m530 30h2v2h-2z"/><path d="m530 230h2v2h-2z"/><path d="m480 30h2v2h-2z"/><path d="m480 230h2v2h-2z"/><path d="m580 30h2v2h-2z"/><path d="m580 230h2v2h-2z"/><path d="m430 50h2v2h-2z"/><path d="m430 250h2v2h-2z"/><path d="m530 50h2v2h-2z"/><path d="m530 250h2v2h-2z"/><path d="m480 50h2v2h-2z"/><path d="m480 250h2v2h-2z"/><path d="m580 50h2v2h-2z"/><path d="m580 250h2v2h-2z"/><path d="m430 70h2v2h-2z"/><path d="m430 270h2v2h-2z"/><path d="m430 410h2v2h-2z"/><path d="m530 70h2v2h-2z"/><path d="m530 270h2v2h-2z"/><path d="m530 410h2v2h-2z"/><path d="m480 70h2v2h-2z"/><path d="m480 270h2v2h-2z"/><path d="m480 410h2v2h-2z"/><path d="m580 70h2v2h-2z"/><path d="m580 270h2v2h-2z"/><path d="m580 410h2v2h-2z"/><path d="m430 90h2v2h-2z"/><path d="m430 290h2v2h-2z"/><path d="m430 430h2v2h-2z"/><path d="m530 90h2v2h-2z"/><path d="m530 290h2v2h-2z"/><path d="m530 430h2v2h-2z"/><path d="m480 90h2v2h-2z"/><path d="m480 290h2v2h-2z"/><path d="m480 430h2v2h-2z"/><path d="m580 90h2v2h-2z"/><path d="m580 290h2v2h-2z"/><path d="m580 430h2v2h-2z"/><path d="m430 110h2v2h-2z"/><path d="m430 310h2v2h-2z"/><path d="m430 450h2v2h-2z"/><path d="m530 110h2v2h-2z"/><path d="m530 310h2v2h-2z"/><path d="m530 450h2v2h-2z"/><path d="m480 110h2v2h-2z"/><path d="m480 310h2v2h-2z"/><path d="m480 450h2v2h-2z"/><path d="m580 110h2v2h-2z"/><path d="m580 310h2v2h-2z"/><path d="m580 450h2v2h-2z"/><path d="m430 130h2v2h-2z"/><path d="m430 330h2v2h-2z"/><path d="m430 470h2v2h-2z"/><path d="m530 130h2v2h-2z"/><path d="m530 330h2v2h-2z"/><path d="m530 470h2v2h-2z"/><path d="m480 130h2v2h-2z"/><path d="m480 330h2v2h-2z"/><path d="m480 470h2v2h-2z"/><path d="m580 130h2v2h-2z"/><path d="m580 330h2v2h-2z"/><path d="m580 470h2v2h-2z"/><path d="m430 150h2v2h-2z"/><path d="m430 350h2v2h-2z"/><path d="m430 490h2v2h-2z"/><path d="m530 150h2v2h-2z"/><path d="m530 350h2v2h-2z"/><path d="m530 490h2v2h-2z"/><path d="m480 150h2v2h-2z"/><path d="m480 350h2v2h-2z"/><path d="m480 490h2v2h-2z"/><path d="m580 150h2v2h-2z"/><path d="m580 350h2v2h-2z"/><path d="m580 490h2v2h-2z"/><path d="m430 170h2v2h-2z"/><path d="m430 370h2v2h-2z"/><path d="m430 510h2v2h-2z"/><path d="m530 170h2v2h-2z"/><path d="m530 370h2v2h-2z"/><path d="m530 510h2v2h-2z"/><path d="m480 170h2v2h-2z"/><path d="m480 370h2v2h-2z"/><path d="m480 510h2v2h-2z"/><path d="m580 170h2v2h-2z"/><path d="m580 370h2v2h-2z"/><path d="m580 510h2v2h-2z"/><path d="m430 190h2v2h-2z"/><path d="m430 390h2v2h-2z"/><path d="m430 530h2v2h-2z"/><path d="m530 190h2v2h-2z"/><path d="m530 390h2v2h-2z"/><path d="m530 530h2v2h-2z"/><path d="m480 190h2v2h-2z"/><path d="m480 390h2v2h-2z"/><path d="m480 530h2v2h-2z"/><path d="m580 190h2v2h-2z"/><path d="m580 390h2v2h-2z"/><path d="m580 530h2v2h-2z"/><path d="m440 0h2v2h-2z"/><path d="m440 200h2v2h-2z"/><path d="m540 0h2v2h-2z"/><path d="m540 200h2v2h-2z"/><path d="m490 0h2v2h-2z"/><path d="m490 200h2v2h-2z"/><path d="m590 0h2v2h-2z"/><path d="m590 200h2v2h-2z"/><path d="m440 20h2v2h-2z"/><path d="m440 220h2v2h-2z"/><path d="m540 20h2v2h-2z"/><path d="m540 220h2v2h-2z"/><path d="m490 20h2v2h-2z"/><path d="m490 220h2v2h-2z"/><path d="m590 20h2v2h-2z"/><path d="m590 220h2v2h-2z"/><path d="m440 40h2v2h-2z"/><path d="m440 240h2v2h-2z"/><path d="m540 40h2v2h-2z"/><path d="m540 240h2v2h-2z"/><path d="m490 40h2v2h-2z"/><path d="m490 240h2v2h-2z"/><path d="m590 40h2v2h-2z"/><path d="m590 240h2v2h-2z"/><path d="m440 60h2v2h-2z"/><path d="m440 260h2v2h-2z"/><path d="m440 400h2v2h-2z"/><path d="m540 60h2v2h-2z"/><path d="m540 260h2v2h-2z"/><path d="m540 400h2v2h-2z"/><path d="m490 60h2v2h-2z"/><path d="m490 260h2v2h-2z"/><path d="m490 400h2v2h-2z"/><path d="m590 60h2v2h-2z"/><path d="m590 260h2v2h-2z"/><path d="m590 400h2v2h-2z"/><path d="m440 80h2v2h-2z"/><path d="m440 280h2v2h-2z"/><path d="m440 420h2v2h-2z"/><path d="m540 80h2v2h-2z"/><path d="m540 280h2v2h-2z"/><path d="m540 420h2v2h-2z"/><path d="m490 80h2v2h-2z"/><path d="m490 280h2v2h-2z"/><path d="m490 420h2v2h-2z"/><path d="m590 80h2v2h-2z"/><path d="m590 280h2v2h-2z"/><path d="m590 420h2v2h-2z"/><path d="m440 100h2v2h-2z"/><path d="m440 300h2v2h-2z"/><path d="m440 440h2v2h-2z"/><path d="m540 100h2v2h-2z"/><path d="m540 300h2v2h-2z"/><path d="m540 440h2v2h-2z"/><path d="m490 100h2v2h-2z"/><path d="m490 300h2v2h-2z"/><path d="m490 440h2v2h-2z"/><path d="m590 100h2v2h-2z"/><path d="m590 300h2v2h-2z"/><path d="m590 440h2v2h-2z"/><path d="m440 120h2v2h-2z"/><path d="m440 320h2v2h-2z"/><path d="m440 460h2v2h-2z"/><path d="m540 120h2v2h-2z"/><path d="m540 320h2v2h-2z"/><path d="m540 460h2v2h-2z"/><path d="m490 120h2v2h-2z"/><path d="m490 320h2v2h-2z"/><path d="m490 460h2v2h-2z"/><path d="m590 120h2v2h-2z"/><path d="m590 320h2v2h-2z"/><path d="m590 460h2v2h-2z"/><path d="m440 140h2v2h-2z"/><path d="m440 340h2v2h-2z"/><path d="m440 480h2v2h-2z"/><path d="m540 140h2v2h-2z"/><path d="m540 340h2v2h-2z"/><path d="m540 480h2v2h-2z"/><path d="m490 140h2v2h-2z"/><path d="m490 340h2v2h-2z"/><path d="m490 480h2v2h-2z"/><path d="m590 140h2v2h-2z"/><path d="m590 340h2v2h-2z"/><path d="m590 480h2v2h-2z"/><path d="m440 160h2v2h-2z"/><path d="m440 360h2v2h-2z"/><path d="m440 500h2v2h-2z"/><path d="m540 160h2v2h-2z"/><path d="m540 360h2v2h-2z"/><path d="m540 500h2v2h-2z"/><path d="m490 160h2v2h-2z"/><path d="m490 360h2v2h-2z"/><path d="m490 500h2v2h-2z"/><path d="m590 160h2v2h-2z"/><path d="m590 360h2v2h-2z"/><path d="m590 500h2v2h-2z"/><path d="m440 180h2v2h-2z"/><path d="m440 380h2v2h-2z"/><path d="m440 520h2v2h-2z"/><path d="m540 180h2v2h-2z"/><path d="m540 380h2v2h-2z"/><path d="m540 520h2v2h-2z"/><path d="m490 180h2v2h-2z"/><path d="m490 380h2v2h-2z"/><path d="m490 520h2v2h-2z"/><path d="m590 180h2v2h-2z"/><path d="m590 380h2v2h-2z"/><path d="m590 520h2v2h-2z"/><path d="m440 10h2v2h-2z"/><path d="m440 210h2v2h-2z"/><path d="m540 10h2v2h-2z"/><path d="m540 210h2v2h-2z"/><path d="m490 10h2v2h-2z"/><path d="m490 210h2v2h-2z"/><path d="m590 10h2v2h-2z"/><path d="m590 210h2v2h-2z"/><path d="m440 30h2v2h-2z"/><path d="m440 230h2v2h-2z"/><path d="m540 30h2v2h-2z"/><path d="m540 230h2v2h-2z"/><path d="m490 30h2v2h-2z"/><path d="m490 230h2v2h-2z"/><path d="m590 30h2v2h-2z"/><path d="m590 230h2v2h-2z"/><path d="m440 50h2v2h-2z"/><path d="m440 250h2v2h-2z"/><path d="m540 50h2v2h-2z"/><path d="m540 250h2v2h-2z"/><path d="m490 50h2v2h-2z"/><path d="m490 250h2v2h-2z"/><path d="m590 50h2v2h-2z"/><path d="m590 250h2v2h-2z"/><path d="m440 70h2v2h-2z"/><path d="m440 270h2v2h-2z"/><path d="m440 410h2v2h-2z"/><path d="m540 70h2v2h-2z"/><path d="m540 270h2v2h-2z"/><path d="m540 410h2v2h-2z"/><path d="m490 70h2v2h-2z"/><path d="m490 270h2v2h-2z"/><path d="m490 410h2v2h-2z"/><path d="m590 70h2v2h-2z"/><path d="m590 270h2v2h-2z"/><path d="m590 410h2v2h-2z"/><path d="m440 90h2v2h-2z"/><path d="m440 290h2v2h-2z"/><path d="m440 430h2v2h-2z"/><path d="m540 90h2v2h-2z"/><path d="m540 290h2v2h-2z"/><path d="m540 430h2v2h-2z"/><path d="m490 90h2v2h-2z"/><path d="m490 290h2v2h-2z"/><path d="m490 430h2v2h-2z"/><path d="m590 90h2v2h-2z"/><path d="m590 290h2v2h-2z"/><path d="m590 430h2v2h-2z"/><path d="m440 110h2v2h-2z"/><path d="m440 310h2v2h-2z"/><path d="m440 450h2v2h-2z"/><path d="m540 110h2v2h-2z"/><path d="m540 310h2v2h-2z"/><path d="m540 450h2v2h-2z"/><path d="m490 110h2v2h-2z"/><path d="m490 310h2v2h-2z"/><path d="m490 450h2v2h-2z"/><path d="m590 110h2v2h-2z"/><path d="m590 310h2v2h-2z"/><path d="m590 450h2v2h-2z"/><path d="m440 130h2v2h-2z"/><path d="m440 330h2v2h-2z"/><path d="m440 470h2v2h-2z"/><path d="m540 130h2v2h-2z"/><path d="m540 330h2v2h-2z"/><path d="m540 470h2v2h-2z"/><path d="m490 130h2v2h-2z"/><path d="m490 330h2v2h-2z"/><path d="m490 470h2v2h-2z"/><path d="m590 130h2v2h-2z"/><path d="m590 330h2v2h-2z"/><path d="m590 470h2v2h-2z"/><path d="m440 150h2v2h-2z"/><path d="m440 350h2v2h-2z"/><path d="m440 490h2v2h-2z"/><path d="m540 150h2v2h-2z"/><path d="m540 350h2v2h-2z"/><path d="m540 490h2v2h-2z"/><path d="m490 150h2v2h-2z"/><path d="m490 350h2v2h-2z"/><path d="m490 490h2v2h-2z"/><path d="m590 150h2v2h-2z"/><path d="m590 350h2v2h-2z"/><path d="m590 490h2v2h-2z"/><path d="m440 170h2v2h-2z"/><path d="m440 370h2v2h-2z"/><path d="m440 510h2v2h-2z"/><path d="m540 170h2v2h-2z"/><path d="m540 370h2v2h-2z"/><path d="m540 510h2v2h-2z"/><path d="m490 170h2v2h-2z"/><path d="m490 370h2v2h-2z"/><path d="m490 510h2v2h-2z"/><path d="m590 170h2v2h-2z"/><path d="m590 370h2v2h-2z"/><path d="m590 510h2v2h-2z"/><path d="m440 190h2v2h-2z"/><path d="m440 390h2v2h-2z"/><path d="m440 530h2v2h-2z"/><path d="m540 190h2v2h-2z"/><path d="m540 390h2v2h-2z"/><path d="m540 530h2v2h-2z"/><path d="m490 190h2v2h-2z"/><path d="m490 390h2v2h-2z"/><path d="m490 530h2v2h-2z"/><path d="m590 190h2v2h-2z"/><path d="m590 390h2v2h-2z"/><path d="m590 530h2v2h-2z"/></g></svg>