<svg fill="none" height="420" viewBox="0 0 920 420" width="920" xmlns="http://www.w3.org/2000/svg" xmlns:xlink="http://www.w3.org/1999/xlink"><clipPath id="a"><path d="m0 0h920v420h-920z" transform="matrix(-1 0 0 1 920 0)"/></clipPath><mask id="b" height="420" maskUnits="userSpaceOnUse" width="920" x="0" y="0"><path d="m0 8c0-4.41828 3.58172-8 8-8h904c4.418 0 8 3.58172 8 8v404c0 4.418-3.582 8-8 8h-903.99999c-4.41828 0-8.00001-3.582-8.00001-8z" fill="#fcfcfd" fill-opacity=".5"/><path d="m8-1h904v2h-904zm913 9v404h-2v-404zm-9 413h-903.99999v-2h903.99999zm-913-9v-404h2v404zm9.00001 9c-4.97056 0-9.00001-4.029-9.00001-9h2c0 3.866 3.13401 7 7.00001 7zm912.99999-9c0 4.971-4.029 9-9 9v-2c3.866 0 7-3.134 7-7zm-9-413c4.971 0 9 4.02944 9 9h-2c0-3.86599-3.134-7-7-7zm-904 2c-3.86599 0-7 3.13401-7 7h-2c0-4.97056 4.02944-9 9-9z" fill="#eef0f3" mask="url(#c)"/></mask><mask id="c" fill="#fff"><path d="m0 8c0-4.41828 3.58172-8 8-8h904c4.418 0 8 3.58172 8 8v404c0 4.418-3.582 8-8 8h-903.99999c-4.41828 0-8.00001-3.582-8.00001-8z" fill="#fff"/></mask><g clip-path="url(#a)"><g mask="url(#b)" stroke="#eef0f3"><circle cx="69.5825" cy="69.5825" r="69.0825" transform="matrix(-1 0 0 1 719.583 370.417)"/><circle cx="38.9662" cy="38.9662" r="38.4662" transform="matrix(-1 0 0 1 688.966 401.034)"/><circle cx="109.94" cy="109.94" r="109.44" transform="matrix(-1 0 0 1 759.94 330.06)"/><circle cx="153.082" cy="153.082" r="152.582" transform="matrix(-1 0 0 1 803.082 286.919)"/><circle cx="218.489" cy="218.489" r="217.989" transform="matrix(-1 0 0 1 868.489 221.511)"/><circle cx="283.897" cy="283.897" r="283.397" transform="matrix(-1 0 0 1 933.896 156.103)"/><path d="m301.196 440c0 193.409 156.477 350.196 349.5 350.196 193.022 0 349.504-156.787 349.504-350.196s-156.482-350.1958-349.504-350.1958c-193.023 0-349.5 156.7868-349.5 350.1958z"/><circle cx="436.978" cy="436.978" r="436.478" transform="matrix(-1 0 0 1 1086.98 3.02188)"/><circle cx="569.185" cy="569.185" r="568.685" transform="matrix(-1 0 0 1 1219.19 -129.185)"/><circle cx="700" cy="700" r="699.5" transform="matrix(-1 0 0 1 1350 -260)"/></g></g></svg>