<svg fill="none" height="172" viewBox="0 0 460 172" width="460" xmlns="http://www.w3.org/2000/svg" xmlns:xlink="http://www.w3.org/1999/xlink"><filter id="a" color-interpolation-filters="sRGB" filterUnits="userSpaceOnUse" height="233" width="502" x="-16" y="-15"><feFlood flood-opacity="0" result="BackgroundImageFix"/><feColorMatrix in="SourceAlpha" result="hardAlpha" type="matrix" values="0 0 0 0 0 0 0 0 0 0 0 0 0 0 0 0 0 0 127 0"/><feOffset dy="1"/><feGaussianBlur stdDeviation="8"/><feComposite in2="hardAlpha" operator="out"/><feColorMatrix type="matrix" values="0 0 0 0 0.1587 0 0 0 0 0.19435 0 0 0 0 0.23 0 0 0 0.02 0"/><feBlend in2="BackgroundImageFix" mode="normal" result="effect1_dropShadow_2021_324"/><feColorMatrix in="SourceAlpha" result="hardAlpha" type="matrix" values="0 0 0 0 0 0 0 0 0 0 0 0 0 0 0 0 0 0 127 0"/><feOffset dy="1"/><feGaussianBlur stdDeviation="2"/><feComposite in2="hardAlpha" operator="out"/><feColorMatrix type="matrix" values="0 0 0 0 0.1587 0 0 0 0 0.19435 0 0 0 0 0.23 0 0 0 0.08 0"/><feBlend in2="effect1_dropShadow_2021_324" mode="normal" result="effect2_dropShadow_2021_324"/><feBlend in="SourceGraphic" in2="effect2_dropShadow_2021_324" mode="normal" result="shape"/></filter><linearGradient id="b" gradientUnits="userSpaceOnUse" x1="217.602" x2="217.602" y1="172" y2="108"><stop offset="0" stop-color="#fcfcfd"/><stop offset="1" stop-color="#fcfcfd" stop-opacity="0"/></linearGradient><mask id="c" height="172" maskUnits="userSpaceOnUse" width="460" x="0" y="0"><path d="m0 0h460v172h-460z" fill="#d9d9d9"/></mask><g mask="url(#c)"><g filter="url(#a)"><rect fill="#fff" height="201" rx="8" width="470"/><rect height="200" rx="7.5" stroke="#dfe3e8" width="469" x=".5" y=".5"/></g><path d="m1 8c0-3.86599 3.13401-7 7-7h455c3.866 0 7 3.13401 7 7v40h-469z" fill="#f7f9fa"/><path d="m76.0387 29v-9.4545h1.4265v8.2265h4.2841v1.228zm10.2832.1431c-.6986 0-1.3003-.1493-1.805-.4478-.5017-.3016-.8895-.7248-1.1634-1.2695-.2708-.5478-.4062-1.1895-.4062-1.9251 0-.7263.1354-1.3665.4062-1.9204.2739-.554.6556-.9864 1.1449-1.2973.4924-.3108 1.0679-.4662 1.7266-.4662.4001 0 .7878.0661 1.1633.1985.3755.1323.7125.3401 1.011.6232.2986.2831.534.6509.7063 1.1033.1724.4494.2586.9957.2586 1.6389v.4893h-5.6367v-1.0341h4.284c0-.3631-.0738-.6847-.2215-.9648-.1478-.2832-.3555-.5063-.6233-.6694-.2647-.1631-.5755-.2447-.9325-.2447-.3878 0-.7263.0954-1.0156.2863-.2862.1877-.5078.4339-.6648.7386-.1539.3016-.2308.6294-.2308.9833v.8079c0 .4739.0831.8771.2493 1.2095.1692.3324.4047.5863.7063.7617.3016.1724.654.2585 1.0572.2585.2616 0 .5001-.0369.7155-.1108.2154-.0769.4016-.1908.5586-.3416s.277-.337.3601-.5586l1.3065.2355c-.1047.3847-.2924.7217-.5633 1.011-.2677.2862-.6047.5093-1.011.6694-.4031.1569-.8632.2354-1.3803.2354zm7.8838-7.234v1.1079h-3.8732v-1.1079zm-2.8345-1.6989h1.3803v6.7078c0 .2677.04.4693.12.6047.0801.1324.1832.2232.3093.2724.1293.0462.2693.0692.4201.0692.1108 0 .2078-.0076.2909-.023s.1477-.0277.1939-.037l.2493 1.1403c-.0801.0308-.1939.0616-.3417.0923-.1477.0339-.3323.0524-.5539.0554-.3632.0062-.7017-.0584-1.0157-.1939-.3139-.1354-.5678-.3447-.7617-.6278s-.2908-.6386-.2908-1.0664zm5.4093-.6647v3.3654h-1.1448v-3.3654zm7.0965 4.0948-1.251.2216c-.052-.1601-.135-.3124-.249-.4571-.111-.1446-.262-.2631-.453-.3554-.19-.0924-.429-.1385-.715-.1385-.391 0-.717.0877-.979.2631-.2614.1724-.3922.3955-.3922.6694 0 .237.0877.4278.2632.5724.175.1447.459.2632.849.3555l1.127.2585c.652.1508 1.139.3832 1.459.6971s.48.7217.48 1.2234c0 .4247-.123.8033-.37 1.1356-.243.3293-.583.5879-1.02.7756-.434.1877-.937.2816-1.509.2816-.794 0-1.4423-.1693-1.944-.5078-.5016-.3416-.8094-.8264-.9233-1.4542l1.3342-.2031c.0831.3478.2539.6109.5121.7894.259.1754.596.2631 1.011.2631.453 0 .814-.0938 1.085-.2816.271-.1908.406-.4231.406-.6971 0-.2215-.083-.4077-.249-.5585-.163-.1509-.414-.2647-.752-.3417l-1.201-.2631c-.6613-.1508-1.1506-.3909-1.4676-.7202-.314-.3293-.4709-.7463-.4709-1.251 0-.4186.1169-.7848.3508-1.0988.2339-.3139.5571-.5586.9695-.734.4122-.1785.8852-.2677 1.4172-.2677.766 0 1.37.1662 1.81.4985.44.3293.731.771.872 1.325zm5.208 5.3597v-9.4545h1.38v3.5131h.083c.08-.1477.195-.3185.346-.5124s.36-.3632.628-.5078c.268-.1478.622-.2216 1.062-.2216.572 0 1.083.1446 1.533.4339.449.2893.801.7063 1.057 1.2511.258.5447.388 1.2003.388 1.9666s-.128 1.4234-.384 1.9712c-.255.5448-.606.9649-1.052 1.2603-.446.2924-.956.4386-1.528.4386-.431 0-.784-.0723-1.057-.217-.271-.1446-.484-.3139-.638-.5078-.153-.1939-.272-.3662-.355-.517h-.115v1.1033zm1.352-3.5455c0 .4986.073.9357.217 1.3111.145.3755.354.6694.628.8818.274.2093.609.3139 1.006.3139.413 0 .758-.1093 1.035-.3278.277-.2216.486-.5216.627-.9002.145-.3785.217-.8048.217-1.2788 0-.4678-.07-.8879-.212-1.2603-.139-.3723-.348-.6663-.628-.8817-.277-.2154-.623-.3232-1.039-.3232-.4 0-.738.1031-1.015.3094-.274.2062-.482.4939-.623.8632-.142.3693-.213.8002-.213 1.2926zm11.166.6048v-4.1502h1.385v7.0909h-1.357v-1.228h-.074c-.163.3786-.425.694-.785.9464-.357.2493-.801.3739-1.334.3739-.455 0-.858-.1-1.209-.3-.348-.2032-.622-.5032-.822-.9003-.197-.397-.295-.8879-.295-1.4726v-4.5103h1.38v4.3441c0 .4832.134.8679.401 1.1541.268.2862.616.4293 1.044.4293.258 0 .515-.0646.771-.1938.258-.1293.472-.3247.641-.5863.173-.2616.257-.594.254-.9972zm3.24 2.9407v-7.0909h1.38v7.0909zm.697-8.185c-.24 0-.446-.08-.619-.2401-.169-.1631-.253-.357-.253-.5816 0-.2278.084-.4217.253-.5817.173-.1631.379-.2447.619-.2447s.445.0816.614.2447c.172.16.259.3539.259.5817 0 .2246-.087.4185-.259.5816-.169.1601-.374.2401-.614.2401zm3.921-1.2695v9.4545h-1.381v-9.4545zm4.511 9.593c-.572 0-1.083-.1462-1.533-.4386-.446-.2954-.797-.7155-1.052-1.2603-.253-.5478-.379-1.2049-.379-1.9712s.128-1.4219.383-1.9666c.259-.5448.613-.9618 1.062-1.2511.45-.2893.959-.4339 1.528-.4339.44 0 .794.0738 1.062.2216.271.1446.48.3139.628.5078.151.1939.268.3647.351.5124h.083v-3.5131h1.38v9.4545h-1.348v-1.1033h-.115c-.083.1508-.203.3231-.36.517-.154.1939-.367.3632-.637.5078-.271.1447-.622.217-1.053.217zm.305-1.1772c.397 0 .732-.1046 1.006-.3139.277-.2124.486-.5063.628-.8818.145-.3754.217-.8125.217-1.3111 0-.4924-.071-.9233-.212-1.2926-.142-.3693-.35-.657-.624-.8632-.274-.2063-.612-.3094-1.015-.3094-.416 0-.762.1078-1.039.3232s-.486.5094-.628.8817c-.138.3724-.208.7925-.208 1.2603 0 .474.071.9003.213 1.2788.141.3786.351.6786.628.9002.28.2185.624.3278 1.034.3278zm9.491 3.6978c-.206 0-.394-.0169-.563-.0508-.169-.0308-.295-.0646-.379-.1016l.333-1.131c.252.0677.477.097.674.0877.197-.0092.371-.0831.521-.2216.154-.1385.29-.3647.407-.6786l.171-.4709-2.595-7.1832h1.477l1.796 5.5028h.074l1.796-5.5028h1.482l-2.922 8.0373c-.136.3693-.308.6817-.518.9371-.209.2585-.458.4524-.747.5817-.29.1293-.625.1939-1.007.1939zm9.237-2.516c-.665 0-1.245-.1523-1.741-.457-.495-.3047-.88-.731-1.154-1.2788s-.411-1.188-.411-1.9204c0-.7356.137-1.3788.411-1.9297s.659-.9787 1.154-1.2834c.496-.3047 1.076-.457 1.741-.457.664 0 1.245.1523 1.74.457.496.3047.88.7325 1.154 1.2834s.411 1.1941.411 1.9297c0 .7324-.137 1.3726-.411 1.9204s-.658.9741-1.154 1.2788c-.495.3047-1.076.457-1.74.457zm.004-1.1587c.431 0 .788-.1139 1.071-.3416.283-.2278.493-.5309.628-.9095.139-.3785.208-.7956.208-1.2511 0-.4524-.069-.8679-.208-1.2464-.135-.3816-.345-.6879-.628-.9187s-.64-.3462-1.071-.3462c-.434 0-.794.1154-1.08.3462-.283.2308-.494.5371-.632.9187-.136.3785-.204.794-.204 1.2464 0 .4555.068.8726.204 1.2511.138.3786.349.6817.632.9095.286.2277.646.3416 1.08.3416zm9.334-1.9251v-4.1502h1.385v7.0909h-1.358v-1.228h-.074c-.163.3786-.424.694-.784.9464-.357.2493-.802.3739-1.335.3739-.455 0-.858-.1-1.209-.3-.348-.2032-.622-.5032-.822-.9003-.197-.397-.295-.8879-.295-1.4726v-4.5103h1.38v4.3441c0 .4832.134.8679.402 1.1541.267.2862.615.4293 1.043.4293.259 0 .516-.0646.771-.1938.259-.1293.472-.3247.642-.5863.172-.2616.257-.594.254-.9972zm3.239 2.9407v-7.0909h1.334v1.1264h.074c.129-.3816.357-.6817.683-.9002.33-.2216.702-.3324 1.118-.3324.086 0 .187.0031.304.0092.12.0062.214.0139.282.0231v1.3203c-.055-.0153-.154-.0323-.296-.0507-.141-.0216-.283-.0324-.424-.0324-.326 0-.617.0693-.873.2078-.252.1354-.452.3247-.6.5678-.148.2401-.221.514-.221.8217v4.3303zm9.339 0h-1.514l3.402-9.4545h1.649l3.402 9.4545h-1.514l-2.673-7.7372h-.074zm.254-3.7024h4.912v1.2003h-4.912zm12.117-.891v1.1957h-4.191v-1.1957zm5.15-2.4975v1.1079h-3.873v-1.1079zm-2.834-1.6989h1.38v6.7078c0 .2677.04.4693.12.6047.08.1324.183.2232.309.2724.129.0462.269.0692.42.0692.111 0 .208-.0076.291-.023s.148-.0277.194-.037l.249 1.1403c-.08.0308-.194.0616-.341.0923-.148.0339-.333.0524-.554.0554-.363.0062-.702-.0584-1.016-.1939-.314-.1354-.568-.3447-.762-.6278s-.29-.6386-.29-1.0664zm7.341 8.9329c-.699 0-1.3-.1493-1.805-.4478-.502-.3016-.89-.7248-1.164-1.2695-.27-.5478-.406-1.1895-.406-1.9251 0-.7263.136-1.3665.406-1.9204.274-.554.656-.9864 1.145-1.2973.493-.3108 1.068-.4662 1.727-.4662.4 0 .788.0661 1.163.1985.376.1323.713.3401 1.011.6232.299.2831.534.6509.707 1.1033.172.4494.258.9957.258 1.6389v.4893h-5.637v-1.0341h4.284c0-.3631-.073-.6847-.221-.9648-.148-.2832-.356-.5063-.623-.6694-.265-.1631-.576-.2447-.933-.2447-.388 0-.726.0954-1.015.2863-.287.1877-.508.4339-.665.7386-.154.3016-.231.6294-.231.9833v.8079c0 .4739.083.8771.249 1.2095.169.3324.405.5863.707.7617.301.1724.654.2585 1.057.2585.261 0 .5-.0369.715-.1108.216-.0769.402-.1908.559-.3416s.277-.337.36-.5586l1.306.2355c-.104.3847-.292.7217-.563 1.011-.268.2862-.605.5093-1.011.6694-.403.1569-.863.2354-1.38.2354zm6.637.0139c-.449 0-.855-.0831-1.219-.2493-.363-.1693-.65-.414-.863-.734-.209-.3201-.314-.7125-.314-1.1773 0-.4.077-.7294.231-.9879s.362-.4632.623-.614c.262-.1508.554-.2646.877-.3416.324-.0769.653-.1354.988-.1754.425-.0493.77-.0893 1.034-.12.265-.0339.457-.0878.578-.1616.12-.0739.18-.1939.18-.3601v-.0323c0-.4032-.114-.7156-.342-.9372-.225-.2216-.56-.3324-1.006-.3324-.465 0-.831.1031-1.099.3094-.265.2031-.448.4293-.55.6786l-1.297-.2955c.154-.4309.379-.7786.674-1.0433.299-.2678.642-.4617 1.03-.5817.387-.1231.795-.1846 1.223-.1846.283 0 .583.0338.9.1015.32.0647.619.1847.896.3601.28.1754.509.4263.688.7525.178.3231.267.7432.267 1.2603v4.7088h-1.348v-.9695h-.055c-.089.1785-.223.354-.402.5263-.178.1724-.407.3155-.687.4294-.28.1138-.616.1708-1.007.1708zm.3-1.108c.382 0 .708-.0754.979-.2262.274-.1508.482-.3478.623-.5909.145-.2462.217-.5094.217-.7894v-.9141c-.049.0493-.144.0954-.286.1385-.139.04-.297.0754-.476.1062-.178.0277-.352.0538-.521.0785-.169.0215-.311.04-.425.0554-.268.0338-.512.0908-.734.1708-.218.08-.394.1954-.526.3462-.129.1477-.194.3447-.194.5909 0 .3416.126.6002.378.7756.253.1723.574.2585.965.2585zm5.038.951v-7.0909h1.325v1.1541h.088c.147-.3909.389-.6955.724-.9141.336-.2215.738-.3323 1.205-.3323.474 0 .871.1108 1.191.3323.324.2216.562.5263.716.9141h.074c.169-.3785.438-.6802.808-.9048.369-.2278.809-.3416 1.32-.3416.643 0 1.168.2015 1.574.6047.41.4032.614 1.011.614 1.8235v4.755h-1.38v-4.6257c0-.4801-.131-.8279-.393-1.0433-.261-.2155-.573-.3232-.937-.3232-.449 0-.798.1385-1.048.4155-.249.2739-.374.6263-.374 1.0572v4.5195h-1.375v-4.7134c0-.3847-.12-.694-.36-.9279s-.553-.3509-.937-.3509c-.262 0-.504.0693-.725.2078-.219.1354-.396.3246-.531.5678-.132.2431-.199.5247-.199.8448v4.3718zm18.304-7.0909v1.1079h-4.007v-1.1079zm-2.908 7.0909v-7.9126c0-.4432.097-.811.291-1.1034.194-.2954.451-.5155.771-.6601.32-.1478.668-.2216 1.043-.2216.277 0 .514.0231.711.0692.197.0431.343.0831.439.12l-.324 1.1172c-.064-.0184-.147-.04-.249-.0646-.101-.0277-.225-.0415-.369-.0415-.336 0-.576.0831-.72.2492-.142.1662-.213.4063-.213.7202v7.728zm7.04.1431c-.665 0-1.245-.1523-1.74-.457-.496-.3047-.881-.731-1.154-1.2788-.274-.5478-.411-1.188-.411-1.9204 0-.7356.137-1.3788.411-1.9297.273-.5509.658-.9787 1.154-1.2834.495-.3047 1.075-.457 1.74-.457s1.245.1523 1.74.457c.496.3047.881.7325 1.155 1.2834s.41 1.1941.41 1.9297c0 .7324-.136 1.3726-.41 1.9204s-.659.9741-1.155 1.2788c-.495.3047-1.075.457-1.74.457zm.005-1.1587c.431 0 .788-.1139 1.071-.3416.283-.2278.492-.5309.628-.9095.138-.3785.207-.7956.207-1.2511 0-.4524-.069-.8679-.207-1.2464-.136-.3816-.345-.6879-.628-.9187s-.64-.3462-1.071-.3462c-.434 0-.794.1154-1.081.3462-.283.2308-.494.5371-.632.9187-.135.3785-.203.794-.203 1.2464 0 .4555.068.8726.203 1.2511.138.3786.349.6817.632.9095.287.2277.647.3416 1.081.3416zm4.841 1.0156v-7.0909h1.334v1.1264h.074c.13-.3816.357-.6817.683-.9002.33-.2216.702-.3324 1.118-.3324.086 0 .187.0031.304.0092.12.0062.214.0139.282.0231v1.3203c-.055-.0153-.154-.0323-.295-.0507-.142-.0216-.284-.0324-.425-.0324-.326 0-.617.0693-.873.2078-.252.1354-.452.3247-.6.5678-.148.2401-.221.514-.221.8217v4.3303zm7.954-3.8963v-.6925c.521 0 .884-.1062 1.09-.3185.206-.2155.309-.5709.309-1.0664v-1.325c0-.4708.053-.8663.157-1.1864.108-.3231.271-.5817.49-.7756.218-.1938.495-.3339.83-.4201.336-.0861.731-.1292 1.187-.1292v1.0941c-.357 0-.636.0523-.836.157-.2.1046-.34.2677-.42.4893-.077.2185-.115.4986-.115.8402v1.6804c0 .237-.036.457-.106.6602-.071.2-.202.3739-.393.5216s-.463.2632-.817.3462c-.354.0831-.812.1247-1.376.1247zm4.063 5.8629c-.456 0-.851-.0431-1.187-.1292-.335-.0862-.612-.2262-.83-.4201-.219-.1939-.382-.4525-.49-.7756-.104-.3201-.157-.7156-.157-1.1864v-1.3296c0-.4924-.103-.8463-.309-1.0618-.206-.2154-.569-.3231-1.09-.3231v-.6879c.564 0 1.022.0416 1.376.1247.354.08.626.1954.817.3462.191.1477.322.3231.393.5263.07.2.106.4185.106.6555v1.6804c0 .3386.038.6171.115.8356.08.2216.22.3847.42.4893.2.1078.479.1616.836.1616zm-4.063-5.2258v-1.3296h1.279v1.3296zm4.914-.6371v-.6925c.52 0 .883-.1062 1.089-.3185.206-.2155.309-.5709.309-1.0664v-1.325c0-.4708.053-.8663.157-1.1864.108-.3231.271-.5817.49-.7756.218-.1938.495-.3339.831-.4201.335-.0861.731-.1292 1.186-.1292v1.0941c-.357 0-.636.0523-.836.157-.2.1046-.34.2677-.42.4893-.077.2185-.115.4986-.115.8402v1.6804c0 .237-.035.457-.106.6602-.071.2-.202.3739-.393.5216-.19.1477-.463.2632-.817.3462-.354.0831-.812.1247-1.375.1247zm4.062 5.8629c-.455 0-.851-.0431-1.186-.1292-.336-.0862-.613-.2262-.831-.4201-.219-.1939-.382-.4525-.49-.7756-.104-.3201-.157-.7156-.157-1.1864v-1.3296c0-.4924-.103-.8463-.309-1.0618-.206-.2154-.569-.3231-1.089-.3231v-.6879c.563 0 1.021.0416 1.375.1247.354.08.627.1954.817.3462.191.1477.322.3231.393.5263.071.2.106.4185.106.6555v1.6804c0 .3386.038.6171.115.8356.08.2216.22.3847.42.4893.2.1078.479.1616.836.1616zm-4.062-5.2258v-1.3296h1.278v1.3296zm8.248 3.4023c-.686 0-1.277-.1554-1.773-.4663-.492-.3139-.871-.7463-1.135-1.2972-.265-.5509-.397-1.1818-.397-1.8927 0-.7202.135-1.3557.406-1.9066.271-.554.652-.9864 1.145-1.2973.492-.3108 1.072-.4662 1.74-.4662.539 0 1.019.1 1.44.3.422.197.762.474 1.021.831.261.357.417.774.466 1.2511h-1.343c-.074-.3324-.244-.6186-.508-.8587-.262-.2401-.613-.3601-1.053-.3601-.384 0-.721.1016-1.011.3047-.286.2-.509.4863-.669.8587-.16.3693-.24.8063-.24 1.311 0 .5171.078.9634.235 1.3388.157.3755.379.6663.665.8725.289.2062.629.3093 1.02.3093.262 0 .499-.0477.711-.1431.216-.0985.396-.2385.54-.4201.148-.1815.251-.4001.31-.6555h1.343c-.049.4586-.199.8679-.448 1.228s-.583.6432-1.002.8494c-.415.2062-.903.3093-1.463.3093zm7.376 0c-.665 0-1.245-.1523-1.74-.457-.496-.3047-.881-.731-1.155-1.2788-.273-.5478-.41-1.188-.41-1.9204 0-.7356.137-1.3788.41-1.9297.274-.5509.659-.9787 1.155-1.2834.495-.3047 1.075-.457 1.74-.457s1.245.1523 1.74.457c.496.3047.881.7325 1.155 1.2834.273.5509.41 1.1941.41 1.9297 0 .7324-.137 1.3726-.41 1.9204-.274.5478-.659.9741-1.155 1.2788-.495.3047-1.075.457-1.74.457zm.005-1.1587c.43 0 .787-.1139 1.071-.3416.283-.2278.492-.5309.627-.9095.139-.3785.208-.7956.208-1.2511 0-.4524-.069-.8679-.208-1.2464-.135-.3816-.344-.6879-.627-.9187-.284-.2308-.641-.3462-1.071-.3462-.434 0-.794.1154-1.081.3462-.283.2308-.494.5371-.632.9187-.136.3785-.203.794-.203 1.2464 0 .4555.067.8726.203 1.2511.138.3786.349.6817.632.9095.287.2277.647.3416 1.081.3416zm4.841 1.0156v-7.0909h1.325v1.1541h.088c.147-.3909.389-.6955.725-.9141.335-.2215.737-.3323 1.204-.3323.474 0 .871.1108 1.192.3323.323.2216.561.5263.715.9141h.074c.169-.3785.438-.6802.808-.9048.369-.2278.809-.3416 1.32-.3416.643 0 1.168.2015 1.574.6047.41.4032.614 1.011.614 1.8235v4.755h-1.38v-4.6257c0-.4801-.131-.8279-.392-1.0433-.262-.2155-.574-.3232-.938-.3232-.449 0-.798.1385-1.047.4155-.25.2739-.374.6263-.374 1.0572v4.5195h-1.376v-4.7134c0-.3847-.12-.694-.36-.9279s-.553-.3509-.937-.3509c-.262 0-.504.0693-.725.2078-.219.1354-.396.3246-.531.5678-.132.2431-.199.5247-.199.8448v4.3718zm11.489 2.6591v-9.75h1.348v1.1495h.116c.08-.1477.195-.3185.346-.5124s.36-.3632.628-.5078c.268-.1478.622-.2216 1.062-.2216.572 0 1.083.1446 1.532.4339.45.2893.802.7063 1.058 1.2511.258.5447.387 1.2003.387 1.9666s-.127 1.4234-.383 1.9712c-.255.5448-.606.9649-1.052 1.2603-.447.2924-.956.4386-1.528.4386-.431 0-.784-.0723-1.058-.217-.27-.1446-.483-.3139-.637-.5078s-.272-.3662-.355-.517h-.083v3.7624zm1.353-6.2046c0 .4986.072.9357.217 1.3111.145.3755.354.6694.628.8818.274.2093.609.3139 1.006.3139.413 0 .757-.1093 1.034-.3278.277-.2216.487-.5216.628-.9002.145-.3785.217-.8048.217-1.2788 0-.4678-.071-.8879-.212-1.2603-.139-.3723-.348-.6663-.628-.8817-.277-.2154-.623-.3232-1.039-.3232-.4 0-.738.1031-1.015.3094-.274.2062-.482.4939-.624.8632-.141.3693-.212.8002-.212 1.2926zm8.734 3.7025c-.449 0-.855-.0831-1.218-.2493-.364-.1693-.651-.414-.864-.734-.209-.3201-.314-.7125-.314-1.1773 0-.4.077-.7294.231-.9879s.362-.4632.623-.614c.262-.1508.554-.2646.878-.3416.323-.0769.652-.1354.988-.1754.424-.0493.769-.0893 1.034-.12.264-.0339.457-.0878.577-.1616.12-.0739.18-.1939.18-.3601v-.0323c0-.4032-.114-.7156-.342-.9372-.225-.2216-.56-.3324-1.006-.3324-.465 0-.831.1031-1.099.3094-.265.2031-.448.4293-.549.6786l-1.298-.2955c.154-.4309.379-.7786.674-1.0433.299-.2678.642-.4617 1.03-.5817.388-.1231.795-.1846 1.223-.1846.283 0 .583.0338.9.1015.321.0647.619.1847.896.3601.28.1754.509.4263.688.7525.178.3231.268.7432.268 1.2603v4.7088h-1.348v-.9695h-.056c-.089.1785-.223.354-.401.5263-.179.1724-.408.3155-.688.4294-.28.1138-.616.1708-1.007.1708zm.3-1.108c.382 0 .708-.0754.979-.2262.274-.1508.482-.3478.623-.5909.145-.2462.217-.5094.217-.7894v-.9141c-.049.0493-.144.0954-.286.1385-.138.04-.297.0754-.475.1062-.179.0277-.353.0538-.522.0785-.169.0215-.311.04-.425.0554-.268.0338-.512.0908-.734.1708-.218.08-.394.1954-.526.3462-.129.1477-.194.3447-.194.5909 0 .3416.126.6002.379.7756.252.1723.574.2585.964.2585zm6.419-3.2592v4.2102h-1.381v-7.0909h1.325v1.1541h.088c.163-.3755.418-.6771.766-.9048.351-.2278.793-.3416 1.325-.3416.483 0 .906.1015 1.27.3046.363.2001.644.4986.844.8956.2.3971.301.8879.301 1.4727v4.5103h-1.381v-4.3441c0-.514-.134-.9156-.401-1.2049-.268-.2924-.636-.4386-1.104-.4386-.32 0-.605.0693-.854.2078-.246.1385-.441.3416-.586.6093-.142.2647-.212.5848-.212.9603zm7.007 6.8693c-.206 0-.394-.0169-.563-.0508-.169-.0308-.295-.0646-.378-.1016l.332-1.131c.252.0677.477.097.674.0877.197-.0092.371-.0831.522-.2216.153-.1385.289-.3647.406-.6786l.171-.4709-2.595-7.1832h1.477l1.796 5.5028h.074l1.796-5.5028h1.482l-2.922 8.0373c-.136.3693-.308.6817-.517.9371-.21.2585-.459.4524-.748.5817-.29.1293-.625.1939-1.007.1939zm10.527-2.6591v1.1726h-6.006v-1.1726zm2.892-4.2102v4.2102h-1.38v-7.0909h1.325v1.1541h.088c.163-.3755.418-.6771.766-.9048.351-.2278.792-.3416 1.325-.3416.483 0 .906.1015 1.269.3046.364.2001.645.4986.845.8956.2.3971.3.8879.3 1.4727v4.5103h-1.38v-4.3441c0-.514-.134-.9156-.402-1.2049-.267-.2924-.635-.4386-1.103-.4386-.32 0-.605.0693-.854.2078-.246.1385-.442.3416-.586.6093-.142.2647-.213.5848-.213.9603zm8.453 4.3672c-.449 0-.856-.0831-1.219-.2493-.363-.1693-.651-.414-.863-.734-.209-.3201-.314-.7125-.314-1.1773 0-.4.077-.7294.231-.9879s.362-.4632.623-.614c.262-.1508.554-.2646.877-.3416.323-.0769.653-.1354.988-.1754.425-.0493.77-.0893 1.034-.12.265-.0339.457-.0878.577-.1616.12-.0739.18-.1939.18-.3601v-.0323c0-.4032-.113-.7156-.341-.9372-.225-.2216-.56-.3324-1.007-.3324-.464 0-.831.1031-1.098.3094-.265.2031-.448.4293-.55.6786l-1.297-.2955c.154-.4309.379-.7786.674-1.0433.299-.2678.642-.4617 1.03-.5817.387-.1231.795-.1846 1.223-.1846.283 0 .583.0338.9.1015.32.0647.619.1847.896.3601.28.1754.509.4263.688.7525.178.3231.267.7432.267 1.2603v4.7088h-1.348v-.9695h-.055c-.089.1785-.223.354-.402.5263-.178.1724-.408.3155-.688.4294-.28.1138-.615.1708-1.006.1708zm.3-1.108c.382 0 .708-.0754.979-.2262.274-.1508.481-.3478.623-.5909.145-.2462.217-.5094.217-.7894v-.9141c-.049.0493-.145.0954-.286.1385-.139.04-.297.0754-.476.1062-.178.0277-.352.0538-.521.0785-.17.0215-.311.04-.425.0554-.268.0338-.513.0908-.734.1708-.219.08-.394.1954-.526.3462-.13.1477-.194.3447-.194.5909 0 .3416.126.6002.378.7756.253.1723.574.2585.965.2585zm5.038.951v-7.0909h1.325v1.1541h.087c.148-.3909.39-.6955.725-.9141.336-.2215.737-.3323 1.205-.3323.474 0 .871.1108 1.191.3323.323.2216.562.5263.716.9141h.074c.169-.3785.438-.6802.808-.9048.369-.2278.809-.3416 1.32-.3416.643 0 1.168.2015 1.574.6047.409.4032.614 1.011.614 1.8235v4.755h-1.38v-4.6257c0-.4801-.131-.8279-.393-1.0433-.261-.2155-.574-.3232-.937-.3232-.449 0-.798.1385-1.048.4155-.249.2739-.374.6263-.374 1.0572v4.5195h-1.375v-4.7134c0-.3847-.12-.694-.36-.9279-.241-.2339-.553-.3509-.938-.3509-.261 0-.503.0693-.724.2078-.219.1354-.396.3246-.531.5678-.133.2431-.199.5247-.199.8448v4.3718zm14.545.1431c-.698 0-1.3-.1493-1.805-.4478-.501-.3016-.889-.7248-1.163-1.2695-.271-.5478-.406-1.1895-.406-1.9251 0-.7263.135-1.3665.406-1.9204.274-.554.655-.9864 1.145-1.2973.492-.3108 1.068-.4662 1.726-.4662.4 0 .788.0661 1.164.1985.375.1323.712.3401 1.011.6232.298.2831.534.6509.706 1.1033.172.4494.258.9957.258 1.6389v.4893h-5.636v-1.0341h4.284c0-.3631-.074-.6847-.222-.9648-.147-.2832-.355-.5063-.623-.6694-.265-.1631-.575-.2447-.933-.2447-.387 0-.726.0954-1.015.2863-.286.1877-.508.4339-.665.7386-.154.3016-.231.6294-.231.9833v.8079c0 .4739.083.8771.25 1.2095.169.3324.404.5863.706.7617.301.1724.654.2585 1.057.2585.262 0 .5-.0369.716-.1108.215-.0769.401-.1908.558-.3416s.277-.337.36-.5586l1.307.2355c-.105.3847-.293.7217-.563 1.011-.268.2862-.605.5093-1.011.6694-.404.1569-.864.2354-1.381.2354zm8.106-4.0902v.6879c-.521 0-.884.1077-1.09.3231-.206.2155-.309.5694-.309 1.0618v1.3296c0 .4708-.054.8663-.162 1.1864-.104.3231-.266.5817-.485.7756-.218.1939-.495.3339-.83.4201-.336.0861-.731.1292-1.187.1292v-1.0941c.357 0 .636-.0538.836-.1616.2-.1046.338-.2677.415-.4893.08-.2185.12-.497.12-.8356v-1.6804c0-.237.036-.4555.106-.6555.071-.2032.202-.3786.393-.5263.191-.1508.463-.2662.817-.3462.354-.0831.812-.1247 1.376-.1247zm-4.063-5.8629c.456 0 .851.0431 1.187.1292.335.0862.612.2263.83.4201.219.1939.381.4525.485.7756.108.3201.162.7156.162 1.1864v1.325c0 .4955.103.8509.309 1.0664.206.2123.569.3185 1.09.3185v.6925c-.564 0-1.022-.0416-1.376-.1247-.354-.083-.626-.1985-.817-.3462s-.322-.3216-.393-.5216c-.07-.2032-.106-.4232-.106-.6602v-1.6804c0-.3416-.04-.6217-.12-.8402-.077-.2216-.215-.3847-.415-.4893-.2-.1047-.479-.157-.836-.157zm4.063 5.2212v1.3296h-1.279v-1.3296zm4.913.6417v.6879c-.52 0-.884.1077-1.09.3231-.206.2155-.309.5694-.309 1.0618v1.3296c0 .4708-.054.8663-.162 1.1864-.104.3231-.266.5817-.484.7756-.219.1939-.496.3339-.831.4201-.336.0861-.731.1292-1.187.1292v-1.0941c.357 0 .636-.0538.836-.1616.2-.1046.338-.2677.415-.4893.08-.2185.12-.497.12-.8356v-1.6804c0-.237.036-.4555.106-.6555.071-.2032.202-.3786.393-.5263.191-.1508.463-.2662.817-.3462.354-.0831.812-.1247 1.376-.1247zm-4.063-5.8629c.456 0 .851.0431 1.187.1292.335.0862.612.2263.831.4201.218.1939.38.4525.484.7756.108.3201.162.7156.162 1.1864v1.325c0 .4955.103.8509.309 1.0664.206.2123.57.3185 1.09.3185v.6925c-.564 0-1.022-.0416-1.376-.1247-.354-.083-.626-.1985-.817-.3462s-.322-.3216-.393-.5216c-.07-.2032-.106-.4232-.106-.6602v-1.6804c0-.3416-.04-.6217-.12-.8402-.077-.2216-.215-.3847-.415-.4893-.2-.1047-.479-.157-.836-.157zm4.063 5.2212v1.3296h-1.279v-1.3296z" fill="#3a444f"/><rect fill="#e6f4ff" height="20" rx="2" width="89" x="33" y="71"/><path d="m41.3828 81.7031v-.5859c.4401 0 .7474-.0899.9219-.2695.1745-.1823.2617-.4831.2617-.9024v-1.1211c0-.3984.0443-.7331.1328-1.0039.0912-.2734.2292-.4922.4141-.6562.1849-.1641.4193-.2826.7031-.3555.2839-.0729.6185-.1094 1.0039-.1094v.9258c-.3021 0-.5377.0443-.707.1328-.1693.0886-.2878.2266-.3555.4141-.0651.1849-.0976.4218-.0976.7109v1.4219c0 .2005-.03.3867-.0899.5586-.0599.1693-.1706.3164-.332.4414-.1615.125-.3919.2226-.6914.293-.2995.0703-.6875.1054-1.1641.1054zm3.4375 4.961c-.3854 0-.72-.0365-1.0039-.1094-.2838-.0729-.5182-.1914-.7031-.3555-.1849-.164-.3229-.3828-.4141-.6562-.0885-.2709-.1328-.6055-.1328-1.0039v-1.125c0-.4167-.0872-.7162-.2617-.8985s-.4818-.2734-.9219-.2734v-.582c.4766 0 .8646.0351 1.1641.1054.2995.0677.5299.1654.6914.293.1614.125.2721.2734.332.4453.0599.1693.0899.3542.0899.5547v1.4219c0 .2864.0325.5221.0976.707.0677.1875.1862.3255.3555.4141.1693.0911.4049.1367.707.1367zm-3.4375-4.4219v-1.125h1.082v1.125zm4.1572-.5391v-.5859c.4401 0 .7474-.0899.9219-.2695.1745-.1823.2617-.4831.2617-.9024v-1.1211c0-.3984.0443-.7331.1328-1.0039.0912-.2734.2292-.4922.4141-.6562.1849-.1641.4193-.2826.7031-.3555.2839-.0729.6185-.1094 1.0039-.1094v.9258c-.302 0-.5377.0443-.707.1328-.1693.0886-.2878.2266-.3555.4141-.0651.1849-.0976.4218-.0976.7109v1.4219c0 .2005-.03.3867-.0899.5586-.0599.1693-.1705.3164-.332.4414s-.3919.2226-.6914.293c-.2995.0703-.6875.1054-1.1641.1054zm3.4375 4.961c-.3854 0-.72-.0365-1.0039-.1094-.2838-.0729-.5182-.1914-.7031-.3555-.1849-.164-.3229-.3828-.4141-.6562-.0885-.2709-.1328-.6055-.1328-1.0039v-1.125c0-.4167-.0872-.7162-.2617-.8985s-.4818-.2734-.9219-.2734v-.582c.4766 0 .8646.0351 1.1641.1054.2995.0677.5299.1654.6914.293.1615.125.2721.2734.332.4453.0599.1693.0899.3542.0899.5547v1.4219c0 .2864.0325.5221.0976.707.0677.1875.1862.3255.3555.4141.1693.0911.405.1367.707.1367zm-3.4375-4.4219v-1.125h1.0821v1.125zm7.4151-3.2422v.9375h-3.3906v-.9375zm-2.461 6v-6.6953c0-.375.0821-.6862.2461-.9336.1641-.25.3815-.4362.6524-.5586.2708-.125.5651-.1875.8828-.1875.2344 0 .4349.0195.6016.0586.1666.0365.2903.0703.371.1016l-.2734.9453c-.0547-.0157-.125-.0339-.2109-.0547-.086-.0235-.1901-.0352-.3125-.0352-.2839 0-.487.0703-.6094.211-.1198.1406-.1797.3437-.1797.6093v6.5391zm3.6661 0v-6h1.1679v6zm.5898-6.9258c-.2031 0-.3776-.0677-.5234-.2031-.1433-.138-.2149-.3021-.2149-.4922 0-.1927.0716-.3568.2149-.4922.1458-.138.3203-.207.5234-.207s.3763.069.5195.207c.1459.1354.2188.2995.2188.4922 0 .1901-.0729.3542-.2188.4922-.1432.1354-.3164.2031-.5195.2031zm2.1494 6.9258v-6h1.1289v.9531h.0625c.1094-.3229.3021-.5768.5781-.7617.2787-.1875.5938-.2812.9454-.2812.0729 0 .1588.0026.2578.0078.1015.0052.181.0117.2383.0195v1.1172c-.0469-.013-.1303-.0274-.25-.043-.1198-.0182-.2396-.0273-.3594-.0273-.2761 0-.5222.0586-.7383.1758-.2135.1145-.3828.2747-.5078.4804-.125.2031-.1875.4349-.1875.6953v3.6641zm8.7178-4.5352-1.0586.1875c-.0443-.1354-.1146-.2643-.2109-.3867-.0938-.1224-.2214-.2226-.3829-.3008-.1614-.0781-.3632-.1171-.6054-.1171-.3308 0-.6068.0742-.8281.2226-.2214.1458-.3321.3346-.3321.5664 0 .2005.0742.362.2227.4844.1484.1224.388.2226.7187.3008l.9532.2187c.552.1276.9635.3242 1.2343.5899.2709.2656.4063.6106.4063 1.0351 0 .3594-.1042.6797-.3125.961-.2058.2786-.4935.4974-.8633.6562-.3672.1589-.793.2383-1.2773.2383-.6719 0-1.2201-.1432-1.6446-.4297-.4245-.2891-.6849-.6992-.7812-1.2305l1.1289-.1718c.0703.2942.2148.5169.4336.6679.2187.1485.5039.2227.8554.2227.3829 0 .6888-.0794.918-.2383.2292-.1615.3438-.3581.3438-.5898 0-.1875-.0704-.3451-.211-.4727-.138-.1276-.3502-.224-.6367-.2891l-1.0156-.2226c-.5599-.1276-.974-.3307-1.2422-.6094-.2656-.2786-.3985-.6315-.3985-1.0586 0-.3541.099-.664.2969-.9297.1979-.2656.4714-.4726.8203-.6211.349-.151.7487-.2265 1.1993-.2265.6484 0 1.1588.1406 1.5312.4218.3724.2787.6185.6524.7383 1.1211zm4.2021-1.4648v.9375h-3.2773v-.9375zm-2.3984-1.4375h1.168v5.6758c0 .2265.0338.3971.1015.5117.0677.112.155.1888.2617.2305.1094.039.2279.0586.3555.0586.0938 0 .1758-.0065.2461-.0196.0703-.013.125-.0234.1641-.0312l.2109.9648c-.0677.0261-.1641.0521-.2891.0782-.125.0286-.2812.0442-.4687.0468-.3073.0052-.5938-.0495-.8594-.164-.2656-.1146-.4804-.2917-.6445-.5313s-.2461-.5404-.2461-.9023zm7.9756 7.4375v.9922h-5.082v-.9922zm2.4473-3.5625v3.5625h-1.168v-6h1.1211v.9766h.0742c.138-.3177.3542-.573.6484-.7657.2969-.1927.6706-.289 1.1211-.289.4089 0 .767.0859 1.0742.2578.3073.1693.5456.4219.7149.7578s.2539.7513.2539 1.2461v3.8164h-1.168v-3.6758c0-.4349-.1133-.7747-.3398-1.0195-.2266-.2474-.5378-.3711-.9336-.3711-.2708 0-.5117.0586-.7227.1758-.2083.1172-.3737.289-.4961.5156-.1198.224-.1796.4948-.1796.8125zm7.1523 3.6953c-.3802 0-.724-.0703-1.0313-.2109-.3072-.1433-.5507-.3503-.7304-.6211-.1771-.2709-.2656-.6029-.2656-.9961 0-.3386.0651-.6172.1953-.836.1302-.2187.306-.3919.5273-.5195.2214-.1276.4688-.2239.7422-.289s.5521-.1146.8359-.1485c.3594-.0416.6511-.0755.875-.1015.224-.0287.3868-.0743.4883-.1368.1016-.0625.1524-.164.1524-.3047v-.0273c0-.3411-.0964-.6055-.2891-.793-.1901-.1875-.474-.2812-.8516-.2812-.3932 0-.7031.0872-.9297.2617-.2239.1719-.3789.3633-.4648.5742l-1.0977-.25c.1303-.3646.3204-.6588.5704-.8828.2526-.2266.5429-.3906.8711-.4922.3281-.1041.6731-.1562 1.0351-.1562.2396 0 .4935.0286.7617.0859.2709.0547.5235.1563.7578.3047.237.1484.431.3607.5821.6367.151.2735.2265.6289.2265 1.0664v3.9844h-1.1406v-.8203h-.0469c-.0755.151-.1888.2995-.3398.4453-.1511.1458-.3451.2669-.582.3633-.237.0963-.5209.1445-.8516.1445zm.2539-.9375c.3229 0 .599-.0638.8281-.1914.2318-.1276.4076-.2943.5274-.5.1224-.2083.1836-.431.1836-.668v-.7734c-.0417.0417-.1224.0807-.2422.1172-.1172.0338-.2513.0638-.4024.0898-.151.0235-.2981.0456-.4414.0664-.1432.0183-.263.0339-.3593.0469-.2266.0287-.4336.0768-.6211.1445-.1849.0678-.3334.1654-.4454.293-.1093.125-.164.2917-.164.5 0 .2891.1068.5078.3203.6563.2135.1458.4857.2187.8164.2187zm4.2627.8047v-6h1.1211v.9766h.0742c.125-.3308.3294-.5886.6133-.7735.2838-.1875.6237-.2812 1.0195-.2812.4011 0 .737.0937 1.0078.2812.2735.1875.4753.4453.6055.7735h.0625c.1432-.3204.3711-.5756.6836-.7657.3125-.1927.6849-.289 1.1172-.289.5443 0 .9883.1705 1.332.5117.3464.3411.5195.8555.5195 1.543v4.0234h-1.1679v-3.9141c0-.4062-.1107-.7005-.3321-.8828-.2213-.1823-.4856-.2734-.7929-.2734-.3802 0-.6758.1172-.8867.3515-.211.2318-.3164.53-.3164.8946v3.8242h-1.1641v-3.9883c0-.3255-.1016-.5872-.3047-.7851-.2031-.198-.4674-.2969-.793-.2969-.2213 0-.4257.0586-.6132.1758-.1849.1146-.3347.2747-.4493.4804-.1119.2058-.1679.444-.1679.7149v3.6992zm12.3073.1211c-.591 0-1.1-.1263-1.527-.3789-.4245-.2552-.7526-.6133-.9844-1.0742-.2292-.4636-.3438-1.0065-.3438-1.6289 0-.6146.1146-1.1563.3438-1.625.2318-.4688.5547-.8347.9684-1.0977.417-.263.904-.3945 1.461-.3945.339 0 .667.056.985.1679.317.112.603.2878.855.5274.253.2396.452.5508.598.9336.146.3802.219.8424.219 1.3867v.4141h-4.77v-.875h3.625c0-.3073-.062-.5795-.187-.8164-.125-.2396-.301-.4284-.528-.5665-.224-.138-.487-.207-.789-.207-.328 0-.614.0807-.859.2422-.242.1589-.43.3672-.563.625-.13.2552-.195.5326-.195.832v.6836c0 .4011.07.7422.211 1.0235.143.2812.342.4961.598.6445.255.1458.553.2187.894.2187.221 0 .423-.0312.606-.0937.182-.0651.339-.1615.472-.2891s.235-.2851.305-.4726l1.105.1992c-.088.3255-.247.6107-.476.8555-.227.2422-.512.431-.856.5664-.341.1328-.73.1992-1.168.1992zm6.859-3.4609v.582c-.44 0-.748.0911-.922.2734-.175.1823-.262.4818-.262.8985v1.125c0 .3984-.045.733-.137 1.0039-.088.2734-.225.4922-.41.6562-.185.1641-.419.2826-.703.3555s-.618.1094-1.004.1094v-.9258c.302 0 .538-.0456.707-.1367.17-.0886.287-.2266.352-.4141.068-.1849.101-.4206.101-.707v-1.4219c0-.2005.03-.3854.09-.5547.06-.1719.171-.3203.332-.4453.162-.1276.392-.2253.692-.293.299-.0703.687-.1054 1.164-.1054zm-3.438-4.961c.386 0 .72.0365 1.004.1094s.518.1914.703.3555c.185.164.322.3828.41.6562.092.2708.137.6055.137 1.0039v1.1211c0 .4193.087.7201.262.9024.174.1796.482.2695.922.2695v.5859c-.477 0-.865-.0351-1.164-.1054-.3-.0704-.53-.168-.692-.293-.161-.125-.272-.2721-.332-.4414-.06-.1719-.09-.3581-.09-.5586v-1.4219c0-.2891-.033-.526-.101-.7109-.065-.1875-.182-.3255-.352-.4141-.169-.0885-.405-.1328-.707-.1328zm3.438 4.418v1.125h-1.082v-1.125zm4.157.543v.582c-.44 0-.747.0911-.922.2734-.174.1823-.262.4818-.262.8985v1.125c0 .3984-.045.733-.136 1.0039-.089.2734-.226.4922-.411.6562-.184.1641-.419.2826-.703.3555s-.618.1094-1.004.1094v-.9258c.303 0 .538-.0456.707-.1367.17-.0886.287-.2266.352-.4141.068-.1849.102-.4206.102-.707v-1.4219c0-.2005.03-.3854.089-.5547.06-.1719.171-.3203.332-.4453.162-.1276.392-.2253.692-.293.299-.0703.687-.1054 1.164-.1054zm-3.438-4.961c.386 0 .72.0365 1.004.1094s.519.1914.703.3555c.185.164.322.3828.411.6562.091.2708.136.6055.136 1.0039v1.1211c0 .4193.088.7201.262.9024.175.1796.482.2695.922.2695v.5859c-.477 0-.865-.0351-1.164-.1054-.3-.0704-.53-.168-.692-.293-.161-.125-.272-.2721-.332-.4414-.059-.1719-.089-.3581-.089-.5586v-1.4219c0-.2891-.034-.526-.102-.7109-.065-.1875-.182-.3255-.352-.4141-.169-.0885-.404-.1328-.707-.1328zm3.438 4.418v1.125h-1.082v-1.125z" fill="#0578d6"/><path d="m17.1449 86v-9.4545h1.1449v4.2102h5.0412v-4.2102h1.1449v9.4545h-1.1449v-4.2287h-5.0412v4.2287zm9.4753 0v-7.0909h1.0895v7.0909zm.554-8.2727c-.2124 0-.3955-.0724-.5494-.217-.1508-.1447-.2262-.3185-.2262-.5217 0-.2031.0754-.377.2262-.5216.1539-.1447.337-.217.5494-.217.2123 0 .3939.0723.5447.217.1539.1446.2309.3185.2309.5216 0 .2032-.077.377-.2309.5217-.1508.1446-.3324.217-.5447.217z" fill="#3a444f"/><path d="m15.92 157.72h9.024v7.2h-9.024zm6.8672 0h15.888v7.2h-15.888zm28.125 0h15.888v7.2h-15.888zm13.7344 0h15.888v7.2h-15.888zm13.7343 0h9.024v7.2h-9.024zm6.8672 0h15.8879v7.2h-15.8879zm13.7344 0h9.0245v7.2h-9.0245zm6.8675 0h15.888v7.2h-15.888zm13.734 0h15.888v7.2h-15.888zm28.125 0h15.888v7.2h-15.888zm13.734 0h9.024v7.2h-9.024zm6.868 0h9.024v7.2h-9.024zm6.867 0h15.888v7.2h-15.888zm28.125 0h15.888v7.2h-15.888zm13.734 0h9.024v7.2h-9.024zm6.867 0h15.888v7.2h-15.888zm13.735 0h15.888v7.2h-15.888zm13.734 0h9.024v7.2h-9.024zm21.258 0h15.888v7.2h-15.888zm13.734 0h15.888v7.2h-15.888zm13.735 0h15.888v7.2h-15.888zm13.734 0h15.888v7.2h-15.888zm-297.914 24h15.888v7.2h-15.888zm13.7344 0h15.888v7.2h-15.888zm13.7343 0h15.8881v7.2h-15.8881zm13.7344 0h15.888v7.2h-15.888zm13.7344 0h15.888v7.2h-15.888zm13.7344 0h15.8881v7.2h-15.8881zm13.7343 0h9.0238v7.2h-9.0238zm6.8668 0h15.888v7.2h-15.888zm13.735 0h15.888v7.2h-15.888zm13.734 0h9.024v7.2h-9.024zm21.258 0h15.888v7.2h-15.888zm13.734 0h15.888v7.2h-15.888zm13.735 0h15.888v7.2h-15.888zm28.125 0h15.888v7.2h-15.888zm13.734 0h9.024v7.2h-9.024zm21.258 0h9.024v7.2h-9.024zm6.867 0h15.888v7.2h-15.888zm13.734 0h15.889v7.2h-15.889zm28.125 0h15.889v7.2h-15.889zm13.735 0h15.888v7.2h-15.888zm13.734 0h15.888v7.2h-15.888zm-304.781 24h9.024v7.2h-9.024zm6.8672 0h15.888v7.2h-15.888zm13.7344 0h15.888v7.2h-15.888zm13.7343 0h15.888v7.2h-15.888zm13.7344 0h15.888v7.2h-15.888zm13.7344 0h15.888v7.2h-15.888zm28.1253 0h15.888v7.2h-15.888zm13.734 0h9.024v7.2h-9.024zm6.867 0h9.024v7.2h-9.024zm6.867 0h15.888v7.2h-15.888zm28.125 0h9.024v7.2h-9.024zm6.868 0h15.888v7.2h-15.888zm42.515 0h15.888v7.2h-15.888zm13.735 0h9.024v7.2h-9.024zm6.867 0h9.024v7.2h-9.024zm6.867 0h15.888v7.2h-15.888zm13.734 0h15.888v7.2h-15.888zm13.735 0h15.888v7.2h-15.888zm13.734 0h9.024v7.2h-9.024zm6.867 0h9.024v7.2h-9.024zm6.867 0h15.889v7.2h-15.889zm13.735 0h15.888v7.2h-15.888zm-291.047 24h9.024v7.2h-9.024zm6.8672 0h15.888v7.2h-15.888zm13.7344 0h15.888v7.2h-15.888zm28.125 0h9.024v7.2h-9.024zm6.8671 0h9.0241v7.2h-9.0241zm6.8672 0h15.888v7.2h-15.888zm13.7344 0h15.8877v7.2h-15.8877zm13.7347 0h9.024v7.2h-9.024zm21.257 0h15.889v7.2h-15.889zm13.735 0h15.888v7.2h-15.888zm13.734 0h9.024v7.2h-9.024zm6.867 0h15.888v7.2h-15.888zm13.735 0h15.888v7.2h-15.888zm13.734 0h15.888v7.2h-15.888zm13.735 0h9.024v7.2h-9.024zm21.257 0h15.888v7.2h-15.888zm13.735 0h15.888v7.2h-15.888zm13.734 0h15.888v7.2h-15.888zm-235.453 24h9.024v7.2h-9.024zm6.8672 0h15.888v7.2h-15.888zm13.7344 0h15.888v7.2h-15.888zm13.7343 0h15.888v7.2h-15.888zm13.7344 0h15.888v7.2h-15.888zm13.7344 0h15.888v7.2h-15.888z" fill="#dfe3e8"/><path d="m19.2898 106.545v9.455h-1.1449v-9.455zm6.8935 5.189v4.266h-1.0895v-7.091h1.0526v1.108h.0923c.1662-.36.4186-.649.7571-.868.3386-.221.7756-.332 1.3111-.332.4801 0 .9002.098 1.2603.295.3601.194.6402.49.8402.887.2001.394.3001.892.3001 1.495v4.506h-1.0895v-4.432c0-.557-.1447-.991-.434-1.302-.2893-.314-.6863-.471-1.191-.471-.3478 0-.6586.076-.9325.227-.2709.15-.4848.371-.6417.66-.157.289-.2355.64-.2355 1.052zm9.3957 4.414c-.6401 0-1.2018-.153-1.685-.457-.4801-.305-.8556-.731-1.1264-1.279-.2678-.548-.4017-1.188-.4017-1.921 0-.738.1339-1.383.4017-1.934.2708-.551.6463-.979 1.1264-1.283.4832-.305 1.0449-.457 1.685-.457.6402 0 1.2003.152 1.6804.457.4832.304.8587.732 1.1264 1.283.2709.551.4063 1.196.4063 1.934 0 .733-.1354 1.373-.4063 1.921-.2677.548-.6432.974-1.1264 1.279-.4801.304-1.0402.457-1.6804.457zm0-.979c.4863 0 .8864-.125 1.2003-.374s.5463-.577.6971-.983.2262-.847.2262-1.321c0-.473-.0754-.915-.2262-1.324-.1508-.41-.3832-.741-.6971-.993s-.714-.379-1.2003-.379-.8864.127-1.2003.379-.5463.583-.6971.993c-.1508.409-.2262.851-.2262 1.324 0 .474.0754.915.2262 1.321s.3832.734.6971.983.714.374 1.2003.374zm7.96-6.26v.923h-3.6747v-.923zm-2.6037-1.699h1.0895v6.759c0 .308.0446.538.1338.692.0924.151.2093.253.3509.305.1446.049.297.074.457.074.1201 0 .2185-.006.2955-.019.0769-.015.1385-.027.1846-.037l.2216.979c-.0738.028-.1769.055-.3093.083-.1323.031-.3.046-.5032.046-.3077 0-.6093-.066-.9048-.198-.2924-.133-.5355-.334-.7294-.605-.1908-.271-.2862-.612-.2862-1.025zm4.2425 8.79v-7.091h1.0895v7.091zm.554-8.273c-.2124 0-.3955-.072-.5494-.217-.1508-.144-.2262-.318-.2262-.521s.0754-.377.2262-.522c.1539-.145.337-.217.5494-.217s.3939.072.5447.217c.1539.145.2309.319.2309.522s-.077.377-.2309.521c-.1508.145-.3323.217-.5447.217zm5.4117 8.421c-.6648 0-1.2372-.157-1.7174-.471-.4801-.314-.8494-.746-1.1079-1.297s-.3878-1.181-.3878-1.889c0-.72.1323-1.355.397-1.906.2678-.554.6402-.987 1.1172-1.297.4801-.314 1.0402-.471 1.6804-.471.4986 0 .9479.092 1.348.277.4001.184.7279.443.9833.775.2555.333.414.72.4755 1.164h-1.0895c-.0831-.323-.2677-.61-.5539-.859-.2832-.252-.6648-.379-1.1449-.379-.4247 0-.7971.111-1.1172.333-.317.218-.5648.528-.7433.928-.1754.397-.2631.863-.2631 1.399 0 .547.0862 1.024.2585 1.431.1754.406.4216.721.7386.946.3201.225.6956.337 1.1265.337.2831 0 .5401-.049.7709-.148.2308-.098.4263-.24.5863-.424.16-.185.2739-.407.3416-.665h1.0895c-.0615.418-.2139.795-.457 1.131-.2401.332-.5586.597-.9556.794-.394.194-.8525.291-1.3757.291zm7.354 0c-.6832 0-1.2726-.151-1.7681-.453-.4924-.304-.8725-.729-1.1403-1.274-.2646-.548-.397-1.185-.397-1.911s.1324-1.367.397-1.921c.2678-.557.6402-.991 1.1172-1.301.4801-.314 1.0403-.471 1.6804-.471.3693 0 .734.061 1.0941.184.3601.124.6879.324.9833.601.2955.273.5309.637.7064 1.089.1754.452.2631 1.01.2631 1.671v.462h-5.4659v-.942h4.3579c0-.4-.08-.757-.24-1.071-.157-.314-.3816-.562-.674-.743-.2893-.182-.6309-.273-1.0249-.273-.4339 0-.8094.108-1.1264.324-.3139.212-.5555.489-.7248.831-.1693.341-.2539.707-.2539 1.098v.628c0 .536.0923.99.277 1.362.1877.369.4478.651.7802.845.3324.191.7186.286 1.1587.286.2862 0 .5448-.04.7756-.12.2339-.083.4355-.206.6047-.369.1693-.167.3001-.373.3924-.619l1.0526.296c-.1108.357-.297.67-.5586.941-.2616.268-.5847.477-.9695.628-.3847.148-.8171.222-1.2972.222zm7.271 0c-.5909 0-1.1126-.15-1.565-.448-.4524-.302-.8064-.726-1.0618-1.274-.2555-.551-.3832-1.202-.3832-1.953 0-.745.1277-1.391.3832-1.939.2554-.548.6109-.971 1.0664-1.269.4555-.299.9818-.448 1.5788-.448.4617 0 .8264.077 1.0941.231.2709.15.4771.323.6186.517.1447.19.257.347.337.471h.0924v-3.491h1.0895v9.455h-1.0526v-1.089h-.1293c-.08.129-.1938.292-.3416.489-.1477.194-.3585.368-.6324.522-.2739.15-.6386.226-1.0941.226zm.1477-.979c.437 0 .8063-.114 1.1079-.342.3017-.23.5309-.549.6879-.955.157-.41.2354-.882.2354-1.417 0-.53-.0769-.993-.2308-1.39-.1539-.4-.3816-.711-.6832-.933-.3016-.224-.674-.337-1.1172-.337-.4617 0-.8464.119-1.1541.356-.3047.234-.534.552-.6879.956-.1508.4-.2262.849-.2262 1.348 0 .504.077.963.2308 1.375.157.41.3878.736.6925.979.3078.24.6894.36 1.1449.36zm9.6069 3.49c-.1847 0-.3493-.015-.494-.046-.1446-.028-.2447-.055-.3001-.083l.277-.96c.2647.067.4986.092.7017.073.2032-.018.3832-.109.5402-.272.16-.16.3062-.42.4385-.78l.2032-.554-2.6222-7.128h1.1818l1.9574 5.651h.0739l1.9574-5.651h1.1818l-3.01 8.125c-.1354.366-.3031.669-.5032.91-.2.243-.4324.423-.6971.54-.2616.117-.557.175-.8863.175zm9.1614-2.511c-.6402 0-1.2018-.153-1.685-.457-.4801-.305-.8556-.731-1.1265-1.279-.2677-.548-.4016-1.188-.4016-1.921 0-.738.1339-1.383.4016-1.934.2709-.551.6464-.979 1.1265-1.283.4832-.305 1.0448-.457 1.685-.457.6401 0 1.2003.152 1.6804.457.4832.304.8586.732 1.1264 1.283.2708.551.4062 1.196.4062 1.934 0 .733-.1354 1.373-.4062 1.921-.2678.548-.6432.974-1.1264 1.279-.4801.304-1.0403.457-1.6804.457zm0-.979c.4863 0 .8863-.125 1.2003-.374.3139-.249.5462-.577.6971-.983.1508-.406.2262-.847.2262-1.321 0-.473-.0754-.915-.2262-1.324-.1509-.41-.3832-.741-.6971-.993-.314-.252-.714-.379-1.2003-.379s-.8864.127-1.2003.379-.5463.583-.6971.993c-.1508.409-.2262.851-.2262 1.324 0 .474.0754.915.2262 1.321s.3832.734.6971.983.714.374 1.2003.374zm9.3449-2.068v-4.192h1.0895v7.091h-1.0895v-1.2h-.0739c-.1662.36-.4247.666-.7755.918-.3509.25-.7941.374-1.3296.374-.4432 0-.8371-.097-1.1818-.291-.3447-.196-.6155-.492-.8125-.886-.197-.397-.2955-.897-.2955-1.5v-4.506h1.0895v4.432c0 .517.1447.929.434 1.237.2924.308.6647.462 1.1172.462.2708 0 .5462-.069.8263-.208.2832-.138.5201-.351.7109-.637.1939-.286.2909-.651.2909-1.094zm7.8306-1.367v4.266h-1.089v-9.455h1.089v3.472h.092c.167-.366.416-.657.748-.872.336-.219.782-.328 1.339-.328.483 0 .906.097 1.27.291.363.19.644.484.844.881.204.394.305.896.305 1.505v4.506h-1.089v-4.432c0-.563-.147-.999-.439-1.306-.289-.311-.691-.467-1.205-.467-.357 0-.677.076-.96.227-.28.15-.502.371-.665.66-.16.289-.24.64-.24 1.052zm8.678 4.432c-.449 0-.857-.084-1.223-.254-.367-.172-.658-.42-.873-.743-.215-.326-.323-.72-.323-1.182 0-.406.08-.735.24-.988.16-.255.374-.455.642-.6.267-.145.563-.252.886-.323.326-.074.654-.132.983-.175.431-.056.78-.097 1.048-.125.271-.031.468-.082.591-.152.126-.071.189-.194.189-.37v-.037c0-.455-.124-.809-.374-1.061-.246-.253-.62-.379-1.121-.379-.52 0-.928.114-1.224.342-.295.227-.503.47-.623.729l-1.034-.369c.185-.431.431-.767.739-1.007.31-.243.649-.412 1.015-.508.37-.098.733-.147 1.09-.147.227 0 .489.027.785.083.298.052.586.161.863.328.28.166.512.417.697.752.185.336.277.785.277 1.348v4.672h-1.09v-.96h-.055c-.074.154-.197.318-.369.494-.173.175-.402.324-.688.448-.286.123-.636.184-1.048.184zm.166-.978c.431 0 .794-.085 1.09-.254.298-.17.523-.388.674-.656.153-.268.23-.549.23-.845v-.997c-.046.055-.147.106-.304.152-.154.044-.333.082-.536.116-.2.031-.395.058-.586.083-.188.021-.34.04-.457.055-.283.037-.548.097-.794.18-.243.08-.44.202-.591.365-.148.16-.222.379-.222.656 0 .378.14.664.42.858.284.191.642.287 1.076.287zm10.617-6.279-2.622 7.091h-1.108l-2.622-7.091h1.181l1.958 5.651h.074l1.957-5.651zm4.157 7.239c-.683 0-1.273-.151-1.768-.453-.493-.304-.873-.729-1.14-1.274-.265-.548-.397-1.185-.397-1.911s.132-1.367.397-1.921c.267-.557.64-.991 1.117-1.301.48-.314 1.04-.471 1.68-.471.37 0 .734.061 1.094.184.36.124.688.324.984.601.295.273.53.637.706 1.089.175.452.263 1.01.263 1.671v.462h-5.466v-.942h4.358c0-.4-.08-.757-.24-1.071-.157-.314-.382-.562-.674-.743-.289-.182-.631-.273-1.025-.273-.434 0-.809.108-1.126.324-.314.212-.556.489-.725.831-.169.341-.254.707-.254 1.098v.628c0 .536.092.99.277 1.362.188.369.448.651.78.845.333.191.719.286 1.159.286.286 0 .545-.04.776-.12.233-.083.435-.206.604-.369.17-.167.3-.373.393-.619l1.052.296c-.111.357-.297.67-.558.941-.262.268-.585.477-.97.628-.384.148-.817.222-1.297.222zm9.339-4.414v4.266h-1.089v-9.455h1.089v3.472h.092c.167-.366.416-.657.748-.872.336-.219.782-.328 1.339-.328.483 0 .906.097 1.27.291.363.19.644.484.844.881.204.394.305.896.305 1.505v4.506h-1.089v-4.432c0-.563-.147-.999-.439-1.306-.289-.311-.691-.467-1.205-.467-.357 0-.677.076-.96.227-.28.15-.502.371-.665.66-.16.289-.24.64-.24 1.052zm8.678 4.432c-.449 0-.857-.084-1.223-.254-.367-.172-.658-.42-.873-.743-.215-.326-.323-.72-.323-1.182 0-.406.08-.735.24-.988.16-.255.374-.455.642-.6.267-.145.563-.252.886-.323.326-.074.654-.132.983-.175.431-.056.781-.097 1.048-.125.271-.031.468-.082.591-.152.126-.071.189-.194.189-.37v-.037c0-.455-.124-.809-.373-1.061-.247-.253-.621-.379-1.122-.379-.52 0-.928.114-1.224.342-.295.227-.503.47-.623.729l-1.034-.369c.185-.431.431-.767.739-1.007.311-.243.649-.412 1.015-.508.37-.098.733-.147 1.09-.147.228 0 .489.027.785.083.298.052.586.161.863.328.28.166.512.417.697.752.185.336.277.785.277 1.348v4.672h-1.09v-.96h-.055c-.074.154-.197.318-.369.494-.173.175-.402.324-.688.448-.286.123-.636.184-1.048.184zm.166-.978c.431 0 .794-.085 1.09-.254.298-.17.523-.388.674-.656.154-.268.23-.549.23-.845v-.997c-.046.055-.147.106-.304.152-.154.044-.333.082-.536.116-.2.031-.395.058-.586.083-.188.021-.34.04-.457.055-.283.037-.548.097-.794.18-.243.08-.44.202-.591.365-.148.16-.222.379-.222.656 0 .378.14.664.42.858.284.191.642.287 1.076.287zm7.75.96c-.591 0-1.113-.15-1.565-.448-.452-.302-.806-.726-1.062-1.274-.255-.551-.383-1.202-.383-1.953 0-.745.128-1.391.383-1.939.256-.548.611-.971 1.067-1.269.455-.299.981-.448 1.579-.448.461 0 .826.077 1.094.231.27.15.477.323.618.517.145.19.257.347.337.471h.093v-3.491h1.089v9.455h-1.053v-1.089h-.129c-.08.129-.194.292-.341.489-.148.194-.359.368-.633.522-.274.15-.638.226-1.094.226zm.148-.979c.437 0 .806-.114 1.108-.342.301-.23.531-.549.688-.955.157-.41.235-.882.235-1.417 0-.53-.077-.993-.231-1.39-.154-.4-.381-.711-.683-.933-.302-.224-.674-.337-1.117-.337-.462 0-.847.119-1.154.356-.305.234-.534.552-.688.956-.151.4-.226.849-.226 1.348 0 .504.077.963.23 1.375.157.41.388.736.693.979.308.24.689.36 1.145.36zm10.992.997c-.45 0-.858-.084-1.224-.254-.366-.172-.657-.42-.872-.743-.216-.326-.323-.72-.323-1.182 0-.406.08-.735.24-.988.16-.255.374-.455.641-.6.268-.145.564-.252.887-.323.326-.074.654-.132.983-.175.431-.056.78-.097 1.048-.125.271-.031.468-.082.591-.152.126-.071.189-.194.189-.37v-.037c0-.455-.125-.809-.374-1.061-.246-.253-.62-.379-1.122-.379-.52 0-.928.114-1.223.342-.295.227-.503.47-.623.729l-1.034-.369c.184-.431.431-.767.738-1.007.311-.243.65-.412 1.016-.508.369-.098.732-.147 1.089-.147.228 0 .49.027.785.083.299.052.587.161.864.328.28.166.512.417.697.752.184.336.277.785.277 1.348v4.672h-1.09v-.96h-.055c-.074.154-.197.318-.37.494-.172.175-.401.324-.687.448-.287.123-.636.184-1.048.184zm.166-.978c.431 0 .794-.085 1.089-.254.299-.17.523-.388.674-.656.154-.268.231-.549.231-.845v-.997c-.046.055-.148.106-.305.152-.153.044-.332.082-.535.116-.2.031-.396.058-.586.083-.188.021-.34.04-.457.055-.284.037-.548.097-.794.18-.244.08-.441.202-.591.365-.148.16-.222.379-.222.656 0 .378.14.664.42.858.283.191.642.287 1.076.287zm8.728.812v-7.091h1.053v1.071h.074c.129-.351.363-.635.702-.854.338-.218.72-.328 1.144-.328.08 0 .18.002.3.005.121.003.211.008.273.014v1.108c-.037-.01-.122-.023-.254-.042-.129-.021-.266-.032-.411-.032-.345 0-.652.072-.923.217-.268.141-.48.338-.637.591-.154.249-.231.534-.231.854v4.487zm7.502.148c-.64 0-1.202-.153-1.685-.457-.48-.305-.855-.731-1.126-1.279-.268-.548-.402-1.188-.402-1.921 0-.738.134-1.383.402-1.934.271-.551.646-.979 1.126-1.283.483-.305 1.045-.457 1.685-.457s1.2.152 1.681.457c.483.304.858.732 1.126 1.283.271.551.406 1.196.406 1.934 0 .733-.135 1.373-.406 1.921-.268.548-.643.974-1.126 1.279-.481.304-1.041.457-1.681.457zm0-.979c.486 0 .887-.125 1.2-.374.314-.249.547-.577.698-.983.15-.406.226-.847.226-1.321 0-.473-.076-.915-.226-1.324-.151-.41-.384-.741-.698-.993-.313-.252-.714-.379-1.2-.379s-.886.127-1.2.379-.546.583-.697.993c-.151.409-.226.851-.226 1.324 0 .474.075.915.226 1.321s.383.734.697.983.714.374 1.2.374zm5.966-8.624v9.455h-1.09v-9.455zm4.968 9.603c-.683 0-1.272-.151-1.768-.453-.492-.304-.872-.729-1.14-1.274-.265-.548-.397-1.185-.397-1.911s.132-1.367.397-1.921c.268-.557.64-.991 1.117-1.301.48-.314 1.04-.471 1.681-.471.369 0 .734.061 1.094.184.36.124.687.324.983.601.295.273.531.637.706 1.089.176.452.263 1.01.263 1.671v.462h-5.466v-.942h4.358c0-.4-.08-.757-.24-1.071-.157-.314-.381-.562-.674-.743-.289-.182-.631-.273-1.024-.273-.434 0-.81.108-1.127.324-.314.212-.555.489-.725.831-.169.341-.254.707-.254 1.098v.628c0 .536.093.99.277 1.362.188.369.448.651.781.845.332.191.718.286 1.158.286.287 0 .545-.04.776-.12.234-.083.435-.206.605-.369.169-.167.3-.373.392-.619l1.053.296c-.111.357-.297.67-.559.941-.262.268-.585.477-.969.628-.385.148-.818.222-1.298.222zm11.408-7.239v.923h-3.823v-.923zm-2.678 7.091v-8.07c0-.406.095-.744.286-1.015s.439-.474.744-.61c.304-.135.626-.203.964-.203.268 0 .487.022.656.065s.295.083.378.12l-.313.942c-.056-.019-.133-.042-.231-.07-.096-.027-.222-.041-.379-.041-.36 0-.62.091-.78.272-.157.182-.235.448-.235.799v7.811zm6.793.148c-.64 0-1.202-.153-1.685-.457-.48-.305-.855-.731-1.126-1.279-.268-.548-.402-1.188-.402-1.921 0-.738.134-1.383.402-1.934.271-.551.646-.979 1.126-1.283.483-.305 1.045-.457 1.685-.457s1.2.152 1.681.457c.483.304.858.732 1.126 1.283.271.551.406 1.196.406 1.934 0 .733-.135 1.373-.406 1.921-.268.548-.643.974-1.126 1.279-.481.304-1.041.457-1.681.457zm0-.979c.486 0 .887-.125 1.2-.374.314-.249.547-.577.698-.983.15-.406.226-.847.226-1.321 0-.473-.076-.915-.226-1.324-.151-.41-.384-.741-.698-.993-.313-.252-.714-.379-1.2-.379s-.886.127-1.2.379-.546.583-.697.993c-.151.409-.226.851-.226 1.324 0 .474.075.915.226 1.321s.383.734.697.983.714.374 1.2.374zm4.876.831v-7.091h1.053v1.071h.074c.129-.351.363-.635.701-.854.339-.218.721-.328 1.145-.328.08 0 .18.002.3.005s.211.008.273.014v1.108c-.037-.01-.122-.023-.254-.042-.129-.021-.266-.032-.411-.032-.345 0-.652.072-.923.217-.268.141-.48.338-.637.591-.154.249-.231.534-.231.854v4.487zm91.812.148c-.64 0-1.202-.153-1.685-.457-.48-.305-.856-.731-1.127-1.279-.267-.548-.401-1.188-.401-1.921 0-.738.134-1.383.401-1.934.271-.551.647-.979 1.127-1.283.483-.305 1.045-.457 1.685-.457s1.2.152 1.68.457c.483.304.859.732 1.127 1.283.27.551.406 1.196.406 1.934 0 .733-.136 1.373-.406 1.921-.268.548-.644.974-1.127 1.279-.48.304-1.04.457-1.68.457zm0-.979c.486 0 .886-.125 1.2-.374s.546-.577.697-.983.226-.847.226-1.321c0-.473-.075-.915-.226-1.324-.151-.41-.383-.741-.697-.993s-.714-.379-1.2-.379c-.487 0-.887.127-1.201.379-.313.252-.546.583-.697.993-.15.409-.226.851-.226 1.324 0 .474.076.915.226 1.321.151.406.384.734.697.983.314.249.714.374 1.201.374zm4.876 3.49v-9.75h1.052v1.127h.13c.08-.124.19-.281.332-.471.145-.194.351-.367.619-.517.271-.154.637-.231 1.098-.231.597 0 1.124.149 1.579.448.456.298.811.721 1.067 1.269.255.548.383 1.194.383 1.939 0 .751-.128 1.402-.383 1.953-.256.548-.61.972-1.062 1.274-.453.298-.974.448-1.565.448-.456 0-.82-.076-1.094-.226-.274-.154-.485-.328-.633-.522-.147-.197-.261-.36-.341-.489h-.093v3.748zm1.071-6.204c0 .535.078 1.007.235 1.417.157.406.387.725.688.955.302.228.671.342 1.108.342.456 0 .836-.12 1.14-.36.308-.243.539-.569.693-.979.157-.412.235-.871.235-1.375 0-.499-.077-.948-.231-1.348-.15-.404-.38-.722-.687-.956-.305-.237-.688-.356-1.15-.356-.443 0-.815.113-1.117.337-.302.222-.529.533-.683.933-.154.397-.231.86-.231 1.39zm9.824 3.693c-.683 0-1.273-.151-1.768-.453-.493-.304-.873-.729-1.141-1.274-.264-.548-.397-1.185-.397-1.911s.133-1.367.397-1.921c.268-.557.641-.991 1.118-1.301.48-.314 1.04-.471 1.68-.471.369 0 .734.061 1.094.184.36.124.688.324.983.601.296.273.531.637.707 1.089.175.452.263 1.01.263 1.671v.462h-5.466v-.942h4.358c0-.4-.08-.757-.24-1.071-.157-.314-.382-.562-.674-.743-.289-.182-.631-.273-1.025-.273-.434 0-.809.108-1.126.324-.314.212-.556.489-.725.831-.17.341-.254.707-.254 1.098v.628c0 .536.092.99.277 1.362.188.369.448.651.78.845.332.191.719.286 1.159.286.286 0 .544-.04.775-.12.234-.083.436-.206.605-.369.169-.167.3-.373.392-.619l1.053.296c-.111.357-.297.67-.559.941-.261.268-.584.477-.969.628-.385.148-.817.222-1.297.222zm5.683-4.414v4.266h-1.09v-7.091h1.053v1.108h.092c.166-.36.419-.649.757-.868.339-.221.776-.332 1.311-.332.48 0 .9.098 1.261.295.36.194.64.49.84.887.2.394.3.892.3 1.495v4.506h-1.09v-4.432c0-.557-.144-.991-.434-1.302-.289-.314-.686-.471-1.191-.471-.347 0-.658.076-.932.227-.271.15-.485.371-.642.66s-.235.64-.235 1.052zm13.329-2.825v.923h-3.823v-.923zm-2.678 7.091v-8.07c0-.406.095-.744.286-1.015s.439-.474.743-.61c.305-.135.627-.203.965-.203.268 0 .487.022.656.065s.295.083.378.12l-.314.942c-.055-.019-.132-.042-.23-.07-.096-.027-.222-.041-.379-.041-.36 0-.62.091-.78.272-.157.182-.236.448-.236.799v7.811zm6.793.148c-.64 0-1.202-.153-1.685-.457-.48-.305-.855-.731-1.126-1.279-.268-.548-.402-1.188-.402-1.921 0-.738.134-1.383.402-1.934.271-.551.646-.979 1.126-1.283.483-.305 1.045-.457 1.685-.457s1.2.152 1.681.457c.483.304.858.732 1.126 1.283.271.551.406 1.196.406 1.934 0 .733-.135 1.373-.406 1.921-.268.548-.643.974-1.126 1.279-.481.304-1.041.457-1.681.457zm0-.979c.486 0 .887-.125 1.2-.374.314-.249.547-.577.698-.983.15-.406.226-.847.226-1.321 0-.473-.076-.915-.226-1.324-.151-.41-.384-.741-.698-.993-.313-.252-.714-.379-1.2-.379s-.886.127-1.2.379-.546.583-.697.993c-.151.409-.226.851-.226 1.324 0 .474.075.915.226 1.321s.383.734.697.983.714.374 1.2.374zm4.876.831v-7.091h1.053v1.071h.074c.129-.351.363-.635.701-.854.339-.218.721-.328 1.145-.328.08 0 .18.002.3.005s.211.008.273.014v1.108c-.037-.01-.122-.023-.254-.042-.129-.021-.266-.032-.411-.032-.345 0-.652.072-.923.217-.268.141-.48.338-.637.591-.154.249-.231.534-.231.854v4.487zm-325.7822 24.166c-.4493 0-.8571-.084-1.2234-.254-.3662-.172-.657-.42-.8725-.743-.2154-.326-.3231-.72-.3231-1.182 0-.406.08-.735.24-.988.1601-.255.374-.455.6417-.6.2678-.145.5632-.252.8864-.323.3262-.074.654-.132.9833-.175.4309-.056.7802-.097 1.0479-.125.2709-.031.4678-.082.5909-.152.1262-.071.1893-.194.1893-.37v-.037c0-.455-.1246-.809-.3739-1.061-.2462-.253-.6202-.379-1.1218-.379-.5201 0-.9279.114-1.2234.342-.2954.227-.5032.47-.6232.729l-1.0341-.369c.1847-.431.4309-.767.7386-1.007.3109-.243.6494-.412 1.0157-.508.3693-.098.7324-.147 1.0894-.147.2278 0 .4894.027.7848.083.2986.052.5863.161.8633.328.2801.166.5125.417.6971.752.1847.336.277.785.277 1.348v4.672h-1.0895v-.96h-.0554c-.0738.154-.1969.318-.3693.494-.1723.175-.4016.324-.6879.448-.2862.123-.6355.184-1.0479.184zm.1662-.978c.4309 0 .794-.085 1.0895-.254.2985-.17.5232-.388.674-.656.1539-.268.2308-.549.2308-.845v-.997c-.0461.055-.1477.106-.3047.152-.1539.044-.3324.082-.5355.116-.2.031-.3955.058-.5863.083-.1877.021-.3401.04-.457.055-.2831.037-.5478.097-.794.18-.2432.08-.4401.202-.5909.365-.1478.16-.2216.379-.2216.656 0 .378.14.664.4201.858.2831.191.6417.287 1.0756.287zm11.8863-6.279v.923h-3.8225v-.923zm-2.6776 7.091v-8.07c0-.406.0954-.744.2862-1.015.1909-.271.4386-.474.7433-.61.3047-.135.6263-.203.9648-.203.2678 0 .4863.022.6556.065.1692.043.2954.083.3785.12l-.3139.942c-.0554-.019-.1323-.042-.2308-.07-.0954-.027-.2216-.041-.3786-.041-.3601 0-.6201.091-.7802.272-.1569.182-.2354.448-.2354.799v7.811zm6.8855.148c-.6832 0-1.2726-.151-1.7681-.453-.4924-.304-.8725-.729-1.1403-1.274-.2647-.548-.397-1.185-.397-1.911s.1323-1.367.397-1.921c.2678-.557.6402-.991 1.1172-1.301.4801-.314 1.0402-.471 1.6804-.471.3693 0 .734.061 1.0941.184.3601.124.6879.324.9833.601.2955.273.5309.637.7063 1.089.1755.452.2632 1.01.2632 1.671v.462h-5.4659v-.942h4.3579c0-.4-.08-.757-.24-1.071-.157-.314-.3817-.562-.674-.743-.2893-.182-.631-.273-1.0249-.273-.434 0-.8094.108-1.1264.324-.3139.212-.5555.489-.7248.831-.1693.341-.2539.707-.2539 1.098v.628c0 .536.0923.99.277 1.362.1877.369.4478.651.7802.845.3323.191.7186.286 1.1587.286.2862 0 .5447-.04.7756-.12.2339-.083.4354-.206.6047-.369.1693-.167.3001-.373.3924-.619l1.0526.296c-.1108.357-.297.67-.5586.941-.2616.268-.5848.477-.9695.628-.3847.148-.8171.222-1.2972.222zm6.1999-.148-2.1605-7.091h1.1449l1.5327 5.429h.0738l1.5142-5.429h1.1634l1.4957 5.411h.0739l1.5327-5.411h1.1448l-2.1605 7.091h-1.071l-1.5511-5.447h-.1108l-1.5512 5.447zm14.2188 0-2.1605-7.091h1.1448l1.5327 5.429h.0739l1.5142-5.429h1.1633l1.4958 5.411h.0738l1.5327-5.411h1.1449l-2.1605 7.091h-1.071l-1.5512-5.447h-.1108l-1.5511 5.447zm11.6877.148c-.6832 0-1.2726-.151-1.7681-.453-.4924-.304-.8725-.729-1.1402-1.274-.2647-.548-.3971-1.185-.3971-1.911s.1324-1.367.3971-1.921c.2677-.557.6401-.991 1.1171-1.301.4802-.314 1.0403-.471 1.6804-.471.3694 0 .7341.061 1.0941.184.3601.124.6879.324.9834.601.2954.273.5309.637.7063 1.089s.2631 1.01.2631 1.671v.462h-5.4659v-.942h4.358c0-.4-.0801-.757-.2401-1.071-.157-.314-.3816-.562-.674-.743-.2893-.182-.6309-.273-1.0249-.273-.4339 0-.8094.108-1.1264.324-.3139.212-.5555.489-.7248.831-.1692.341-.2539.707-.2539 1.098v.628c0 .536.0924.99.277 1.362.1878.369.4478.651.7802.845.3324.191.7186.286 1.1587.286.2863 0 .5448-.04.7756-.12.2339-.083.4355-.206.6048-.369.1692-.167.3-.373.3924-.619l1.0525.296c-.1108.357-.297.67-.5586.941-.2616.268-.5847.477-.9694.628-.3847.148-.8171.222-1.2973.222zm7.5664 0c-.6832 0-1.2726-.151-1.7681-.453-.4924-.304-.8725-.729-1.1402-1.274-.2647-.548-.3971-1.185-.3971-1.911s.1324-1.367.3971-1.921c.2677-.557.6401-.991 1.1172-1.301.4801-.314 1.0402-.471 1.6803-.471.3694 0 .7341.061 1.0942.184.36.124.6878.324.9833.601.2954.273.5309.637.7063 1.089s.2631 1.01.2631 1.671v.462h-5.4659v-.942h4.358c0-.4-.08-.757-.2401-1.071-.1569-.314-.3816-.562-.674-.743-.2893-.182-.6309-.273-1.0249-.273-.4339 0-.8094.108-1.1264.324-.3139.212-.5555.489-.7248.831-.1692.341-.2539.707-.2539 1.098v.628c0 .536.0924.99.277 1.362.1878.369.4478.651.7802.845.3324.191.7186.286 1.1587.286.2863 0 .5448-.04.7756-.12.2339-.083.4355-.206.6048-.369.1692-.167.3-.373.3924-.619l1.0525.296c-.1108.357-.297.67-.5586.941-.2616.268-.5847.477-.9694.628-.3847.148-.8171.222-1.2973.222zm5.6091-2.733-.0185-1.348h.2216l3.1023-3.158h1.348l-3.3054 3.342h-.0924zm-1.0157 2.585v-9.455h1.0895v9.455zm4.5057 0-2.7699-3.509.7756-.757 3.3793 4.266zm7.5884-5.503-.9787.277c-.0616-.163-.1524-.321-.2724-.475-.117-.157-.277-.287-.4801-.388-.2031-.102-.4632-.152-.7802-.152-.434 0-.7956.1-1.0849.3-.2862.197-.4293.447-.4293.752 0 .271.0985.485.2954.642.197.157.5048.288.9233.392l1.0526.259c.634.154 1.1064.389 1.4173.706.3108.314.4662.719.4662 1.214 0 .406-.1169.77-.3508 1.09-.2309.32-.554.572-.9695.757-.4155.184-.8987.277-1.4496.277-.7232 0-1.3218-.157-1.7958-.471-.4739-.314-.774-.773-.9002-1.376l1.0341-.258c.0985.381.2847.667.5586.858.277.191.6386.287 1.0849.287.5078 0 .911-.108 1.2095-.324.3016-.218.4524-.48.4524-.784 0-.247-.0862-.453-.2585-.619-.1724-.169-.4371-.296-.7941-.379l-1.1818-.277c-.6494-.153-1.1264-.392-1.4311-.715-.3016-.326-.4524-.734-.4524-1.224 0-.4.1123-.754.337-1.061.2277-.308.5371-.55.9279-.725.394-.176.8402-.263 1.3388-.263.7017 0 1.2526.154 1.6527.461.4032.308.6894.714.8587 1.219zm2.5633 5.577c-.2278 0-.4232-.082-.5863-.245-.1632-.163-.2447-.358-.2447-.586s.0815-.423.2447-.586c.1631-.164.3585-.245.5863-.245.2277 0 .4231.081.5862.245.1632.163.2447.358.2447.586 0 .151-.0384.289-.1154.415-.0739.127-.1739.228-.3001.305-.1231.074-.2616.111-.4154.111z" fill="#3a444f"/><rect fill="#e6f4ff" height="20" rx="2" width="75" x="219" y="101"/><path d="m227.383 111.703v-.586c.44 0 .747-.09.922-.269.174-.183.261-.483.261-.903v-1.121c0-.398.045-.733.133-1.004.091-.273.229-.492.414-.656s.42-.282.703-.355c.284-.073.619-.11 1.004-.11v.926c-.302 0-.537.044-.707.133-.169.088-.287.226-.355.414-.065.185-.098.422-.098.711v1.422c0 .2-.03.386-.09.558-.06.17-.17.317-.332.442-.161.125-.392.222-.691.293-.3.07-.688.105-1.164.105zm3.437 4.961c-.385 0-.72-.036-1.004-.109-.283-.073-.518-.192-.703-.356s-.323-.383-.414-.656c-.088-.271-.133-.606-.133-1.004v-1.125c0-.417-.087-.716-.261-.898-.175-.183-.482-.274-.922-.274v-.582c.476 0 .864.035 1.164.106.299.067.53.165.691.293.162.125.272.273.332.445.06.169.09.354.09.555v1.421c0 .287.033.523.098.708.068.187.186.325.355.414.17.091.405.136.707.136zm-3.437-4.422v-1.125h1.082v1.125zm4.157-.539v-.586c.44 0 .747-.09.922-.269.174-.183.262-.483.262-.903v-1.121c0-.398.044-.733.132-1.004.092-.273.23-.492.415-.656.184-.164.419-.282.703-.355.283-.073.618-.11 1.004-.11v.926c-.303 0-.538.044-.707.133-.17.088-.288.226-.356.414-.065.185-.098.422-.098.711v1.422c0 .2-.03.386-.089.558-.06.17-.171.317-.332.442-.162.125-.392.222-.692.293-.299.07-.687.105-1.164.105zm3.438 4.961c-.386 0-.721-.036-1.004-.109-.284-.073-.519-.192-.703-.356-.185-.164-.323-.383-.415-.656-.088-.271-.132-.606-.132-1.004v-1.125c0-.417-.088-.716-.262-.898-.175-.183-.482-.274-.922-.274v-.582c.477 0 .865.035 1.164.106.3.067.53.165.692.293.161.125.272.273.332.445.059.169.089.354.089.555v1.421c0 .287.033.523.098.708.068.187.186.325.356.414.169.091.404.136.707.136zm-3.438-4.422v-1.125h1.082v1.125zm4.56 5.008v-8.25h1.14v.973h.098c.068-.125.165-.27.293-.434.127-.164.305-.307.531-.43.227-.125.526-.187.899-.187.484 0 .916.122 1.296.367.381.245.679.598.895 1.059.219.461.328 1.015.328 1.664 0 .648-.108 1.204-.324 1.668-.216.461-.513.816-.891 1.066-.377.247-.808.371-1.293.371-.364 0-.662-.061-.894-.183-.229-.123-.409-.266-.539-.43-.131-.164-.231-.31-.301-.438h-.07v3.184zm1.144-5.25c0 .422.061.792.184 1.109.122.318.299.567.531.746.232.178.516.266.852.266.349 0 .64-.092.875-.277.234-.188.411-.442.531-.762.122-.32.183-.681.183-1.082 0-.396-.06-.751-.179-1.066-.117-.316-.295-.564-.532-.746-.234-.183-.527-.274-.878-.274-.339 0-.625.087-.86.262-.232.174-.407.418-.527.73-.12.313-.18.677-.18 1.094zm8.172 3.121c-.562 0-1.053-.129-1.473-.387-.419-.257-.744-.618-.976-1.082-.232-.463-.348-1.005-.348-1.625 0-.622.116-1.166.348-1.632.232-.467.557-.829.976-1.086.42-.258.911-.387 1.473-.387.563 0 1.053.129 1.473.387.419.257.744.619.976 1.086.232.466.348 1.01.348 1.632 0 .62-.116 1.162-.348 1.625-.232.464-.557.825-.976 1.082-.42.258-.91.387-1.473.387zm.004-.98c.365 0 .667-.097.906-.289.24-.193.417-.45.531-.77.118-.32.176-.673.176-1.059 0-.382-.058-.734-.176-1.054-.114-.323-.291-.582-.531-.778-.239-.195-.541-.293-.906-.293-.367 0-.672.098-.914.293-.24.196-.418.455-.535.778-.115.32-.172.672-.172 1.054 0 .386.057.739.172 1.059.117.32.295.577.535.77.242.192.547.289.914.289zm8.593-3.676-1.059.187c-.044-.135-.114-.264-.211-.386-.094-.123-.221-.223-.383-.301-.161-.078-.363-.117-.605-.117-.331 0-.607.074-.828.222-.222.146-.332.335-.332.567 0 .2.074.362.222.484.149.122.388.223.719.301l.953.219c.552.127.964.324 1.235.589.27.266.406.611.406 1.036 0 .359-.104.679-.313.961-.205.278-.493.497-.863.656-.367.159-.793.238-1.277.238-.672 0-1.22-.143-1.645-.43-.424-.289-.685-.699-.781-1.23l1.129-.172c.07.294.215.517.433.668.219.148.504.223.856.223.383 0 .689-.08.918-.239.229-.161.344-.358.344-.589 0-.188-.071-.345-.211-.473-.138-.128-.351-.224-.637-.289l-1.016-.223c-.56-.127-.974-.331-1.242-.609-.265-.279-.398-.632-.398-1.059 0-.354.099-.664.297-.929.198-.266.471-.473.82-.622.349-.151.749-.226 1.199-.226.649 0 1.159.14 1.531.422.373.278.619.652.739 1.121zm1.401 4.535v-6h1.168v6zm.59-6.926c-.203 0-.378-.067-.524-.203-.143-.138-.214-.302-.214-.492 0-.193.071-.357.214-.492.146-.138.321-.207.524-.207s.376.069.519.207c.146.135.219.299.219.492 0 .19-.073.354-.219.492-.143.136-.316.203-.519.203zm4.95.926v.937h-3.277v-.937zm-2.398-1.438h1.168v5.676c0 .227.033.397.101.512.068.112.155.189.262.23.109.04.228.059.355.059.094 0 .176-.006.246-.019.071-.013.125-.024.165-.032l.21.965c-.067.026-.164.052-.289.078-.125.029-.281.045-.468.047-.308.005-.594-.049-.86-.164-.265-.115-.48-.292-.644-.531-.164-.24-.246-.541-.246-.903zm3.69 7.438v-6h1.168v6zm.59-6.926c-.203 0-.378-.067-.523-.203-.144-.138-.215-.302-.215-.492 0-.193.071-.357.215-.492.145-.138.32-.207.523-.207s.376.069.519.207c.146.135.219.299.219.492 0 .19-.073.354-.219.492-.143.136-.316.203-.519.203zm4.677 7.047c-.563 0-1.054-.129-1.473-.387-.419-.257-.745-.618-.977-1.082-.231-.463-.347-1.005-.347-1.625 0-.622.116-1.166.347-1.632.232-.467.558-.829.977-1.086.419-.258.91-.387 1.473-.387.562 0 1.053.129 1.472.387.42.257.745.619.977 1.086.232.466.348 1.01.348 1.632 0 .62-.116 1.162-.348 1.625-.232.464-.557.825-.977 1.082-.419.258-.91.387-1.472.387zm.004-.98c.364 0 .666-.097.906-.289.239-.193.417-.45.531-.77.117-.32.176-.673.176-1.059 0-.382-.059-.734-.176-1.054-.114-.323-.292-.582-.531-.778-.24-.195-.542-.293-.906-.293-.368 0-.672.098-.914.293-.24.196-.418.455-.536.778-.114.32-.171.672-.171 1.054 0 .386.057.739.171 1.059.118.32.296.577.536.77.242.192.546.289.914.289zm5.264-2.704v3.563h-1.168v-6h1.121v.977h.075c.138-.318.354-.573.648-.766.297-.193.671-.289 1.121-.289.409 0 .767.086 1.074.258.308.169.546.422.715.757.169.336.254.752.254 1.247v3.816h-1.168v-3.676c0-.435-.113-.775-.34-1.019-.226-.248-.537-.371-.933-.371-.271 0-.512.058-.723.175-.208.118-.374.289-.496.516-.12.224-.18.495-.18.812zm8.395.223v.582c-.44 0-.748.091-.922.274-.175.182-.262.481-.262.898v1.125c0 .398-.045.733-.137 1.004-.088.273-.225.492-.41.656s-.419.283-.703.356-.618.109-1.004.109v-.926c.302 0 .538-.045.707-.136.17-.089.287-.227.352-.414.068-.185.101-.421.101-.708v-1.421c0-.201.03-.386.09-.555.06-.172.171-.32.332-.445.162-.128.392-.226.692-.293.299-.071.687-.106 1.164-.106zm-3.438-4.961c.386 0 .72.037 1.004.11s.518.191.703.355.322.383.41.656c.092.271.137.606.137 1.004v1.121c0 .42.087.72.262.903.174.179.482.269.922.269v.586c-.477 0-.865-.035-1.164-.105-.3-.071-.53-.168-.692-.293-.161-.125-.272-.272-.332-.442-.06-.172-.09-.358-.09-.558v-1.422c0-.289-.033-.526-.101-.711-.065-.188-.182-.326-.352-.414-.169-.089-.405-.133-.707-.133zm3.438 4.418v1.125h-1.082v-1.125zm4.157.543v.582c-.44 0-.747.091-.922.274-.174.182-.262.481-.262.898v1.125c0 .398-.045.733-.136 1.004-.089.273-.226.492-.41.656-.185.164-.42.283-.704.356-.283.073-.618.109-1.003.109v-.926c.302 0 .537-.045.707-.136.169-.089.286-.227.351-.414.068-.185.102-.421.102-.708v-1.421c0-.201.03-.386.09-.555.059-.172.17-.32.332-.445.161-.128.391-.226.691-.293.299-.071.687-.106 1.164-.106zm-3.437-4.961c.385 0 .72.037 1.003.11.284.073.519.191.704.355.184.164.321.383.41.656.091.271.136.606.136 1.004v1.121c0 .42.088.72.262.903.175.179.482.269.922.269v.586c-.477 0-.865-.035-1.164-.105-.3-.071-.53-.168-.691-.293-.162-.125-.273-.272-.332-.442-.06-.172-.09-.358-.09-.558v-1.422c0-.289-.034-.526-.102-.711-.065-.188-.182-.326-.351-.414-.17-.089-.405-.133-.707-.133zm3.437 4.418v1.125h-1.082v-1.125z" fill="#0578d6"/><path d="m22.3153 21.9091c-.0554-.4678-.28-.831-.674-1.0895-.3939-.2585-.8771-.3878-1.4495-.3878-.4186 0-.7848.0677-1.0988.2031-.3108.1355-.5539.3217-.7294.5586-.1723.237-.2585.5063-.2585.8079 0 .2524.06.4694.1801.6509.1231.1785.28.3278.4708.4478.1909.117.3909.2139.6002.2909.2093.0738.4016.1339.577.18l.9603.2585c.2462.0647.5201.1539.8217.2678.3047.1139.5955.2693.8725.4663.2801.1939.5109.4431.6925.7478s.2724.6787.2724 1.1218c0 .5109-.1339.9726-.4017 1.385-.2647.4124-.6524.7402-1.1633.9833-.5078.2431-1.1249.3647-1.8512.3647-.6771 0-1.2634-.1093-1.7589-.3278-.4924-.2185-.8802-.5232-1.1634-.914-.28-.3909-.4385-.8449-.4755-1.3619h1.1819c.0307.357.1508.6525.36.8864.2124.2308.4802.4031.8033.517.3262.1108.6771.1662 1.0526.1662.437 0 .8294-.0708 1.1772-.2124.3477-.1446.6232-.3447.8263-.6001.2031-.2585.3047-.5601.3047-.9048 0-.3139-.0877-.5694-.2631-.7664-.1755-.1969-.4063-.357-.6925-.4801s-.5955-.2308-.9279-.3231l-1.1634-.3324c-.7386-.2124-1.3234-.5155-1.7542-.9095-.4309-.3939-.6463-.9094-.6463-1.5465 0-.5293.1431-.991.4293-1.3849.2893-.397.6771-.7048 1.1633-.9233.4894-.2216 1.0357-.3324 1.6389-.3324.6094 0 1.151.1092 1.625.3278.474.2154.8494.5109 1.1264.8863.2801.3755.4278.8018.4432 1.2788zm7.4406 4.1918v-4.1918h1.0895v7.0909h-1.0895v-1.2003h-.0738c-.1662.3601-.4247.6663-.7756.9187-.3508.2493-.794.3739-1.3295.3739-.4432 0-.8372-.0969-1.1818-.2908-.3447-.197-.6156-.4924-.8125-.8864-.197-.397-.2955-.8971-.2955-1.5003v-4.5057h1.0895v4.4318c0 .5171.1446.9295.4339 1.2372.2924.3078.6648.4617 1.1172.4617.2709 0 .5463-.0693.8264-.2078.2831-.1385.5201-.3508.7109-.637.1939-.2863.2908-.651.2908-1.0941zm3.2327 2.8991v-9.4545h1.0895v3.49h.0924c.08-.1231.1908-.2801.3323-.4709.1447-.1939.3509-.3662.6186-.517.2709-.1539.6371-.2308 1.0988-.2308.597 0 1.1233.1492 1.5788.4478.4555.2985.811.7217 1.0664 1.2695.2555.5478.3832 1.1941.3832 1.9389 0 .751-.1277 1.4019-.3832 1.9528-.2554.5478-.6094.9725-1.0618 1.2741-.4524.2986-.9741.4478-1.565.4478-.4555 0-.8202-.0754-1.0941-.2262-.2739-.1539-.4847-.3278-.6324-.5216-.1478-.197-.2616-.3601-.3416-.4894h-.1293v1.0895zm1.0711-3.5455c0 .5356.0784 1.008.2354 1.4173.157.4063.3862.7248.6879.9556.3016.2278.6709.3416 1.1079.3416.4555 0 .8356-.12 1.1403-.3601.3077-.2431.5386-.5693.6925-.9786.1569-.4124.2354-.871.2354-1.3758 0-.4985-.077-.9479-.2308-1.348-.1508-.4031-.3801-.7217-.6879-.9556-.3047-.237-.6878-.3554-1.1495-.3554-.4432 0-.8156.1123-1.1172.337-.3016.2215-.5293.5324-.6832.9325-.1539.397-.2308.8602-.2308 1.3895zm6.8554-3.5454h1.0895v7.6079c0 .4371-.0754.8156-.2262 1.1357-.1477.3201-.3724.5678-.674.7433-.2985.1754-.6755.2631-1.131.2631-.037 0-.0739 0-.1108 0-.037 0-.0739 0-.1108 0v-1.0156h.1015.1016c.3324 0 .5755-.0985.7294-.2955.1539-.1939.2308-.4709.2308-.831zm.5355-1.1818c-.2123 0-.3954-.0724-.5493-.217-.1508-.1447-.2262-.3185-.2262-.5217 0-.2031.0754-.377.2262-.5216.1539-.1447.337-.217.5493-.217.2124 0 .394.0723.5448.217.1539.1446.2308.3185.2308.5216 0 .2032-.0769.377-.2308.5217-.1508.1446-.3324.217-.5448.217zm5.5225 8.4204c-.6832 0-1.2726-.1508-1.7681-.4524-.4924-.3047-.8725-.7294-1.1403-1.2741-.2647-.5479-.397-1.1849-.397-1.9113 0-.7263.1323-1.3664.397-1.9204.2678-.5571.6402-.991 1.1172-1.3019.4801-.3139 1.0403-.4708 1.6804-.4708.3693 0 .734.0615 1.0941.1846s.6879.3232.9833.6002c.2955.2739.5309.637.7063 1.0895.1755.4524.2632 1.0094.2632 1.6711v.4617h-5.4659v-.9418h4.3579c0-.4001-.08-.7571-.24-1.071-.157-.3139-.3817-.5617-.674-.7433-.2893-.1816-.631-.2723-1.0249-.2723-.4339 0-.8094.1077-1.1264.3231-.3139.2124-.5555.4894-.7248.831s-.2539.7078-.2539 1.0987v.6278c0 .5355.0923.9895.277 1.3619.1877.3693.4478.6509.7802.8448.3324.1908.7186.2862 1.1587.2862.2862 0 .5447-.04.7756-.12.2339-.0831.4355-.2062.6047-.3693.1693-.1662.3001-.3724.3924-.6186l1.0526.2954c-.1108.357-.297.671-.5586.9418-.2616.2678-.5848.477-.9695.6278-.3847.1478-.8171.2216-1.2972.2216zm7.4741 0c-.6648 0-1.2372-.1569-1.7174-.4709-.4801-.3139-.8494-.7463-1.1079-1.2972s-.3878-1.1803-.3878-1.8881c0-.7202.1323-1.3557.397-1.9066.2678-.554.6402-.9864 1.1172-1.2973.4801-.3139 1.0403-.4708 1.6804-.4708.4986 0 .9479.0923 1.348.277.4001.1846.7279.4431.9833.7755.2555.3324.414.7202.4755 1.1634h-1.0895c-.0831-.3232-.2677-.6094-.5539-.8587-.2832-.2524-.6648-.3785-1.1449-.3785-.4247 0-.7971.1107-1.1172.3323-.317.2186-.5648.5279-.7433.928-.1754.397-.2631.8632-.2631 1.3987 0 .5479.0862 1.0249.2585 1.4312.1754.4062.4217.7217.7387.9463.32.2247.6955.337 1.1264.337.2831 0 .5401-.0492.7709-.1477.2309-.0985.4263-.2401.5863-.4247.1601-.1847.2739-.4063.3416-.6648h1.0895c-.0615.4186-.2139.7956-.457 1.1311-.2401.3323-.5586.597-.9556.794-.394.1939-.8525.2908-1.3757.2908zm7.4648-7.2386v.9233h-3.6747v-.9233zm-2.6037-1.6989h1.0895v6.7586c0 .3077.0446.5385.1339.6924.0923.1508.2093.2524.3508.3047.1447.0493.297.0739.4571.0739.12 0 .2185-.0062.2954-.0185.077-.0154.1385-.0277.1847-.0369l.2216.9787c-.0739.0277-.177.0554-.3093.0831-.1324.0307-.3001.0461-.5032.0461-.3078 0-.6094-.0661-.9048-.1985-.2924-.1323-.5356-.3339-.7295-.6047-.1908-.2709-.2862-.6125-.2862-1.0249zm5.0366 8.8637c-.2277 0-.4232-.0816-.5863-.2447s-.2447-.3586-.2447-.5863.0816-.4232.2447-.5863.3586-.2447.5863-.2447c.2278 0 .4232.0816.5863.2447s.2447.3586.2447.5863c0 .1508-.0385.2893-.1154.4155-.0739.1262-.1739.2277-.3001.3047-.1231.0738-.2616.1108-.4155.1108zm0-5.2628c-.2277 0-.4232-.0816-.5863-.2447s-.2447-.3585-.2447-.5863c0-.2277.0816-.4232.2447-.5863s.3586-.2447.5863-.2447c.2278 0 .4232.0816.5863.2447s.2447.3586.2447.5863c0 .1508-.0385.2893-.1154.4155-.0739.1262-.1739.2277-.3001.3047-.1231.0738-.2616.1108-.4155.1108z" fill="#707880"/><path d="m0 48h470v1h-470z" fill="#dfe3e8"/><path d="m1 108h490v64h-490z" fill="url(#b)"/></g></svg>