<svg fill="none" height="173" viewBox="0 0 244 173" width="244" xmlns="http://www.w3.org/2000/svg"><g clip-rule="evenodd" fill="#28323b" fill-rule="evenodd" opacity=".8"><path d="m51.2338 52.1547c.1175.264.3411.5097.6177.7526 3.3465-.0804 6.7043-.3289 10.0703-.6887.1249-.1594.2309-.3136.2822-.4666l-.602-.9358c.5922.3308.703.6321.602.9358l.2622.4084c.2292-.0257.4559-.0531.6851-.0788.8539-.7449 1.4176-1.2919 3.3699-1.5074-.1109.4906.0635.8076.3845 1.039 27.6437-3.7321 55.5573-13.0298 80.6313 3.593 3.32-.3994.148-1.1492 3.925-.9026-33.332-20.1308-66.9007-3.9164-99.8798-2.8776.1012.1188.2086.3069.3287.6067z"/><path d="m11.5985 42.582c-1.1633.3336 1.5349 1.1669 2.9279 1.8251.7433.4991 1.4884.9716 2.2353 1.4272.0387-.0627.069-.1278.092-.1968-1.7551-.9182-3.5061-1.9258-5.2552-3.0555z"/><path d="m33.1631 52.2893c.0065.0653-.0038.1314-.0033.1977 5.7534 1.3044 11.5769 1.7727 17.4424 1.7077-.2131-.172-.4341-.3401-.6752-.4956.5152-.1012.8359-.6759 1.1274-.9668-2.4678.0647-4.9316.0467-7.393-.0808-.0585.3802-.4707.1996-.9345-.0595-2.0712-.1308-4.1413-.34-6.207-.6387l.3915 1.1034-1.1886-1.223c-.4258-.066-.8512-.1373-1.2773-.2118.1218.2827.2382.5566.3379.8054-.3357.0904-1.129-.1598-1.6203-.138z"/><path d="m33.2157 52.4104c-.0286-.335-.1272-.6669-.265-.9937-2.4126-.4997-4.8214-1.1488-7.2254-1.9489-.1006.0329-.2009.0618-.3031.1065l.7964.9221c2.2023.8227 4.4174 1.5 6.643 2.042.0712-.085.1972-.1219.3541-.128z"/><path d="m9.2002 61.1418c.73306.4575 1.4673.8967 2.2011 1.3174 1.9583-.4395 1.027-.7874-2.2011-1.3174z"/><path d="m99.3894 63.8318c16.1566-1.3694 32.4386-.0169 48.6486 9.8342-1.618-1.0536 1.574-.7662-1.828-1.8941-12.748-8.6515-26.389-10.301-40.548-9.3634l-.001.3908-1 .1979.258-.5372c-2.011.1456-4.033.3416-6.0628.5758.3496.2358.5995.4423.5332.796z"/><path d="m72.4888 68.6388c1.6881-.2832 3.3791-.571 5.0741-.8575-.0521-.1826-.1098-.3562-.1778-.5146-1.72.293-3.4421.5818-5.1686.8591.1333.1261.2212.3009.2723.513z"/><path d="m98.384 64.4394c-.1594-.1737-.164-.4642-.0763-.8398-6.3716.7725-12.8318 1.9101-19.3483 3.0218-.1624.2328-.2591.4384-.3913.608 6.5749-1.1039 13.185-2.1672 19.8159-2.79z"/><path d="m45.599 71.9155c.4862-.1248 1.3748-.3774 2.1849-.3441-.0281-.1113-.0552-.2122-.0827-.3202-1.36.008-2.7208-.0104-4.0803-.0614.411.2685.6979.7236.9658 1.1346.5084.0003 1.0189-.0063 1.5296-.0154-.0432-.1375-.191-.2719-.5173-.3935z"/><path d="m11.2955 62.5027c-.4504.1013-1.0526.2075-1.81627.3219 5.09307 3.2908 10.24627 5.5788 15.44977 7.1184.6371-.292 1.2402-.6185 1.7848-1.0041-5.1623-1.422-10.3071-3.5025-15.4183-6.4362z"/><path d="m67.6972 68.9819c-.048.131.0212.3125.2494.5646.7429-.1187 1.4851-.2392 2.2282-.3611-.0832-.174-.1779-.3515-.2876-.5336-.729.1129-1.4588.2232-2.19.3301z"/><path d="m27.0656 69.0171c-.2693.3717-.5616.7092-.8809.9155.1653.1803.3218.3397.474.4874 1.0895.2855 2.1799.5446 3.2734.7686.4061-.3123.7788-.7579 1.1732-1.2144-1.3472-.2752-2.694-.5953-4.0397-.9571z"/><path d="m49.7194 71.1324c-.3317.0085-.6617.0165-.9932.0226.0241.2062.0578.4224.0877.6316.1443.094.2705.2174.3772.3684.2649-.0125.5302-.0314.796-.0463.0054-.3492-.0624-.6824-.2677-.9763z"/><path d="m42.5244 71.1977c-.3057-.0151-.6115-.0279-.9178-.0463-.2198.3575-.4315.7199-.6252 1.0921.0376.0328.089.0612.1404.0888.5856.0238 1.1713.0451 1.7593.0569.1606-.0676.3089-.1526.4189-.2737z"/><path d="m51.9402 71.2841c-.6875.0307-1.0487.3182-1.2242.7359.3932-.0236.7857-.0497 1.1793-.0781.1841-.1187.3612-.247.526-.3943-.1599-.0986-.3203-.1907-.4811-.2635z"/><path d="m72.5576 87.9275c.0062-.0688.0096-.1337.0184-.2046.0478-.3714.1219-.7723.1839-1.1806-6.1078 1.0107-12.2437 1.9239-18.395 2.4137l.42 1.3125c5.9624-.4715 11.8927-1.3522 17.7727-2.341z"/><path d="m42.423 89.8253c-.7683-.0247-1.5376-.0589-2.3071-.1032.2124.2403.2176.5021-.466.7955-1.4884-.8487-2.7213-.54-3.7412.0363 2.6664.3179 5.3292.5009 7.9875.5629-.5346-.0541-1.1581-.2741-1.9426-.736.1819-.1849.3255-.3749.4694-.5555z"/><path d="m75.9919 86.8555c.0455-.416.0946-.8204.6483-.9327-.0912.2756-.1352.5637-.1613.8486 4.1392-.7247 8.2518-1.4671 12.3343-2.1235l-.7951-.3585c.2982-.3524.5302-.6821.7549-.9012-4.8902.7497-9.8036 1.6245-14.7369 2.4535.1529.4593.3421.9037.5898 1.2518.4556-.079.9112-.1581 1.366-.238z"/><path d="m47.2053 90.984c1.4428-.0163 2.8851-.0632 4.3259-.1383-.4236-.2344-.685-.593-.5409-1.308-1.4247.075-2.8509.1218-4.2771.1413-.0683.0529-.1452.1082-.2117.1605z"/><path d="m53.4511 89.2664c-.2315.0166-.4639.0348-.6962.0506.2565.1013.493.1112.6962-.0506z"/><path d="m44.3331 91.0643c.5661.0114 1.1299.0193 1.695.02.1922-.3318.3699-.6895.3945-1.0983-.7111.5594-1.3153 1.011-2.0895 1.0783z"/><path d="m142.107 89.2272-.68.9652c.762.4908 1.521.9992 2.28 1.5408 1.406-.1627-.349-.9831 1.817-1.0925-.593-.3967-1.188-.7749-1.783-1.1441-.069.1429-.166.2914-.299.4479-.665.4563-.664-.1962-1.335-.7173z"/><path d="m40.6472 109.559c-.0545-.332-.1107-.664-.1646-.993-1.42-.073-2.8411-.18-4.2595-.328l-1.0985.973c1.8415.179 3.6829.295 5.5226.348z"/><path d="m101.061 100.599c14.323-.9105 28.807.677 43.606 8.942-.344-.245-.444-.486.295-.609-13.485-8.9339-27.676-10.4702-42.255-9.3731-.415.3731-1.028.6971-1.646 1.0401z"/><path d="m42.2921 108.736c19.2567.202 38.4222-5.688 57.8789-7.095-.003-.285-.015-.583-.029-.894-16.1594 1.567-32.7692 6.028-49.4024 6.919-.4189.186-.8389.181-1.2203.063-2.0507.088-4.1033.115-6.155.078-.0151.038-.029.084-.0464.118-.5273.044-.827.382-1.0258.811z"/><path d="m28.0886 108.274c.1762.035.351.064.5263.098 1.0496-.251 2.2794-.194 3.2701-.638-1.6664-.279-3.3314-.628-4.9951-1.037.3255.62.7136 1.147 1.1987 1.577z"/><path d="m145.188 109.933c.214.126.425.243.64.372.078-.03-.259-.18-.64-.372z"/><path d="m144.53 109.544c.183.135.432.27.669.389-.224-.132-.447-.261-.669-.389z"/><path d="m140.858 127.252c.376.338 2.21 1.385 4.808 2.085-2.763-1.687-5.519-3.119-8.268-4.344 1.163.696 2.318 1.444 3.46 2.259z"/><path d="m13.5887 121.932c.3341-.331.6443-.488.9362-.544-.5219-.258-1.0434-.521-1.5632-.799.0166.613.0922 1.194.627 1.343z"/><path d="m112.224 118.339c-11.005-.591-22.4968 1.195-34.0983 3.158-.4629.496-1.3995.847-1.4557 1.331 11.3637-1.888 22.7822-3.65 34.287-3.199.524-.323 1.123-.698 1.267-1.29z"/><path d="m112.16 117.846-.014 1.336c8.414.448 16.875 2.112 25.397 5.811-8.019-4.672-16.545-6.672-25.383-7.147z"/><path d="m6.93666 117.328c-1.85322.055.98398.552-1.18577 1.153.43697.274.8735.528 1.31131.788.11416-.793.11423-1.516-.12554-1.941z"/><path d="m26.4808 125.062c.4032.526 2.6095.186 2.6894 1.684 15.7677 2.597 31.5539-.238 47.4461-2.851l-.5689-.975c-16.7106 2.811-33.6048 5.695-49.5666 2.142z"/><path d="m18.2623 123.459c.7964.075 1.7097-.049.9969 1.216.0555.111.1105.201.1657.277.2275.076.4531.156.68.23.331-.167.6537-.65.9402-1.084-1.2523-.426-2.4974-.899-3.7358-1.422.0006.609.4532.735.953.783z"/><path d="m10.133 119.938c-.37841-.887-.92478-.331-1.44513.284.52104.291 1.04327.577 1.56633.85.0372-.409.0089-.804-.1212-1.134z"/><path d="m165.159 21.0065-.665-1.1185c-.924-1.0738-2.219-1.6447-3.05-3.0188-.426.0203-.85.0391-1.274.0652l1.153 1.8296-1.909-1.5153.163-.2704c-3.177.2254-6.307.6454-9.376 1.2526-.097.2566-.262.4176-.62.2893-.004-.0581.003-.1072.003-.1618-.626.1291-1.249.2665-1.869.4107.116 1.14-.786.6381-1.511.3672-6.89 1.7552-13.425 4.4548-19.44 7.9615.135.2518.273.4558.412.6125 11.247-5.6085 24.35-8.0887 37.983-6.7038z"/><path d="m126.418 28.9176c-.089-.256-.174-.4716-.257-.6567-1.085.6561-2.154 1.3375-3.205 2.0453l.027.1191-.095-.0739c-3.148 2.1262-6.131 4.4837-8.924 7.0521 3.793-3.3023 7.972-6.1463 12.454-8.4859z"/><path d="m91.4155 82.0957-.405-.3674c.4357-.7102.7354-.8529 1.0207-.9112 1.1031-10.0433 4.2401-19.1249 8.9558-26.9845-3.2577 5.1095-5.9151 10.6396-7.8793 16.5017.0937.1236.1896.2549.2878.4031l-.3451-.237c-1.2994 3.9112-2.2866 7.9706-2.9344 12.1533.7286.6791 1.0792.1982 1.2995-.558z"/><path d="m229.768 63.149.385.6492c.087.1247.173.265.262.443l-.262-.443c-.654-.9298-1.309-.4871-2.091-.5746.498 1.1481.969 2.3087 1.413 3.4816.26.0959.494.0513.571-.3174l-.511-.8649c-.325-.2126-.612-.4924-.783-1.3204l.783 1.3204c.275.1805.578.3121.865.6859.527.8963.23 2.1911-.345 2.0847.538 1.527 1.024 3.075 1.464 4.636-.007-.3176.186-.6306-.295-1.4817l1.54 1.408c.012.0069.025.0148.039.0228l-.86-1.5214c.599.5495 1.049 1.4626 1.273 1.912-.146-.1901-.287-.3172-.413-.3906l.015.0272-.054-.05c-.389-.1928-.625.1834-.406 1.1165-.439-.3348-.651-.5585-.753-.7427.105.3808.205.7629.304 1.1449.025.0622.04.1251.051.1894 1.088 4.2256 1.818 8.5581 2.153 12.946l1.35 1.2413-.545.0013c1.6 1.4685 1.157 2.7971.629 3.0612l-.889-1.8095c-.109.0513-.266.1531-.39.2961.013.3682.028.7356.036 1.1032.119.1517.282.3118.513.4823-.132.0642-.306.0112-.508-.1217.006.2651.009.529.011.7938l1.919.8812.108.5243c.183-5.6237-.275-11.0946-1.314-16.3595-.437-.0302.263 1.3057-.069 1.0034l-1.314-2.45c.381.2296.86.6073 1.274.9247-.999-4.866-2.489-9.5544-4.418-14.0268-.147.1351-.373.1879-.738.0938z"/><path d="m224.412 54.6059c.39.3663.789.7147.995.3728-.447-1.4487.18-1.6316.482-2.0641-.772-1.242-1.576-2.4631-2.418-3.6573-.442.3606-1.081.7321-1.877.9155.99 1.4426 1.929 2.9217 2.818 4.4331z"/><path d="m228.033 74.8431c.318 1.0666.778 1.2987 1.248 1.7877-.155-.6333-.318-1.2633-.492-1.8901-.253-.1346-.507-.1415-.756.1024z"/><path d="m104.835 120.28c-.302-1.261-1.843.584-1.67-1.367 1.111.307 1.73.986 2.825.613-.702-1.461-1.348-2.955-1.937-4.479-.856.708-1.767 1.689-1.98 3.225l.227 1.047c-.007-.007-.015-.011-.022-.017.452.927.925 1.844 1.421 2.751l-.045-.898z"/><path d="m169.66 23.8178-.649-1.307c.465-.765 2.465 1.776 1.513-.9933l1.247 2.0929c-.36-.0901-1.939.1302-.74 1.6982.989 1.1466 1.602.0376 2.12 1.9375-1.613-2.1868-1.961-.1229-2.714-.5733-.622-1.0407.769.7006.297-.6872-1.651-2.695-2.323-.2149-1.828 1.4262-.435-.8663-.243-2.8419-1.292-2.6041 1.238-.0632.38-1.7987 2.046-.9899zm-23.572 2.2677.678-.3338-.986-1.1344c.193.1822 1.522 1.1501 1.628 2.4352zm-1.694-1.6125c-.069-.0049-.138-.0025-.207.0062.057.6382-1.078-.3571-.474.8614.375.5673.783 1.5475 1.075 1.1905l-.131-.5566.212.4207c-.026.0597-.053.1018-.081.1359l.15.6396c-1.16-1.0581-1.326-.9708-2.331-2.3612l.334-.1754c.355.2125.787-.0964 1.246-.1549-.005-.0459-.014-.0985-.032-.1624.092.0444.169.0987.239.1562.445.0327.908.3979 1.349 1.774-.963.2092-.561-1.1307-1.349-1.774zm19.985-4.8791c.273.3148.511.6773.696 1.1138.093.0095.186.0166.28.0261-.089.0005-.178.0034-.267.0038.02.049.043.0941.062.1453l-.086-.1444c-8.668.0733-16.773 1.5389-24.15 4.1643.652.7136 1.086 2.4016 1.947 2.4029-.018-.0575-.037-.1039-.058-.1664-.045-.5303.344-.172.538.0102-.174.1106-.332.1564-.48.1562.734 2.1511 1.191 1.0802 1.889 1.81.253-.0649.505-.1275.757-.1885.022-.5616.117-.9313.611-.1464 6.671-1.5474 13.68-1.8955 20.727-.8166 1.436.1043 2.856.2573 4.262.4481.234-.5705.351-1.4547 1.063-.16-.041.0974-.078.1967-.116.2953 5.686.8541 11.115 2.4096 16.201 4.5844.15-.2507.416-.2761.846.1163-.562-2.4094-1.094-2.4247-2.377-2.8805-.067-.7779-.474-1.3849.184-1.9708-.455.2191-1.381-1.2748-2.31-2.8336-.579-.2318-1.162-.4574-1.749-.6771-.922.9129-3.016-.6205-3.39 1.4601 1.654 2.7023-.173.0755.372 2.2465l-.685-1.8158c-1.434-.1192-4.257-1.9875-5.697-4.2594.097-.1273.071-.3441.037-.549-1.099-.2745-2.207-.53-3.323-.7631 1.393.0437 2.77.1354 4.133.2648l-.559-1.7811-1.094-.2899c-.978-1.125.326-.4105-.683-1.8117l2.503 2.2905-1.412-2.6512c-1.064-.2043-2.134-.3932-3.211-.5581-.706-.0451-1.411-.0789-2.114-.1054-.145.4616-.37.687.011 1.4454l2.097 1.6835c-.047-.5185-.601-.7885-.838-1.481l1.295.5568c-.004-.0339-.007-.0621-.013-.0977.033.0429.068.0892.104.1364l1.56.6691c-.172.0828.027.2678.242.6999-.101.802-1.176-.5519-1.802-1.369l-.091-.0387c.32 2.1085-.813 1.0935-1.846 1.3249-.716-.6566-1.272-3.0207-2.225-3.5678-.397-.0074-.791-.0083-1.187-.0094-.273.8745-.824 1.578-1.13 2.2812z"/><path d="m105.256 58.6075c.195.1853.591.5498.836 1.2761l-.941-.3836zm3.96-6.9915-.9.1549-.018-.264zm-6.702 56.828c-1.932-7.001-2.7352-14.5159-2.284-22.2996.085-2.2841.303-4.53.641-6.733-.432-.2682-.849-.5269-1.1936-.6773.0712.8145.4086 2.6147.7836 2.7158-.375-.1011-1.2593-1.914-1.8813-2.7357.3102-.7046 1.0277-.7862.3458-2.4114l-.1828.0848c-.0869-1.0559 1.5213 1.365 2.3133 1.8948.009-.0507.017-.1022.025-.1537-.014-.1084-.033-.2265-.071-.3563-.148-.253-.278-.4812-.373-.623.2.1817.31.4087.373.623.033.058.067.1168.103.1767.123-.6858.262-1.3668.408-2.0436-.425-.7592-.929-1.5258-.519-.9017.176-.083.414.1105.647.326.108-.4714.22-.9406.339-1.4076-.215-.3092-.474-.5578-.777-.7027l.726-.0767-2.099-3.1821c.35-.1711 1.612 1.7405 1.099.025l-.396-.367c.503-.5311.408-1.6069 1.18-1.143l1.103 2.4787c1.321-4.2528 3.104-8.2927 5.288-12.0638l-.362-.9424c.195.2906.415.4999.578.5801.063-.107.126-.2131.19-.3191-.007-.0239-.007-.0398-.017-.0664-.223-.4503-.421-.6326-.817-1.0095l1.191.4769c6.202-10.1193 15.294-18.2106 25.852-23.2095-1.304-1.0398-2.717-1.2679-3.566-1.3997-.42-.6399-1.446.1473-1.73 1.1217-.374-.345-.803-1.3386-1.137-1.7064-.145.0901-.292.1783-.436.2693.247.7099.66 1.3334 1.22 1.6105.01 1.6713-1.019-.5039-1.733-1.2853-11.951 7.655-21.033 18.8131-26.202 32.009.117.1398.228.2972.323.4913-.15-.2109-.265-.3364-.356-.4097-.13.3339-.254.67-.38 1.006-.006.021-.013.0403-.022.056-1.4281 3.85-2.5281 7.8656-3.2722 12.0135l1.6548 2.2501-1.7342-1.7968c-.4075 2.3616-.7052 4.7635-.8788 7.2028-.6807 7.3643.0277 14.55 1.8791 21.377 1.5818-1.221 2.4973.946 4.1573 1.234z"/><path d="m192.597 31.2365c1.869 2.9705 2.419 1.0351 3.757 2.0378-.526-1.9566-1.822-2.436-2.232-3.0657l2.117 1.7348c.033-.1666.072-.3984.096-.6578-1.391-.8511-2.812-1.6632-4.262-2.4362.571 1.2323.081 1.2637.524 2.3871z"/><path d="m191.339 24.8245c.048.1179.09.2274.13.33 2.09.8324 4.125 1.769 6.098 2.8051-.104-.1622-.206-.347-.31-.5595-.214-2.5325 1.231.5048 2.27 1.309.39-.2427.724-.6498.963-.9725-.114 1.245-.498 1.3335-.963.9725-.101.0619-.204.1121-.312.1481 2.212 1.2444 4.343 2.614 6.388 4.0964l.835-.1894-.056.7608c.731.5458 1.45 1.105 2.156 1.6793.531-.1419.874-.754 1.25-1.3037-4.663-3.8117-9.785-7.1293-15.266-9.8736l.202.7908c-1.216.326-1.28 1.72-3.385.0067z"/><path d="m187.826 22.859c-.256-.4742-.436-.92-.581-1.3503-.966-1.5412-1.846.3571-3.07-1.7915.155.3208.325.7804.553 1.1463.084.094.177.2084.283.3589-.104-.0967-.197-.2224-.283-.3589-.706-.7929-.65.2738-.954.4246.528.7581 1.14 1.3594 1.755 1.8067 1.183.3361 2.351.7049 3.503 1.1056-.061-.4086-.22-.9101-.5-1.4159 1.256 2.1412 1.889 1.2729 3.023 2.0755l-2.044-3.1027c.164.0813.267.0837.337.0433-.944-.3996-1.896-.7813-2.856-1.1475.076.2809.157.5646.253.8556.189.3005.382.7305.581 1.3503z"/><path d="m209.799 34.8205c.996 1.1739 1.373 3.4965 2.018 2.623l-1.068-1.9823c1.128.5572.967 2.8648 2 2.3487-.371-.761-.302-1.1136-.395-1.573-.812-.7314-1.64-1.4471-2.483-2.1477-.05.179-.075.418-.072.7313z"/><path d="m175.318 17.2104c-.656-.1447-1.315-.2807-1.977-.4106l1.212.7299c.53.488.687.1823.765-.3193z"/><path d="m233.902 87.9668c.011.1623.02.3252.03.4875.051-.0676.099-.1445.143-.246z"/><path d="m214.055 130.615c.485.106 1.161.583 1.487.885l-.214.611c1.844-2.234 3.549-4.572 5.101-6.999-.554-.188-1.167-.559-1.774-1.006-1.377 2.279-2.917 4.452-4.6 6.509z"/><path d="m209.483 48.7043c.059.0642.119.1285.179.1928l.028-.2514c-.066.0333-.136.0464-.207.0586z"/><path d="m151.717 151.68c.359.088.322-.417.726.191.215.441 1.302.716 1.583 1.924-.791-.954-2.072-1.413-2.309-2.115zm-14.083-.642-.212-2.16.601.765zm-14.59-6.753c.4-1.536 1.409-.137 2.135.047-.342.16-.914 1.785-2.135-.047zm90.561-11.285c-.008-.036-.009-.065-.015-.099-9.749 11.355-24.247 18.86-40.77 19.791.216.149.372.046.65.303.028.264.626 1.045.484 1.398l-1.194-1.697c-4.837.268-9.847-.026-14.963-.953-5.024-.13-9.794-.773-14.285-1.862-.039.074-.08.145-.125.21-.295.047-.355-.087-.318-.315-2.637-.659-5.178-1.476-7.613-2.436.012.062.032.126.063.191l-.094-.204c-8.692-3.436-16.056-8.722-21.832-15.339.389 2.371-2.825-1.147-3.567-.794.229-1.452.872-.15.671-2.484l1.61 2.196c-.075-.275-.12-.474-.144-.624-2.609-3.24-4.852-6.77-6.709-10.534-.242.172-.604-.083-.919.066l.394 3.11c-.891.871-.568-1.22-.905-1.964-.663-.69-.703.483-.739 1.326.448.798.913 1.587 1.395 2.367.461-.219 1.11.476 1.841.958-.599-.156-.905-.044-1.176.101 1.146 1.782 2.377 3.514 3.689 5.191l-.121-.241c.348.693 1.605 1.628 2.272 2.861 2.53 2.941 5.309 5.692 8.294 8.222.182-.447.023-1.434-.021-1.929 1.296 2.621 1.604.036 2.557 2.819.237.641.355 1.11.405 1.485 2.879 2.207 5.925 4.216 9.102 6.003l-.579-.759c.285-.694 1.182-.585 1.888-.647.216.411.408.719.584.953.023-.118.043-.251.057-.407.066.347.147.586.238.748.155.147.294.231.422.268.633-.108 1.327-1.898.905-.416-.005.054-.014.101-.021.151.341-.181.678-.209 1.191.83.309 1.647-1.476-.358-1.168 1.146 1.188.591 2.394 1.146 3.612 1.674-.478-1.003 1.175.663.189-1.128.531.007.622 1.041.839 1.481l-.297-.037c5.532 2.329 11.349 4.005 17.305 4.918 1.097.079 2.19.13 3.279.157-.967-1.725.834-.586.345-2.379.572.404.984 1.576 1.023 2.396 2.723.012 5.412-.139 8.059-.442-1.235-1.54-2.528-.339-3.736-3.724l-.402 1.528-.69-1.816c.569-1.631 2.416 1.254 4.016 1.288.745.443-.276-1.199.079-1.117 1.206 1.572-.058 1.378.378 2.245.439.521.899 1.028 1.351 1.478 16.349-2.116 31.025-10.047 41.814-21.271l-.005-.049.038.014c.878-.915 1.732-1.852 2.558-2.81-.39-.6-.839-.874-1.189-1.396z"/><path d="m190.641 28.1197c.016-.0074.029-.0175.044-.0258-.019-.0108-.039-.02-.059-.0309.005.02.009.0367.015.0567z"/><path d="m227.893 61.4829c-.125-.1909-.264-.3873-.41-.581.065.1365.13.273.192.4101.069.0437.141.0992.218.1709z"/><path d="m117.829 144.766 1.109 2.496c-.754-.454-1.214-1.617-1.109-2.496zm17.283 12.188c-.433-.893-.478-1.422-.694-1.868.564.963 1.047 1.061 1.078.307-5.011-2.155-9.737-4.85-14.104-8.004-.346.419-.769.724-1.644-1.077l.166-.02c-6.581-5.002-12.302-11.06-16.915-17.864-.81-.162-1.705-.072-2.251.194-.068.163-.102.357-.118.567 4.203 6.137 9.336 11.814 15.187 16.797.336-.444.412-1.347 1.136-1.057.654 1.657-.137 1.469-.827 1.324 1.974 1.667 4.031 3.252 6.159 4.752-.19-.85-.671-1.788.073-1.287.278.573.564 1.249.7 1.824.359.248.718.491 1.08.733l.03-.144c.006.07.003.12-.004.16 2.648 1.768 5.4 3.401 8.244 4.883-.09-1.346 1.87-.033 2.704-.22z"/><path d="m173.881 160.901c.11.336.206.751.592 1.327-.488.235-1.076-.632-1.607-1.253-.262.016-.526.024-.789.037.214.293.477.415.75.663-.468.763-1.558.478-2.446.381-.096-.361-.194-.685-.292-.977-3.761.067-7.592-.174-11.466-.763-8.356-.533-16.309-2.475-23.645-5.556.088 1.322 1.061 1.156 1.941 1.725l-.81-1.201c.295.07.91 1.069 1.282 1.052-.044-.205.005-.295.204-.178-.051.124-.121.175-.204.178.121.556.946 1.981 1.523 2.674-.917-.355-1.074-2.158-1.907-1.496.748 1.109.689 1.314.681 1.658 6.32 2.656 13.008 4.584 19.917 5.628 1.874.02 3.731-.011 5.57-.091.215-.458.751-.319 1.312-.068 4.173-.234 8.249-.721 12.198-1.453-.083-.098-.196-.114-.357.017l.318-.423c.091.132.177.25.261.363.141-.027.281-.054.421-.082-.237-.299-.486-.645-.753-1.058.704.725 1.059.917 1.326.948.504-.1 1.004-.205 1.503-.314-.381-.537-.774-.895-.524-.667 1.259-.606 2.872-1.201 4.487-.284.322-.085.641-.174.96-.264l-.06-.705c.194.287.376.456.548.57.733-.207 1.461-.422 2.182-.647l-.303-.561.529.489c.451-.143.901-.287 1.348-.436l-.686-.622.851-.411.079.949c6.164-2.079 11.898-4.811 17.082-8.135l-1.517-1.086c-8.898 5.628-19.332 9.234-30.499 10.072z"/><path d="m229.273 103.764c-.874-.224-1.832-1.422-2.859-2.423-.719 6.237-2.477 12.167-5.108 17.625l.279.075-.321.156.235 1.002-.55-.504c-.298.594-.604 1.183-.922 1.765.231.229.472.49.73.789-.132.626.669 1.361-.087 1.167l.332.59c.372-.591.734-1.186 1.087-1.786-.149-.17-.3-.318-.43-.397-.081.141-.173.268-.375.171.056-.262.197-.279.375-.171.123-.216.224-.453.647.02 3.16-5.46 5.567-11.305 7.073-17.38-.233-.048-.499-.158-.813-.354z"/><path d="m224.851 128.055c-1.667 2.786-3.549 5.443-5.627 7.95.438.39.822.549 1.012-.001.897 2.078-.125.639-.06 1.43.043.099.08.173.119.255 2.172-2.554 4.139-5.273 5.881-8.147.002-.033.002-.068.008-.095z"/><path d="m234.645 95.2992c.565 2.2479-.683 2.8562.626 5.0458-1.036-.6137-1.319-.005-1.719.399-.623 9.576-3.621 18.635-8.445 26.655.548.334 1.095.836 1.364 1.509 5.298-8.688 8.524-18.764 9.129-29.9641.067-.6862.123-1.3708.171-2.0539-.35-.3848-.713-.8418-1.126-1.5908z"/><path d="m135.312 29.6728c1.23 1.8728-.125.6143-.485.5288.585.8412.937 1.8019 1.251 2.7843 2.263-1.0066 4.59-1.8679 6.968-2.5738-.211-.384-.473-.7581-.815-1.1243l-.806.9599c-.753-.4556.274-.9574-.156-1.8458-.276.9517-1.269-.205-1.718.8337-.556.5049-1.528-.929-2.005-2.2868-.687.2907-1.365.596-2.037.9076.621.0336 1.788 1.2354 1.233-.2568l1.353 1.2535-1.44-.1186.503 1.6809c-.661.5984-1.225-1.8593-1.976-2.3189.014-.0475.034-.0814.055-.1144-.731.3426-1.456.6956-2.17 1.0626.846.6477 1.803 1.446 2.245.6281z"/><path d="m205.28 148.964c.378.604.783.664 1.199.873l.087.418c4.79-3.228 9.104-6.975 12.843-11.198-.321-.521-.637-1.155-.957-1.777-3.815 4.439-8.252 8.377-13.172 11.684z"/><path d="m221.269 119.2c-.023.048-.048.096-.071.144l.093-.045z"/><path d="m133.509 157.974c.345.171.688.344 1.036.511-.416-.447-.838-.912-1.258-1.36-.353.038-.057.436.222.849z"/><path d="m140.039 25.8356c-.196.0748-.392.148-.586.2238.246-.0117.459-.063.594-.2068z"/><path d="m225.035 69.3042c-.098.0023-.13.1424-.05.525-.121-.4436-.082-.5732.05-.525.294-.0061 1.183 1.2416 1.426.9103-.151-.3115-.044-.6251-.17-1.0617l-.334-.6444c.185.2461.279.4554.334.6444l1.397 2.7016c-.557.058-2.196-2.381-2.653-2.5502zm-1.671-1.4718c.568.2792.256-1.2456 1.085.012.071.8114-.714.0837-1.085-.012zm-1.571-3.6876-.01-.0133c-.048-.142-.039-.1138.01.0133l1.628 2.2567c-.541.4875-1.428-1.7376-1.628-2.2567zm5.983 19.4116 2.234 2.8217c.131-1.2567.565-1.2204 1.128-.6934-.284-2.6844-.727-5.3285-1.319-7.923-.175-.4919-.195-1.2752-.635-1.058l-.255 1.2499.395.3637-1.942-1.562c1.479.3913.338-2.401.817-3.1917l.707.6558c-.445-1.5557-.945-3.0933-1.499-4.6088l-.69-.6409c.078-.183.224-.1717.393-.1432-.837-2.2071-1.784-4.3684-2.839-6.477-.408.0581-.728.1974-.162 1.4781-.559 1.9512-1.883-2.9904-2.463-1.3061.215.4434.655 1.3454 1.027 1.4527.264.9855-.372-.1073-.567-.2864-.39-.36-1.095-2.2449-.576-2.5068 2.027 3.5959.786-1.0223 1.712-.8127-.335-.6213-.682-1.2354-1.035-1.8468-.77-.9349-1.469-1.4327-1.449-.0425l.4.5655c.195.1029.402.3436.637.8957l-.637-.8957c-.378-.1999-.707.138-1.097-.2211l.484 1.4319c.03.3456-.632.2413-1.171.0734-.082-.026-.158-.0523-.23-.079-.208-.0761-.371-.1536-.423-.2025.135.0667.283.1437.423.2025.072.0267.148.053.23.079.312.0711.492-.0891.195-.9733-.418-.6374-1.249-1.9027-1.623-2.0037.325-.4401 1.087.0155.973-1.3223l.329 1.7846.852-.6848c-.359-.7403-.98-1.7157-1.289-2.0008-.052-.0307-.101-.0519-.155-.0885.031-.0145.088.0258.155.0885.544.3124.987.2866 1.403.1472-.816-1.2522-1.671-2.4817-2.564-3.6858-.347-.0536-.452.318.149 1.9133-.959-.6433-2.392-.498-3.406-1.6887l2.062 2.913-2.022-1.5366c-.026.0223-.056.0435-.094.0622l-.787-.7321.881.6699c.458-.3878-.757-1.3519-.843-2.3666-.797-.3258-.799.9853-.553 2.8119 1.37 1.7982 2.655 3.6688 3.849 5.6093.32-.1674.522-.419.411-1.0157 1.065 1.6253 1.039 2.7711 1.306 3.9621.132.2411.26.485.389.7283 1.006.3952.284-1.3267 1.457.4604l-.91-.1022.633 1.0876c-.088.1241-.198.1882-.317.2215.212.425.421.853.625 1.2838.059-.0217.12-.0407.174-.0679l-.131.1565c2.798 5.9127 4.823 12.3232 5.946 19.1058.606-.021 1.453.1819 1.307-1.5092z"/><path d="m96.8111 119.161c-.2884.683-1.0702-.109-1.2791.173.3985.818.817 1.631 1.247 2.439.0156-.044.0361-.083.0663-.113l.2128.632c.1485.273.2986.546.4506.819l.3192.027c.1812-.491.3191-.974.1605-1.331.3648-.658.648-1.126.898-1.489-.257-.503-.5077-1.009-.7524-1.518-.1126.329-.3749.43-.996-.079.6669-.607-1.3348-2.966-2.2047-2.543.5363 1.738-.2883.559-.592.585.2658.605.5421 1.208.8263 1.808.5236-.079 1.0687-.027 1.6435.59z"/><path d="m96.3715 114.288c-.4516-.913-.737.069-1.1217-.038.1295-.626.9187-.149-.1254-1.607.4618.178.8533.531 1.1902.752-2.6036-6.569-4.2711-13.5258-4.8497-20.6838-.0042-.0037-.0082-.0099-.0123-.0136l-.4971-.2695c.1884.02.3521.1227.4971.2695l.0119.0061c-.1788-2.2157-.2581-4.4487-.224-6.6969.0187-.4762.0504-.9479.0785-1.4207-.6436-1.8352-.4402 1.0281-1.4386-.3623l-.2858-.7086c-.112.7739-.2153 1.5511-.3041 2.333-.5629 5.969-.1262 11.9622 1.1688 17.8428l.6415.669c-.1175.306-.2321.502-.3446.625.7954 3.278 1.8543 6.516 3.1623 9.692.9335.272 2.1782.647 2.453-.389z"/><path d="m98.9895 123.989c1.2675 2.379 2.8535 3.007 3.9995 3.669-1.058-1.602-2.051-3.247-2.985-4.927-.3617.294-.7583.649-1.0145 1.258z"/><path d="m228.358 95.1227c.569 2.5029 1.061-.2484 1.59 1.7219.227.0282.536.1014.849.1527.082-1.3568.129-2.7063.131-4.0476-.262-.2558-.54-.4825-.825-.6552.149-.3492.446-.3441.817-.1648-.007-.6454-.023-1.289-.048-1.9303-.417.4395-.767 1.1883-1.712-.5079-.102.8875-1.612.2284-.906 2.117-.925-1.9103-.89-.083-1.591-.3185.137 1.7178.217 3.4559.239 5.2115.572-.3461 1.074-.9894 1.456-1.5788z"/><path d="m103.766 113.85c-.016-.046-.032-.09-.049-.135l-.58-1.198c.159.302.291.527.397.691-.337-.966-.652-1.943-.945-2.931-1.354.069-2.6916-.096-3.9625-.817.4567 1.528.9725 3.035 1.5425 4.521.96-.492 2.072-.794 3.597-.131z"/><path d="m100.987 53.4454c3.621-5.7836 7.996-11.0287 12.977-15.6088-5.083 4.425-9.475 9.666-12.977 15.6088z"/><path d="m172.811 86.9726c1.748.212 3.623.3507 5.363-.0094.652-.3077-.494-1.7894-.94-2.3672-.063-.0807-.112-.1438-.14-.1836-.5-.705-1.009-1.4043-1.546-2.0816-1.025-1.2915-2.166-2.5813-3.593-3.4311-1.27-.7568-2.713-.9879-4.091-.3686-1.225.5504-2.331 1.6106-2.89 2.8506-.792 1.7582.353 3.1081 1.848 3.9236 1.817.9915 3.957 1.4205 5.989 1.6673zm28.923 1.9517c1.598.2061 3.214.4146 4.659.8751 5.713 1.9691 5.104 8.005-2.008 13.7326-1.756 1.415-4.789 2.183-8.441 2.918-.041-.037-.086-.071-.133-.102-.281-.183-.591-.066-.739.233l-.005.01c-.006.012-.012.025-.017.037-.466.091-.94.182-1.422.275-4.142.799-8.837 1.705-13.284 3.466.067-.069.133-.138.199-.208.145-.152.291-.305.439-.452-.13-.161-.26-.322-.39-.484l-.002-.002c-.133-.166-.266-.332-.401-.498-.245.125-.492.247-.739.369h-.001c-.598.296-1.196.591-1.767.933-.21.127-.357.54-.341.81.024.334.226.545.495.636-3.158 1.544-6.102 3.621-8.52 6.522.056-.279-.064-.567-.182-.846-.016-.038-.032-.077-.048-.115-.007-.017-.014-.034-.02-.051-.074-.186-.23-.341-.111-.174-.464-.593-.755-.7-1.057-.557-.158.072-.281.274-.358.445-.08.179-.13.394-.121.594.032.712.455 1.129 1.119 1.287.1.022.232-.002.349-.052-2.361 3.009-4.175 6.865-5.126 11.862l-.001.008-.002.015c-.012.074-.026.167-.254.144-1.868-.189-37.448-13.542-28.616-29.444 14.415-25.9543-5.852-13.5303-7.64-12.4284-.253.1563-.244-.0386-.233-.1021 2.205-12.7181 12.619-17.2974 20.327-20.6865 1.566-.6889 3.021-1.3286 4.273-1.9775 1.628-.8439 5.505-4.5567 6.196-6.5745 1.541-3.7434 4.294-6.7863 6.282-5.5494 1.123.6164 1.781 1.9705 2.275 3.0965.384.8771.59 1.8599.794 2.8329.124.59.247 1.1765.408 1.7337.056.1939.1.4475.146.7192v.0001.0001.0001.0001.0001.0001.0001.0001.0001.0001.0001.0001.0001.0001.0001c.148.8668.327 1.917 1.056 1.8053.723.1051 1.756-1.761 2.824-3.6924.797-1.441 1.614-2.9185 2.338-3.6405 3.573-3.563 5.521 3.2131 6.63 7.0674v.0002c.168.5841.316 1.1011.448 1.5049.326.9967.621 1.9514.906 2.8741.972 3.146 1.829 5.9193 3.413 8.7114 2.948 5.1966 8.72 10.5341 12.798 11.5239 1.132.2746 2.363.4334 3.605.5935zm-42.703-.9752c-.201.2723-.245.5653-.116.8778-.491.2509-.979.3318-1.475-.0033-.358-.2411-.726-.4314-1.171-.267-.061-.0584-.123-.1169-.186-.1756v-.0003c-.07-.0662-.141-.1328-.211-.2001l-.896-.1282c-.055-.1878-.154-.3532-.263-.5145-.048-.072-.099-.143-.15-.214-.235-.3298-.47-.6602-.457-1.1027 0 0 0 .0052-.003.0075-.176-.1616-.334-.3294-.47-.5058-.23-.3079-.372-.6472-.342-1.0523.006-.1156.022-.2303.059-.3536l-.002.0023c-.024-.0277-.048-.0606-.069-.0907-.113-.1435-.225-.2922-.336-.438.116-.0988.239-.1892.363-.2667.24-.1478.499-.2347.791-.2003.097.0132.193.0366.295.0786.319-.1955.621-.1653.905.0671.06-.0363.126-.0644.192-.0873.083-.0319.169-.0531.26-.0636l.003.0125.005.0217c.002.0111.005.0223.008.0342.009.0546.02.112.031.1694v.0008l.113.5665c.002.0027.002.0028.002.0077v.0002c.128.1499.169.321.129.5137.054.0584.11.1159.167.173v.0001.0001c.027.0274.054.0547.08.082.041.0426.08.0827.119.1227l.006.0062c-.056.1579-.146.2975-.263.4168.291.558.621 1.078 1.207 1.3793.853-.1969 1.202.3639 1.55.925v.0001c.041.0667.083.1333.125.1987zm41.001 16.7469c.116.102.244.18.385.233 1.172-.907 1.172-.907.607-2.119-.296-.04-.592-.08-.885-.117-.297-.064-.597-.125-.897-.186-.001-.001-.002-.003-.003-.005-.001-.003-.003-.008-.006-.011-.072-.197-.141-.396-.209-.595-.173-.499-.345-.999-.573-1.474-.108-.22-.504-.4387-.752-.4282-.461.0292-.711.4002-.704.8702.02 1.919.533 2.557 3.037 3.832zm-36.129-39.4334c-.433-.3857-.812-.1528-1.185.0762-.056.0344-.112.0687-.168.1008l-.406.0711c-.367.0645-.736.1291-1.104.191l-.063.0096c-.377.0566-.802.1203-.614.6463.05.1378.265.2162.483.2951.101.0368.203.0738.288.1169.083.1978.222.3486.41.4467l-.003.0171v.0002.0002.0002.0002.0002.0002.0002.0002.0002.0002.0002.0002.0002.0002.0002.0002.0002.0002.0002l-.001.0002v.0002.0002.0002c-.121.6455-.243 1.291-.367 1.9338-.01.1333-.019.2661-.028.3988s-.019.2654-.028.3988c-.007.1265-.021.2544-.035.3822-.032.287-.063.5733-.005.8424.114.5176.509 1.1796.998 1.0111.261-.0884.54-.1458.819-.2034.718-.1479 1.445-.2978 1.918-.9787.052-.0731.086-.2509.047-.285-.466-.4176-.549-.9974-.632-1.5765-.091-.6346-.182-1.2683-.776-1.687.054-.1093.113-.2171.172-.3248v-.0003c.134-.246.268-.4915.349-.7539.009-.0308.019-.0619.03-.0935.111-.3459.238-.7374-.099-1.0394zm.791 7.3268c.328-.3521 1.065-.3582 1.405-.0051.522.5436.49 1.3922-.077 1.954-.359.3547-1.116.3824-1.414.0457-.464-.5208-.427-1.4411.086-1.9946zm-4.29 47.1136c-.303-.145-.644-.211-.985-.277-.15-.029-.3-.058-.446-.094-.135.08-.273.155-.411.23-.321.174-.641.348-.91.582-.518.452-.36.922.346 1.106.284.075.58.108.875.141.125.014.25.028.374.045.127-.075.258-.147.388-.219h.001v-.001h.001c.305-.169.61-.337.877-.555.381-.311.314-.758-.11-.958zm29.613-20.1276c1.623-1.171 1.706-1.1512 2.923.7296-.211.173-.423.346-.635.519-.212.172-.424.345-.635.518-.731-.403-1.356-.901-1.619-1.7431zm-27.598-8.0857c.598.3666 1.05.0206 1.491-.3171.061-.0467.121-.0933.182-.1378-.096-.1292-.176-.2674-.234-.4193l-.002-.0027.25-.1754.197-.2313c-.184-.2124-.367-.4264-.55-.6405v-.0003c-.471-.5503-.942-1.1017-1.439-1.6312-.462-.4895-1.054-.5257-1.666-.277.073.1015.145.208.214.3118.175.2594.35.5188.525.7783l.001.0018c.176.2591.351.5181.524.7771-.171.7416-.267 1.492.507 1.9636zm-7.604.269c-.101-.0312-.233.0357-.366.1027-.062.0313-.124.0626-.183.084-.523-.0767-.988-.0016-1.15.5835-.124.4617.185.7168.543.9193.18.0715.358.1468.536.2221v.0001l.001.0001v.0001.0001.0001l.001.0001v.0001.0001.0001l.001.0001v.0001c.381.161.761.3218 1.152.4454.36.1149.881-.4406.709-.741-.087-.1499-.16-.3122-.233-.475-.216-.4788-.433-.9615-1.011-1.1421zm2.41 6.0729c.456-.3028.523-.6868.363-1.1127-.188-.4876-.953-.7417-1.276-.4125-.318.3297-.342.7533-.065 1.127.25.338.556.629.978.3982zm-15.982 11.7774c-.332-.321-.265-.772.035-1.106.228-.257.564-.232.839-.044.397.275.483.643.222 1.068-.342.335-.762.406-1.096.082zm9.385 14.123c.295.44.722.354 1.064.057.256-.224.283-.555.002-.806-.254-.23-.559-.214-.847-.049-.244.223-.403.522-.219.798zm2.139-13.506c-.139-.385-.441-.32-.67-.22-.371.24-.423.525-.172.786.117.126.396.234.531.18.301-.122.427-.426.311-.746zm13.917-1.712c-.376-.73-.14-1.278.622-1.373.674-.086.844.442.711 1.05l.004.016c.317.291.314.606.086.94.124.129.193.282.203.461.531.343.683.794.408 1.375l.064.388c.056.34.111.681.165 1.021.231.288.253.581.027.879l.003.003c.292.342.26.633-.114.881l-.007.02c.1.496-.179.844-.601.773-.678-.113-1.003-.588-.761-1.314l-.008-.032c-.423-.383-.549-.842-.375-1.385-.249-.425-.433-.864-.316-1.372-.268-.319-.273-.627.035-.918l-.002-.008c-.248-.312-.261-.628-.028-.952-.132-.127-.173-.28-.116-.453zm8.126-34.7866c.248-.3899.611-.5174 1.042-.2701.282.2582.317.5889.042.7907-.213.158-.572.2341-.836.1813-.346-.0699-.429-.4072-.248-.7019zm-.183-2.6435c-.012-.0165-.022-.0328-.033-.0492-.01-.0163-.021-.0326-.032-.0491-.098-.1567-.197-.3127-.296-.4692-.085-.1342-.17-.2687-.256-.4044.119-.1347.237-.2745.353-.4119l-.53-.5365c-.097-.1027-.197-.2031-.297-.3034v-.0002l-.003-.0024-.005.0043v.0001.0001c-.284.2329-.567.4657-.853.6958.005.0405.019.0787.034.1161v.0001c.004.0107.008.0214.012.0321.033.1008.086.1954.17.2771.041.3207.081.6414.127.9624l-.222.1752-.263.2103c-.09-.0719-.18-.1438-.273-.2134-.557-.4124-1.146-.701-1.9-.3687.048.2072.096.4142.144.6213v.0018c.048.2078.096.4156.145.6235.7.0115 1.385-.017 1.887-.5997l.006.0067c.342.4003.688.8047 1.314.5461.13-.1441.258-.2883.386-.4325s.255-.2884.385-.4324zm3.528 1.6434c.303-.2974.669-.471 1.116-.3824.584-.153.929.0948 1.01.669.067.4854-.268.6666-.681.7408-.085.0404-.169.0891-.254.1378-.19.11-.38.2197-.578.232-.264.0142-.639-.1071-.797-.3033-.302-.3707-.127-.7844.184-1.0939zm-14.731 8.7773c-.184-.0926-.393-.1254-.646-.0534l.08.2951v.0014.0008.0003c.081.3005.163.6021.241.9035.036-.0255.071-.0517.105-.0778.035-.0262.07-.0524.106-.0778.114-.0835.228-.1676.342-.2518.114-.0841.228-.1683.342-.2517-.09-.1056-.178-.2032-.275-.2887-.095-.0826-.19-.1499-.295-.1999zm1.118 4.1117c.016.0184.028.0364.042.0576v.0001l.01.0136c-.058.083-.114.1675-.17.252-.111.1691-.223.3381-.349.4944-.794.9765-1.444.8687-1.88-.3153-.045-.1241-.056-.2614-.066-.3987v-.0001c-.006-.0686-.011-.1372-.02-.2042l.057-.0494c1.319-1.1369 1.481-1.1312 2.376.15zm8.651 12.6324c-.221-.1861-.513-.3496-.792-.3855-.368-.046-.594.258-.538.5853.032.1972.154.3805.277.5635.053.0792.105.1583.151.2385v.0094l-.001.0009.004.1552-.003-.1561.002-.0015c.077-.0422.157-.0813.237-.1205.197-.0962.395-.1928.55-.3358.119-.1115.186-.4906.113-.5534zm14.269 4.2933.376.039c-.008.003-.017.007-.026.012-.009.004-.018.009-.027.014-.035.02-.071.039-.101.034-.056-.011-.108-.039-.16-.067-.021-.011-.041-.022-.062-.032zm-12.604 10.164c.019-.03-.007-.094-.034-.158-.013-.03-.025-.061-.033-.088-.025-.007-.051-.018-.077-.028-.063-.025-.126-.051-.174-.037-.048.017-.105.172-.078.221.12.224.28.256.396.09zm-30.634-31.954c-.114-.0262-.228-.0524-.341-.0784-.03-.0088-.062-.016-.092-.0228-.008-.0016-.015-.0032-.022-.0047-.192-.7406.274-1.0581.737-1.374.048-.0326.096-.0653.143-.0984l.098-.0693c.703.6436.58 1.2139-.134 1.7379-.012-.0037-.03-.0077-.048-.0118-.113-.0261-.227-.0523-.341-.0785z"/></g></svg>