<svg fill="none" height="234" viewBox="0 0 1600 234" width="1600" xmlns="http://www.w3.org/2000/svg"><g clip-rule="evenodd" fill="#eef0f3" fill-rule="evenodd"><path d="m1497 229.563c-.86.222-1.5 1.005-1.5 1.937 0 1.105.9 2 2 2s2-.895 2-2c0-.932-.64-1.715-1.5-1.937v-64.356l5.35-5.353.15-.147v-.207-35-.207l-.15-.147-13.35-13.353v-44.293h-1v44.5.207l.15.147 13.35 13.353v34.586l-5.35 5.353-.15.147v.207zm-82-7.723 7.41 10.369-.82.582-7.5-10.5-.09-.131v-.16-16.5-.253l.2-.15 7.3-5.35v-20.54l-7.35-7.353-.15-.147v-.207-43h1v42.793l7.35 7.353.15.147v.207 21 .253l-.2.15-7.3 5.35zm234.5-180.84v-6.563c-.86-.222-1.5-1.0051-1.5-1.937s.64-1.715 1.5-1.937v-.063h.5.5v.063c.86.222 1.5 1.0051 1.5 1.937s-.64 1.715-1.5 1.937v6.3559l2.85 2.8536.15.1464v.2071 2.563c.86.222 1.5 1.0051 1.5 1.937s-.64 1.715-1.5 1.937v52.563.207l-.15.147-8.85 8.853v30.086l5.85 5.853.15.147v.207 20.063c.86.222 1.5 1.005 1.5 1.937s-.64 1.715-1.5 1.937v60.063h-1v-60.063c-.86-.222-1.5-1.005-1.5-1.937s.64-1.715 1.5-1.937v-19.856l-5.85-5.853-.15-.147v-.207-30.5-.207l.15-.147 8.85-8.853v-52.356c-.86-.222-1.5-1.0051-1.5-1.937s.64-1.715 1.5-1.937v-2.3559l-2.85-2.8536-.15-.1464zm-99 107.207v59.356c.86.222 1.5 1.005 1.5 1.937s-.64 1.715-1.5 1.937v21.063h-1v-21.063c-.86-.222-1.5-1.005-1.5-1.937s.64-1.715 1.5-1.937v-59.563-.207l.15-.147 5.85-5.853v-33.293h1v33.5.207l-.15.147zm-232 24v60.293h-1v-60.5-.207l.15-.147 5.85-5.853v-33.293h1v33.5.207l-.15.147zm212 60.293v-45-.207l-.15-.147-6.85-6.853v-95.793h-1v96 .207l.15.147 6.85 6.853v44.793zm-60-92v92h-1v-92zm-205 92v-92-91.063c.86-.2221 1.5-1.0051 1.5-1.937s-.64-1.715-1.5-1.937v-7.8559l6.85-6.8536.15-.1464v-.2071-30.50003344l-1-.00000009v30.29293353l-6.85 6.8535-.15.1465v.2071 8.063c-.86.222-1.5 1.0051-1.5 1.937s.64 1.7149 1.5 1.937v91.063 92zm316.5-38v38h-1v-37.793l-5.85-5.853-.15-.147v-.207-13.063c-.86-.222-1.5-1.005-1.5-1.937s.64-1.715 1.5-1.937v-13.063-.207l.15-.147 8.35-8.353v-109.793h1v110 .207l-.15.147-8.35 8.353v12.856c.86.222 1.5 1.005 1.5 1.937s-.64 1.715-1.5 1.937v12.856l5.85 5.853.15.147zm21.5 38v-15.063c.86-.222 1.5-1.005 1.5-1.937s-.64-1.715-1.5-1.937v-114.3464l7.84-7.3518.16-.1482v-.2166-48-.2166l-.16-.1482-7.84-7.3518v-23.7834h-1v24 .2166l.16.1482 7.84 7.3518v47.5668l-7.84 7.3518-.16.1482v.2166 114.563c-.86.222-1.5 1.005-1.5 1.937s.64 1.715 1.5 1.937v15.063zm24-57.793v57.793h-1v-58-.207l.15-.147 5.35-5.353v-73.0859l-5.35-5.3536-.15-.1464v-.2071-59.5h1v59.2929l5.35 5.3536.15.1464v.2071 73.5.207l-.15.147zm-177 57.793v-18.5-.207l-.15-.147-7.85-7.853v-29.356c.86-.222 1.5-1.005 1.5-1.937s-.64-1.715-1.5-1.937v-12.356l7.85-7.853.15-.147v-.207-58.5-.2071l-.15-.1465-7.85-7.8535v-52.2929h-1v52.5.2071l.15.1464 7.85 7.8536v58.0859l-7.85 7.853-.15.147v.207 12.563c-.86.222-1.5 1.005-1.5 1.937s.64 1.715 1.5 1.937v29.563.207l.15.147 7.85 7.853v18.293zm-205 0v-53.5-.207l-.15-.147-7.35-7.353v-8.856c.86-.222 1.5-1.005 1.5-1.937s-.64-1.715-1.5-1.937v-30.063-52.5-25.563c.86-.2221 1.5-1.0051 1.5-1.937 0-.932-.64-1.715-1.5-1.937v-44.56304h-1v44.56304c-.86.222-1.5 1.005-1.5 1.937 0 .9319.64 1.7149 1.5 1.937v25.563 52.5 30.063c-.86.222-1.5 1.005-1.5 1.937s.64 1.715 1.5 1.937v9.063.207l.15.147 7.35 7.353v53.293zm149.94-12.269-6.5 12.5-.88-.462 6.44-12.391v-8.06l-6.37-7.045-.13-.143v-.193-13.687-41.75-9.563c-.86-.222-1.5-1.005-1.5-1.937s.64-1.715 1.5-1.937v-20.063-.207l.15-.147 6.35-6.353v-28.293h1v28.5.207l-.15.147-6.35 6.353v19.856c.86.222 1.5 1.005 1.5 1.937s-.64 1.715-1.5 1.937v9.563 41.75 13.495l6.37 7.045.13.142v.193 8.375.122zm-25.94 12.269v-54.814l6.38-7.359.12-.141v-.186-62h-1v61.813l-6.38 7.36-.12.14v.187 55zm-22 0v-16.063c.86-.222 1.5-1.005 1.5-1.937s-.64-1.715-1.5-1.937v-10.856l5.35-5.353.15-.147v-.207-53.5-.207l-.15-.147-8.35-8.353v-64.293h-1v64.5.207l.15.147 8.35 8.353v53.086l-5.35 5.353-.15.147v.207 11.063c-.86.222-1.5 1.005-1.5 1.937s.64 1.715 1.5 1.937v16.063zm-49-57.937v-6.563-.207l-.15-.147-5.85-5.853v-39.586l5.85-5.853.15-.147v-.207-58.5h-1v58.293l-5.85 5.853-.15.147v.207 40 .207l.15.147 5.85 5.853v6.356c-.86.222-1.5 1.005-1.5 1.937s.64 1.715 1.5 1.937v54.063h1v-54.063c.86-.222 1.5-1.005 1.5-1.937s-.64-1.715-1.5-1.937zm23.5-65.063c0-1.105.9-2 2-2s2 .895 2 2-.9 2-2 2-2-.895-2-2z"/><path d="m1061 229.563c-.86.222-1.5 1.005-1.5 1.937 0 1.105.9 2 2 2s2-.895 2-2c0-.932-.64-1.715-1.5-1.937v-64.356l5.35-5.353.15-.147v-.207-35-.207l-.15-.147-13.35-13.353v-44.293h-1v44.5.207l.15.147 13.35 13.353v34.586l-5.35 5.353-.15.147v.207zm-82-7.723 7.407 10.369-.814.582-7.5-10.5-.093-.131v-.16-16.5-.253l.204-.15 7.296-5.35v-20.54l-7.354-7.353-.146-.147v-.207-43h1v42.793l7.354 7.353.146.147v.207 21 .253l-.204.15-7.296 5.35zm234.5-180.84v-6.563c-.86-.222-1.5-1.0051-1.5-1.937s.64-1.715 1.5-1.937v-.063h.5.5v.063c.86.222 1.5 1.0051 1.5 1.937s-.64 1.715-1.5 1.937v6.3559l2.85 2.8536.15.1464v.2071 2.563c.86.222 1.5 1.0051 1.5 1.937s-.64 1.715-1.5 1.937v52.563.207l-.15.147-8.85 8.853v30.086l5.85 5.853.15.147v.207 20.063c.86.222 1.5 1.005 1.5 1.937s-.64 1.715-1.5 1.937v60.063h-1v-60.063c-.86-.222-1.5-1.005-1.5-1.937s.64-1.715 1.5-1.937v-19.856l-5.85-5.853-.15-.147v-.207-30.5-.207l.15-.147 8.85-8.853v-52.356c-.86-.222-1.5-1.0051-1.5-1.937s.64-1.715 1.5-1.937v-2.3559l-2.85-2.8536-.15-.1464zm-99 107.207v59.356c.86.222 1.5 1.005 1.5 1.937s-.64 1.715-1.5 1.937v21.063h-1v-21.063c-.86-.222-1.5-1.005-1.5-1.937s.64-1.715 1.5-1.937v-59.563-.207l.15-.147 5.85-5.853v-33.293h1v33.5.207l-.15.147zm-232 24v60.293h-1v-60.5-.207l.146-.147 5.854-5.853v-33.293h1v33.5.207l-.146.147zm212 60.293v-45-.207l-.15-.147-6.85-6.853v-95.793h-1v96 .207l.15.147 6.85 6.853v44.793zm-60-92v92h-1v-92zm-205 92v-92-91.063c.863-.2221 1.5-1.0051 1.5-1.937s-.637-1.715-1.5-1.937v-7.8559l6.854-6.8536.146-.1464v-.2071-30.50003344l-1-.00000009v30.29293353l-6.854 6.8535-.146.1465v.2071 8.063c-.863.222-1.5 1.0051-1.5 1.937s.637 1.7149 1.5 1.937v91.063 92zm316.5-38v38h-1v-37.793l-5.85-5.853-.15-.147v-.207-13.063c-.86-.222-1.5-1.005-1.5-1.937s.64-1.715 1.5-1.937v-13.063-.207l.15-.147 8.35-8.353v-109.793h1v110 .207l-.15.147-8.35 8.353v12.856c.86.222 1.5 1.005 1.5 1.937s-.64 1.715-1.5 1.937v12.856l5.85 5.853.15.147zm21.5 38v-15.063c.86-.222 1.5-1.005 1.5-1.937s-.64-1.715-1.5-1.937v-114.3464l7.84-7.3518.16-.1482v-.2166-48-.2166l-.16-.1482-7.84-7.3518v-23.7834h-1v24 .2166l.16.1482 7.84 7.3518v47.5668l-7.84 7.3518-.16.1482v.2166 114.563c-.86.222-1.5 1.005-1.5 1.937s.64 1.715 1.5 1.937v15.063zm24-57.793v57.793h-1v-58-.207l.15-.147 5.35-5.353v-73.0859l-5.35-5.3536-.15-.1464v-.2071-59.5h1v59.2929l5.35 5.3536.15.1464v.2071 73.5.207l-.15.147zm-177 57.793v-18.5-.207l-.15-.147-7.85-7.853v-29.356c.86-.222 1.5-1.005 1.5-1.937s-.64-1.715-1.5-1.937v-12.356l7.85-7.853.15-.147v-.207-58.5-.2071l-.15-.1465-7.85-7.8535v-52.2929h-1v52.5.2071l.15.1464 7.85 7.8536v58.0859l-7.85 7.853-.15.147v.207 12.563c-.86.222-1.5 1.005-1.5 1.937s.64 1.715 1.5 1.937v29.563.207l.15.147 7.85 7.853v18.293zm-205 0v-53.5-.207l-.146-.147-7.354-7.353v-8.856c.863-.222 1.5-1.005 1.5-1.937s-.637-1.715-1.5-1.937v-30.063-52.5-25.563c.863-.2221 1.5-1.0051 1.5-1.937 0-.932-.637-1.715-1.5-1.937v-44.56304h-1v44.56304c-.863.222-1.5 1.005-1.5 1.937 0 .9319.637 1.7149 1.5 1.937v25.563 52.5 30.063c-.863.222-1.5 1.005-1.5 1.937s.637 1.715 1.5 1.937v9.063.207l.146.147 7.354 7.353v53.293zm149.944-12.269-6.5 12.5-.888-.462 6.444-12.391v-8.06l-6.371-7.045-.129-.143v-.193-13.687-41.75-9.563c-.863-.222-1.5-1.005-1.5-1.937s.637-1.715 1.5-1.937v-20.063-.207l.146-.147 6.354-6.353v-28.293h1v28.5.207l-.146.147-6.354 6.353v19.856c.863.222 1.5 1.005 1.5 1.937s-.637 1.715-1.5 1.937v9.563 41.75 13.495l6.371 7.045.129.142v.193 8.375.122zm-25.944 12.269v-54.814l6.378-7.359.122-.141v-.186-62h-1v61.813l-6.378 7.36-.122.14v.187 55zm-22 0v-16.063c.863-.222 1.5-1.005 1.5-1.937s-.637-1.715-1.5-1.937v-10.856l5.354-5.353.146-.147v-.207-53.5-.207l-.146-.147-8.354-8.353v-64.293h-1v64.5.207l.146.147 8.354 8.353v53.086l-5.354 5.353-.146.147v.207 11.063c-.863.222-1.5 1.005-1.5 1.937s.637 1.715 1.5 1.937v16.063zm-49-57.937v-6.563-.207l-.146-.147-5.854-5.853v-39.586l5.854-5.853.146-.147v-.207-58.5h-1v58.293l-5.854 5.853-.146.147v.207 40 .207l.146.147 5.854 5.853v6.356c-.863.222-1.5 1.005-1.5 1.937s.637 1.715 1.5 1.937v54.063h1v-54.063c.863-.222 1.5-1.005 1.5-1.937s-.637-1.715-1.5-1.937zm23.5-65.063c0-1.105.895-2 2-2s2 .895 2 2-.895 2-2 2-2-.895-2-2z"/><path d="m625 229.563c-.863.222-1.5 1.005-1.5 1.937 0 1.105.895 2 2 2s2-.895 2-2c0-.932-.637-1.715-1.5-1.937v-64.356l5.354-5.353.146-.147v-.207-35-.207l-.146-.147-13.354-13.353v-44.293h-1v44.5.207l.147.147 13.353 13.353v34.586l-5.353 5.353-.147.147v.207zm-82-7.723 7.407 10.369-.814.582-7.5-10.5-.093-.131v-.16-16.5-.253l.204-.15 7.296-5.35v-20.54l-7.353-7.353-.147-.147v-.207-43h1v42.793l7.354 7.353.146.147v.207 21 .253l-.204.15-7.296 5.35zm234.5-180.84v-6.563c-.863-.222-1.5-1.0051-1.5-1.937s.637-1.715 1.5-1.937v-.063h.5.5v.063c.863.222 1.5 1.0051 1.5 1.937s-.637 1.715-1.5 1.937v6.3559l2.854 2.8536.146.1464v.2071 2.563c.863.222 1.5 1.0051 1.5 1.937s-.637 1.715-1.5 1.937v52.563.207l-.146.147-8.854 8.853v30.086l5.854 5.853.146.147v.207 20.063c.863.222 1.5 1.005 1.5 1.937s-.637 1.715-1.5 1.937v60.063h-1v-60.063c-.863-.222-1.5-1.005-1.5-1.937s.637-1.715 1.5-1.937v-19.856l-5.853-5.853-.147-.147v-.207-30.5-.207l.147-.147 8.853-8.853v-52.356c-.863-.222-1.5-1.0051-1.5-1.937s.637-1.715 1.5-1.937v-2.3559l-2.853-2.8536-.147-.1464zm-99 107.207v59.356c.863.222 1.5 1.005 1.5 1.937s-.637 1.715-1.5 1.937v21.063h-1v-21.063c-.863-.222-1.5-1.005-1.5-1.937s.637-1.715 1.5-1.937v-59.563-.207l.147-.147 5.853-5.853v-33.293h1v33.5.207l-.146.147zm-232 24v60.293h-1v-60.5-.207l.146-.147 5.854-5.853v-33.293h1v33.5.207l-.146.147zm212 60.293v-45-.207l-.146-.147-6.854-6.853v-95.793h-1v96 .207l.147.147 6.853 6.853v44.793zm-60-92v92h-1v-92zm-205 92v-92-91.063c.863-.2221 1.5-1.0051 1.5-1.937s-.637-1.715-1.5-1.937v-7.8559l6.854-6.8536.146-.1464v-.2071-30.50003344l-1-.00000009v30.29293353l-6.853 6.8535-.147.1465v.2071 8.063c-.863.222-1.5 1.0051-1.5 1.937s.637 1.7149 1.5 1.937v91.063 92zm316.5-38v38h-1v-37.793l-5.853-5.853-.147-.147v-.207-13.063c-.863-.222-1.5-1.005-1.5-1.937s.637-1.715 1.5-1.937v-13.063-.207l.147-.147 8.353-8.353v-109.793h1v110 .207l-.146.147-8.354 8.353v12.856c.863.222 1.5 1.005 1.5 1.937s-.637 1.715-1.5 1.937v12.856l5.854 5.853.146.147zm21.5 38v-15.063c.863-.222 1.5-1.005 1.5-1.937s-.637-1.715-1.5-1.937v-114.3464l7.842-7.3518.158-.1482v-.2166-48-.2166l-.158-.1482-7.842-7.3518v-23.7834h-1v24 .2166l.158.1482 7.842 7.3518v47.5668l-7.842 7.3518-.158.1482v.2166 114.563c-.863.222-1.5 1.005-1.5 1.937s.637 1.715 1.5 1.937v15.063zm24-57.793v57.793h-1v-58-.207l.147-.147 5.353-5.353v-73.0859l-5.353-5.3536-.147-.1464v-.2071-59.5h1v59.2929l5.354 5.3536.146.1464v.2071 73.5.207l-.146.147zm-177 57.793v-18.5-.207l-.146-.147-7.854-7.853v-29.356c.863-.222 1.5-1.005 1.5-1.937s-.637-1.715-1.5-1.937v-12.356l7.854-7.853.146-.147v-.207-58.5-.2071l-.146-.1465-7.854-7.8535v-52.2929h-1v52.5.2071l.147.1464 7.853 7.8536v58.0859l-7.853 7.853-.147.147v.207 12.563c-.863.222-1.5 1.005-1.5 1.937s.637 1.715 1.5 1.937v29.563.207l.147.147 7.853 7.853v18.293zm-205 0v-53.5-.207l-.146-.147-7.354-7.353v-8.856c.863-.222 1.5-1.005 1.5-1.937s-.637-1.715-1.5-1.937v-30.063-52.5-25.563c.863-.2221 1.5-1.0051 1.5-1.937 0-.932-.637-1.715-1.5-1.937v-44.56304h-1v44.56304c-.863.222-1.5 1.005-1.5 1.937 0 .9319.637 1.7149 1.5 1.937v25.563 52.5 30.063c-.863.222-1.5 1.005-1.5 1.937s.637 1.715 1.5 1.937v9.063.207l.146.147 7.354 7.353v53.293zm149.944-12.269-6.5 12.5-.888-.462 6.444-12.391v-8.06l-6.371-7.045-.129-.143v-.193-13.687-41.75-9.563c-.863-.222-1.5-1.005-1.5-1.937s.637-1.715 1.5-1.937v-20.063-.207l.146-.147 6.354-6.353v-28.293h1v28.5.207l-.146.147-6.354 6.353v19.856c.863.222 1.5 1.005 1.5 1.937s-.637 1.715-1.5 1.937v9.563 41.75 13.495l6.371 7.045.129.142v.193 8.375.122zm-25.944 12.269v-54.814l6.378-7.359.122-.141v-.186-62h-1v61.813l-6.378 7.36-.122.14v.187 55zm-22 0v-16.063c.863-.222 1.5-1.005 1.5-1.937s-.637-1.715-1.5-1.937v-10.856l5.354-5.353.146-.147v-.207-53.5-.207l-.146-.147-8.354-8.353v-64.293h-1v64.5.207l.146.147 8.354 8.353v53.086l-5.354 5.353-.146.147v.207 11.063c-.863.222-1.5 1.005-1.5 1.937s.637 1.715 1.5 1.937v16.063zm-49-57.937v-6.563-.207l-.146-.147-5.854-5.853v-39.586l5.854-5.853.146-.147v-.207-58.5h-1v58.293l-5.854 5.853-.146.147v.207 40 .207l.146.147 5.854 5.853v6.356c-.863.222-1.5 1.005-1.5 1.937s.637 1.715 1.5 1.937v54.063h1v-54.063c.863-.222 1.5-1.005 1.5-1.937s-.637-1.715-1.5-1.937zm23.5-65.063c0-1.105.895-2 2-2s2 .895 2 2-.895 2-2 2-2-.895-2-2z"/><path d="m189 229.563c-.863.222-1.5 1.005-1.5 1.937 0 1.105.895 2 2 2s2-.895 2-2c0-.932-.637-1.715-1.5-1.937v-64.356l5.354-5.353.146-.147v-.207-35-.207l-.146-.147-13.354-13.353v-44.293h-1v44.5.207l.146.147 13.354 13.353v34.586l-5.354 5.353-.146.147v.207zm-82-7.723 7.407 10.369-.814.582-7.5-10.5-.093-.131v-.16-16.5-.253l.204-.15 7.296-5.35v-20.54l-7.354-7.353-.146-.147v-.207-43h1v42.793l7.354 7.353.146.147v.207 21 .253l-.204.15-7.296 5.35zm234.5-180.84v-6.563c-.863-.222-1.5-1.0051-1.5-1.937s.637-1.715 1.5-1.937v-.063h.5.5v.063c.863.222 1.5 1.0051 1.5 1.937s-.637 1.715-1.5 1.937v6.3559l2.854 2.8536.146.1464v.2071 2.563c.863.222 1.5 1.0051 1.5 1.937s-.637 1.715-1.5 1.937v52.563.207l-.146.147-8.854 8.853v30.086l5.854 5.853.146.147v.207 20.063c.863.222 1.5 1.005 1.5 1.937s-.637 1.715-1.5 1.937v60.063h-1v-60.063c-.863-.222-1.5-1.005-1.5-1.937s.637-1.715 1.5-1.937v-19.856l-5.854-5.853-.146-.147v-.207-30.5-.207l.146-.147 8.854-8.853v-52.356c-.863-.222-1.5-1.0051-1.5-1.937s.637-1.715 1.5-1.937v-2.3559l-2.854-2.8536-.146-.1464zm-99 107.207v59.356c.863.222 1.5 1.005 1.5 1.937s-.637 1.715-1.5 1.937v21.063h-1v-21.063c-.863-.222-1.5-1.005-1.5-1.937s.637-1.715 1.5-1.937v-59.563-.207l.146-.147 5.854-5.853v-33.293h1v33.5.207l-.146.147zm-232 24v60.293h-1l.00001-60.5v-.207l.14645-.147 5.85354-5.853v-33.293h1v33.5.207l-.1464.147zm212 60.293v-45-.207l-.146-.147-6.854-6.853v-95.793h-1v96 .207l.146.147 6.854 6.853v44.793zm-60-92v92h-1v-92zm-205 92v-92-91.063c.8626-.2221 1.5-1.0051 1.5-1.937s-.6374-1.715-1.5-1.937v-7.8559l6.8536-6.8536.1464-.1464v-.2071-30.50003344l-1-.00000009v30.29293353l-6.8535 6.8535-.1465.1465v.2071 8.063c-.8626.222-1.5 1.0051-1.5 1.937s.6374 1.7149 1.5 1.937v91.063 92zm316.5-38v38h-1v-37.793l-5.854-5.853-.146-.147v-.207-13.063c-.863-.222-1.5-1.005-1.5-1.937s.637-1.715 1.5-1.937v-13.063-.207l.146-.147 8.354-8.353v-109.793h1v110 .207l-.146.147-8.354 8.353v12.856c.863.222 1.5 1.005 1.5 1.937s-.637 1.715-1.5 1.937v12.856l5.854 5.853.146.147zm21.5 38v-15.063c.863-.222 1.5-1.005 1.5-1.937s-.637-1.715-1.5-1.937v-114.3464l7.842-7.3518.158-.1482v-.2166-48-.2166l-.158-.1482-7.842-7.3518v-23.7834h-1v24 .2166l.158.1482 7.842 7.3518v47.5668l-7.842 7.3518-.158.1482v.2166 114.563c-.863.222-1.5 1.005-1.5 1.937s.637 1.715 1.5 1.937v15.063zm24-57.793v57.793h-1v-58-.207l.146-.147 5.354-5.353v-73.0859l-5.354-5.3536-.146-.1464v-.2071-59.5h1v59.2929l5.354 5.3536.146.1464v.2071 73.5.207l-.146.147zm-177 57.793v-18.5-.207l-.146-.147-7.854-7.853v-29.356c.863-.222 1.5-1.005 1.5-1.937s-.637-1.715-1.5-1.937v-12.356l7.854-7.853.146-.147v-.207-58.5-.2071l-.146-.1465-7.854-7.8535v-52.2929h-1v52.5.2071l.146.1464 7.854 7.8536v58.0859l-7.854 7.853-.146.147v.207 12.563c-.863.222-1.5 1.005-1.5 1.937s.637 1.715 1.5 1.937v29.563.207l.146.147 7.854 7.853v18.293zm-205 0v-53.5-.207l-.1464-.147-7.3536-7.353v-8.856c.8626-.222 1.5-1.005 1.5-1.937s-.6374-1.715-1.5-1.937v-30.063-52.5-25.563c.8626-.2221 1.5-1.0051 1.5-1.937 0-.932-.6374-1.715-1.5-1.937v-44.56304h-1v44.56304c-.8626.222-1.5 1.005-1.5 1.937 0 .9319.6374 1.7149 1.5 1.937v25.563 52.5 30.063c-.8626.222-1.5 1.005-1.5 1.937s.6374 1.715 1.5 1.937v9.063.207l.1465.147 7.3535 7.353v53.293zm149.9436-12.269-6.5 12.5-.8872-.462 6.4436-12.391v-8.06l-6.3708-7.045-.1292-.143v-.193-13.687-41.75-9.563c-.8626-.222-1.5-1.005-1.5-1.937s.6374-1.715 1.5-1.937v-20.063-.207l.1465-.147 6.3535-6.353v-28.293h1v28.5.207l-.1464.147-6.3536 6.353v19.856c.8626.222 1.5 1.005 1.5 1.937s-.6374 1.715-1.5 1.937v9.563 41.75 13.495l6.3709 7.045.1291.142v.193 8.375.122zm-25.9436 12.269v-54.814l6.3778-7.359.1222-.141v-.186-62h-1v61.813l-6.3778 7.36-.1222.14v.187 55zm-22 0v-16.063c.8626-.222 1.5-1.005 1.5-1.937s-.6374-1.715-1.5-1.937v-10.856l5.3535-5.353.1465-.147v-.207-53.5-.207l-.1464-.147-8.3536-8.353v-64.293h-1v64.5.207l.1465.147 8.3535 8.353v53.086l-5.3535 5.353-.1465.147v.207 11.063c-.8626.222-1.5 1.005-1.5 1.937s.6374 1.715 1.5 1.937v16.063zm-48.99999-57.937v-6.563-.207l-.14646-.147-5.85355-5.853v-39.586l5.85356-5.853.14645-.147v-.207l.00001-58.5h-1.00002v58.293l-5.8535 5.853-.1465.147v.207 40 .207l.1465.147 5.8535 5.853v6.356c-.8626.222-1.5 1.005-1.5 1.937s.6374 1.715 1.5 1.937v54.063h1v-54.063c.86261-.222 1.5-1.005 1.5-1.937.00001-.932-.63739-1.715-1.49999-1.937zm23.49999-65.063c0-1.105.8954-2 2-2s2 .895 2 2-.8954 2-2 2-2-.895-2-2z"/></g></svg>