<svg fill="none" height="478" viewBox="0 0 678 478" width="678" xmlns="http://www.w3.org/2000/svg" xmlns:xlink="http://www.w3.org/1999/xlink"><filter id="a" color-interpolation-filters="sRGB" filterUnits="userSpaceOnUse" height="108" width="1142" x="24" y="25"><feFlood flood-opacity="0" result="BackgroundImageFix"/><feColorMatrix in="SourceAlpha" result="hardAlpha" type="matrix" values="0 0 0 0 0 0 0 0 0 0 0 0 0 0 0 0 0 0 127 0"/><feOffset dy="1"/><feGaussianBlur stdDeviation="8"/><feComposite in2="hardAlpha" operator="out"/><feColorMatrix type="matrix" values="0 0 0 0 0.1587 0 0 0 0 0.19435 0 0 0 0 0.23 0 0 0 0.02 0"/><feBlend in2="BackgroundImageFix" mode="normal" result="effect1_dropShadow_1779_3173"/><feColorMatrix in="SourceAlpha" result="hardAlpha" type="matrix" values="0 0 0 0 0 0 0 0 0 0 0 0 0 0 0 0 0 0 127 0"/><feOffset dy="1"/><feGaussianBlur stdDeviation="2"/><feComposite in2="hardAlpha" operator="out"/><feColorMatrix type="matrix" values="0 0 0 0 0.1587 0 0 0 0 0.19435 0 0 0 0 0.23 0 0 0 0.08 0"/><feBlend in2="effect1_dropShadow_1779_3173" mode="normal" result="effect2_dropShadow_1779_3173"/><feBlend in="SourceGraphic" in2="effect2_dropShadow_1779_3173" mode="normal" result="shape"/></filter><filter id="b" color-interpolation-filters="sRGB" filterUnits="userSpaceOnUse" height="381" width="768" x="39" y="140"><feFlood flood-opacity="0" result="BackgroundImageFix"/><feColorMatrix in="SourceAlpha" result="hardAlpha" type="matrix" values="0 0 0 0 0 0 0 0 0 0 0 0 0 0 0 0 0 0 127 0"/><feOffset dy="1"/><feGaussianBlur stdDeviation=".5"/><feComposite in2="hardAlpha" operator="out"/><feColorMatrix type="matrix" values="0 0 0 0 0.1152 0 0 0 0 0.1476 0 0 0 0 0.18 0 0 0 0.05 0"/><feBlend in2="BackgroundImageFix" mode="normal" result="effect1_dropShadow_1779_3173"/><feBlend in="SourceGraphic" in2="effect1_dropShadow_1779_3173" mode="normal" result="shape"/></filter><filter id="c" color-interpolation-filters="sRGB" filterUnits="userSpaceOnUse" height="32" width="48" x="52" y="152"><feFlood flood-opacity="0" result="BackgroundImageFix"/><feColorMatrix in="SourceAlpha" result="hardAlpha" type="matrix" values="0 0 0 0 0 0 0 0 0 0 0 0 0 0 0 0 0 0 127 0"/><feOffset/><feGaussianBlur stdDeviation="2"/><feComposite in2="hardAlpha" operator="out"/><feColorMatrix type="matrix" values="0 0 0 0 0.1152 0 0 0 0 0.1476 0 0 0 0 0.18 0 0 0 0.04 0"/><feBlend in2="BackgroundImageFix" mode="normal" result="effect1_dropShadow_1779_3173"/><feColorMatrix in="SourceAlpha" result="hardAlpha" type="matrix" values="0 0 0 0 0 0 0 0 0 0 0 0 0 0 0 0 0 0 127 0"/><feOffset/><feGaussianBlur stdDeviation=".5"/><feComposite in2="hardAlpha" operator="out"/><feColorMatrix type="matrix" values="0 0 0 0 0.113725 0 0 0 0 0.14902 0 0 0 0 0.180392 0 0 0 0.08 0"/><feBlend in2="effect1_dropShadow_1779_3173" mode="normal" result="effect2_dropShadow_1779_3173"/><feBlend in="SourceGraphic" in2="effect2_dropShadow_1779_3173" mode="normal" result="shape"/></filter><filter id="d" color-interpolation-filters="sRGB" filterUnits="userSpaceOnUse" height="28" width="97" x="202" y="155"><feFlood flood-opacity="0" result="BackgroundImageFix"/><feColorMatrix in="SourceAlpha" result="hardAlpha" type="matrix" values="0 0 0 0 0 0 0 0 0 0 0 0 0 0 0 0 0 0 127 0"/><feOffset dy="1"/><feGaussianBlur stdDeviation=".5"/><feComposite in2="hardAlpha" operator="out"/><feColorMatrix type="matrix" values="0 0 0 0 0.1152 0 0 0 0 0.1476 0 0 0 0 0.18 0 0 0 0.05 0"/><feBlend in2="BackgroundImageFix" mode="normal" result="effect1_dropShadow_1779_3173"/><feBlend in="SourceGraphic" in2="effect1_dropShadow_1779_3173" mode="normal" result="shape"/></filter><linearGradient id="e" gradientUnits="userSpaceOnUse" x1="434.5" x2="434.5" y1="237" y2="421"><stop offset="0" stop-color="#c8e6ff"/><stop offset="1" stop-color="#c8e6ff" stop-opacity="0"/></linearGradient><mask id="f" height="478" maskUnits="userSpaceOnUse" width="678" x="0" y="0"><rect fill="#fcfcfd" height="478" rx="7" width="678"/></mask><g mask="url(#f)"><g filter="url(#a)"><rect fill="#fff" height="76" rx="4" width="1110" x="40" y="40"/><rect height="75" rx="3.5" stroke="#dfe3e8" width="1109" x="40.5" y="40.5"/></g><path d="m73.75 59.8125c-.2461 0-.4375.2187-.4375.4375v.6289l4.7031 3.8555c.5742.4648 1.3672.4648 1.9414 0l4.7305-3.8555v-.6289c0-.2188-.2187-.4375-.4375-.4375zm-.4375 2.7617v4.6758c0 .2461.1914.4375.4375.4375h10.5c.2188 0 .4375-.1914.4375-.4375v-4.6758l-3.8828 3.1719c-1.0664.875-2.5703.875-3.6094 0zm-1.3125-2.3242c0-.957.7656-1.75 1.75-1.75h10.5c.957 0 1.75.793 1.75 1.75v7c0 .9844-.793 1.75-1.75 1.75h-10.5c-.9844 0-1.75-.7656-1.75-1.75z" fill="#0f8df4"/><path d="m78.2358 82.2557c.6487.0047 1.2879.1231 1.9176.3551s1.1979.6108 1.7046 1.1364c.5113.5255.9185 1.2358 1.2215 2.1306.3078.8902.4641 1.9981.4688 3.3239 0 1.2737-.1278 2.4077-.3835 3.402-.2557.9896-.6227 1.8253-1.1009 2.5071-.4735.6818-1.0487 1.2003-1.7258 1.5554s-1.4394.5327-2.287.5327c-.8664 0-1.6359-.1705-2.3082-.5114-.6724-.3409-1.2192-.812-1.6406-1.4134-.4214-.606-.6842-1.302-.7884-2.088h2.1662c.1421.625.4309 1.1316.8665 1.5199.4403.3835 1.0085.5752 1.7045.5752 1.0654 0 1.8963-.464 2.4929-1.392.5966-.9328.8973-2.2348.902-3.9062h-.1136c-.2462.4072-.554.7575-.9233 1.0511-.3646.2936-.7742.5208-1.2287.6818s-.9399.2415-1.456.2415c-.838 0-1.6003-.206-2.2869-.6179s-1.2334-.9778-1.6406-1.6975-.6108-1.5411-.6108-2.4644c0-.9186.2083-1.7519.625-2.5.4214-.7481 1.0085-1.34 1.7613-1.7756.7576-.4404 1.6454-.6558 2.6634-.6463zm.0071 1.8466c-.554 0-1.0535.1373-1.4986.4119-.4403.2699-.7883.6368-1.044 1.1009-.2557.4592-.3835.9706-.3835 1.534 0 .5635.1231 1.0749.3693 1.5341.2509.4546.5918.8168 1.0227 1.0867.4356.2651.9328.3977 1.4915.3977.4167 0 .8049-.0805 1.1648-.2415.3598-.1609.6747-.3835.9446-.6676.2698-.2888.4805-.6155.6321-.9801.1515-.3646.2272-.7481.2272-1.1506 0-.535-.1278-1.0322-.3835-1.4914-.2509-.4593-.5966-.8286-1.0369-1.108-.4404-.2841-.9423-.4261-1.5057-.4261zm10.1349 10.9091-.1065.7741c-.071.5682-.1918 1.16-.3622 1.7756-.1657.6202-.3386 1.1955-.5185 1.7258-.1752.5303-.3196.9521-.4332 1.2641h-1.5057c.0616-.293.1468-.6912.2557-1.193.1089-.4972.2154-1.0535.3196-1.6691.1042-.6155.1823-1.2429.2344-1.8821l.071-.7954zm3.0895 1.9886 6.3495-12.5568v-.1066h-7.3438v-1.8821h9.616v1.9461l-6.3276 12.5994zm15.7137.1989c-1.018 0-1.918-.1752-2.699-.5256-.776-.3504-1.385-.8333-1.825-1.4489-.44-.6155-.658-1.3163-.653-2.1022-.005-.6156.12-1.1814.376-1.6975.26-.5208.613-.9541 1.058-1.2997.445-.3504.942-.5729 1.492-.6676v-.0852c-.725-.1752-1.305-.5635-1.74-1.1648-.436-.6013-.651-1.2926-.647-2.0739-.004-.7433.192-1.4062.59-1.9886.402-.5871.954-1.0488 1.655-1.385.7-.3361 1.498-.5042 2.393-.5042.886 0 1.676.1704 2.372.5113.701.3362 1.253.7979 1.655 1.385.403.5824.606 1.2429.611 1.9815-.005.7813-.227 1.4726-.668 2.0739-.44.6013-1.013.9896-1.718 1.1648v.0852c.544.0947 1.034.3172 1.47.6676.44.3456.79.7789 1.051 1.2997.265.5161.4 1.0819.405 1.6975-.005.7859-.228 1.4867-.668 2.1022-.44.6156-1.051 1.0985-1.832 1.4489-.777.3504-1.669.5256-2.678.5256zm0-1.7969c.601 0 1.122-.0994 1.563-.2983.44-.2036.781-.4853 1.022-.8452.242-.3646.365-.7907.37-1.2784-.005-.5066-.138-.9541-.398-1.3423-.256-.3883-.604-.6937-1.044-.9162s-.945-.3338-1.513-.3338c-.573 0-1.082.1113-1.527.3338s-.795.5279-1.051.9162c-.256.3882-.381.8357-.376 1.3423-.005.4877.111.9138.348 1.2784.241.3599.584.6416 1.029.8452.445.1989.971.2983 1.577.2983zm0-6.7685c.483 0 .912-.097 1.286-.2912.374-.1941.667-.464.88-.8096.218-.3457.329-.7505.334-1.2145-.005-.4546-.114-.8523-.327-1.1932-.208-.3409-.499-.6037-.873-.7884-.374-.1893-.807-.284-1.3-.284-.502 0-.942.0947-1.321.284-.374.1847-.665.4475-.873.7884-.209.3409-.311.7386-.306 1.1932-.005.464.1.8688.313 1.2145.213.3456.506.6155.88.8096.379.1942.815.2912 1.307.2912zm7.417 5.5256v-1.7756l6.285-9.929h1.399v2.6137h-.887l-4.496 7.1165v.1136h8.615v1.8608zm6.896 2.8409v-3.3807l.014-.8096v-10.3552h2.081v14.5455z" fill="#28323b"/><path d="m95.7188 61.5653c-.0455-.4034-.233-.7159-.5626-.9375-.3295-.2244-.7443-.3366-1.2443-.3366-.3579 0-.6676.0568-.9289.1704-.2614.1108-.4645.2643-.6094.4603-.1421.1932-.2131.4133-.2131.6605 0 .2074.0483.3863.1449.5369.0994.1506.2287.277.3878.3793.1619.0994.3352.1832.5199.2514.1846.0653.3622.1193.5326.1619l.8523.2216c.2784.0682.5639.1605.8565.277.2927.1165.564.2699.814.4602.25.1904.4517.4262.6051.7074.1562.2813.2344.6179.2344 1.01 0 .4943-.1279.9332-.3836 1.3167-.2528.3836-.6207.6861-1.1037.9077-.4801.2216-1.061.3324-1.7429.3324-.6534 0-1.2187-.1037-1.696-.3111s-.8508-.5014-1.1207-.8821c-.2699-.3835-.4191-.8381-.4475-1.3636h1.3211c.0255.3153.1278.5781.3068.7883.1818.2074.4133.3622.6946.4645.2841.0994.5951.1492.9332.1492.3722 0 .7031-.0583.9929-.1748.2926-.1193.5227-.2841.6904-.4943.1676-.213.2514-.4616.2514-.7457 0-.2585-.0739-.4702-.2216-.635-.1449-.1647-.3423-.3011-.5923-.4091-.2472-.1079-.527-.2031-.8395-.2855l-1.0313-.2812c-.6988-.1904-1.2528-.4702-1.6619-.8395-.4063-.3693-.6094-.858-.6094-1.4659 0-.5029.1364-.9418.4091-1.3168s.642-.6662 1.108-.8735c.4659-.2103.9914-.3154 1.5767-.3154.5909 0 1.1122.1037 1.5639.3111.4545.2074.8125.4929 1.0738.8565.2614.3608.3978.7756.4091 1.2443zm5.6812 6.5668c-.645 0-1.2-.1378-1.666-.4133-.463-.2785-.821-.6691-1.0738-1.1719-.25-.5057-.375-1.098-.375-1.777 0-.6705.125-1.2614.375-1.7727.2528-.5114.6051-.9106 1.0568-1.1975.455-.2869.986-.4304 1.594-.4304.369 0 .727.0611 1.074.1833.346.1221.657.3139.933.5752.275.2614.493.6009.652 1.0185.159.4148.238.919.238 1.5128v.4517h-5.2027v-.9546h3.9547c0-.3352-.068-.6321-.205-.8906-.136-.2613-.328-.4673-.575-.6179-.244-.1505-.531-.2258-.861-.2258-.358 0-.67.088-.937.2642-.264.1733-.469.4005-.6139.6818-.142.2784-.2131.581-.2131.9077v.7457c0 .4375.0767.8097.2302 1.1165.1562.3068.3738.5412.6518.7031.279.1591.604.2386.976.2386.241 0 .462-.034.661-.1022.198-.0711.37-.1762.515-.3154s.256-.311.333-.5156l1.205.2173c-.096.3551-.269.6662-.519.9333-.248.2642-.559.4701-.934.6179-.372.1449-.797.2173-1.274.2173zm5.496-4.0185v3.8864h-1.274v-6.5455h1.223v1.0654h.081c.151-.3466.387-.625.708-.8352.323-.2103.731-.3154 1.223-.3154.446 0 .836.0938 1.171.2813.336.1846.596.4602.78.8267.185.3664.277.8196.277 1.3593v4.1634h-1.274v-4.0099c0-.4745-.123-.8452-.371-1.1123-.247-.2698-.586-.4048-1.018-.4048-.296 0-.558.0639-.788.1918-.228.1278-.408.3153-.542.5625-.13.2443-.196.5397-.196.8863zm8.953-2.6591v1.0228h-3.575v-1.0228zm-2.616-1.5681h1.274v6.1917c0 .2472.037.4333.111.5583.074.1221.169.2059.285.2514.12.0426.249.0639.388.0639.102 0 .192-.0071.269-.0213.076-.0142.136-.0256.179-.0341l.23 1.0526c-.074.0284-.179.0568-.316.0852-.136.0312-.306.0483-.511.0511-.335.0057-.648-.054-.937-.179-.29-.125-.525-.3181-.704-.5795s-.268-.5895-.268-.9844z" fill="#4c555e"/><path d="m443.094 94.1591v-1.7756l6.285-9.929h1.399v2.6137h-.887l-4.496 7.1165v.1136h8.615v1.8608zm6.896 2.8409v-3.3807l.014-.8096v-10.3552h2.081v14.5455zm8.739-1.9886-.106.7741c-.071.5682-.192 1.16-.362 1.7756-.166.6202-.339 1.1955-.519 1.7258-.175.5303-.319.9521-.433 1.2641h-1.506c.062-.293.147-.6912.256-1.193.109-.4972.215-1.0535.32-1.6691.104-.6155.182-1.2429.234-1.8821l.071-.7954zm7.397 2.1875c-1.018 0-1.917-.1752-2.698-.5256-.777-.3504-1.385-.8333-1.826-1.4489-.44-.6155-.658-1.3163-.653-2.1022-.005-.6156.121-1.1814.376-1.6975.261-.5208.613-.9541 1.059-1.2997.445-.3504.942-.5729 1.491-.6676v-.0852c-.724-.1752-1.304-.5635-1.74-1.1648s-.651-1.2926-.646-2.0739c-.005-.7433.191-1.4062.589-1.9886.403-.5871.954-1.0488 1.655-1.385.701-.3361 1.499-.5042 2.393-.5042.886 0 1.677.1704 2.373.5113.7.3362 1.252.7979 1.654 1.385.403.5824.606 1.2429.611 1.9815-.005.7813-.227 1.4726-.667 2.0739-.441.6013-1.014.9896-1.719 1.1648v.0852c.544.0947 1.034.3172 1.47.6676.44.3456.791.7789 1.051 1.2997.265.5161.4 1.0819.405 1.6975-.005.7859-.227 1.4867-.668 2.1022-.44.6156-1.051 1.0985-1.832 1.4489-.777.3504-1.669.5256-2.678.5256zm0-1.7969c.602 0 1.123-.0994 1.563-.2983.44-.2036.781-.4853 1.023-.8452.241-.3646.364-.7907.369-1.2784-.005-.5066-.137-.9541-.398-1.3423-.255-.3883-.603-.6937-1.044-.9162-.44-.2225-.944-.3338-1.513-.3338-.572 0-1.081.1113-1.527.3338-.445.2225-.795.5279-1.051.9162-.255.3882-.381.8357-.376 1.3423-.005.4877.111.9138.348 1.2784.241.3599.585.6416 1.03.8452.445.1989.97.2983 1.576.2983zm0-6.7685c.483 0 .912-.097 1.286-.2912.374-.1941.668-.464.881-.8096.217-.3457.329-.7505.333-1.2145-.004-.4546-.113-.8523-.326-1.1932-.209-.3409-.5-.6037-.874-.7884-.374-.1893-.807-.284-1.3-.284-.501 0-.942.0947-1.321.284-.374.1847-.665.4475-.873.7884-.209.3409-.31.7386-.306 1.1932-.004.464.1.8688.313 1.2145.213.3456.507.6155.881.8096.378.1942.814.2912 1.306.2912zm12.8 8.5654c-.648-.0095-1.287-.1279-1.917-.3551-.625-.2273-1.193-.6061-1.705-1.1364-.511-.5303-.921-1.2429-1.228-2.1378-.303-.8949-.455-2.0123-.455-3.3523 0-1.2689.126-2.3958.377-3.3807.255-.9848.622-1.8158 1.1-2.4928.479-.6819 1.056-1.2003 1.733-1.5554.677-.3552 1.437-.5327 2.28-.5327.867 0 1.636.1704 2.308.5113.673.341 1.217.8121 1.634 1.4134.421.6013.689 1.2855.802 2.0526h-2.166c-.147-.6061-.438-1.1009-.873-1.4844-.436-.3835-1.004-.5753-1.705-.5753-1.065 0-1.896.464-2.493 1.392-.592.9281-.89 2.2183-.895 3.8708h.107c.251-.412.559-.7623.923-1.0512.37-.2935.781-.5184 1.236-.6747.459-.161.942-.2414 1.449-.2414.843 0 1.605.2059 2.287.6178.686.4072 1.233.9707 1.64 1.6904.408.7197.611 1.5435.611 2.4716 0 .928-.21 1.7684-.632 2.5213-.417.7528-1.004 1.3494-1.761 1.7898-.758.4356-1.643.6486-2.657.6392zm-.007-1.8466c.559 0 1.059-.1373 1.499-.412.44-.2746.788-.6439 1.044-1.1079s.384-.9825.384-1.5554c0-.5587-.126-1.0677-.377-1.527-.246-.4593-.587-.8239-1.023-1.0938-.43-.2698-.923-.4048-1.477-.4048-.421 0-.812.0805-1.172.2415-.355.161-.667.3835-.937.6676s-.483.6108-.639.9801c-.152.3646-.228.7505-.228 1.1577 0 .5445.126 1.0488.377 1.5128.255.464.603.838 1.044 1.1221.445.2794.947.4191 1.505.4191zm7.644 1.6477v-1.5909l4.922-5.0994c.526-.554.959-1.0393 1.3-1.456.345-.4214.603-.8215.774-1.2003.17-.3788.256-.7812.256-1.2074 0-.4829-.114-.8996-.341-1.25-.228-.3551-.538-.6273-.931-.8167-.393-.1942-.835-.2912-1.328-.2912-.521 0-.975.1065-1.363.3196-.389.213-.687.5137-.895.902-.209.3882-.313.8428-.313 1.3636h-2.095c0-.8854.204-1.6596.611-2.3224.407-.6629.966-1.1767 1.676-1.5412.71-.3694 1.517-.554 2.422-.554.914 0 1.719.1823 2.415.5469.7.3598 1.247.8522 1.64 1.4772.393.6203.59 1.3211.59 2.1023 0 .5398-.102 1.0677-.306 1.5838-.199.5161-.547 1.0914-1.044 1.7259-.497.6297-1.188 1.3944-2.074 2.294l-2.89 3.0256v.1065h6.548v1.8821z" fill="#28323b"/><path d="m502.33 92.2727c0-1.1572.152-2.222.457-3.1946.304-.9725.749-1.8696 1.334-2.6914h1.265c-.228.3047-.44.6786-.637 1.1218s-.37.9295-.517 1.4588c-.148.5263-.264 1.0726-.347 1.6389-.083.5632-.124 1.1187-.124 1.6665 0 .7325.072 1.4742.217 2.2252.144.7509.34 1.448.586 2.0912.246.6433.52 1.168.822 1.5743h-1.265c-.585-.8218-1.03-1.7189-1.334-2.6915-.305-.9725-.457-2.0389-.457-3.1992zm7.687 4.8566c-.662 0-1.246-.1139-1.754-.3417-.505-.2277-.9-.5416-1.187-.9417-.286-.4001-.427-.8556-.424-1.3665-.003-.4001.078-.7679.244-1.1033.17-.3386.399-.6202.688-.8449.29-.2277.613-.3723.97-.4339v-.0554c-.471-.1139-.848-.3662-1.131-.7571s-.424-.8402-.42-1.348c-.004-.4832.124-.9141.383-1.2926.261-.3817.62-.6817 1.075-.9002.456-.2186.974-.3278 1.556-.3278.576 0 1.09.1108 1.542.3324.456.2185.814.5186 1.076.9002.261.3785.394.8079.397 1.288-.003.5078-.148.9571-.434 1.348s-.659.6432-1.117.7571v.0554c.353.0616.672.2062.955.4339.286.2247.514.5063.683.8449.173.3354.26.7032.264 1.1033-.004.5109-.148.9664-.434 1.3665-.287.4001-.684.714-1.191.9417-.505.2278-1.085.3417-1.741.3417zm0-1.168c.391 0 .73-.0646 1.016-.1939.286-.1323.508-.3155.665-.5494.156-.2369.237-.5139.24-.8309-.003-.3293-.09-.6202-.259-.8725-.166-.2524-.392-.4509-.679-.5956-.286-.1446-.614-.2169-.983-.2169-.372 0-.703.0723-.992.2169-.29.1447-.517.3432-.684.5956-.166.2523-.247.5432-.244.8725-.003.317.072.594.226.8309.157.2339.38.4171.669.5494.29.1293.631.1939 1.025.1939zm0-4.3995c.314 0 .593-.0631.836-.1893s.434-.3016.572-.5263c.142-.2246.214-.4878.217-.7894-.003-.2954-.074-.554-.212-.7756-.136-.2215-.325-.3924-.568-.5124-.243-.1231-.525-.1846-.845-.1846-.326 0-.612.0615-.859.1846-.243.12-.432.2909-.567.5124-.136.2216-.202.4802-.199.7756-.003.3016.065.5648.203.7894.139.2247.33.4001.573.5263.246.1262.529.1893.849.1893zm5.338 5.4382 4.127-8.1619v-.0693h-4.773v-1.2233h6.25v1.2649l-4.113 8.1896zm12.145-1.7727v-.4986c0-.357.074-.6832.221-.9787.151-.2985.37-.5371.656-.7156.289-.1815.638-.2723 1.048-.2723.418 0 .769.0892 1.052.2677.284.1785.497.4171.642.7156.148.2985.222.6263.222.9833v.4986c0 .357-.074.6848-.222.9833-.148.2954-.365.534-.651.7155-.283.1785-.631.2678-1.043.2678-.416 0-.767-.0893-1.053-.2678-.286-.1815-.503-.4201-.651-.7155-.147-.2985-.221-.6263-.221-.9833zm1.075-.4986v.4986c0 .2647.063.5047.19.7201.126.2155.346.3232.66.3232.311 0 .528-.1077.651-.3232.123-.2154.184-.4554.184-.7201v-.4986c0-.2647-.06-.5047-.18-.7202-.117-.2154-.335-.3231-.655-.3231-.308 0-.526.1077-.656.3231-.129.2155-.194.4555-.194.7202zm-5.83-4.9119v-.4986c0-.357.074-.6848.221-.9833.151-.2986.37-.5371.656-.7156.289-.1785.639-.2677 1.048-.2677.418 0 .769.0892 1.052.2677.284.1785.497.417.642.7156.145.2985.217.6263.217.9833v.4986c0 .357-.074.6847-.222.9833-.144.2954-.36.5339-.646.7155-.283.1785-.631.2678-1.043.2678-.419 0-.771-.0893-1.057-.2678-.283-.1816-.499-.4201-.647-.7155-.147-.2986-.221-.6263-.221-.9833zm1.08-.4986v.4986c0 .2646.062.5047.185.7201.126.2155.346.3232.66.3232.308 0 .523-.1077.646-.3232.126-.2154.189-.4555.189-.7201v-.4986c0-.2647-.06-.5048-.18-.7202s-.338-.3231-.655-.3231c-.308 0-.526.1077-.656.3231-.126.2154-.189.4555-.189.7202zm-.642 7.6818 6.5-9.4545h1.104l-6.5 9.4545zm12.82-4.7273c0 1.1603-.152 2.2267-.457 3.1992-.304.9726-.749 1.8697-1.334 2.6915h-1.265c.228-.3047.44-.6787.637-1.1219.197-.4431.37-.9279.517-1.4541.148-.5294.263-1.0772.347-1.6435.083-.5663.124-1.1234.124-1.6712 0-.7294-.072-1.4696-.217-2.2205-.144-.7509-.34-1.448-.586-2.0913-.246-.6432-.52-1.1679-.822-1.5742h1.265c.585.8218 1.03 1.7189 1.334 2.6914.305.9726.457 2.0374.457 3.1946z" fill="#707880"/><path d="m450 58.9375c-1.805 0-3.254.8203-4.375 1.8594-1.066.9843-1.777 2.1328-2.16 2.9531.383.8203 1.094 1.9961 2.16 2.9805 1.121 1.039 2.57 1.832 4.375 1.832 1.777 0 3.227-.793 4.348-1.832 1.066-.9844 1.804-2.1602 2.16-2.9805-.356-.8203-1.094-1.9688-2.133-2.9531-1.148-1.0391-2.598-1.8594-4.375-1.8594zm-5.277.9023c1.285-1.2031 3.062-2.2148 5.277-2.2148 2.188 0 3.965 1.0117 5.25 2.2148 1.285 1.2032 2.133 2.5977 2.543 3.5821.082.2187.082.4648 0 .6836-.41.957-1.258 2.3789-2.543 3.582s-3.062 2.1875-5.25 2.1875c-2.215 0-3.992-.9844-5.277-2.1875s-2.133-2.625-2.543-3.582c-.082-.2188-.082-.4649 0-.6836.41-.9844 1.258-2.4063 2.543-3.5821zm5.277 6.0977c1.203 0 2.188-.957 2.188-2.1875 0-1.2031-.985-2.1875-2.188-2.1875-.027 0-.055 0-.055 0 .028.1641.055.3008.055.4375 0 .9844-.793 1.75-1.75 1.75-.164 0-.301 0-.438-.0547v.0547c0 1.2305.958 2.1875 2.188 2.1875zm0-5.6875c1.23 0 2.379.6836 3.008 1.75.629 1.0938.629 2.4336 0 3.5-.629 1.0938-1.778 1.75-3.008 1.75-1.258 0-2.406-.6562-3.035-1.75-.629-1.0664-.629-2.4062 0-3.5.629-1.0664 1.777-1.75 3.035-1.75z" fill="#24a522"/><path d="m470.54 63.6364c0 .9318-.171 1.7329-.512 2.4034-.34.6676-.808 1.1818-1.402 1.5426-.59.3579-1.262.5369-2.015.5369-.756 0-1.431-.179-2.024-.5369-.591-.3608-1.057-.8764-1.398-1.5469-.341-.6704-.511-1.4702-.511-2.3991 0-.9319.17-1.7316.511-2.3992.341-.6704.807-1.1846 1.398-1.5426.593-.3608 1.268-.5412 2.024-.5412.753 0 1.425.1804 2.015.5412.594.358 1.062.8722 1.402 1.5426.341.6676.512 1.4673.512 2.3992zm-1.304 0c0-.7103-.115-1.3083-.345-1.7941-.228-.4886-.54-.8579-.938-1.1079-.395-.2529-.842-.3793-1.342-.3793-.503 0-.952.1264-1.347.3793-.395.25-.707.6193-.937 1.1079-.228.4858-.341 1.0838-.341 1.7941 0 .7102.113 1.3096.341 1.7983.23.4858.542.8551.937 1.1079.395.25.844.375 1.347.375.5 0 .947-.125 1.342-.375.398-.2528.71-.6221.938-1.1079.23-.4887.345-1.0881.345-1.7983zm2.843 6.8181v-9h1.245v1.0611h.106c.074-.1363.18-.294.32-.473.139-.179.332-.3352.579-.4687.247-.1364.574-.2046.98-.2046.529 0 1 .1335 1.415.4006.415.267.74.652.976 1.1548.239.5029.358 1.108.358 1.8154 0 .7073-.118 1.3139-.354 1.8196-.236.5028-.559.8906-.971 1.1633-.412.2699-.883.4048-1.411.4048-.398 0-.723-.0667-.976-.2002-.25-.1336-.446-.2898-.588-.4688s-.251-.3381-.328-.4773h-.077v3.473zm1.249-5.7272c0 .4602.067.8636.2 1.2102.134.3466.327.6179.58.8139.252.1932.562.2898.929.2898.38 0 .698-.1009.954-.3026.256-.2045.449-.4815.58-.8309.133-.3495.2-.7429.2-1.1804 0-.4318-.065-.8196-.196-1.1634-.128-.3437-.321-.615-.58-.8139-.255-.1989-.575-.2983-.958-.2983-.37 0-.682.0952-.938.2855-.253.1904-.445.456-.575.7969-.131.3409-.196.7386-.196 1.1932zm8.978 3.4048c-.644 0-1.2-.1378-1.666-.4133-.463-.2785-.821-.6691-1.074-1.1719-.25-.5057-.375-1.098-.375-1.777 0-.6705.125-1.2614.375-1.7727.253-.5114.606-.9106 1.057-1.1975.455-.2869.986-.4304 1.594-.4304.369 0 .727.0611 1.074.1833.346.1221.658.3139.933.5752.276.2614.493.6009.652 1.0185.159.4148.239.919.239 1.5128v.4517h-5.203v-.9546h3.954c0-.3352-.068-.6321-.204-.8906-.137-.2613-.329-.4673-.576-.6179-.244-.1505-.531-.2258-.861-.2258-.357 0-.67.088-.937.2642-.264.1733-.469.4005-.614.6818-.142.2784-.213.581-.213.9077v.7457c0 .4375.077.8097.23 1.1165.157.3068.374.5412.652.7031.279.1591.604.2386.976.2386.242 0 .462-.034.661-.1022.199-.0711.37-.1762.515-.3154s.256-.311.333-.5156l1.206.2173c-.097.3551-.27.6662-.52.9333-.247.2642-.558.4701-.933.6179-.373.1449-.797.2173-1.275.2173zm5.497-4.0185v3.8864h-1.275v-6.5455h1.223v1.0654h.081c.151-.3466.387-.625.708-.8352.324-.2103.731-.3154 1.223-.3154.446 0 .836.0938 1.172.2813.335.1846.595.4602.779.8267.185.3664.277.8196.277 1.3593v4.1634h-1.274v-4.0099c0-.4745-.123-.8452-.37-1.1123-.248-.2698-.587-.4048-1.019-.4048-.295 0-.558.0639-.788.1918-.227.1278-.408.3153-.541.5625-.131.2443-.196.5397-.196.8863zm10.802-1.061-1.155.2045c-.048-.1477-.125-.2884-.23-.4219-.102-.1335-.241-.2429-.417-.3281-.177-.0852-.397-.1278-.661-.1278-.361 0-.662.0809-.903.2429-.242.159-.363.365-.363.6179 0 .2187.081.3948.243.5284.162.1335.424.2429.784.3281l1.04.2386c.602.1392 1.051.3537 1.347.6435.295.2898.443.6662.443 1.1293 0 .392-.114.7414-.341 1.0482-.224.304-.538.5427-.942.716-.4.1733-.865.2599-1.393.2599-.733 0-1.331-.1562-1.794-.4687-.463-.3154-.747-.7628-.852-1.3424l1.231-.1875c.077.321.234.5639.473.7287.239.1619.55.2429.933.2429.418 0 .752-.0866 1.002-.2599.25-.1762.375-.3907.375-.6435 0-.2045-.077-.3764-.23-.5156-.151-.1392-.383-.2443-.695-.3154l-1.108-.2429c-.611-.1392-1.062-.3608-1.355-.6647-.29-.304-.435-.689-.435-1.1549 0-.3863.108-.7244.324-1.0142.216-.2897.514-.5156.895-.6775.381-.1648.817-.2472 1.308-.2472.708 0 1.264.1534 1.671.4602.406.304.674.7117.805 1.2231z" fill="#4c555e"/><path d="m263.918 82.4545v14.5455h-2.202v-12.3438h-.085l-3.48 2.2728v-2.1023l3.629-2.3722zm4.424 14.5455 6.35-12.5568v-.1066h-7.344v-1.8821h9.616v1.9461l-6.328 12.5994z" fill="#28323b"/><path d="m284.33 92.2727c0-1.1572.152-2.222.457-3.1946.304-.9725.749-1.8696 1.334-2.6914h1.265c-.228.3047-.44.6786-.637 1.1218s-.37.9295-.517 1.4588c-.148.5263-.264 1.0726-.347 1.6389-.083.5632-.124 1.1187-.124 1.6665 0 .7325.072 1.4742.217 2.2252.144.7509.34 1.448.586 2.0912.246.6433.52 1.168.822 1.5743h-1.265c-.585-.8218-1.03-1.7189-1.334-2.6915-.305-.9725-.457-2.0389-.457-3.1992zm7.784 4.8843c-.729-.0031-1.353-.1955-1.87-.5771s-.912-.9371-1.186-1.6665c-.274-.7295-.411-1.6081-.411-2.6361 0-1.0248.137-1.9004.411-2.6267.277-.7264.674-1.2803 1.191-1.662.52-.3816 1.142-.5724 1.865-.5724s1.343.1923 1.861.5771c.517.3816.912.9356 1.186 1.6619.277.7232.415 1.5973.415 2.6221 0 1.0311-.137 1.9113-.41 2.6407-.274.7263-.67 1.2818-1.187 1.6665-.517.3816-1.139.5725-1.865.5725zm0-1.2326c.64 0 1.14-.3124 1.5-.9372.364-.6247.545-1.528.545-2.7099 0-.7848-.083-1.448-.249-1.9897-.163-.5447-.399-.9571-.706-1.2372-.305-.2831-.668-.4247-1.09-.4247-.637 0-1.137.3139-1.5.9418-.363.6278-.547 1.5311-.55 2.7098 0 .7879.082 1.4542.245 1.999.166.5416.402.9525.706 1.2326.305.277.671.4155 1.099.4155zm10.035-.6971v-.4986c0-.357.074-.6832.222-.9787.151-.2985.369-.5371.655-.7156.29-.1815.639-.2723 1.048-.2723.419 0 .77.0892 1.053.2677s.497.4171.641.7156c.148.2985.222.6263.222.9833v.4986c0 .357-.074.6848-.222.9833-.147.2954-.364.534-.65.7155-.284.1785-.631.2678-1.044.2678-.415 0-.766-.0893-1.052-.2678-.287-.1815-.504-.4201-.651-.7155-.148-.2985-.222-.6263-.222-.9833zm1.076-.4986v.4986c0 .2647.063.5047.189.7201.126.2155.346.3232.66.3232.311 0 .528-.1077.651-.3232.123-.2154.185-.4554.185-.7201v-.4986c0-.2647-.06-.5047-.18-.7202-.117-.2154-.336-.3231-.656-.3231-.308 0-.526.1077-.655.3231-.13.2155-.194.4555-.194.7202zm-5.831-4.9119v-.4986c0-.357.074-.6848.222-.9833.151-.2986.369-.5371.655-.7156.29-.1785.639-.2677 1.048-.2677.419 0 .77.0892 1.053.2677s.497.417.641.7156c.145.2985.217.6263.217.9833v.4986c0 .357-.073.6847-.221.9833-.145.2954-.36.5339-.646.7155-.284.1785-.631.2678-1.044.2678-.418 0-.771-.0893-1.057-.2678-.283-.1816-.499-.4201-.646-.7155-.148-.2986-.222-.6263-.222-.9833zm1.08-.4986v.4986c0 .2646.062.5047.185.7201.126.2155.346.3232.66.3232.308 0 .523-.1077.647-.3232.126-.2154.189-.4555.189-.7201v-.4986c0-.2647-.06-.5048-.18-.7202s-.339-.3231-.656-.3231c-.308 0-.526.1077-.655.3231-.126.2154-.19.4555-.19.7202zm-.641 7.6818 6.5-9.4545h1.103l-6.5 9.4545zm12.82-4.7273c0 1.1603-.153 2.2267-.457 3.1992-.305.9726-.75 1.8697-1.334 2.6915h-1.265c.227-.3047.44-.6787.637-1.1219.197-.4431.369-.9279.517-1.4541.147-.5294.263-1.0772.346-1.6435s.125-1.1234.125-1.6712c0-.7294-.073-1.4696-.217-2.2205-.145-.7509-.34-1.448-.587-2.0913-.246-.6432-.52-1.1679-.821-1.5742h1.265c.584.8218 1.029 1.7189 1.334 2.6914.304.9726.457 2.0374.457 3.1946z" fill="#707880"/><path d="m261.828 60.1133 1.121 1.1211c.192.1914.301.4375.301.6836 0 .5468-.438.957-.984.957h-3.172c-.383 0-.656-.2734-.656-.6562v-3.1719c0-.5469.41-.9844.957-.9844.246 0 .492.1094.683.3008l.82.8203c1.094-.957 2.516-1.5586 4.102-1.5586 3.363 0 6.125 2.7617 6.125 6.125 0 3.3906-2.762 6.125-6.125 6.125-1.395 0-2.652-.4375-3.691-1.2031-.274-.2188-.356-.6289-.137-.9297s.629-.3555.93-.1367c.793.6015 1.804.957 2.898.957 2.652 0 4.812-2.1328 4.812-4.8125 0-2.6523-2.16-4.8125-4.812-4.8125-1.203 0-2.324.4648-3.172 1.1758zm-2.078-.2461v1.6953h1.695z" fill="#3a444f"/><path d="m276.959 68v-8.7273h3.196c.619 0 1.132.1023 1.538.3068.406.2017.71.4759.912.8225.202.3437.303.7315.303 1.1633 0 .3637-.067.6705-.201.9205-.133.2472-.312.446-.537.5966-.221.1477-.465.2557-.732.3238v.0853c.289.0142.572.1079.848.2812.278.1705.508.4134.69.7287.182.3154.273.6989.273 1.1506 0 .446-.106.8466-.316 1.2017-.207.3523-.528.6321-.963.8395-.434.2045-.99.3068-1.666.3068zm1.317-1.1293h1.9c.631 0 1.083-.1221 1.355-.3664.273-.2444.409-.5498.409-.9162 0-.2756-.069-.5284-.208-.7586-.14-.2301-.339-.4133-.597-.5497-.256-.1363-.56-.2045-.912-.2045h-1.947zm0-3.8224h1.764c.295 0 .561-.0568.797-.1705.238-.1136.427-.2727.566-.4772.142-.2074.213-.4517.213-.733 0-.3608-.126-.6633-.379-.9077-.253-.2443-.64-.3664-1.163-.3664h-1.798zm9.189 5.0838c-.613 0-1.149-.1406-1.606-.4219-.458-.2812-.813-.6747-1.066-1.1804s-.379-1.0966-.379-1.7727c0-.679.126-1.2727.379-1.7812.253-.5086.608-.9035 1.066-1.1847.457-.2813.993-.4219 1.606-.4219.614 0 1.149.1406 1.607.4219.457.2812.812.6761 1.065 1.1847.253.5085.379 1.1022.379 1.7812 0 .6761-.126 1.267-.379 1.7727s-.608.8992-1.065 1.1804c-.458.2813-.993.4219-1.607.4219zm.004-1.0696c.398 0 .728-.1051.989-.3153.261-.2103.455-.4901.58-.8395.127-.3495.191-.7344.191-1.1549 0-.4176-.064-.8011-.191-1.1505-.125-.3523-.319-.635-.58-.848-.261-.2131-.591-.3196-.989-.3196-.4 0-.732.1065-.997.3196-.261.213-.456.4957-.584.848-.125.3494-.187.7329-.187 1.1505 0 .4205.062.8054.187 1.1549.128.3494.323.6292.584.8395.265.2102.597.3153.997.3153zm8.616-1.777v-3.831h1.278v6.5455h-1.253v-1.1335h-.068c-.15.3494-.392.6406-.724.8736-.33.2301-.74.3451-1.232.3451-.42 0-.792-.0923-1.116-.277-.321-.1875-.574-.4644-.759-.8309-.182-.3665-.272-.8196-.272-1.3594v-4.1634h1.274v4.01c0 .446.123.8011.37 1.0653.248.2642.569.3963.964.3963.238 0 .475-.0596.711-.1789.239-.1194.436-.2998.592-.5412.16-.2415.238-.5483.235-.9205zm4.264-1.1719v3.8864h-1.274v-6.5455h1.223v1.0654h.081c.151-.3466.387-.625.708-.8352.324-.2103.731-.3154 1.223-.3154.446 0 .836.0938 1.172.2813.335.1846.595.4602.779.8267.185.3664.277.8196.277 1.3593v4.1634h-1.274v-4.0099c0-.4745-.123-.8452-.371-1.1123-.247-.2698-.586-.4048-1.018-.4048-.295 0-.558.0639-.788.1918-.228.1278-.408.3153-.542.5625-.13.2443-.196.5397-.196.8863zm8.655 4.0185c-.633 0-1.179-.1435-1.636-.4304-.455-.2898-.804-.6889-1.048-1.1974-.245-.5086-.367-1.0909-.367-1.7472 0-.6648.125-1.2514.375-1.7599.25-.5114.602-.9106 1.057-1.1975.454-.2869.99-.4304 1.606-.4304.498 0 .941.0923 1.33.277.389.1818.703.4375.942.7671.241.3295.385.7144.43 1.1548h-1.24c-.068-.3068-.224-.571-.469-.7926-.241-.2216-.565-.3324-.971-.3324-.355 0-.666.0937-.933.2812-.265.1847-.471.4489-.618.7926-.148.341-.222.7444-.222 1.2103 0 .4772.073.8892.217 1.2358.145.3466.35.615.614.8054.267.1903.581.2855.942.2855.241 0 .46-.0441.656-.1321.199-.0909.365-.2202.499-.3878.136-.1676.231-.3693.285-.6051h1.24c-.045.4233-.183.8011-.413 1.1335s-.539.5937-.925.7841c-.383.1903-.834.2855-1.351.2855zm6.873 0c-.645 0-1.201-.1378-1.666-.4133-.463-.2785-.821-.6691-1.074-1.1719-.25-.5057-.375-1.098-.375-1.777 0-.6705.125-1.2614.375-1.7727.253-.5114.605-.9106 1.057-1.1975.454-.2869.985-.4304 1.593-.4304.37 0 .728.0611 1.074.1833.347.1221.658.3139.933.5752.276.2614.493.6009.652 1.0185.159.4148.239.919.239 1.5128v.4517h-5.203v-.9546h3.954c0-.3352-.068-.6321-.204-.8906-.136-.2613-.328-.4673-.575-.6179-.245-.1505-.532-.2258-.861-.2258-.358 0-.671.088-.938.2642-.264.1733-.468.4005-.613.6818-.142.2784-.213.581-.213.9077v.7457c0 .4375.076.8097.23 1.1165.156.3068.373.5412.652.7031.278.1591.603.2386.976.2386.241 0 .461-.034.66-.1022.199-.0711.371-.1762.516-.3154s.255-.311.332-.5156l1.206.2173c-.097.3551-.27.6662-.52.9333-.247.2642-.558.4701-.933.6179-.372.1449-.797.2173-1.274.2173zm9.127-5.0795-1.155.2045c-.049-.1477-.125-.2884-.23-.4219-.103-.1335-.242-.2429-.418-.3281s-.396-.1278-.661-.1278c-.36 0-.661.0809-.903.2429-.241.159-.362.365-.362.6179 0 .2187.081.3948.243.5284.162.1335.423.2429.784.3281l1.04.2386c.602.1392 1.051.3537 1.346.6435.296.2898.443.6662.443 1.1293 0 .392-.113.7414-.341 1.0482-.224.304-.538.5427-.941.716-.401.1733-.865.2599-1.394.2599-.733 0-1.331-.1562-1.794-.4687-.463-.3154-.747-.7628-.852-1.3424l1.231-.1875c.077.321.235.5639.473.7287.239.1619.55.2429.934.2429.417 0 .751-.0866 1.001-.2599.25-.1762.375-.3907.375-.6435 0-.2045-.077-.3764-.23-.5156-.151-.1392-.382-.2443-.695-.3154l-1.108-.2429c-.61-.1392-1.062-.3608-1.355-.6647-.289-.304-.434-.689-.434-1.1549 0-.3863.108-.7244.324-1.0142.215-.2897.514-.5156.894-.6775.381-.1648.817-.2472 1.309-.2472.707 0 1.264.1534 1.67.4602.406.304.675.7117.806 1.2231z" fill="#4c555e"/><path d="m628.399 97v-1.5909l4.922-5.0994c.526-.554.959-1.0393 1.3-1.456.345-.4214.603-.8215.774-1.2003.17-.3788.256-.7812.256-1.2074 0-.4829-.114-.8996-.341-1.25-.228-.3551-.538-.6273-.931-.8167-.393-.1942-.835-.2912-1.328-.2912-.521 0-.975.1065-1.363.3196-.389.213-.687.5137-.895.902-.209.3882-.313.8428-.313 1.3636h-2.095c0-.8854.204-1.6596.611-2.3224.407-.6629.966-1.1767 1.676-1.5412.71-.3694 1.517-.554 2.422-.554.914 0 1.719.1823 2.415.5469.7.3598 1.247.8522 1.64 1.4772.393.6203.59 1.3211.59 2.1023 0 .5398-.102 1.0677-.306 1.5838-.199.5161-.547 1.0914-1.044 1.7259-.497.6297-1.188 1.3944-2.074 2.294l-2.89 3.0256v.1065h6.548v1.8821zm15.057-1.9886-.107.7741c-.071.5682-.191 1.16-.362 1.7756-.166.6202-.338 1.1955-.518 1.7258-.175.5303-.32.9521-.433 1.2641h-1.506c.061-.293.147-.6912.256-1.193.108-.4972.215-1.0535.319-1.6691.104-.6155.182-1.2429.234-1.8821l.072-.7954zm3.089 1.9886 6.35-12.5568v-.1066h-7.344v-1.8821h9.617v1.9461l-6.329 12.5994zm15.734-14.7443c.648.0047 1.288.1231 1.917.3551.63.232 1.198.6108 1.705 1.1364.511.5255.918 1.2358 1.222 2.1306.307.8902.464 1.9981.468 3.3239 0 1.2737-.128 2.4077-.383 3.402-.256.9896-.623 1.8253-1.101 2.5071-.474.6818-1.049 1.2003-1.726 1.5554s-1.439.5327-2.287.5327c-.866 0-1.636-.1705-2.308-.5114s-1.219-.812-1.641-1.4134c-.421-.606-.684-1.302-.788-2.088h2.166c.142.625.431 1.1316.867 1.5199.44.3835 1.008.5752 1.704.5752 1.065 0 1.896-.464 2.493-1.392.597-.9328.897-2.2348.902-3.9062h-.114c-.246.4072-.554.7575-.923 1.0511-.365.2936-.774.5208-1.229.6818-.454.161-.94.2415-1.456.2415-.838 0-1.6-.206-2.287-.6179-.686-.4119-1.233-.9778-1.64-1.6975s-.611-1.5411-.611-2.4644c0-.9186.208-1.7519.625-2.5.421-.7481 1.009-1.34 1.761-1.7756.758-.4404 1.646-.6558 2.664-.6463zm.007 1.8466c-.554 0-1.054.1373-1.499.4119-.44.2699-.788.6368-1.044 1.1009-.255.4592-.383.9706-.383 1.534 0 .5635.123 1.0749.369 1.5341.251.4546.592.8168 1.023 1.0867.435.2651.933.3977 1.491.3977.417 0 .805-.0805 1.165-.2415.36-.1609.675-.3835.945-.6676.27-.2888.48-.6155.632-.9801.151-.3646.227-.7481.227-1.1506 0-.535-.128-1.0322-.384-1.4914-.25-.4593-.596-.8286-1.036-1.108-.441-.2841-.943-.4261-1.506-.4261zm12.786 13.0966c-1.018 0-1.918-.1752-2.699-.5256-.777-.3504-1.385-.8333-1.825-1.4489-.441-.6155-.659-1.3163-.654-2.1022-.005-.6156.121-1.1814.377-1.6975.26-.5208.613-.9541 1.058-1.2997.445-.3504.942-.5729 1.491-.6676v-.0852c-.724-.1752-1.304-.5635-1.74-1.1648-.435-.6013-.651-1.2926-.646-2.0739-.005-.7433.192-1.4062.589-1.9886.403-.5871.955-1.0488 1.655-1.385.701-.3361 1.499-.5042 2.394-.5042.885 0 1.676.1704 2.372.5113.701.3362 1.252.7979 1.655 1.385.402.5824.606 1.2429.611 1.9815-.005.7813-.228 1.4726-.668 2.0739s-1.013.9896-1.719 1.1648v.0852c.545.0947 1.035.3172 1.47.6676.441.3456.791.7789 1.051 1.2997.266.5161.401 1.0819.405 1.6975-.004.7859-.227 1.4867-.667 2.1022-.441.6156-1.051 1.0985-1.833 1.4489-.776.3504-1.669.5256-2.677.5256zm0-1.7969c.601 0 1.122-.0994 1.562-.2983.441-.2036.781-.4853 1.023-.8452.241-.3646.365-.7907.369-1.2784-.004-.5066-.137-.9541-.397-1.3423-.256-.3883-.604-.6937-1.044-.9162-.441-.2225-.945-.3338-1.513-.3338-.573 0-1.082.1113-1.527.3338s-.796.5279-1.051.9162c-.256.3882-.382.8357-.377 1.3423-.005.4877.111.9138.348 1.2784.242.3599.585.6416 1.03.8452.445.1989.971.2983 1.577.2983zm0-6.7685c.483 0 .911-.097 1.285-.2912.374-.1941.668-.464.881-.8096.218-.3457.329-.7505.334-1.2145-.005-.4546-.114-.8523-.327-1.1932-.208-.3409-.499-.6037-.874-.7884-.374-.1893-.807-.284-1.299-.284-.502 0-.943.0947-1.321.284-.374.1847-.666.4475-.874.7884s-.31.7386-.305 1.1932c-.005.464.099.8688.312 1.2145.213.3456.507.6155.881.8096.379.1942.814.2912 1.307.2912z" fill="#28323b"/><path d="m631.75 58.5h-.027v7 .5469c0 .3008-.164.5469-.465.6289-.274.082-.574-.0274-.711-.2461l-1.067-1.5859c-.136-.2188-.41-.2735-.601-.1368-.219.1368-.274.4102-.137.6016l1.86 2.7891c.574.8476 1.531 1.3398 2.543 1.3398h.027 1.64 1.532c1.066 0 1.968-.875 1.968-1.9687v-2.8165-.4375c0-.246-.218-.4375-.437-.4375-.109 0-.219.0274-.273.0821-.192.1367-.438.1914-.657.1094-.191-.0821-.355-.2735-.41-.4922-.027-.2188-.219-.3555-.41-.3555-.164 0-.273.0547-.355.1641-.165.2187-.465.3281-.739.2187-.273-.082-.437-.3281-.437-.6016 0-.2461-.219-.4375-.438-.4375-.164 0-.273.0547-.355.1641-.164.2188-.465.3281-.739.2188-.273-.0821-.437-.3282-.437-.6289v-3.7188c0-.2188-.219-.4375-.437-.4375-.247 0-.438.2187-.438.4375zm.438-1.75c.957 0 1.75.793 1.75 1.75v2.6523c.054 0 .136-.0273.218-.0273.574 0 1.094.3008 1.422.7656.164-.0547.356-.1094.547-.1094.547 0 1.066.2735 1.395.711.109-.0274.218-.0547.355-.0547.957 0 1.75.793 1.75 1.75v.4375 2.8438c0 1.832-1.477 3.2812-3.281 3.2812h-1.532-1.64-.027c-1.477 0-2.817-.7109-3.637-1.9414l-1.86-2.7617c-.519-.793-.3-1.8867.493-2.4336.738-.4922 1.722-.3555 2.297.3008v-5.4141c0-.957.765-1.75 1.75-1.75zm1.312 8.3125v2.625c0 .2461-.219.4375-.438.4375-.246 0-.437-.1914-.437-.4375v-2.625c0-.2187.191-.4375.437-.4375.219 0 .438.2188.438.4375zm1.312-.4375c.219 0 .438.2188.438.4375v2.625c0 .2461-.219.4375-.438.4375-.246 0-.437-.1914-.437-.4375v-2.625c0-.2187.191-.4375.437-.4375zm2.188.4375v2.625c0 .2461-.219.4375-.438.4375-.246 0-.437-.1914-.437-.4375v-2.625c0-.2187.191-.4375.437-.4375.219 0 .438.2188.438.4375z" fill="#06b6d4"/><path d="m652.207 62.1108h-1.329c-.051-.2841-.146-.5341-.286-.75-.139-.2159-.309-.3992-.511-.5497-.202-.1506-.428-.2642-.678-.3409-.247-.0767-.51-.1151-.788-.1151-.503 0-.953.1264-1.351.3793-.395.2528-.707.6236-.937 1.1122-.228.4886-.341 1.0852-.341 1.7898 0 .7102.113 1.3096.341 1.7983.23.4886.544.8579.941 1.1079.398.25.846.375 1.343.375.275 0 .537-.0369.784-.1108.25-.0767.476-.1889.677-.3366.202-.1478.373-.3282.512-.5412.142-.2159.24-.4631.294-.7415l1.329.0043c-.071.4289-.208.8238-.413 1.1846-.202.358-.462.6676-.78.929-.315.2585-.676.4588-1.082.6008-.406.1421-.85.2131-1.33.2131-.755 0-1.429-.179-2.02-.5369-.591-.3608-1.056-.8764-1.397-1.5469-.338-.6704-.507-1.4702-.507-2.3991 0-.9319.17-1.7316.511-2.3992.341-.6704.807-1.1846 1.398-1.5426.591-.3608 1.262-.5412 2.015-.5412.463 0 .895.0668 1.296.2003.403.1307.765.3239 1.086.5795.321.2529.587.5625.797.929.21.3637.353.7798.426 1.2486zm2.748-2.8381v8.7273h-1.274v-8.7273zm1.714 8.7273v-6.5455h1.274v6.5455zm.643-7.5554c-.221 0-.411-.0739-.571-.2216-.156-.1506-.234-.3295-.234-.5369 0-.2102.078-.3892.234-.537.16-.1505.35-.2258.571-.2258.222 0 .411.0753.567.2258.159.1478.239.3268.239.537 0 .2074-.08.3863-.239.5369-.156.1477-.345.2216-.567.2216zm5.102 7.6875c-.633 0-1.179-.1435-1.636-.4304-.454-.2898-.804-.6889-1.048-1.1974-.245-.5086-.367-1.0909-.367-1.7472 0-.6648.125-1.2514.375-1.7599.25-.5114.603-.9106 1.057-1.1975.455-.2869.99-.4304 1.607-.4304.497 0 .94.0923 1.329.277.389.1818.703.4375.942.7671.241.3295.385.7144.43 1.1548h-1.24c-.068-.3068-.224-.571-.468-.7926-.242-.2216-.566-.3324-.972-.3324-.355 0-.666.0937-.933.2812-.265.1847-.47.4489-.618.7926-.148.341-.222.7444-.222 1.2103 0 .4772.073.8892.218 1.2358.144.3466.349.615.613.8054.267.1903.581.2855.942.2855.241 0 .46-.0441.656-.1321.199-.0909.365-.2202.499-.3878.136-.1676.231-.3693.285-.6051h1.24c-.045.4233-.183.8011-.413 1.1335s-.538.5937-.925.7841c-.383.1903-.834.2855-1.351.2855zm5.224-2.3523-.009-1.5554h.222l2.608-2.7699h1.525l-2.974 3.1535h-.2zm-1.172 2.2202v-8.7273h1.274v8.7273zm4.133 0-2.343-3.1108.878-.8906 3.029 4.0014zm7.451-4.9474-1.154.2045c-.049-.1477-.125-.2884-.231-.4219-.102-.1335-.241-.2429-.417-.3281s-.396-.1278-.661-.1278c-.36 0-.662.0809-.903.2429-.242.159-.362.365-.362.6179 0 .2187.081.3948.243.5284.162.1335.423.2429.784.3281l1.039.2386c.603.1392 1.052.3537 1.347.6435.296.2898.443.6662.443 1.1293 0 .392-.113.7414-.341 1.0482-.224.304-.538.5427-.941.716-.401.1733-.865.2599-1.394.2599-.733 0-1.331-.1562-1.794-.4687-.463-.3154-.747-.7628-.852-1.3424l1.231-.1875c.077.321.235.5639.473.7287.239.1619.55.2429.934.2429.417 0 .751-.0866 1.001-.2599.25-.1762.375-.3907.375-.6435 0-.2045-.077-.3764-.23-.5156-.151-.1392-.382-.2443-.695-.3154l-1.108-.2429c-.61-.1392-1.062-.3608-1.355-.6647-.29-.304-.434-.689-.434-1.1549 0-.3863.108-.7244.323-1.0142.216-.2897.515-.5156.895-.6775.381-.1648.817-.2472 1.309-.2472.707 0 1.264.1534 1.67.4602.406.304.675.7117.805 1.2231z" fill="#4c555e"/><path d="m224.5 108v-60" stroke="#eef0f3"/><path d="m594.5 108v-60" stroke="#eef0f3"/><path d="m409.5 108v-60" stroke="#eef0f3"/><g filter="url(#b)"><rect fill="#fff" height="379" rx="4" width="766" x="40" y="140"/><rect height="378" rx="3.5" stroke="#dfe3e8" width="765" x="40.5" y="140.5"/></g><rect fill="#f7f9fa" height="25" rx="4.5" width="141" x="55.5" y="155.5"/><rect height="25" rx="4.5" stroke="#eef0f3" width="141" x="55.5" y="155.5"/><g filter="url(#c)"><path d="m56 160c0-2.209 1.7909-4 4-4h36v24h-36c-2.2091 0-4-1.791-4-4z" fill="#fff"/><path d="m68.4687 172h-2.5898v-8h2.6719c.7838 0 1.457.16 2.0195.48.5625.318.9935.775 1.293 1.372.3021.593.4531 1.306.4531 2.136 0 .834-.1523 1.55-.457 2.149-.3021.599-.7396 1.06-1.3125 1.383-.5729.32-1.2656.48-2.0782.48zm-1.3828-1.055h1.3164c.6094 0 1.1159-.114 1.5196-.343.4036-.232.7057-.567.9062-1.004.2005-.44.3008-.977.3008-1.61 0-.627-.1003-1.16-.3008-1.597-.1979-.438-.4935-.77-.8867-.996-.3932-.227-.8815-.34-1.4648-.34h-1.3907zm8.8838 1.172c-.4843 0-.9166-.124-1.2968-.371-.3777-.25-.6745-.605-.8907-1.066-.2135-.464-.3203-1.02-.3203-1.668 0-.649.1081-1.203.3242-1.664.2188-.461.5183-.814.8985-1.059s.8112-.367 1.2929-.367c.3724 0 .6719.062.8985.187.2291.123.4062.266.5312.43.1276.164.2266.309.2969.434h.0703v-.973h1.168v6h-1.1406v-.934h-.0977c-.0703.128-.1719.274-.3047.438-.1302.164-.3099.307-.539.43-.2292.122-.5261.183-.8907.183zm.2578-.996c.336 0 .6198-.088.8516-.266.2344-.179.4115-.428.5313-.746.1223-.317.1835-.687.1835-1.109 0-.417-.0599-.781-.1796-1.094-.1198-.312-.2956-.556-.5274-.73-.2318-.175-.5182-.262-.8594-.262-.3515 0-.6445.091-.8789.274-.2343.182-.4114.43-.5312.746-.1172.315-.1758.67-.1758 1.066 0 .401.0599.762.1797 1.082s.2969.574.5312.762c.237.185.5287.277.875.277zm5.1202 3.129c-.1745 0-.3334-.014-.4766-.043-.1432-.026-.25-.055-.3203-.086l.2812-.957c.2136.057.4037.082.5703.074.1667-.008.3138-.07.4415-.187.1302-.117.2447-.309.3437-.574l.1445-.399-2.1953-6.078h1.25l1.5195 4.656h.0626l1.5195-4.656h1.2539l-2.4727 6.801c-.1146.312-.2604.577-.4375.793-.1771.219-.388.383-.6328.492s-.5286.164-.8515.164z" fill="#3a444f"/></g><path d="m108.445 172-2.218-8h1.269l1.559 6.195h.074l1.621-6.195h1.258l1.621 6.199h.074l1.555-6.199h1.273l-2.222 8h-1.215l-1.684-5.992h-.062l-1.684 5.992zm11.088.121c-.591 0-1.1-.126-1.527-.379-.425-.255-.753-.613-.985-1.074-.229-.464-.343-1.007-.343-1.629 0-.615.114-1.156.343-1.625.232-.469.555-.835.969-1.098.417-.263.904-.394 1.461-.394.339 0 .667.056.985.168.317.112.602.288.855.527.253.24.452.551.598.934.146.38.218.842.218 1.386v.415h-4.769v-.875h3.625c0-.308-.063-.58-.188-.817-.125-.239-.3-.428-.527-.566-.224-.138-.487-.207-.789-.207-.328 0-.615.08-.859.242-.243.159-.43.367-.563.625-.13.255-.195.532-.195.832v.684c0 .401.07.742.211 1.023.143.281.342.496.597.644.256.146.554.219.895.219.221 0 .423-.031.605-.094.183-.065.34-.161.473-.289.133-.127.234-.285.305-.472l1.105.199c-.088.326-.247.611-.476.855-.227.243-.512.431-.856.567-.341.133-.73.199-1.168.199zm6.456 0c-.591 0-1.1-.126-1.527-.379-.425-.255-.753-.613-.984-1.074-.23-.464-.344-1.007-.344-1.629 0-.615.114-1.156.344-1.625.231-.469.554-.835.968-1.098.417-.263.904-.394 1.461-.394.339 0 .667.056.985.168.317.112.602.288.855.527.253.24.452.551.598.934.146.38.218.842.218 1.386v.415h-4.769v-.875h3.625c0-.308-.063-.58-.188-.817-.125-.239-.3-.428-.527-.566-.224-.138-.487-.207-.789-.207-.328 0-.615.08-.859.242-.243.159-.43.367-.563.625-.13.255-.195.532-.195.832v.684c0 .401.07.742.211 1.023.143.281.342.496.597.644.256.146.554.219.895.219.221 0 .423-.031.605-.094.183-.065.34-.161.473-.289.133-.127.234-.285.305-.472l1.105.199c-.088.326-.247.611-.476.855-.227.243-.512.431-.856.567-.341.133-.73.199-1.168.199zm4.945-2.156-.008-1.426h.203l2.391-2.539h1.398l-2.727 2.891h-.183zm-1.075 2.035v-8h1.168v8zm3.789 0-2.148-2.852.805-.816 2.777 3.668z" fill="#3a444f"/><path d="m154.879 164h1.465l2.547 6.219h.093l2.547-6.219h1.465v8h-1.148v-5.789h-.075l-2.359 5.777h-.953l-2.359-5.781h-.075v5.793h-1.148zm12.306 8.121c-.563 0-1.054-.129-1.473-.387-.419-.257-.745-.618-.977-1.082-.231-.463-.347-1.005-.347-1.625 0-.622.116-1.166.347-1.632.232-.467.558-.829.977-1.086.419-.258.91-.387 1.473-.387.562 0 1.053.129 1.472.387.419.257.745.619.977 1.086.232.466.347 1.01.347 1.632 0 .62-.115 1.162-.347 1.625-.232.464-.558.825-.977 1.082-.419.258-.91.387-1.472.387zm.003-.98c.365 0 .667-.097.907-.289.239-.193.416-.45.531-.77.117-.32.176-.673.176-1.059 0-.382-.059-.734-.176-1.054-.115-.323-.292-.582-.531-.778-.24-.195-.542-.293-.907-.293-.367 0-.671.098-.914.293-.239.196-.418.455-.535.778-.114.32-.172.672-.172 1.054 0 .386.058.739.172 1.059.117.32.296.577.535.77.243.192.547.289.914.289zm5.265-2.704v3.563h-1.168v-6h1.121v.977h.074c.138-.318.355-.573.649-.766.297-.193.67-.289 1.121-.289.409 0 .767.086 1.074.258.308.169.546.422.715.757.169.336.254.752.254 1.247v3.816h-1.168v-3.676c0-.435-.113-.775-.34-1.019-.226-.248-.538-.371-.933-.371-.271 0-.512.058-.723.175-.208.118-.374.289-.496.516-.12.224-.18.495-.18.812zm8.207-2.437v.937h-3.277v-.937zm-2.398-1.438h1.168v5.676c0 .227.034.397.101.512.068.112.155.189.262.23.109.04.228.059.355.059.094 0 .176-.006.247-.019.07-.013.125-.024.164-.032l.211.965c-.068.026-.165.052-.29.078-.125.029-.281.045-.468.047-.308.005-.594-.049-.86-.164-.265-.115-.48-.292-.644-.531-.164-.24-.246-.541-.246-.903zm4.987 3.875v3.563h-1.168v-8h1.152v2.977h.075c.14-.323.355-.58.644-.77s.667-.285 1.133-.285c.411 0 .771.085 1.078.254.31.169.55.422.719.758.172.333.258.75.258 1.25v3.816h-1.168v-3.676c0-.44-.114-.781-.34-1.023-.227-.245-.542-.367-.945-.367-.277 0-.524.058-.743.175-.216.118-.386.289-.511.516-.123.224-.184.495-.184.812z" fill="#3a444f"/><g filter="url(#d)"><rect fill="#fff" height="24" rx="4" width="93" x="204" y="156"/><rect height="25" rx="4.5" stroke="#dfe3e8" width="94" x="203.5" y="155.5"/><path d="m212.879 172v-8h5.016v1.039h-3.809v2.438h3.547v1.035h-3.547v2.449h3.855v1.039zm6.534 0v-6h1.121v.977h.074c.125-.331.33-.589.614-.774.284-.187.623-.281 1.019-.281.401 0 .737.094 1.008.281.273.188.475.445.605.774h.063c.143-.321.371-.576.684-.766.312-.193.684-.289 1.117-.289.544 0 .988.17 1.332.512.346.341.519.855.519 1.543v4.023h-1.168v-3.914c0-.406-.11-.701-.332-.883-.221-.182-.485-.273-.793-.273-.38 0-.675.117-.886.351-.211.232-.317.53-.317.895v3.824h-1.164v-3.988c0-.326-.101-.588-.305-.785-.203-.198-.467-.297-.792-.297-.222 0-.426.058-.614.175-.185.115-.334.275-.449.481-.112.206-.168.444-.168.715v3.699zm11.968.117c-.485 0-.917-.124-1.297-.371-.378-.25-.674-.605-.891-1.066-.213-.464-.32-1.02-.32-1.668 0-.649.108-1.203.324-1.664.219-.461.518-.814.899-1.059.38-.245.811-.367 1.293-.367.372 0 .672.062.898.187.229.123.406.266.531.43.128.164.227.309.297.434h.071v-.973h1.168v6h-1.141v-.934h-.098c-.07.128-.172.274-.304.438-.131.164-.31.307-.54.43-.229.122-.526.183-.89.183zm.258-.996c.336 0 .619-.088.851-.266.235-.179.412-.428.531-.746.123-.317.184-.687.184-1.109 0-.417-.06-.781-.18-1.094-.119-.312-.295-.556-.527-.73-.232-.175-.518-.262-.859-.262-.352 0-.645.091-.879.274-.235.182-.412.43-.531.746-.118.315-.176.67-.176 1.066 0 .401.06.762.179 1.082.12.32.297.574.532.762.237.185.528.277.875.277zm4.382.879v-6h1.167v6zm.589-6.926c-.203 0-.377-.067-.523-.203-.143-.138-.215-.302-.215-.492 0-.193.072-.357.215-.492.146-.138.32-.207.523-.207s.377.069.52.207c.146.135.219.299.219.492 0 .19-.073.354-.219.492-.143.136-.317.203-.52.203zm3.318-1.074v8h-1.168v-8zm6.067 3.465-1.058.187c-.045-.135-.115-.264-.211-.386-.094-.123-.222-.223-.383-.301-.162-.078-.364-.117-.606-.117-.33 0-.606.074-.828.222-.221.146-.332.335-.332.567 0 .2.074.362.223.484.148.122.388.223.719.301l.953.219c.552.127.963.324 1.234.589.271.266.406.611.406 1.036 0 .359-.104.679-.312.961-.206.278-.494.497-.863.656-.368.159-.793.238-1.278.238-.672 0-1.22-.143-1.644-.43-.425-.289-.685-.699-.782-1.23l1.129-.172c.071.294.215.517.434.668.219.148.504.223.855.223.383 0 .689-.08.918-.239.23-.161.344-.358.344-.589 0-.188-.07-.345-.211-.473-.138-.128-.35-.224-.637-.289l-1.015-.223c-.56-.127-.974-.331-1.242-.609-.266-.279-.399-.632-.399-1.059 0-.354.099-.664.297-.929.198-.266.471-.473.82-.622.349-.151.749-.226 1.2-.226.648 0 1.158.14 1.531.422.372.278.618.652.738 1.121zm8.809 0-1.059.187c-.044-.135-.114-.264-.211-.386-.094-.123-.221-.223-.383-.301-.161-.078-.363-.117-.605-.117-.331 0-.607.074-.828.222-.222.146-.332.335-.332.567 0 .2.074.362.222.484.149.122.388.223.719.301l.953.219c.552.127.964.324 1.235.589.27.266.406.611.406 1.036 0 .359-.104.679-.313.961-.205.278-.493.497-.863.656-.367.159-.793.238-1.277.238-.672 0-1.22-.143-1.645-.43-.424-.289-.685-.699-.781-1.23l1.129-.172c.07.294.215.517.433.668.219.148.504.223.856.223.383 0 .689-.08.918-.239.229-.161.344-.358.344-.589 0-.188-.071-.345-.211-.473-.138-.128-.351-.224-.637-.289l-1.016-.223c-.559-.127-.974-.331-1.242-.609-.265-.279-.398-.632-.398-1.059 0-.354.099-.664.297-.929.198-.266.471-.473.82-.622.349-.151.749-.226 1.199-.226.649 0 1.159.14 1.531.422.373.278.619.652.739 1.121zm3.987 4.656c-.591 0-1.1-.126-1.527-.379-.425-.255-.753-.613-.985-1.074-.229-.464-.343-1.007-.343-1.629 0-.615.114-1.156.343-1.625.232-.469.555-.835.969-1.098.417-.263.904-.394 1.461-.394.339 0 .667.056.984.168.318.112.603.288.856.527.252.24.452.551.597.934.146.38.219.842.219 1.386v.415h-4.769v-.875h3.625c0-.308-.063-.58-.188-.817-.125-.239-.301-.428-.527-.566-.224-.138-.487-.207-.789-.207-.328 0-.615.08-.86.242-.242.159-.429.367-.562.625-.13.255-.195.532-.195.832v.684c0 .401.07.742.211 1.023.143.281.342.496.597.644.255.146.554.219.895.219.221 0 .423-.031.605-.094.182-.065.34-.161.473-.289.133-.127.234-.285.305-.472l1.105.199c-.089.326-.247.611-.477.855-.226.243-.511.431-.855.567-.341.133-.73.199-1.168.199zm5.038-3.684v3.563h-1.168v-6h1.121v.977h.074c.138-.318.355-.573.649-.766.297-.193.67-.289 1.121-.289.409 0 .767.086 1.074.258.307.169.546.422.715.757.169.336.254.752.254 1.247v3.816h-1.168v-3.676c0-.435-.113-.775-.34-1.019-.226-.248-.538-.371-.933-.371-.271 0-.512.058-.723.175-.208.118-.374.289-.496.516-.12.224-.18.495-.18.812zm8.207-2.437v.937h-3.277v-.937zm-2.398-1.438h1.168v5.676c0 .227.034.397.101.512.068.112.155.189.262.23.109.04.228.059.355.059.094 0 .176-.006.247-.019.07-.013.125-.024.164-.032l.211.965c-.068.026-.165.052-.29.078-.125.029-.281.045-.468.047-.308.005-.594-.049-.86-.164-.265-.115-.48-.292-.644-.531-.164-.24-.246-.541-.246-.903z" fill="#3a444f"/><path d="m285.365 169.615c-.215.215-.537.215-.73 0l-3.438-3.437c-.215-.194-.215-.516 0-.709.194-.215.516-.215.709 0l3.073 3.072 3.093-3.094c.194-.193.516-.193.709 0 .215.215.215.537 0 .731z" fill="#4c555e"/></g><path d="m92.5 431v-219" stroke="#dfe3e8"/><path d="m662.5 431v-218" stroke="#eef0f3"/><path d="m548.5 431v-218" stroke="#eef0f3"/><path d="m434.5 431v-218" stroke="#eef0f3"/><path d="m206.5 431v-218" stroke="#eef0f3"/><path d="m320.5 431v-218" stroke="#eef0f3"/><path d="m86 422.5h691" stroke="#dfe3e8"/><path d="m86 212.5h691" stroke="#eef0f3"/><path d="m86 254.5h691" stroke="#eef0f3"/><path d="m86 296.5h691" stroke="#eef0f3"/><path d="m86 338.5h691" stroke="#eef0f3"/><path d="m86 380.5h691" stroke="#eef0f3"/><path d="m111.972 312.435-18.972 1.985v106.58h683v-182.199l-18.972-1.176c-18.972-1.176-56.917-3.529-94.861 23.704-37.945 27.233-75.889 84.051-113.834 78.26-37.944-5.791-75.889-74.191-113.833-80.323-37.944-6.131-88.202 55.711-113.833 67.59-26.886 9.144-75.889-3.381-113.834-11.879-37.944-8.498-75.889-4.527-94.861-2.542z" fill="url(#e)"/><path d="m93 314.42 18.972-1.985c18.972-1.985 56.917-5.956 94.861 2.542 37.945 8.498 86.948 21.023 113.834 11.879 25.631-11.879 75.889-73.721 113.833-67.59 37.944 6.132 75.889 74.532 113.833 80.323 37.945 5.791 75.889-51.027 113.834-78.26 37.944-27.233 75.889-24.88 94.861-23.704l18.972 1.176" stroke="#0f8df4" stroke-width="2"/><circle cx="207" cy="316" fill="#e6f4ff" r="3" stroke="#0f8df4" stroke-width="2"/><circle cx="93" cy="315" fill="#e6f4ff" r="3" stroke="#0f8df4" stroke-width="2"/><circle cx="321" cy="327" fill="#e6f4ff" r="3" stroke="#0f8df4" stroke-width="2"/><circle cx="434" cy="260" fill="#e6f4ff" r="3" stroke="#0f8df4" stroke-width="2"/><circle cx="549" cy="340" fill="#e6f4ff" r="3" stroke="#0f8df4" stroke-width="2"/><circle cx="662" cy="261" fill="#e6f4ff" r="3" stroke="#0f8df4" stroke-width="2"/><g fill="#707880"><path d="m654.048 437.727h.88v5.199c0 .464-.085.858-.255 1.183-.171.324-.411.57-.721.738s-.676.252-1.098.252c-.397 0-.751-.072-1.061-.216-.311-.147-.554-.355-.732-.625-.177-.27-.266-.591-.266-.963h.866c0 .206.051.386.153.54.104.152.246.27.426.355.18.086.385.128.614.128.254 0 .469-.053.647-.16.177-.106.312-.262.405-.468.094-.209.142-.463.142-.764zm5.969 5.043v-3.225h.838v5.455h-.838v-.923h-.057c-.128.277-.326.512-.596.706-.27.192-.611.288-1.023.288-.341 0-.644-.075-.909-.224-.265-.151-.474-.378-.625-.682-.152-.305-.227-.69-.227-1.154v-3.466h.838v3.41c0 .397.111.715.333.951.225.237.512.355.86.355.208 0 .42-.053.635-.159.218-.107.401-.27.547-.49.149-.221.224-.501.224-.842zm3.211-5.043v7.273h-.838v-7.273zm2.146 7.33c-.175 0-.326-.063-.451-.188-.126-.126-.188-.276-.188-.451 0-.176.062-.326.188-.451.125-.126.276-.189.451-.189s.325.063.451.189c.125.125.188.275.188.451 0 .116-.029.222-.089.319-.056.097-.133.175-.23.235-.095.056-.202.085-.32.085zm4.941-.057v-.639l2.401-2.628c.282-.308.514-.575.696-.803.182-.229.317-.445.405-.646.09-.204.135-.417.135-.639 0-.256-.062-.477-.185-.664-.121-.187-.286-.332-.497-.433-.211-.102-.448-.153-.71-.153-.28 0-.524.058-.732.174-.206.114-.366.273-.479.479-.112.206-.167.448-.167.725h-.838c0-.426.098-.8.294-1.122.197-.322.465-.573.803-.753.341-.18.723-.27 1.147-.27.426 0 .804.09 1.133.27s.587.422.774.728c.187.305.281.645.281 1.019 0 .267-.049.529-.146.785-.095.253-.26.536-.497.848-.235.311-.56.689-.977 1.137l-1.633 1.747v.057h3.38v.781z"/><path d="m540.751 437.727h.88v5.199c0 .464-.085.858-.255 1.183-.171.324-.411.57-.721.738s-.676.252-1.097.252c-.398 0-.752-.072-1.062-.216-.31-.147-.554-.355-.732-.625-.177-.27-.266-.591-.266-.963h.866c0 .206.051.386.153.54.104.152.246.27.426.355.18.086.385.128.615.128.253 0 .468-.053.646-.16.177-.106.312-.262.405-.468.094-.209.142-.463.142-.764zm5.969 5.043v-3.225h.838v5.455h-.838v-.923h-.057c-.127.277-.326.512-.596.706-.27.192-.611.288-1.023.288-.341 0-.644-.075-.909-.224-.265-.151-.474-.378-.625-.682-.152-.305-.227-.69-.227-1.154v-3.466h.838v3.41c0 .397.111.715.334.951.224.237.511.355.859.355.208 0 .42-.053.636-.159.217-.107.4-.27.546-.49.15-.221.224-.501.224-.842zm3.211-5.043v7.273h-.838v-7.273zm2.146 7.33c-.175 0-.325-.063-.451-.188-.125-.126-.188-.276-.188-.451 0-.176.063-.326.188-.451.126-.126.276-.189.451-.189s.326.063.451.189c.126.125.188.275.188.451 0 .116-.029.222-.089.319-.056.097-.133.175-.23.235-.095.056-.202.085-.32.085zm7.498-7.33v7.273h-.88v-6.349h-.043l-1.776 1.179v-.895l1.819-1.208z"/><path d="m421.028 437.727h.881v5.199c0 .464-.085.858-.256 1.183-.17.324-.411.57-.721.738s-.676.252-1.097.252c-.398 0-.752-.072-1.062-.216-.31-.147-.554-.355-.731-.625-.178-.27-.267-.591-.267-.963h.867c0 .206.051.386.152.54.105.152.247.27.427.355.179.086.384.128.614.128.253 0 .469-.053.646-.16.178-.106.313-.262.405-.468.095-.209.142-.463.142-.764zm5.97 5.043v-3.225h.838v5.455h-.838v-.923h-.057c-.128.277-.327.512-.597.706-.27.192-.611.288-1.023.288-.341 0-.644-.075-.909-.224-.265-.151-.473-.378-.625-.682-.151-.305-.227-.69-.227-1.154v-3.466h.838v3.41c0 .397.111.715.334.951.225.237.511.355.859.355.209 0 .42-.053.636-.159.218-.107.4-.27.547-.49.149-.221.224-.501.224-.842zm3.211-1.051v3.281h-.838v-5.455h.809v.853h.071c.128-.277.322-.5.583-.668.26-.17.596-.256 1.008-.256.369 0 .693.076.97.228.277.149.492.376.646.682.154.303.231.686.231 1.15v3.466h-.838v-3.409c0-.429-.112-.762-.334-1.002-.223-.241-.528-.362-.916-.362-.268 0-.507.058-.718.174-.208.116-.373.286-.493.508-.121.223-.181.493-.181.81zm5.622 3.338c-.175 0-.326-.063-.451-.188-.126-.126-.188-.276-.188-.451 0-.176.062-.326.188-.451.125-.126.276-.189.451-.189s.325.063.451.189c.125.125.188.275.188.451 0 .116-.029.222-.089.319-.056.097-.133.175-.23.235-.095.056-.202.085-.32.085zm7.399.042c-.469 0-.887-.08-1.254-.241-.364-.161-.654-.385-.87-.671-.213-.289-.329-.624-.348-1.005h.895c.019.234.099.437.242.607.142.168.327.298.557.391.23.092.484.138.764.138.312 0 .589-.054.831-.163.241-.109.43-.261.568-.455.137-.194.206-.419.206-.674 0-.268-.067-.504-.199-.707-.133-.206-.327-.367-.583-.483-.255-.116-.568-.174-.937-.174h-.582v-.781h.582c.289 0 .542-.052.76-.157.22-.104.392-.251.515-.44.125-.189.188-.412.188-.668 0-.246-.054-.46-.163-.642-.109-.183-.263-.325-.462-.426-.197-.102-.429-.153-.696-.153-.251 0-.488.046-.71.138-.22.09-.4.222-.54.395-.14.17-.215.376-.227.617h-.853c.015-.381.129-.715.345-1.001.215-.289.497-.514.845-.675.35-.161.735-.241 1.154-.241.45 0 .836.091 1.158.273.322.18.569.418.742.714s.259.616.259.959c0 .409-.107.759-.323 1.047-.213.289-.503.489-.87.601v.056c.459.076.818.271 1.076.586.258.313.387.7.387 1.162 0 .395-.108.75-.323 1.065-.213.312-.504.559-.874.739-.369.179-.789.269-1.26.269zm6.282 0c-.535 0-.991-.145-1.367-.436-.377-.294-.665-.719-.863-1.275-.199-.559-.299-1.234-.299-2.024 0-.786.1-1.458.299-2.014.201-.559.49-.985.866-1.278.379-.296.833-.444 1.364-.444.53 0 .983.148 1.36.444.379.293.667.719.866 1.278.202.556.302 1.228.302 2.014 0 .79-.099 1.465-.298 2.024-.199.556-.487.981-.863 1.275-.377.291-.832.436-1.367.436zm0-.781c.53 0 .942-.256 1.236-.767.293-.511.44-1.24.44-2.187 0-.63-.068-1.166-.203-1.609-.132-.443-.324-.78-.575-1.012-.248-.232-.548-.348-.898-.348-.526 0-.937.259-1.233.778-.295.516-.443 1.246-.443 2.191 0 .629.066 1.164.198 1.605.133.44.324.775.572 1.005.251.229.553.344.906.344z"/><path d="m306.689 437.727h.881v5.199c0 .464-.085.858-.256 1.183-.17.324-.411.57-.721.738s-.676.252-1.097.252c-.398 0-.752-.072-1.062-.216-.31-.147-.554-.355-.731-.625-.178-.27-.267-.591-.267-.963h.867c0 .206.051.386.153.54.104.152.246.27.426.355.18.086.384.128.614.128.253 0 .469-.053.646-.16.178-.106.313-.262.405-.468.095-.209.142-.463.142-.764zm5.97 5.043v-3.225h.838v5.455h-.838v-.923h-.057c-.128.277-.327.512-.597.706-.27.192-.611.288-1.022.288-.341 0-.644-.075-.91-.224-.265-.151-.473-.378-.625-.682-.151-.305-.227-.69-.227-1.154v-3.466h.838v3.41c0 .397.111.715.334.951.225.237.511.355.859.355.209 0 .421-.053.636-.159.218-.107.4-.27.547-.49.149-.221.224-.501.224-.842zm3.211-1.051v3.281h-.838v-5.455h.809v.853h.071c.128-.277.322-.5.583-.668.26-.17.596-.256 1.008-.256.37 0 .693.076.97.228.277.149.492.376.646.682.154.303.231.686.231 1.15v3.466h-.838v-3.409c0-.429-.111-.762-.334-1.002-.223-.241-.528-.362-.916-.362-.268 0-.507.058-.718.174-.208.116-.372.286-.493.508-.121.223-.181.493-.181.81zm5.622 3.338c-.175 0-.325-.063-.451-.188-.125-.126-.188-.276-.188-.451 0-.176.063-.326.188-.451.126-.126.276-.189.451-.189s.326.063.451.189c.126.125.188.275.188.451 0 .116-.029.222-.088.319-.057.097-.134.175-.231.235-.095.056-.202.085-.32.085zm4.942-.057v-.639l2.4-2.628c.282-.308.514-.575.696-.803.182-.229.317-.445.405-.646.09-.204.135-.417.135-.639 0-.256-.062-.477-.185-.664-.121-.187-.286-.332-.497-.433-.211-.102-.447-.153-.71-.153-.28 0-.523.058-.732.174-.206.114-.365.273-.479.479-.111.206-.167.448-.167.725h-.838c0-.426.098-.8.295-1.122.196-.322.464-.573.802-.753.341-.18.723-.27 1.147-.27.426 0 .804.09 1.133.27s.587.422.774.728c.187.305.281.645.281 1.019 0 .267-.049.529-.146.785-.095.253-.26.536-.497.848-.234.311-.56.689-.977 1.137l-1.633 1.747v.057h3.381v.781zm8.37-7.372c.298.002.596.059.894.17.299.112.571.296.817.554.246.256.444.605.593 1.048s.224.998.224 1.665c0 .647-.062 1.221-.185 1.723-.12.499-.296.921-.525 1.264-.228.343-.505.604-.831.781-.325.178-.692.266-1.101.266-.407 0-.771-.08-1.09-.241-.318-.163-.578-.389-.782-.678-.201-.292-.33-.629-.387-1.012h.867c.078.333.233.609.465.827.234.215.543.323.927.323.561 0 1.004-.245 1.328-.735.327-.49.49-1.182.49-2.077h-.057c-.132.199-.29.37-.472.515-.182.144-.385.255-.607.333-.223.079-.46.118-.711.118-.416 0-.799-.103-1.147-.309-.345-.209-.622-.494-.83-.856-.206-.365-.309-.781-.309-1.25 0-.445.099-.852.298-1.222.201-.371.483-.667.845-.888.365-.22.793-.326 1.286-.319zm0 .781c-.299 0-.567.075-.807.224-.236.147-.425.345-.564.596-.138.249-.206.525-.206.828s.066.579.199.827c.135.246.318.443.55.59.234.144.501.216.799.216.225 0 .435-.043.629-.131.194-.09.363-.212.507-.366.147-.156.262-.332.345-.529.083-.199.124-.406.124-.621 0-.284-.068-.551-.206-.799-.135-.249-.322-.45-.561-.604-.237-.154-.506-.231-.809-.231z"/><path d="m192.728 437.727h.881v5.199c0 .464-.085.858-.256 1.183-.17.324-.41.57-.721.738-.31.168-.676.252-1.097.252-.398 0-.752-.072-1.062-.216-.31-.147-.554-.355-.731-.625-.178-.27-.267-.591-.267-.963h.867c0 .206.051.386.153.54.104.152.246.27.426.355.18.086.384.128.614.128.253 0 .469-.053.646-.16.178-.106.313-.262.405-.468.095-.209.142-.463.142-.764zm5.97 5.043v-3.225h.838v5.455h-.838v-.923h-.057c-.128.277-.327.512-.597.706-.27.192-.61.288-1.022.288-.341 0-.644-.075-.91-.224-.265-.151-.473-.378-.625-.682-.151-.305-.227-.69-.227-1.154v-3.466h.838v3.41c0 .397.112.715.334.951.225.237.511.355.859.355.209 0 .421-.053.636-.159.218-.107.4-.27.547-.49.149-.221.224-.501.224-.842zm3.211-1.051v3.281h-.838v-5.455h.809v.853h.071c.128-.277.322-.5.583-.668.26-.17.596-.256 1.008-.256.37 0 .693.076.97.228.277.149.492.376.646.682.154.303.231.686.231 1.15v3.466h-.838v-3.409c0-.429-.111-.762-.334-1.002-.222-.241-.528-.362-.916-.362-.268 0-.507.058-.717.174-.209.116-.373.286-.494.508-.121.223-.181.493-.181.81zm5.622 3.338c-.175 0-.325-.063-.451-.188-.125-.126-.188-.276-.188-.451 0-.176.063-.326.188-.451.126-.126.276-.189.451-.189s.326.063.451.189c.126.125.188.275.188.451 0 .116-.029.222-.088.319-.057.097-.134.175-.231.235-.095.056-.201.085-.32.085zm4.942-.057v-.639l2.4-2.628c.282-.308.514-.575.696-.803.182-.229.317-.445.405-.646.09-.204.135-.417.135-.639 0-.256-.062-.477-.185-.664-.12-.187-.286-.332-.497-.433-.211-.102-.447-.153-.71-.153-.279 0-.523.058-.732.174-.206.114-.365.273-.479.479-.111.206-.167.448-.167.725h-.838c0-.426.098-.8.295-1.122.196-.322.464-.573.802-.753.341-.18.724-.27 1.147-.27.426 0 .804.09 1.133.27s.587.422.774.728c.187.305.281.645.281 1.019 0 .267-.049.529-.146.785-.094.253-.26.536-.497.848-.234.311-.56.689-.977 1.137l-1.633 1.747v.057h3.381v.781zm8.384.099c-.488 0-.919-.086-1.293-.259-.371-.175-.662-.415-.87-.721-.208-.307-.311-.658-.309-1.051-.002-.308.058-.592.181-.852.123-.263.292-.482.505-.657.215-.178.455-.29.72-.337v-.043c-.348-.09-.625-.285-.831-.586-.205-.303-.307-.647-.305-1.033-.002-.37.091-.7.281-.991.189-.291.449-.521.781-.689.334-.168.714-.252 1.14-.252.421 0 .798.084 1.129.252.332.168.592.398.781.689.192.291.289.621.292.991-.003.386-.108.73-.317 1.033-.206.301-.479.496-.82.586v.043c.263.047.5.159.71.337.211.175.379.394.505.657.125.26.189.544.191.852-.002.393-.109.744-.319 1.051-.209.306-.499.546-.87.721-.37.173-.797.259-1.282.259zm0-.781c.329 0 .613-.053.852-.16.239-.106.424-.256.554-.451.13-.194.197-.421.199-.681-.002-.275-.073-.518-.213-.728-.14-.211-.33-.377-.572-.498-.239-.12-.512-.181-.82-.181-.31 0-.587.061-.831.181-.242.121-.432.287-.572.498-.137.21-.205.453-.202.728-.003.26.06.487.188.681.13.195.316.345.557.451.242.107.528.16.86.16zm0-3.452c.26 0 .491-.052.692-.156.204-.104.364-.25.48-.437s.175-.406.177-.657c-.002-.246-.06-.46-.174-.642-.113-.185-.271-.327-.472-.426-.201-.102-.436-.153-.703-.153-.272 0-.51.051-.714.153-.204.099-.361.241-.472.426-.112.182-.166.396-.164.642-.002.251.054.47.167.657.116.187.276.333.48.437.203.104.438.156.703.156z"/><path d="m78.9529 437.727h.8806v5.199c0 .464-.0852.858-.2556 1.183-.1705.324-.4108.57-.7209.738-.3102.168-.6759.252-1.0973.252-.3978 0-.7517-.072-1.0618-.216-.3101-.147-.554-.355-.7315-.625-.1776-.27-.2664-.591-.2664-.963h.8665c0 .206.0509.386.1527.54.1042.152.2462.27.4261.355.18.086.3847.128.6144.128.2533 0 .4687-.053.6463-.16.1775-.106.3125-.262.4048-.468.0947-.209.1421-.463.1421-.764zm5.9694 5.043v-3.225h.8381v5.455h-.8381v-.923h-.0568c-.1278.277-.3267.512-.5966.706-.2699.192-.6108.288-1.0227.288-.3409 0-.644-.075-.9091-.224-.2652-.151-.4735-.378-.625-.682-.1515-.305-.2273-.69-.2273-1.154v-3.466h.8381v3.41c0 .397.1113.715.3338.951.2249.237.5114.355.8594.355.2083 0 .4202-.053.6356-.159.2178-.107.4001-.27.5469-.49.1491-.221.2237-.501.2237-.842zm3.2111-1.051v3.281h-.838v-5.455h.8096v.853h.071c.1279-.277.322-.5.5824-.668.2605-.17.5966-.256 1.0086-.256.3693 0 .6924.076.9694.228.277.149.4924.376.6463.682.1539.303.2308.686.2308 1.15v3.466h-.838v-3.409c0-.429-.1113-.762-.3338-1.002-.2226-.241-.528-.362-.9162-.362-.2675 0-.5066.058-.7174.174-.2083.116-.3728.286-.4936.508-.1207.223-.1811.493-.1811.81zm5.6224 3.338c-.1752 0-.3256-.063-.451-.188-.1255-.126-.1882-.276-.1882-.451 0-.176.0627-.326.1882-.451.1254-.126.2758-.189.451-.189s.3255.063.451.189c.1254.125.1882.275.1882.451 0 .116-.0296.222-.0888.319-.0568.097-.1338.175-.2308.235-.0947.056-.2013.085-.3196.085zm4.9414-.057v-.639l2.4008-2.628c.281-.308.513-.575.696-.803.182-.229.317-.445.405-.646.09-.204.135-.417.135-.639 0-.256-.062-.477-.185-.664-.121-.187-.287-.332-.497-.433-.211-.102-.448-.153-.711-.153-.279 0-.523.058-.731.174-.206.114-.3658.273-.4794.479-.1113.206-.1669.448-.1669.725h-.8381c0-.426.0982-.8.2947-1.122s.464-.573.8026-.753c.3411-.18.7231-.27 1.1471-.27.426 0 .804.09 1.133.27s.587.422.774.728c.187.305.28.645.28 1.019 0 .267-.048.529-.145.785-.095.253-.261.536-.497.848-.235.311-.56.689-.977 1.137l-1.6334 1.747v.057h3.3804v.781zm6.2818 0 3.253-6.435v-.056h-3.75v-.782h4.659v.824l-3.239 6.449z"/><path d="m61.9112 376.727v7.273h-.8807v-6.349h-.0426l-1.7755 1.179v-.895l1.8181-1.208zm4.4638 7.372c-.535 0-.9908-.145-1.3672-.436-.3764-.294-.664-.719-.8629-1.275-.1989-.559-.2983-1.234-.2983-2.024 0-.786.0994-1.458.2983-2.014.2012-.559.49-.985.8665-1.278.3788-.296.8333-.444 1.3636-.444s.9837.148 1.3601.444c.3788.293.6676.719.8665 1.278.2012.556.3018 1.228.3018 2.014 0 .79-.0994 1.465-.2983 2.024-.1989.556-.4865.981-.8629 1.275-.3764.291-.8322.436-1.3672.436zm0-.781c.5303 0 .9422-.256 1.2358-.767s.4403-1.24.4403-2.187c0-.63-.0674-1.166-.2024-1.609-.1326-.443-.3243-.78-.5753-1.012-.2485-.232-.548-.348-.8984-.348-.5256 0-.9363.259-1.2322.778-.296.516-.4439 1.246-.4439 2.191 0 .629.0663 1.164.1988 1.605.1326.44.3232.775.5718 1.005.2509.229.5528.344.9055.344zm6.25.781c-.535 0-.9908-.145-1.3672-.436-.3764-.294-.664-.719-.8629-1.275-.1989-.559-.2983-1.234-.2983-2.024 0-.786.0994-1.458.2983-2.014.2012-.559.49-.985.8665-1.278.3788-.296.8333-.444 1.3636-.444s.9837.148 1.3601.444c.3788.293.6676.719.8665 1.278.2012.556.3018 1.228.3018 2.014 0 .79-.0994 1.465-.2983 2.024-.1989.556-.4865.981-.8629 1.275-.3764.291-.8322.436-1.3672.436zm0-.781c.5303 0 .9422-.256 1.2358-.767s.4403-1.24.4403-2.187c0-.63-.0674-1.166-.2024-1.609-.1326-.443-.3243-.78-.5753-1.012-.2485-.232-.548-.348-.8984-.348-.5256 0-.9363.259-1.2322.778-.296.516-.4439 1.246-.4439 2.191 0 .629.0663 1.164.1988 1.605.1326.44.3232.775.5718 1.005.2509.229.5528.344.9055.344zm6.25.781c-.535 0-.9908-.145-1.3672-.436-.3764-.294-.664-.719-.8629-1.275-.1989-.559-.2983-1.234-.2983-2.024 0-.786.0994-1.458.2983-2.014.2012-.559.49-.985.8665-1.278.3788-.296.8333-.444 1.3636-.444s.9837.148 1.3601.444c.3788.293.6676.719.8665 1.278.2012.556.3018 1.228.3018 2.014 0 .79-.0994 1.465-.2983 2.024-.1989.556-.4865.981-.8629 1.275-.3764.291-.8322.436-1.3672.436zm0-.781c.5303 0 .9422-.256 1.2358-.767s.4403-1.24.4403-2.187c0-.63-.0674-1.166-.2024-1.609-.1326-.443-.3243-.78-.5753-1.012-.2485-.232-.548-.348-.8984-.348-.5256 0-.9363.259-1.2322.778-.296.516-.4439 1.246-.4439 2.191 0 .629.0663 1.164.1988 1.605.1326.44.3232.775.5718 1.005.2509.229.5528.344.9055.344z"/><path d="m57.9482 342v-.639l2.4005-2.628c.2817-.308.5138-.575.696-.803.1823-.229.3173-.445.4049-.646.0899-.204.1349-.417.1349-.639 0-.256-.0615-.477-.1846-.664-.1208-.187-.2865-.332-.4972-.433-.2107-.102-.4474-.153-.7102-.153-.2794 0-.5232.058-.7316.174-.2059.114-.3657.273-.4794.479-.1112.206-.1669.448-.1669.725h-.838c0-.426.0982-.8.2947-1.122s.464-.573.8026-.753c.3409-.18.7232-.27 1.147-.27.4261 0 .8037.09 1.1328.27s.5871.422.7741.728c.1871.305.2806.645.2806 1.019 0 .267-.0486.529-.1456.785-.0947.253-.2604.536-.4972.848-.2344.311-.5599.689-.9765 1.137l-1.6336 1.747v.057h3.3807v.781zm8.4268.099c-.535 0-.9908-.145-1.3672-.436-.3764-.294-.664-.719-.8629-1.275-.1989-.559-.2983-1.234-.2983-2.024 0-.786.0994-1.458.2983-2.014.2012-.559.49-.985.8665-1.278.3788-.296.8333-.444 1.3636-.444s.9837.148 1.3601.444c.3788.293.6676.719.8665 1.278.2012.556.3018 1.228.3018 2.014 0 .79-.0994 1.465-.2983 2.024-.1989.556-.4865.981-.8629 1.275-.3764.291-.8322.436-1.3672.436zm0-.781c.5303 0 .9422-.256 1.2358-.767s.4403-1.24.4403-2.187c0-.63-.0674-1.166-.2024-1.609-.1326-.443-.3243-.78-.5753-1.012-.2485-.232-.548-.348-.8984-.348-.5256 0-.9363.259-1.2322.778-.296.516-.4439 1.246-.4439 2.191 0 .629.0663 1.164.1988 1.605.1326.44.3232.775.5718 1.005.2509.229.5528.344.9055.344zm6.25.781c-.535 0-.9908-.145-1.3672-.436-.3764-.294-.664-.719-.8629-1.275-.1989-.559-.2983-1.234-.2983-2.024 0-.786.0994-1.458.2983-2.014.2012-.559.49-.985.8665-1.278.3788-.296.8333-.444 1.3636-.444s.9837.148 1.3601.444c.3788.293.6676.719.8665 1.278.2012.556.3018 1.228.3018 2.014 0 .79-.0994 1.465-.2983 2.024-.1989.556-.4865.981-.8629 1.275-.3764.291-.8322.436-1.3672.436zm0-.781c.5303 0 .9422-.256 1.2358-.767s.4403-1.24.4403-2.187c0-.63-.0674-1.166-.2024-1.609-.1326-.443-.3243-.78-.5753-1.012-.2485-.232-.548-.348-.8984-.348-.5256 0-.9363.259-1.2322.778-.296.516-.4439 1.246-.4439 2.191 0 .629.0663 1.164.1988 1.605.1326.44.3232.775.5718 1.005.2509.229.5528.344.9055.344zm6.25.781c-.535 0-.9908-.145-1.3672-.436-.3764-.294-.664-.719-.8629-1.275-.1989-.559-.2983-1.234-.2983-2.024 0-.786.0994-1.458.2983-2.014.2012-.559.49-.985.8665-1.278.3788-.296.8333-.444 1.3636-.444s.9837.148 1.3601.444c.3788.293.6676.719.8665 1.278.2012.556.3018 1.228.3018 2.014 0 .79-.0994 1.465-.2983 2.024-.1989.556-.4865.981-.8629 1.275-.3764.291-.8322.436-1.3672.436zm0-.781c.5303 0 .9422-.256 1.2358-.767s.4403-1.24.4403-2.187c0-.63-.0674-1.166-.2024-1.609-.1326-.443-.3243-.78-.5753-1.012-.2485-.232-.548-.348-.8984-.348-.5256 0-.9363.259-1.2322.778-.296.516-.4439 1.246-.4439 2.191 0 .629.0663 1.164.1988 1.605.1326.44.3232.775.5718 1.005.2509.229.5528.344.9055.344z"/><path d="m60.093 301.099c-.4687 0-.8866-.08-1.2535-.241-.3646-.161-.6546-.385-.87-.671-.2131-.289-.3291-.624-.3481-1.005h.8949c.019.234.0995.437.2415.607.1421.168.3279.298.5575.391.2297.092.4842.138.7635.138.3125 0 .5895-.054.831-.163s.4309-.261.5682-.455.2059-.419.2059-.674c0-.268-.0662-.504-.1988-.707-.1326-.206-.3267-.367-.5824-.483s-.5682-.174-.9375-.174h-.5824v-.781h.5824c.2888 0 .5421-.052.7599-.157.2202-.104.3919-.251.515-.44.1254-.189.1882-.412.1882-.668 0-.246-.0545-.46-.1634-.642-.1089-.183-.2628-.325-.4616-.426-.1965-.102-.4285-.153-.6961-.153-.2509 0-.4876.046-.7102.138-.2202.09-.4001.222-.5398.395-.1396.17-.2154.376-.2272.617h-.8523c.0142-.381.129-.715.3445-1.001.2154-.289.4971-.514.8451-.675.3504-.161.7351-.241 1.1541-.241.4499 0 .8357.091 1.1577.273.322.18.5694.418.7422.714s.2592.616.2592.959c0 .409-.1077.759-.3231 1.047-.2131.289-.5031.489-.87.601v.056c.4592.076.8179.271 1.076.586.258.313.387.7.387 1.162 0 .395-.1077.75-.3231 1.065-.2131.312-.5043.559-.8736.739-.3693.179-.7895.269-1.2607.269zm6.282 0c-.535 0-.9908-.145-1.3672-.436-.3764-.294-.664-.719-.8629-1.275-.1989-.559-.2983-1.234-.2983-2.024 0-.786.0994-1.458.2983-2.014.2012-.559.49-.985.8665-1.278.3788-.296.8333-.444 1.3636-.444s.9837.148 1.3601.444c.3788.293.6676.719.8665 1.278.2012.556.3018 1.228.3018 2.014 0 .79-.0994 1.465-.2983 2.024-.1989.556-.4865.981-.8629 1.275-.3764.291-.8322.436-1.3672.436zm0-.781c.5303 0 .9422-.256 1.2358-.767s.4403-1.24.4403-2.187c0-.63-.0674-1.166-.2024-1.609-.1326-.443-.3243-.78-.5753-1.012-.2485-.232-.548-.348-.8984-.348-.5256 0-.9363.259-1.2322.778-.296.516-.4439 1.246-.4439 2.191 0 .629.0663 1.164.1988 1.605.1326.44.3232.775.5718 1.005.2509.229.5528.344.9055.344zm6.25.781c-.535 0-.9908-.145-1.3672-.436-.3764-.294-.664-.719-.8629-1.275-.1989-.559-.2983-1.234-.2983-2.024 0-.786.0994-1.458.2983-2.014.2012-.559.49-.985.8665-1.278.3788-.296.8333-.444 1.3636-.444s.9837.148 1.3601.444c.3788.293.6676.719.8665 1.278.2012.556.3018 1.228.3018 2.014 0 .79-.0994 1.465-.2983 2.024-.1989.556-.4865.981-.8629 1.275-.3764.291-.8322.436-1.3672.436zm0-.781c.5303 0 .9422-.256 1.2358-.767s.4403-1.24.4403-2.187c0-.63-.0674-1.166-.2024-1.609-.1326-.443-.3243-.78-.5753-1.012-.2485-.232-.548-.348-.8984-.348-.5256 0-.9363.259-1.2322.778-.296.516-.4439 1.246-.4439 2.191 0 .629.0663 1.164.1988 1.605.1326.44.3232.775.5718 1.005.2509.229.5528.344.9055.344zm6.25.781c-.535 0-.9908-.145-1.3672-.436-.3764-.294-.664-.719-.8629-1.275-.1989-.559-.2983-1.234-.2983-2.024 0-.786.0994-1.458.2983-2.014.2012-.559.49-.985.8665-1.278.3788-.296.8333-.444 1.3636-.444s.9837.148 1.3601.444c.3788.293.6676.719.8665 1.278.2012.556.3018 1.228.3018 2.014 0 .79-.0994 1.465-.2983 2.024-.1989.556-.4865.981-.8629 1.275-.3764.291-.8322.436-1.3672.436zm0-.781c.5303 0 .9422-.256 1.2358-.767s.4403-1.24.4403-2.187c0-.63-.0674-1.166-.2024-1.609-.1326-.443-.3243-.78-.5753-1.012-.2485-.232-.548-.348-.8984-.348-.5256 0-.9363.259-1.2322.778-.296.516-.4439 1.246-.4439 2.191 0 .629.0663 1.164.1988 1.605.1326.44.3232.775.5718 1.005.2509.229.5528.344.9055.344z"/><path d="m57.4164 257.509v-.725l3.196-5.057h.5256v1.122h-.3552l-2.4147 3.821v.057h4.304v.782zm3.4233 1.491v-1.712-.337-5.224h.838v7.273zm5.5353.099c-.535 0-.9908-.145-1.3672-.436-.3764-.294-.664-.719-.8629-1.275-.1989-.559-.2983-1.234-.2983-2.024 0-.786.0994-1.458.2983-2.014.2012-.559.49-.985.8665-1.278.3788-.296.8333-.444 1.3636-.444s.9837.148 1.3601.444c.3788.293.6676.719.8665 1.278.2012.556.3018 1.228.3018 2.014 0 .79-.0994 1.465-.2983 2.024-.1989.556-.4865.981-.8629 1.275-.3764.291-.8322.436-1.3672.436zm0-.781c.5303 0 .9422-.256 1.2358-.767s.4403-1.24.4403-2.187c0-.63-.0674-1.166-.2024-1.609-.1326-.443-.3243-.78-.5753-1.012-.2485-.232-.548-.348-.8984-.348-.5256 0-.9363.259-1.2322.778-.296.516-.4439 1.246-.4439 2.191 0 .629.0663 1.164.1988 1.605.1326.44.3232.775.5718 1.005.2509.229.5528.344.9055.344zm6.25.781c-.535 0-.9908-.145-1.3672-.436-.3764-.294-.664-.719-.8629-1.275-.1989-.559-.2983-1.234-.2983-2.024 0-.786.0994-1.458.2983-2.014.2012-.559.49-.985.8665-1.278.3788-.296.8333-.444 1.3636-.444s.9837.148 1.3601.444c.3788.293.6676.719.8665 1.278.2012.556.3018 1.228.3018 2.014 0 .79-.0994 1.465-.2983 2.024-.1989.556-.4865.981-.8629 1.275-.3764.291-.8322.436-1.3672.436zm0-.781c.5303 0 .9422-.256 1.2358-.767s.4403-1.24.4403-2.187c0-.63-.0674-1.166-.2024-1.609-.1326-.443-.3243-.78-.5753-1.012-.2485-.232-.548-.348-.8984-.348-.5256 0-.9363.259-1.2322.778-.296.516-.4439 1.246-.4439 2.191 0 .629.0663 1.164.1988 1.605.1326.44.3232.775.5718 1.005.2509.229.5528.344.9055.344zm6.25.781c-.535 0-.9908-.145-1.3672-.436-.3764-.294-.664-.719-.8629-1.275-.1989-.559-.2983-1.234-.2983-2.024 0-.786.0994-1.458.2983-2.014.2012-.559.49-.985.8665-1.278.3788-.296.8333-.444 1.3636-.444s.9837.148 1.3601.444c.3788.293.6676.719.8665 1.278.2012.556.3018 1.228.3018 2.014 0 .79-.0994 1.465-.2983 2.024-.1989.556-.4865.981-.8629 1.275-.3764.291-.8322.436-1.3672.436zm0-.781c.5303 0 .9422-.256 1.2358-.767s.4403-1.24.4403-2.187c0-.63-.0674-1.166-.2024-1.609-.1326-.443-.3243-.78-.5753-1.012-.2485-.232-.548-.348-.8984-.348-.5256 0-.9363.259-1.2322.778-.296.516-.4439 1.246-.4439 2.191 0 .629.0663 1.164.1988 1.605.1326.44.3232.775.5718 1.005.2509.229.5528.344.9055.344z"/><path d="m60.1916 216.099c-.4167 0-.7919-.082-1.1257-.248s-.6014-.393-.8026-.682-.3113-.618-.3302-.987h.8522c.0332.329.1823.601.4475.817.2675.213.5871.319.9588.319.2983 0 .5634-.07.7954-.209.2344-.14.4179-.332.5505-.576.1349-.246.2024-.524.2024-.834 0-.317-.0699-.6-.2095-.849-.1373-.251-.3267-.448-.5682-.593-.2415-.144-.5173-.218-.8274-.22-.2226-.002-.451.032-.6854.103-.2344.069-.4273.157-.5788.266l-.8239-.099.4403-3.58h3.7784v.782h-3.0397l-.2557 2.144h.0426c.1492-.118.3362-.216.5611-.294s.4593-.118.7031-.118c.4451 0 .8416.107 1.1896.32.3504.211.625.5.8239.867.2012.367.3019.786.3019 1.257 0 .464-.1042.878-.3125 1.243-.206.362-.4901.648-.8523.859-.3622.208-.7742.312-1.2358.312zm6.1834 0c-.535 0-.9908-.145-1.3672-.436-.3764-.294-.664-.719-.8629-1.275-.1989-.559-.2983-1.234-.2983-2.024 0-.786.0994-1.458.2983-2.014.2012-.559.49-.985.8665-1.278.3788-.296.8333-.444 1.3636-.444s.9837.148 1.3601.444c.3788.293.6676.719.8665 1.278.2012.556.3018 1.228.3018 2.014 0 .79-.0994 1.465-.2983 2.024-.1989.556-.4865.981-.8629 1.275-.3764.291-.8322.436-1.3672.436zm0-.781c.5303 0 .9422-.256 1.2358-.767s.4403-1.24.4403-2.187c0-.63-.0674-1.166-.2024-1.609-.1326-.443-.3243-.78-.5753-1.012-.2485-.232-.548-.348-.8984-.348-.5256 0-.9363.259-1.2322.778-.296.516-.4439 1.246-.4439 2.191 0 .629.0663 1.164.1988 1.605.1326.44.3232.775.5718 1.005.2509.229.5528.344.9055.344zm6.25.781c-.535 0-.9908-.145-1.3672-.436-.3764-.294-.664-.719-.8629-1.275-.1989-.559-.2983-1.234-.2983-2.024 0-.786.0994-1.458.2983-2.014.2012-.559.49-.985.8665-1.278.3788-.296.8333-.444 1.3636-.444s.9837.148 1.3601.444c.3788.293.6676.719.8665 1.278.2012.556.3018 1.228.3018 2.014 0 .79-.0994 1.465-.2983 2.024-.1989.556-.4865.981-.8629 1.275-.3764.291-.8322.436-1.3672.436zm0-.781c.5303 0 .9422-.256 1.2358-.767s.4403-1.24.4403-2.187c0-.63-.0674-1.166-.2024-1.609-.1326-.443-.3243-.78-.5753-1.012-.2485-.232-.548-.348-.8984-.348-.5256 0-.9363.259-1.2322.778-.296.516-.4439 1.246-.4439 2.191 0 .629.0663 1.164.1988 1.605.1326.44.3232.775.5718 1.005.2509.229.5528.344.9055.344zm6.25.781c-.535 0-.9908-.145-1.3672-.436-.3764-.294-.664-.719-.8629-1.275-.1989-.559-.2983-1.234-.2983-2.024 0-.786.0994-1.458.2983-2.014.2012-.559.49-.985.8665-1.278.3788-.296.8333-.444 1.3636-.444s.9837.148 1.3601.444c.3788.293.6676.719.8665 1.278.2012.556.3018 1.228.3018 2.014 0 .79-.0994 1.465-.2983 2.024-.1989.556-.4865.981-.8629 1.275-.3764.291-.8322.436-1.3672.436zm0-.781c.5303 0 .9422-.256 1.2358-.767s.4403-1.24.4403-2.187c0-.63-.0674-1.166-.2024-1.609-.1326-.443-.3243-.78-.5753-1.012-.2485-.232-.548-.348-.8984-.348-.5256 0-.9363.259-1.2322.778-.296.516-.4439 1.246-.4439 2.191 0 .629.0663 1.164.1988 1.605.1326.44.3232.775.5718 1.005.2509.229.5528.344.9055.344z"/><path d="m78.875 426.099c-.535 0-.9908-.145-1.3672-.436-.3764-.294-.664-.719-.8629-1.275-.1989-.559-.2983-1.234-.2983-2.024 0-.786.0994-1.458.2983-2.014.2012-.559.49-.985.8665-1.278.3788-.296.8333-.444 1.3636-.444s.9837.148 1.3601.444c.3788.293.6676.719.8665 1.278.2012.556.3018 1.228.3018 2.014 0 .79-.0994 1.465-.2983 2.024-.1989.556-.4865.981-.8629 1.275-.3764.291-.8322.436-1.3672.436zm0-.781c.5303 0 .9422-.256 1.2358-.767s.4403-1.24.4403-2.187c0-.63-.0674-1.166-.2024-1.609-.1326-.443-.3243-.78-.5753-1.012-.2485-.232-.548-.348-.8984-.348-.5256 0-.9363.259-1.2322.778-.296.516-.4439 1.246-.4439 2.191 0 .629.0663 1.164.1988 1.605.1326.44.3232.775.5718 1.005.2509.229.5528.344.9055.344z"/></g></g></svg>