<svg fill="none" height="206" viewBox="0 0 336 206" width="336" xmlns="http://www.w3.org/2000/svg" xmlns:xlink="http://www.w3.org/1999/xlink"><filter id="a" color-interpolation-filters="sRGB" filterUnits="userSpaceOnUse" height="60" width="60" x="138" y="125"><feFlood flood-opacity="0" result="BackgroundImageFix"/><feBlend in="SourceGraphic" in2="BackgroundImageFix" mode="normal" result="shape"/><feColorMatrix in="SourceAlpha" result="hardAlpha" type="matrix" values="0 0 0 0 0 0 0 0 0 0 0 0 0 0 0 0 0 0 127 0"/><feMorphology in="SourceAlpha" operator="erode" radius="4" result="effect1_innerShadow_1208_5914"/><feOffset/><feComposite in2="hardAlpha" k2="-1" k3="1" operator="arithmetic"/><feColorMatrix type="matrix" values="0 0 0 0 0.9702 0 0 0 0 0.9751 0 0 0 0 0.98 0 0 0 1 0"/><feBlend in2="shape" mode="normal" result="effect1_innerShadow_1208_5914"/></filter><linearGradient id="b" gradientUnits="userSpaceOnUse" x1="177.5" x2="177.5" y1="207" y2="50.5"><stop offset="0" stop-color="#fff"/><stop offset="1" stop-color="#fff" stop-opacity="0"/></linearGradient><mask id="c" height="206" maskUnits="userSpaceOnUse" width="336" x="0" y="0"><rect fill="#fff" height="205" rx="2.5" stroke="#dfe3e8" width="335" x=".5" y=".5"/></mask><g mask="url(#c)" opacity=".25"><g filter="url(#a)"><circle cx="168" cy="155" fill="#eef0f3" r="30"/></g><g stroke="#dfe3e8"><circle cx="168" cy="155" r="29.5"/><circle cx="168" cy="155" r="46.375"/><circle cx="168" cy="155" r="65.125"/><circle cx="168" cy="155" r="93.25"/><circle cx="168" cy="155" r="121.375"/><circle cx="168" cy="155" r="149.5"/><circle cx="168" cy="155" r="187"/><circle cx="168" cy="155" r="243.25"/><circle cx="168" cy="155" r="299.5"/></g><path d="m0 7.00001c0-4.41828 3.58172-8.00001 8-8.00001h321c4.418 0 8 3.58172 8 8v200h-337z" fill="url(#b)"/></g></svg>