<svg fill="none" height="200" viewBox="0 0 440 200" width="440" xmlns="http://www.w3.org/2000/svg" xmlns:xlink="http://www.w3.org/1999/xlink"><filter id="a" color-interpolation-filters="sRGB" filterUnits="userSpaceOnUse" height="40" width="392" x="24" y="22"><feFlood flood-opacity="0" result="BackgroundImageFix"/><feColorMatrix in="SourceAlpha" result="hardAlpha" type="matrix" values="0 0 0 0 0 0 0 0 0 0 0 0 0 0 0 0 0 0 127 0"/><feOffset dy="2"/><feGaussianBlur stdDeviation="2"/><feComposite in2="hardAlpha" operator="out"/><feColorMatrix type="matrix" values="0 0 0 0 0.1152 0 0 0 0 0.1476 0 0 0 0 0.18 0 0 0 0.04 0"/><feBlend in2="BackgroundImageFix" mode="normal" result="effect1_dropShadow_1306_3662"/><feBlend in="SourceGraphic" in2="effect1_dropShadow_1306_3662" mode="normal" result="shape"/></filter><filter id="b" color-interpolation-filters="sRGB" filterUnits="userSpaceOnUse" height="155" width="392" x="24" y="62"><feFlood flood-opacity="0" result="BackgroundImageFix"/><feColorMatrix in="SourceAlpha" result="hardAlpha" type="matrix" values="0 0 0 0 0 0 0 0 0 0 0 0 0 0 0 0 0 0 127 0"/><feOffset dy="2"/><feGaussianBlur stdDeviation="2"/><feComposite in2="hardAlpha" operator="out"/><feColorMatrix type="matrix" values="0 0 0 0 0.1152 0 0 0 0 0.1476 0 0 0 0 0.18 0 0 0 0.04 0"/><feBlend in2="BackgroundImageFix" mode="normal" result="effect1_dropShadow_1306_3662"/><feBlend in="SourceGraphic" in2="effect1_dropShadow_1306_3662" mode="normal" result="shape"/></filter><linearGradient id="c" gradientUnits="userSpaceOnUse" x1="195.058" x2="195.058" y1="199" y2="159"><stop offset="0" stop-color="#fcfcfd"/><stop offset="1" stop-color="#fcfcfd" stop-opacity="0"/></linearGradient><mask id="d" height="198" maskUnits="userSpaceOnUse" width="438" x="1" y="1"><rect fill="#f7f9fa" height="197" rx="2.5" stroke="#eef0f3" width="437" x="1.5" y="1.5"/></mask><rect fill="#fcfcfd" height="199" rx="3.5" stroke="#eef0f3" width="439" x=".5" y=".5"/><g mask="url(#d)"><path clip-rule="evenodd" d="m167 3.93699c.863-.22202 1.5-1.00507 1.5-1.93699 0-1.104569-.895-2-2-2s-2 .895431-2 2c0 .93192.637 1.71497 1.5 1.93699v64.35591l-5.354 5.3535-.146.1465v.2071 35 .207l.146.147 13.354 13.353v44.293h1v-44.5-.207l-.146-.147-13.354-13.353v-34.5859l5.354-5.3535.146-.1465v-.2071zm82 7.72321-7.407-10.36958.814-.581239 7.5 10.500019.093.1304v.1602 16.5.2534l-.204.1498-7.296 5.3502v20.5395l7.354 7.3535.146.1465v.2071 43h-1v-42.7929l-7.354-7.3535-.146-.1465v-.2071-21-.2534l.204-.1498 7.296-5.3502zm-234.5 180.8398v6.563c.8626.222 1.5 1.005 1.5 1.937s-.6374 1.715-1.5 1.937v.063h-.5-.5v-.063c-.8626-.222-1.5-1.005-1.5-1.937s.6374-1.715 1.5-1.937v-6.356l-2.8536-2.853-.1464-.147v-.207-2.563c-.86261-.222-1.5-1.005-1.5-1.937s.63739-1.715 1.5-1.937v-52.563-.207l.1464-.147 8.8536-8.853v-30.0859l-5.8536-5.8535-.1464-.1465v-.2071-20.063c-.8626-.222-1.5-1.0051-1.5-1.937s.6374-1.715 1.5-1.937v-60.063h1v60.063c.8626.222 1.5 1.0051 1.5 1.937s-.6374 1.715-1.5 1.937v19.8559l5.8536 5.8535.1464.1465v.2071 30.5.207l-.1464.147-8.8536 8.853v52.356c.8626.222 1.5 1.005 1.5 1.937s-.6374 1.715-1.5 1.937v2.356l2.8536 2.853.1464.147zm99-107.2071v-59.3559c-.863-.222-1.5-1.0051-1.5-1.937s.637-1.715 1.5-1.937v-21.063h1v21.063c.863.222 1.5 1.0051 1.5 1.937s-.637 1.715-1.5 1.937v59.563.2071l-.146.1465-5.854 5.8535v33.2929h-1v-33.5-.2071l.146-.1465zm232-24v-60.2929h1v60.5.2071l-.146.1465-5.854 5.8535v33.2929h-1v-33.5-.2071l.146-.1465zm-212-60.2929v45 .2071l.146.1465 6.854 6.8535v95.7929h1v-96-.2071l-.146-.1465-6.854-6.8535v-44.7929zm60 92v-92h1v92zm205-92v92 91.063c-.863.222-1.5 1.005-1.5 1.937s.637 1.715 1.5 1.937v7.856l-6.854 6.853-.146.147v.207 30.5h1v-30.293l6.854-6.853.146-.147v-.207-8.063c.863-.222 1.5-1.005 1.5-1.937s-.637-1.715-1.5-1.937v-91.063-92zm-316.5 38v-38h1v37.7929l5.8536 5.8535.1464.1465v.2071 13.063c.8626.222 1.5 1.0051 1.5 1.937s-.6374 1.715-1.5 1.937v13.063.2071l-.1464.1465-8.3536 8.3535v109.7929h-1v-110-.2071l.1464-.1465 8.3536-8.3535v-12.8559c-.8626-.222-1.5-1.0051-1.5-1.937s.6374-1.715 1.5-1.937v-12.8559l-5.8536-5.8535-.1464-.1465zm-21.5-38v15.063c-.8626.222-1.5 1.0051-1.5 1.937s.6374 1.715 1.5 1.937v114.346l-7.842 7.352-.158.148v.217 48 .217l.158.148 7.842 7.352v23.783h1v-24-.217l-.158-.148-7.842-7.352v-47.566l7.842-7.352.158-.148v-.217-114.563c.8626-.222 1.5-1.0051 1.5-1.937s-.6374-1.715-1.5-1.937v-15.063zm-24 57.7929v-57.7929h1v58 .2071l-.1464.1465-5.3536 5.3535v73.0859l5.3536 5.353.1464.147v.207 59.5h-1v-59.293l-5.3536-5.353-.1464-.147v-.207-73.5-.2071l.1464-.1465zm177-57.7929v18.5.2071l.146.1465 7.854 7.8535v29.3559c-.863.222-1.5 1.0051-1.5 1.937s.637 1.715 1.5 1.937v12.3559l-7.854 7.8535-.146.1465v.2071 58.5.207l.146.147 7.854 7.853v52.293h1v-52.5-.207l-.146-.147-7.854-7.853v-58.0859l7.854-7.8535.146-.1465v-.2071-12.563c.863-.222 1.5-1.0051 1.5-1.937s-.637-1.715-1.5-1.937v-29.563-.2071l-.146-.1465-7.854-7.8535v-18.2929zm205 0v53.5.2071l.146.1465 7.354 7.3535v8.8559c-.863.222-1.5 1.0051-1.5 1.937s.637 1.715 1.5 1.937v30.063 52.5 25.563c-.863.222-1.5 1.005-1.5 1.937s.637 1.715 1.5 1.937v44.563h1v-44.563c.863-.222 1.5-1.005 1.5-1.937s-.637-1.715-1.5-1.937v-25.563-52.5-30.063c.863-.222 1.5-1.0051 1.5-1.937s-.637-1.715-1.5-1.937v-9.063-.2071l-.146-.1465-7.354-7.3535v-53.2929zm-149.944 12.2693 6.5-12.499976.888.461356-6.444 12.39152v8.0602l6.371 7.0447.129.1428v.1926 13.6875 41.75 9.563c.863.222 1.5 1.0051 1.5 1.937s-.637 1.715-1.5 1.937v20.063.207l-.146.147-6.354 6.353v28.293h-1v-28.5-.207l.146-.147 6.354-6.353v-19.856c-.863-.222-1.5-1.0051-1.5-1.937s.637-1.715 1.5-1.937v-9.563-41.75-13.4949l-6.371-7.0447-.129-.1428v-.1926-8.375-.1222zm25.944-12.2693v54.8135l-6.378 7.359-.122.141v.1865 62h1v-61.8135l6.378-7.359.122-.141v-.1865-55zm22 0v16.063c-.863.222-1.5 1.0051-1.5 1.937s.637 1.715 1.5 1.937v10.8559l-5.354 5.3535-.146.1465v.2071 53.5.2071l.146.1465 8.354 8.3535v64.2929h1v-64.5-.2071l-.146-.1465-8.354-8.3535v-53.0858l5.354-5.3535.146-.1465v-.2071-11.063c.863-.222 1.5-1.0051 1.5-1.937s-.637-1.715-1.5-1.937v-16.063zm49 57.937v6.563.2071l.146.1465 5.854 5.8535v39.5859l-5.854 5.853-.146.147v.207 58.5h1v-58.293l5.854-5.853.146-.147v-.207-40-.2071l-.146-.1465-5.854-5.8535v-6.3559c.863-.222 1.5-1.0051 1.5-1.937s-.637-1.715-1.5-1.937v-54.063h-1v54.063c-.863.222-1.5 1.0051-1.5 1.937s.637 1.715 1.5 1.937zm-23.5 65.063c0 1.105-.895 2-2 2s-2-.895-2-2 .895-2 2-2 2 .895 2 2z" fill="#eef0f3" fill-rule="evenodd"/><path d="m1 159h439v40h-439z" fill="url(#c)"/><g filter="url(#a)"><rect fill="#fff" height="32" rx="4" width="384" x="28" y="24"/><rect height="31" rx="3.5" stroke="#dfe3e8" width="383" x="28.5" y="24.5"/></g><g filter="url(#b)"><path d="m28 68c0-2.2091 1.7909-4 4-4h376c2.209 0 4 1.7909 4 4v139c0 2.209-1.791 4-4 4h-376c-2.2091 0-4-1.791-4-4z" fill="#fff"/><path d="m32 64.5h376c1.933 0 3.5 1.567 3.5 3.5v139c0 1.933-1.567 3.5-3.5 3.5h-376c-1.933 0-3.5-1.567-3.5-3.5v-139c0-1.933 1.567-3.5 3.5-3.5z" stroke="#dfe3e8"/></g><path d="m62.57 107.63v.825c-.2267 0-.43.022-.61.065-.1767.043-.3133.118-.41.225-.0933.107-.13.255-.11.445l.185 1.835c.0333.313.0067.572-.08.775-.0833.2-.2183.355-.405.465s-.415.188-.685.235c.28.047.5133.123.7.23.1867.103.32.255.4.455s.1033.463.07.79l-.185 1.835c-.02.19.0167.338.11.445.0967.11.2333.185.41.225.18.043.3833.065.61.065v.825c-.3467 0-.6617-.028-.945-.085-.28-.053-.5183-.143-.715-.27-.1933-.127-.335-.298-.425-.515-.0867-.213-.1133-.478-.08-.795l.185-1.725c.0233-.237-.0083-.43-.095-.58-.0833-.153-.235-.267-.455-.34s-.5233-.11-.91-.11v-.9c.3833 0 .685-.035.905-.105.2233-.073.3767-.185.46-.335.0867-.153.1183-.348.095-.585l-.185-1.725c-.0333-.32-.0067-.588.08-.805.09-.217.2317-.387.425-.51.1967-.127.435-.217.715-.27.2833-.057.5983-.085.945-.085z" fill="#707880"/><path d="m71.6672 127.275-.17-2.675h1.22l-.165 2.675zm1.765 0-.17-2.675h1.225l-.17 2.675z" fill="#078605"/><path d="m79.9783 124.475 1.12.125v7.4h-.985l-.08-.65c-.18.25-.395.443-.645.58s-.53.205-.84.205c-.4533 0-.8267-.115-1.12-.345-.2933-.233-.5117-.558-.655-.975-.14-.42-.21-.905-.21-1.455 0-.537.0833-1.013.25-1.43.1667-.42.405-.75.715-.99s.6833-.36 1.12-.36c.2767 0 .525.05.745.15.22.097.415.238.585.425zm-1.035 2.965c-.3767 0-.67.157-.88.47-.21.31-.315.793-.315 1.45 0 .45.0433.817.13 1.1.0867.28.2117.487.375.62.1633.13.36.195.59.195.2533 0 .4733-.073.66-.22s.345-.323.475-.53v-2.5c-.13-.187-.2817-.33-.455-.43-.1733-.103-.3667-.155-.58-.155z" fill="#078605"/><path d="m86.9094 130.705c0 .207.0316.358.095.455.0633.093.165.163.305.21l-.25.76c-.26-.03-.4834-.102-.67-.215-.1867-.113-.3284-.285-.425-.515-.1934.243-.4384.427-.735.55-.2967.123-.6134.185-.95.185-.5334 0-.9567-.15-1.27-.45-.31-.303-.465-.7-.465-1.19 0-.557.2166-.985.65-1.285.4333-.3 1.0533-.45 1.86-.45h.755v-.345c0-.34-.1034-.585-.31-.735-.2034-.15-.4917-.225-.865-.225-.1734 0-.3834.023-.63.07-.2467.043-.505.112-.775.205l-.275-.79c.33-.123.6533-.213.97-.27.3166-.06.61-.09.88-.09.7066 0 1.2333.157 1.58.47.35.313.525.747.525 1.3zm-2.29.605c.2266 0 .4483-.06.665-.18.2166-.12.3916-.288.525-.505v-1.165h-.62c-.5267 0-.9034.088-1.13.265-.2267.173-.34.413-.34.72 0 .28.075.495.225.645.1533.147.3783.22.675.22z" fill="#078605"/><path d="m93.2805 131.72c-.1934.123-.425.223-.695.3s-.5517.115-.845.115c-.6134 0-1.08-.158-1.4-.475-.3167-.32-.475-.74-.475-1.26v-2.865h-1.175v-.815h1.175v-1.18l1.12-.135v1.315h1.78l-.125.815h-1.655v2.855c0 .283.07.495.21.635.1433.137.3766.205.7.205.1933 0 .3716-.023.535-.07.1633-.047.3116-.107.445-.18z" fill="#078605"/><path d="m98.9016 130.705c0 .207.0316.358.095.455.0633.093.165.163.305.21l-.25.76c-.26-.03-.4834-.102-.67-.215-.1867-.113-.3284-.285-.425-.515-.1934.243-.4384.427-.735.55-.2967.123-.6134.185-.95.185-.5334 0-.9567-.15-1.27-.45-.31-.303-.465-.7-.465-1.19 0-.557.2166-.985.65-1.285.4333-.3 1.0533-.45 1.86-.45h.755v-.345c0-.34-.1034-.585-.31-.735-.2034-.15-.4917-.225-.865-.225-.1734 0-.3834.023-.63.07-.2467.043-.505.112-.775.205l-.275-.79c.33-.123.6533-.213.97-.27.3166-.06.61-.09.88-.09.7066 0 1.2333.157 1.58.47.35.313.525.747.525 1.3zm-2.29.605c.2266 0 .4483-.06.665-.18.2166-.12.3916-.288.525-.505v-1.165h-.62c-.5267 0-.9034.088-1.13.265-.2267.173-.34.413-.34.72 0 .28.075.495.225.645.1533.147.3783.22.675.22z" fill="#078605"/><path d="m101.648 127.275-.17-2.675h1.22l-.165 2.675zm1.765 0-.17-2.675h1.225l-.17 2.675z" fill="#078605"/><path d="m108.064 131.23c0-.243.086-.452.26-.625.173-.177.386-.265.64-.265.256 0 .47.088.64.265.173.173.26.382.26.625 0 .25-.087.463-.26.64-.17.177-.384.265-.64.265-.254 0-.467-.088-.64-.265-.174-.177-.26-.39-.26-.64zm0-3.55c0-.163.04-.313.12-.45s.188-.245.325-.325c.136-.08.288-.12.455-.12.256 0 .47.088.64.265.173.173.26.383.26.63s-.087.46-.26.64c-.17.177-.384.265-.64.265-.254 0-.467-.088-.64-.265-.174-.18-.26-.393-.26-.64z" fill="#707880"/><path d="m122.531 123.63v.825c-.227 0-.43.022-.61.065-.177.043-.313.118-.41.225-.093.107-.13.255-.11.445l.185 1.835c.033.313.007.572-.08.775-.083.2-.218.355-.405.465s-.415.188-.685.235c.28.047.513.123.7.23.187.103.32.255.4.455s.103.463.07.79l-.185 1.835c-.02.19.017.338.11.445.097.11.233.185.41.225.18.043.383.065.61.065v.825c-.347 0-.662-.028-.945-.085-.28-.053-.518-.143-.715-.27-.193-.127-.335-.298-.425-.515-.087-.213-.113-.478-.08-.795l.185-1.725c.023-.237-.008-.43-.095-.58-.083-.153-.235-.267-.455-.34s-.523-.11-.91-.11v-.9c.383 0 .685-.035.905-.105.223-.073.377-.185.46-.335.087-.153.118-.348.095-.585l-.185-1.725c-.033-.32-.007-.588.08-.805.09-.217.232-.387.425-.51.197-.127.435-.217.715-.27.283-.057.598-.085.945-.085z" fill="#707880"/><path d="m83.6594 143.275-.17-2.675h1.22l-.165 2.675zm1.765 0-.17-2.675h1.225l-.17 2.675z" fill="#078605"/><path d="m90.7905 147.275c.35 0 .6283-.062.835-.185.2066-.127.31-.3.31-.52 0-.143-.03-.265-.09-.365-.06-.103-.18-.197-.36-.28-.18-.087-.4534-.177-.82-.27-.3467-.09-.6517-.197-.915-.32-.26-.123-.4617-.283-.605-.48-.1434-.197-.215-.45-.215-.76 0-.303.085-.568.255-.795s.4133-.403.73-.53c.32-.127.695-.19 1.125-.19.4433 0 .83.058 1.16.175s.6116.262.845.435l-.47.705c-.2067-.137-.4334-.248-.68-.335-.2434-.087-.5184-.13-.825-.13-.3567 0-.6134.053-.77.16-.1534.107-.23.248-.23.425 0 .13.0383.24.115.33.08.087.2166.168.41.245.1933.073.4666.16.82.26.3433.093.6416.203.895.33.2566.127.455.295.595.505.1433.207.215.477.215.81 0 .38-.11.692-.33.935-.2167.24-.5034.418-.86.535-.3534.113-.7334.17-1.14.17-.49 0-.9134-.07-1.27-.21-.3567-.143-.6567-.322-.9-.535l.595-.68c.2066.167.4433.303.71.41.2666.103.555.155.865.155z" fill="#078605"/><path d="m99.2766 147.72c-.1934.123-.425.223-.695.3s-.5517.115-.845.115c-.6134 0-1.08-.158-1.4-.475-.3167-.32-.475-.74-.475-1.26v-2.865h-1.175v-.815h1.175v-1.18l1.12-.135v1.315h1.78l-.125.815h-1.655v2.855c0 .283.07.495.21.635.1433.137.3766.205.7.205.1933 0 .3716-.023.535-.07.1633-.047.3116-.107.445-.18z" fill="#078605"/><path d="m104.898 146.705c0 .207.031.358.095.455.063.093.165.163.305.21l-.25.76c-.26-.03-.484-.102-.67-.215-.187-.113-.329-.285-.425-.515-.194.243-.439.427-.735.55-.297.123-.614.185-.95.185-.534 0-.957-.15-1.27-.45-.31-.303-.465-.7-.465-1.19 0-.557.216-.985.65-1.285.433-.3 1.053-.45 1.86-.45h.755v-.345c0-.34-.104-.585-.31-.735-.204-.15-.492-.225-.865-.225-.174 0-.384.023-.63.07-.247.043-.505.112-.775.205l-.275-.79c.33-.123.653-.213.97-.27.316-.06.61-.09.88-.09.706 0 1.233.157 1.58.47.35.313.525.747.525 1.3zm-2.29.605c.226 0 .448-.06.665-.18.216-.12.391-.288.525-.505v-1.165h-.62c-.527 0-.904.088-1.13.265-.227.173-.34.413-.34.72 0 .28.075.495.225.645.153.147.378.22.675.22z" fill="#078605"/><path d="m111.269 147.72c-.194.123-.425.223-.695.3s-.552.115-.845.115c-.614 0-1.08-.158-1.4-.475-.317-.32-.475-.74-.475-1.26v-2.865h-1.175v-.815h1.175v-1.18l1.12-.135v1.315h1.78l-.125.815h-1.655v2.855c0 .283.07.495.21.635.143.137.376.205.7.205.193 0 .371-.023.535-.07.163-.047.311-.107.445-.18z" fill="#078605"/><path d="m113.975 142.72v3.69c0 .313.062.537.185.67.127.133.317.2.57.2.24 0 .472-.072.695-.215s.4-.318.53-.525v-3.82h1.12v5.28h-.965l-.07-.675c-.197.263-.445.465-.745.605-.3.137-.607.205-.92.205-.51 0-.892-.14-1.145-.42-.25-.283-.375-.672-.375-1.165v-3.83z" fill="#078605"/><path d="m120.771 147.275c.35 0 .628-.062.835-.185.207-.127.31-.3.31-.52 0-.143-.03-.265-.09-.365-.06-.103-.18-.197-.36-.28-.18-.087-.453-.177-.82-.27-.347-.09-.652-.197-.915-.32-.26-.123-.462-.283-.605-.48s-.215-.45-.215-.76c0-.303.085-.568.255-.795s.413-.403.73-.53c.32-.127.695-.19 1.125-.19.443 0 .83.058 1.16.175s.612.262.845.435l-.47.705c-.207-.137-.433-.248-.68-.335-.243-.087-.518-.13-.825-.13-.357 0-.613.053-.77.16-.153.107-.23.248-.23.425 0 .13.038.24.115.33.08.087.217.168.41.245.193.073.467.16.82.26.343.093.642.203.895.33.257.127.455.295.595.505.143.207.215.477.215.81 0 .38-.11.692-.33.935-.217.24-.503.418-.86.535-.353.113-.733.17-1.14.17-.49 0-.913-.07-1.27-.21-.357-.143-.657-.322-.9-.535l.595-.68c.207.167.443.303.71.41.267.103.555.155.865.155z" fill="#078605"/><path d="m125.632 143.275-.17-2.675h1.22l-.165 2.675zm1.765 0-.17-2.675h1.225l-.17 2.675z" fill="#078605"/><path d="m132.048 147.23c0-.243.087-.452.26-.625.173-.177.387-.265.64-.265.257 0 .47.088.64.265.173.173.26.382.26.625 0 .25-.087.463-.26.64-.17.177-.383.265-.64.265-.253 0-.467-.088-.64-.265s-.26-.39-.26-.64zm0-3.55c0-.163.04-.313.12-.45s.188-.245.325-.325.288-.12.455-.12c.257 0 .47.088.64.265.173.173.26.383.26.63s-.087.46-.26.64c-.17.177-.383.265-.64.265-.253 0-.467-.088-.64-.265-.173-.18-.26-.393-.26-.64z" fill="#707880"/><path d="m143.62 143.275-.17-2.675h1.22l-.165 2.675zm1.765 0-.17-2.675h1.225l-.17 2.675z" fill="#3a444f"/><path d="m153.456 142.72-1.86 5.28h-1.31l-1.86-5.28h1.2l1.34 4.35 1.345-4.35z" fill="#3a444f"/><path d="m158.863 146.705c0 .207.031.358.095.455.063.093.165.163.305.21l-.25.76c-.26-.03-.484-.102-.67-.215-.187-.113-.329-.285-.425-.515-.194.243-.439.427-.735.55-.297.123-.614.185-.95.185-.534 0-.957-.15-1.27-.45-.31-.303-.465-.7-.465-1.19 0-.557.216-.985.65-1.285.433-.3 1.053-.45 1.86-.45h.755v-.345c0-.34-.104-.585-.31-.735-.204-.15-.492-.225-.865-.225-.174 0-.384.023-.63.07-.247.043-.505.112-.775.205l-.275-.79c.33-.123.653-.213.97-.27.316-.06.61-.09.88-.09.706 0 1.233.157 1.58.47.35.313.525.747.525 1.3zm-2.29.605c.226 0 .448-.06.665-.18.216-.12.391-.288.525-.505v-1.165h-.62c-.527 0-.904.088-1.13.265-.227.173-.34.413-.34.72 0 .28.075.495.225.645.153.147.378.22.675.22z" fill="#3a444f"/><path d="m163.144 140.6v5.96c0 .243.073.417.22.52.15.1.343.15.58.15.153 0 .298-.017.435-.05.136-.033.27-.075.4-.125l.285.78c-.157.08-.35.15-.58.21-.227.06-.487.09-.78.09-.53 0-.944-.148-1.24-.445-.294-.3-.44-.71-.44-1.23v-5.035h-1.595v-.825z" fill="#3a444f"/><path d="m169.705 142.72v4.46h1.435v.82h-4.135v-.82h1.58v-3.64h-1.53v-.82zm-.78-2.585c.22 0 .396.067.53.2.136.133.205.3.205.5s-.069.368-.205.505c-.134.137-.31.205-.53.205-.214 0-.389-.068-.525-.205-.137-.137-.205-.305-.205-.505s.068-.367.205-.5c.136-.133.311-.2.525-.2z" fill="#3a444f"/><path d="m175.916 140.475 1.12.125v7.4h-.985l-.08-.65c-.18.25-.395.443-.645.58s-.53.205-.84.205c-.454 0-.827-.115-1.12-.345-.294-.233-.512-.558-.655-.975-.14-.42-.21-.905-.21-1.455 0-.537.083-1.013.25-1.43.166-.42.405-.75.715-.99s.683-.36 1.12-.36c.276 0 .525.05.745.15.22.097.415.238.585.425zm-1.035 2.965c-.377 0-.67.157-.88.47-.21.31-.315.793-.315 1.45 0 .45.043.817.13 1.1.086.28.211.487.375.62.163.13.36.195.59.195.253 0 .473-.073.66-.22.186-.147.345-.323.475-.53v-2.5c-.13-.187-.282-.33-.455-.43-.174-.103-.367-.155-.58-.155z" fill="#3a444f"/><path d="m179.597 143.275-.17-2.675h1.22l-.165 2.675zm1.765 0-.17-2.675h1.225l-.17 2.675z" fill="#3a444f"/><path d="m186.918 146.2c.263 0 .482.088.655.265.173.173.26.387.26.64 0 .15-.023.302-.07.455-.043.15-.115.335-.215.555l-.775 1.77h-.87l.49-2.03c-.12-.083-.213-.19-.28-.32-.067-.133-.1-.278-.1-.435 0-.25.087-.462.26-.635.173-.177.388-.265.645-.265z" fill="#707880"/><path d="m83.6594 159.275-.17-2.675h1.22l-.165 2.675zm1.765 0-.17-2.675h1.225l-.17 2.675z" fill="#078605"/><path d="m90.7905 163.275c.35 0 .6283-.062.835-.185.2066-.127.31-.3.31-.52 0-.143-.03-.265-.09-.365-.06-.103-.18-.197-.36-.28-.18-.087-.4534-.177-.82-.27-.3467-.09-.6517-.197-.915-.32-.26-.123-.4617-.283-.605-.48-.1434-.197-.215-.45-.215-.76 0-.303.085-.568.255-.795s.4133-.403.73-.53c.32-.127.695-.19 1.125-.19.4433 0 .83.058 1.16.175s.6116.262.845.435l-.47.705c-.2067-.137-.4334-.248-.68-.335-.2434-.087-.5184-.13-.825-.13-.3567 0-.6134.053-.77.16-.1534.107-.23.248-.23.425 0 .13.0383.24.115.33.08.087.2166.168.41.245.1933.073.4666.16.82.26.3433.093.6416.203.895.33.2566.127.455.295.595.505.1433.207.215.477.215.81 0 .38-.11.692-.33.935-.2167.24-.5034.418-.86.535-.3534.113-.7334.17-1.14.17-.49 0-.9134-.07-1.27-.21-.3567-.143-.6567-.322-.9-.535l.595-.68c.2066.167.4433.303.71.41.2666.103.555.155.865.155z" fill="#078605"/><path d="m97.4116 163.215c.2466 0 .4766-.042.69-.125.2133-.087.4166-.198.61-.335l.52.72c-.23.197-.51.357-.84.48-.3267.12-.665.18-1.015.18-.54 0-1.0017-.113-1.385-.34-.3834-.23-.6767-.552-.88-.965-.2034-.413-.305-.895-.305-1.445 0-.537.1016-1.015.305-1.435.2066-.423.5033-.757.89-1 .3866-.247.8516-.37 1.395-.37.36 0 .6916.053.995.16.3033.107.5816.265.835.475l-.515.705c-.2067-.143-.4184-.252-.635-.325-.2134-.077-.4334-.115-.66-.115-.4167 0-.7584.153-1.025.46-.2634.307-.395.788-.395 1.445 0 .44.06.795.18 1.065.1233.267.2916.462.505.585.2133.12.4566.18.73.18z" fill="#078605"/><path d="m102.978 158.58c.516 0 .951.115 1.305.345.353.23.62.552.8.965.183.413.275.9.275 1.46 0 .557-.094 1.045-.28 1.465-.184.417-.454.742-.81.975-.354.23-.785.345-1.295.345s-.944-.112-1.3-.335c-.354-.227-.624-.548-.81-.965-.184-.417-.275-.908-.275-1.475 0-.55.091-1.033.275-1.45.186-.417.458-.742.815-.975.356-.237.79-.355 1.3-.355zm0 .87c-.404 0-.707.155-.91.465-.204.307-.305.788-.305 1.445 0 .653.1 1.135.3 1.445.203.31.506.465.91.465.403 0 .705-.155.905-.465.203-.31.305-.795.305-1.455 0-.65-.1-1.128-.3-1.435-.2-.31-.502-.465-.905-.465z" fill="#078605"/><path d="m106.909 164v-.8h.775v-3.685h-.775v-.795h1.63l.205 1.225c.196-.443.44-.78.73-1.01.293-.233.67-.35 1.13-.35.156 0 .296.013.42.04.126.023.251.055.375.095h-.85l-.14.862c-.384 0-.67.151-.95.438-.277.287-.495.693-.655 1.22v1.96h1.065v.8zm3.5-3.335v-1.083l.14-.862h.85l-.19 1.945z" fill="#078605"/><path d="m113.785 161.72c.023.36.1.655.23.885.13.227.3.393.51.5.213.107.447.16.7.16.26 0 .5-.04.72-.12s.442-.193.665-.34l.485.67c-.247.2-.535.36-.865.48s-.683.18-1.06.18c-.547 0-1.01-.117-1.39-.35-.377-.233-.663-.558-.86-.975s-.295-.898-.295-1.445c0-.53.097-1.003.29-1.42.193-.42.47-.752.83-.995.36-.247.79-.37 1.29-.37.47 0 .873.107 1.21.32.34.213.602.517.785.91.187.39.28.86.28 1.41 0 .09-.003.18-.01.27-.003.087-.008.163-.015.23zm1.26-2.31c-.35 0-.64.125-.87.375-.227.25-.358.64-.395 1.17h2.445c-.01-.497-.117-.878-.32-1.145-.2-.267-.487-.4-.86-.4z" fill="#078605"/><path d="m119.636 159.275-.17-2.675h1.22l-.165 2.675zm1.765 0-.17-2.675h1.225l-.17 2.675z" fill="#078605"/><path d="m126.052 163.23c0-.243.087-.452.26-.625.173-.177.387-.265.64-.265.257 0 .47.088.64.265.173.173.26.382.26.625 0 .25-.087.463-.26.64-.17.177-.383.265-.64.265-.253 0-.467-.088-.64-.265s-.26-.39-.26-.64zm0-3.55c0-.163.04-.313.12-.45s.188-.245.325-.325.288-.12.455-.12c.257 0 .47.088.64.265.173.173.26.383.26.63s-.087.46-.26.64c-.17.177-.383.265-.64.265-.253 0-.467-.088-.64-.265-.173-.18-.26-.393-.26-.64z" fill="#707880"/><path d="m139.869 157.1v6.02h-1.11v-4.87l-1.52.935-.48-.785 2.12-1.3zm1.38 6.02v.88h-4.175v-.88z" fill="#0e7490"/><path d="m144.945 156.96c.774 0 1.359.312 1.755.935.397.623.595 1.505.595 2.645 0 1.143-.198 2.028-.595 2.655-.396.627-.981.94-1.755.94-.776 0-1.363-.313-1.76-.94-.393-.627-.59-1.512-.59-2.655 0-1.14.197-2.022.59-2.645.397-.623.984-.935 1.76-.935zm0 .855c-.396 0-.701.212-.915.635-.213.42-.32 1.117-.32 2.09 0 .52.022.957.065 1.31.017.126.037.243.061.351.041.192.092.355.154.489 0 0 .101.185.16.258.067.082.142.148.225.197.157.09.347.135.57.135.267 0 .492-.09.675-.27.184-.183.322-.477.415-.88.097-.403.145-.933.145-1.59 0-.683-.041-1.223-.125-1.62-.08-.4-.21-.683-.39-.85-.18-.17-.42-.255-.72-.255zm.93.235.29.785-2.015 4.113-.16-.258c-.127-.277-.154-.489-.154-.489z" fill="#0e7490"/><path d="m150.941 156.96c.774 0 1.359.312 1.755.935.397.623.595 1.505.595 2.645 0 1.143-.198 2.028-.595 2.655-.396.627-.981.94-1.755.94-.776 0-1.363-.313-1.76-.94-.393-.627-.59-1.512-.59-2.655 0-1.14.197-2.022.59-2.645.397-.623.984-.935 1.76-.935zm0 .855c-.396 0-.701.212-.915.635-.213.42-.32 1.117-.32 2.09 0 .52.022.957.065 1.31.047.35.119.63.215.84.1.21.229.362.385.455.157.09.347.135.57.135.267 0 .492-.09.675-.27.184-.183.322-.477.415-.88.097-.403.145-.933.145-1.59 0-.683-.041-1.223-.125-1.62-.08-.4-.21-.683-.39-.85-.18-.17-.42-.255-.72-.255zm.93.235.29.785-2.06 4.205-.37-.635z" fill="#0e7490"/><path d="m156.938 162.2c.263 0 .481.088.655.265.173.173.26.387.26.64 0 .15-.024.302-.07.455-.044.15-.115.335-.215.555l-.775 1.77h-.87l.49-2.03c-.12-.083-.214-.19-.28-.32-.067-.133-.1-.278-.1-.435 0-.25.086-.462.26-.635.173-.177.388-.265.645-.265z" fill="#707880"/><path d="m83.6594 175.275-.17-2.675h1.22l-.165 2.675zm1.765 0-.17-2.675h1.225l-.17 2.675z" fill="#078605"/><path d="m89.8005 177.72c.0233.36.1.655.23.885.13.227.3.393.51.5.2133.107.4466.16.7.16.26 0 .5-.04.72-.12s.4416-.193.665-.34l.485.67c-.2467.2-.535.36-.865.48s-.6834.18-1.06.18c-.5467 0-1.01-.117-1.39-.35-.3767-.233-.6634-.558-.86-.975-.1967-.417-.295-.898-.295-1.445 0-.53.0966-1.003.29-1.42.1933-.42.47-.752.83-.995.36-.247.79-.37 1.29-.37.47 0 .8733.107 1.21.32.34.213.6016.517.785.91.1866.39.28.86.28 1.41 0 .09-.0034.18-.01.27-.0034.087-.0084.163-.015.23zm1.26-2.31c-.35 0-.64.125-.87.375-.2267.25-.3584.64-.395 1.17h2.445c-.01-.497-.1167-.878-.32-1.145-.2-.267-.4867-.4-.86-.4z" fill="#078605"/><path d="m98.5066 174.58c.2 0 .38.043.54.13s.285.238.375.455c.0933.217.14.52.14.91v3.925h-.995v-3.77c0-.277-.02-.475-.06-.595-.0367-.12-.135-.18-.295-.18-.1267 0-.255.04-.385.12-.13.077-.2617.21-.395.4v4.025h-.905v-3.77c0-.277-.02-.475-.06-.595-.0367-.12-.135-.18-.295-.18-.13 0-.26.04-.39.12-.1267.077-.2567.21-.39.4v4.025h-1v-5.28h.845l.075.57c.15-.21.3133-.38.49-.51.1766-.133.39-.2.64-.2.2 0 .3816.05.545.15.1633.1.2833.275.36.525.1466-.2.3133-.362.5-.485.1866-.127.4066-.19.66-.19z" fill="#078605"/><path d="m104.898 178.705c0 .207.031.358.095.455.063.093.165.163.305.21l-.25.76c-.26-.03-.484-.102-.67-.215-.187-.113-.329-.285-.425-.515-.194.243-.439.427-.735.55-.297.123-.614.185-.95.185-.534 0-.957-.15-1.27-.45-.31-.303-.465-.7-.465-1.19 0-.557.216-.985.65-1.285.433-.3 1.053-.45 1.86-.45h.755v-.345c0-.34-.104-.585-.31-.735-.204-.15-.492-.225-.865-.225-.174 0-.384.023-.63.07-.247.043-.505.112-.775.205l-.275-.79c.33-.123.653-.213.97-.27.316-.06.61-.09.88-.09.706 0 1.233.157 1.58.47.35.313.525.747.525 1.3zm-2.29.605c.226 0 .448-.06.665-.18.216-.12.391-.288.525-.505v-1.165h-.62c-.527 0-.904.088-1.13.265-.227.173-.34.413-.34.72 0 .28.075.495.225.645.153.147.378.22.675.22z" fill="#078605"/><path d="m109.744 174.72v4.46h1.435v.82h-4.135v-.82h1.58v-3.64h-1.53v-.82zm-.78-2.585c.22 0 .396.067.53.2.136.133.205.3.205.5s-.069.368-.205.505c-.134.137-.31.205-.53.205-.214 0-.389-.068-.525-.205-.137-.137-.205-.305-.205-.505s.068-.367.205-.5c.136-.133.311-.2.525-.2z" fill="#078605"/><path d="m115.175 172.6v5.96c0 .243.073.417.22.52.15.1.343.15.58.15.153 0 .298-.017.435-.05s.27-.075.4-.125l.285.78c-.157.08-.35.15-.58.21-.227.06-.487.09-.78.09-.53 0-.943-.148-1.24-.445-.293-.3-.44-.71-.44-1.23v-5.035h-1.595v-.825z" fill="#078605"/><path d="m119.636 175.275-.17-2.675h1.22l-.165 2.675zm1.765 0-.17-2.675h1.225l-.17 2.675z" fill="#078605"/><path d="m126.052 179.23c0-.243.087-.452.26-.625.173-.177.387-.265.64-.265.257 0 .47.088.64.265.173.173.26.382.26.625 0 .25-.087.463-.26.64-.17.177-.383.265-.64.265-.253 0-.467-.088-.64-.265s-.26-.39-.26-.64zm0-3.55c0-.163.04-.313.12-.45s.188-.245.325-.325.288-.12.455-.12c.257 0 .47.088.64.265.173.173.26.383.26.63s-.087.46-.26.64c-.17.177-.383.265-.64.265-.253 0-.467-.088-.64-.265-.173-.18-.26-.393-.26-.64z" fill="#707880"/><g fill="#3a444f"><path d="m137.624 175.275-.17-2.675h1.22l-.165 2.675zm1.765 0-.17-2.675h1.225l-.17 2.675z"/><path d="m145.38 179.215c.247 0 .477-.042.69-.125.214-.087.417-.198.61-.335l.52.72c-.23.197-.51.357-.84.48-.326.12-.665.18-1.015.18-.54 0-1.001-.113-1.385-.34-.383-.23-.676-.552-.88-.965-.203-.413-.305-.895-.305-1.445 0-.537.102-1.015.305-1.435.207-.423.504-.757.89-1 .387-.247.852-.37 1.395-.37.36 0 .692.053.995.16.304.107.582.265.835.475l-.515.705c-.206-.143-.418-.252-.635-.325-.213-.077-.433-.115-.66-.115-.416 0-.758.153-1.025.46-.263.307-.395.788-.395 1.445 0 .44.06.795.18 1.065.124.267.292.462.505.585.214.12.457.18.73.18z"/><path d="m149.951 172.49v2.875c.214-.26.464-.455.75-.585.287-.133.582-.2.885-.2.497 0 .867.138 1.11.415.244.273.365.658.365 1.155v3.85h-1.12v-3.675c0-.317-.06-.543-.18-.68-.12-.14-.313-.21-.58-.21-.166 0-.326.038-.48.115-.15.073-.29.17-.42.29-.126.12-.236.248-.33.385v3.775h-1.12v-7.39z"/><path d="m154.878 180v-.8h.775v-3.685h-.775v-.795h1.63l.205 1.225c.196-.443.44-.78.73-1.01.293-.233.67-.35 1.13-.35.156 0 .296.013.42.04.126.023.251.055.375.095h-.85l-.14.87c-.384 0-.67.143-.95.43-.277.287-.495.693-.655 1.22v1.96h1.065v.8zm3.5-3.335v-1.075l.14-.87h.85l-.19 1.945z"/><path d="m163.709 174.72v4.46h1.435v.82h-4.135v-.82h1.58v-3.64h-1.53v-.82zm-.78-2.585c.22 0 .396.067.53.2.136.133.205.3.205.5s-.069.368-.205.505c-.134.137-.31.205-.53.205-.214 0-.389-.068-.525-.205-.137-.137-.205-.305-.205-.505s.068-.367.205-.5c.136-.133.311-.2.525-.2z"/><path d="m168.74 179.275c.35 0 .628-.062.835-.185.206-.127.31-.3.31-.52 0-.143-.03-.265-.09-.365-.06-.103-.18-.197-.36-.28-.18-.087-.454-.177-.82-.27-.347-.09-.652-.197-.915-.32-.26-.123-.462-.283-.605-.48-.144-.197-.215-.45-.215-.76 0-.303.085-.568.255-.795s.413-.403.73-.53c.32-.127.695-.19 1.125-.19.443 0 .83.058 1.16.175s.611.262.845.435l-.47.705c-.207-.137-.434-.248-.68-.335-.244-.087-.519-.13-.825-.13-.357 0-.614.053-.77.16-.154.107-.23.248-.23.425 0 .13.038.24.115.33.08.087.216.168.41.245.193.073.466.16.82.26.343.093.641.203.895.33.256.127.455.295.595.505.143.207.215.477.215.81 0 .38-.11.692-.33.935-.217.24-.504.418-.86.535-.354.113-.734.17-1.14.17-.49 0-.914-.07-1.27-.21-.357-.143-.657-.322-.9-.535l.595-.68c.206.167.443.303.71.41.266.103.555.155.865.155z"/><path d="m177.226 179.72c-.194.123-.425.223-.695.3s-.552.115-.845.115c-.614 0-1.08-.158-1.4-.475-.317-.32-.475-.74-.475-1.26v-2.865h-1.175v-.815h1.175v-1.18l1.12-.135v1.315h1.78l-.125.815h-1.655v2.855c0 .283.07.495.21.635.143.137.376.205.7.205.193 0 .371-.023.535-.07.163-.047.311-.107.445-.18z"/><path d="m180.927 174.58c.517 0 .952.115 1.305.345s.62.552.8.965c.183.413.275.9.275 1.46 0 .557-.093 1.045-.28 1.465-.183.417-.453.742-.81.975-.353.23-.785.345-1.295.345s-.943-.112-1.3-.335c-.353-.227-.623-.548-.81-.965-.183-.417-.275-.908-.275-1.475 0-.55.092-1.033.275-1.45.187-.417.458-.742.815-.975.357-.237.79-.355 1.3-.355zm0 .87c-.403 0-.707.155-.91.465-.203.307-.305.788-.305 1.445 0 .653.1 1.135.3 1.445.203.31.507.465.91.465s.705-.155.905-.465c.203-.31.305-.795.305-1.455 0-.65-.1-1.128-.3-1.435-.2-.31-.502-.465-.905-.465z"/><path d="m187.383 174.58c.467 0 .84.115 1.12.345.28.227.483.548.61.965.127.413.19.9.19 1.46 0 .537-.077 1.015-.23 1.435s-.382.75-.685.99c-.3.24-.673.36-1.12.36-.553 0-1-.195-1.34-.585v2.48l-1.12.125v-7.435h.975l.07.68c.2-.273.432-.478.695-.615.267-.137.545-.205.835-.205zm-.31.865c-.25 0-.47.075-.66.225s-.352.327-.485.53v2.47c.127.19.277.337.45.44.177.1.375.15.595.15.377 0 .663-.152.86-.455s.295-.787.295-1.45c0-.45-.04-.815-.12-1.095-.077-.283-.193-.49-.35-.62-.153-.13-.348-.195-.585-.195z"/><path d="m191.924 172.49v2.875c.213-.26.463-.455.75-.585.287-.133.582-.2.885-.2.497 0 .867.138 1.11.415.243.273.365.658.365 1.155v3.85h-1.12v-3.675c0-.317-.06-.543-.18-.68-.12-.14-.313-.21-.58-.21-.167 0-.327.038-.48.115-.15.073-.29.17-.42.29-.127.12-.237.248-.33.385v3.775h-1.12v-7.39z"/><path d="m197.73 177.72c.023.36.1.655.23.885.13.227.3.393.51.5.213.107.447.16.7.16.26 0 .5-.04.72-.12s.442-.193.665-.34l.485.67c-.247.2-.535.36-.865.48s-.683.18-1.06.18c-.547 0-1.01-.117-1.39-.35-.377-.233-.663-.558-.86-.975s-.295-.898-.295-1.445c0-.53.097-1.003.29-1.42.193-.42.47-.752.83-.995.36-.247.79-.37 1.29-.37.47 0 .873.107 1.21.32.34.213.602.517.785.91.187.39.28.86.28 1.41 0 .09-.003.18-.01.27-.003.087-.008.163-.015.23zm1.26-2.31c-.35 0-.64.125-.87.375-.227.25-.358.64-.395 1.17h2.445c-.01-.497-.117-.878-.32-1.145-.2-.267-.487-.4-.86-.4z"/><path d="m204.756 172.96c.5 0 .927.073 1.28.22.354.143.645.345.875.605.234.257.415.56.545.91s.222.73.275 1.14c.054.41.08.835.08 1.275 0 .84-.04 1.543-.12 2.11-.08.563-.23.987-.45 1.27-.216.287-.53.43-.94.43-.2 0-.375-.045-.525-.135-.146-.09-.268-.207-.365-.35-.093-.14-.165-.292-.215-.455-.046-.167-.073-.323-.08-.47h-.04c-.066.16-.158.313-.275.46-.116.147-.265.267-.445.36s-.4.14-.66.14c-.373 0-.673-.1-.9-.3-.226-.197-.391-.468-.495-.815-.103-.347-.155-.738-.155-1.175 0-.85.174-1.498.52-1.945.347-.45.849-.675 1.505-.675.247 0 .49.03.73.09.244.057.505.16.785.31v2.97c0 .317.025.562.075.735s.119.293.205.36c.09.067.192.1.305.1.134 0 .237-.068.31-.205.077-.137.132-.333.165-.59.034-.26.054-.573.06-.94.007-.367.01-.78.01-1.24 0-.493-.028-.945-.085-1.355-.053-.413-.155-.77-.305-1.07-.146-.3-.356-.532-.63-.695-.273-.163-.628-.245-1.065-.245-.336 0-.691.063-1.065.19-.37.127-.76.37-1.17.73l-.54-.625c.454-.393.912-.678 1.375-.855.467-.177.942-.265 1.425-.265zm-.57 3.36c-.383 0-.645.15-.785.45-.14.297-.21.767-.21 1.41 0 .32.02.593.06.82s.11.4.21.52.235.18.405.18c.204 0 .362-.047.475-.14.114-.093.199-.203.255-.33.057-.13.1-.243.13-.34v-2.44c-.09-.047-.176-.08-.26-.1-.083-.02-.176-.03-.28-.03z"/><path d="m209.912 172.49v2.875c.214-.26.464-.455.75-.585.287-.133.582-.2.885-.2.497 0 .867.138 1.11.415.244.273.365.658.365 1.155v3.85h-1.12v-3.675c0-.317-.06-.543-.18-.68-.12-.14-.313-.21-.58-.21-.166 0-.326.038-.48.115-.15.073-.29.17-.42.29-.126.12-.236.248-.33.385v3.775h-1.12v-7.39z"/><path d="m215.908 174.72v3.69c0 .313.062.537.185.67.127.133.317.2.57.2.24 0 .472-.072.695-.215.224-.143.4-.318.53-.525v-3.82h1.12v5.28h-.965l-.07-.675c-.196.263-.445.465-.745.605-.3.137-.606.205-.92.205-.51 0-.891-.14-1.145-.42-.25-.283-.375-.672-.375-1.165v-3.83z"/><path d="m220.785 180v-5.28h.965l.085.685c.22-.27.48-.475.78-.615s.608-.21.925-.21c.493 0 .861.138 1.105.415.246.273.37.658.37 1.155v3.85h-1.12v-3.295c0-.307-.019-.553-.055-.74-.037-.187-.11-.322-.22-.405-.107-.083-.267-.125-.48-.125-.17 0-.332.037-.485.11-.154.073-.294.17-.42.29-.127.117-.237.242-.33.375v3.79z"/><path d="m231.191 179.72c-.194.123-.425.223-.695.3s-.552.115-.845.115c-.614 0-1.08-.158-1.4-.475-.317-.32-.475-.74-.475-1.26v-2.865h-1.175v-.815h1.175v-1.18l1.12-.135v1.315h1.78l-.125.815h-1.655v2.855c0 .283.07.495.21.635.143.137.376.205.7.205.193 0 .371-.023.535-.07.163-.047.311-.107.445-.18z"/><path d="m233.707 177.72c.023.36.1.655.23.885.13.227.3.393.51.5.213.107.446.16.7.16.26 0 .5-.04.72-.12s.441-.193.665-.34l.485.67c-.247.2-.535.36-.865.48s-.684.18-1.06.18c-.547 0-1.01-.117-1.39-.35-.377-.233-.664-.558-.86-.975-.197-.417-.295-.898-.295-1.445 0-.53.096-1.003.29-1.42.193-.42.47-.752.83-.995.36-.247.79-.37 1.29-.37.47 0 .873.107 1.21.32.34.213.601.517.785.91.186.39.28.86.28 1.41 0 .09-.004.18-.01.27-.004.087-.009.163-.015.23zm1.26-2.31c-.35 0-.64.125-.87.375-.227.25-.359.64-.395 1.17h2.445c-.01-.497-.117-.878-.32-1.145-.2-.267-.487-.4-.86-.4z"/><path d="m238.823 180v-.8h.775v-3.685h-.775v-.795h1.63l.205 1.225c.196-.443.44-.78.73-1.01.293-.233.67-.35 1.13-.35.156 0 .296.013.42.04.126.023.251.055.375.095h-.85l-.14.866c-.384 0-.67.147-.95.434-.277.287-.495.693-.655 1.22v1.96h1.065v.8zm3.5-3.335v-1.079l.14-.866h.85l-.19 1.945z"/><path d="m245.909 179.165c0-.18.042-.342.125-.485.087-.147.203-.263.35-.35s.31-.13.49-.13c.183 0 .348.043.495.13s.262.203.345.35c.087.143.13.305.13.485 0 .177-.043.34-.13.49-.083.147-.198.263-.345.35s-.312.13-.495.13c-.18 0-.343-.043-.49-.13s-.263-.203-.35-.35c-.083-.15-.125-.313-.125-.49z"/><path d="m253.65 174.72v4.46h1.435v.82h-4.135v-.82h1.58v-3.64h-1.53v-.82zm-.78-2.585c.22 0 .397.067.53.2.137.133.205.3.205.5s-.068.368-.205.505c-.133.137-.31.205-.53.205-.213 0-.388-.068-.525-.205s-.205-.305-.205-.505.068-.367.205-.5.312-.2.525-.2z"/><path d="m258.876 174.58c.517 0 .952.115 1.305.345s.62.552.8.965c.183.413.275.9.275 1.46 0 .557-.093 1.045-.28 1.465-.183.417-.453.742-.81.975-.353.23-.785.345-1.295.345s-.943-.112-1.3-.335c-.353-.227-.623-.548-.81-.965-.183-.417-.275-.908-.275-1.475 0-.55.092-1.033.275-1.45.187-.417.458-.742.815-.975.357-.237.79-.355 1.3-.355zm0 .87c-.403 0-.707.155-.91.465-.203.307-.305.788-.305 1.445 0 .653.1 1.135.3 1.445.203.31.507.465.91.465s.705-.155.905-.465c.203-.31.305-.795.305-1.455 0-.65-.1-1.128-.3-1.435-.2-.31-.502-.465-.905-.465z"/><path d="m263.542 175.275-.17-2.675h1.22l-.165 2.675zm1.765 0-.17-2.675h1.225l-.17 2.675z"/></g><path d="m270.863 178.2c.264 0 .482.088.655.265.174.173.26.387.26.64 0 .15-.023.302-.07.455-.043.15-.115.335-.215.555l-.775 1.77h-.87l.49-2.03c-.12-.083-.213-.19-.28-.32-.066-.133-.1-.278-.1-.435 0-.25.087-.462.26-.635.174-.177.389-.265.645-.265z" fill="#707880"/><path d="m83.6594 191.275-.17-2.675h1.22l-.165 2.675zm1.765 0-.17-2.675h1.225l-.17 2.675z" fill="#078605"/><path d="m88.9205 196v-.8h.775v-3.685h-.775v-.795h1.63l.205 1.225c.1966-.443.44-.78.73-1.01.2933-.233.67-.35 1.13-.35.1566 0 .2966.013.42.04.1266.023.2516.055.375.095l-.335.96c-.1067-.03-.2067-.052-.3-.065-.0934-.017-.1967-.025-.31-.025-.3834 0-.715.143-.995.43-.2767.287-.495.693-.655 1.22v1.96h1.065v.8zm3.5-3.335v-1.3l.14-.645h.85l-.19 1.945z" fill="#078605"/><path d="m95.7966 193.72c.0233.36.1.655.23.885.13.227.3.393.51.5.2133.107.4466.16.7.16.26 0 .5-.04.72-.12s.4416-.193.665-.34l.485.67c-.2467.2-.535.36-.865.48s-.6834.18-1.06.18c-.5467 0-1.01-.117-1.39-.35-.3767-.233-.6634-.558-.86-.975-.1967-.417-.295-.898-.295-1.445 0-.53.0966-1.003.29-1.42.1933-.42.47-.752.83-.995.36-.247.79-.37 1.29-.37.47 0 .8733.107 1.21.32.34.213.6016.517.785.91.1866.39.28.86.28 1.41 0 .09-.0034.18-.01.27-.0034.087-.0084.163-.015.23zm1.26-2.31c-.35 0-.64.125-.87.375-.2267.25-.3584.64-.395 1.17h2.445c-.01-.497-.1167-.878-.32-1.145-.2-.267-.4867-.4-.86-.4z" fill="#078605"/><path d="m105.308 190.05.3.93c-.21.07-.442.117-.695.14-.25.023-.53.035-.84.035.316.14.555.32.715.54.16.217.24.483.24.8 0 .343-.084.65-.25.92-.167.27-.405.482-.715.635s-.682.23-1.115.23c-.154 0-.287-.007-.4-.02-.11-.013-.219-.035-.325-.065-.067.047-.124.11-.17.19-.044.077-.065.158-.065.245 0 .107.043.2.13.28.09.077.266.115.53.115h.92c.376 0 .708.065.995.195.29.127.516.302.68.525.166.22.25.47.25.75 0 .527-.227.935-.68 1.225-.454.29-1.107.435-1.96.435-.604 0-1.077-.062-1.42-.185-.344-.123-.585-.307-.725-.55s-.21-.542-.21-.895h1.005c0 .183.035.335.105.455.073.12.208.21.405.27.196.06.48.09.85.09s.663-.032.88-.095c.22-.06.378-.148.475-.265.1-.113.15-.25.15-.41 0-.213-.094-.378-.28-.495-.187-.117-.437-.175-.75-.175h-.905c-.5 0-.867-.102-1.1-.305-.23-.203-.345-.44-.345-.71 0-.18.05-.353.15-.52.103-.167.25-.312.44-.435-.317-.167-.549-.368-.695-.605-.144-.24-.215-.53-.215-.87 0-.373.093-.7.28-.98.186-.28.445-.498.775-.655.333-.157.716-.235 1.15-.235.423 0 .776-.022 1.06-.065.283-.047.53-.112.74-.195.213-.083.425-.175.635-.275zm-2.425 1.305c-.357 0-.625.102-.805.305-.18.2-.27.462-.27.785 0 .333.091.602.275.805.186.2.458.3.815.3.33 0 .581-.097.755-.29.176-.193.265-.468.265-.825 0-.36-.087-.63-.26-.81-.174-.18-.432-.27-.775-.27z" fill="#078605"/><path d="m107.789 193.72c.023.36.1.655.23.885.13.227.3.393.51.5.213.107.446.16.7.16.26 0 .5-.04.72-.12s.441-.193.665-.34l.485.67c-.247.2-.535.36-.865.48s-.684.18-1.06.18c-.547 0-1.01-.117-1.39-.35-.377-.233-.664-.558-.86-.975-.197-.417-.295-.898-.295-1.445 0-.53.096-1.003.29-1.42.193-.42.47-.752.83-.995.36-.247.79-.37 1.29-.37.47 0 .873.107 1.21.32.34.213.601.517.785.91.186.39.28.86.28 1.41 0 .09-.004.18-.01.27-.004.087-.009.163-.015.23zm1.26-2.31c-.35 0-.64.125-.87.375-.227.25-.359.64-.395 1.17h2.445c-.01-.497-.117-.878-.32-1.145-.2-.267-.487-.4-.86-.4z" fill="#078605"/><path d="m113.635 196h-1.24l1.895-2.785-1.685-2.495h1.29l1.08 1.86 1.08-1.86h1.23l-1.65 2.45 1.9 2.83h-1.315l-1.295-2.155z" fill="#078605"/><path d="m121.426 190.58c.467 0 .84.115 1.12.345.28.227.483.548.61.965.127.413.19.9.19 1.46 0 .537-.077 1.015-.23 1.435s-.382.75-.685.99c-.3.24-.673.36-1.12.36-.553 0-1-.195-1.34-.585v2.48l-1.12.125v-7.435h.975l.07.68c.2-.273.432-.478.695-.615.267-.137.545-.205.835-.205zm-.31.865c-.25 0-.47.075-.66.225s-.352.327-.485.53v2.47c.127.19.277.337.45.44.177.1.375.15.595.15.377 0 .663-.152.86-.455s.295-.787.295-1.45c0-.45-.04-.815-.12-1.095-.077-.283-.193-.49-.35-.62-.153-.13-.348-.195-.585-.195z" fill="#078605"/><path d="m125.632 191.275-.17-2.675h1.22l-.165 2.675zm1.765 0-.17-2.675h1.225l-.17 2.675z" fill="#078605"/><path d="m132.048 195.23c0-.243.087-.452.26-.625.173-.177.387-.265.64-.265.257 0 .47.088.64.265.173.173.26.382.26.625 0 .25-.087.463-.26.64-.17.177-.383.265-.64.265-.253 0-.467-.088-.64-.265s-.26-.39-.26-.64zm0-3.55c0-.163.04-.313.12-.45s.188-.245.325-.325.288-.12.455-.12c.257 0 .47.088.64.265.173.173.26.383.26.63s-.087.46-.26.64c-.17.177-.383.265-.64.265-.253 0-.467-.088-.64-.265-.173-.18-.26-.393-.26-.64z" fill="#707880"/><path d="m147.245 195.72c-.193.123-.425.223-.695.3s-.551.115-.845.115c-.613 0-1.08-.158-1.4-.475-.316-.32-.475-.74-.475-1.26v-2.865h-1.175v-.815h1.175v-1.18l1.12-.135v1.315h1.78l-.125.815h-1.655v2.855c0 .283.07.495.21.635.144.137.377.205.7.205.194 0 .372-.023.535-.07.164-.047.312-.107.445-.18z" fill="#0e7490"/><path d="m148.881 196v-.8h.775v-3.685h-.775v-.795h1.63l.205 1.225c.197-.443.44-.78.73-1.01.294-.233.67-.35 1.13-.35.157 0 .297.013.42.04.127.023.252.055.375.095h-.85l-.14.87c-.383 0-.67.143-.95.43-.276.287-.495.693-.655 1.22v1.96h1.065v.8zm3.5-3.335v-1.075l.14-.87h.85l-.19 1.945z" fill="#0e7490"/><path d="m155.948 190.72v3.69c0 .313.061.537.185.67.126.133.316.2.57.2.24 0 .471-.072.695-.215.223-.143.4-.318.53-.525v-3.82h1.12v5.28h-.965l-.07-.675c-.197.263-.445.465-.745.605-.3.137-.607.205-.92.205-.51 0-.892-.14-1.145-.42-.25-.283-.375-.672-.375-1.165v-3.83z" fill="#0e7490"/><path d="m161.754 193.72c.023.36.1.655.23.885.13.227.3.393.51.5.213.107.446.16.7.16.26 0 .5-.04.72-.12s.441-.193.665-.34l.485.67c-.247.2-.535.36-.865.48s-.684.18-1.06.18c-.547 0-1.01-.117-1.39-.35-.377-.233-.664-.558-.86-.975-.197-.417-.295-.898-.295-1.445 0-.53.096-1.003.29-1.42.193-.42.47-.752.83-.995.36-.247.79-.37 1.29-.37.47 0 .873.107 1.21.32.34.213.601.517.785.91.186.39.28.86.28 1.41 0 .09-.004.18-.01.27-.004.087-.009.163-.015.23zm1.26-2.31c-.35 0-.64.125-.87.375-.227.25-.359.64-.395 1.17h2.445c-.01-.497-.117-.878-.32-1.145-.2-.267-.487-.4-.86-.4z" fill="#0e7490"/><path d="m168.93 194.2c.263 0 .481.088.655.265.173.173.26.387.26.64 0 .15-.024.302-.07.455-.044.15-.115.335-.215.555l-.775 1.77h-.87l.49-2.03c-.12-.083-.214-.19-.28-.32-.067-.133-.1-.278-.1-.435 0-.25.086-.462.26-.635.173-.177.388-.265.645-.265z" fill="#707880"/><path d="m43.815 109.11v6.69h-.955v-5.68l-1.555.95-.415-.68 2.08-1.28zm1.415 6.12v.77h-4.06v-.77zm-2.525 9.755c.45 0 .8333.085 1.15.255s.5583.402.725.695.25.622.25.985c0 .31-.0533.613-.16.91s-.28.608-.52.935c-.2367.323-.5483.683-.935 1.08s-.86.85-1.42 1.36h3.195l-.115.795h-4.175v-.755c.5067-.487.94-.913 1.3-1.28.3633-.37.6633-.695.9-.975s.4233-.532.56-.755c.1367-.227.2317-.44.285-.64.0567-.203.085-.413.085-.63 0-.37-.105-.662-.315-.875-.2067-.213-.495-.32-.865-.32-.33 0-.6017.058-.815.175-.21.113-.4217.298-.635.555l-.64-.495c.27-.337.575-.59.915-.76.34-.173.75-.26 1.23-.26zm-.015 16c.4433 0 .825.078 1.145.235.3233.157.5717.367.745.63.1767.263.265.552.265.865 0 .28-.0617.533-.185.76-.12.223-.2833.408-.49.555-.2033.147-.43.247-.68.3.2767.023.5333.102.77.235.24.13.4333.317.58.56.15.24.225.538.225.895 0 .397-.1017.755-.305 1.075-.2.317-.4833.568-.85.755-.3667.183-.7933.275-1.28.275-.4067 0-.8033-.077-1.19-.23-.3833-.153-.71-.39-.98-.71l.62-.52c.1967.23.4283.402.695.515.2667.11.54.165.82.165.4567 0 .815-.118 1.075-.355.2633-.24.395-.568.395-.985 0-.317-.06-.567-.18-.75-.1167-.183-.28-.315-.49-.395-.2067-.08-.445-.12-.715-.12h-.585l.115-.73h.41c.22 0 .4267-.042.62-.125s.35-.21.47-.38c.12-.173.18-.39.18-.65 0-.36-.1217-.635-.365-.825-.2433-.193-.54-.29-.89-.29-.2933 0-.5517.053-.775.16-.2233.103-.4467.26-.67.47l-.52-.57c.2967-.28.615-.485.955-.615.34-.133.695-.2 1.065-.2zm-.01 16 .805.33-1.8 4.29h3.64v.755h-4.65v-.68zm1.785 2.715v4.3h-.925l-.005-2.235.13-2.065zm.45 13.41-.135.74h-2.69v2.065c.2067-.107.4017-.18.585-.22.1867-.043.38-.065.58-.065.3733 0 .7017.085.985.255s.505.418.665.745c.16.323.24.715.24 1.175s-.0983.865-.295 1.215c-.1967.347-.475.618-.835.815-.3567.193-.7767.29-1.26.29-.43 0-.8117-.077-1.145-.23s-.6333-.365-.9-.635l.58-.555c.2033.213.4233.373.66.48.24.107.5033.16.79.16.44 0 .7833-.133 1.03-.4.25-.267.375-.652.375-1.155 0-.36-.0533-.643-.16-.85-.1033-.207-.245-.353-.425-.44-.18-.09-.3817-.135-.605-.135-.19 0-.3633.02-.52.06-.1533.037-.3267.093-.52.17h-.74v-3.485zm-1.535 15.875c.27 0 .52.037.75.11.23.07.4417.17.635.3l-.375.635c-.1533-.097-.3167-.168-.49-.215-.17-.05-.3467-.075-.53-.075-.35 0-.65.117-.9.35-.2467.23-.435.558-.565.985s-.1933.93-.19 1.51l.01.35c0 .837.1033 1.452.31 1.845.21.393.5583.59 1.045.59.4133 0 .7217-.15.925-.45.2067-.3.31-.703.31-1.21 0-.367-.0483-.657-.145-.87-.0933-.213-.2267-.365-.4-.455-.17-.093-.37-.14-.6-.14-.3333 0-.6317.098-.895.295-.26.197-.4733.453-.64.77l-.02-.785c.2267-.367.4833-.63.77-.79.29-.163.61-.245.96-.245.3567 0 .6817.08.975.24s.5283.403.705.73c.18.323.27.73.27 1.22 0 .5-.0983.933-.295 1.3-.1933.363-.4583.645-.795.845-.3333.2-.7083.3-1.125.3-.4267 0-.7883-.08-1.085-.24-.2967-.163-.5367-.392-.72-.685-.1833-.297-.3183-.652-.405-1.065-.0833-.413-.125-.87-.125-1.37 0-.763.105-1.428.315-1.995s.51-1.005.9-1.315c.3933-.313.8667-.47 1.42-.47zm-1.02 23.12-.9-.275 2.665-5.945h-3.2v-.775h4.17v.71z" fill="#a1a7ad"/><path d="m28.25 96.25h383.5v.5h-383.5z" fill="#dfe3e8" stroke="#dfe3e8" stroke-width=".5"/><path d="m45.415 38.065c0 .3433-.0733.6417-.22.895-.1433.2533-.3383.465-.585.635-.2467.1667-.5233.29-.83.37l2.005 3.035h-1.175l-1.815-2.905h-.855v2.905h-.995v-6.89h1.835c.8667 0 1.5217.165 1.965.495.4467.3267.67.8133.67 1.46zm-1.055 0c0-.4233-.1233-.7283-.37-.915-.2433-.1867-.6183-.28-1.125-.28h-.925v2.47h.935c.4733 0 .8383-.0967 1.095-.29.26-.1967.39-.525.39-.985z" fill="#3a444f"/><path d="m48.1911 36.89v2.215h2.53v.785h-2.53v2.335h3.095v.775h-4.09v-6.89h4.015l-.115.78z" fill="#3a444f"/><path d="m57.5622 39.56c0 .48-.0467.9233-.14 1.33-.09.4067-.24.765-.45 1.075-.2067.3067-.4867.5567-.84.75.33.0633.6117.1583.845.285.2333.1233.43.2933.59.51.1633.22.3017.5017.415.845l-.98.375c-.14-.3533-.2983-.6517-.475-.895-.1733-.24-.39-.4233-.65-.55-.26-.1233-.5883-.185-.985-.185-.5367 0-.9883-.145-1.355-.435s-.6433-.7-.83-1.23-.28-1.1517-.28-1.865c0-.7033.095-1.3233.285-1.86.1933-.54.48-.9617.86-1.265.3833-.3067.8567-.46 1.42-.46.57 0 1.045.1483 1.425.445s.665.7133.855 1.25c.1933.5333.29 1.16.29 1.88zm-1.03 0c0-.9067-.1183-1.595-.355-2.065s-.6317-.705-1.185-.705c-.55 0-.9433.2367-1.18.71-.2367.47-.355 1.16-.355 2.07 0 .9033.1217 1.5883.365 2.055.2467.4633.6367.695 1.17.695.55 0 .9433-.2333 1.18-.7.24-.4667.36-1.1533.36-2.06z" fill="#3a444f"/><path d="m63.3133 36.11v4.645c0 .4667-.095.8783-.285 1.235-.1867.3533-.455.6317-.805.835-.3467.2-.7617.3-1.245.3-.4867 0-.9033-.1-1.25-.3s-.6117-.4783-.795-.835c-.18-.3567-.27-.7683-.27-1.235v-4.645h.99v4.57c0 .54.1117.945.335 1.215s.5533.405.99.405c.4433 0 .7767-.135 1-.405s.335-.675.335-1.215v-4.57z" fill="#3a444f"/><path d="m66.1794 36.89v2.215h2.53v.785h-2.53v2.335h3.095v.775h-4.09v-6.89h4.015l-.115.78z" fill="#3a444f"/><path d="m75.3955 41.075c0 .4-.1017.755-.305 1.065-.2.3067-.49.5483-.87.725-.38.1733-.8434.26-1.39.26-.5267 0-.9967-.08-1.41-.24-.4134-.16-.765-.38-1.055-.66l.565-.635c.24.2233.515.4.825.53s.6716.195 1.085.195c.27 0 .52-.0433.75-.13.2333-.09.42-.2233.56-.4.1433-.18.215-.405.215-.675 0-.2167-.0434-.4-.13-.55-.0834-.15-.2317-.2833-.445-.4-.2134-.1167-.5117-.2317-.895-.345-.4667-.14-.8667-.295-1.2-.465-.33-.1733-.5834-.385-.76-.635-.1734-.25-.26-.5567-.26-.92 0-.3567.0983-.67.295-.94.1966-.2733.4666-.4867.81-.64.3466-.1533.7416-.23 1.185-.23.4833 0 .905.07 1.265.21.3633.1367.69.335.98.595l-.55.62c-.2434-.2167-.5067-.3733-.79-.47-.2834-.1-.57-.15-.86-.15-.2434 0-.465.0367-.665.11-.2.07-.36.175-.48.315-.1167.14-.175.3183-.175.535 0 .19.0516.3533.155.49.1033.1333.2783.2583.525.375.2466.1133.5816.2333 1.005.36.37.1067.7083.24 1.015.4.3066.16.55.375.73.645.1833.2667.275.6183.275 1.055z" fill="#3a444f"/><path d="m79.4566 36.935v6.065h-.99v-6.065h-2.12v-.825h5.265l-.105.825z" fill="#3a444f"/><path d="m366.705 35.985c.45 0 .833.085 1.15.255s.558.4017.725.695.25.6217.25.985c0 .31-.053.6133-.16.91s-.28.6083-.52.935c-.237.3233-.548.6833-.935 1.08s-.86.85-1.42 1.36h3.195l-.115.795h-4.175v-.755c.507-.4867.94-.9133 1.3-1.28.363-.37.663-.695.9-.975s.423-.5317.56-.755c.137-.2267.232-.44.285-.64.057-.2033.085-.4133.085-.63 0-.37-.105-.6617-.315-.875-.207-.2133-.495-.32-.865-.32-.33 0-.602.0583-.815.175-.21.1133-.422.2983-.635.555l-.64-.495c.27-.3367.575-.59.915-.76.34-.1733.75-.26 1.23-.26z" fill="#078605"/><path d="m372.996 35.985c.757 0 1.328.31 1.715.93.387.6167.58 1.495.58 2.635 0 1.1433-.193 2.025-.58 2.645s-.958.93-1.715.93-1.328-.31-1.715-.93-.58-1.5017-.58-2.645c0-1.14.193-2.0183.58-2.635.387-.62.958-.93 1.715-.93zm0 .755c-.41 0-.732.2183-.965.655-.23.4367-.345 1.155-.345 2.155 0 .5167.025.955.075 1.315s.127.65.23.87c.107.22.243.3817.41.485.167.1.365.15.595.15.277 0 .513-.095.71-.285s.345-.4933.445-.91c.103-.4167.155-.9583.155-1.625 0-.6867-.045-1.235-.135-1.645-.087-.4133-.227-.71-.42-.89-.193-.1833-.445-.275-.755-.275zm.98.24.25.755-2.135 4.335-.335-.605z" fill="#078605"/><path d="m378.992 35.985c.757 0 1.329.31 1.715.93.387.6167.58 1.495.58 2.635 0 1.1433-.193 2.025-.58 2.645-.386.62-.958.93-1.715.93-.756 0-1.328-.31-1.715-.93-.386-.62-.58-1.5017-.58-2.645 0-1.14.194-2.0183.58-2.635.387-.62.959-.93 1.715-.93zm0 .755c-.41 0-.731.2183-.965.655-.23.4367-.345 1.155-.345 2.155 0 .5167.025.955.075 1.315s.127.65.23.87c.107.22.244.3817.41.485.167.1.365.15.595.15.277 0 .514-.095.71-.285.197-.19.345-.4933.445-.91.104-.4167.155-.9583.155-1.625 0-.6867-.045-1.235-.135-1.645-.086-.4133-.226-.71-.42-.89-.193-.1833-.445-.275-.755-.275zm.98.24.25.755-2.135 4.335-.335-.605z" fill="#078605"/><path d="m393.559 39.56c0 .7-.096 1.3183-.29 1.855-.193.5367-.481.9567-.865 1.26-.38.3-.853.45-1.42.45-.563 0-1.036-.1467-1.42-.44-.383-.2967-.671-.7117-.865-1.245-.193-.5333-.29-1.1567-.29-1.87 0-.7033.097-1.3233.29-1.86.194-.54.482-.9617.865-1.265.384-.3067.857-.46 1.42-.46.567 0 1.04.1483 1.42.445.384.2967.672.7133.865 1.25.194.5333.29 1.16.29 1.88zm-1.035 0c0-.9067-.12-1.595-.36-2.065-.236-.47-.63-.705-1.18-.705s-.945.2367-1.185.71c-.236.4733-.355 1.1633-.355 2.07 0 .9033.124 1.5883.37 2.055.247.4633.637.695 1.17.695.55 0 .944-.2333 1.18-.7.24-.4667.36-1.1533.36-2.06z" fill="#078605"/><path d="m395.945 43h-.99v-6.89h.99zm.05-3.68 2.58-3.21h1.115l-2.57 3.145 2.76 3.745h-1.21z" fill="#078605"/><path d="m45.415 79.065c0 .3433-.0733.6417-.22.895-.1433.2533-.3383.465-.585.635-.2467.1667-.5233.29-.83.37l2.005 3.035h-1.175l-1.815-2.905h-.855v2.905h-.995v-6.89h1.835c.8667 0 1.5217.165 1.965.495.4467.3267.67.8133.67 1.46zm-1.055 0c0-.4233-.1233-.7283-.37-.915-.2433-.1867-.6183-.28-1.125-.28h-.925v2.47h.935c.4733 0 .8383-.0967 1.095-.29.26-.1967.39-.525.39-.985z" fill="#3a444f"/><path d="m48.1911 77.89v2.215h2.53v.785h-2.53v2.335h3.095v.775h-4.09v-6.89h4.015l-.115.78z" fill="#3a444f"/><path d="m57.4072 82.075c0 .4-.1017.755-.305 1.065-.2.3067-.49.5483-.87.725-.38.1733-.8433.26-1.39.26-.5267 0-.9967-.08-1.41-.24s-.765-.38-1.055-.66l.565-.635c.24.2233.515.4.825.53s.6717.195 1.085.195c.27 0 .52-.0433.75-.13.2333-.09.42-.2233.56-.4.1433-.18.215-.405.215-.675 0-.2167-.0433-.4-.13-.55-.0833-.15-.2317-.2833-.445-.4s-.5117-.2317-.895-.345c-.4667-.14-.8667-.295-1.2-.465-.33-.1733-.5833-.385-.76-.635-.1733-.25-.26-.5567-.26-.92 0-.3567.0983-.67.295-.94.1967-.2733.4667-.4867.81-.64.3467-.1533.7417-.23 1.185-.23.4833 0 .905.07 1.265.21.3633.1367.69.335.98.595l-.55.62c-.2433-.2167-.5067-.3733-.79-.47-.2833-.1-.57-.15-.86-.15-.2433 0-.465.0367-.665.11-.2.07-.36.175-.48.315-.1167.14-.175.3183-.175.535 0 .19.0517.3533.155.49.1033.1333.2783.2583.525.375.2467.1133.5817.2333 1.005.36.37.1067.7083.24 1.015.4s.55.375.73.645c.1833.2667.275.6183.275 1.055z" fill="#3a444f"/><path d="m62.5383 79.255c0-.34-.0667-.61-.2-.81-.1333-.2033-.3167-.3483-.55-.435-.2333-.09-.5033-.135-.81-.135h-.925v2.83h.91c.3067 0 .5783-.0433.815-.13s.4217-.235.555-.445c.1367-.2133.205-.505.205-.875zm1.05-.01c0 .5367-.115.97-.345 1.3-.2267.3267-.5417.565-.945.715-.4.15-.8617.225-1.385.225h-.86v2.515h-.995v-6.89h1.825c.84 0 1.5.175 1.98.525.4833.3467.725.8833.725 1.61z" fill="#3a444f"/><path d="m69.5594 80.56c0 .7-.0967 1.3183-.29 1.855-.1934.5367-.4817.9567-.865 1.26-.38.3-.8534.45-1.42.45-.5634 0-1.0367-.1467-1.42-.44-.3834-.2967-.6717-.7117-.865-1.245-.1934-.5333-.29-1.1567-.29-1.87 0-.7033.0966-1.3233.29-1.86.1933-.54.4816-.9617.865-1.265.3833-.3067.8566-.46 1.42-.46.5666 0 1.04.1483 1.42.445.3833.2967.6716.7133.865 1.25.1933.5333.29 1.16.29 1.88zm-1.035 0c0-.9067-.12-1.595-.36-2.065-.2367-.47-.63-.705-1.18-.705s-.945.2367-1.185.71c-.2367.4733-.355 1.1633-.355 2.07 0 .9033.1233 1.5883.37 2.055.2466.4633.6366.695 1.17.695.55 0 .9433-.2333 1.18-.7.24-.4667.36-1.1533.36-2.06z" fill="#3a444f"/><path d="m73.8555 84-2.325-5.975c.0066.0867.0166.2217.03.405.0133.1833.0283.3983.045.645.0166.2467.03.5083.04.785.0133.2767.02.5517.02.825v3.315h-.9v-6.89h1.315l2.35 5.99c-.0067-.1133-.0217-.3017-.045-.565-.0234-.2667-.045-.5817-.065-.945-.0167-.3667-.025-.755-.025-1.165v-3.315h.9v6.89z" fill="#3a444f"/><path d="m81.3916 82.075c0 .4-.1017.755-.305 1.065-.2.3067-.49.5483-.87.725-.38.1733-.8434.26-1.39.26-.5267 0-.9967-.08-1.41-.24-.4134-.16-.765-.38-1.055-.66l.565-.635c.24.2233.515.4.825.53s.6716.195 1.085.195c.27 0 .52-.0433.75-.13.2333-.09.42-.2233.56-.4.1433-.18.215-.405.215-.675 0-.2167-.0434-.4-.13-.55-.0834-.15-.2317-.2833-.445-.4-.2134-.1167-.5117-.2317-.895-.345-.4667-.14-.8667-.295-1.2-.465-.33-.1733-.5834-.385-.76-.635-.1734-.25-.26-.5567-.26-.92 0-.3567.0983-.67.295-.94.1966-.2733.4666-.4867.81-.64.3466-.1533.7416-.23 1.185-.23.4833 0 .905.07 1.265.21.3633.1367.69.335.98.595l-.55.62c-.2434-.2167-.5067-.3733-.79-.47-.2834-.1-.57-.15-.86-.15-.2434 0-.465.0367-.665.11-.2.07-.36.175-.48.315-.1167.14-.175.3183-.175.535 0 .19.0516.3533.155.49.1033.1333.2783.2583.525.375.2466.1133.5816.2333 1.005.36.37.1067.7083.24 1.015.4.3066.16.55.375.73.645.1833.2667.275.6183.275 1.055z" fill="#3a444f"/><path d="m84.1677 77.89v2.215h2.53v.785h-2.53v2.335h3.095v.775h-4.09v-6.89h4.015l-.115.78z" fill="#3a444f"/><g fill="#707880"><path d="m381.015 77.11v4.57c0 .3067-.042.6067-.125.9-.083.29-.22.5517-.41.785-.187.23-.435.4133-.745.55-.307.1367-.687.205-1.14.205-.357 0-.697-.0533-1.02-.16-.323-.11-.625-.2667-.905-.47l.425-.645c.29.1833.555.3083.795.375.24.0633.467.095.68.095.46 0 .817-.1467 1.07-.44.257-.2967.385-.7083.385-1.235v-3.745h-2.055v-.785z"/><path d="m387.411 82.075c0 .4-.102.755-.305 1.065-.2.3067-.49.5483-.87.725-.38.1733-.843.26-1.39.26-.527 0-.997-.08-1.41-.24s-.765-.38-1.055-.66l.565-.635c.24.2233.515.4.825.53s.672.195 1.085.195c.27 0 .52-.0433.75-.13.233-.09.42-.2233.56-.4.143-.18.215-.405.215-.675 0-.2167-.043-.4-.13-.55-.083-.15-.232-.2833-.445-.4s-.512-.2317-.895-.345c-.467-.14-.867-.295-1.2-.465-.33-.1733-.583-.385-.76-.635-.173-.25-.26-.5567-.26-.92 0-.3567.098-.67.295-.94.197-.2733.467-.4867.81-.64.347-.1533.742-.23 1.185-.23.483 0 .905.07 1.265.21.363.1367.69.335.98.595l-.55.62c-.243-.2167-.507-.3733-.79-.47-.283-.1-.57-.15-.86-.15-.243 0-.465.0367-.665.11-.2.07-.36.175-.48.315-.117.14-.175.3183-.175.535 0 .19.052.3533.155.49.103.1333.278.2583.525.375.247.1133.582.2333 1.005.36.37.1067.708.24 1.015.4s.55.375.73.645c.183.2667.275.6183.275 1.055z"/><path d="m393.567 80.56c0 .7-.096 1.3183-.29 1.855-.193.5367-.481.9567-.865 1.26-.38.3-.853.45-1.42.45-.563 0-1.036-.1467-1.42-.44-.383-.2967-.671-.7117-.865-1.245-.193-.5333-.29-1.1567-.29-1.87 0-.7033.097-1.3233.29-1.86.194-.54.482-.9617.865-1.265.384-.3067.857-.46 1.42-.46.567 0 1.04.1483 1.42.445.384.2967.672.7133.865 1.25.194.5333.29 1.16.29 1.88zm-1.035 0c0-.9067-.12-1.595-.36-2.065-.236-.47-.63-.705-1.18-.705s-.945.2367-1.185.71c-.236.4733-.355 1.1633-.355 2.07 0 .9033.124 1.5883.37 2.055.247.4633.637.695 1.17.695.55 0 .944-.2333 1.18-.7.24-.4667.36-1.1533.36-2.06z"/><path d="m397.863 84-2.325-5.975c.007.0867.017.2217.03.405.014.1833.029.3983.045.645.017.2467.03.5083.04.785.014.2767.02.5517.02.825v3.315h-.9v-6.89h1.315l2.35 5.99c-.006-.1133-.021-.3017-.045-.565-.023-.2667-.045-.5817-.065-.945-.016-.3667-.025-.755-.025-1.165v-3.315h.9v6.89z"/><path d="m97.155 43.125c-.5634 0-1.05-.1317-1.46-.395-.4067-.2667-.7217-.665-.945-1.195-.22-.53-.33-1.1917-.33-1.985 0-.5933.08-1.1117.24-1.555.16-.4467.3766-.8183.65-1.115.2766-.2967.59-.52.94-.67.3533-.15.7216-.225 1.105-.225.46 0 .8416.0667 1.145.2.3033.1333.59.325.86.575l-.58.6c-.21-.1967-.4284-.34-.655-.43-.2234-.0933-.475-.14-.755-.14-.2467 0-.4834.0483-.71.145-.2267.0967-.43.2517-.61.465-.1767.2133-.3184.4967-.425.85-.1034.35-.155.7833-.155 1.3 0 .6533.065 1.185.195 1.595.1333.4067.33.705.59.895.2633.1867.5866.28.97.28.2266 0 .4416-.0267.645-.08.2033-.0533.4-.1317.59-.235v-2.015h-1.275l-.115-.79h2.365v3.31c-.3167.1733-.655.32-1.015.44-.3567.1167-.7784.175-1.265.175z"/><path d="m102.191 36.89v2.215h2.53v.785h-2.53v2.335h3.095v.775h-4.09v-6.89h4.015l-.115.78z"/><path d="m109.472 36.935v6.065h-.99v-6.065h-2.12v-.825h5.265l-.105.825z"/><path d="m119.899 35.515v2.9c.21-.27.462-.4717.755-.605.297-.1367.599-.205.905-.205.507 0 .88.1383 1.12.415.24.2733.36.655.36 1.145v3.835h-.96v-3.75c0-.3167-.068-.545-.205-.685-.133-.1433-.346-.215-.64-.215-.186 0-.365.0417-.535.125-.166.0833-.318.19-.455.32-.136.1267-.251.2583-.345.395v3.81h-.96v-7.38z"/><path d="m129.215 42.73c-.186.12-.411.215-.675.285-.263.0733-.526.11-.79.11-.586 0-1.036-.1533-1.35-.46-.31-.3067-.465-.705-.465-1.195v-3.02h-1.195v-.72h1.195v-1.19l.96-.115v1.305h1.8l-.11.72h-1.69v3.01c0 .29.074.5083.22.655.15.1467.399.22.745.22.197 0 .377-.0233.54-.07.164-.0467.315-.1067.455-.18z"/><path d="m135.212 42.73c-.187.12-.412.215-.675.285-.264.0733-.527.11-.79.11-.587 0-1.037-.1533-1.35-.46-.31-.3067-.465-.705-.465-1.195v-3.02h-1.195v-.72h1.195v-1.19l.96-.115v1.305h1.8l-.11.72h-1.69v3.01c0 .29.073.5083.22.655.15.1467.398.22.745.22.196 0 .376-.0233.54-.07.163-.0467.315-.1067.455-.18z"/><path d="m139.378 37.605c.466 0 .84.115 1.12.345.28.2267.481.5467.605.96.123.41.185.8933.185 1.45 0 .5333-.075 1.0083-.225 1.425s-.375.745-.675.985c-.3.2367-.677.355-1.13.355-.57 0-1.027-.2-1.37-.6v2.495l-.96.115v-7.405h.825l.07.71c.196-.27.428-.4767.695-.62.266-.1433.553-.215.86-.215zm-.245.755c-.274 0-.515.0833-.725.25-.21.1633-.384.35-.52.56v2.55c.133.1967.296.3517.49.465.193.11.408.165.645.165.413 0 .725-.16.935-.48.21-.3233.315-.8267.315-1.51 0-.4567-.042-.8317-.125-1.125-.084-.2967-.21-.5167-.38-.66-.167-.1433-.379-.215-.635-.215z"/><path d="m144.769 42.36c.383 0 .685-.07.905-.21.223-.14.335-.33.335-.57 0-.1533-.03-.285-.09-.395-.057-.11-.177-.21-.36-.3-.18-.09-.454-.1817-.82-.275-.357-.09-.669-.195-.935-.315-.267-.12-.474-.2767-.62-.47-.144-.1933-.215-.4433-.215-.75 0-.3.083-.56.25-.78.17-.22.408-.39.715-.51.31-.12.67-.18 1.08-.18.433 0 .81.0583 1.13.175.323.1133.596.2533.82.42l-.41.625c-.204-.1367-.427-.2483-.67-.335-.24-.0867-.524-.13-.85-.13-.39 0-.669.06-.835.18-.164.1167-.245.2717-.245.465 0 .1433.04.2633.12.36.083.0933.225.18.425.26s.476.1683.83.265c.343.0933.643.2033.9.33.256.1267.455.2933.595.5.143.2033.215.4717.215.805 0 .3767-.109.6833-.325.92-.217.2333-.499.405-.845.515-.344.11-.71.165-1.1.165-.48 0-.894-.07-1.24-.21-.344-.14-.632-.3117-.865-.515l.53-.61c.206.17.443.3083.71.415.266.1033.555.155.865.155z"/><path d="m150.11 42.27c0-.2267.081-.4233.245-.59.163-.1667.363-.25.6-.25.243 0 .446.0833.61.25.163.1667.245.3633.245.59 0 .2367-.082.4383-.245.605-.164.1667-.367.25-.61.25-.237 0-.437-.0833-.6-.25-.164-.1667-.245-.3683-.245-.605zm0-3.58c0-.16.036-.3033.11-.43.076-.1267.178-.2267.305-.3.13-.0767.273-.115.43-.115.243 0 .446.0833.61.25.163.1633.245.3617.245.595 0 .23-.082.43-.245.6-.164.1667-.367.25-.61.25-.237 0-.437-.0833-.6-.25-.164-.17-.245-.37-.245-.6z"/><path d="m155.712 44.045-.77-.345 4.27-8.805.76.365zm5 0-.77-.345 4.27-8.805.76.365z"/><path d="m170.793 41.79c0 .21.033.3633.1.46.067.0933.172.1633.315.21l-.225.66c-.24-.03-.448-.1017-.625-.215s-.308-.2867-.395-.52c-.19.2433-.43.4283-.72.555-.29.1233-.605.185-.945.185-.53 0-.948-.15-1.255-.45s-.46-.695-.46-1.185c0-.55.213-.9717.64-1.265.43-.2933 1.047-.44 1.85-.44h.765v-.4c0-.3633-.108-.6217-.325-.775-.213-.1533-.512-.23-.895-.23-.173 0-.38.0217-.62.065s-.495.1117-.765.205l-.245-.7c.327-.1233.638-.2117.935-.265.3-.0533.58-.08.84-.08.68 0 1.188.155 1.525.465.337.3067.505.7283.505 1.265zm-2.225.615c.247 0 .483-.0633.71-.19s.413-.3033.56-.53v-1.275h-.7c-.557 0-.952.095-1.185.285-.233.1867-.35.4433-.35.77 0 .3067.08.54.24.7s.402.24.725.24z"/><path d="m175.354 37.605c.467 0 .84.115 1.12.345.28.2267.482.5467.605.96.124.41.185.8933.185 1.45 0 .5333-.075 1.0083-.225 1.425s-.375.745-.675.985c-.3.2367-.676.355-1.13.355-.57 0-1.026-.2-1.37-.6v2.495l-.96.115v-7.405h.825l.07.71c.197-.27.429-.4767.695-.62.267-.1433.554-.215.86-.215zm-.245.755c-.273 0-.515.0833-.725.25-.21.1633-.383.35-.52.56v2.55c.134.1967.297.3517.49.465.194.11.409.165.645.165.414 0 .725-.16.935-.48.21-.3233.315-.8267.315-1.51 0-.4567-.041-.8317-.125-1.125-.083-.2967-.21-.5167-.38-.66-.166-.1433-.378-.215-.635-.215z"/><path d="m181.66 37.73v4.54h1.465v.73h-4.03v-.73h1.605v-3.81h-1.555v-.73zm-.715-2.52c.2 0 .36.0617.48.185.124.1233.185.2733.185.45 0 .1833-.061.3383-.185.465-.12.1233-.28.185-.48.185-.196 0-.356-.0617-.48-.185-.12-.1267-.18-.2817-.18-.465 0-.1767.06-.3267.18-.45.124-.1233.284-.185.48-.185z"/><path d="m186.021 42.2c0-.17.04-.3233.12-.46.08-.14.189-.25.325-.33.14-.08.295-.12.465-.12.177 0 .335.04.475.12s.25.19.33.33c.08.1367.12.29.12.46s-.04.3267-.12.47c-.08.14-.19.25-.33.33-.14.0833-.298.125-.475.125-.17 0-.325-.0417-.465-.125-.136-.08-.245-.19-.325-.33-.08-.1433-.12-.3-.12-.47z"/><path d="m191.852 35.515v2.9c.21-.27.462-.4717.755-.605.297-.1367.599-.205.905-.205.507 0 .88.1383 1.12.415.24.2733.36.655.36 1.145v3.835h-.96v-3.75c0-.3167-.068-.545-.205-.685-.133-.1433-.346-.215-.64-.215-.186 0-.365.0417-.535.125-.166.0833-.318.19-.455.32-.136.1267-.251.2583-.345.395v3.81h-.96v-7.38z"/><path d="m197.849 37.73v3.71c0 .3333.068.5733.205.72.136.1433.345.215.625.215.27 0 .526-.0783.77-.235.243-.1567.433-.3433.57-.56v-3.85h.96v5.27h-.825l-.07-.695c-.2.2633-.452.4667-.755.61-.304.14-.61.21-.92.21-.51 0-.892-.1383-1.145-.415-.25-.2767-.375-.66-.375-1.15v-3.83z"/><path d="m202.885 43v-5.27h.825l.07.71c.216-.27.48-.4767.79-.62.313-.1433.625-.215.935-.215.506 0 .88.1383 1.12.415.24.2733.36.655.36 1.145v3.835h-.96v-3.245c0-.3333-.02-.6033-.06-.81-.037-.21-.115-.3617-.235-.455s-.302-.14-.545-.14c-.19 0-.37.0417-.54.125s-.324.1883-.46.315c-.134.1267-.247.2583-.34.395v3.815z"/><path d="m213.161 42.73c-.187.12-.412.215-.675.285-.264.0733-.527.11-.79.11-.587 0-1.037-.1533-1.35-.46-.31-.3067-.465-.705-.465-1.195v-3.02h-1.195v-.72h1.195v-1.19l.96-.115v1.305h1.8l-.11.72h-1.69v3.01c0 .29.073.5083.22.655.15.1467.398.22.745.22.196 0 .376-.0233.54-.07.163-.0467.315-.1067.455-.18z"/><path d="m215.652 40.69c.02.3867.098.7033.235.95.137.2433.315.4233.535.54.22.1133.463.17.73.17.263 0 .505-.04.725-.12s.443-.1967.67-.35l.435.605c-.247.1967-.532.3533-.855.47-.323.1133-.658.17-1.005.17-.527 0-.975-.115-1.345-.345-.367-.2333-.647-.5567-.84-.97-.19-.4133-.285-.8933-.285-1.44 0-.53.095-1.0033.285-1.42.193-.4167.465-.745.815-.985s.767-.36 1.25-.36c.453 0 .843.105 1.17.315.33.21.583.51.76.9.177.3867.265.85.265 1.39 0 .09-.002.1767-.005.26s-.008.1567-.015.22zm1.36-2.335c-.373 0-.685.1333-.935.4-.247.2667-.388.6783-.425 1.235h2.62c-.01-.5333-.127-.9383-.35-1.215-.22-.28-.523-.42-.91-.42z"/><path d="m220.923 43v-.71h.8v-3.85h-.8v-.71h1.535l.175 1.235c.2-.4367.445-.7717.735-1.005.293-.2367.673-.355 1.14-.355.153 0 .288.0117.405.035.12.0233.242.0533.365.09l-.285.84c-.11-.0333-.21-.0567-.3-.07s-.193-.02-.31-.02c-.397 0-.737.1433-1.02.43s-.51.7083-.68 1.265v2.115h1.07v.71zm3.465-3.42v-1.21l.11-.64h.78l-.15 1.85z"/><path d="m227.994 42.2c0-.17.04-.3233.12-.46.08-.14.188-.25.325-.33.14-.08.295-.12.465-.12.177 0 .335.04.475.12s.25.19.33.33c.08.1367.12.29.12.46s-.04.3267-.12.47c-.08.14-.19.25-.33.33-.14.0833-.298.125-.475.125-.17 0-.325-.0417-.465-.125-.137-.08-.245-.19-.325-.33-.08-.1433-.12-.3-.12-.47z"/><path d="m235.625 37.73v4.54h1.465v.73h-4.03v-.73h1.605v-3.81h-1.555v-.73zm-.715-2.52c.2 0 .36.0617.48.185.123.1233.185.2733.185.45 0 .1833-.062.3383-.185.465-.12.1233-.28.185-.48.185-.197 0-.357-.0617-.48-.185-.12-.1267-.18-.2817-.18-.465 0-.1767.06-.3267.18-.45.123-.1233.283-.185.48-.185z"/><path d="m240.916 37.605c.504 0 .925.1133 1.265.34.344.2267.602.5467.775.96.177.41.265.895.265 1.455 0 .5433-.09 1.0233-.27 1.44-.176.4133-.436.7383-.78.975-.343.2333-.765.35-1.265.35s-.923-.1133-1.27-.34c-.343-.2267-.603-.5467-.78-.96-.176-.4133-.265-.8983-.265-1.455 0-.5467.089-1.0267.265-1.44.18-.4167.444-.7417.79-.975.347-.2333.77-.35 1.27-.35zm0 .765c-.433 0-.76.1633-.98.49-.22.3233-.33.8267-.33 1.51 0 .6767.109 1.1783.325 1.505.217.3233.542.485.975.485.434 0 .759-.1617.975-.485.217-.3267.325-.8317.325-1.515 0-.68-.108-1.1817-.325-1.505-.213-.3233-.535-.485-.965-.485z"/><path d="m245.157 44.045-.77-.345 4.27-8.805.76.365z"/><path d="m255.343 37.73-1.89 5.27h-1.12l-1.88-5.27h1.02l1.445 4.435 1.44-4.435z"/><path d="m258.6 35.985c.45 0 .833.085 1.15.255.316.17.558.4017.725.695.166.2933.25.6217.25.985 0 .31-.054.6133-.16.91-.107.2967-.28.6083-.52.935-.237.3233-.549.6833-.935 1.08-.387.3967-.86.85-1.42 1.36h3.195l-.115.795h-4.175v-.755c.506-.4867.94-.9133 1.3-1.28.363-.37.663-.695.9-.975.236-.28.423-.5317.56-.755.136-.2267.231-.44.285-.64.056-.2033.085-.4133.085-.63 0-.37-.105-.6617-.315-.875-.207-.2133-.495-.32-.865-.32-.33 0-.602.0583-.815.175-.21.1133-.422.2983-.635.555l-.64-.495c.27-.3367.575-.59.915-.76.34-.1733.75-.26 1.23-.26z"/><path d="m263.146 44.045-.77-.345 4.27-8.805.76.365z"/><path d="m269.617 40.69c.02.3867.098.7033.235.95.136.2433.315.4233.535.54.22.1133.463.17.73.17.263 0 .505-.04.725-.12s.443-.1967.67-.35l.435.605c-.247.1967-.532.3533-.855.47-.324.1133-.659.17-1.005.17-.527 0-.975-.115-1.345-.345-.367-.2333-.647-.5567-.84-.97-.19-.4133-.285-.8933-.285-1.44 0-.53.095-1.0033.285-1.42.193-.4167.465-.745.815-.985s.766-.36 1.25-.36c.453 0 .843.105 1.17.315.33.21.583.51.76.9.176.3867.265.85.265 1.39 0 .09-.002.1767-.005.26-.004.0833-.009.1567-.015.22zm1.36-2.335c-.374 0-.685.1333-.935.4-.247.2667-.389.6783-.425 1.235h2.62c-.01-.5333-.127-.9383-.35-1.215-.22-.28-.524-.42-.91-.42z"/><path d="m278.383 37.605c.183 0 .353.04.51.12.156.08.283.2267.38.44.096.21.145.515.145.915v3.92h-.875v-3.78c0-.3067-.02-.5267-.06-.66-.037-.1367-.144-.205-.32-.205-.147 0-.292.045-.435.135-.144.09-.285.24-.425.45v4.06h-.84v-3.78c0-.3067-.02-.5267-.06-.66-.037-.1367-.144-.205-.32-.205-.15 0-.297.045-.44.135-.14.09-.28.24-.42.45v4.06h-.875v-5.27h.74l.06.59c.146-.2067.308-.3767.485-.51.18-.1367.398-.205.655-.205.2 0 .385.0483.555.145.173.0967.3.2767.38.54.143-.2033.306-.3683.49-.495.183-.1267.406-.19.67-.19z"/><path d="m284.719 41.79c0 .21.033.3633.1.46.067.0933.172.1633.315.21l-.225.66c-.24-.03-.448-.1017-.625-.215s-.308-.2867-.395-.52c-.19.2433-.43.4283-.72.555-.29.1233-.605.185-.945.185-.53 0-.948-.15-1.255-.45s-.46-.695-.46-1.185c0-.55.213-.9717.64-1.265.43-.2933 1.047-.44 1.85-.44h.765v-.4c0-.3633-.108-.6217-.325-.775-.213-.1533-.512-.23-.895-.23-.173 0-.38.0217-.62.065s-.495.1117-.765.205l-.245-.7c.327-.1233.638-.2117.935-.265.3-.0533.58-.08.84-.08.68 0 1.188.155 1.525.465.337.3067.505.7283.505 1.265zm-2.225.615c.247 0 .483-.0633.71-.19s.413-.3033.56-.53v-1.275h-.7c-.557 0-.952.095-1.185.285-.233.1867-.35.4433-.35.77 0 .3067.08.54.24.7s.402.24.725.24z"/><path d="m289.59 37.73v4.54h1.465v.73h-4.03v-.73h1.605v-3.81h-1.555v-.73zm-.715-2.52c.2 0 .36.0617.48.185.123.1233.185.2733.185.45 0 .1833-.062.3383-.185.465-.12.1233-.28.185-.48.185-.197 0-.357-.0617-.48-.185-.12-.1267-.18-.2817-.18-.465 0-.1767.06-.3267.18-.45.123-.1233.283-.185.48-.185z"/><path d="m294.991 35.61v6.03c0 .2533.078.4333.235.54.157.1033.358.155.605.155.157 0 .305-.0167.445-.05s.28-.0767.42-.13l.25.685c-.147.0733-.33.1383-.55.195-.22.06-.468.09-.745.09-.493 0-.887-.1383-1.18-.415s-.44-.6567-.44-1.14v-5.23h-1.605v-.73z"/><path d="m298.837 40.675v-.81h4.06v.81z"/><path d="m309.308 37.73-1.89 5.27h-1.12l-1.88-5.27h1.02l1.445 4.435 1.44-4.435z"/><path d="m311.589 40.69c.02.3867.099.7033.235.95.137.2433.315.4233.535.54.22.1133.464.17.73.17.264 0 .505-.04.725-.12s.444-.1967.67-.35l.435.605c-.246.1967-.531.3533-.855.47-.323.1133-.658.17-1.005.17-.526 0-.975-.115-1.345-.345-.366-.2333-.646-.5567-.84-.97-.19-.4133-.285-.8933-.285-1.44 0-.53.095-1.0033.285-1.42.194-.4167.465-.745.815-.985s.767-.36 1.25-.36c.454 0 .844.105 1.17.315.33.21.584.51.76.9.177.3867.265.85.265 1.39 0 .09-.001.1767-.005.26-.003.0833-.008.1567-.015.22zm1.36-2.335c-.373 0-.685.1333-.935.4-.246.2667-.388.6783-.425 1.235h2.62c-.01-.5333-.126-.9383-.35-1.215-.22-.28-.523-.42-.91-.42z"/><path d="m316.86 43v-.71h.8v-3.85h-.8v-.71h1.535l.175 1.235c.2-.4367.445-.7717.735-1.005.294-.2367.674-.355 1.14-.355.154 0 .289.0117.405.035.12.0233.242.0533.365.09l-.285.84c-.11-.0333-.21-.0567-.3-.07s-.193-.02-.31-.02c-.396 0-.736.1433-1.02.43-.283.2867-.51.7083-.68 1.265v2.115h1.07v.71zm3.465-3.42v-1.21l.11-.64h.78l-.15 1.85z"/><path d="m325.567 37.73v4.54h1.465v.73h-4.03v-.73h1.605v-3.81h-1.555v-.73zm-.715-2.52c.2 0 .36.0617.48.185.123.1233.185.2733.185.45 0 .1833-.062.3383-.185.465-.12.1233-.28.185-.48.185-.197 0-.357-.0617-.48-.185-.12-.1267-.18-.2817-.18-.465 0-.1767.06-.3267.18-.45.123-.1233.283-.185.48-.185z"/><path d="m331.958 35.495c.3 0 .57.0267.81.08.24.05.466.1217.68.215l-.3.69c-.17-.0733-.352-.1283-.545-.165-.19-.0367-.385-.055-.585-.055-.36 0-.629.07-.805.21-.177.14-.265.355-.265.645v1.01h1.78l-.105.73h-1.675v4.145h-.955v-4.145h-1.235v-.73h1.235v-1.005c0-.33.083-.6167.25-.86.17-.2433.401-.4317.695-.565.296-.1333.636-.2 1.02-.2z"/><path d="m337.559 38.125v4.145h1.465v.73h-4.03v-.73h1.605v-3.415h-1.555v-.73zm-.715-2.57c.2 0 .36.0617.48.185.123.1233.185.2733.185.45 0 .1867-.062.3417-.185.465-.12.1233-.28.185-.48.185-.197 0-.357-.0617-.48-.185-.12-.1233-.18-.2783-.18-.465 0-.1767.06-.3267.18-.45.123-.1233.283-.185.48-.185z"/><path d="m341.57 40.69c.02.3867.098.7033.235.95.136.2433.315.4233.535.54.22.1133.463.17.73.17.263 0 .505-.04.725-.12s.443-.1967.67-.35l.435.605c-.247.1967-.532.3533-.855.47-.324.1133-.659.17-1.005.17-.527 0-.975-.115-1.345-.345-.367-.2333-.647-.5567-.84-.97-.19-.4133-.285-.8933-.285-1.44 0-.53.095-1.0033.285-1.42.193-.4167.465-.745.815-.985s.766-.36 1.25-.36c.453 0 .843.105 1.17.315.33.21.583.51.76.9.176.3867.265.85.265 1.39 0 .09-.002.1767-.005.26-.004.0833-.008.1567-.015.22zm1.36-2.335c-.374 0-.685.1333-.935.4-.247.2667-.389.6783-.425 1.235h2.62c-.01-.5333-.127-.9383-.35-1.215-.22-.28-.524-.42-.91-.42z"/><path d="m346.841 43v-.71h.8v-3.85h-.8v-.71h1.535l.175 1.235c.2-.4367.445-.7717.735-1.005.293-.2367.673-.355 1.14-.355.153 0 .288.0117.405.035.12.0233.242.0533.365.09l-.285.84c-.11-.0333-.21-.0567-.3-.07s-.193-.02-.31-.02c-.397 0-.737.1433-1.02.43s-.51.7083-.68 1.265v2.115h1.07v.71zm3.465-3.42v-1.21l.11-.64h.78l-.15 1.85z"/><path d="m352.122 42.415c0-.1933.067-.3583.2-.495.137-.1367.303-.205.5-.205.203 0 .372.0683.505.205.137.1367.205.3017.205.495 0 .1967-.068.365-.205.505-.133.1367-.302.205-.505.205-.197 0-.363-.0683-.5-.205-.133-.14-.2-.3083-.2-.505zm2 0c0-.1933.068-.3583.205-.495.14-.1367.308-.205.505-.205s.362.0683.495.205c.137.1367.205.3017.205.495 0 .1967-.068.365-.205.505-.133.1367-.298.205-.495.205s-.365-.0683-.505-.205c-.137-.14-.205-.3083-.205-.505zm2.01 0c0-.1933.067-.3583.2-.495.137-.1367.303-.205.5-.205.203 0 .372.0683.505.205.137.1367.205.3017.205.495 0 .1967-.068.365-.205.505-.133.1367-.302.205-.505.205-.197 0-.363-.0683-.5-.205-.133-.14-.2-.3083-.2-.505z"/></g></g></svg>