<svg fill="none" height="200" viewBox="0 0 440 200" width="440" xmlns="http://www.w3.org/2000/svg" xmlns:xlink="http://www.w3.org/1999/xlink"><filter id="a" color-interpolation-filters="sRGB" filterUnits="userSpaceOnUse" height="48" width="48" x="314" y="78"><feFlood flood-opacity="0" result="BackgroundImageFix"/><feColorMatrix in="SourceAlpha" result="hardAlpha" type="matrix" values="0 0 0 0 0 0 0 0 0 0 0 0 0 0 0 0 0 0 127 0"/><feOffset dy="2"/><feGaussianBlur stdDeviation="2"/><feComposite in2="hardAlpha" operator="out"/><feColorMatrix type="matrix" values="0 0 0 0 0.1152 0 0 0 0 0.1476 0 0 0 0 0.18 0 0 0 0.04 0"/><feBlend in2="BackgroundImageFix" mode="normal" result="effect1_dropShadow_1798_312"/><feBlend in="SourceGraphic" in2="effect1_dropShadow_1798_312" mode="normal" result="shape"/></filter><filter id="b" color-interpolation-filters="sRGB" filterUnits="userSpaceOnUse" height="26" width="105" x="285" y="153"><feFlood flood-opacity="0" result="BackgroundImageFix"/><feColorMatrix in="SourceAlpha" result="hardAlpha" type="matrix" values="0 0 0 0 0 0 0 0 0 0 0 0 0 0 0 0 0 0 127 0"/><feOffset dy="1"/><feGaussianBlur stdDeviation=".5"/><feComposite in2="hardAlpha" operator="out"/><feColorMatrix type="matrix" values="0 0 0 0 0.1152 0 0 0 0 0.1476 0 0 0 0 0.18 0 0 0 0.05 0"/><feBlend in2="BackgroundImageFix" mode="normal" result="effect1_dropShadow_1798_312"/><feBlend in="SourceGraphic" in2="effect1_dropShadow_1798_312" mode="normal" result="shape"/></filter><mask id="c" height="198" maskUnits="userSpaceOnUse" width="438" x="1" y="1"><rect fill="#f7f9fa" height="197" rx="2.5" stroke="#eef0f3" width="437" x="1.5" y="1.5"/></mask><mask id="d" fill="#000" height="132" maskUnits="userSpaceOnUse" width="132" x="271.64" y="33.6397"><path d="m271.64 33.6397h132v132h-132z" fill="#fff"/><path d="m274.36 100c0 12.587 3.733 24.891 10.726 35.356 6.992 10.466 16.932 18.623 28.56 23.439 11.629 4.817 24.425 6.077 36.77 3.622 12.344-2.456 23.684-8.517 32.584-17.417s14.961-20.24 17.417-32.584c2.455-12.345 1.195-25.1411-3.622-36.7697-4.816-11.6287-12.973-21.5678-23.439-28.5606-10.465-6.9928-22.769-10.7252-35.356-10.7252v15.9099c9.44 0 18.668 2.7993 26.517 8.0439s13.967 12.699 17.58 21.4204c3.612 8.7215 4.557 18.3183 2.716 27.5773-1.842 9.258-6.388 17.763-13.063 24.438s-15.18 11.221-24.438 13.063c-9.259 1.841-18.856.896-27.577-2.716-8.722-3.613-16.176-9.731-21.421-17.58-5.244-7.849-8.044-17.077-8.044-26.517z" fill="#000"/></mask><mask id="e" fill="#000" height="59.397" maskUnits="userSpaceOnUse" width="59.397" x="258.097" y="51.4071"><path d="m258.097 51.4071h59.397v59.397h-59.397z" fill="#fff"/><path d="m293 55c-11.446 11.4456-18.1 26.8225-18.608 43.001l15.902.4998c.381-12.134 5.372-23.6666 13.956-32.2508z" fill="#000"/></mask><mask id="f" fill="#000" height="38.1838" maskUnits="userSpaceOnUse" width="38.1838" x="312.347" y="25.0467"><path d="m312.347 25.0467h38.1838v38.1838h-38.1838z" fill="#fff"/><path d="m338 36.3604c-5.299 0-10.577.6618-15.712 1.97l3.928 15.4174c3.851-.9812 7.81-1.4775 11.784-1.4775z" fill="#000"/></mask><mask id="g" fill="#000" height="45.2548" maskUnits="userSpaceOnUse" width="45.2548" x="289.719" y="28.5822"><path d="m289.719 28.5822h45.2548v45.2548h-45.2548z" fill="#fff"/><path d="m320.993 38.6749c-10.329 2.8647-19.768 8.2921-27.44 15.7787l11.112 11.3866c5.754-5.615 12.833-9.6855 20.58-11.834z" fill="#000"/></mask><rect fill="#fcfcfd" height="199" rx="3.5" stroke="#eef0f3" width="439" x=".5" y=".5"/><g mask="url(#c)"><g filter="url(#a)"><circle cx="338" cy="100" fill="#fff" r="20"/><circle cx="338" cy="100" r="19.5" stroke="#dfe3e8"/></g><circle cx="338" cy="100" r="29.5" stroke="#eef0f3"/><circle cx="338" cy="100" r="39.5" stroke="#eef0f3"/><circle cx="338" cy="100" opacity=".5" r="114.5" stroke="#eef0f3"/><circle cx="338" cy="100" opacity=".3" r="160.5" stroke="#eef0f3"/><circle cx="338" cy="100" r="241.5" stroke="#f7f9fa"/><circle cx="338" cy="100" opacity=".5" r="91.5" stroke="#eef0f3"/><path d="m338 92c.25 0 .531.0625.75.1875l6.562 2.7813c.407.1874.688.5937.688 1.0312 0 .4688-.281.875-.688 1.0625l-6.562 2.7813c-.219.125-.5.1562-.75.1562-.281 0-.531-.0312-.781-.1562l-6.563-2.7813c-.406-.1875-.656-.5937-.656-1.0625 0-.4375.25-.8438.656-1.0312l6.563-2.7813c.25-.125.5-.1875.781-.1875zm-.188 1.5625-5.75 2.4375 5.75 2.4688c.063.0312.126.0312.188.0312s.125 0 .156-.0312l5.75-2.4688-5.75-2.4375c-.031-.0313-.094-.0625-.156-.0625s-.125.0312-.188.0625zm-7.156 5.4063 1-.4063 1.906.8125-1.5.625 5.75 2.469c.063.031.126.031.188.031s.125 0 .156-.031l5.75-2.469-1.468-.625 1.874-.8125 1 .4063c.407.1874.688.5937.688 1.0312 0 .469-.281.875-.688 1.062l-6.562 2.782c-.219.125-.5.156-.75.156-.281 0-.531-.031-.781-.156l-6.563-2.782c-.406-.187-.656-.593-.656-1.062 0-.4375.25-.8438.656-1.0312zm0 4.0002 1-.407 1.906.813-1.5.625 5.75 2.469c.063.031.126.031.188.031s.125 0 .156-.031l5.75-2.469-1.468-.625 1.874-.813 1 .407c.407.187.688.593.688 1.031 0 .469-.281.875-.688 1.062l-6.562 2.782c-.219.125-.5.156-.75.156-.281 0-.531-.031-.781-.156l-6.563-2.782c-.406-.187-.656-.593-.656-1.062 0-.438.25-.844.656-1.031z" fill="#707880"/><g fill="#28323b"><path d="m32.9094 47v-1.0341l3.1993-3.3146c.3416-.3601.6232-.6756.8448-.9464.2246-.2739.3924-.534.5032-.7802s.1662-.5078.1662-.7848c0-.3139-.0739-.5847-.2216-.8125-.1477-.2308-.3493-.4078-.6048-.5309-.2554-.1262-.5432-.1893-.8633-.1893-.3385 0-.634.0693-.8863.2078-.2524.1385-.4463.3339-.5817.5863-.1354.2523-.2031.5478-.2031.8863h-1.3619c0-.5755.1324-1.0787.397-1.5095.2647-.4309.6279-.7648 1.0895-1.0018.4617-.2401.9864-.3601 1.5742-.3601.594 0 1.1172.1185 1.5696.3555.4555.2339.811.5539 1.0664.9602.2555.4032.3832.8587.3832 1.3665 0 .3508-.0662.694-.1985 1.0294-.1293.3355-.3555.7094-.6786 1.1218-.3232.4094-.7725.9064-1.348 1.4912l-1.8789 1.9666v.0692h4.2564v1.2234zm11.1673.1293c-.6617 0-1.2464-.1139-1.7543-.3417-.5047-.2277-.9002-.5416-1.1864-.9417s-.4278-.8556-.4247-1.3665c-.0031-.4001.0785-.7679.2447-1.1033.1692-.3386.3985-.6202.6878-.8449.2893-.2277.6125-.3723.9695-.4339v-.0554c-.4709-.1139-.8479-.3662-1.1311-.7571-.2831-.3909-.4231-.8402-.4201-1.348-.003-.4832.1247-.9141.3832-1.2926.2616-.3817.6202-.6817 1.0757-.9002.4554-.2186.974-.3278 1.5557-.3278.5755 0 1.0895.1108 1.5419.3324.4555.2185.814.5186 1.0756.9002.2616.3785.394.8079.3971 1.288-.0031.5078-.1478.9571-.434 1.348s-.6586.6432-1.1172.7571v.0554c.354.0616.6725.2062.9556.4339.2863.2247.514.5063.6833.8449.1723.3354.26.7032.2631 1.1033-.0031.5109-.1477.9664-.4339 1.3665-.2863.4001-.6833.714-1.1911.9417-.5047.2278-1.0849.3417-1.7404.3417zm0-1.168c.3909 0 .7294-.0646 1.0156-.1939.2863-.1323.5078-.3155.6648-.5494.157-.2369.237-.5139.2401-.8309-.0031-.3293-.0893-.6202-.2586-.8725-.1662-.2524-.3924-.4509-.6786-.5956-.2862-.1446-.614-.2169-.9833-.2169-.3724 0-.7032.0723-.9925.2169-.2893.1447-.5171.3432-.6833.5956-.1662.2523-.2477.5432-.2447.8725-.003.317.0724.594.2263.8309.1569.2339.38.4171.6693.5494.2893.1293.631.1939 1.0249.1939zm0-4.3995c.3139 0 .5925-.0631.8356-.1893s.4339-.3016.5724-.5263c.1416-.2246.2139-.4878.217-.7894-.0031-.2954-.0739-.554-.2124-.7756-.1354-.2215-.3246-.3924-.5678-.5124-.2431-.1231-.5247-.1846-.8448-.1846-.3262 0-.6124.0615-.8587.1846-.2431.12-.4324.2909-.5678.5124-.1354.2216-.2016.4802-.1985.7756-.0031.3016.0646.5648.2031.7894.1385.2247.3293.4001.5725.5263.2462.1262.5293.1893.8494.1893zm5.3378 5.4382 4.1271-8.1619v-.0693h-4.7734v-1.2233h6.2507v1.2649l-4.1133 8.1896zm13.7248.1431c-.6986 0-1.3003-.1493-1.805-.4478-.5017-.3016-.8895-.7248-1.1634-1.2695-.2708-.5478-.4063-1.1895-.4063-1.9251 0-.7263.1355-1.3665.4063-1.9204.2739-.554.6555-.9864 1.1449-1.2973.4924-.3108 1.0679-.4662 1.7265-.4662.4001 0 .7879.0661 1.1634.1985.3755.1323.7125.3401 1.011.6232s.534.6509.7063 1.1033c.1724.4494.2586.9957.2586 1.6389v.4893h-5.6368v-1.0341h4.2841c0-.3631-.0738-.6847-.2216-.9648-.1477-.2832-.3554-.5063-.6232-.6694-.2647-.1631-.5755-.2447-.9325-.2447-.3878 0-.7263.0954-1.0156.2863-.2863.1877-.5079.4339-.6648.7386-.1539.3016-.2308.6294-.2308.9833v.8079c0 .4739.0831.8771.2492 1.2095.1693.3324.4048.5863.7064.7617.3016.1724.654.2585 1.0571.2585.2616 0 .5002-.0369.7156-.1108.2154-.0769.4016-.1908.5586-.3416s.277-.337.3601-.5586l1.3064.2355c-.1046.3847-.2923.7217-.5632 1.011-.2677.2862-.6047.5093-1.011.6694-.4032.1569-.8633.2354-1.3803.2354zm4.5738-.1431v-7.0909h1.3249v1.1541h.0877c.1477-.3909.3893-.6955.7248-.9141.3355-.2215.7371-.3323 1.2049-.3323.474 0 .871.1108 1.191.3323.3232.2216.5617.5263.7156.9141h.0739c.1692-.3785.4385-.6802.8079-.9048.3693-.2278.8094-.3416 1.3203-.3416.6432 0 1.1679.2015 1.5742.6047.4093.4032.614 1.011.614 1.8235v4.755h-1.3804v-4.6257c0-.4801-.1308-.8279-.3924-1.0433-.2616-.2155-.5739-.3232-.9371-.3232-.4493 0-.7986.1385-1.0479.4155-.2493.2739-.374.6263-.374 1.0572v4.5195h-1.3757v-4.7134c0-.3847-.12-.694-.3601-.9279-.24-.2339-.5524-.3509-.9371-.3509-.2616 0-.5032.0693-.7248.2078-.2185.1354-.3955.3246-.5309.5678-.1323.2431-.1985.5247-.1985.8448v4.3718zm13.5528.157c-.4493 0-.8556-.0831-1.2188-.2493-.3631-.1693-.6509-.414-.8632-.734-.2093-.3201-.314-.7125-.314-1.1773 0-.4.077-.7294.2309-.9879.1538-.2585.3616-.4632.6232-.614s.554-.2646.8771-.3416c.3232-.0769.6525-.1354.9879-.1754.4248-.0493.7695-.0893 1.0341-.12.2647-.0339.4571-.0878.5771-.1616.12-.0739.18-.1939.18-.3601v-.0323c0-.4032-.1138-.7156-.3416-.9372-.2246-.2216-.5601-.3324-1.0064-.3324-.4647 0-.8309.1031-1.0987.3094-.2647.2031-.4478.4293-.5494.6786l-1.2972-.2955c.1539-.4309.3786-.7786.674-1.0433.2986-.2678.6417-.4617 1.0295-.5817.3878-.1231.7956-.1846 1.2234-.1846.2831 0 .5832.0338.9002.1015.32.0647.6186.1847.8956.3601.28.1754.5093.4263.6878.7525.1785.3231.2678.7432.2678 1.2603v4.7088h-1.348v-.9695h-.0554c-.0893.1785-.2232.354-.4017.5263-.1785.1724-.4078.3155-.6878.4294-.2801.1138-.6155.1708-1.0064.1708zm.3001-1.108c.3816 0 .7078-.0754.9787-.2262.2739-.1508.4816-.3478.6232-.5909.1446-.2462.217-.5094.217-.7894v-.9141c-.0493.0493-.1447.0954-.2863.1385-.1385.04-.297.0754-.4755.1062-.1785.0277-.3524.0538-.5216.0785-.1693.0215-.3109.04-.4247.0554-.2678.0338-.5125.0908-.7341.1708-.2185.08-.3939.1954-.5262.3462-.1293.1477-.1939.3447-.1939.5909 0 .3416.1262.6002.3785.7756.2524.1723.574.2585.9649.2585zm5.0377.951v-7.0909h1.3803v7.0909zm.6971-8.185c-.2401 0-.4463-.08-.6186-.2401-.1693-.1631-.2539-.357-.2539-.5816 0-.2278.0846-.4217.2539-.5817.1723-.1631.3785-.2447.6186-.2447.24 0 .4447.0816.614.2447.1723.16.2585.3539.2585.5817 0 .2246-.0862.4185-.2585.5816-.1693.1601-.374.2401-.614.2401zm3.9205-1.2695v9.4545h-1.3803v-9.4545zm7.361 9.6115c-.4493 0-.8556-.0831-1.2188-.2493-.3631-.1693-.6509-.414-.8632-.734-.2093-.3201-.314-.7125-.314-1.1773 0-.4.077-.7294.2309-.9879s.3616-.4632.6232-.614.554-.2646.8771-.3416c.3232-.0769.6525-.1354.988-.1754.4247-.0493.7694-.0893 1.034-.12.2645-.0339.4575-.0878.5775-.1616.12-.0739.18-.1939.18-.3601v-.0323c0-.4032-.114-.7156-.342-.9372-.225-.2216-.5601-.3324-1.0064-.3324-.4647 0-.8309.1031-1.0987.3094-.2647.2031-.4478.4293-.5493.6786l-1.2973-.2955c.1539-.4309.3786-.7786.674-1.0433.2986-.2678.6417-.4617 1.0295-.5817.3878-.1231.7956-.1846 1.2234-.1846.2831 0 .5832.0338.8998.1015.32.0647.619.1847.896.3601.28.1754.509.4263.688.7525.178.3231.268.7432.268 1.2603v4.7088h-1.348v-.9695h-.056c-.089.1785-.223.354-.401.5263-.179.1724-.4082.3155-.6883.4294-.2801.1138-.6155.1708-1.0064.1708zm.3001-1.108c.3816 0 .7078-.0754.9787-.2262.2739-.1508.4819-.3478.6229-.5909.145-.2462.217-.5094.217-.7894v-.9141c-.049.0493-.144.0954-.286.1385-.138.04-.297.0754-.4755.1062-.1785.0277-.3523.0538-.5216.0785-.1693.0215-.3109.04-.4247.0554-.2678.0338-.5125.0908-.7341.1708-.2185.08-.3939.1954-.5262.3462-.1293.1477-.1939.3447-.1939.5909 0 .3416.1262.6002.3785.7756.2524.1723.574.2585.9649.2585zm7.6926 1.0895c-.573 0-1.084-.1462-1.533-.4386-.446-.2954-.797-.7155-1.053-1.2603-.252-.5478-.378-1.2049-.378-1.9712s.128-1.4219.383-1.9666c.258-.5448.612-.9618 1.062-1.2511.449-.2893.958-.4339 1.528-.4339.44 0 .794.0738 1.062.2216.27.1446.48.3139.627.5078.151.1939.268.3647.351.5124h.083v-3.5131h1.381v9.4545h-1.348v-1.1033h-.116c-.083.1508-.203.3231-.36.517-.154.1939-.366.3632-.637.5078-.271.1447-.622.217-1.052.217zm.304-1.1772c.397 0 .733-.1046 1.007-.3139.277-.2124.486-.5063.627-.8818.145-.3754.217-.8125.217-1.3111 0-.4924-.07-.9233-.212-1.2926-.141-.3693-.349-.657-.623-.8632-.274-.2063-.613-.3094-1.016-.3094-.415 0-.761.1078-1.038.3232s-.487.5094-.628.8817c-.139.3724-.208.7925-.208 1.2603 0 .474.071.9003.212 1.2788.142.3786.351.6786.628.9002.28.2185.625.3278 1.034.3278zm7.833 1.1772c-.572 0-1.083-.1462-1.532-.4386-.447-.2954-.798-.7155-1.053-1.2603-.252-.5478-.379-1.2049-.379-1.9712s.128-1.4219.384-1.9666c.258-.5448.612-.9618 1.061-1.2511.45-.2893.959-.4339 1.529-.4339.44 0 .794.0738 1.061.2216.271.1446.48.3139.628.5078.151.1939.268.3647.351.5124h.083v-3.5131h1.38v9.4545h-1.348v-1.1033h-.115c-.083.1508-.203.3231-.36.517-.154.1939-.366.3632-.637.5078-.271.1447-.622.217-1.053.217zm.305-1.1772c.397 0 .732-.1046 1.006-.3139.277-.2124.487-.5063.628-.8818.145-.3754.217-.8125.217-1.3111 0-.4924-.071-.9233-.212-1.2926-.142-.3693-.35-.657-.623-.8632-.274-.2063-.613-.3094-1.016-.3094-.416 0-.762.1078-1.039.3232s-.486.5094-.628.8817c-.138.3724-.207.7925-.207 1.2603 0 .474.07.9003.212 1.2788.142.3786.351.6786.628.9002.28.2185.625.3278 1.034.3278zm5.178 1.0387v-7.0909h1.335v1.1264h.074c.129-.3816.357-.6817.683-.9002.329-.2216.701-.3324 1.117-.3324.086 0 .188.0031.305.0092.12.0062.214.0139.281.0231v1.3203c-.055-.0153-.154-.0323-.295-.0507-.142-.0216-.283-.0324-.425-.0324-.326 0-.617.0693-.872.2078-.253.1354-.453.3247-.601.5678-.147.2401-.221.514-.221.8217v4.3303zm7.792.1431c-.699 0-1.3-.1493-1.805-.4478-.502-.3016-.89-.7248-1.163-1.2695-.271-.5478-.407-1.1895-.407-1.9251 0-.7263.136-1.3665.407-1.9204.273-.554.655-.9864 1.144-1.2973.493-.3108 1.068-.4662 1.727-.4662.4 0 .788.0661 1.163.1985.376.1323.713.3401 1.011.6232.299.2831.534.6509.707 1.1033.172.4494.258.9957.258 1.6389v.4893h-5.637v-1.0341h4.285c0-.3631-.074-.6847-.222-.9648-.148-.2832-.355-.5063-.623-.6694-.265-.1631-.576-.2447-.933-.2447-.388 0-.726.0954-1.015.2863-.287.1877-.508.4339-.665.7386-.154.3016-.231.6294-.231.9833v.8079c0 .4739.083.8771.249 1.2095.17.3324.405.5863.707.7617.301.1724.654.2585 1.057.2585.261 0 .5-.0369.715-.1108.216-.0769.402-.1908.559-.3416s.277-.337.36-.5586l1.306.2355c-.104.3847-.292.7217-.563 1.011-.267.2862-.604.5093-1.011.6694-.403.1569-.863.2354-1.38.2354zm9.887-5.5028-1.251.2216c-.052-.1601-.135-.3124-.249-.4571-.111-.1446-.262-.2631-.452-.3554-.191-.0924-.43-.1385-.716-.1385-.391 0-.717.0877-.979.2631-.261.1724-.392.3955-.392.6694 0 .237.088.4278.263.5724.175.1447.459.2632.849.3555l1.127.2585c.652.1508 1.139.3832 1.459.6971s.48.7217.48 1.2234c0 .4247-.123.8033-.37 1.1356-.243.3293-.583.5879-1.02.7756-.434.1877-.937.2816-1.509.2816-.794 0-1.442-.1693-1.944-.5078-.502-.3416-.809-.8264-.923-1.4542l1.334-.2031c.083.3478.254.6109.512.7894.259.1754.596.2631 1.011.2631.453 0 .814-.0938 1.085-.2816.271-.1908.407-.4231.407-.6971 0-.2215-.084-.4077-.25-.5585-.163-.1509-.414-.2647-.752-.3417l-1.201-.2631c-.661-.1508-1.151-.3909-1.468-.7202-.313-.3293-.47-.7463-.47-1.251 0-.4186.116-.7848.35-1.0988.234-.3139.557-.5586.97-.734.412-.1785.885-.2677 1.417-.2677.766 0 1.37.1662 1.81.4985.44.3293.731.771.872 1.325zm6.97 0-1.251.2216c-.052-.1601-.135-.3124-.249-.4571-.111-.1446-.262-.2631-.453-.3554-.191-.0924-.429-.1385-.715-.1385-.391 0-.717.0877-.979.2631-.262.1724-.392.3955-.392.6694 0 .237.087.4278.263.5724.175.1447.458.2632.849.3555l1.127.2585c.652.1508 1.138.3832 1.458.6971s.481.7217.481 1.2234c0 .4247-.124.8033-.37 1.1356-.243.3293-.583.5879-1.02.7756-.434.1877-.937.2816-1.51.2816-.794 0-1.442-.1693-1.943-.5078-.502-.3416-.81-.8264-.923-1.4542l1.334-.2031c.083.3478.254.6109.512.7894.259.1754.596.2631 1.011.2631.453 0 .814-.0938 1.085-.2816.271-.1908.406-.4231.406-.6971 0-.2215-.083-.4077-.249-.5585-.163-.1509-.414-.2647-.753-.3417l-1.2-.2631c-.662-.1508-1.151-.3909-1.468-.7202-.314-.3293-.471-.7463-.471-1.251 0-.4186.117-.7848.351-1.0988.234-.3139.557-.5586.97-.734.412-.1785.884-.2677 1.417-.2677.766 0 1.369.1662 1.81.4985.44.3293.73.771.872 1.325zm4.712 5.5028c-.698 0-1.3-.1493-1.805-.4478-.501-.3016-.889-.7248-1.163-1.2695-.271-.5478-.406-1.1895-.406-1.9251 0-.7263.135-1.3665.406-1.9204.274-.554.655-.9864 1.145-1.2973.492-.3108 1.068-.4662 1.726-.4662.4 0 .788.0661 1.164.1985.375.1323.712.3401 1.011.6232.298.2831.534.6509.706 1.1033.172.4494.259.9957.259 1.6389v.4893h-5.637v-1.0341h4.284c0-.3631-.074-.6847-.222-.9648-.147-.2832-.355-.5063-.623-.6694-.265-.1631-.575-.2447-.932-.2447-.388 0-.727.0954-1.016.2863-.286.1877-.508.4339-.665.7386-.154.3016-.231.6294-.231.9833v.8079c0 .4739.083.8771.25 1.2095.169.3324.404.5863.706.7617.302.1724.654.2585 1.057.2585.262 0 .5-.0369.716-.1108.215-.0769.401-.1908.558-.3416s.277-.337.36-.5586l1.307.2355c-.105.3847-.293.7217-.563 1.011-.268.2862-.605.5093-1.011.6694-.404.1569-.864.2354-1.381.2354zm9.888-5.5028-1.251.2216c-.053-.1601-.136-.3124-.25-.4571-.111-.1446-.261-.2631-.452-.3554-.191-.0924-.429-.1385-.716-.1385-.391 0-.717.0877-.978.2631-.262.1724-.393.3955-.393.6694 0 .237.088.4278.263.5724.176.1447.459.2632.85.3555l1.126.2585c.653.1508 1.139.3832 1.459.6971s.48.7217.48 1.2234c0 .4247-.123.8033-.369 1.1356-.243.3293-.583.5879-1.02.7756-.434.1877-.938.2816-1.51.2816-.794 0-1.442-.1693-1.944-.5078-.501-.3416-.809-.8264-.923-1.4542l1.334-.2031c.083.3478.254.6109.513.7894.258.1754.595.2631 1.011.2631.452 0 .814-.0938 1.085-.2816.27-.1908.406-.4231.406-.6971 0-.2215-.083-.4077-.249-.5585-.164-.1509-.414-.2647-.753-.3417l-1.2-.2631c-.662-.1508-1.151-.3909-1.468-.7202-.314-.3293-.471-.7463-.471-1.251 0-.4186.117-.7848.351-1.0988.234-.3139.557-.5586.969-.734.413-.1785.885-.2677 1.417-.2677.767 0 1.37.1662 1.81.4985.44.3293.731.771.873 1.325zm11.162-1.7312-2.571 7.0909h-1.477l-2.576-7.0909h1.482l1.795 5.4567h.074l1.791-5.4567zm4.112 7.234c-.698 0-1.3-.1493-1.805-.4478-.501-.3016-.889-.7248-1.163-1.2695-.271-.5478-.406-1.1895-.406-1.9251 0-.7263.135-1.3665.406-1.9204.274-.554.656-.9864 1.145-1.2973.492-.3108 1.068-.4662 1.726-.4662.401 0 .788.0661 1.164.1985.375.1323.712.3401 1.011.6232.298.2831.534.6509.706 1.1033.172.4494.259.9957.259 1.6389v.4893h-5.637v-1.0341h4.284c0-.3631-.074-.6847-.222-.9648-.147-.2832-.355-.5063-.623-.6694-.264-.1631-.575-.2447-.932-.2447-.388 0-.727.0954-1.016.2863-.286.1877-.508.4339-.665.7386-.154.3016-.231.6294-.231.9833v.8079c0 .4739.084.8771.25 1.2095.169.3324.404.5863.706.7617.302.1724.654.2585 1.057.2585.262 0 .5-.0369.716-.1108.215-.0769.401-.1908.558-.3416s.277-.337.36-.5586l1.307.2355c-.105.3847-.292.7217-.563 1.011-.268.2862-.605.5093-1.011.6694-.403.1569-.864.2354-1.381.2354zm4.574-.1431v-7.0909h1.334v1.1264h.074c.129-.3816.357-.6817.683-.9002.33-.2216.702-.3324 1.118-.3324.086 0 .187.0031.304.0092.12.0062.214.0139.282.0231v1.3203c-.055-.0153-.154-.0323-.296-.0507-.141-.0216-.283-.0324-.424-.0324-.326 0-.617.0693-.873.2078-.252.1354-.452.3247-.6.5678-.148.2401-.222.514-.222.8217v4.3303zm4.989 0v-7.0909h1.381v7.0909zm.698-8.185c-.241 0-.447-.08-.619-.2401-.169-.1631-.254-.357-.254-.5816 0-.2278.085-.4217.254-.5817.172-.1631.378-.2447.619-.2447.24 0 .444.0816.614.2447.172.16.258.3539.258.5817 0 .2246-.086.4185-.258.5816-.17.1601-.374.2401-.614.2401zm5.914 1.0941v1.1079h-4.007v-1.1079zm-2.908 7.0909v-7.9126c0-.4432.097-.811.291-1.1034.194-.2954.451-.5155.771-.6601.32-.1478.668-.2216 1.043-.2216.277 0 .514.0231.711.0692.197.0431.343.0831.439.12l-.324 1.1172c-.064-.0184-.147-.04-.249-.0646-.101-.0277-.224-.0415-.369-.0415-.336 0-.576.0831-.72.2492-.142.1662-.213.4063-.213.7202v7.728zm4.333 0v-7.0909h1.38v7.0909zm.697-8.185c-.24 0-.447-.08-.619-.2401-.169-.1631-.254-.357-.254-.5816 0-.2278.085-.4217.254-.5817.172-.1631.379-.2447.619-.2447s.444.0816.614.2447c.172.16.258.3539.258.5817 0 .2246-.086.4185-.258.5816-.17.1601-.374.2401-.614.2401zm5.596 8.3281c-.699 0-1.3-.1493-1.805-.4478-.502-.3016-.89-.7248-1.163-1.2695-.271-.5478-.407-1.1895-.407-1.9251 0-.7263.136-1.3665.407-1.9204.273-.554.655-.9864 1.144-1.2973.493-.3108 1.068-.4662 1.727-.4662.4 0 .788.0661 1.163.1985.376.1323.713.3401 1.011.6232.299.2831.534.6509.707 1.1033.172.4494.258.9957.258 1.6389v.4893h-5.636v-1.0341h4.284c0-.3631-.074-.6847-.222-.9648-.148-.2832-.355-.5063-.623-.6694-.265-.1631-.576-.2447-.933-.2447-.388 0-.726.0954-1.015.2863-.287.1877-.508.4339-.665.7386-.154.3016-.231.6294-.231.9833v.8079c0 .4739.083.8771.249 1.2095.17.3324.405.5863.707.7617.301.1724.654.2585 1.057.2585.261 0 .5-.0369.715-.1108.216-.0769.402-.1908.559-.3416s.277-.337.36-.5586l1.307.2355c-.105.3847-.293.7217-.564 1.011-.267.2862-.604.5093-1.011.6694-.403.1569-.863.2354-1.38.2354zm7.228-.0046c-.572 0-1.083-.1462-1.532-.4386-.447-.2954-.798-.7155-1.053-1.2603-.252-.5478-.379-1.2049-.379-1.9712s.128-1.4219.384-1.9666c.258-.5448.612-.9618 1.061-1.2511.45-.2893.959-.4339 1.528-.4339.441 0 .794.0738 1.062.2216.271.1446.48.3139.628.5078.151.1939.268.3647.351.5124h.083v-3.5131h1.38v9.4545h-1.348v-1.1033h-.115c-.083.1508-.203.3231-.36.517-.154.1939-.366.3632-.637.5078-.271.1447-.622.217-1.053.217zm.305-1.1772c.397 0 .732-.1046 1.006-.3139.277-.2124.487-.5063.628-.8818.145-.3754.217-.8125.217-1.3111 0-.4924-.071-.9233-.212-1.2926-.142-.3693-.35-.657-.623-.8632-.274-.2063-.613-.3094-1.016-.3094-.416 0-.762.1078-1.039.3232s-.486.5094-.628.8817c-.138.3724-.207.7925-.207 1.2603 0 .474.07.9003.212 1.2788.142.3786.351.6786.628.9002.28.2185.625.3278 1.034.3278z"/><path d="m43.7216 69.2727 2.429 7.108h.098l2.429-7.108h1.4233l-3.1407 8.7273h-1.5213l-3.1406-8.7273zm8.7976 8.8722c-.4148 0-.7898-.0767-1.125-.2301-.3353-.1563-.6009-.3821-.7969-.6776-.1932-.2954-.2898-.6577-.2898-1.0866 0-.3694.0711-.6733.2131-.912.142-.2386.3338-.4275.5753-.5667s.5113-.2443.8096-.3154c.2983-.071.6023-.125.912-.1619.392-.0455.7102-.0824.9545-.1108.2443-.0312.4219-.081.5327-.1491.1108-.0682.1662-.179.1662-.3324v-.0299c0-.3721-.1051-.6605-.3154-.865-.2073-.2046-.517-.3068-.9289-.3068-.429 0-.7671.0951-1.0142.2855-.2444.1875-.4134.3963-.5071.6264l-1.1975-.2727c.1421-.3978.3494-.7188.6222-.9631.2755-.2472.5923-.4261.9503-.5369.3579-.1137.7343-.1705 1.1292-.1705.2614 0 .5384.0313.831.0938.2954.0596.571.1704.8267.3324.2585.1619.4702.3934.6349.6946.1648.2983.2472.686.2472 1.1633v4.3466h-1.2443v-.8949h-.0512c-.0824.1648-.2059.3267-.3707.4858s-.3764.2912-.6349.3963c-.2586.1051-.5682.1577-.929.1577zm.277-1.0227c.3522 0 .6534-.0696.9034-.2088.2528-.1393.4446-.3211.5753-.5455.1335-.2273.2002-.4702.2002-.7287v-.8437c-.0454.0454-.1335.088-.2642.1278-.1278.0369-.2741.0696-.4389.098-.1648.0256-.3253.0497-.4815.0725-.1563.0198-.2869.0369-.3921.0511-.2471.0312-.473.0838-.6775.1577-.2017.0738-.3637.1804-.4858.3196-.1193.1363-.179.3181-.179.5454 0 .3154.1165.554.3494.7159.233.1591.5299.2387.8907.2387zm5.9243-7.8495v8.7273h-1.2741v-8.7273zm1.7142 8.7273v-6.5455h1.2741v6.5455zm.6434-7.5554c-.2216 0-.4119-.0739-.571-.2216-.1562-.1506-.2344-.3295-.2344-.5369 0-.2102.0782-.3892.2344-.537.1591-.1505.3494-.2258.571-.2258s.4105.0753.5668.2258c.1591.1478.2386.3268.2386.537 0 .2074-.0795.3863-.2386.5369-.1563.1477-.3452.2216-.5668.2216zm4.7951 7.6832c-.5284 0-1-.1349-1.4147-.4048-.412-.2727-.7358-.6605-.9716-1.1633-.233-.5057-.3495-1.1123-.3495-1.8196 0-.7074.1179-1.3125.3537-1.8154.2387-.5028.5654-.8878.9801-1.1548.4148-.2671.885-.4006 1.4105-.4006.4063 0 .733.0682.9802.2046.25.1335.4431.2897.5795.4687.1392.179.2472.3367.3239.473h.0767v-3.2429h1.2741v8.7273h-1.2443v-1.0185h-.1065c-.0767.1392-.1875.2983-.3324.4773-.1421.179-.3381.3352-.5881.4688-.25.1335-.5738.2002-.9716.2002zm.2813-1.0866c.3665 0 .6761-.0966.929-.2898.2556-.196.4488-.4673.5795-.8139.1335-.3466.2003-.75.2003-1.2102 0-.4546-.0654-.8523-.196-1.1932-.1307-.3409-.3225-.6065-.5753-.7969-.2529-.1903-.5654-.2855-.9375-.2855-.3835 0-.7032.0994-.9588.2983-.2557.1989-.4489.4702-.5796.8139-.1278.3438-.1917.7316-.1917 1.1634 0 .4375.0653.8309.196 1.1804.1307.3494.3238.6264.5795.8309.2586.2017.5767.3026.9546.3026z"/><path d="m43.696 106h-1.3977l3.1406-8.7273h1.5213l3.1407 8.7273h-1.3978l-2.4673-7.142h-.0682zm.2344-3.418h4.5341v1.108h-4.5341zm9.9801 3.55c-.6335 0-1.179-.143-1.6364-.43-.4545-.29-.8039-.689-1.0482-1.198-.2444-.508-.3665-1.091-.3665-1.747 0-.665.125-1.251.375-1.76.25-.511.6022-.91 1.0568-1.1973.4545-.2869.9901-.4304 1.6065-.4304.4972 0 .9404.0923 1.3296.277.3892.1818.7031.4377.9417.7667.2415.33.385.715.4304 1.155h-1.24c-.0682-.307-.2245-.571-.4688-.792-.2415-.222-.5653-.333-.9716-.333-.3551 0-.6662.094-.9332.281-.2642.185-.4702.449-.6179.793-.1477.341-.2216.744-.2216 1.21 0 .478.0725.889.2173 1.236.1449.347.3495.615.6137.805.267.191.5809.286.9417.286.2415 0 .4603-.044.6563-.132.1988-.091.365-.22.4986-.388.1363-.168.2315-.369.2855-.605h1.24c-.0454.423-.1832.801-.4133 1.133-.2301.333-.5384.594-.9247.785-.3836.19-.8338.285-1.3509.285zm6.8086 0c-.6335 0-1.179-.143-1.6364-.43-.4545-.29-.8039-.689-1.0483-1.198-.2443-.508-.3664-1.091-.3664-1.747 0-.665.125-1.251.375-1.76.25-.511.6022-.91 1.0568-1.1973.4545-.2869.99-.4304 1.6065-.4304.4972 0 .9404.0923 1.3296.277.3892.1818.7031.4377.9417.7667.2415.33.385.715.4304 1.155h-1.24c-.0682-.307-.2245-.571-.4688-.792-.2415-.222-.5653-.333-.9716-.333-.3551 0-.6662.094-.9332.281-.2642.185-.4702.449-.6179.793-.1477.341-.2216.744-.2216 1.21 0 .478.0724.889.2173 1.236s.3495.615.6137.805c.267.191.5809.286.9417.286.2415 0 .4603-.044.6563-.132.1988-.091.365-.22.4986-.388.1363-.168.2315-.369.2855-.605h1.24c-.0454.423-.1832.801-.4133 1.133-.2301.333-.5384.594-.9247.785-.3836.19-.8338.285-1.3509.285zm6.8725 0c-.6449 0-1.2003-.138-1.6662-.413-.463-.279-.821-.669-1.0738-1.172-.25-.506-.375-1.098-.375-1.777 0-.671.125-1.261.375-1.773.2528-.511.6051-.91 1.0568-1.1973.4545-.2869.9858-.4304 1.5937-.4304.3693 0 .7273.0611 1.0739.1833.3466.1221.6577.3139.9332.5754.2756.261.4929.601.652 1.018.1591.415.2387.919.2387 1.513v.452h-5.2032v-.955h3.9546c0-.335-.0682-.632-.2046-.89-.1363-.262-.3281-.468-.5753-.618-.2443-.151-.5312-.226-.8607-.226-.358 0-.6705.088-.9375.264-.2643.173-.4688.401-.6137.682-.142.278-.2131.581-.2131.908v.745c0 .438.0768.81.2302 1.117.1562.307.3735.541.652.703.2784.159.6036.239.9758.239.2415 0 .4617-.035.6605-.103.1989-.071.3708-.176.5156-.315.1449-.139.2557-.311.3324-.516l1.206.218c-.0966.355-.2699.666-.5199.933-.2472.264-.5582.47-.9332.618-.3722.145-.7969.217-1.2742.217zm4.222 2.323v-9.0005h1.2443v1.0615h.1065c.0739-.137.1804-.294.3196-.473.1392-.1794.3324-.3356.5796-.4691.2471-.1364.5738-.2046.9801-.2046.5284 0 1 .1335 1.4148.4006.4147.2671.74.6521.9758 1.1551.2386.503.358 1.108.358 1.815s-.1179 1.314-.3537 1.82c-.2358.502-.5597.89-.9716 1.163-.412.27-.8821.405-1.4105.405-.3978 0-.723-.067-.9759-.2-.25-.134-.446-.29-.5881-.469-.142-.179-.2514-.338-.3281-.477h-.0767v3.473zm1.2485-5.728c0 .46.0668.864.2003 1.211.1336.346.3267.617.5796.813.2528.194.5625.29.929.29.3806 0 .6988-.101.9545-.302.2557-.205.4489-.482.5795-.831.1336-.35.2003-.743.2003-1.181 0-.432-.0653-.819-.196-1.163-.1278-.344-.321-.615-.5795-.814-.2557-.199-.5753-.298-.9588-.298-.3694 0-.6819.095-.9375.285-.2529.191-.4447.456-.5753.797-.1307.341-.1961.739-.1961 1.193zm9.2131-3.2725v1.0225h-3.5753v-1.0225zm-2.6165-1.5681h1.2742v6.1916c0 .247.0369.433.1108.558.0738.123.169.206.2855.252.1193.042.2486.064.3878.064.1022 0 .1917-.007.2684-.022.0767-.014.1364-.025.179-.034l.2301 1.053c-.0738.028-.1789.057-.3153.085-.1364.031-.3068.048-.5114.051-.3352.006-.6477-.054-.9375-.179-.2897-.125-.5241-.318-.7031-.579-.179-.262-.2685-.59-.2685-.985zm8.0412 8.1136h-1.3977l3.1406-8.7273h1.5213l3.1407 8.7273h-1.3978l-2.4673-7.142h-.0682zm.2344-3.418h4.5341v1.108h-4.5341zm8.6026-5.3093v8.7273h-1.2741v-8.7273zm2.9883 0v8.7273h-1.2741v-8.7273z"/><path d="m44.2756 125.273v8.727h-1.3168v-8.727zm3.0895 4.841v3.886h-1.2742v-6.545h1.223v1.065h.081c.1506-.347.3864-.625.7074-.835.3238-.211.7315-.316 1.223-.316.446 0 .8366.094 1.1719.282.3352.184.5951.46.7798.826.1846.367.277.82.277 1.36v4.163h-1.2742v-4.01c0-.474-.1235-.845-.3707-1.112-.2472-.27-.5867-.405-1.0185-.405-.2954 0-.5582.064-.7883.192-.2273.128-.4077.315-.5412.562-.1307.245-.196.54-.196.887zm11.2627-2.659-2.3735 6.545h-1.3637l-2.3778-6.545h1.3679l1.6577 5.036h.0681l1.6534-5.036zm2.9148 6.69c-.4148 0-.7898-.077-1.125-.23-.3352-.156-.6008-.382-.7969-.678-.1931-.295-.2897-.657-.2897-1.086 0-.37.071-.674.213-.912.1421-.239.3338-.428.5753-.567s.5114-.244.8097-.315.6023-.125.9119-.162c.3921-.046.7102-.083.9546-.111.2443-.031.4218-.081.5326-.149.1108-.069.1662-.179.1662-.333v-.03c0-.372-.1051-.66-.3153-.865-.2074-.204-.5171-.306-.929-.306-.429 0-.767.095-1.0142.285-.2443.188-.4134.396-.5071.626l-1.1975-.272c.1421-.398.3495-.719.6222-.963.2756-.247.5923-.426.9503-.537.3579-.114.7344-.171 1.1293-.171.2613 0 .5383.032.8309.094.2955.06.571.171.8267.332.2585.162.4702.394.635.695.1647.298.2471.686.2471 1.163v4.347h-1.2443v-.895h-.0511c-.0824.165-.206.327-.3708.486-.1647.159-.3764.291-.6349.396s-.5682.158-.929.158zm.277-1.023c.3523 0 .6534-.069.9034-.209.2529-.139.4446-.321.5753-.545.1335-.227.2003-.47.2003-.729v-.844c-.0455.046-.1335.089-.2642.128-.1279.037-.2742.07-.4389.098-.1648.026-.3253.05-.4816.073-.1562.02-.2869.037-.392.051-.2472.031-.473.084-.6776.158-.2017.073-.3636.18-.4858.319-.1193.137-.179.318-.179.546 0 .315.1165.554.3495.716.2329.159.5298.238.8906.238zm5.9244-7.849v8.727h-1.2742v-8.727zm1.7141 8.727v-6.545h1.2741v6.545zm.6435-7.555c-.2216 0-.412-.074-.5711-.222-.1562-.151-.2343-.33-.2343-.537 0-.21.0781-.389.2343-.537.1591-.15.3495-.226.5711-.226s.4105.076.5667.226c.1591.148.2387.327.2387.537 0 .207-.0796.386-.2387.537-.1562.148-.3451.222-.5667.222zm4.7951 7.683c-.5284 0-1-.135-1.4148-.405-.4119-.273-.7358-.661-.9716-1.163-.233-.506-.3494-1.113-.3494-1.82s.1179-1.312.3537-1.815c.2386-.503.5653-.888.9801-1.155.4147-.267.8849-.401 1.4105-.401.4062 0 .7329.069.9801.205.25.133.4432.29.5795.469.1392.179.2472.336.3239.473h.0767v-3.243h1.2742v8.727h-1.2444v-1.018h-.1065c-.0767.139-.1875.298-.3324.477-.142.179-.338.335-.588.469-.25.133-.5739.2-.9716.2zm.2812-1.087c.3665 0 .6761-.096.929-.29.2557-.196.4489-.467.5795-.813.1336-.347.2003-.751.2003-1.211 0-.454-.0653-.852-.196-1.193s-.3224-.606-.5753-.797c-.2528-.19-.5653-.285-.9375-.285-.3835 0-.7031.099-.9588.298s-.4489.47-.5795.814c-.1279.344-.1918.731-.1918 1.163 0 .438.0653.831.196 1.181.1307.349.3239.626.5796.831.2585.201.5767.302.9545.302z"/><path d="m45.7841 162h-2.8253v-8.727h2.9148c.8551 0 1.5895.174 2.2031.524.6136.346 1.0838.845 1.4105 1.496.3296.647.4943 1.424.4943 2.331 0 .909-.1662 1.69-.4985 2.343-.3296.654-.8069 1.157-1.4319 1.509-.625.349-1.3806.524-2.267.524zm-1.5085-1.151h1.436c.6648 0 1.2174-.125 1.6577-.375.4404-.252.7699-.617.9887-1.095.2187-.48.3281-1.065.3281-1.755 0-.685-.1094-1.266-.3281-1.743-.216-.478-.5384-.84-.9674-1.087s-.9616-.371-1.598-.371h-1.517zm7.2411 1.151v-6.545h1.2741v6.545zm.6435-7.555c-.2216 0-.412-.074-.5711-.222-.1562-.151-.2343-.33-.2343-.537 0-.21.0781-.389.2343-.537.1591-.15.3495-.226.5711-.226.2215 0 .4105.076.5667.226.1591.148.2387.327.2387.537 0 .207-.0796.386-.2387.537-.1562.148-.3452.222-.5667.222zm7.2496 2.608-1.1548.204c-.0483-.148-.125-.288-.2301-.422-.1023-.133-.2415-.243-.4177-.328-.1761-.085-.3963-.128-.6605-.128-.3608 0-.6619.081-.9034.243-.2415.159-.3622.365-.3622.618 0 .219.081.395.2429.528.1619.134.4233.243.7841.329l1.0398.238c.6022.139 1.0511.354 1.3466.644.2954.289.4431.666.4431 1.129 0 .392-.1136.741-.3409 1.048-.2244.304-.5383.543-.9417.716-.4006.173-.8651.26-1.3935.26-.7329 0-1.331-.156-1.794-.469-.4631-.315-.7472-.762-.8523-1.342l1.2315-.187c.0767.321.2344.563.473.728.2387.162.5498.243.9333.243.4176 0 .7514-.087 1.0014-.26.25-.176.375-.39.375-.643 0-.205-.0767-.377-.2301-.516-.1506-.139-.3821-.244-.6946-.315l-1.108-.243c-.6108-.139-1.0625-.361-1.3551-.665-.2898-.304-.4346-.689-.4346-1.155 0-.386.1079-.724.3238-1.014s.5142-.516.8949-.678c.3807-.164.8168-.247 1.3082-.247.7074 0 1.2643.154 1.6705.461.4063.304.6747.711.8054 1.223zm1.5288 7.402v-9h1.2443v1.061h.1065c.0739-.137.1804-.294.3196-.473s.3324-.336.5796-.469c.2471-.136.5738-.205.9801-.205.5284 0 1 .134 1.4148.401.4147.267.74.652.9758 1.155.2386.503.358 1.108.358 1.815s-.1179 1.314-.3537 1.82c-.2358.502-.5597.89-.9716 1.163-.412.27-.8821.405-1.4105.405-.3978 0-.723-.067-.9759-.2-.25-.134-.446-.29-.5881-.469-.142-.179-.2514-.338-.3281-.477h-.0767v3.473zm1.2485-5.728c0 .46.0668.864.2003 1.211.1336.346.3267.617.5796.813.2528.194.5625.29.929.29.3806 0 .6988-.101.9545-.302.2557-.205.4489-.482.5795-.831.1336-.35.2003-.743.2003-1.181 0-.432-.0653-.819-.196-1.163-.1278-.344-.321-.615-.5795-.814-.2557-.199-.5753-.298-.9588-.298-.3694 0-.6819.095-.9375.285-.2529.191-.4447.456-.5753.797-.1307.341-.1961.739-.1961 1.193zm8.9148 3.405c-.6136 0-1.1491-.141-1.6065-.422s-.8125-.674-1.0654-1.18c-.2528-.506-.3792-1.097-.3792-1.773 0-.679.1264-1.273.3792-1.781.2529-.509.608-.904 1.0654-1.185s.9929-.422 1.6065-.422c.6137 0 1.1492.141 1.6066.422.4573.281.8125.676 1.0653 1.185.2528.508.3793 1.102.3793 1.781 0 .676-.1265 1.267-.3793 1.773s-.608.899-1.0653 1.18c-.4574.281-.9929.422-1.6066.422zm.0043-1.07c.3977 0 .7273-.105.9886-.315.2614-.21.4546-.49.5796-.839.1278-.35.1917-.735.1917-1.155 0-.418-.0639-.801-.1917-1.151-.125-.352-.3182-.635-.5796-.848-.2613-.213-.5909-.319-.9886-.319-.4006 0-.733.106-.9972.319-.2613.213-.4559.496-.5838.848-.125.35-.1875.733-.1875 1.151 0 .42.0625.805.1875 1.155.1279.349.3225.629.5838.839.2642.21.5966.315.9972.315zm9.3739-4.009-1.1548.204c-.0483-.148-.125-.288-.2301-.422-.1023-.133-.2415-.243-.4176-.328-.1762-.085-.3963-.128-.6606-.128-.3607 0-.6619.081-.9034.243-.2414.159-.3622.365-.3622.618 0 .219.081.395.2429.528.162.134.4233.243.7841.329l1.0398.238c.6023.139 1.0511.354 1.3466.644.2954.289.4432.666.4432 1.129 0 .392-.1137.741-.341 1.048-.2244.304-.5383.543-.9417.716-.4006.173-.8651.26-1.3935.26-.7329 0-1.3309-.156-1.794-.469-.4631-.315-.7472-.762-.8523-1.342l1.2315-.187c.0768.321.2344.563.4731.728.2386.162.5497.243.9332.243.4176 0 .7514-.087 1.0014-.26.25-.176.375-.39.375-.643 0-.205-.0767-.377-.2301-.516-.1506-.139-.3821-.244-.6946-.315l-1.108-.243c-.6107-.139-1.0625-.361-1.3551-.665-.2897-.304-.4346-.689-.4346-1.155 0-.386.1079-.724.3238-1.014s.5142-.516.8949-.678c.3807-.164.8168-.247 1.3083-.247.7073 0 1.2642.154 1.6704.461.4063.304.6747.711.8054 1.223zm3.4336 5.092c-.4148 0-.7898-.077-1.125-.23-.3352-.156-.6008-.382-.7969-.678-.1931-.295-.2897-.657-.2897-1.086 0-.37.071-.674.213-.912.1421-.239.3338-.428.5753-.567s.5114-.244.8097-.315.6022-.125.9119-.162c.392-.046.7102-.083.9545-.111.2444-.031.4219-.081.5327-.149.1108-.069.1662-.179.1662-.333v-.03c0-.372-.1051-.66-.3153-.865-.2074-.204-.5171-.306-.929-.306-.429 0-.7671.095-1.0142.285-.2443.188-.4134.396-.5071.626l-1.1975-.272c.1421-.398.3495-.719.6222-.963.2756-.247.5923-.426.9503-.537.3579-.114.7344-.171 1.1292-.171.2614 0 .5384.032.831.094.2955.06.571.171.8267.332.2585.162.4702.394.635.695.1647.298.2471.686.2471 1.163v4.347h-1.2443v-.895h-.0511c-.0824.165-.206.327-.3708.486-.1647.159-.3764.291-.6349.396s-.5682.158-.929.158zm.277-1.023c.3523 0 .6534-.069.9034-.209.2528-.139.4446-.321.5753-.545.1335-.227.2003-.47.2003-.729v-.844c-.0455.046-.1335.089-.2642.128-.1279.037-.2742.07-.439.098-.1647.026-.3252.05-.4815.073-.1562.02-.2869.037-.392.051-.2472.031-.473.084-.6776.158-.2017.073-.3636.18-.4858.319-.1193.137-.179.318-.179.546 0 .315.1165.554.3495.716.2329.159.5298.238.8906.238zm4.7525.878v-8.727h1.2741v3.243h.0767c.0739-.137.1804-.294.3196-.473s.3324-.336.5796-.469c.2471-.136.5738-.205.9801-.205.5284 0 1 .134 1.4148.401.4147.267.74.652.9758 1.155.2387.503.358 1.108.358 1.815s-.1179 1.314-.3537 1.82c-.2358.502-.5597.89-.9716 1.163-.4119.27-.8821.405-1.4105.405-.3977 0-.723-.067-.9759-.2-.25-.134-.446-.29-.588-.469-.1421-.179-.2515-.338-.3282-.477h-.1065v1.018zm1.2486-3.273c0 .46.0667.864.2002 1.211.1336.346.3268.617.5796.813.2528.194.5625.29.929.29.3806 0 .6988-.101.9545-.302.2557-.205.4489-.482.5796-.831.1335-.35.2002-.743.2002-1.181 0-.432-.0653-.819-.196-1.163-.1278-.344-.321-.615-.5795-.814-.2557-.199-.5753-.298-.9588-.298-.3694 0-.6818.095-.9375.285-.2529.191-.4446.456-.5753.797s-.196.739-.196 1.193zm7.435-5.454v8.727h-1.2742v-8.727zm4.5352 8.859c-.645 0-1.2-.138-1.666-.413-.463-.279-.8213-.669-1.0741-1.172-.25-.506-.375-1.098-.375-1.777 0-.671.125-1.261.375-1.773.2528-.511.6051-.91 1.0571-1.197.454-.287.985-.431 1.593-.431.37 0 .728.061 1.074.184.347.122.658.313.934.575.275.261.492.601.652 1.018.159.415.238.919.238 1.513v.452h-5.203v-.955h3.955c0-.335-.069-.632-.205-.89-.136-.262-.328-.468-.575-.618-.245-.151-.531-.226-.861-.226-.358 0-.67.088-.938.264-.264.173-.468.401-.613.682-.142.278-.213.581-.213.908v.745c0 .438.076.81.23 1.117.156.307.373.541.652.703.278.159.604.239.976.239.241 0 .461-.035.66-.103.199-.071.371-.176.516-.315s.256-.311.332-.516l1.206.218c-.096.355-.27.666-.52.933-.247.264-.558.47-.933.618-.372.145-.797.217-1.274.217z"/></g><circle cx="35" cy="74" fill="#24a522" r="3"/><circle cx="35" cy="102" fill="#e0b115" r="3"/><circle cx="35" cy="130" fill="#ee413f" r="3"/><circle cx="35" cy="158" fill="#0f8df4" r="3"/><rect fill="#eef0f3" height="10" rx="1" width="129" x="114" y="153"/><rect fill="#eef0f3" height="10" rx="1" width="124" x="88" y="125"/><rect fill="#eef0f3" height="10" rx="1" width="124" x="109" y="97"/><rect fill="#eef0f3" height="10" rx="1" width="124" x="79" y="69"/><path d="m274.36 100c0 12.587 3.733 24.891 10.726 35.356 6.992 10.466 16.932 18.623 28.56 23.439 11.629 4.817 24.425 6.077 36.77 3.622 12.344-2.456 23.684-8.517 32.584-17.417s14.961-20.24 17.417-32.584c2.455-12.345 1.195-25.1411-3.622-36.7697-4.816-11.6287-12.973-21.5678-23.439-28.5606-10.465-6.9928-22.769-10.7252-35.356-10.7252v15.9099c9.44 0 18.668 2.7993 26.517 8.0439s13.967 12.699 17.58 21.4204c3.612 8.7215 4.557 18.3183 2.716 27.5773-1.842 9.258-6.388 17.763-13.063 24.438s-15.18 11.221-24.438 13.063c-9.259 1.841-18.856.896-27.577-2.716-8.722-3.613-16.176-9.731-21.421-17.58-5.244-7.849-8.044-17.077-8.044-26.517z" fill="#57c555"/><path d="m274.36 100c0 12.587 3.733 24.891 10.726 35.356 6.992 10.466 16.932 18.623 28.56 23.439 11.629 4.817 24.425 6.077 36.77 3.622 12.344-2.456 23.684-8.517 32.584-17.417s14.961-20.24 17.417-32.584c2.455-12.345 1.195-25.1411-3.622-36.7697-4.816-11.6287-12.973-21.5678-23.439-28.5606-10.465-6.9928-22.769-10.7252-35.356-10.7252v15.9099c9.44 0 18.668 2.7993 26.517 8.0439s13.967 12.699 17.58 21.4204c3.612 8.7215 4.557 18.3183 2.716 27.5773-1.842 9.258-6.388 17.763-13.063 24.438s-15.18 11.221-24.438 13.063c-9.259 1.841-18.856.896-27.577-2.716-8.722-3.613-16.176-9.731-21.421-17.58-5.244-7.849-8.044-17.077-8.044-26.517z" mask="url(#d)" stroke="#fcfcfd" stroke-width="4"/><path d="m293 55c-11.446 11.4456-18.1 26.8225-18.608 43.001l15.902.4998c.381-12.134 5.372-23.6666 13.956-32.2508z" fill="#f6d028"/><path d="m293 55c-11.446 11.4456-18.1 26.8225-18.608 43.001l15.902.4998c.381-12.134 5.372-23.6666 13.956-32.2508z" mask="url(#e)" stroke="#fcfcfd" stroke-width="4"/><path d="m338 36.3604c-5.299 0-10.577.6618-15.712 1.97l3.928 15.4174c3.851-.9812 7.81-1.4775 11.784-1.4775z" fill="#62b3f6"/><path d="m338 36.3604c-5.299 0-10.577.6618-15.712 1.97l3.928 15.4174c3.851-.9812 7.81-1.4775 11.784-1.4775z" mask="url(#f)" stroke="#fcfcfd" stroke-width="4"/><path d="m320.993 38.6749c-10.329 2.8647-19.768 8.2921-27.44 15.7787l11.112 11.3866c5.754-5.615 12.833-9.6855 20.58-11.834z" fill="#fb7c79"/><path d="m320.993 38.6749c-10.329 2.8647-19.768 8.2921-27.44 15.7787l11.112 11.3866c5.754-5.615 12.833-9.6855 20.58-11.834z" mask="url(#g)" stroke="#fcfcfd" stroke-width="4"/></g><g filter="url(#b)"><rect fill="#fff" height="24" rx="4" width="103" x="286" y="153"/><path d="m297.153 169h-2.354v-7.273h2.429c.713 0 1.325.146 1.836.437.511.289.903.704 1.175 1.247.275.539.412 1.187.412 1.942 0 .758-.138 1.409-.415 1.953-.275.545-.673.964-1.193 1.257-.521.291-1.151.437-1.89.437zm-1.257-.959h1.197c.554 0 1.014-.104 1.381-.312.367-.211.642-.515.824-.913.183-.4.274-.888.274-1.463 0-.571-.091-1.055-.274-1.452-.18-.398-.448-.7-.806-.906-.357-.206-.801-.309-1.331-.309h-1.265zm8.332 1.069c-.511 0-.957-.117-1.339-.351-.381-.235-.677-.563-.887-.984-.211-.422-.316-.914-.316-1.477 0-.566.105-1.061.316-1.485.21-.424.506-.753.887-.987.382-.234.828-.352 1.339-.352.512 0 .958.118 1.339.352s.677.563.888.987c.21.424.316.919.316 1.485 0 .563-.106 1.055-.316 1.477-.211.421-.507.749-.888.984-.381.234-.827.351-1.339.351zm.004-.891c.331 0 .606-.088.824-.263.217-.175.378-.408.483-.7.106-.291.159-.612.159-.962 0-.348-.053-.668-.159-.959-.105-.293-.266-.529-.483-.706-.218-.178-.493-.267-.824-.267-.334 0-.611.089-.831.267-.218.177-.38.413-.487.706-.104.291-.156.611-.156.959 0 .35.052.671.156.962.107.292.269.525.487.7.22.175.497.263.831.263zm4.74.781-1.605-5.455h1.098l1.069 4.006h.053l1.072-4.006h1.098l1.065 3.988h.053l1.062-3.988h1.097l-1.601 5.455h-1.083l-1.108-3.938h-.082l-1.108 3.938zm8.132-3.239v3.239h-1.062v-5.455h1.019v.888h.068c.125-.289.322-.521.589-.696.27-.175.61-.263 1.019-.263.372 0 .697.079.977.235.279.154.496.383.65.689.154.305.23.683.23 1.133v3.469h-1.061v-3.342c0-.395-.103-.704-.309-.926-.206-.225-.489-.338-.849-.338-.246 0-.465.053-.657.16-.189.107-.34.263-.451.469-.109.203-.163.45-.163.738zm5.976-4.034v7.273h-1.062v-7.273zm3.726 7.383c-.511 0-.957-.117-1.338-.351-.382-.235-.678-.563-.888-.984-.211-.422-.316-.914-.316-1.477 0-.566.105-1.061.316-1.485.21-.424.506-.753.888-.987.381-.234.827-.352 1.338-.352.512 0 .958.118 1.339.352s.677.563.888.987.316.919.316 1.485c0 .563-.105 1.055-.316 1.477-.211.421-.507.749-.888.984-.381.234-.827.351-1.339.351zm.004-.891c.331 0 .606-.088.824-.263s.378-.408.483-.7c.106-.291.159-.612.159-.962 0-.348-.053-.668-.159-.959-.105-.293-.265-.529-.483-.706-.218-.178-.493-.267-.824-.267-.334 0-.611.089-.831.267-.218.177-.38.413-.487.706-.104.291-.156.611-.156.959 0 .35.052.671.156.962.107.292.269.525.487.7.22.175.497.263.831.263zm5.766.888c-.44 0-.833-.113-1.179-.338-.343-.227-.613-.55-.81-.969-.194-.422-.291-.927-.291-1.517 0-.589.098-1.093.295-1.512.199-.419.471-.74.817-.963.345-.222.737-.334 1.175-.334.339 0 .611.057.817.171.208.111.369.241.483.391.116.149.206.28.27.394h.064v-.885h1.061v5.455h-1.037v-.849h-.088c-.064.116-.157.249-.277.398-.119.149-.282.279-.49.391-.209.111-.479.167-.81.167zm.234-.906c.306 0 .564-.08.775-.241.213-.164.374-.39.482-.679.112-.289.167-.625.167-1.008 0-.379-.054-.711-.163-.995s-.269-.505-.479-.664c-.211-.158-.471-.238-.782-.238-.319 0-.586.083-.799.249s-.374.392-.483.678c-.106.287-.159.61-.159.97 0 .364.054.692.163.983.109.292.27.522.483.693.215.168.481.252.795.252zm6.026.906c-.441 0-.834-.113-1.179-.338-.343-.227-.613-.55-.81-.969-.194-.422-.291-.927-.291-1.517 0-.589.098-1.093.295-1.512.199-.419.471-.74.816-.963.346-.222.738-.334 1.176-.334.338 0 .611.057.817.171.208.111.369.241.483.391.116.149.206.28.269.394h.064v-2.703h1.062v7.273h-1.037v-.849h-.089c-.063.116-.156.249-.277.398-.118.149-.281.279-.49.391-.208.111-.478.167-.809.167zm.234-.906c.306 0 .564-.08.774-.241.213-.164.374-.39.483-.679.112-.289.167-.625.167-1.008 0-.379-.054-.711-.163-.995s-.269-.505-.48-.664c-.21-.158-.471-.238-.781-.238-.319 0-.586.083-.799.249s-.374.392-.483.678c-.106.287-.16.61-.16.97 0 .364.055.692.164.983.109.292.27.522.483.693.215.168.48.252.795.252zm8.672.906c-.44 0-.833-.113-1.179-.338-.343-.227-.613-.55-.81-.969-.194-.422-.291-.927-.291-1.517 0-.589.098-1.093.295-1.512.199-.419.471-.74.817-.963.345-.222.737-.334 1.175-.334.339 0 .611.057.817.171.208.111.369.241.483.391.116.149.206.28.27.394h.064v-.885h1.061v5.455h-1.037v-.849h-.088c-.064.116-.157.249-.277.398-.119.149-.282.279-.49.391-.209.111-.479.167-.81.167zm.234-.906c.306 0 .564-.08.775-.241.213-.164.374-.39.482-.679.112-.289.167-.625.167-1.008 0-.379-.054-.711-.163-.995s-.269-.505-.479-.664c-.211-.158-.471-.238-.782-.238-.319 0-.586.083-.799.249s-.374.392-.483.678c-.106.287-.159.61-.159.97 0 .364.054.692.163.983.109.292.27.522.483.693.215.168.481.252.795.252zm8.071-3.324-.962.171c-.04-.124-.104-.241-.192-.352-.085-.111-.201-.202-.348-.273s-.33-.107-.55-.107c-.301 0-.552.068-.753.202-.201.133-.302.305-.302.515 0 .183.067.329.202.441.135.111.353.202.654.273l.866.199c.502.116.876.295 1.122.536.247.242.37.555.37.941 0 .327-.095.618-.284.874-.187.253-.449.452-.785.596-.334.145-.721.217-1.161.217-.611 0-1.109-.13-1.495-.391-.386-.262-.623-.635-.711-1.118l1.027-.156c.064.267.195.47.394.607.199.135.458.202.778.202.348 0 .626-.072.834-.216.208-.147.313-.326.313-.537 0-.17-.064-.313-.192-.429-.126-.116-.319-.204-.579-.263l-.923-.202c-.509-.116-.886-.301-1.13-.554-.241-.254-.362-.575-.362-.963 0-.322.09-.603.27-.845.18-.241.429-.43.746-.565.317-.137.68-.206 1.09-.206.59 0 1.054.128 1.392.384.339.253.562.593.671 1.019zm10.046-.785h-1.108c-.042-.236-.121-.445-.237-.625s-.259-.332-.427-.458c-.168-.125-.356-.22-.564-.284-.206-.064-.425-.096-.657-.096-.419 0-.794.106-1.126.316-.329.211-.589.52-.781.927-.19.407-.284.905-.284 1.492 0 .591.094 1.091.284 1.498.192.407.453.715.785.924.331.208.704.312 1.118.312.23 0 .448-.031.654-.092.208-.064.396-.158.564-.281s.31-.273.426-.451c.119-.18.2-.386.245-.618l1.108.004c-.059.357-.174.686-.344.987-.168.298-.385.556-.65.774-.263.216-.563.383-.902.501-.338.118-.708.177-1.108.177-.63 0-1.191-.149-1.683-.447-.493-.301-.881-.73-1.165-1.289-.282-.559-.422-1.225-.422-1.999 0-.777.142-1.443.426-2 .284-.558.672-.987 1.164-1.285.493-.301 1.053-.451 1.68-.451.386 0 .746.055 1.08.167.336.109.638.27.905.483.268.21.489.468.664.774.175.303.294.65.355 1.04zm5.28-.454c-.038-.336-.194-.597-.469-.781-.274-.187-.62-.281-1.037-.281-.298 0-.556.047-.774.142-.218.092-.387.22-.508.384-.118.161-.177.344-.177.55 0 .173.04.322.121.447.082.126.19.231.323.316.135.083.279.153.433.21.154.054.302.099.444.135l.71.185c.232.056.47.133.714.23s.47.225.678.384.377.355.504.589c.131.235.196.515.196.842 0 .412-.107.778-.32 1.097-.211.32-.517.572-.92.757-.4.184-.884.277-1.452.277-.545 0-1.016-.087-1.413-.259-.398-.173-.709-.418-.934-.736-.225-.319-.35-.698-.373-1.136h1.101c.021.263.106.482.255.657.152.173.345.302.579.387.237.083.496.124.778.124.31 0 .586-.048.827-.145.244-.1.436-.237.576-.412.139-.178.209-.385.209-.622 0-.215-.061-.391-.185-.529-.12-.137-.285-.251-.493-.341-.206-.09-.439-.169-.7-.238l-.859-.234c-.583-.159-1.044-.392-1.385-.699-.339-.308-.508-.715-.508-1.222 0-.419.114-.785.341-1.097.227-.313.535-.556.923-.728.389-.176.827-.263 1.314-.263.493 0 .927.086 1.303.259.379.173.678.411.895.714.218.301.332.646.341 1.037zm3.105-1.911 2.024 5.924h.081l2.025-5.924h1.186l-2.618 7.273h-1.267l-2.617-7.273z" fill="#3a444f"/><rect height="23" rx="3.5" stroke="#dfe3e8" width="102" x="286.5" y="153.5"/></g></svg>