<svg fill="none" height="200" viewBox="0 0 440 200" width="440" xmlns="http://www.w3.org/2000/svg" xmlns:xlink="http://www.w3.org/1999/xlink"><filter id="a" color-interpolation-filters="sRGB" filterUnits="userSpaceOnUse" height="48" width="48" x="314" y="78"><feFlood flood-opacity="0" result="BackgroundImageFix"/><feColorMatrix in="SourceAlpha" result="hardAlpha" type="matrix" values="0 0 0 0 0 0 0 0 0 0 0 0 0 0 0 0 0 0 127 0"/><feOffset dy="2"/><feGaussianBlur stdDeviation="2"/><feComposite in2="hardAlpha" operator="out"/><feColorMatrix type="matrix" values="0 0 0 0 0.1152 0 0 0 0 0.1476 0 0 0 0 0.18 0 0 0 0.04 0"/><feBlend in2="BackgroundImageFix" mode="normal" result="effect1_dropShadow_1798_311"/><feBlend in="SourceGraphic" in2="effect1_dropShadow_1798_311" mode="normal" result="shape"/></filter><filter id="b" color-interpolation-filters="sRGB" filterUnits="userSpaceOnUse" height="26" width="96" x="290" y="153"><feFlood flood-opacity="0" result="BackgroundImageFix"/><feColorMatrix in="SourceAlpha" result="hardAlpha" type="matrix" values="0 0 0 0 0 0 0 0 0 0 0 0 0 0 0 0 0 0 127 0"/><feOffset dy="1"/><feGaussianBlur stdDeviation=".5"/><feComposite in2="hardAlpha" operator="out"/><feColorMatrix type="matrix" values="0 0 0 0 0.1152 0 0 0 0 0.1476 0 0 0 0 0.18 0 0 0 0.05 0"/><feBlend in2="BackgroundImageFix" mode="normal" result="effect1_dropShadow_1798_311"/><feBlend in="SourceGraphic" in2="effect1_dropShadow_1798_311" mode="normal" result="shape"/></filter><mask id="c" height="198" maskUnits="userSpaceOnUse" width="438" x="1" y="1"><rect fill="#f7f9fa" height="197" rx="2.5" stroke="#eef0f3" width="437" x="1.5" y="1.5"/></mask><mask id="d" fill="#000" height="150.278" maskUnits="userSpaceOnUse" width="119.166" x="299.226" y="30.8096"><path d="m299.226 30.8096h119.166v150.278h-119.166z" fill="#fff"/><path d="m321.529 161.471c8.886 2.381 18.182 2.807 27.248 1.249 9.067-1.558 17.688-5.062 25.269-10.273 7.581-5.21 13.943-12.003 18.646-19.909 4.704-7.905 7.637-16.737 8.599-25.886.962-9.1487-.072-18.3973-3.029-27.1083-2.957-8.7111-7.767-16.6775-14.099-23.3504-6.333-6.6729-14.037-11.8936-22.581-15.3024-8.544-3.4089-17.726-4.9248-26.913-4.4434l.833 15.8881c6.89-.361 13.776.7759 20.185 3.3325 6.408 2.5567 12.186 6.4722 16.935 11.4769 4.749 5.0046 8.357 10.9795 10.575 17.5127 2.217 6.5333 2.992 13.4697 2.271 20.3313-.721 6.862-2.921 13.485-6.449 19.415-3.527 5.929-8.299 11.023-13.985 14.931s-12.151 6.537-18.951 7.705c-6.8 1.169-13.772.849-20.436-.937z" fill="#000"/></mask><mask id="e" fill="#000" height="118.794" maskUnits="userSpaceOnUse" width="118.794" x="244.662" y="51.4071"><path d="m244.662 51.4071h118.794v118.794h-118.794z" fill="#fff"/><path d="m293 55c-7.819 7.8192-13.466 17.541-16.384 28.2072s-3.006 21.9088-.256 32.6198c2.75 10.71 8.243 20.519 15.939 28.461 7.695 7.941 17.327 13.74 27.946 16.825l4.439-15.278c-7.964-2.314-15.188-6.663-20.96-12.619s-9.892-13.313-11.954-21.346c-2.063-8.033-1.996-16.465.192-24.4646s6.424-15.291 12.288-21.1554z" fill="#000"/></mask><mask id="f" fill="#000" height="60.8112" maskUnits="userSpaceOnUse" width="60.8112" x="289.719" y="19.3898"><path d="m289.719 19.3898h60.8112v60.8112h-60.8112z" fill="#fff"/><path d="m338 36.3604c-16.878 0-33.065 6.7049-45 18.6396l11.25 11.25c8.951-8.951 21.091-13.9797 33.75-13.9797z" fill="#000"/></mask><rect fill="#fcfcfd" height="199" rx="3.5" stroke="#eef0f3" width="439" x=".5" y=".5"/><g mask="url(#c)"><g filter="url(#a)"><circle cx="338" cy="100" fill="#fff" r="20"/><circle cx="338" cy="100" r="19.5" stroke="#dfe3e8"/></g><g stroke="#eef0f3"><circle cx="338" cy="100" r="29.5"/><circle cx="338" cy="100" r="39.5"/><circle cx="338" cy="100" opacity=".5" r="114.5"/><circle cx="338" cy="100" opacity=".3" r="160.5"/></g><circle cx="338" cy="100" r="241.5" stroke="#f7f9fa"/><circle cx="338" cy="100" opacity=".5" r="91.5" stroke="#eef0f3"/><path d="m338 92c.25 0 .531.0625.75.1875l6.562 2.7813c.407.1874.688.5937.688 1.0312 0 .4688-.281.875-.688 1.0625l-6.562 2.7813c-.219.125-.5.1562-.75.1562-.281 0-.531-.0312-.781-.1562l-6.563-2.7813c-.406-.1875-.656-.5937-.656-1.0625 0-.4375.25-.8438.656-1.0312l6.563-2.7813c.25-.125.5-.1875.781-.1875zm-.188 1.5625-5.75 2.4375 5.75 2.4688c.063.0312.126.0312.188.0312s.125 0 .156-.0312l5.75-2.4688-5.75-2.4375c-.031-.0313-.094-.0625-.156-.0625s-.125.0312-.188.0625zm-7.156 5.4063 1-.4063 1.906.8125-1.5.625 5.75 2.469c.063.031.126.031.188.031s.125 0 .156-.031l5.75-2.469-1.468-.625 1.874-.8125 1 .4063c.407.1874.688.5937.688 1.0312 0 .469-.281.875-.688 1.062l-6.562 2.782c-.219.125-.5.156-.75.156-.281 0-.531-.031-.781-.156l-6.563-2.782c-.406-.187-.656-.593-.656-1.062 0-.4375.25-.8438.656-1.0312zm0 4.0002 1-.407 1.906.813-1.5.625 5.75 2.469c.063.031.126.031.188.031s.125 0 .156-.031l5.75-2.469-1.468-.625 1.874-.813 1 .407c.407.187.688.593.688 1.031 0 .469-.281.875-.688 1.062l-6.562 2.782c-.219.125-.5.156-.75.156-.281 0-.531-.031-.781-.156l-6.563-2.782c-.406-.187-.656-.593-.656-1.062 0-.438.25-.844.656-1.031z" fill="#707880"/><path d="m36.4964 51.5455v9.4545h-1.4311v-8.0234h-.0554l-2.262 1.4772v-1.3664l2.359-1.5419zm2.5576 9.4545v-1.0341l3.1992-3.3146c.3416-.3601.6232-.6756.8448-.9464.2247-.2739.3924-.534.5032-.7802s.1662-.5078.1662-.7848c0-.3139-.0739-.5847-.2216-.8125-.1477-.2308-.3493-.4078-.6047-.5309-.2555-.1262-.5433-.1893-.8633-.1893-.3386 0-.634.0693-.8864.2078s-.4463.3339-.5817.5863c-.1354.2523-.2031.5478-.2031.8863h-1.3619c0-.5755.1324-1.0787.3971-1.5095.2646-.4309.6278-.7648 1.0894-1.0018.4617-.2401.9864-.3601 1.5743-.3601.594 0 1.1172.1185 1.5696.3555.4555.2339.8109.5539 1.0664.9602.2554.4032.3831.8587.3831 1.3665 0 .3508-.0661.694-.1985 1.0294-.1292.3355-.3554.7094-.6786 1.1218-.3231.4094-.7725.9064-1.348 1.4912l-1.8789 1.9666v.0692h4.2564v1.2234zm8.2912 0 4.1271-8.1619v-.0693h-4.7734v-1.2233h6.2507v1.2649l-4.1133 8.1896zm13.7248.1431c-.6987 0-1.3004-.1493-1.8051-.4478-.5016-.3016-.8894-.7248-1.1633-1.2695-.2709-.5478-.4063-1.1895-.4063-1.9251 0-.7263.1354-1.3665.4063-1.9204.2739-.554.6555-.9864 1.1448-1.2973.4925-.3108 1.068-.4662 1.7266-.4662.4001 0 .7879.0661 1.1634.1985.3754.1323.7124.3401 1.011.6232.2985.2831.5339.6509.7063 1.1033.1723.4494.2585.9957.2585 1.6389v.4893h-5.6367v-1.0341h4.2841c0-.3631-.0739-.6847-.2216-.9648-.1477-.2832-.3555-.5063-.6232-.6694-.2647-.1631-.5755-.2447-.9326-.2447-.3877 0-.7263.0954-1.0156.2863-.2862.1877-.5078.4339-.6648.7386-.1538.3016-.2308.6294-.2308.9833v.8079c0 .4739.0831.8771.2493 1.2095.1693.3324.4047.5863.7063.7617.3016.1724.654.2585 1.0572.2585.2616 0 .5001-.0369.7156-.1108.2154-.0769.4016-.1908.5586-.3416.1569-.1508.2769-.337.36-.5586l1.3065.2355c-.1046.3847-.2924.7217-.5632 1.011-.2678.2862-.6048.5093-1.011.6694-.4032.1569-.8633.2354-1.3803.2354zm4.5737-.1431v-7.0909h1.325v1.1541h.0877c.1477-.3909.3893-.6955.7248-.9141.3354-.2215.7371-.3323 1.2049-.3323.4739 0 .8709.1108 1.191.3323.3232.2216.5617.5263.7156.9141h.0738c.1693-.3785.4386-.6802.8079-.9048.3693-.2278.8094-.3416 1.3203-.3416.6433 0 1.168.2015 1.5742.6047.4094.4032.614 1.011.614 1.8235v4.755h-1.3803v-4.6257c0-.4801-.1308-.8279-.3924-1.0433-.2616-.2155-.574-.3232-.9371-.3232-.4494 0-.7987.1385-1.048.4155-.2493.2739-.3739.6263-.3739 1.0572v4.5195h-1.3757v-4.7134c0-.3847-.12-.694-.3601-.9279s-.5524-.3509-.9372-.3509c-.2616 0-.5031.0693-.7247.2078-.2186.1354-.3955.3246-.5309.5678-.1324.2431-.1985.5247-.1985.8448v4.3718zm13.5529.157c-.4494 0-.8556-.0831-1.2188-.2493-.3632-.1693-.6509-.414-.8633-.734-.2093-.3201-.3139-.7125-.3139-1.1773 0-.4.0769-.7294.2308-.9879s.3617-.4632.6233-.614.5539-.2646.8771-.3416c.3231-.0769.6524-.1354.9879-.1754.4247-.0493.7694-.0893 1.0341-.12.2647-.0339.457-.0878.5771-.1616.12-.0739.18-.1939.18-.3601v-.0323c0-.4032-.1139-.7156-.3416-.9372-.2247-.2216-.5601-.3324-1.0064-.3324-.4647 0-.831.1031-1.0987.3094-.2647.2031-.4478.4293-.5494.6786l-1.2972-.2955c.1539-.4309.3785-.7786.674-1.0433.2985-.2678.6417-.4617 1.0295-.5817.3877-.1231.7955-.1846 1.2233-.1846.2832 0 .5832.0338.9002.1015.3201.0647.6186.1847.8956.3601.2801.1754.5094.4263.6879.7525.1785.3231.2677.7432.2677 1.2603v4.7088h-1.348v-.9695h-.0554c-.0892.1785-.2231.354-.4016.5263-.1785.1724-.4078.3155-.6879.4294-.28.1138-.6155.1708-1.0063.1708zm.3-1.108c.3817 0 .7079-.0754.9787-.2262.2739-.1508.4817-.3478.6232-.5909.1447-.2462.217-.5094.217-.7894v-.9141c-.0492.0493-.1446.0954-.2862.1385-.1385.04-.297.0754-.4755.1062-.1785.0277-.3524.0538-.5217.0785-.1692.0215-.3108.04-.4247.0554-.2677.0338-.5124.0908-.734.1708-.2185.08-.3939.1954-.5263.3462-.1292.1477-.1939.3447-.1939.5909 0 .3416.1262.6002.3786.7756.2524.1723.574.2585.9648.2585zm5.0378.951v-7.0909h1.3803v7.0909zm.697-8.185c-.24 0-.4462-.08-.6186-.2401-.1692-.1631-.2539-.357-.2539-.5816 0-.2278.0847-.4217.2539-.5817.1724-.1631.3786-.2447.6186-.2447.2401 0 .4448.0816.614.2447.1724.16.2586.3539.2586.5817 0 .2246-.0862.4185-.2586.5816-.1692.1601-.3739.2401-.614.2401zm3.9206-1.2695v9.4545h-1.3803v-9.4545zm7.361 9.6115c-.4494 0-.8556-.0831-1.2188-.2493-.3632-.1693-.6509-.414-.8633-.734-.2092-.3201-.3139-.7125-.3139-1.1773 0-.4.077-.7294.2308-.9879.1539-.2585.3617-.4632.6233-.614s.5539-.2646.8771-.3416c.3231-.0769.6525-.1354.9879-.1754.4247-.0493.7694-.0893 1.0341-.12.2647-.0339.457-.0878.5771-.1616.12-.0739.18-.1939.18-.3601v-.0323c0-.4032-.1139-.7156-.3416-.9372-.2247-.2216-.5601-.3324-1.0064-.3324-.4647 0-.831.1031-1.0987.3094-.2647.2031-.4478.4293-.5494.6786l-1.2972-.2955c.1539-.4309.3785-.7786.674-1.0433.2985-.2678.6417-.4617 1.0295-.5817.3877-.1231.7955-.1846 1.2233-.1846.2832 0 .5832.0338.9002.1015.3201.0647.6187.1847.8956.3601.2801.1754.5094.4263.6879.7525.1785.3231.2675.7432.2675 1.2603v4.7088h-1.3478v-.9695h-.0554c-.0892.1785-.2231.354-.4016.5263-.1785.1724-.4078.3155-.6878.4294-.2801.1138-.6156.1708-1.0064.1708zm.3-1.108c.3817 0 .7079-.0754.9787-.2262.2739-.1508.4817-.3478.6233-.5909.1446-.2462.2169-.5094.2169-.7894v-.9141c-.0492.0493-.1446.0954-.2862.1385-.1385.04-.297.0754-.4755.1062-.1785.0277-.3524.0538-.5217.0785-.1692.0215-.3108.04-.4247.0554-.2677.0338-.5124.0908-.734.1708-.2185.08-.3939.1954-.5263.3462-.1292.1477-.1939.3447-.1939.5909 0 .3416.1262.6002.3786.7756.2524.1723.574.2585.9648.2585zm7.692 1.0895c-.572 0-1.083-.1462-1.532-.4386-.447-.2954-.798-.7155-1.053-1.2603-.252-.5478-.379-1.2049-.379-1.9712s.128-1.4219.384-1.9666c.258-.5448.612-.9618 1.061-1.2511.45-.2893.959-.4339 1.528-.4339.441 0 .795.0738 1.062.2216.271.1446.48.3139.628.5078.151.1939.268.3647.351.5124h.083v-3.5131h1.38v9.4545h-1.348v-1.1033h-.115c-.083.1508-.203.3231-.36.517-.154.1939-.366.3632-.637.5078-.271.1447-.622.217-1.053.217zm.305-1.1772c.397 0 .732-.1046 1.006-.3139.277-.2124.487-.5063.628-.8818.145-.3754.217-.8125.217-1.3111 0-.4924-.071-.9233-.212-1.2926-.142-.3693-.35-.657-.623-.8632-.274-.2063-.613-.3094-1.016-.3094-.416 0-.762.1078-1.039.3232s-.486.5094-.628.8817c-.138.3724-.207.7925-.207 1.2603 0 .474.07.9003.212 1.2788.142.3786.351.6786.628.9002.28.2185.625.3278 1.034.3278zm7.833 1.1772c-.573 0-1.083-.1462-1.533-.4386-.446-.2954-.797-.7155-1.052-1.2603-.253-.5478-.379-1.2049-.379-1.9712s.128-1.4219.383-1.9666c.259-.5448.613-.9618 1.062-1.2511s.959-.4339 1.528-.4339c.44 0 .794.0738 1.062.2216.271.1446.48.3139.628.5078.151.1939.268.3647.351.5124h.083v-3.5131h1.38v9.4545h-1.348v-1.1033h-.115c-.083.1508-.203.3231-.36.517-.154.1939-.367.3632-.638.5078-.27.1447-.621.217-1.052.217zm.305-1.1772c.397 0 .732-.1046 1.006-.3139.277-.2124.486-.5063.628-.8818.145-.3754.217-.8125.217-1.3111 0-.4924-.071-.9233-.213-1.2926-.141-.3693-.349-.657-.623-.8632-.274-.2063-.612-.3094-1.015-.3094-.416 0-.762.1078-1.039.3232s-.486.5094-.628.8817c-.138.3724-.208.7925-.208 1.2603 0 .474.071.9003.213 1.2788.141.3786.351.6786.628.9002.28.2185.624.3278 1.034.3278zm5.178 1.0387v-7.0909h1.334v1.1264h.074c.129-.3816.357-.6817.683-.9002.33-.2216.702-.3324 1.118-.3324.086 0 .187.0031.304.0092.12.0062.214.0139.282.0231v1.3203c-.055-.0153-.154-.0323-.296-.0507-.141-.0216-.283-.0324-.424-.0324-.327 0-.617.0693-.873.2078-.252.1354-.452.3247-.6.5678-.148.2401-.222.514-.222.8217v4.3303zm7.792.1431c-.699 0-1.301-.1493-1.805-.4478-.502-.3016-.89-.7248-1.164-1.2695-.271-.5478-.406-1.1895-.406-1.9251 0-.7263.135-1.3665.406-1.9204.274-.554.656-.9864 1.145-1.2973.493-.3108 1.068-.4662 1.727-.4662.4 0 .788.0661 1.163.1985.375.1323.712.3401 1.011.6232s.534.6509.706 1.1033c.173.4494.259.9957.259 1.6389v.4893h-5.637v-1.0341h4.284c0-.3631-.074-.6847-.221-.9648-.148-.2832-.356-.5063-.624-.6694-.264-.1631-.575-.2447-.932-.2447-.388 0-.726.0954-1.016.2863-.286.1877-.508.4339-.664.7386-.154.3016-.231.6294-.231.9833v.8079c0 .4739.083.8771.249 1.2095.169.3324.405.5863.706.7617.302.1724.654.2585 1.057.2585.262 0 .501-.0369.716-.1108.215-.0769.402-.1908.559-.3416s.277-.337.36-.5586l1.306.2355c-.104.3847-.292.7217-.563 1.011-.268.2862-.605.5093-1.011.6694-.403.1569-.863.2354-1.38.2354zm9.887-5.5028-1.251.2216c-.052-.1601-.136-.3124-.249-.4571-.111-.1446-.262-.2631-.453-.3554-.191-.0924-.429-.1385-.715-.1385-.391 0-.717.0877-.979.2631-.262.1724-.392.3955-.392.6694 0 .237.087.4278.263.5724.175.1447.458.2632.849.3555l1.127.2585c.652.1508 1.138.3832 1.458.6971s.48.7217.48 1.2234c0 .4247-.123.8033-.369 1.1356-.243.3293-.583.5879-1.02.7756-.434.1877-.937.2816-1.51.2816-.794 0-1.442-.1693-1.943-.5078-.502-.3416-.81-.8264-.924-1.4542l1.335-.2031c.083.3478.254.6109.512.7894.259.1754.596.2631 1.011.2631.452 0 .814-.0938 1.085-.2816.271-.1908.406-.4231.406-.6971 0-.2215-.083-.4077-.249-.5585-.163-.1509-.414-.2647-.753-.3417l-1.2-.2631c-.662-.1508-1.151-.3909-1.468-.7202-.314-.3293-.471-.7463-.471-1.251 0-.4186.117-.7848.351-1.0988.234-.3139.557-.5586.97-.734.412-.1785.884-.2677 1.417-.2677.766 0 1.369.1662 1.809.4985.441.3293.731.771.873 1.325zm6.97 0-1.251.2216c-.053-.1601-.136-.3124-.25-.4571-.11-.1446-.261-.2631-.452-.3554-.191-.0924-.429-.1385-.716-.1385-.391 0-.717.0877-.978.2631-.262.1724-.393.3955-.393.6694 0 .237.088.4278.263.5724.176.1447.459.2632.85.3555l1.126.2585c.653.1508 1.139.3832 1.459.6971s.48.7217.48 1.2234c0 .4247-.123.8033-.369 1.1356-.243.3293-.583.5879-1.02.7756-.434.1877-.938.2816-1.51.2816-.794 0-1.442-.1693-1.944-.5078-.501-.3416-.809-.8264-.923-1.4542l1.334-.2031c.083.3478.254.6109.513.7894.258.1754.595.2631 1.011.2631.452 0 .814-.0938 1.085-.2816.27-.1908.406-.4231.406-.6971 0-.2215-.083-.4077-.249-.5585-.163-.1509-.414-.2647-.753-.3417l-1.2-.2631c-.662-.1508-1.151-.3909-1.468-.7202-.314-.3293-.471-.7463-.471-1.251 0-.4186.117-.7848.351-1.0988.234-.3139.557-.5586.969-.734.413-.1785.885-.2677 1.418-.2677.766 0 1.369.1662 1.809.4985.44.3293.731.771.873 1.325zm4.712 5.5028c-.699 0-1.3-.1493-1.805-.4478-.502-.3016-.89-.7248-1.163-1.2695-.271-.5478-.407-1.1895-.407-1.9251 0-.7263.136-1.3665.407-1.9204.273-.554.655-.9864 1.144-1.2973.493-.3108 1.068-.4662 1.727-.4662.4 0 .788.0661 1.163.1985.376.1323.713.3401 1.011.6232.299.2831.534.6509.707 1.1033.172.4494.258.9957.258 1.6389v.4893h-5.637v-1.0341h4.285c0-.3631-.074-.6847-.222-.9648-.148-.2832-.355-.5063-.623-.6694-.265-.1631-.576-.2447-.933-.2447-.388 0-.726.0954-1.015.2863-.287.1877-.508.4339-.665.7386-.154.3016-.231.6294-.231.9833v.8079c0 .4739.083.8771.249 1.2095.17.3324.405.5863.707.7617.301.1724.654.2585 1.057.2585.261 0 .5-.0369.715-.1108.216-.0769.402-.1908.559-.3416s.277-.337.36-.5586l1.306.2355c-.104.3847-.292.7217-.563 1.011-.267.2862-.604.5093-1.011.6694-.403.1569-.863.2354-1.38.2354zm9.887-5.5028-1.251.2216c-.052-.1601-.135-.3124-.249-.4571-.111-.1446-.262-.2631-.452-.3554-.191-.0924-.43-.1385-.716-.1385-.391 0-.717.0877-.979.2631-.261.1724-.392.3955-.392.6694 0 .237.088.4278.263.5724.175.1447.459.2632.849.3555l1.127.2585c.652.1508 1.139.3832 1.459.6971s.48.7217.48 1.2234c0 .4247-.123.8033-.37 1.1356-.243.3293-.583.5879-1.02.7756-.434.1877-.937.2816-1.509.2816-.794 0-1.442-.1693-1.944-.5078-.502-.3416-.809-.8264-.923-1.4542l1.334-.2031c.083.3478.254.6109.512.7894.259.1754.596.2631 1.011.2631.453 0 .814-.0938 1.085-.2816.271-.1908.407-.4231.407-.6971 0-.2215-.084-.4077-.25-.5585-.163-.1509-.414-.2647-.752-.3417l-1.201-.2631c-.661-.1508-1.151-.3909-1.468-.7202-.313-.3293-.47-.7463-.47-1.251 0-.4186.116-.7848.35-1.0988.234-.3139.557-.5586.97-.734.412-.1785.885-.2677 1.417-.2677.766 0 1.37.1662 1.81.4985.44.3293.731.771.872 1.325zm8.472-1.7312v1.1079h-4.008v-1.1079zm-2.909 7.0909v-7.9126c0-.4432.097-.811.291-1.1034.194-.2954.451-.5155.771-.6601.32-.1478.668-.2216 1.043-.2216.277 0 .514.0231.711.0692.197.0431.343.0831.439.12l-.323 1.1172c-.065-.0184-.148-.04-.25-.0646-.101-.0277-.224-.0415-.369-.0415-.335 0-.576.0831-.72.2492-.142.1662-.213.4063-.213.7202v7.728zm7.04.1431c-.664 0-1.245-.1523-1.74-.457-.496-.3047-.88-.731-1.154-1.2788s-.411-1.188-.411-1.9204c0-.7356.137-1.3788.411-1.9297s.658-.9787 1.154-1.2834c.495-.3047 1.076-.457 1.74-.457.665 0 1.245.1523 1.741.457.495.3047.88.7325 1.154 1.2834s.411 1.1941.411 1.9297c0 .7324-.137 1.3726-.411 1.9204s-.659.9741-1.154 1.2788c-.496.3047-1.076.457-1.741.457zm.005-1.1587c.431 0 .788-.1139 1.071-.3416.283-.2278.492-.5309.628-.9095.138-.3785.207-.7956.207-1.2511 0-.4524-.069-.8679-.207-1.2464-.136-.3816-.345-.6879-.628-.9187s-.64-.3462-1.071-.3462c-.434 0-.794.1154-1.08.3462-.284.2308-.494.5371-.633.9187-.135.3785-.203.794-.203 1.2464 0 .4555.068.8726.203 1.2511.139.3786.349.6817.633.9095.286.2277.646.3416 1.08.3416zm9.333-1.9251v-4.1502h1.385v7.0909h-1.357v-1.228h-.074c-.163.3786-.425.694-.785.9464-.357.2493-.801.3739-1.334.3739-.455 0-.859-.1-1.209-.3-.348-.2032-.622-.5032-.822-.9003-.197-.397-.296-.8879-.296-1.4726v-4.5103h1.381v4.3441c0 .4832.134.8679.401 1.1541.268.2862.616.4293 1.044.4293.258 0 .515-.0646.771-.1938.258-.1293.472-.3247.641-.5863.173-.2616.257-.594.254-.9972zm4.62-1.2695v4.2102h-1.38v-7.0909h1.325v1.1541h.088c.163-.3755.418-.6771.766-.9048.351-.2278.792-.3416 1.325-.3416.483 0 .906.1015 1.269.3046.363.2001.645.4986.845.8956.2.3971.3.8879.3 1.4727v4.5103h-1.38v-4.3441c0-.514-.134-.9156-.402-1.2049-.268-.2924-.635-.4386-1.103-.4386-.32 0-.605.0693-.854.2078-.246.1385-.442.3416-.586.6093-.142.2647-.213.5848-.213.9603zm9.044 4.3487c-.573 0-1.083-.1462-1.533-.4386-.446-.2954-.797-.7155-1.052-1.2603-.253-.5478-.379-1.2049-.379-1.9712s.128-1.4219.383-1.9666c.259-.5448.613-.9618 1.062-1.2511s.959-.4339 1.528-.4339c.44 0 .794.0738 1.062.2216.271.1446.48.3139.628.5078.151.1939.267.3647.351.5124h.083v-3.5131h1.38v9.4545h-1.348v-1.1033h-.115c-.084.1508-.204.3231-.36.517-.154.1939-.367.3632-.638.5078-.27.1447-.621.217-1.052.217zm.305-1.1772c.397 0 .732-.1046 1.006-.3139.277-.2124.486-.5063.628-.8818.144-.3754.217-.8125.217-1.3111 0-.4924-.071-.9233-.213-1.2926-.141-.3693-.349-.657-.623-.8632-.274-.2063-.612-.3094-1.015-.3094-.416 0-.762.1078-1.039.3232s-.486.5094-.628.8817c-.138.3724-.208.7925-.208 1.2603 0 .474.071.9003.213 1.2788.141.3786.35.6786.627.9002.281.2185.625.3278 1.035.3278z" fill="#28323b"/><path d="m43.7216 83.2727 2.429 7.108h.098l2.429-7.108h1.4233l-3.1407 8.7273h-1.5213l-3.1406-8.7273zm8.7976 8.8722c-.4148 0-.7898-.0767-1.125-.2301-.3353-.1563-.6009-.3821-.7969-.6776-.1932-.2954-.2898-.6577-.2898-1.0866 0-.3694.0711-.6733.2131-.912.142-.2386.3338-.4275.5753-.5667s.5113-.2443.8096-.3154c.2983-.071.6023-.125.912-.1619.392-.0455.7102-.0824.9545-.1108.2443-.0312.4219-.081.5327-.1491.1108-.0682.1662-.179.1662-.3324v-.0299c0-.3721-.1051-.6605-.3154-.865-.2073-.2046-.517-.3068-.9289-.3068-.429 0-.7671.0951-1.0142.2855-.2444.1875-.4134.3963-.5071.6264l-1.1975-.2727c.1421-.3978.3494-.7188.6222-.9631.2755-.2472.5923-.4261.9503-.5369.3579-.1137.7343-.1705 1.1292-.1705.2614 0 .5384.0313.831.0938.2954.0596.571.1704.8267.3324.2585.1619.4702.3934.6349.6946.1648.2983.2472.686.2472 1.1633v4.3466h-1.2443v-.8949h-.0512c-.0824.1648-.2059.3267-.3707.4858s-.3764.2912-.6349.3963c-.2586.1051-.5682.1577-.929.1577zm.277-1.0227c.3522 0 .6534-.0696.9034-.2088.2528-.1393.4446-.3211.5753-.5455.1335-.2273.2002-.4702.2002-.7287v-.8437c-.0454.0454-.1335.088-.2642.1278-.1278.0369-.2741.0696-.4389.098-.1648.0256-.3253.0497-.4815.0725-.1563.0198-.2869.0369-.3921.0511-.2471.0312-.473.0838-.6775.1577-.2017.0738-.3637.1804-.4858.3196-.1193.1363-.179.3181-.179.5454 0 .3154.1165.554.3494.7159.233.1591.5299.2387.8907.2387zm5.9243-7.8495v8.7273h-1.2741v-8.7273zm1.7142 8.7273v-6.5455h1.2741v6.5455zm.6434-7.5554c-.2216 0-.4119-.0739-.571-.2216-.1562-.1506-.2344-.3295-.2344-.5369 0-.2102.0782-.3892.2344-.537.1591-.1505.3494-.2258.571-.2258s.4105.0753.5668.2258c.1591.1478.2386.3268.2386.537 0 .2074-.0795.3863-.2386.5369-.1563.1477-.3452.2216-.5668.2216zm4.7951 7.6832c-.5284 0-1-.1349-1.4147-.4048-.412-.2727-.7358-.6605-.9716-1.1633-.233-.5057-.3495-1.1123-.3495-1.8196 0-.7074.1179-1.3125.3537-1.8154.2387-.5028.5654-.8878.9801-1.1548.4148-.2671.885-.4006 1.4105-.4006.4063 0 .733.0682.9802.2046.25.1335.4431.2897.5795.4687.1392.179.2472.3367.3239.473h.0767v-3.2429h1.2741v8.7273h-1.2443v-1.0185h-.1065c-.0767.1392-.1875.2983-.3324.4773-.1421.179-.3381.3352-.5881.4688-.25.1335-.5738.2002-.9716.2002zm.2813-1.0866c.3665 0 .6761-.0966.929-.2898.2556-.196.4488-.4673.5795-.8139.1335-.3466.2003-.75.2003-1.2102 0-.4546-.0654-.8523-.196-1.1932-.1307-.3409-.3225-.6065-.5753-.7969-.2529-.1903-.5654-.2855-.9375-.2855-.3835 0-.7032.0994-.9588.2983-.2557.1989-.4489.4702-.5796.8139-.1278.3438-.1917.7316-.1917 1.1634 0 .4375.0653.8309.196 1.1804.1307.3494.3238.6264.5795.8309.2586.2017.5767.3026.9546.3026z" fill="#28323b"/><path d="m43.696 120h-1.3977l3.1406-8.727h1.5213l3.1407 8.727h-1.3978l-2.4673-7.142h-.0682zm.2344-3.418h4.5341v1.108h-4.5341zm9.9801 3.55c-.6335 0-1.179-.143-1.6364-.43-.4545-.29-.8039-.689-1.0482-1.198-.2444-.508-.3665-1.091-.3665-1.747 0-.665.125-1.251.375-1.76.25-.511.6022-.91 1.0568-1.197.4545-.287.9901-.431 1.6065-.431.4972 0 .9404.093 1.3296.277.3892.182.7031.438.9417.767.2415.33.385.715.4304 1.155h-1.24c-.0682-.307-.2245-.571-.4688-.792-.2415-.222-.5653-.333-.9716-.333-.3551 0-.6662.094-.9332.281-.2642.185-.4702.449-.6179.793-.1477.341-.2216.744-.2216 1.21 0 .478.0725.889.2173 1.236.1449.347.3495.615.6137.805.267.191.5809.286.9417.286.2415 0 .4603-.044.6563-.132.1988-.091.365-.22.4986-.388.1363-.168.2315-.369.2855-.605h1.24c-.0454.423-.1832.801-.4133 1.133-.2301.333-.5384.594-.9247.785-.3836.19-.8338.285-1.3509.285zm6.8086 0c-.6335 0-1.179-.143-1.6364-.43-.4545-.29-.8039-.689-1.0483-1.198-.2443-.508-.3664-1.091-.3664-1.747 0-.665.125-1.251.375-1.76.25-.511.6022-.91 1.0568-1.197.4545-.287.99-.431 1.6065-.431.4972 0 .9404.093 1.3296.277.3892.182.7031.438.9417.767.2415.33.385.715.4304 1.155h-1.24c-.0682-.307-.2245-.571-.4688-.792-.2415-.222-.5653-.333-.9716-.333-.3551 0-.6662.094-.9332.281-.2642.185-.4702.449-.6179.793-.1477.341-.2216.744-.2216 1.21 0 .478.0724.889.2173 1.236s.3495.615.6137.805c.267.191.5809.286.9417.286.2415 0 .4603-.044.6563-.132.1988-.091.365-.22.4986-.388.1363-.168.2315-.369.2855-.605h1.24c-.0454.423-.1832.801-.4133 1.133-.2301.333-.5384.594-.9247.785-.3836.19-.8338.285-1.3509.285zm6.8725 0c-.6449 0-1.2003-.138-1.6662-.413-.463-.279-.821-.669-1.0738-1.172-.25-.506-.375-1.098-.375-1.777 0-.671.125-1.261.375-1.773.2528-.511.6051-.91 1.0568-1.197.4545-.287.9858-.431 1.5937-.431.3693 0 .7273.061 1.0739.184.3466.122.6577.313.9332.575.2756.261.4929.601.652 1.018.1591.415.2387.919.2387 1.513v.452h-5.2032v-.955h3.9546c0-.335-.0682-.632-.2046-.89-.1363-.262-.3281-.468-.5753-.618-.2443-.151-.5312-.226-.8607-.226-.358 0-.6705.088-.9375.264-.2643.173-.4688.401-.6137.682-.142.278-.2131.581-.2131.908v.745c0 .438.0768.81.2302 1.117.1562.307.3735.541.652.703.2784.159.6036.239.9758.239.2415 0 .4617-.035.6605-.103.1989-.071.3708-.176.5156-.315.1449-.139.2557-.311.3324-.516l1.206.218c-.0966.355-.2699.666-.5199.933-.2472.264-.5582.47-.9332.618-.3722.145-.7969.217-1.2742.217zm4.222 2.323v-9h1.2443v1.061h.1065c.0739-.137.1804-.294.3196-.473s.3324-.336.5796-.469c.2471-.136.5738-.205.9801-.205.5284 0 1 .134 1.4148.401.4147.267.74.652.9758 1.155.2386.503.358 1.108.358 1.815s-.1179 1.314-.3537 1.82c-.2358.502-.5597.89-.9716 1.163-.412.27-.8821.405-1.4105.405-.3978 0-.723-.067-.9759-.2-.25-.134-.446-.29-.5881-.469-.142-.179-.2514-.338-.3281-.477h-.0767v3.473zm1.2485-5.728c0 .46.0668.864.2003 1.211.1336.346.3267.617.5796.813.2528.194.5625.29.929.29.3806 0 .6988-.101.9545-.302.2557-.205.4489-.482.5795-.831.1336-.35.2003-.743.2003-1.181 0-.432-.0653-.819-.196-1.163-.1278-.344-.321-.615-.5795-.814-.2557-.199-.5753-.298-.9588-.298-.3694 0-.6819.095-.9375.285-.2529.191-.4447.456-.5753.797-.1307.341-.1961.739-.1961 1.193zm9.2131-3.272v1.022h-3.5753v-1.022zm-2.6165-1.569h1.2742v6.192c0 .247.0369.433.1108.558.0738.123.169.206.2855.252.1193.042.2486.064.3878.064.1022 0 .1917-.007.2684-.022.0767-.014.1364-.025.179-.034l.2301 1.053c-.0738.028-.1789.057-.3153.085-.1364.031-.3068.048-.5114.051-.3352.006-.6477-.054-.9375-.179-.2897-.125-.5241-.318-.7031-.579-.179-.262-.2685-.59-.2685-.985zm8.0412 8.114h-1.3977l3.1406-8.727h1.5213l3.1407 8.727h-1.3978l-2.4673-7.142h-.0682zm.2344-3.418h4.5341v1.108h-4.5341zm8.6026-5.309v8.727h-1.2741v-8.727zm2.9883 0v8.727h-1.2741v-8.727z" fill="#28323b"/><path d="m50.0028 139.273v8.727h-1.2102l-4.4361-6.401h-.0809v6.401h-1.3168v-8.727h1.2188l4.4403 6.409h.081v-6.409zm4.5757 8.859c-.6137 0-1.1492-.141-1.6066-.422-.4573-.281-.8125-.674-1.0653-1.18s-.3793-1.097-.3793-1.773c0-.679.1265-1.273.3793-1.781.2528-.509.608-.904 1.0653-1.185.4574-.281.9929-.422 1.6066-.422.6136 0 1.1491.141 1.6065.422s.8125.676 1.0654 1.185c.2528.508.3792 1.102.3792 1.781 0 .676-.1264 1.267-.3792 1.773-.2529.506-.608.899-1.0654 1.18s-.9929.422-1.6065.422zm.0042-1.07c.3978 0 .7273-.105.9887-.315.2613-.21.4545-.49.5795-.839.1279-.35.1918-.735.1918-1.155 0-.418-.0639-.801-.1918-1.151-.125-.352-.3182-.635-.5795-.848-.2614-.213-.5909-.319-.9887-.319-.4005 0-.7329.106-.9971.319-.2614.213-.456.496-.5838.848-.125.35-.1875.733-.1875 1.151 0 .42.0625.805.1875 1.155.1278.349.3224.629.5838.839.2642.21.5966.315.9971.315zm7.5245-5.607v1.022h-3.5752v-1.022zm-2.6164-1.569h1.2741v6.192c0 .247.0369.433.1108.558.0739.123.169.206.2855.252.1193.042.2486.064.3878.064.1023 0 .1918-.007.2685-.022.0767-.014.1363-.025.1789-.034l.2302 1.053c-.0739.028-.179.057-.3154.085-.1363.031-.3068.048-.5113.051-.3353.006-.6478-.054-.9375-.179-.2898-.125-.5242-.318-.7032-.579-.1789-.262-.2684-.59-.2684-.985zm7.3039 8.114v-8.727h5.412v1.133h-4.0952v2.659h3.7074v1.13h-3.7074v3.805zm9.2057.132c-.6137 0-1.1492-.141-1.6066-.422s-.8125-.674-1.0653-1.18c-.2529-.506-.3793-1.097-.3793-1.773 0-.679.1264-1.273.3793-1.781.2528-.509.6079-.904 1.0653-1.185s.9929-.422 1.6066-.422c.6136 0 1.1491.141 1.6065.422s.8125.676 1.0653 1.185c.2529.508.3793 1.102.3793 1.781 0 .676-.1264 1.267-.3793 1.773-.2528.506-.6079.899-1.0653 1.18s-.9929.422-1.6065.422zm.0042-1.07c.3977 0 .7273-.105.9887-.315.2613-.21.4545-.49.5795-.839.1278-.35.1918-.735.1918-1.155 0-.418-.064-.801-.1918-1.151-.125-.352-.3182-.635-.5795-.848-.2614-.213-.591-.319-.9887-.319-.4006 0-.7329.106-.9971.319-.2614.213-.456.496-.5838.848-.125.35-.1875.733-.1875 1.151 0 .42.0625.805.1875 1.155.1278.349.3224.629.5838.839.2642.21.5965.315.9971.315zm8.6154-1.776v-3.831h1.2784v6.545h-1.2528v-1.134h-.0682c-.1506.35-.392.641-.7244.874-.3296.23-.7401.345-1.2316.345-.4204 0-.7926-.092-1.1164-.277-.3211-.187-.5739-.464-.7586-.831-.1818-.366-.2727-.819-.2727-1.359v-4.163h1.2742v4.009c0 .447.1235.802.3707 1.066s.5682.396.9631.396c.2386 0 .4758-.06.7116-.179.2387-.119.4361-.3.5924-.541.159-.242.2372-.548.2343-.92zm4.2646-1.172v3.886h-1.2742v-6.545h1.2231v1.065h.0809c.1506-.347.3864-.625.7074-.835.3239-.211.7315-.316 1.223-.316.446 0 .8367.094 1.1719.282.3352.184.5952.46.7798.826.1847.367.277.82.277 1.36v4.163h-1.2741v-4.01c0-.474-.1236-.845-.3708-1.112-.2471-.27-.5866-.405-1.0184-.405-.2955 0-.5583.064-.7884.192-.2273.128-.4077.315-.5412.562-.1307.245-.196.54-.196.887zm8.348 4.014c-.5284 0-1-.135-1.4148-.405-.4119-.273-.7358-.661-.9716-1.163-.2329-.506-.3494-1.113-.3494-1.82s.1179-1.312.3537-1.815c.2386-.503.5653-.888.9801-1.155s.885-.401 1.4105-.401c.4063 0 .733.069.9801.205.25.133.4432.29.5796.469.1392.179.2471.336.3238.473h.0767v-3.243h1.2737v8.727h-1.2438v-1.018h-.1066c-.0767.139-.1875.298-.3323.477-.1421.179-.3381.335-.5881.469-.25.133-.5739.2-.9716.2zm.2812-1.087c.3665 0 .6762-.096.929-.29.2557-.196.4489-.467.5796-.813.1335-.347.2003-.751.2003-1.211 0-.454-.0654-.852-.1961-1.193-.1306-.341-.3224-.606-.5753-.797-.2528-.19-.5653-.285-.9375-.285-.3835 0-.7031.099-.9588.298-.2556.199-.4488.47-.5795.814-.1278.344-.1918.731-.1918 1.163 0 .438.0654.831.1961 1.181.1306.349.3238.626.5795.831.2585.201.5767.302.9545.302z" fill="#28323b"/><circle cx="35" cy="88" fill="#24a522" r="3"/><circle cx="35" cy="116" fill="#e0b115" r="3"/><circle cx="35" cy="144" fill="#707880" r="3"/><rect fill="#eef0f3" height="10" rx="1" width="104" x="110" y="139"/><rect fill="#eef0f3" height="10" rx="1" width="112" x="109" y="111"/><rect fill="#eef0f3" height="10" rx="1" width="124" x="79" y="83"/><path d="m321.529 161.471c8.886 2.381 18.182 2.807 27.248 1.249 9.067-1.558 17.688-5.062 25.269-10.273 7.581-5.21 13.943-12.003 18.646-19.909 4.704-7.905 7.637-16.737 8.599-25.886.962-9.1487-.072-18.3973-3.029-27.1083-2.957-8.7111-7.767-16.6775-14.099-23.3504-6.333-6.6729-14.037-11.8936-22.581-15.3024-8.544-3.4089-17.726-4.9248-26.913-4.4434l.833 15.8881c6.89-.361 13.776.7759 20.185 3.3325 6.408 2.5567 12.186 6.4722 16.935 11.4769 4.749 5.0046 8.357 10.9795 10.575 17.5127 2.217 6.5333 2.992 13.4697 2.271 20.3313-.721 6.862-2.921 13.485-6.449 19.415-3.527 5.929-8.299 11.023-13.985 14.931s-12.151 6.537-18.951 7.705c-6.8 1.169-13.772.849-20.436-.937z" fill="#57c555"/><path d="m321.529 161.471c8.886 2.381 18.182 2.807 27.248 1.249 9.067-1.558 17.688-5.062 25.269-10.273 7.581-5.21 13.943-12.003 18.646-19.909 4.704-7.905 7.637-16.737 8.599-25.886.962-9.1487-.072-18.3973-3.029-27.1083-2.957-8.7111-7.767-16.6775-14.099-23.3504-6.333-6.6729-14.037-11.8936-22.581-15.3024-8.544-3.4089-17.726-4.9248-26.913-4.4434l.833 15.8881c6.89-.361 13.776.7759 20.185 3.3325 6.408 2.5567 12.186 6.4722 16.935 11.4769 4.749 5.0046 8.357 10.9795 10.575 17.5127 2.217 6.5333 2.992 13.4697 2.271 20.3313-.721 6.862-2.921 13.485-6.449 19.415-3.527 5.929-8.299 11.023-13.985 14.931s-12.151 6.537-18.951 7.705c-6.8 1.169-13.772.849-20.436-.937z" mask="url(#d)" stroke="#fcfcfd" stroke-width="4"/><path d="m293 55c-7.819 7.8192-13.466 17.541-16.384 28.2072s-3.006 21.9088-.256 32.6198c2.75 10.71 8.243 20.519 15.939 28.461 7.695 7.941 17.327 13.74 27.946 16.825l4.439-15.278c-7.964-2.314-15.188-6.663-20.96-12.619s-9.892-13.313-11.954-21.346c-2.063-8.033-1.996-16.465.192-24.4646s6.424-15.291 12.288-21.1554z" fill="#f6d028"/><path d="m293 55c-7.819 7.8192-13.466 17.541-16.384 28.2072s-3.006 21.9088-.256 32.6198c2.75 10.71 8.243 20.519 15.939 28.461 7.695 7.941 17.327 13.74 27.946 16.825l4.439-15.278c-7.964-2.314-15.188-6.663-20.96-12.619s-9.892-13.313-11.954-21.346c-2.063-8.033-1.996-16.465.192-24.4646s6.424-15.291 12.288-21.1554z" mask="url(#e)" stroke="#fcfcfd" stroke-width="4"/><path d="m338 36.3604c-16.878 0-33.065 6.7049-45 18.6396l11.25 11.25c8.951-8.951 21.091-13.9797 33.75-13.9797z" fill="#a1a7ad"/><path d="m338 36.3604c-16.878 0-33.065 6.7049-45 18.6396l11.25 11.25c8.951-8.951 21.091-13.9797 33.75-13.9797z" mask="url(#f)" stroke="#fcfcfd" stroke-width="4"/></g><g filter="url(#b)"><rect fill="#fff" height="24" rx="4" width="94" x="291" y="153"/><path d="m300.896 161.727v7.273h-1.097v-7.273zm1.513 7.273v-5.455h1.019v.888h.068c.113-.3.299-.535.557-.703.258-.17.567-.256.927-.256.365 0 .67.086.916.256.249.171.432.405.551.703h.057c.13-.291.337-.523.621-.696.284-.175.623-.263 1.016-.263.494 0 .898.155 1.211.466.314.31.472.777.472 1.402v3.658h-1.062v-3.558c0-.37-.101-.637-.302-.803s-.441-.248-.721-.248c-.345 0-.614.106-.806.319-.192.211-.287.482-.287.813v3.477h-1.059v-3.626c0-.296-.092-.534-.277-.713-.184-.18-.425-.27-.721-.27-.201 0-.387.053-.557.159-.168.105-.304.25-.408.437-.102.187-.153.404-.153.65v3.363zm8.838 2.045v-7.5h1.037v.885h.089c.061-.114.15-.245.266-.394.116-.15.277-.28.483-.391.206-.114.478-.171.817-.171.44 0 .833.112 1.179.334.345.223.616.544.813.963.199.419.298.923.298 1.512 0 .59-.098 1.095-.295 1.517-.196.419-.466.742-.809.969-.343.225-.735.338-1.176.338-.331 0-.602-.056-.813-.167-.208-.112-.371-.242-.49-.391-.118-.149-.209-.282-.273-.398h-.064v2.894zm1.04-4.772c0 .383.056.719.167 1.008.112.289.273.515.483.679.211.161.469.241.774.241.318 0 .583-.084.796-.252.213-.171.374-.401.483-.693.111-.291.167-.619.167-.983 0-.36-.055-.683-.164-.97-.106-.286-.267-.512-.483-.678-.213-.166-.479-.249-.799-.249-.307 0-.568.08-.781.238-.21.159-.37.38-.479.664s-.164.616-.164.995zm7.429 2.837c-.511 0-.957-.117-1.338-.351-.381-.235-.677-.563-.888-.984-.211-.422-.316-.914-.316-1.477 0-.566.105-1.061.316-1.485s.507-.753.888-.987.827-.352 1.338-.352c.512 0 .958.118 1.339.352s.677.563.888.987.316.919.316 1.485c0 .563-.105 1.055-.316 1.477-.211.421-.507.749-.888.984-.381.234-.827.351-1.339.351zm.004-.891c.331 0 .606-.088.824-.263s.379-.408.483-.7c.106-.291.16-.612.16-.962 0-.348-.054-.668-.16-.959-.104-.293-.265-.529-.483-.706-.218-.178-.493-.267-.824-.267-.334 0-.611.089-.831.267-.218.177-.38.413-.486.706-.105.291-.157.611-.157.959 0 .35.052.671.157.962.106.292.268.525.486.7.22.175.497.263.831.263zm3.724.781v-5.455h1.027v.867h.056c.1-.294.275-.524.526-.693.253-.17.54-.255.859-.255.067 0 .145.002.235.007.092.005.164.011.216.018v1.015c-.042-.012-.118-.025-.227-.039-.109-.016-.218-.025-.327-.025-.251 0-.474.054-.671.16-.194.104-.348.25-.462.437-.113.185-.17.395-.17.632v3.331zm6.707-5.455v.853h-2.98v-.853zm-2.181-1.306h1.062v5.159c0 .206.031.361.092.466.062.101.141.171.238.209.1.036.207.053.323.053.086 0 .16-.005.224-.017s.114-.022.149-.029l.192.877c-.062.024-.149.048-.263.071-.113.026-.255.041-.426.043-.279.005-.54-.045-.781-.149-.242-.104-.437-.265-.586-.483s-.224-.491-.224-.82zm8.043 6.868c-.44 0-.833-.113-1.178-.338-.344-.227-.614-.55-.81-.969-.194-.422-.291-.927-.291-1.517 0-.589.098-1.093.294-1.512.199-.419.472-.74.817-.963.346-.222.738-.334 1.176-.334.338 0 .61.057.816.171.209.111.37.241.483.391.116.149.206.28.27.394h.064v-.885h1.062v5.455h-1.037v-.849h-.089c-.064.116-.156.249-.277.398-.118.149-.282.279-.49.391-.208.111-.478.167-.81.167zm.235-.906c.305 0 .563-.08.774-.241.213-.164.374-.39.483-.679.111-.289.167-.625.167-1.008 0-.379-.055-.711-.163-.995-.109-.284-.269-.505-.48-.664-.211-.158-.471-.238-.781-.238-.32 0-.586.083-.799.249s-.374.392-.483.678c-.107.287-.16.61-.16.97 0 .364.055.692.163.983.109.292.27.522.483.693.216.168.481.252.796.252zm8.071-3.324-.963.171c-.04-.124-.104-.241-.191-.352-.086-.111-.202-.202-.348-.273-.147-.071-.331-.107-.551-.107-.301 0-.551.068-.753.202-.201.133-.302.305-.302.515 0 .183.068.329.203.441.135.111.353.202.653.273l.867.199c.502.116.876.295 1.122.536.246.242.369.555.369.941 0 .327-.094.618-.284.874-.187.253-.448.452-.785.596-.333.145-.721.217-1.161.217-.611 0-1.109-.13-1.495-.391-.386-.262-.623-.635-.71-1.118l1.026-.156c.064.267.195.47.394.607.199.135.458.202.778.202.348 0 .626-.072.835-.216.208-.147.312-.326.312-.537 0-.17-.064-.313-.192-.429-.125-.116-.318-.204-.579-.263l-.923-.202c-.509-.116-.885-.301-1.129-.554-.242-.254-.362-.575-.362-.963 0-.322.09-.603.27-.845.179-.241.428-.43.745-.565.318-.137.681-.206 1.091-.206.589 0 1.053.128 1.392.384.338.253.562.593.671 1.019zm4.005 4.123v-7.273h1.098v6.328h3.295v.945zm7.911.11c-.538 0-1.001-.115-1.389-.344-.386-.232-.684-.558-.895-.977-.208-.421-.312-.915-.312-1.481 0-.558.104-1.051.312-1.477.211-.426.504-.759.881-.998.379-.239.821-.359 1.328-.359.308 0 .606.051.895.153s.548.262.778.48c.229.217.41.5.543.848.132.346.199.766.199 1.261v.376h-4.336v-.795h3.295c0-.279-.057-.527-.17-.742-.114-.218-.274-.39-.48-.515-.203-.126-.442-.188-.717-.188-.298 0-.559.073-.781.22-.22.144-.391.334-.512.568-.118.232-.177.484-.177.756v.622c0 .364.064.674.192.93.13.256.311.451.543.586.232.133.503.199.813.199.201 0 .385-.028.551-.085.165-.059.309-.147.429-.263.121-.116.213-.259.277-.43l1.005.181c-.08.296-.225.556-.433.778-.206.22-.465.392-.778.515-.31.121-.664.181-1.061.181zm5.56-.003c-.441 0-.834-.113-1.179-.338-.344-.227-.613-.55-.81-.969-.194-.422-.291-.927-.291-1.517 0-.589.098-1.093.295-1.512.199-.419.471-.74.816-.963.346-.222.738-.334 1.176-.334.338 0 .611.057.817.171.208.111.369.241.483.391.116.149.206.28.269.394h.064v-.885h1.062v5.455h-1.037v-.849h-.089c-.063.116-.156.249-.277.398-.118.149-.281.279-.49.391-.208.111-.478.167-.809.167zm.234-.906c.306 0 .564-.08.774-.241.213-.164.374-.39.483-.679.111-.289.167-.625.167-1.008 0-.379-.054-.711-.163-.995s-.269-.505-.48-.664c-.21-.158-.471-.238-.781-.238-.319 0-.586.083-.799.249s-.374.392-.483.678c-.106.287-.16.61-.16.97 0 .364.055.692.164.983.109.292.27.522.483.693.215.168.48.252.795.252zm6.026.906c-.441 0-.834-.113-1.179-.338-.344-.227-.614-.55-.81-.969-.194-.422-.291-.927-.291-1.517 0-.589.098-1.093.294-1.512.199-.419.472-.74.817-.963.346-.222.738-.334 1.176-.334.338 0 .61.057.816.171.209.111.37.241.483.391.116.149.206.28.27.394h.064v-2.703h1.062v7.273h-1.037v-.849h-.089c-.064.116-.156.249-.277.398-.118.149-.281.279-.49.391-.208.111-.478.167-.809.167zm.234-.906c.305 0 .563-.08.774-.241.213-.164.374-.39.483-.679.111-.289.167-.625.167-1.008 0-.379-.055-.711-.163-.995-.109-.284-.269-.505-.48-.664-.211-.158-.471-.238-.781-.238-.32 0-.586.083-.799.249s-.374.392-.483.678c-.107.287-.16.61-.16.97 0 .364.055.692.163.983.109.292.27.522.483.693.216.168.481.252.796.252zm8.071-3.324-.963.171c-.04-.124-.104-.241-.191-.352-.086-.111-.202-.202-.348-.273-.147-.071-.331-.107-.551-.107-.3 0-.551.068-.753.202-.201.133-.302.305-.302.515 0 .183.068.329.203.441.135.111.353.202.653.273l.867.199c.502.116.876.295 1.122.536.246.242.369.555.369.941 0 .327-.094.618-.284.874-.187.253-.448.452-.785.596-.333.145-.721.217-1.161.217-.611 0-1.109-.13-1.495-.391-.386-.262-.623-.635-.71-1.118l1.026-.156c.064.267.195.47.394.607.199.135.458.202.778.202.348 0 .626-.072.835-.216.208-.147.312-.326.312-.537 0-.17-.064-.313-.192-.429-.125-.116-.318-.204-.579-.263l-.923-.202c-.509-.116-.885-.301-1.129-.554-.242-.254-.362-.575-.362-.963 0-.322.09-.603.27-.845.18-.241.428-.43.745-.565.318-.137.681-.206 1.091-.206.589 0 1.053.128 1.392.384.338.253.562.593.671 1.019z" fill="#3a444f"/><rect height="23" rx="3.5" stroke="#dfe3e8" width="93" x="291.5" y="153.5"/></g></svg>