<svg fill="none" height="296" viewBox="0 0 414 296" width="414" xmlns="http://www.w3.org/2000/svg" xmlns:xlink="http://www.w3.org/1999/xlink"><filter id="a" color-interpolation-filters="sRGB" filterUnits="userSpaceOnUse" height="259" width="344" x="66" y="3"><feFlood flood-opacity="0" result="BackgroundImageFix"/><feGaussianBlur in="BackgroundImageFix" stdDeviation="4"/><feComposite in2="SourceAlpha" operator="in" result="effect1_backgroundBlur_674_3141"/><feBlend in="SourceGraphic" in2="effect1_backgroundBlur_674_3141" mode="normal" result="shape"/></filter><filter id="b" color-interpolation-filters="sRGB" filterUnits="userSpaceOnUse" height="267" width="352" x="62" y="0"><feFlood flood-opacity="0" result="BackgroundImageFix"/><feColorMatrix in="SourceAlpha" result="hardAlpha" type="matrix" values="0 0 0 0 0 0 0 0 0 0 0 0 0 0 0 0 0 0 127 0"/><feOffset dy="1"/><feGaussianBlur stdDeviation="6"/><feComposite in2="hardAlpha" operator="out"/><feColorMatrix type="matrix" values="0 0 0 0 0 0 0 0 0 0 0 0 0 0 0 0 0 0 0.05 0"/><feBlend in2="BackgroundImageFix" mode="normal" result="effect1_dropShadow_674_3141"/><feBlend in="SourceGraphic" in2="effect1_dropShadow_674_3141" mode="normal" result="shape"/></filter><filter id="c" color-interpolation-filters="sRGB" filterUnits="userSpaceOnUse" height="204" width="219" x="0" y="92"><feFlood flood-opacity="0" result="BackgroundImageFix"/><feColorMatrix in="SourceAlpha" result="hardAlpha" type="matrix" values="0 0 0 0 0 0 0 0 0 0 0 0 0 0 0 0 0 0 127 0"/><feOffset/><feGaussianBlur stdDeviation="4"/><feComposite in2="hardAlpha" operator="out"/><feColorMatrix type="matrix" values="0 0 0 0 0 0 0 0 0 0 0 0 0 0 0 0 0 0 0.12 0"/><feBlend in2="BackgroundImageFix" mode="normal" result="effect1_dropShadow_674_3141"/><feBlend in="SourceGraphic" in2="effect1_dropShadow_674_3141" mode="normal" result="shape"/></filter><g filter="url(#a)" opacity=".8"><g filter="url(#b)"><rect fill="#fff" height="243" rx="4" width="328" x="74" y="11"/><rect height="242" rx="3.5" stroke="#dfe3e8" width="327" x="74.5" y="11.5"/></g><path d="m243.305 29.5703c-.094-.0469-.211-.0703-.305-.0703-.117 0-.234.0234-.328.0703l-4.406 1.875c-.516.2344-.914.7266-.891 1.3359 0 2.3438.961 6.586 4.992 8.5313.399.1875.844.1875 1.242 0 4.032-1.9453 4.993-6.1875 5.016-8.5313 0-.6093-.398-1.1015-.914-1.3359zm2.343 4.8281-3 3c-.234.2344-.585.2344-.796 0l-1.5-1.5c-.235-.2109-.235-.5625 0-.7734.211-.2344.562-.2344.796 0l1.102 1.1016 2.602-2.625c.211-.211.562-.211.773 0 .234.2343.234.5859 0 .7968z" fill="#24a522"/><path d="m289.305 78.5703c-.094-.0469-.211-.0703-.305-.0703-.117 0-.234.0234-.328.0703l-4.406 1.875c-.516.2344-.914.7266-.891 1.3359 0 2.3438.961 6.586 4.992 8.5313.399.1875.844.1875 1.242 0 4.032-1.9453 4.993-6.1875 5.016-8.5313 0-.6093-.398-1.1015-.914-1.3359zm2.343 4.8281-3 3c-.234.2344-.585.2344-.796 0l-1.5-1.5c-.235-.2109-.235-.5625 0-.7734.211-.2344.562-.2344.796 0l1.102 1.1016 2.602-2.625c.211-.211.562-.211.773 0 .234.2343.234.5859 0 .7968z" fill="#24a522"/><path d="m247.305 127.57c-.094-.047-.211-.07-.305-.07-.117 0-.234.023-.328.07l-4.406 1.875c-.516.235-.914.727-.891 1.336 0 2.344.961 6.586 4.992 8.531.399.188.844.188 1.242 0 4.032-1.945 4.993-6.187 5.016-8.531 0-.609-.398-1.101-.914-1.336zm2.343 4.828-3 3c-.234.235-.585.235-.796 0l-1.5-1.5c-.235-.21-.235-.562 0-.773.211-.234.562-.234.796 0l1.102 1.102 2.602-2.625c.211-.211.562-.211.773 0 .234.234.234.586 0 .796z" fill="#24a522"/><path d="m228.305 176.57c-.094-.047-.211-.07-.305-.07-.117 0-.234.023-.328.07l-4.406 1.875c-.516.235-.914.727-.891 1.336 0 2.344.961 6.586 4.992 8.531.399.188.844.188 1.242 0 4.032-1.945 4.993-6.187 5.016-8.531 0-.609-.398-1.101-.914-1.336zm2.343 4.828-3 3c-.234.235-.585.235-.796 0l-1.5-1.5c-.235-.21-.235-.562 0-.773.211-.234.562-.234.796 0l1.102 1.102 2.602-2.625c.211-.211.562-.211.773 0 .234.234.234.586 0 .796z" fill="#24a522"/><path d="m238.305 225.57c-.094-.047-.211-.07-.305-.07-.117 0-.234.023-.328.07l-4.406 1.875c-.516.235-.914.727-.891 1.336 0 2.344.961 6.586 4.992 8.531.399.188.844.188 1.242 0 4.032-1.945 4.993-6.187 5.016-8.531 0-.609-.398-1.101-.914-1.336zm2.343 4.828-3 3c-.234.235-.585.235-.796 0l-1.5-1.5c-.235-.21-.235-.562 0-.773.211-.234.562-.234.796 0l1.102 1.102 2.602-2.625c.211-.211.562-.211.773 0 .234.234.234.586 0 .796z" fill="#24a522"/><path d="m74 59h328v1h-328z" fill="#dfe3e8"/><path d="m74 108h328v1h-328z" fill="#dfe3e8"/><path d="m74 157h328v1h-328z" fill="#dfe3e8"/><path d="m74 206h328v1h-328z" fill="#dfe3e8"/><path d="m113.984 40.1422c-.699 0-1.3-.1492-1.805-.4478-.502-.3016-.889-.7248-1.163-1.2695-.271-.5478-.407-1.1895-.407-1.9251 0-.7263.136-1.3665.407-1.9204.274-.554.655-.9864 1.145-1.2973.492-.3108 1.067-.4662 1.726-.4662.4 0 .788.0661 1.163.1985.376.1323.713.3401 1.011.6232.299.2832.534.6509.707 1.1033.172.4494.258.9957.258 1.6389v.4893h-5.636v-1.0341h4.284c0-.3631-.074-.6847-.222-.9648-.148-.2831-.355-.5063-.623-.6694-.265-.1631-.576-.2447-.933-.2447-.387 0-.726.0955-1.015.2863-.287.1877-.508.4339-.665.7386-.154.3016-.231.6294-.231.9833v.8079c0 .474.083.8771.249 1.2095.17.3324.405.5863.707.7617.301.1724.654.2586 1.057.2586.261 0 .5-.037.715-.1108.216-.077.402-.1909.559-.3417s.277-.337.36-.5586l1.307.2355c-.105.3847-.293.7217-.564 1.011-.267.2862-.604.5093-1.011.6694-.403.1569-.863.2354-1.38.2354z" fill="#3a444f"/><path d="m119.938 30.5446v9.4545h-1.38v-9.4545z" fill="#3a444f"/><path d="m121.795 39.9991v-7.0909h1.38v7.0909zm.697-8.185c-.24 0-.446-.08-.618-.2401-.17-.1631-.254-.357-.254-.5816 0-.2278.084-.4217.254-.5817.172-.1631.378-.2447.618-.2447s.445.0816.614.2447c.173.16.259.3539.259.5817 0 .2246-.086.4185-.259.5816-.169.1601-.374.2401-.614.2401z" fill="#3a444f"/><path d="m124.885 39.9991v-.9464l3.841-4.8796v-.0646h-3.717v-1.2003h5.439v1.0064l-3.694 4.8196v.0646h3.823v1.2003z" fill="#3a444f"/><path d="m134.269 40.1561c-.45 0-.856-.0831-1.219-.2493-.363-.1693-.651-.414-.863-.734-.209-.3201-.314-.7125-.314-1.1772 0-.4001.077-.7294.231-.988.154-.2585.361-.4632.623-.614s.554-.2646.877-.3416c.323-.0769.653-.1354.988-.1754.425-.0492.769-.0893 1.034-.12.265-.0339.457-.0877.577-.1616s.18-.1939.18-.3601v-.0323c0-.4032-.114-.7156-.341-.9372-.225-.2215-.561-.3323-1.007-.3323-.465 0-.831.1031-1.099.3093-.264.2031-.447.4293-.549.6786l-1.297-.2955c.154-.4308.378-.7786.674-1.0433.298-.2677.642-.4616 1.029-.5817.388-.1231.796-.1846 1.224-.1846.283 0 .583.0338.9.1015.32.0647.619.1847.895.3601.281.1754.51.4263.688.7525.179.3232.268.7433.268 1.2603v4.7088h-1.348v-.9694h-.055c-.09.1785-.223.3539-.402.5262-.178.1724-.408.3155-.688.4294-.28.1138-.615.1708-1.006.1708zm.3-1.108c.382 0 .708-.0754.979-.2262.273-.1508.481-.3478.623-.5909.144-.2462.217-.5094.217-.7894v-.9141c-.049.0493-.145.0954-.286.1385-.139.04-.297.0754-.476.1062-.178.0277-.352.0539-.522.0785-.169.0215-.31.04-.424.0554-.268.0338-.513.0908-.734.1708-.219.08-.394.1954-.527.3462-.129.1477-.194.3447-.194.5909 0 .3416.127.6002.379.7756.252.1723.574.2585.965.2585z" fill="#3a444f"/><path d="m139.717 39.9991v-9.4545h1.381v3.5131h.083c.08-.1477.195-.3185.346-.5124s.36-.3632.628-.5078c.268-.1478.622-.2216 1.062-.2216.572 0 1.083.1446 1.532.4339.45.2893.802.7063 1.058 1.2511.258.5447.387 1.2003.387 1.9666s-.127 1.4234-.383 1.9712c-.255.5448-.606.9649-1.052 1.2603-.447.2924-.956.4386-1.528.4386-.431 0-.784-.0723-1.058-.217-.27-.1446-.483-.3139-.637-.5078s-.272-.3662-.355-.517h-.116v1.1033zm1.353-3.5454c0 .4985.072.9356.217 1.311.145.3755.354.6694.628.8818.274.2093.609.3139 1.006.3139.413 0 .757-.1093 1.034-.3278.277-.2216.487-.5216.628-.9002.145-.3785.217-.8048.217-1.2787 0-.4678-.071-.8879-.212-1.2603-.139-.3724-.348-.6664-.628-.8818-.277-.2154-.623-.3231-1.039-.3231-.4 0-.738.1031-1.015.3093-.274.2062-.482.4939-.624.8632-.141.3694-.212.8002-.212 1.2927z" fill="#3a444f"/><path d="m150.8 40.1422c-.698 0-1.3-.1492-1.805-.4478-.501-.3016-.889-.7248-1.163-1.2695-.271-.5478-.406-1.1895-.406-1.9251 0-.7263.135-1.3665.406-1.9204.274-.554.656-.9864 1.145-1.2973.492-.3108 1.068-.4662 1.726-.4662.401 0 .788.0661 1.164.1985.375.1323.712.3401 1.011.6232.298.2832.534.6509.706 1.1033.173.4494.259.9957.259 1.6389v.4893h-5.637v-1.0341h4.284c0-.3631-.074-.6847-.222-.9648-.147-.2831-.355-.5063-.623-.6694-.264-.1631-.575-.2447-.932-.2447-.388 0-.727.0955-1.016.2863-.286.1877-.508.4339-.665.7386-.154.3016-.231.6294-.231.9833v.8079c0 .474.084.8771.25 1.2095.169.3324.404.5863.706.7617.302.1724.654.2586 1.057.2586.262 0 .5-.037.716-.1108.215-.077.401-.1909.558-.3417s.277-.337.361-.5586l1.306.2355c-.105.3847-.292.7217-.563 1.011-.268.2862-.605.5093-1.011.6694-.403.1569-.864.2354-1.381.2354z" fill="#3a444f"/><path d="m158.684 32.9082v1.108h-3.873v-1.108zm-2.834-1.6989h1.38v6.7078c0 .2677.04.4693.12.6047.08.1324.183.2232.309.2724.13.0462.27.0693.42.0693.111 0 .208-.0077.291-.0231s.148-.0277.194-.037l.249 1.1403c-.08.0308-.193.0616-.341.0923-.148.0339-.333.0524-.554.0554-.363.0062-.702-.0584-1.016-.1939-.314-.1354-.568-.3446-.761-.6278-.194-.2831-.291-.6386-.291-1.0664z" fill="#3a444f"/><path d="m161.744 35.7889v4.2102h-1.381v-9.4545h1.362v3.5177h.088c.166-.3816.42-.6848.762-.9094.341-.2247.788-.337 1.339-.337.486 0 .911.1 1.274.3.366.2001.649.4986.849.8956.203.394.305.8864.305 1.4773v4.5103h-1.381v-4.3441c0-.5201-.133-.9233-.401-1.2095-.268-.2893-.64-.434-1.117-.434-.327 0-.619.0693-.877.2078-.256.1385-.458.3416-.605.6094-.145.2646-.217.5847-.217.9602z" fill="#3a444f"/><path d="m173.876 42.5705c-.954 0-1.801-.1308-2.539-.3924-.736-.2585-1.356-.6402-1.861-1.1449-.504-.5017-.888-1.1172-1.149-1.8466-.262-.7294-.393-1.5619-.393-2.4975 0-.911.133-1.7296.397-2.456.265-.7263.65-1.3449 1.155-1.8558.507-.514 1.125-.9064 1.851-1.1772s1.551-.4062 2.474-.4062c.884 0 1.662.1385 2.336.4154.674.277 1.24.6571 1.699 1.1403.462.4832.809 1.0372 1.043 1.6619.234.6248.351 1.285.351 1.9805 0 .4863-.031.9618-.092 1.4265-.062.4616-.176.8802-.342 1.2557-.163.3724-.4.6709-.711.8956-.307.2216-.708.337-1.2.3462-.262.0092-.515-.0215-.762-.0923-.246-.0708-.455-.1847-.627-.3416-.173-.1601-.277-.3632-.314-.6094h-.056c-.074.1816-.197.3508-.369.5078-.172.1539-.393.277-.66.3693-.265.0893-.573.1262-.924.1108-.387-.0154-.737-.1031-1.048-.2631-.31-.1601-.577-.3817-.798-.6648-.219-.2831-.386-.6186-.503-1.0064s-.176-.8186-.176-1.2926c0-.4555.066-.8633.199-1.2234.132-.3631.312-.6755.54-.9371.231-.2647.495-.474.794-.6279.298-.1538.614-.2508.946-.2908.323-.0369.62-.0277.891.0277s.496.14.674.2539c.182.1139.296.2385.342.3739h.06v-.517h1.136v4.2841c0 .2431.063.4493.189.6186.129.1693.312.2539.549.2539.28 0 .499-.1031.656-.3093.16-.2062.272-.5232.337-.951.067-.4278.101-.9756.101-1.6435 0-.4678-.063-.9079-.189-1.3203-.123-.4154-.306-.7909-.549-1.1264-.24-.3385-.536-.6294-.887-.8725s-.751-.4309-1.2-.5632c-.446-.1324-.94-.1985-1.482-.1985-.735 0-1.389.1139-1.962.3416-.572.2247-1.056.5494-1.449.9741-.391.4247-.688.934-.891 1.528-.201.5909-.301 1.2542-.301 1.9897 0 .7664.104 1.4465.31 2.0405.206.5909.511 1.0895.914 1.4958.403.4062.902.714 1.496.9232.594.2124 1.278.3186 2.054.3186.345 0 .683-.0308 1.016-.0923.332-.0585.627-.1262.886-.2032.261-.0738.457-.1338.586-.18l.323 1.011c-.19.0892-.444.177-.761.2631-.314.0862-.656.157-1.025.2124-.366.0554-.728.0831-1.085.0831zm-.425-3.8409c.4 0 .722-.08.965-.2401.246-.16.423-.3985.531-.7155.111-.3201.166-.7202.166-1.2003-.003-.4678-.063-.8402-.18-1.1172-.114-.2801-.292-.4801-.535-.6001-.241-.1231-.55-.1847-.928-.1847-.348 0-.645.0846-.891.2539-.243.1693-.43.3986-.559.6879-.126.2893-.191.6109-.194.9648.003.3724.056.7233.157 1.0526.105.3262.274.5909.508.794.237.2031.557.3047.96.3047z" fill="#3a444f"/><path d="m182.828 40.1561c-.449 0-.855-.0831-1.218-.2493-.364-.1693-.651-.414-.864-.734-.209-.3201-.314-.7125-.314-1.1772 0-.4001.077-.7294.231-.988.154-.2585.362-.4632.623-.614.262-.1508.554-.2646.878-.3416.323-.0769.652-.1354.988-.1754.424-.0492.769-.0893 1.034-.12.264-.0339.457-.0877.577-.1616s.18-.1939.18-.3601v-.0323c0-.4032-.114-.7156-.342-.9372-.225-.2215-.56-.3323-1.006-.3323-.465 0-.831.1031-1.099.3093-.265.2031-.448.4293-.549.6786l-1.298-.2955c.154-.4308.379-.7786.674-1.0433.299-.2677.642-.4616 1.03-.5817.388-.1231.795-.1846 1.223-.1846.283 0 .583.0338.9.1015.321.0647.619.1847.896.3601.28.1754.509.4263.688.7525.178.3232.268.7433.268 1.2603v4.7088h-1.348v-.9694h-.056c-.089.1785-.223.3539-.401.5262-.179.1724-.408.3155-.688.4294-.28.1138-.616.1708-1.007.1708zm.3-1.108c.382 0 .708-.0754.979-.2262.274-.1508.482-.3478.623-.5909.145-.2462.217-.5094.217-.7894v-.9141c-.049.0493-.144.0954-.286.1385-.138.04-.297.0754-.475.1062-.179.0277-.353.0539-.522.0785-.169.0215-.311.04-.425.0554-.267.0338-.512.0908-.734.1708-.218.08-.394.1954-.526.3462-.129.1477-.194.3447-.194.5909 0 .3416.126.6002.379.7756.252.1723.574.2585.964.2585z" fill="#3a444f"/><path d="m191.153 40.1422c-.686 0-1.277-.1554-1.773-.4662-.492-.314-.871-.7464-1.135-1.2973-.265-.5509-.397-1.1818-.397-1.8927 0-.7202.135-1.3557.406-1.9066.271-.554.652-.9864 1.145-1.2973.492-.3108 1.072-.4662 1.74-.4662.539 0 1.019.1 1.441.3.421.197.761.474 1.02.831.261.357.417.774.466 1.2511h-1.343c-.074-.3324-.243-.6186-.508-.8587-.262-.24-.613-.3601-1.053-.3601-.384 0-.721.1016-1.011.3047-.286.2001-.509.4863-.669.8587-.16.3693-.24.8063-.24 1.3111 0 .517.078.9633.235 1.3387.157.3755.379.6663.665.8726.289.2062.629.3093 1.02.3093.262 0 .499-.0477.711-.1432.216-.0984.396-.2385.54-.4201.148-.1815.251-.4001.31-.6555h1.343c-.049.4586-.198.8679-.448 1.228-.249.3601-.583.6432-1.002.8494-.415.2062-.903.3093-1.463.3093z" fill="#3a444f"/><path d="m195.542 39.9991v-7.0909h1.325v1.1541h.088c.148-.3908.389-.6955.725-.914.335-.2216.737-.3324 1.204-.3324.474 0 .871.1108 1.192.3324.323.2216.561.5262.715.914h.074c.169-.3785.439-.6801.808-.9048.369-.2278.809-.3416 1.32-.3416.643 0 1.168.2016 1.574.6047.41.4032.614 1.011.614 1.8235v4.755h-1.38v-4.6257c0-.4801-.131-.8279-.392-1.0433-.262-.2155-.574-.3232-.937-.3232-.45 0-.799.1385-1.048.4155-.25.2739-.374.6263-.374 1.0572v4.5195h-1.376v-4.7134c0-.3847-.12-.694-.36-.9279s-.553-.3509-.937-.3509c-.262 0-.504.0693-.725.2078-.219.1354-.396.3247-.531.5678-.132.2431-.199.5247-.199.8448v4.3718z" fill="#3a444f"/><path d="m210.088 40.1422c-.699 0-1.301-.1492-1.806-.4478-.501-.3016-.889-.7248-1.163-1.2695-.271-.5478-.406-1.1895-.406-1.9251 0-.7263.135-1.3665.406-1.9204.274-.554.656-.9864 1.145-1.2973.492-.3108 1.068-.4662 1.727-.4662.4 0 .787.0661 1.163.1985.375.1323.712.3401 1.011.6232.298.2832.534.6509.706 1.1033.173.4494.259.9957.259 1.6389v.4893h-5.637v-1.0341h4.284c0-.3631-.074-.6847-.221-.9648-.148-.2831-.356-.5063-.624-.6694-.264-.1631-.575-.2447-.932-.2447-.388 0-.727.0955-1.016.2863-.286.1877-.508.4339-.665.7386-.153.3016-.23.6294-.23.9833v.8079c0 .474.083.8771.249 1.2095.169.3324.405.5863.706.7617.302.1724.654.2586 1.057.2586.262 0 .501-.037.716-.1108.215-.077.402-.1909.559-.3417.156-.1508.277-.337.36-.5586l1.306.2355c-.105.3847-.292.7217-.563 1.011-.268.2862-.605.5093-1.011.6694-.403.1569-.863.2354-1.38.2354z" fill="#3a444f"/><path d="m215.571 40.0868c-.253 0-.47-.0892-.651-.2677-.182-.1816-.273-.4001-.273-.6556 0-.2523.091-.4678.273-.6463.181-.1816.398-.2723.651-.2723.252 0 .469.0907.651.2723.181.1785.272.394.272.6463 0 .1693-.043.3247-.129.4663-.083.1385-.194.2493-.333.3324-.138.0831-.292.1246-.461.1246z" fill="#3a444f"/><path d="m221.33 40.1422c-.687 0-1.277-.1554-1.773-.4662-.492-.314-.871-.7464-1.136-1.2973-.264-.5509-.397-1.1818-.397-1.8927 0-.7202.136-1.3557.407-1.9066.27-.554.652-.9864 1.145-1.2973.492-.3108 1.072-.4662 1.74-.4662.539 0 1.019.1 1.44.3.422.197.762.474 1.021.831.261.357.417.774.466 1.2511h-1.344c-.073-.3324-.243-.6186-.507-.8587-.262-.24-.613-.3601-1.053-.3601-.385 0-.722.1016-1.011.3047-.286.2001-.509.4863-.669.8587-.16.3693-.24.8063-.24 1.3111 0 .517.078.9633.235 1.3387.157.3755.379.6663.665.8726.289.2062.629.3093 1.02.3093.262 0 .499-.0477.711-.1432.215-.0984.395-.2385.54-.4201.148-.1815.251-.4001.309-.6555h1.344c-.049.4586-.199.8679-.448 1.228s-.583.6432-1.002.8494c-.415.2062-.903.3093-1.463.3093z" fill="#3a444f"/><path d="m228.706 40.1422c-.665 0-1.245-.1523-1.741-.457-.495-.3047-.88-.731-1.154-1.2788s-.411-1.1879-.411-1.9204c0-.7356.137-1.3788.411-1.9297s.659-.9787 1.154-1.2834c.496-.3047 1.076-.457 1.741-.457s1.245.1523 1.74.457c.496.3047.88.7325 1.154 1.2834s.411 1.1941.411 1.9297c0 .7325-.137 1.3726-.411 1.9204s-.658.9741-1.154 1.2788c-.495.3047-1.075.457-1.74.457zm.004-1.1587c.431 0 .788-.1139 1.071-.3416.284-.2278.493-.5309.628-.9095.139-.3785.208-.7956.208-1.251 0-.4525-.069-.8679-.208-1.2465-.135-.3816-.344-.6878-.628-.9187-.283-.2308-.64-.3462-1.071-.3462-.434 0-.794.1154-1.08.3462-.283.2309-.494.5371-.632.9187-.136.3786-.203.794-.203 1.2465 0 .4554.067.8725.203 1.251.138.3786.349.6817.632.9095.286.2277.646.3416 1.08.3416z" fill="#3a444f"/><path d="m98 27c-4.4375 0-8 3.5938-8 8 0 4.4375 3.5625 8 8 8 4.406 0 8-3.5625 8-8 0-4.4062-3.594-8-8-8zm0 4c1.2188 0 2.25 1.0312 2.25 2.25 0 1.25-1.0312 2.25-2.25 2.25-1.25 0-2.25-1-2.25-2.25 0-1.2188 1-2.25 2.25-2.25zm0 10c-1.6562 0-3.1562-.6562-4.25-1.75.5-1.3125 1.75-2.25 3.25-2.25h2c1.469 0 2.719.9375 3.219 2.25-1.094 1.0938-2.594 1.75-4.219 1.75z" fill="#c7cdd4"/><path d="m98 76c-4.4375 0-8 3.5938-8 8 0 4.4375 3.5625 8 8 8 4.406 0 8-3.5625 8-8 0-4.4062-3.594-8-8-8zm0 4c1.2188 0 2.25 1.0312 2.25 2.25 0 1.25-1.0312 2.25-2.25 2.25-1.25 0-2.25-1-2.25-2.25 0-1.2188 1-2.25 2.25-2.25zm0 10c-1.6562 0-3.1562-.6562-4.25-1.75.5-1.3125 1.75-2.25 3.25-2.25h2c1.469 0 2.719.9375 3.219 2.25-1.094 1.0938-2.594 1.75-4.219 1.75z" fill="#c7cdd4"/><path d="m98 125c-4.4375 0-8 3.594-8 8 0 4.438 3.5625 8 8 8 4.406 0 8-3.562 8-8 0-4.406-3.594-8-8-8zm0 4c1.2188 0 2.25 1.031 2.25 2.25 0 1.25-1.0312 2.25-2.25 2.25-1.25 0-2.25-1-2.25-2.25 0-1.219 1-2.25 2.25-2.25zm0 10c-1.6562 0-3.1562-.656-4.25-1.75.5-1.312 1.75-2.25 3.25-2.25h2c1.469 0 2.719.938 3.219 2.25-1.094 1.094-2.594 1.75-4.219 1.75z" fill="#c7cdd4"/><path d="m98 174c-4.4375 0-8 3.594-8 8 0 4.438 3.5625 8 8 8 4.406 0 8-3.562 8-8 0-4.406-3.594-8-8-8zm0 4c1.2188 0 2.25 1.031 2.25 2.25 0 1.25-1.0312 2.25-2.25 2.25-1.25 0-2.25-1-2.25-2.25 0-1.219 1-2.25 2.25-2.25zm0 10c-1.6562 0-3.1562-.656-4.25-1.75.5-1.312 1.75-2.25 3.25-2.25h2c1.469 0 2.719.938 3.219 2.25-1.094 1.094-2.594 1.75-4.219 1.75z" fill="#c7cdd4"/><path d="m98 223c-4.4375 0-8 3.594-8 8 0 4.438 3.5625 8 8 8 4.406 0 8-3.562 8-8 0-4.406-3.594-8-8-8zm0 4c1.2188 0 2.25 1.031 2.25 2.25 0 1.25-1.0312 2.25-2.25 2.25-1.25 0-2.25-1-2.25-2.25 0-1.219 1-2.25 2.25-2.25zm0 10c-1.6562 0-3.1562-.656-4.25-1.75.5-1.312 1.75-2.25 3.25-2.25h2c1.469 0 2.719.938 3.219 2.25-1.094 1.094-2.594 1.75-4.219 1.75z" fill="#c7cdd4"/><g fill="#3a444f"><path d="m113.915 89.1422c-.687 0-1.277-.1554-1.773-.4662-.492-.314-.871-.7464-1.136-1.2973-.264-.5509-.397-1.1818-.397-1.8927 0-.7202.136-1.3557.407-1.9066.27-.554.652-.9864 1.145-1.2973.492-.3108 1.072-.4662 1.74-.4662.539 0 1.019.1 1.44.3.422.197.762.474 1.021.831.261.357.417.774.466 1.2511h-1.344c-.073-.3324-.243-.6186-.507-.8587-.262-.24-.613-.3601-1.053-.3601-.385 0-.722.1016-1.011.3047-.286.2001-.509.4863-.669.8587-.16.3693-.24.8063-.24 1.3111 0 .517.078.9633.235 1.3387.157.3755.379.6663.665.8726.289.2062.629.3093 1.02.3093.262 0 .499-.0477.711-.1432.215-.0984.395-.2385.54-.4201.148-.1815.251-.4001.309-.6555h1.344c-.049.4586-.199.8679-.448 1.228s-.583.6432-1.002.8494c-.415.2062-.903.3093-1.463.3093z"/><path d="m120.367 89.1561c-.449 0-.855-.0831-1.218-.2493-.363-.1693-.651-.414-.864-.734-.209-.3201-.313-.7125-.313-1.1772 0-.4001.076-.7294.23-.988.154-.2585.362-.4632.624-.614.261-.1508.554-.2646.877-.3416.323-.0769.652-.1354.988-.1754.424-.0492.769-.0893 1.034-.12.264-.0339.457-.0877.577-.1616s.18-.1939.18-.3601v-.0323c0-.4032-.114-.7156-.342-.9372-.224-.2215-.56-.3323-1.006-.3323-.465 0-.831.1031-1.099.3093-.265.2031-.448.4293-.549.6786l-1.298-.2955c.154-.4308.379-.7786.674-1.0433.299-.2677.642-.4616 1.03-.5817.388-.1231.796-.1846 1.223-.1846.283 0 .584.0338.901.1015.32.0647.618.1847.895.3601.28.1754.509.4263.688.7525.178.3232.268.7433.268 1.2603v4.7088h-1.348v-.9694h-.056c-.089.1785-.223.3539-.401.5262-.179.1724-.408.3155-.688.4294-.28.1138-.616.1708-1.007.1708zm.301-1.108c.381 0 .707-.0754.978-.2262.274-.1508.482-.3478.623-.5909.145-.2462.217-.5094.217-.7894v-.9141c-.049.0493-.144.0954-.286.1385-.138.04-.297.0754-.475.1062-.179.0277-.353.0539-.522.0785-.169.0215-.311.04-.425.0554-.267.0338-.512.0908-.734.1708-.218.08-.394.1954-.526.3462-.129.1477-.194.3447-.194.5909 0 .3416.126.6002.379.7756.252.1723.574.2585.965.2585z"/><path d="m125.705 88.9991v-7.0909h1.334v1.1264h.074c.13-.3816.357-.6817.684-.9002.329-.2216.701-.3324 1.117-.3324.086 0 .187.0031.304.0093.12.0061.214.0138.282.023v1.3204c-.055-.0154-.154-.0324-.295-.0508-.142-.0216-.284-.0323-.425-.0323-.326 0-.617.0692-.873.2077-.252.1354-.452.3247-.6.5678-.148.2401-.221.514-.221.8218v4.3302z"/><path d="m132.075 79.5446v9.4545h-1.38v-9.4545z"/><path d="m133.932 88.9991v-7.0909h1.38v7.0909zm.697-8.185c-.24 0-.446-.08-.619-.2401-.169-.1631-.254-.357-.254-.5816 0-.2278.085-.4217.254-.5817.173-.1631.379-.2447.619-.2447s.445.0816.614.2447c.172.16.258.3539.258.5817 0 .2246-.086.4185-.258.5816-.169.1601-.374.2401-.614.2401z"/><path d="m140.225 89.1422c-.698 0-1.3-.1492-1.805-.4478-.501-.3016-.889-.7248-1.163-1.2695-.271-.5478-.406-1.1895-.406-1.9251 0-.7263.135-1.3665.406-1.9204.274-.554.655-.9864 1.145-1.2973.492-.3108 1.068-.4662 1.726-.4662.4 0 .788.0661 1.164.1985.375.1323.712.3401 1.011.6232.298.2832.534.6509.706 1.1033.172.4494.258.9957.258 1.6389v.4893h-5.636v-1.0341h4.284c0-.3631-.074-.6847-.222-.9648-.147-.2831-.355-.5063-.623-.6694-.265-.1631-.575-.2447-.932-.2447-.388 0-.727.0955-1.016.2863-.286.1877-.508.4339-.665.7386-.154.3016-.231.6294-.231.9833v.8079c0 .474.083.8771.25 1.2095.169.3324.404.5863.706.7617.302.1724.654.2586 1.057.2586.262 0 .5-.037.716-.1108.215-.077.401-.1909.558-.3417s.277-.337.36-.5586l1.307.2355c-.105.3847-.293.7217-.563 1.011-.268.2862-.605.5093-1.011.6694-.404.1569-.864.2354-1.381.2354z"/><path d="m145.708 89.0868c-.252 0-.469-.0892-.65-.2677-.182-.1816-.273-.4001-.273-.6556 0-.2523.091-.4678.273-.6463.181-.1816.398-.2723.65-.2723.253 0 .47.0907.651.2723.182.1785.273.394.273.6463 0 .1693-.043.3247-.13.4663-.083.1385-.193.2493-.332.3324-.138.0831-.292.1246-.462.1246z"/><path d="m149.861 79.5446v9.4545h-1.38v-9.4545z"/><path d="m154.774 89.1422c-.699 0-1.3-.1492-1.805-.4478-.502-.3016-.889-.7248-1.163-1.2695-.271-.5478-.407-1.1895-.407-1.9251 0-.7263.136-1.3665.407-1.9204.274-.554.655-.9864 1.145-1.2973.492-.3108 1.067-.4662 1.726-.4662.4 0 .788.0661 1.163.1985.376.1323.713.3401 1.011.6232.299.2832.534.6509.707 1.1033.172.4494.258.9957.258 1.6389v.4893h-5.636v-1.0341h4.284c0-.3631-.074-.6847-.222-.9648-.148-.2831-.355-.5063-.623-.6694-.265-.1631-.576-.2447-.933-.2447-.387 0-.726.0955-1.015.2863-.287.1877-.508.4339-.665.7386-.154.3016-.231.6294-.231.9833v.8079c0 .474.083.8771.249 1.2095.17.3324.405.5863.707.7617.301.1724.654.2586 1.057.2586.262 0 .5-.037.715-.1108.216-.077.402-.1909.559-.3417s.277-.337.36-.5586l1.307.2355c-.105.3847-.293.7217-.564 1.011-.267.2862-.604.5093-1.011.6694-.403.1569-.863.2354-1.38.2354z"/><path d="m159.348 88.9991v-7.0909h1.325v1.1541h.087c.148-.3908.39-.6955.725-.914.336-.2216.737-.3324 1.205-.3324.474 0 .871.1108 1.191.3324.323.2216.562.5262.716.914h.074c.169-.3785.438-.6801.808-.9048.369-.2278.809-.3416 1.32-.3416.643 0 1.168.2016 1.574.6047.409.4032.614 1.011.614 1.8235v4.755h-1.38v-4.6257c0-.4801-.131-.8279-.393-1.0433-.261-.2155-.574-.3232-.937-.3232-.449 0-.798.1385-1.048.4155-.249.2739-.374.6263-.374 1.0572v4.5195h-1.375v-4.7134c0-.3847-.12-.694-.361-.9279-.24-.2339-.552-.3509-.937-.3509-.261 0-.503.0693-.724.2078-.219.1354-.396.3247-.531.5678-.133.2431-.199.5247-.199.8448v4.3718z"/><path d="m172.107 86.5939-.01-1.685h.24l2.826-3.0007h1.652l-3.222 3.4162h-.217zm-1.27 2.4052v-9.4545h1.38v9.4545zm4.478 0-2.539-3.37.951-.9649 3.282 4.3349z"/><path d="m180.838 89.1422c-.699 0-1.301-.1492-1.806-.4478-.501-.3016-.889-.7248-1.163-1.2695-.271-.5478-.406-1.1895-.406-1.9251 0-.7263.135-1.3665.406-1.9204.274-.554.656-.9864 1.145-1.2973.492-.3108 1.068-.4662 1.727-.4662.4 0 .787.0661 1.163.1985.375.1323.712.3401 1.011.6232.298.2832.534.6509.706 1.1033.173.4494.259.9957.259 1.6389v.4893h-5.637v-1.0341h4.284c0-.3631-.074-.6847-.221-.9648-.148-.2831-.356-.5063-.624-.6694-.264-.1631-.575-.2447-.932-.2447-.388 0-.727.0955-1.016.2863-.286.1877-.508.4339-.665.7386-.153.3016-.23.6294-.23.9833v.8079c0 .474.083.8771.249 1.2095.169.3324.405.5863.706.7617.302.1724.654.2586 1.057.2586.262 0 .501-.037.716-.1108.215-.077.402-.1909.559-.3417.156-.1508.277-.337.36-.5586l1.306.2355c-.105.3847-.292.7217-.563 1.011-.268.2862-.605.5093-1.011.6694-.403.1569-.863.2354-1.38.2354z"/><path d="m191.103 91.5705c-.954 0-1.8-.1308-2.539-.3924-.735-.2585-1.355-.6402-1.86-1.1449-.505-.5017-.888-1.1172-1.15-1.8466-.261-.7294-.392-1.5619-.392-2.4975 0-.911.132-1.7296.397-2.456.265-.7263.649-1.3449 1.154-1.8558.508-.514 1.125-.9064 1.851-1.1772.727-.2708 1.551-.4062 2.475-.4062.883 0 1.662.1385 2.336.4154.674.277 1.24.6571 1.699 1.1403.461.4832.809 1.0372 1.043 1.6619.234.6248.351 1.285.351 1.9805 0 .4863-.031.9618-.093 1.4265-.061.4616-.175.8802-.341 1.2557-.163.3724-.4.6709-.711.8956-.308.2216-.708.337-1.2.3462-.262.0092-.516-.0215-.762-.0923s-.456-.1847-.628-.3416c-.172-.1601-.277-.3632-.314-.6094h-.055c-.074.1816-.197.3508-.37.5078-.172.1539-.392.277-.66.3693-.264.0893-.572.1262-.923.1108-.388-.0154-.737-.1031-1.048-.2631-.311-.1601-.577-.3817-.799-.6648-.218-.2831-.386-.6186-.503-1.0064s-.175-.8186-.175-1.2926c0-.4555.066-.8633.198-1.2234.133-.3631.313-.6755.54-.9371.231-.2647.496-.474.794-.6279.299-.1538.614-.2508.947-.2908.323-.0369.62-.0277.891.0277s.495.14.674.2539c.181.1139.295.2385.341.3739h.06v-.517h1.136v4.2841c0 .2431.063.4493.189.6186.13.1693.313.2539.55.2539.28 0 .498-.1031.655-.3093.16-.2062.273-.5232.337-.951.068-.4278.102-.9756.102-1.6435 0-.4678-.063-.9079-.189-1.3203-.124-.4154-.307-.7909-.55-1.1264-.24-.3385-.535-.6294-.886-.8725s-.751-.4309-1.2-.5632c-.447-.1324-.941-.1985-1.482-.1985-.736 0-1.39.1139-1.962.3416-.573.2247-1.056.5494-1.45.9741-.391.4247-.688.934-.891 1.528-.2.5909-.3 1.2542-.3 1.9897 0 .7664.103 1.4465.309 2.0405.207.5909.511 1.0895.914 1.4958.404.4062.902.714 1.496.9232.594.2124 1.279.3186 2.054.3186.345 0 .684-.0308 1.016-.0923.332-.0585.628-.1262.886-.2032.262-.0738.457-.1338.587-.18l.323 1.011c-.191.0892-.445.177-.762.2631-.314.0862-.655.157-1.025.2124-.366.0554-.728.0831-1.085.0831zm-.424-3.8409c.4 0 .721-.08.965-.2401.246-.16.423-.3985.53-.7155.111-.3201.167-.7202.167-1.2003-.003-.4678-.063-.8402-.18-1.1172-.114-.2801-.293-.4801-.536-.6001-.24-.1231-.549-.1847-.928-.1847-.348 0-.645.0846-.891.2539-.243.1693-.429.3986-.558.6879-.127.2893-.191.6109-.194.9648.003.3724.055.7233.157 1.0526.104.3262.274.5909.507.794.237.2031.558.3047.961.3047z"/><path d="m197.992 91.6582v-9.75h1.348v1.1495h.116c.08-.1477.195-.3185.346-.5124s.36-.3632.628-.5078c.268-.1478.622-.2216 1.062-.2216.572 0 1.083.1446 1.532.4339.45.2893.802.7063 1.057 1.2511.259.5447.388 1.2003.388 1.9666s-.127 1.4234-.383 1.9712c-.255.5448-.606.9649-1.052 1.2603-.447.2924-.956.4386-1.528.4386-.431 0-.784-.0723-1.058-.217-.27-.1446-.483-.3139-.637-.5078s-.272-.3662-.355-.517h-.083v3.7624zm1.353-6.2045c0 .4985.072.9356.217 1.311.145.3755.354.6694.628.8818.274.2093.609.3139 1.006.3139.413 0 .757-.1093 1.034-.3278.277-.2216.487-.5216.628-.9002.145-.3785.217-.8048.217-1.2787 0-.4678-.071-.8879-.212-1.2603-.139-.3724-.348-.6664-.628-.8818-.277-.2154-.623-.3231-1.039-.3231-.4 0-.738.1031-1.015.3093-.274.2062-.482.4939-.624.8632-.141.3694-.212.8002-.212 1.2927z"/><path d="m206.016 88.9991v-7.0909h1.38v7.0909zm.697-8.185c-.24 0-.446-.08-.619-.2401-.169-.1631-.254-.357-.254-.5816 0-.2278.085-.4217.254-.5817.173-.1631.379-.2447.619-.2447s.445.0816.614.2447c.172.16.258.3539.258.5817 0 .2246-.086.4185-.258.5816-.169.1601-.374.2401-.614.2401z"/><path d="m212.309 89.1422c-.698 0-1.3-.1492-1.805-.4478-.501-.3016-.889-.7248-1.163-1.2695-.271-.5478-.406-1.1895-.406-1.9251 0-.7263.135-1.3665.406-1.9204.274-.554.655-.9864 1.145-1.2973.492-.3108 1.068-.4662 1.726-.4662.4 0 .788.0661 1.164.1985.375.1323.712.3401 1.011.6232.298.2832.534.6509.706 1.1033.172.4494.258.9957.258 1.6389v.4893h-5.636v-1.0341h4.284c0-.3631-.074-.6847-.222-.9648-.147-.2831-.355-.5063-.623-.6694-.265-.1631-.575-.2447-.932-.2447-.388 0-.727.0955-1.016.2863-.286.1877-.508.4339-.665.7386-.154.3016-.231.6294-.231.9833v.8079c0 .474.083.8771.25 1.2095.169.3324.404.5863.706.7617.302.1724.654.2586 1.057.2586.262 0 .5-.037.716-.1108.215-.077.401-.1909.558-.3417s.277-.337.36-.5586l1.307.2355c-.105.3847-.293.7217-.563 1.011-.268.2862-.605.5093-1.011.6694-.404.1569-.864.2354-1.381.2354z"/><path d="m219.537 89.1376c-.572 0-1.083-.1462-1.532-.4386-.446-.2954-.797-.7155-1.053-1.2603-.252-.5478-.378-1.2049-.378-1.9712s.127-1.4219.383-1.9666c.258-.5448.612-.9618 1.062-1.2511.449-.2893.958-.4339 1.528-.4339.44 0 .794.0738 1.061.2216.271.1446.481.3139.628.5078.151.1939.268.3647.351.5124h.083v-3.5131h1.381v9.4545h-1.348v-1.1033h-.116c-.083.1508-.203.3231-.36.517-.154.1939-.366.3632-.637.5078-.271.1447-.622.217-1.053.217zm.305-1.1772c.397 0 .733-.1046 1.007-.3139.277-.2124.486-.5063.627-.8818.145-.3754.217-.8125.217-1.311 0-.4925-.07-.9233-.212-1.2927-.142-.3693-.349-.657-.623-.8632s-.613-.3093-1.016-.3093c-.415 0-.762.1077-1.039.3231s-.486.5094-.627.8818c-.139.3724-.208.7925-.208 1.2603 0 .4739.071.9002.212 1.2787.142.3786.351.6786.628.9002.28.2185.625.3278 1.034.3278z"/><path d="m225.021 91.6582v-9.75h1.348v1.1495h.115c.08-.1477.196-.3185.346-.5124.151-.1939.36-.3632.628-.5078.268-.1478.622-.2216 1.062-.2216.572 0 1.083.1446 1.533.4339.449.2893.801.7063 1.057 1.2511.258.5447.388 1.2003.388 1.9666s-.128 1.4234-.384 1.9712c-.255.5448-.606.9649-1.052 1.2603-.446.2924-.956.4386-1.528.4386-.431 0-.783-.0723-1.057-.217-.271-.1446-.484-.3139-.637-.5078-.154-.1939-.273-.3662-.356-.517h-.083v3.7624zm1.352-6.2045c0 .4985.073.9356.217 1.311.145.3755.354.6694.628.8818.274.2093.61.3139 1.007.3139.412 0 .757-.1093 1.034-.3278.277-.2216.486-.5216.627-.9002.145-.3785.217-.8048.217-1.2787 0-.4678-.07-.8879-.212-1.2603-.138-.3724-.348-.6664-.628-.8818-.277-.2154-.623-.3231-1.038-.3231-.401 0-.739.1031-1.016.3093-.274.2062-.482.4939-.623.8632-.142.3694-.213.8002-.213 1.2927z"/><path d="m233.044 88.9991v-7.0909h1.38v7.0909zm.697-8.185c-.24 0-.446-.08-.618-.2401-.17-.1631-.254-.357-.254-.5816 0-.2278.084-.4217.254-.5817.172-.1631.378-.2447.618-.2447s.445.0816.614.2447c.173.16.259.3539.259.5817 0 .2246-.086.4185-.259.5816-.169.1601-.374.2401-.614.2401z"/><path d="m236.281 91.6582v-9.75h1.348v1.1495h.116c.08-.1477.195-.3185.346-.5124s.36-.3632.628-.5078c.268-.1478.622-.2216 1.062-.2216.572 0 1.083.1446 1.532.4339.45.2893.802.7063 1.058 1.2511.258.5447.387 1.2003.387 1.9666s-.127 1.4234-.383 1.9712c-.255.5448-.606.9649-1.052 1.2603-.447.2924-.956.4386-1.528.4386-.431 0-.784-.0723-1.058-.217-.27-.1446-.483-.3139-.637-.5078s-.272-.3662-.355-.517h-.083v3.7624zm1.353-6.2045c0 .4985.072.9356.217 1.311.145.3755.354.6694.628.8818.274.2093.609.3139 1.006.3139.413 0 .757-.1093 1.034-.3278.277-.2216.487-.5216.628-.9002.145-.3785.217-.8048.217-1.2787 0-.4678-.071-.8879-.212-1.2603-.139-.3724-.348-.6664-.628-.8818-.277-.2154-.623-.3231-1.039-.3231-.4 0-.738.1031-1.015.3093-.274.2062-.482.4939-.624.8632-.141.3694-.212.8002-.212 1.2927z"/><path d="m247.361 89.1422c-.699 0-1.3-.1492-1.805-.4478-.502-.3016-.89-.7248-1.163-1.2695-.271-.5478-.407-1.1895-.407-1.9251 0-.7263.136-1.3665.407-1.9204.273-.554.655-.9864 1.144-1.2973.493-.3108 1.068-.4662 1.727-.4662.4 0 .788.0661 1.163.1985.376.1323.713.3401 1.011.6232.299.2832.534.6509.707 1.1033.172.4494.258.9957.258 1.6389v.4893h-5.636v-1.0341h4.284c0-.3631-.074-.6847-.222-.9648-.148-.2831-.355-.5063-.623-.6694-.265-.1631-.576-.2447-.933-.2447-.388 0-.726.0955-1.015.2863-.287.1877-.508.4339-.665.7386-.154.3016-.231.6294-.231.9833v.8079c0 .474.083.8771.249 1.2095.17.3324.405.5863.707.7617.301.1724.654.2586 1.057.2586.261 0 .5-.037.715-.1108.216-.077.402-.1909.559-.3417s.277-.337.36-.5586l1.307.2355c-.105.3847-.293.7217-.564 1.011-.267.2862-.604.5093-1.011.6694-.403.1569-.863.2354-1.38.2354z"/><path d="m251.935 88.9991v-7.0909h1.334v1.1264h.074c.129-.3816.357-.6817.683-.9002.329-.2216.702-.3324 1.117-.3324.086 0 .188.0031.305.0093.12.0061.214.0138.281.023v1.3204c-.055-.0154-.153-.0324-.295-.0508-.142-.0216-.283-.0323-.425-.0323-.326 0-.617.0692-.872.2077-.253.1354-.453.3247-.6.5678-.148.2401-.222.514-.222.8218v4.3302z"/><path d="m257.021 89.0868c-.252 0-.469-.0892-.651-.2677-.182-.1816-.272-.4001-.272-.6556 0-.2523.09-.4678.272-.6463.182-.1816.399-.2723.651-.2723s.469.0907.651.2723c.181.1785.272.394.272.6463 0 .1693-.043.3247-.129.4663-.083.1385-.194.2493-.332.3324-.139.0831-.293.1246-.462.1246z"/><path d="m262.78 89.1422c-.686 0-1.277-.1554-1.773-.4662-.492-.314-.871-.7464-1.135-1.2973-.265-.5509-.397-1.1818-.397-1.8927 0-.7202.135-1.3557.406-1.9066.271-.554.652-.9864 1.145-1.2973.492-.3108 1.072-.4662 1.74-.4662.539 0 1.019.1 1.44.3.422.197.762.474 1.021.831.261.357.417.774.466 1.2511h-1.343c-.074-.3324-.244-.6186-.508-.8587-.262-.24-.613-.3601-1.053-.3601-.384 0-.721.1016-1.011.3047-.286.2001-.509.4863-.669.8587-.16.3693-.24.8063-.24 1.3111 0 .517.078.9633.235 1.3387.157.3755.379.6663.665.8726.289.2062.629.3093 1.02.3093.262 0 .499-.0477.711-.1432.216-.0984.396-.2385.54-.4201.148-.1815.251-.4001.31-.6555h1.343c-.049.4586-.199.8679-.448 1.228s-.583.6432-1.002.8494c-.415.2062-.903.3093-1.463.3093z"/><path d="m270.156 89.1422c-.665 0-1.245-.1523-1.74-.457-.496-.3047-.881-.731-1.155-1.2788-.273-.5478-.41-1.1879-.41-1.9204 0-.7356.137-1.3788.41-1.9297.274-.5509.659-.9787 1.155-1.2834.495-.3047 1.075-.457 1.74-.457s1.245.1523 1.74.457c.496.3047.881.7325 1.155 1.2834.273.5509.41 1.1941.41 1.9297 0 .7325-.137 1.3726-.41 1.9204-.274.5478-.659.9741-1.155 1.2788-.495.3047-1.075.457-1.74.457zm.005-1.1587c.43 0 .787-.1139 1.071-.3416.283-.2278.492-.5309.627-.9095.139-.3785.208-.7956.208-1.251 0-.4525-.069-.8679-.208-1.2465-.135-.3816-.344-.6878-.627-.9187-.284-.2308-.641-.3462-1.071-.3462-.434 0-.794.1154-1.081.3462-.283.2309-.494.5371-.632.9187-.136.3786-.203.794-.203 1.2465 0 .4554.067.8725.203 1.251.138.3786.349.6817.632.9095.287.2277.647.3416 1.081.3416z"/><path d="m110.928 140.658v-9.75h1.348v1.15h.115c.08-.148.196-.319.346-.513.151-.194.36-.363.628-.508.268-.147.622-.221 1.062-.221.572 0 1.083.145 1.533.434.449.289.801.706 1.057 1.251.258.545.388 1.2.388 1.967 0 .766-.128 1.423-.384 1.971-.255.544-.606.965-1.052 1.26-.446.292-.956.439-1.528.439-.431 0-.783-.073-1.057-.217-.271-.145-.483-.314-.637-.508s-.273-.366-.356-.517h-.083v3.762zm1.352-6.204c0 .498.073.935.217 1.311.145.375.354.669.628.881.274.21.61.314 1.007.314.412 0 .757-.109 1.034-.327.277-.222.486-.522.628-.901.144-.378.216-.804.216-1.278 0-.468-.07-.888-.212-1.261-.138-.372-.348-.666-.628-.881-.277-.216-.623-.324-1.038-.324-.401 0-.739.104-1.016.31-.274.206-.482.494-.623.863-.142.369-.213.8-.213 1.293z"/><path d="m120.331 133.789v4.21h-1.38v-9.454h1.362v3.517h.088c.166-.381.42-.684.761-.909.342-.225.788-.337 1.339-.337.487 0 .911.1 1.274.3.367.2.65.499.85.896.203.393.305.886.305 1.477v4.51h-1.381v-4.344c0-.52-.134-.923-.401-1.21-.268-.289-.641-.433-1.118-.433-.326 0-.618.069-.877.207-.255.139-.457.342-.605.61-.144.264-.217.584-.217.96z"/><path d="m126.771 137.999v-7.091h1.381v7.091zm.698-8.185c-.24 0-.447-.08-.619-.24-.169-.163-.254-.357-.254-.582 0-.227.085-.421.254-.581.172-.163.379-.245.619-.245s.444.082.614.245c.172.16.258.354.258.581 0 .225-.086.419-.258.582-.17.16-.374.24-.614.24z"/><path d="m131.389 128.545v9.454h-1.38v-9.454z"/><path d="m133.246 137.999v-7.091h1.38v7.091zm.697-8.185c-.24 0-.446-.08-.618-.24-.17-.163-.254-.357-.254-.582 0-.227.084-.421.254-.581.172-.163.378-.245.618-.245s.445.082.614.245c.173.16.259.354.259.581 0 .225-.086.419-.259.582-.169.16-.374.24-.614.24z"/><path d="m136.483 140.658v-9.75h1.348v1.15h.116c.08-.148.195-.319.346-.513s.36-.363.628-.508c.268-.147.622-.221 1.062-.221.572 0 1.083.145 1.532.434.45.289.802.706 1.058 1.251.258.545.387 1.2.387 1.967 0 .766-.127 1.423-.383 1.971-.255.544-.606.965-1.052 1.26-.447.292-.956.439-1.528.439-.431 0-.784-.073-1.058-.217-.27-.145-.483-.314-.637-.508s-.272-.366-.355-.517h-.083v3.762zm1.353-6.204c0 .498.072.935.217 1.311.145.375.354.669.628.881.274.21.609.314 1.006.314.413 0 .757-.109 1.034-.327.277-.222.487-.522.628-.901.145-.378.217-.804.217-1.278 0-.468-.071-.888-.212-1.261-.139-.372-.348-.666-.628-.881-.277-.216-.623-.324-1.039-.324-.4 0-.738.104-1.015.31-.274.206-.482.494-.624.863-.141.369-.212.8-.212 1.293z"/><path d="m144.507 140.658v-9.75h1.348v1.15h.115c.08-.148.196-.319.346-.513.151-.194.361-.363.628-.508.268-.147.622-.221 1.062-.221.573 0 1.083.145 1.533.434.449.289.802.706 1.057 1.251.258.545.388 1.2.388 1.967 0 .766-.128 1.423-.383 1.971-.256.544-.607.965-1.053 1.26-.446.292-.956.439-1.528.439-.431 0-.783-.073-1.057-.217-.271-.145-.483-.314-.637-.508s-.273-.366-.356-.517h-.083v3.762zm1.352-6.204c0 .498.073.935.217 1.311.145.375.354.669.628.881.274.21.61.314 1.007.314.412 0 .757-.109 1.034-.327.277-.222.486-.522.628-.901.144-.378.217-.804.217-1.278 0-.468-.071-.888-.213-1.261-.138-.372-.348-.666-.628-.881-.277-.216-.623-.324-1.038-.324-.4 0-.739.104-1.016.31-.274.206-.482.494-.623.863-.142.369-.213.8-.213 1.293z"/><path d="m158.222 140.57c-.954 0-1.8-.13-2.539-.392-.735-.258-1.355-.64-1.86-1.145-.505-.501-.888-1.117-1.15-1.846-.261-.73-.392-1.562-.392-2.498 0-.911.132-1.73.397-2.456s.649-1.345 1.154-1.856c.508-.514 1.125-.906 1.851-1.177.727-.271 1.551-.406 2.475-.406.883 0 1.662.138 2.336.415s1.24.657 1.699 1.141c.461.483.809 1.037 1.043 1.662.234.624.351 1.284.351 1.98 0 .486-.031.962-.093 1.427-.061.461-.175.88-.341 1.255-.163.373-.4.671-.711.896-.308.221-.708.337-1.2.346-.262.009-.516-.022-.762-.092-.246-.071-.456-.185-.628-.342-.172-.16-.277-.363-.314-.609h-.055c-.074.181-.197.351-.37.508-.172.153-.392.276-.66.369-.264.089-.572.126-.923.111-.388-.016-.737-.103-1.048-.264-.311-.16-.577-.381-.799-.664-.218-.283-.386-.619-.503-1.007-.117-.387-.175-.818-.175-1.292 0-.456.066-.864.198-1.224.133-.363.313-.675.54-.937.231-.264.496-.474.794-.628.299-.154.614-.25.947-.29.323-.037.62-.028.891.027.271.056.495.14.674.254.181.114.295.239.341.374h.06v-.517h1.136v4.284c0 .243.063.449.189.619.13.169.313.254.55.254.28 0 .498-.103.655-.31.16-.206.273-.523.337-.951.068-.427.102-.975.102-1.643 0-.468-.063-.908-.19-1.32-.123-.416-.306-.791-.549-1.127-.24-.338-.535-.629-.886-.872-.351-.244-.751-.431-1.201-.564-.446-.132-.94-.198-1.481-.198-.736 0-1.39.114-1.962.341-.573.225-1.056.55-1.45.975-.391.424-.688.934-.891 1.528-.2.591-.3 1.254-.3 1.989 0 .767.103 1.447.309 2.041.206.591.511 1.089.914 1.496.404.406.902.714 1.496.923.594.212 1.279.318 2.054.318.345 0 .684-.03 1.016-.092.332-.058.628-.126.886-.203.262-.074.457-.134.587-.18l.323 1.011c-.191.089-.445.177-.762.263-.314.086-.655.157-1.025.212-.366.056-.728.083-1.085.083zm-.424-3.84c.4 0 .721-.08.965-.24.246-.161.423-.399.53-.716.111-.32.167-.72.167-1.2-.003-.468-.063-.841-.18-1.118-.114-.28-.293-.48-.536-.6-.24-.123-.549-.184-.928-.184-.348 0-.645.084-.891.254-.243.169-.429.398-.558.687-.127.29-.191.611-.194.965.003.373.055.724.157 1.053.104.326.274.591.507.794.237.203.558.305.961.305z"/><path d="m168.167 138.142c-.698 0-1.3-.149-1.805-.448-.501-.301-.889-.724-1.163-1.269-.271-.548-.406-1.19-.406-1.925 0-.727.135-1.367.406-1.921.274-.554.656-.986 1.145-1.297.492-.311 1.068-.466 1.726-.466.401 0 .788.066 1.164.198.375.133.712.34 1.011.624.298.283.534.651.706 1.103.173.449.259.996.259 1.639v.489h-5.637v-1.034h4.284c0-.363-.074-.685-.222-.965-.147-.283-.355-.506-.623-.669-.264-.163-.575-.245-.932-.245-.388 0-.727.096-1.016.286-.286.188-.508.434-.665.739-.154.302-.231.629-.231.983v.808c0 .474.084.877.25 1.21.169.332.405.586.706.761.302.173.654.259 1.057.259.262 0 .5-.037.716-.111.215-.077.401-.191.558-.341.157-.151.277-.337.361-.559l1.306.235c-.105.385-.292.722-.563 1.011-.268.287-.605.51-1.011.67-.403.157-.864.235-1.381.235z"/><path d="m176.919 133.406v1.195h-4.192v-1.195z"/><path d="m181.746 138.142c-.687 0-1.278-.155-1.773-.466-.493-.314-.871-.746-1.136-1.297-.264-.551-.397-1.182-.397-1.893 0-.72.136-1.356.407-1.907.27-.554.652-.986 1.144-1.297.493-.311 1.073-.466 1.741-.466.538 0 1.019.1 1.44.3.422.197.762.474 1.02.831.262.357.417.774.467 1.251h-1.344c-.074-.332-.243-.619-.508-.859-.261-.24-.612-.36-1.052-.36-.385 0-.722.102-1.011.305-.286.2-.509.486-.67.859-.16.369-.24.806-.24 1.311 0 .517.079.963.236 1.338.157.376.378.667.665.873.289.206.629.309 1.02.309.261 0 .498-.047.711-.143.215-.098.395-.238.54-.42.148-.182.251-.4.309-.655h1.344c-.05.458-.199.867-.448 1.227-.249.361-.583.644-1.002.85-.415.206-.903.309-1.463.309z"/><path d="m189.122 138.142c-.665 0-1.245-.152-1.741-.457-.495-.304-.88-.731-1.154-1.279-.274-.547-.411-1.188-.411-1.92 0-.736.137-1.379.411-1.93s.659-.978 1.154-1.283c.496-.305 1.076-.457 1.741-.457.664 0 1.245.152 1.74.457.496.305.88.732 1.154 1.283s.411 1.194.411 1.93c0 .732-.137 1.373-.411 1.92-.274.548-.658.975-1.154 1.279-.495.305-1.076.457-1.74.457zm.004-1.159c.431 0 .788-.113 1.071-.341s.493-.531.628-.91c.139-.378.208-.795.208-1.251 0-.452-.069-.868-.208-1.246-.135-.382-.345-.688-.628-.919s-.64-.346-1.071-.346c-.434 0-.794.115-1.08.346-.283.231-.494.537-.632.919-.136.378-.204.794-.204 1.246 0 .456.068.873.204 1.251.138.379.349.682.632.91.286.228.646.341 1.08.341z"/><path d="m193.968 137.999v-7.091h1.334v1.127h.074c.129-.382.357-.682.683-.901.329-.221.702-.332 1.117-.332.086 0 .188.003.305.009.12.006.214.014.282.023v1.321c-.056-.016-.154-.033-.296-.051-.142-.022-.283-.032-.425-.032-.326 0-.617.069-.872.207-.253.136-.453.325-.6.568-.148.24-.222.514-.222.822v4.33z"/><path d="m198.957 140.658v-9.75h1.348v1.15h.115c.08-.148.196-.319.347-.513.15-.194.36-.363.628-.508.267-.147.621-.221 1.061-.221.573 0 1.084.145 1.533.434s.802.706 1.057 1.251c.259.545.388 1.2.388 1.967 0 .766-.128 1.423-.383 1.971-.256.544-.607.965-1.053 1.26-.446.292-.955.439-1.528.439-.431 0-.783-.073-1.057-.217-.271-.145-.483-.314-.637-.508s-.272-.366-.356-.517h-.083v3.762zm1.353-6.204c0 .498.072.935.217 1.311.144.375.354.669.627.881.274.21.61.314 1.007.314.412 0 .757-.109 1.034-.327.277-.222.486-.522.628-.901.144-.378.217-.804.217-1.278 0-.468-.071-.888-.213-1.261-.138-.372-.347-.666-.627-.881-.277-.216-.624-.324-1.039-.324-.4 0-.739.104-1.016.31-.274.206-.481.494-.623.863s-.212.8-.212 1.293z"/><path d="m207.89 138.087c-.252 0-.469-.089-.651-.268-.182-.182-.272-.4-.272-.655 0-.253.09-.468.272-.647.182-.181.399-.272.651-.272s.469.091.651.272c.181.179.272.394.272.647 0 .169-.043.324-.129.466-.083.138-.194.249-.332.332-.139.083-.293.125-.462.125z"/><path d="m213.649 138.142c-.686 0-1.277-.155-1.773-.466-.492-.314-.871-.746-1.135-1.297-.265-.551-.397-1.182-.397-1.893 0-.72.135-1.356.406-1.907.271-.554.652-.986 1.145-1.297.492-.311 1.072-.466 1.74-.466.539 0 1.019.1 1.44.3.422.197.762.474 1.021.831.261.357.417.774.466 1.251h-1.343c-.074-.332-.244-.619-.508-.859-.262-.24-.613-.36-1.053-.36-.385 0-.722.102-1.011.305-.286.2-.509.486-.669.859-.16.369-.24.806-.24 1.311 0 .517.078.963.235 1.338.157.376.379.667.665.873.289.206.629.309 1.02.309.262 0 .499-.047.711-.143.216-.098.396-.238.54-.42.148-.182.251-.4.31-.655h1.343c-.049.458-.199.867-.448 1.227-.249.361-.583.644-1.002.85-.415.206-.903.309-1.463.309z"/><path d="m221.025 138.142c-.665 0-1.245-.152-1.74-.457-.496-.304-.881-.731-1.155-1.279-.273-.547-.41-1.188-.41-1.92 0-.736.137-1.379.41-1.93.274-.551.659-.978 1.155-1.283.495-.305 1.075-.457 1.74-.457s1.245.152 1.74.457c.496.305.881.732 1.154 1.283.274.551.411 1.194.411 1.93 0 .732-.137 1.373-.411 1.92-.273.548-.658.975-1.154 1.279-.495.305-1.075.457-1.74.457zm.005-1.159c.43 0 .787-.113 1.071-.341.283-.228.492-.531.627-.91.139-.378.208-.795.208-1.251 0-.452-.069-.868-.208-1.246-.135-.382-.344-.688-.627-.919-.284-.231-.641-.346-1.071-.346-.434 0-.794.115-1.081.346-.283.231-.494.537-.632.919-.136.378-.203.794-.203 1.246 0 .456.067.873.203 1.251.138.379.349.682.632.91.287.228.647.341 1.081.341z"/><path d="m225.871 137.999v-7.091h1.325v1.154h.088c.147-.391.389-.695.725-.914.335-.221.737-.332 1.204-.332.474 0 .871.111 1.191.332.324.222.562.527.716.914h.074c.169-.378.438-.68.808-.905.369-.227.809-.341 1.32-.341.643 0 1.168.201 1.574.605.41.403.614 1.011.614 1.823v4.755h-1.38v-4.626c0-.48-.131-.827-.392-1.043-.262-.215-.574-.323-.938-.323-.449 0-.798.138-1.048.415-.249.274-.373.627-.373 1.058v4.519h-1.376v-4.713c0-.385-.12-.694-.36-.928s-.553-.351-.937-.351c-.262 0-.504.069-.725.208-.219.135-.396.324-.531.567-.132.244-.199.525-.199.845v4.372z"/><path d="m113.984 187.142c-.699 0-1.3-.149-1.805-.447-.502-.302-.889-.725-1.163-1.27-.271-.548-.407-1.189-.407-1.925 0-.726.136-1.366.407-1.92.274-.554.655-.987 1.145-1.298.492-.311 1.067-.466 1.726-.466.4 0 .788.066 1.163.199.376.132.713.34 1.011.623.299.283.534.651.707 1.103.172.449.258.996.258 1.639v.489h-5.636v-1.034h4.284c0-.363-.074-.685-.222-.965-.148-.283-.355-.506-.623-.669-.265-.163-.576-.245-.933-.245-.387 0-.726.096-1.015.287-.287.187-.508.433-.665.738-.154.302-.231.63-.231.983v.808c0 .474.083.878.249 1.21.17.332.405.586.707.762.301.172.654.258 1.057.258.261 0 .5-.037.715-.111.216-.077.402-.19.559-.341s.277-.337.36-.559l1.307.236c-.105.384-.293.721-.564 1.011-.267.286-.604.509-1.011.669-.403.157-.863.235-1.38.235z"/><path d="m119.938 177.545v9.454h-1.38v-9.454z"/><path d="m123.175 177.545v9.454h-1.38v-9.454z"/><path d="m125.032 186.999v-7.091h1.381v7.091zm.697-8.185c-.24 0-.446-.08-.618-.24-.169-.163-.254-.357-.254-.581 0-.228.085-.422.254-.582.172-.163.378-.245.618-.245.241 0 .445.082.614.245.173.16.259.354.259.582 0 .224-.086.418-.259.581-.169.16-.373.24-.614.24z"/><path d="m131.257 187.142c-.665 0-1.245-.152-1.741-.457-.495-.304-.88-.731-1.154-1.278-.274-.548-.411-1.188-.411-1.921 0-.735.137-1.379.411-1.93.274-.55.659-.978 1.154-1.283.496-.305 1.076-.457 1.741-.457.664 0 1.244.152 1.74.457.495.305.88.733 1.154 1.283.274.551.411 1.195.411 1.93 0 .733-.137 1.373-.411 1.921-.274.547-.659.974-1.154 1.278-.496.305-1.076.457-1.74.457zm.004-1.158c.431 0 .788-.114 1.071-.342s.493-.531.628-.909c.139-.379.208-.796.208-1.251 0-.453-.069-.868-.208-1.247-.135-.382-.345-.688-.628-.919-.283-.23-.64-.346-1.071-.346-.434 0-.794.116-1.08.346-.283.231-.494.537-.633.919-.135.379-.203.794-.203 1.247 0 .455.068.872.203 1.251.139.378.35.681.633.909.286.228.646.342 1.08.342z"/><path d="m139.413 179.908v1.108h-3.873v-1.108zm-2.835-1.698h1.381v6.707c0 .268.04.47.12.605.08.132.183.223.309.272.129.047.269.07.42.07.111 0 .208-.008.291-.023.083-.016.148-.028.194-.037l.249 1.14c-.08.031-.194.061-.342.092-.147.034-.332.053-.554.056-.363.006-.701-.059-1.015-.194-.314-.136-.568-.345-.762-.628s-.291-.639-.291-1.067z"/><path d="m146.632 189.571c-.954 0-1.801-.131-2.539-.393-.736-.258-1.356-.64-1.861-1.145-.504-.501-.888-1.117-1.149-1.846-.262-.73-.393-1.562-.393-2.498 0-.911.133-1.729.397-2.456.265-.726.65-1.345 1.154-1.856.508-.513 1.125-.906 1.852-1.177.726-.271 1.551-.406 2.474-.406.883 0 1.662.139 2.336.416s1.24.657 1.699 1.14c.462.483.809 1.037 1.043 1.662.234.624.351 1.285.351 1.98 0 .486-.031.962-.092 1.427-.062.461-.176.88-.342 1.255-.163.373-.4.671-.711.896-.308.222-.708.337-1.2.346-.262.009-.516-.021-.762-.092s-.455-.185-.628-.342c-.172-.16-.277-.363-.314-.609h-.055c-.074.181-.197.351-.369.508-.173.154-.393.277-.66.369-.265.089-.573.126-.924.111-.388-.016-.737-.103-1.048-.263s-.577-.382-.798-.665c-.219-.283-.387-.619-.504-1.007-.116-.387-.175-.818-.175-1.292 0-.456.066-.863.199-1.223.132-.364.312-.676.54-.938.231-.264.495-.474.794-.627.298-.154.614-.251.946-.291.323-.037.62-.028.891.027.271.056.496.14.674.254.182.114.296.239.342.374h.06v-.517h1.135v4.284c0 .243.063.45.19.619.129.169.312.254.549.254.28 0 .499-.103.656-.31.16-.206.272-.523.337-.951.067-.427.101-.975.101-1.643 0-.468-.063-.908-.189-1.32-.123-.416-.306-.791-.55-1.127-.24-.338-.535-.629-.886-.872s-.751-.431-1.2-.563c-.446-.133-.94-.199-1.482-.199-.736 0-1.39.114-1.962.342-.572.224-1.056.549-1.45.974-.39.424-.687.934-.891 1.528-.2.591-.3 1.254-.3 1.99 0 .766.103 1.446.31 2.04.206.591.511 1.089.914 1.496.403.406.901.714 1.495.923.594.212 1.279.319 2.055.319.344 0 .683-.031 1.015-.093.333-.058.628-.126.887-.203.261-.074.457-.134.586-.18l.323 1.011c-.191.089-.445.177-.762.263-.313.086-.655.157-1.024.213-.367.055-.728.083-1.085.083zm-.425-3.841c.4 0 .722-.08.965-.24.246-.16.423-.399.531-.716.111-.32.166-.72.166-1.2-.003-.468-.063-.84-.18-1.117-.114-.28-.292-.48-.536-.6-.24-.124-.549-.185-.928-.185-.347 0-.644.085-.89.254-.244.169-.43.398-.559.688-.126.289-.191.611-.194.964.003.373.055.724.157 1.053.105.326.274.591.508.794.237.203.557.305.96.305z"/><path d="m156.895 179.908v1.108h-4.007v-1.108zm-2.908 7.091v-7.912c0-.444.097-.811.291-1.104.194-.295.451-.515.771-.66.32-.148.668-.221 1.043-.221.277 0 .514.023.711.069.197.043.343.083.439.12l-.324 1.117c-.064-.018-.147-.04-.249-.065-.101-.027-.225-.041-.369-.041-.336 0-.576.083-.72.249-.142.166-.213.406-.213.72v7.728z"/><path d="m163.366 181.64-1.251.221c-.052-.16-.135-.312-.249-.457-.111-.145-.261-.263-.452-.355-.191-.093-.43-.139-.716-.139-.391 0-.717.088-.979.263-.261.173-.392.396-.392.67 0 .237.088.427.263.572.176.145.459.263.85.356l1.126.258c.653.151 1.139.383 1.459.697s.48.722.48 1.224c0 .424-.123.803-.369 1.135-.243.33-.584.588-1.021.776-.434.188-.937.281-1.509.281-.794 0-1.442-.169-1.944-.507-.501-.342-.809-.827-.923-1.455l1.334-.203c.083.348.254.611.513.79.258.175.595.263 1.011.263.452 0 .814-.094 1.084-.282.271-.191.407-.423.407-.697 0-.221-.083-.408-.25-.558-.163-.151-.414-.265-.752-.342l-1.2-.263c-.662-.151-1.151-.391-1.468-.72-.314-.33-.471-.747-.471-1.251 0-.419.117-.785.351-1.099.233-.314.557-.559.969-.734.412-.179.885-.268 1.417-.268.767 0 1.37.166 1.81.499.44.329.731.771.872 1.325z"/><path d="m168.296 187.156c-.73-.003-1.353-.195-1.87-.577-.517-.381-.912-.937-1.186-1.666-.274-.73-.411-1.608-.411-2.636 0-1.025.137-1.901.411-2.627.277-.726.674-1.28 1.191-1.662.52-.382 1.141-.573 1.865-.573.723 0 1.343.193 1.86.578.517.381.913.935 1.187 1.661.277.724.415 1.598.415 2.623 0 1.031-.137 1.911-.411 2.64-.274.727-.669 1.282-1.186 1.667-.517.381-1.139.572-1.865.572zm0-1.232c.64 0 1.14-.313 1.5-.937.363-.625.545-1.529.545-2.71 0-.785-.083-1.448-.249-1.99-.164-.545-.399-.957-.707-1.237-.304-.283-.668-.425-1.089-.425-.637 0-1.137.314-1.501.942-.363.628-.546 1.531-.549 2.71 0 .788.082 1.454.245 1.999.166.541.401.952.706 1.232.305.277.671.416 1.099.416z"/><path d="m176.401 187.142c-.686 0-1.277-.155-1.773-.466-.492-.314-.871-.746-1.135-1.297-.265-.551-.397-1.182-.397-1.893 0-.72.135-1.356.406-1.906.271-.554.652-.987 1.145-1.298.492-.311 1.072-.466 1.74-.466.539 0 1.019.1 1.441.3.421.197.761.474 1.02.831.261.357.417.774.466 1.251h-1.343c-.074-.332-.243-.618-.508-.859-.262-.24-.613-.36-1.053-.36-.384 0-.721.102-1.011.305-.286.2-.509.486-.669.859-.16.369-.24.806-.24 1.311 0 .517.078.963.235 1.339.157.375.379.666.665.872.289.206.629.309 1.02.309.262 0 .499-.047.711-.143.216-.098.396-.238.54-.42.148-.181.251-.4.31-.655h1.343c-.049.458-.198.868-.448 1.228-.249.36-.583.643-1.001.849-.416.206-.904.309-1.464.309z"/><path d="m180.79 186.999v-7.091h1.381v7.091zm.697-8.185c-.24 0-.446-.08-.618-.24-.17-.163-.254-.357-.254-.581 0-.228.084-.422.254-.582.172-.163.378-.245.618-.245s.445.082.614.245c.173.16.259.354.259.582 0 .224-.086.418-.259.581-.169.16-.374.24-.614.24z"/><path d="m187.084 187.142c-.699 0-1.301-.149-1.805-.447-.502-.302-.89-.725-1.164-1.27-.271-.548-.406-1.189-.406-1.925 0-.726.135-1.366.406-1.92.274-.554.656-.987 1.145-1.298.493-.311 1.068-.466 1.727-.466.4 0 .788.066 1.163.199.376.132.713.34 1.011.623.299.283.534.651.706 1.103.173.449.259.996.259 1.639v.489h-5.637v-1.034h4.284c0-.363-.074-.685-.221-.965-.148-.283-.356-.506-.624-.669-.264-.163-.575-.245-.932-.245-.388 0-.726.096-1.016.287-.286.187-.508.433-.664.738-.154.302-.231.63-.231.983v.808c0 .474.083.878.249 1.21.169.332.405.586.706.762.302.172.654.258 1.057.258.262 0 .501-.037.716-.111.215-.077.402-.19.559-.341s.277-.337.36-.559l1.306.236c-.104.384-.292.721-.563 1.011-.268.286-.605.509-1.011.669-.403.157-.863.235-1.38.235z"/><path d="m194.967 179.908v1.108h-3.873v-1.108zm-2.834-1.698h1.38v6.707c0 .268.04.47.12.605.08.132.183.223.31.272.129.047.269.07.42.07.11 0 .207-.008.29-.023.084-.016.148-.028.194-.037l.25 1.14c-.08.031-.194.061-.342.092-.148.034-.332.053-.554.056-.363.006-.702-.059-1.016-.194-.313-.136-.567-.345-.761-.628s-.291-.639-.291-1.067z"/><path d="m197.367 189.658c-.206 0-.394-.017-.563-.05-.17-.031-.296-.065-.379-.102l.332-1.131c.253.068.477.097.674.088.197-.01.371-.083.522-.222.154-.138.289-.365.406-.678l.171-.471-2.594-7.184h1.477l1.796 5.503h.074l1.795-5.503h1.482l-2.922 8.038c-.135.369-.308.681-.517.937-.209.258-.458.452-.748.581-.289.13-.625.194-1.006.194z"/><path d="m204.323 187.087c-.253 0-.47-.089-.651-.268-.182-.181-.273-.4-.273-.655 0-.253.091-.468.273-.647.181-.181.398-.272.651-.272.252 0 .469.091.651.272.181.179.272.394.272.647 0 .169-.043.324-.129.466-.083.138-.194.249-.333.332-.138.083-.292.125-.461.125z"/><path d="m207.095 186.999v-7.091h1.38v7.091zm.697-8.185c-.24 0-.446-.08-.619-.24-.169-.163-.254-.357-.254-.581 0-.228.085-.422.254-.582.173-.163.379-.245.619-.245s.445.082.614.245c.172.16.259.354.259.582 0 .224-.087.418-.259.581-.169.16-.374.24-.614.24z"/><path d="m213.319 187.142c-.665 0-1.245-.152-1.74-.457-.496-.304-.881-.731-1.154-1.278-.274-.548-.411-1.188-.411-1.921 0-.735.137-1.379.411-1.93.273-.55.658-.978 1.154-1.283.495-.305 1.075-.457 1.74-.457s1.245.152 1.74.457c.496.305.881.733 1.155 1.283.274.551.41 1.195.41 1.93 0 .733-.136 1.373-.41 1.921-.274.547-.659.974-1.155 1.278-.495.305-1.075.457-1.74.457zm.005-1.158c.431 0 .788-.114 1.071-.342s.492-.531.628-.909c.138-.379.207-.796.207-1.251 0-.453-.069-.868-.207-1.247-.136-.382-.345-.688-.628-.919-.283-.23-.64-.346-1.071-.346-.434 0-.794.116-1.081.346-.283.231-.494.537-.632.919-.135.379-.203.794-.203 1.247 0 .455.068.872.203 1.251.138.378.349.681.632.909.287.228.647.342 1.081.342z"/><path d="m113.582 236.138c-.572 0-1.083-.146-1.532-.439-.446-.295-.797-.715-1.053-1.26-.252-.548-.378-1.205-.378-1.971 0-.767.127-1.422.383-1.967.258-.545.612-.962 1.062-1.251.449-.289.958-.434 1.528-.434.44 0 .794.074 1.061.222.271.144.481.314.628.507.151.194.268.365.351.513h.083v-3.513h1.381v9.454h-1.348v-1.103h-.116c-.083.151-.203.323-.36.517-.154.194-.366.363-.637.508-.271.144-.622.217-1.053.217zm.305-1.177c.397 0 .733-.105 1.007-.314.276-.213.486-.507.627-.882.145-.376.217-.813.217-1.311 0-.493-.07-.923-.212-1.293-.142-.369-.349-.657-.623-.863s-.613-.309-1.016-.309c-.415 0-.762.107-1.039.323-.277.215-.486.509-.627.882-.139.372-.208.792-.208 1.26 0 .474.071.9.212 1.279.142.378.351.678.628.9.28.218.625.328 1.034.328z"/><path d="m122.44 228.908v1.108h-4.007v-1.108zm-2.908 7.091v-7.912c0-.444.097-.811.291-1.104.194-.295.451-.515.771-.66.32-.148.668-.221 1.043-.221.277 0 .514.023.711.069.197.043.343.083.439.12l-.324 1.117c-.064-.018-.147-.04-.249-.065-.101-.027-.225-.041-.369-.041-.336 0-.576.083-.72.249-.142.166-.213.406-.213.72v7.728z"/><path d="m123.864 235.999v-7.091h1.381v7.091zm.698-8.185c-.24 0-.447-.08-.619-.24-.169-.163-.254-.357-.254-.581 0-.228.085-.422.254-.582.172-.163.379-.245.619-.245s.444.082.614.245c.172.16.258.354.258.582 0 .224-.086.418-.258.581-.17.16-.374.24-.614.24z"/><path d="m132.415 230.64-1.251.221c-.052-.16-.135-.312-.249-.457-.111-.145-.262-.263-.452-.355-.191-.093-.43-.139-.716-.139-.391 0-.717.088-.979.263-.261.173-.392.396-.392.67 0 .237.088.427.263.572s.459.263.85.356l1.126.258c.652.151 1.139.383 1.459.697s.48.722.48 1.224c0 .424-.123.803-.369 1.135-.244.33-.584.588-1.021.776-.434.188-.937.281-1.509.281-.794 0-1.442-.169-1.944-.507-.501-.342-.809-.827-.923-1.455l1.334-.203c.083.348.254.611.512.79.259.175.596.263 1.011.263.453 0 .815-.094 1.085-.282.271-.191.407-.423.407-.697 0-.221-.084-.408-.25-.558-.163-.151-.414-.265-.752-.342l-1.2-.263c-.662-.151-1.152-.391-1.469-.72-.313-.33-.47-.747-.47-1.251 0-.419.117-.785.35-1.099.234-.314.558-.559.97-.734.412-.179.885-.268 1.417-.268.767 0 1.37.166 1.81.499.44.329.731.771.872 1.325z"/><path d="m135.452 231.789v4.21h-1.38v-9.454h1.361v3.518h.088c.166-.382.42-.685.762-.91.341-.225.788-.337 1.339-.337.486 0 .911.1 1.274.3.366.2.649.499.849.896.203.394.305.886.305 1.477v4.51h-1.38v-4.344c0-.52-.134-.923-.402-1.209-.268-.29-.64-.434-1.117-.434-.327 0-.619.069-.877.207-.256.139-.457.342-.605.61-.145.265-.217.585-.217.96z"/><path d="m144.948 236.142c-.699 0-1.3-.149-1.805-.447-.502-.302-.89-.725-1.163-1.27-.271-.548-.407-1.189-.407-1.925 0-.726.136-1.366.407-1.92.273-.554.655-.987 1.144-1.298.493-.311 1.068-.466 1.727-.466.4 0 .788.066 1.163.199.376.132.713.34 1.011.623.299.283.534.651.707 1.103.172.449.258.996.258 1.639v.489h-5.637v-1.034h4.285c0-.363-.074-.685-.222-.965-.148-.283-.355-.506-.623-.669-.265-.163-.576-.245-.933-.245-.388 0-.726.096-1.015.287-.287.187-.508.433-.665.738-.154.302-.231.63-.231.983v.808c0 .474.083.878.249 1.21.17.332.405.586.707.762.301.172.654.258 1.057.258.261 0 .5-.037.715-.111.216-.077.402-.19.559-.341s.277-.337.36-.559l1.306.236c-.104.384-.292.721-.563 1.011-.267.286-.604.509-1.011.669-.403.157-.863.235-1.38.235z"/><path d="m149.522 235.999v-7.091h1.334v1.127h.074c.129-.382.357-.682.683-.9.329-.222.702-.333 1.117-.333.086 0 .188.003.305.009.12.007.214.014.281.024v1.32c-.055-.016-.153-.032-.295-.051-.142-.021-.283-.032-.425-.032-.326 0-.617.069-.872.207-.253.136-.453.325-.6.568-.148.24-.222.514-.222.822v4.33z"/><path d="m160.203 238.571c-.954 0-1.8-.131-2.539-.393-.736-.258-1.356-.64-1.86-1.145-.505-.501-.888-1.117-1.15-1.846-.262-.73-.392-1.562-.392-2.498 0-.911.132-1.729.397-2.456.264-.726.649-1.345 1.154-1.856.508-.513 1.125-.906 1.851-1.177s1.551-.406 2.474-.406c.884 0 1.662.139 2.336.416s1.241.657 1.699 1.14c.462.483.81 1.037 1.044 1.662.233.624.35 1.285.35 1.98 0 .486-.03.962-.092 1.427-.061.461-.175.88-.342 1.255-.163.373-.4.671-.71.896-.308.222-.708.337-1.201.346-.261.009-.515-.021-.761-.092-.247-.071-.456-.185-.628-.342-.173-.16-.277-.363-.314-.609h-.056c-.073.181-.197.351-.369.508-.172.154-.392.277-.66.369-.265.089-.573.126-.923.111-.388-.016-.737-.103-1.048-.263s-.577-.382-.799-.665c-.218-.283-.386-.619-.503-1.007-.117-.387-.176-.818-.176-1.292 0-.456.067-.863.199-1.223.132-.364.312-.676.54-.938.231-.264.496-.474.794-.627.299-.154.614-.251.946-.291.324-.037.621-.028.891.027.271.056.496.14.674.254.182.114.296.239.342.374h.06v-.517h1.136v4.284c0 .243.063.45.189.619.129.169.312.254.549.254.28 0 .499-.103.656-.31.16-.206.272-.523.337-.951.068-.427.101-.975.101-1.643 0-.468-.063-.908-.189-1.32-.123-.416-.306-.791-.549-1.127-.24-.338-.536-.629-.887-.872-.35-.243-.75-.431-1.2-.563-.446-.133-.94-.199-1.482-.199-.735 0-1.389.114-1.962.342-.572.224-1.055.549-1.449.974-.391.424-.688.934-.891 1.528-.2.591-.3 1.254-.3 1.99 0 .766.103 1.446.309 2.04.206.591.511 1.089.914 1.496.403.406.902.714 1.496.923.594.212 1.279.319 2.054.319.345 0 .683-.031 1.016-.093.332-.058.628-.126.886-.203.262-.074.457-.134.586-.18l.324 1.011c-.191.089-.445.177-.762.263-.314.086-.656.157-1.025.213-.366.055-.728.083-1.085.083zm-.425-3.841c.4 0 .722-.08.965-.24.246-.16.423-.399.531-.716.111-.32.166-.72.166-1.2-.003-.468-.063-.84-.18-1.117-.114-.28-.292-.48-.535-.6-.24-.124-.55-.185-.928-.185-.348 0-.645.085-.891.254-.243.169-.429.398-.559.688-.126.289-.191.611-.194.964.003.373.056.724.157 1.053.105.326.274.591.508.794.237.203.557.305.96.305z"/><path d="m169.156 236.156c-.45 0-.856-.083-1.219-.249-.363-.169-.651-.414-.863-.734-.21-.32-.314-.713-.314-1.177 0-.4.077-.73.23-.988.154-.259.362-.463.624-.614.261-.151.554-.265.877-.342s.652-.135.988-.175c.424-.049.769-.089 1.034-.12.265-.034.457-.088.577-.162s.18-.194.18-.36v-.032c0-.403-.114-.716-.342-.937-.224-.222-.56-.333-1.006-.333-.465 0-.831.103-1.099.31-.264.203-.448.429-.549.678l-1.297-.295c.153-.431.378-.779.674-1.044.298-.267.641-.461 1.029-.581.388-.123.796-.185 1.223-.185.284 0 .584.034.901.102.32.064.618.184.895.36.28.175.51.426.688.752.179.323.268.743.268 1.26v4.709h-1.348v-.969h-.056c-.089.178-.223.354-.401.526-.179.172-.408.316-.688.429-.28.114-.616.171-1.006.171zm.3-1.108c.381 0 .708-.075.978-.226.274-.151.482-.348.624-.591.144-.246.217-.509.217-.789v-.914c-.05.049-.145.095-.287.138-.138.04-.297.076-.475.106-.179.028-.353.054-.522.079-.169.021-.311.04-.425.055-.267.034-.512.091-.734.171-.218.08-.394.195-.526.346-.129.148-.194.345-.194.591 0 .342.126.6.379.776.252.172.574.258.965.258z"/><path d="m177.48 236.142c-.686 0-1.277-.155-1.772-.466-.493-.314-.871-.746-1.136-1.297s-.397-1.182-.397-1.893c0-.72.135-1.356.406-1.906.271-.554.653-.987 1.145-1.298s1.073-.466 1.74-.466c.539 0 1.019.1 1.441.3.421.197.761.474 1.02.831.262.357.417.774.466 1.251h-1.343c-.074-.332-.243-.618-.508-.859-.262-.24-.612-.36-1.053-.36-.384 0-.721.102-1.011.305-.286.2-.509.486-.669.859-.16.369-.24.806-.24 1.311 0 .517.079.963.235 1.339.157.375.379.666.665.872.29.206.63.309 1.02.309.262 0 .499-.047.711-.143.216-.098.396-.238.541-.42.147-.181.25-.4.309-.655h1.343c-.049.458-.198.868-.448 1.228-.249.36-.583.643-1.001.849-.416.206-.904.309-1.464.309z"/><path d="m181.869 235.999v-7.091h1.325v1.155h.088c.148-.391.389-.696.725-.915.335-.221.737-.332 1.205-.332.474 0 .871.111 1.191.332.323.222.561.527.715.915h.074c.169-.379.439-.681.808-.905.369-.228.809-.342 1.32-.342.644 0 1.168.202 1.575.605.409.403.614 1.011.614 1.823v4.755h-1.381v-4.625c0-.481-.131-.828-.392-1.044-.262-.215-.574-.323-.937-.323-.45 0-.799.139-1.048.416-.25.273-.374.626-.374 1.057v4.519h-1.376v-4.713c0-.385-.12-.694-.36-.928s-.552-.351-.937-.351c-.262 0-.503.069-.725.208-.218.135-.395.325-.531.568-.132.243-.198.524-.198.844v4.372z"/><path d="m196.415 236.142c-.699 0-1.301-.149-1.805-.447-.502-.302-.89-.725-1.164-1.27-.27-.548-.406-1.189-.406-1.925 0-.726.136-1.366.406-1.92.274-.554.656-.987 1.145-1.298.493-.311 1.068-.466 1.727-.466.4 0 .788.066 1.163.199.376.132.713.34 1.011.623.299.283.534.651.706 1.103.173.449.259.996.259 1.639v.489h-5.637v-1.034h4.284c0-.363-.074-.685-.221-.965-.148-.283-.356-.506-.623-.669-.265-.163-.576-.245-.933-.245-.388 0-.726.096-1.016.287-.286.187-.507.433-.664.738-.154.302-.231.63-.231.983v.808c0 .474.083.878.249 1.21.169.332.405.586.706.762.302.172.654.258 1.058.258.261 0 .5-.037.715-.111.216-.077.402-.19.559-.341s.277-.337.36-.559l1.306.236c-.104.384-.292.721-.563 1.011-.268.286-.605.509-1.011.669-.403.157-.863.235-1.38.235z"/><path d="m201.898 236.087c-.252 0-.469-.089-.651-.268-.182-.181-.272-.4-.272-.655 0-.253.09-.468.272-.647.182-.181.399-.272.651-.272s.469.091.651.272c.181.179.272.394.272.647 0 .169-.043.324-.129.466-.083.138-.194.249-.332.332-.139.083-.293.125-.462.125z"/><path d="m204.67 235.999v-7.091h1.38v7.091zm.697-8.185c-.24 0-.446-.08-.618-.24-.17-.163-.254-.357-.254-.581 0-.228.084-.422.254-.582.172-.163.378-.245.618-.245s.445.082.614.245c.173.16.259.354.259.582 0 .224-.086.418-.259.581-.169.16-.374.24-.614.24z"/><path d="m209.288 231.789v4.21h-1.381v-7.091h1.325v1.155h.088c.163-.376.419-.678.766-.905.351-.228.793-.342 1.325-.342.484 0 .907.102 1.27.305.363.2.645.498.845.895s.3.888.3 1.473v4.51h-1.381v-4.344c0-.514-.133-.915-.401-1.205-.268-.292-.636-.438-1.104-.438-.32 0-.604.069-.854.207-.246.139-.441.342-.586.61-.141.265-.212.585-.212.96z"/><path d="m219.052 228.908v1.108h-4.007v-1.108zm-2.909 7.091v-7.912c0-.444.097-.811.291-1.104.194-.295.451-.515.771-.66.32-.148.668-.221 1.043-.221.277 0 .514.023.711.069.197.043.343.083.439.12l-.323 1.117c-.065-.018-.148-.04-.25-.065-.101-.027-.224-.041-.369-.041-.335 0-.575.083-.72.249-.142.166-.212.406-.212.72v7.728z"/><path d="m223.183 236.142c-.664 0-1.245-.152-1.74-.457-.496-.304-.88-.731-1.154-1.278-.274-.548-.411-1.188-.411-1.921 0-.735.137-1.379.411-1.93.274-.55.658-.978 1.154-1.283.495-.305 1.076-.457 1.74-.457.665 0 1.245.152 1.741.457.495.305.88.733 1.154 1.283.274.551.411 1.195.411 1.93 0 .733-.137 1.373-.411 1.921-.274.547-.659.974-1.154 1.278-.496.305-1.076.457-1.741.457zm.005-1.158c.431 0 .788-.114 1.071-.342s.492-.531.628-.909c.138-.379.208-.796.208-1.251 0-.453-.07-.868-.208-1.247-.136-.382-.345-.688-.628-.919-.283-.23-.64-.346-1.071-.346-.434 0-.794.116-1.08.346-.283.231-.494.537-.633.919-.135.379-.203.794-.203 1.247 0 .455.068.872.203 1.251.139.378.35.681.633.909.286.228.646.342 1.08.342z"/></g></g><g filter="url(#c)"><rect fill="#fff" height="188" rx="4" width="203" x="8" y="100"/><rect height="187" rx="3.5" stroke="#dfe3e8" width="202" x="8.5" y="100.5"/></g><path d="m35.2656 117.625c.3301 0 .6094.279.6094.609 0 .356-.2793.61-.6094.61h-.2031v.482c0 1.041-.4316 2.006-1.1426 2.742l-2.082 2.057 2.082 2.082c.711.711 1.1426 1.701 1.1426 2.717v.482h.2031c.3301 0 .6094.28.6094.61 0 .355-.2793.609-.6094.609h-8.5312c-.3555 0-.6094-.254-.6094-.609 0-.33.2539-.61.6094-.61h.2031v-.482c0-1.016.4063-2.006 1.1172-2.717l2.082-2.082-2.082-2.057c-.7109-.736-1.1172-1.701-1.1172-2.742v-.482h-.2031c-.3555 0-.6094-.254-.6094-.61 0-.33.2539-.609.6094-.609zm-4.2656 7.363-2.082 2.082c-.5078.483-.7618 1.168-.7618 1.854v.482h5.6876v-.482c0-.686-.2793-1.371-.7872-1.854zm0-1.701 2.0566-2.082c.5079-.508.7872-1.168.7872-1.879v-.482h-5.6876v.482c0 .711.254 1.371.7618 1.879z" fill="#707880"/><path d="m25 148.875c0-.889.7109-1.625 1.625-1.625h9.75c.8887 0 1.625.736 1.625 1.625v6.5c0 .914-.7363 1.625-1.625 1.625h-9.75c-.9141 0-1.625-.711-1.625-1.625zm1.2188 0v.584l4.3671 3.58c.5332.432 1.2696.432 1.8028 0l4.3925-3.58v-.584c0-.203-.2031-.406-.4062-.406h-9.75c-.2285 0-.4062.203-.4062.406zm0 2.158v4.342c0 .229.1777.406.4062.406h9.75c.2031 0 .4062-.177.4062-.406v-4.342l-3.6054 2.946c-.9903.812-2.3867.812-3.377 0z" fill="#0f8df4"/><path d="m28.25 180.125c0-1.777 1.4473-3.25 3.25-3.25 1.7773 0 3.25 1.473 3.25 3.25 0 1.803-1.4727 3.25-3.25 3.25-1.8027 0-3.25-1.447-3.25-3.25zm3.25 2.031c1.1172 0 2.0312-.888 2.0312-2.031 0-1.117-.914-2.031-2.0312-2.031-.0254 0-.0508 0-.0762 0 .0508.152.0762.279.0762.406 0 .914-.7363 1.625-1.625 1.625-.1523 0-.2793 0-.4062-.051v.051c0 1.143.8886 2.031 2.0312 2.031zm-4.9004-5.662c1.1934-1.117 2.8438-2.056 4.9004-2.056 2.0312 0 3.6816.939 4.875 2.056 1.1934 1.092 1.9805 2.412 2.3613 3.326.0762.203.0762.432 0 .635-.3808.889-1.1679 2.209-2.3613 3.326s-2.8438 2.031-4.875 2.031c-2.0566 0-3.707-.914-4.9004-2.031s-1.9805-2.437-2.3613-3.326c-.0762-.203-.0762-.432 0-.635.3808-.914 1.1679-2.234 2.3613-3.326zm4.9004-.838c-1.6758 0-3.0215.762-4.0625 1.727-.9902.914-1.6504 1.98-2.0059 2.742.3555.762 1.0157 1.854 2.0059 2.768 1.041.964 2.3867 1.701 4.0625 1.701 1.6504 0 2.9961-.737 4.0371-1.701.9902-.914 1.6504-2.006 2.0059-2.768-.3555-.762-1.0157-1.828-2.0059-2.742-1.041-.965-2.3867-1.727-4.0371-1.727z" fill="#24a522"/><path d="m29.5938 208.938c-.2286 0-.4063.203-.4063.406v2.437c0 .229.1777.407.4063.407.2031 0 .4062-.178.4062-.407v-2.437c0-.203-.2031-.406-.4062-.406zm1.625 0c-.2286 0-.4063.203-.4063.406v2.437c0 .229.1777.407.3809.407.2031 0 .4316-.178.4316-.407l-.0254-2.437c0-.203-.1777-.406-.3808-.406zm2.6406-2.184c-.3301-.432-.8633-.711-1.4473-.711h-.3301c-.1015 0-.2031.025-.2793.025-.33-.228-.7109-.38-1.1172-.38h-.3046v-2.235c0-.99-.8125-1.828-1.8282-1.828-.9902 0-1.8281.838-1.8281 1.828v4.291c-.2793-.127-.5078-.127-.6601-.127-1.1172 0-1.752.94-1.752 1.778 0 .38.1016.736.3301 1.041l2.0058 2.666c.711.964 1.8789 1.523 3.0723 1.523h2.793c.1523 0 .3301 0 .457-.051.7363-.152 1.3711-.508 1.8535-1.041.5586-.558.8633-1.32.8633-2.133v-2.793c0-1.015-.8125-1.828-1.8281-1.853zm.6094 4.646c0 .483-.2032.965-.5333 1.321-.3046.33-.7363.558-1.2695.66-.0508.025-.1015.025-.1523.025h-2.793c-.8125 0-1.5996-.381-2.1074-1.041l-1.9805-2.64c-.0762-.102-.1016-.229-.1016-.33 0-.432.3555-.559.5333-.559.1269 0 .3046.025.457.228l.7109.94c.0762.101.2031.178.3301.178.2793 0 .4063-.28.4063-.407v-6.322c0-.33.2539-.609.5839-.609.3301 0 .6094.279.6094.609v3.326c0 .178.127.407.4063.407.3046 0 .33-.28.7617-.28h.3554c.5333 0 .4571.508.8887.508.2031 0 .2285-.152.5078-.152h.3301c.6856 0 .457.711 1.041.711h.3555c.3555 0 .6348.279.6348.634v2.793zm-1.625-2.462c-.2286 0-.4063.203-.4063.406v2.437c0 .229.1777.407.4063.407.2031 0 .4062-.178.4062-.407v-2.437c0-.203-.2031-.406-.4062-.406z" fill="#06b6d4"/><path d="m37 238.157v3.047c0 .355-.2793.609-.6094.609-.3554 0-.6094-.254-.6094-.584v-3.021c0-1.448-1.1933-2.616-2.6406-2.616h-6.9062l3.2246 2.793c.2539.229.2793.61.0762.864-.127.076-.3047.127-.4571.127-.1523 0-.3047-.026-.4062-.127l-4.4688-3.834c-.1269-.153-.2031-.33-.2031-.508s.0762-.33.2031-.457l4.4688-3.834c.2285-.203.6347-.178.8633.076.2031.254.1777.635-.0762.863l-3.2246 2.743h6.9062c2.1074 0 3.8594 1.751 3.8594 3.859z" fill="#f43f5e"/><path d="m37 264.125c0 3.605-2.9199 6.5-6.5 6.5-3.6055 0-6.5-2.895-6.5-6.5 0-3.58 2.8945-6.5 6.5-6.5 3.5801 0 6.5 2.92 6.5 6.5zm-10.6641-3.275c-.7109.914-1.1171 2.056-1.1171 3.275 0 2.92 2.3613 5.281 5.2812 5.281 1.2188 0 2.3613-.406 3.2754-1.117zm9.4453 3.275c0-2.895-2.3867-5.281-5.2812-5.281-1.2441 0-2.3867.431-3.3008 1.142l7.4395 7.44c.7109-.914 1.1425-2.057 1.1425-3.301z" fill="#1d262e"/><path d="m175.44 129.129c-.578 0-1.098-.111-1.56-.332-.459-.225-.825-.533-1.099-.923-.274-.391-.42-.838-.438-1.339h1.385c.033.406.214.74.54 1.002.326.261.717.392 1.172.392.364 0 .685-.083.965-.249.283-.17.505-.402.665-.697.163-.296.245-.633.245-1.011 0-.385-.083-.728-.25-1.03-.166-.301-.395-.538-.688-.711-.289-.172-.621-.26-.997-.263-.286 0-.574.049-.863.148-.289.098-.523.228-.702.388l-1.306-.194.531-4.765h5.198v1.224h-4.012l-.3 2.645h.056c.184-.178.429-.328.734-.448.307-.12.637-.18.987-.18.576 0 1.088.137 1.538.411.452.274.808.648 1.066 1.122.262.471.391 1.012.388 1.625.003.612-.135 1.159-.416 1.639-.277.48-.661.858-1.154 1.135-.489.274-1.051.411-1.685.411zm5.26-.129 4.127-8.162v-.069h-4.774v-1.224h6.251v1.265l-4.113 8.19z" fill="#4c555e"/><path d="m174.816 175.416c.422.003.837.08 1.246.231.41.151.779.397 1.108.739.333.341.597.803.794 1.385.2.578.302 1.298.305 2.16 0 .828-.083 1.565-.249 2.211-.166.644-.405 1.187-.716 1.63-.308.443-.681.78-1.122 1.011-.44.231-.935.346-1.486.346-.563 0-1.063-.111-1.5-.332-.437-.222-.793-.528-1.067-.919-.274-.394-.445-.846-.512-1.357h1.408c.092.406.28.736.563.988.286.249.656.374 1.108.374.692 0 1.233-.302 1.62-.905.388-.606.584-1.453.587-2.539h-.074c-.16.265-.36.492-.6.683-.237.191-.504.339-.799.443-.296.105-.611.157-.946.157-.545 0-1.041-.134-1.487-.401-.446-.268-.802-.636-1.066-1.104-.265-.467-.397-1.001-.397-1.602 0-.597.135-1.138.406-1.625.274-.486.655-.871 1.145-1.154.492-.286 1.069-.426 1.731-.42zm.005 1.2c-.361 0-.685.09-.974.268-.287.176-.513.414-.679.716-.166.298-.249.631-.249.997s.08.699.24.997c.163.296.384.531.664.706.284.173.607.259.97.259.271 0 .523-.052.757-.157s.439-.249.614-.434c.175-.188.312-.4.411-.637.098-.237.148-.486.148-.748 0-.348-.084-.671-.25-.969-.163-.299-.388-.539-.674-.721-.286-.184-.612-.277-.978-.277zm5.116 8.384v-1.034l3.199-3.315c.342-.36.623-.675.845-.946.224-.274.392-.534.503-.78s.166-.508.166-.785c0-.314-.074-.585-.221-.813-.148-.23-.35-.407-.605-.53-.256-.127-.543-.19-.863-.19-.339 0-.634.069-.887.208-.252.138-.446.334-.581.586-.136.253-.204.548-.204.887h-1.361c0-.576.132-1.079.397-1.51.264-.431.627-.765 1.089-1.002.462-.24.986-.36 1.574-.36.594 0 1.117.119 1.57.356.455.234.811.554 1.066.96.256.403.383.859.383 1.366 0 .351-.066.694-.198 1.03-.129.335-.356.709-.679 1.122-.323.409-.772.906-1.348 1.491l-1.879 1.966v.07h4.257v1.223z" fill="#078605"/><path d="m169.165 147.545v9.455h-1.431v-8.023h-.055l-2.262 1.477v-1.367l2.359-1.542zm2.558 9.455v-1.034l3.199-3.315c.342-.36.623-.675.845-.946.225-.274.392-.534.503-.78s.166-.508.166-.785c0-.314-.074-.585-.221-.813-.148-.23-.35-.407-.605-.53-.255-.127-.543-.19-.863-.19-.339 0-.634.069-.887.208-.252.138-.446.334-.581.586-.136.253-.203.548-.203.887h-1.362c0-.576.132-1.079.397-1.51.264-.431.628-.765 1.089-1.002.462-.24.987-.36 1.574-.36.594 0 1.118.119 1.57.356.456.234.811.554 1.066.96.256.403.384.859.384 1.366 0 .351-.067.694-.199 1.03-.129.335-.355.709-.679 1.122-.323.409-.772.906-1.348 1.491l-1.878 1.966v.07h4.256v1.223zm11.167.129c-.662 0-1.246-.114-1.754-.341-.505-.228-.9-.542-1.187-.942-.286-.4-.427-.856-.424-1.367-.003-.4.078-.767.244-1.103.17-.338.399-.62.688-.845.29-.227.613-.372.97-.434v-.055c-.471-.114-.848-.366-1.131-.757s-.423-.84-.42-1.348c-.003-.483.124-.914.383-1.293.261-.381.62-.682 1.075-.9.456-.219.975-.328 1.556-.328.576 0 1.09.111 1.542.333.456.218.814.518 1.076.9.261.378.394.808.397 1.288-.003.508-.148.957-.434 1.348s-.659.643-1.117.757v.055c.354.062.672.207.955.434.286.225.514.507.683.845.173.336.261.703.264 1.103-.003.511-.148.967-.434 1.367-.287.4-.684.714-1.191.942-.505.227-1.085.341-1.741.341zm0-1.168c.391 0 .73-.064 1.016-.194.286-.132.508-.315.665-.549.157-.237.237-.514.24-.831-.003-.329-.09-.62-.259-.872-.166-.253-.392-.451-.679-.596-.286-.145-.614-.217-.983-.217-.372 0-.703.072-.992.217-.29.145-.517.343-.684.596-.166.252-.247.543-.244.872-.003.317.072.594.226.831.157.234.38.417.669.549.29.13.631.194 1.025.194zm0-4.399c.314 0 .593-.063.836-.189.243-.127.434-.302.572-.527.142-.224.214-.488.217-.789-.003-.296-.074-.554-.212-.776-.136-.221-.325-.392-.568-.512-.243-.123-.525-.185-.845-.185-.326 0-.612.062-.858.185-.244.12-.433.291-.568.512-.136.222-.202.48-.199.776-.003.301.065.565.203.789.139.225.33.4.573.527.246.126.529.189.849.189z" fill="#0578d6"/><path d="m170.991 211.153v-1.154l4.086-6.454h.909v1.699h-.577l-2.922 4.626v.074h5.6v1.209zm4.483 1.847v-2.197l.009-.527v-6.731h1.353v9.455zm7.416.129c-.662 0-1.246-.114-1.754-.341-.505-.228-.9-.542-1.187-.942-.286-.4-.427-.856-.424-1.367-.003-.4.078-.767.244-1.103.17-.338.399-.62.688-.845.29-.227.613-.372.97-.434v-.055c-.471-.114-.848-.366-1.131-.757s-.423-.84-.42-1.348c-.003-.483.124-.914.383-1.293.261-.381.62-.682 1.075-.9.456-.219.975-.328 1.556-.328.576 0 1.09.111 1.542.333.456.218.814.518 1.076.9.261.378.394.808.397 1.288-.003.508-.148.957-.434 1.348s-.659.643-1.117.757v.055c.354.062.672.207.955.434.286.225.514.507.683.845.173.336.261.703.264 1.103-.003.511-.148.967-.434 1.367-.287.4-.684.714-1.191.942-.505.227-1.085.341-1.741.341zm0-1.168c.391 0 .73-.064 1.016-.194.286-.132.508-.315.665-.549.157-.237.237-.514.24-.831-.003-.329-.09-.62-.259-.872-.166-.253-.392-.451-.679-.596-.286-.145-.614-.217-.983-.217-.372 0-.703.072-.992.217-.29.145-.517.343-.684.596-.166.252-.247.543-.244.872-.003.317.072.594.226.831.157.234.38.417.669.549.29.13.631.194 1.025.194zm0-4.399c.314 0 .593-.063.836-.189.243-.127.434-.302.572-.527.142-.224.214-.488.217-.789-.003-.296-.074-.554-.212-.776-.136-.221-.325-.392-.568-.512-.243-.123-.525-.185-.845-.185-.326 0-.612.062-.858.185-.244.12-.433.291-.568.512-.136.222-.202.48-.199.776-.003.301.065.565.203.789.139.225.33.4.573.527.246.126.529.189.849.189z" fill="#0e7490"/><path d="m177.138 231.545v9.455h-1.431v-8.023h-.055l-2.263 1.477v-1.367l2.359-1.542zm5.752 9.584c-.662 0-1.246-.114-1.754-.341-.505-.228-.9-.542-1.187-.942-.286-.4-.427-.856-.424-1.367-.003-.4.078-.767.244-1.103.17-.338.399-.62.688-.845.29-.227.613-.372.97-.434v-.055c-.471-.114-.848-.366-1.131-.757s-.423-.84-.42-1.348c-.003-.483.124-.914.383-1.293.261-.381.62-.682 1.075-.9.456-.219.975-.328 1.556-.328.576 0 1.09.111 1.542.333.456.218.814.518 1.076.9.261.378.394.808.397 1.288-.003.508-.148.957-.434 1.348s-.659.643-1.117.757v.055c.354.062.672.207.955.434.286.225.514.507.683.845.173.336.261.703.264 1.103-.003.511-.148.967-.434 1.367-.287.4-.684.714-1.191.942-.505.227-1.085.341-1.741.341zm0-1.168c.391 0 .73-.064 1.016-.194.286-.132.508-.315.665-.549.157-.237.237-.514.24-.831-.003-.329-.09-.62-.259-.872-.166-.253-.392-.451-.679-.596-.286-.145-.614-.217-.983-.217-.372 0-.703.072-.992.217-.29.145-.517.343-.684.596-.166.252-.247.543-.244.872-.003.317.072.594.226.831.157.234.38.417.669.549.29.13.631.194 1.025.194zm0-4.399c.314 0 .593-.063.836-.189.243-.127.434-.302.572-.527.142-.224.214-.488.217-.789-.003-.296-.074-.554-.212-.776-.136-.221-.325-.392-.568-.512-.243-.123-.525-.185-.845-.185-.326 0-.612.062-.858.185-.244.12-.433.291-.568.512-.136.222-.202.48-.199.776-.003.301.065.565.203.789.139.225.33.4.573.527.246.126.529.189.849.189z" fill="#bc26d3"/><path d="m179.937 269v-1.034l3.199-3.315c.342-.36.623-.675.845-.946.224-.274.392-.534.503-.78s.166-.508.166-.785c0-.314-.074-.585-.221-.813-.148-.23-.35-.407-.605-.53-.256-.127-.543-.19-.863-.19-.339 0-.634.069-.887.208-.252.138-.446.334-.581.586-.136.253-.204.548-.204.887h-1.361c0-.576.132-1.079.397-1.51.264-.431.627-.765 1.089-1.002.462-.24.986-.36 1.574-.36.594 0 1.117.119 1.57.356.455.234.811.554 1.066.96.256.403.383.859.383 1.366 0 .351-.066.694-.198 1.03-.129.335-.356.709-.679 1.122-.323.409-.772.906-1.348 1.491l-1.879 1.966v.07h4.257v1.223z" fill="#707880"/><g fill="#4c555e"><path d="m57.2513 180.273c0 1.009-.1847 1.877-.554 2.603-.3693.723-.8756 1.281-1.5188 1.671-.6402.388-1.368.582-2.1836.582-.8187 0-1.5496-.194-2.1928-.582-.6402-.39-1.1449-.949-1.5142-1.675-.3694-.727-.554-1.593-.554-2.599 0-1.01.1846-1.876.554-2.6.3693-.726.874-1.283 1.5142-1.671.6432-.391 1.3741-.586 2.1928-.586.8156 0 1.5434.195 2.1836.586.6432.388 1.1495.945 1.5188 1.671.3693.724.554 1.59.554 2.6zm-1.4127 0c0-.77-.1246-1.418-.3739-1.944-.2462-.529-.5847-.929-1.0156-1.2-.4278-.274-.9125-.411-1.4542-.411-.5447 0-1.031.137-1.4588.411-.4278.271-.7663.671-1.0156 1.2-.2462.526-.3694 1.174-.3694 1.944 0 .769.1232 1.418.3694 1.948.2493.526.5878.926 1.0156 1.2.4278.271.9141.406 1.4588.406.5417 0 1.0264-.135 1.4542-.406.4309-.274.7694-.674 1.0156-1.2.2493-.53.3739-1.179.3739-1.948z"/><path d="m58.919 187.659v-9.75h1.348v1.149h.1154c.08-.147.1954-.318.3462-.512.1509-.194.3601-.363.6279-.508.2677-.148.6217-.221 1.0618-.221.5724 0 1.0833.144 1.5326.434.4494.289.8018.706 1.0572 1.251.2585.544.3878 1.2.3878 1.966 0 .767-.1277 1.424-.3832 1.971-.2554.545-.6063.965-1.0525 1.261-.4463.292-.9556.438-1.5281.438-.4308 0-.7832-.072-1.0571-.217-.2709-.144-.4832-.314-.6371-.507-.1539-.194-.2724-.367-.3555-.518h-.0831v3.763zm1.3526-6.205c0 .499.0723.936.217 1.311.1446.376.3539.67.6278.882.2739.209.6094.314 1.0064.314.4124 0 .7571-.109 1.0341-.328.277-.221.4863-.521.6279-.9.1446-.378.2169-.805.2169-1.279 0-.467-.0708-.888-.2123-1.26-.1385-.372-.3478-.666-.6279-.882-.277-.215-.6232-.323-1.0387-.323-.4001 0-.7386.103-1.0156.309-.2739.207-.4817.494-.6232.864-.1416.369-.2124.8-.2124 1.292z"/><path d="m69.9985 185.143c-.6986 0-1.3003-.149-1.805-.448-.5017-.301-.8894-.725-1.1634-1.269-.2708-.548-.4062-1.19-.4062-1.925 0-.727.1354-1.367.4062-1.921.274-.554.6556-.986 1.1449-1.297.4925-.311 1.068-.466 1.7266-.466.4001 0 .7879.066 1.1633.198.3755.132.7125.34 1.0111.623.2985.283.5339.651.7063 1.104.1723.449.2585.995.2585 1.639v.489h-5.6367v-1.034h4.2841c0-.363-.0739-.685-.2216-.965-.1478-.283-.3555-.506-.6233-.669-.2646-.164-.5755-.245-.9325-.245-.3878 0-.7263.095-1.0156.286-.2862.188-.5078.434-.6648.739-.1539.301-.2308.629-.2308.983v.808c0 .474.0831.877.2493 1.209.1693.333.4047.587.7063.762.3016.172.654.259 1.0572.259.2616 0 .5001-.037.7155-.111.2155-.077.4017-.191.5586-.342.157-.151.277-.337.3601-.558l1.3065.235c-.1047.385-.2924.722-.5632 1.011-.2678.286-.6048.509-1.011.669-.4032.157-.8633.236-1.3804.236z"/><path d="m75.9526 180.79v4.21h-1.3803v-7.091h1.3249v1.154h.0878c.1631-.375.4185-.677.7663-.905.3508-.228.7925-.341 1.3249-.341.4832 0 .9064.101 1.2695.304.3632.2.6448.499.8449.896.2.397.3.888.3 1.473v4.51h-1.3803v-4.344c0-.514-.1339-.916-.4016-1.205-.2678-.293-.6356-.439-1.1034-.439-.32 0-.6047.069-.854.208-.2462.138-.4417.342-.5863.609-.1416.265-.2124.585-.2124.961z"/><path d="m49.0386 128.999v-9.454h3.37c.7356 0 1.3449.133 1.8281.401s.8448.634 1.0849 1.099c.2401.462.3601.982.3601 1.56 0 .582-.1216 1.105-.3647 1.57-.2401.462-.6032.828-1.0895 1.099-.4832.267-1.091.401-1.8235.401h-2.3175v-1.209h2.1882c.4648 0 .8418-.08 1.1311-.24.2893-.163.5016-.385.637-.665.1355-.28.2032-.599.2032-.956s-.0677-.674-.2032-.951c-.1354-.277-.3493-.494-.6417-.651-.2893-.157-.6709-.235-1.1448-.235h-1.7912v8.231z"/><path d="m60.2104 129.142c-.6986 0-1.3003-.149-1.805-.448-.5017-.301-.8894-.724-1.1633-1.269-.2709-.548-.4063-1.19-.4063-1.925 0-.727.1354-1.367.4063-1.921.2739-.554.6555-.986 1.1448-1.297.4925-.311 1.068-.466 1.7266-.466.4001 0 .7879.066 1.1634.198.3754.133.7124.34 1.011.624.2985.283.5339.651.7063 1.103.1723.449.2585.996.2585 1.639v.489h-5.6367v-1.034h4.2841c0-.363-.0739-.685-.2216-.965-.1477-.283-.3555-.506-.6232-.669-.2647-.163-.5756-.245-.9326-.245-.3877 0-.7263.096-1.0156.286-.2862.188-.5078.434-.6648.739-.1538.302-.2308.629-.2308.983v.808c0 .474.0831.877.2493 1.21.1693.332.4047.586.7063.761.3016.173.654.259 1.0572.259.2616 0 .5001-.037.7156-.111.2154-.077.4016-.191.5585-.341.157-.151.277-.337.3601-.559l1.3065.235c-.1046.385-.2924.722-.5632 1.011-.2678.287-.6048.51-1.011.67-.4032.157-.8633.235-1.3804.235z"/><path d="m66.1646 124.789v4.21h-1.3804v-7.091h1.325v1.154h.0877c.1631-.375.4185-.677.7663-.905.3509-.227.7925-.341 1.3249-.341.4832 0 .9064.101 1.2696.305.3631.2.6447.498.8448.895.2.397.3.888.3 1.473v4.51h-1.3803v-4.344c0-.514-.1339-.916-.4016-1.205-.2678-.292-.6355-.438-1.1034-.438-.32 0-.6047.069-.854.207-.2462.139-.4416.342-.5863.61-.1416.264-.2123.584-.2123.96z"/><path d="m75.2082 129.138c-.5724 0-1.0833-.147-1.5326-.439-.4463-.295-.7972-.716-1.0526-1.26-.2524-.548-.3785-1.205-.3785-1.971 0-.767.1277-1.422.3831-1.967.2585-.545.6125-.962 1.0618-1.251s.9587-.434 1.5281-.434c.4401 0 .794.074 1.0618.221.2708.145.4801.314.6278.508.1508.194.2677.365.3508.513h.0831v-3.513h1.3804v9.454h-1.348v-1.103h-.1155c-.0831.151-.2031.323-.36.517-.1539.194-.3663.363-.6371.508-.2708.144-.6217.217-1.0526.217zm.3047-1.178c.397 0 .7325-.104 1.0064-.314.277-.212.4863-.506.6279-.881.1446-.376.2169-.813.2169-1.311 0-.493-.0708-.924-.2123-1.293-.1416-.369-.3493-.657-.6233-.863-.2739-.206-.6124-.31-1.0156-.31-.4155 0-.7617.108-1.0387.324-.277.215-.4863.509-.6278.881-.1385.373-.2078.793-.2078 1.261 0 .474.0708.9.2124 1.278.1416.379.3508.679.6278.901.2801.218.6248.327 1.0341.327z"/><path d="m80.6915 128.999v-7.091h1.3803v7.091zm.697-8.185c-.24 0-.4462-.08-.6186-.24-.1692-.163-.2539-.357-.2539-.582 0-.227.0847-.421.2539-.581.1724-.163.3786-.245.6186-.245.2401 0 .4448.082.614.245.1724.16.2586.354.2586.581 0 .225-.0862.419-.2586.582-.1692.16-.3739.24-.614.24z"/><path d="m85.3091 124.789v4.21h-1.3803v-7.091h1.3249v1.154h.0877c.1631-.375.4186-.677.7663-.905.3509-.227.7925-.341 1.325-.341.4832 0 .9063.101 1.2695.305.3632.2.6448.498.8448.895.2001.397.3001.888.3001 1.473v4.51h-1.3803v-4.344c0-.514-.1339-.916-.4017-1.205-.2677-.292-.6355-.438-1.1033-.438-.3201 0-.6048.069-.8541.207-.2462.139-.4416.342-.5863.61-.1415.264-.2123.584-.2123.96z"/><path d="m94.6713 131.806c-.5632 0-1.0479-.074-1.4542-.222-.4032-.147-.7325-.343-.9879-.586-.2555-.243-.4463-.509-.5725-.799l1.1865-.489c.0831.135.1939.279.3324.429.1415.154.3323.285.5724.393.2431.108.5555.161.9371.161.5232 0 .9557-.127 1.2973-.383.3416-.252.5124-.655.5124-1.209v-1.395h-.0877c-.0831.151-.2031.319-.3601.504-.1539.184-.3662.344-.6371.48-.2708.135-.6232.203-1.0571.203-.5602 0-1.0649-.131-1.5142-.392-.4463-.265-.8002-.654-1.0618-1.168-.2586-.517-.3878-1.153-.3878-1.907s.1277-1.4.3831-1.939c.2586-.539.6125-.951 1.0618-1.237.4494-.289.9587-.434 1.5281-.434.4401 0 .7956.074 1.0664.221.2708.145.4817.314.6325.508.1538.194.2723.365.3554.513h.1016v-1.15h1.3526v7.248c0 .609-.1416 1.11-.4247 1.5-.2831.391-.6663.681-1.1495.868-.4801.188-1.0218.282-1.625.282zm-.0139-4.058c.3971 0 .7325-.092 1.0064-.277.277-.188.4863-.455.6279-.803.1446-.351.217-.771.217-1.261 0-.477-.0708-.897-.2124-1.26s-.3493-.646-.6232-.849c-.2739-.206-.6125-.31-1.0157-.31-.4154 0-.7617.108-1.0387.324-.2769.212-.4862.501-.6278.868-.1385.366-.2077.775-.2077 1.227 0 .465.0707.873.2123 1.224s.3509.625.6279.822c.28.197.6247.295 1.034.295z"/><path d="m54.1951 150.029c-.0493-.437-.2524-.776-.6094-1.016-.357-.243-.8063-.364-1.348-.364-.3878 0-.7232.061-1.0064.184-.2831.12-.5032.286-.6601.499-.1539.209-.2309.448-.2309.715 0 .225.0524.419.157.582.1077.163.2477.3.4201.411.1754.108.3632.198.5632.272.2.071.3924.13.5771.176l.9233.24c.3016.074.6109.174.9279.3s.6109.292.8817.498c.2708.207.4894.462.6556.767.1692.304.2539.669.2539 1.094 0 .535-.1385 1.011-.4155 1.426-.2739.416-.6725.744-1.1957.984-.5201.24-1.1495.36-1.8881.36-.7079 0-1.3203-.113-1.8374-.337-.517-.225-.9217-.543-1.2141-.956-.2924-.415-.454-.908-.4847-1.477h1.4311c.0277.342.1385.626.3323.854.197.225.4478.392.7525.503.3078.108.6448.162 1.011.162.4032 0 .7618-.063 1.0757-.19.317-.129.5663-.307.7478-.535.1816-.231.2724-.5.2724-.808 0-.28-.08-.509-.24-.688-.157-.178-.3709-.326-.6417-.443-.2678-.117-.5709-.22-.9095-.309l-1.1172-.305c-.7571-.206-1.3572-.509-1.8004-.909-.4401-.401-.6601-.93-.6601-1.588 0-.545.1477-1.021.4431-1.427.2955-.406.6956-.722 1.2003-.946.5048-.228 1.0741-.342 1.7081-.342.6402 0 1.2049.112 1.6943.337.4924.225.8802.534 1.1633.928.2832.391.4309.84.4432 1.348z"/><path d="m60.35 157.143c-.6986 0-1.3003-.149-1.805-.448-.5017-.301-.8895-.725-1.1634-1.269-.2708-.548-.4062-1.19-.4062-1.925 0-.727.1354-1.367.4062-1.921.2739-.554.6556-.986 1.1449-1.297.4924-.311 1.0679-.466 1.7266-.466.4001 0 .7878.066 1.1633.198s.7125.34 1.011.623c.2986.283.534.651.7063 1.104.1724.449.2586.995.2586 1.639v.489h-5.6368v-1.034h4.2841c0-.363-.0738-.685-.2216-.965-.1477-.283-.3554-.506-.6232-.669-.2647-.164-.5755-.245-.9325-.245-.3878 0-.7263.095-1.0156.286-.2863.188-.5078.434-.6648.739-.1539.301-.2308.629-.2308.983v.808c0 .474.0831.877.2493 1.209.1692.333.4047.587.7063.762.3016.172.654.259 1.0572.259.2616 0 .5001-.037.7155-.111.2154-.077.4016-.191.5586-.342s.277-.337.3601-.558l1.3065.235c-.1047.385-.2924.722-.5633 1.011-.2677.286-.6047.509-1.011.669-.4031.157-.8632.236-1.3803.236z"/><path d="m66.3041 152.79v4.21h-1.3803v-7.091h1.3249v1.154h.0877c.1631-.375.4186-.677.7664-.905.3508-.228.7925-.341 1.3249-.341.4832 0 .9064.101 1.2695.304.3632.2.6448.499.8448.896.2001.397.3001.888.3001 1.473v4.51h-1.3803v-4.344c0-.514-.1339-.916-.4017-1.205-.2677-.293-.6355-.439-1.1033-.439-.3201 0-.6047.069-.854.208-.2462.138-.4417.342-.5863.609-.1416.265-.2124.585-.2124.961z"/><path d="m76.0033 149.909v1.108h-3.8732v-1.108zm-2.8345-1.699h1.3803v6.708c0 .268.04.469.1201.605.08.132.1831.223.3093.272.1292.046.2693.069.4201.069.1108 0 .2077-.008.2908-.023s.1477-.028.1939-.037l.2493 1.14c-.08.031-.1939.062-.3416.093-.1478.034-.3324.052-.554.055-.3632.006-.7017-.058-1.0156-.194-.314-.135-.5679-.344-.7617-.628-.1939-.283-.2909-.638-.2909-1.066z"/><path d="m56.8912 206.619h-1.4403c-.0554-.308-.1585-.578-.3093-.812s-.3355-.433-.554-.596-.4632-.286-.734-.369c-.2678-.083-.5525-.125-.8541-.125-.5447 0-1.0325.137-1.4634.411-.4278.274-.7663.676-1.0156 1.205-.2462.529-.3694 1.176-.3694 1.939 0 .769.1232 1.419.3694 1.948.2493.529.5893.929 1.0202 1.2s.9156.407 1.4542.407c.2985 0 .5817-.04.8494-.121.2709-.083.5155-.204.734-.364.2186-.16.4032-.356.554-.586.1539-.234.2601-.502.3186-.804l1.4403.005c-.0769.465-.2262.892-.4478 1.283-.2185.388-.5001.723-.8448 1.007-.3416.28-.7325.497-1.1726.651-.4401.153-.9202.23-1.4403.23-.8187 0-1.5481-.194-2.1882-.581-.6402-.391-1.1449-.95-1.5143-1.676-.3662-.726-.5493-1.593-.5493-2.599 0-1.01.1846-1.876.554-2.599.3693-.727.874-1.284 1.5142-1.671.6401-.391 1.368-.587 2.1836-.587.5016 0 .9694.073 1.4034.217.437.142.8294.351 1.1772.628.3477.274.6355.609.8633 1.007.2277.393.3816.844.4616 1.352z"/><path d="m59.8677 203.545v9.454h-1.3804v-9.454z"/><path d="m61.7247 212.999v-7.091h1.3803v7.091zm.697-8.185c-.24 0-.4462-.08-.6186-.24-.1692-.163-.2539-.357-.2539-.582 0-.227.0847-.421.2539-.581.1724-.163.3786-.245.6186-.245.2401 0 .4448.082.614.245.1724.16.2586.354.2586.581 0 .225-.0862.419-.2586.582-.1692.16-.3739.24-.614.24z"/><path d="m67.9488 213.142c-.6863 0-1.2772-.155-1.7727-.466-.4924-.314-.871-.746-1.1357-1.297-.2646-.551-.397-1.182-.397-1.893 0-.72.1354-1.356.4063-1.907.2708-.554.6524-.986 1.1449-1.297.4924-.311 1.0725-.466 1.7404-.466.5386 0 1.0187.1 1.4403.3.4216.197.7617.474 1.0203.831.2616.357.417.774.4662 1.251h-1.3434c-.0738-.332-.2431-.619-.5078-.859-.2616-.24-.6124-.36-1.0525-.36-.3848 0-.7218.102-1.0111.305-.2862.2-.5093.486-.6693.859-.1601.369-.2401.806-.2401 1.311 0 .517.0785.963.2354 1.338.157.376.3786.667.6648.873.2893.206.6294.309 1.0203.309.2616 0 .4985-.047.7109-.143.2154-.098.3955-.238.5401-.42.1477-.182.2508-.4.3093-.655h1.3434c-.0492.458-.1985.867-.4478 1.227-.2493.361-.5832.644-1.0018.85-.4154.206-.9032.309-1.4634.309z"/><path d="m73.6075 210.594-.0093-1.685h.2401l2.8253-3.001h1.6527l-3.2223 3.416h-.217zm-1.2696 2.405v-9.454h1.3804v9.454zm4.478 0-2.539-3.37.9509-.965 3.2824 4.335z"/><path d="m82.3384 213.142c-.6986 0-1.3003-.149-1.8051-.448-.5016-.301-.8894-.724-1.1633-1.269-.2708-.548-.4063-1.19-.4063-1.925 0-.727.1355-1.367.4063-1.921.2739-.554.6555-.986 1.1449-1.297.4924-.311 1.0679-.466 1.7265-.466.4001 0 .7879.066 1.1634.198.3755.133.7125.34 1.011.624.2985.283.534.651.7063 1.103.1724.449.2585.996.2585 1.639v.489h-5.6367v-1.034h4.2841c0-.363-.0739-.685-.2216-.965-.1477-.283-.3555-.506-.6232-.669-.2647-.163-.5755-.245-.9325-.245-.3878 0-.7264.096-1.0157.286-.2862.188-.5078.434-.6647.739-.1539.302-.2309.629-.2309.983v.808c0 .474.0831.877.2493 1.21.1693.332.4047.586.7064.761.3016.173.654.259 1.0571.259.2616 0 .5001-.037.7156-.111.2154-.077.4016-.191.5586-.341.1569-.151.277-.337.3601-.559l1.3064.235c-.1046.385-.2924.722-.5632 1.011-.2677.287-.6047.51-1.011.67-.4032.157-.8633.235-1.3803.235z"/><path d="m89.5666 213.138c-.5724 0-1.0833-.147-1.5326-.439-.4463-.295-.7972-.716-1.0526-1.26-.2524-.548-.3786-1.205-.3786-1.971 0-.767.1278-1.422.3832-1.967.2585-.545.6125-.962 1.0618-1.251s.9587-.434 1.5281-.434c.4401 0 .794.074 1.0617.221.2709.145.4802.314.6279.508.1508.194.2677.365.3508.513h.0831v-3.513h1.3804v9.454h-1.348v-1.103h-.1155c-.0831.151-.2031.323-.36.517-.1539.194-.3663.363-.6371.508-.2708.144-.6217.217-1.0526.217zm.3047-1.178c.397 0 .7325-.104 1.0064-.314.277-.212.4863-.506.6279-.881.1446-.376.2169-.813.2169-1.311 0-.493-.0708-.924-.2123-1.293-.1416-.369-.3493-.657-.6233-.863-.2739-.206-.6124-.31-1.0156-.31-.4155 0-.7617.108-1.0387.324-.277.215-.4863.509-.6278.881-.1385.373-.2078.793-.2078 1.261 0 .474.0708.9.2124 1.278.1416.379.3508.679.6278.901.2801.218.6248.327 1.0341.327z"/><path d="m49.0386 240.999v-9.454h3.37c.7325 0 1.3403.126 1.8235.378.4863.252.8494.602 1.0895 1.048.2401.443.3601.956.3601 1.537 0 .579-.1216 1.088-.3647 1.528-.2401.437-.6032.778-1.0895 1.021-.4832.243-1.091.364-1.8235.364h-2.5529v-1.228h2.4236c.4617 0 .8371-.066 1.1264-.198.2924-.132.5063-.325.6417-.577.1355-.253.2032-.556.2032-.91 0-.357-.0693-.666-.2078-.928-.1354-.261-.3493-.461-.6417-.6-.2893-.141-.6694-.212-1.1402-.212h-1.7912v8.231zm4.6672-4.266 2.336 4.266h-1.625l-2.2898-4.266z"/><path d="m60.2739 241.142c-.6986 0-1.3003-.149-1.805-.448-.5017-.301-.8895-.724-1.1634-1.269-.2708-.548-.4062-1.19-.4062-1.925 0-.727.1354-1.367.4062-1.921.2739-.554.6556-.986 1.1449-1.297.4924-.311 1.068-.466 1.7266-.466.4001 0 .7879.066 1.1633.198.3755.133.7125.34 1.011.624.2986.283.534.651.7064 1.103.1723.449.2585.996.2585 1.639v.489h-5.6367v-1.034h4.2841c0-.363-.0739-.685-.2216-.965-.1478-.283-.3555-.506-.6233-.669-.2646-.163-.5755-.245-.9325-.245-.3878 0-.7263.096-1.0156.286-.2862.188-.5078.434-.6648.739-.1539.302-.2308.629-.2308.983v.808c0 .474.0831.877.2493 1.21.1693.332.4047.586.7063.761.3016.173.654.259 1.0572.259.2616 0 .5001-.037.7155-.111.2155-.077.4017-.191.5586-.341.157-.151.277-.337.3601-.559l1.3065.235c-.1047.385-.2924.722-.5632 1.011-.2678.287-.6048.51-1.011.67-.4032.157-.8633.235-1.3804.235z"/><path d="m64.8477 243.658v-9.75h1.348v1.15h.1154c.08-.148.1955-.319.3463-.513s.36-.363.6278-.508c.2678-.147.6217-.221 1.0618-.221.5724 0 1.0833.145 1.5327.434.4493.289.8017.706 1.0571 1.251.2586.545.3878 1.2.3878 1.967 0 .766-.1277 1.423-.3831 1.971-.2555.544-.6063.965-1.0526 1.26-.4463.292-.9556.439-1.5281.439-.4308 0-.7832-.073-1.0571-.217-.2709-.145-.4832-.314-.6371-.508s-.2724-.366-.3555-.517h-.0831v3.762zm1.3526-6.204c0 .498.0724.935.217 1.311.1447.375.3539.669.6278.881.274.21.6094.314 1.0064.314.4124 0 .7571-.109 1.0341-.327.277-.222.4863-.522.6279-.901.1446-.378.2169-.804.2169-1.278 0-.468-.0707-.888-.2123-1.261-.1385-.372-.3478-.666-.6279-.881-.2769-.216-.6232-.324-1.0387-.324-.4001 0-.7386.104-1.0156.31-.2739.206-.4816.494-.6232.863s-.2124.8-.2124 1.293z"/><path d="m74.2515 231.545v9.454h-1.3804v-9.454z"/><path d="m76.1084 240.999v-7.091h1.3804v7.091zm.6971-8.185c-.24 0-.4462-.08-.6186-.24-.1692-.163-.2539-.357-.2539-.582 0-.227.0847-.421.2539-.581.1724-.163.3786-.245.6186-.245.2401 0 .4448.082.614.245.1724.16.2585.354.2585.581 0 .225-.0861.419-.2585.582-.1692.16-.3739.24-.614.24z"/><path d="m82.4019 241.142c-.6987 0-1.3004-.149-1.8051-.448-.5016-.301-.8894-.724-1.1633-1.269-.2709-.548-.4063-1.19-.4063-1.925 0-.727.1354-1.367.4063-1.921.2739-.554.6555-.986 1.1448-1.297.4925-.311 1.068-.466 1.7266-.466.4001 0 .7879.066 1.1634.198.3754.133.7124.34 1.011.624.2985.283.5339.651.7063 1.103.1723.449.2585.996.2585 1.639v.489h-5.6367v-1.034h4.2841c0-.363-.0739-.685-.2216-.965-.1477-.283-.3555-.506-.6232-.669-.2647-.163-.5756-.245-.9326-.245-.3877 0-.7263.096-1.0156.286-.2862.188-.5078.434-.6648.739-.1538.302-.2308.629-.2308.983v.808c0 .474.0831.877.2493 1.21.1693.332.4047.586.7063.761.3016.173.654.259 1.0572.259.2616 0 .5001-.037.7156-.111.2154-.077.4016-.191.5586-.341.1569-.151.2769-.337.36-.559l1.3065.235c-.1046.385-.2924.722-.5632 1.011-.2678.287-.6048.51-1.011.67-.4032.157-.8633.235-1.3803.235z"/><path d="m89.6301 241.138c-.5724 0-1.0833-.147-1.5327-.439-.4462-.295-.7971-.716-1.0525-1.26-.2524-.548-.3786-1.205-.3786-1.971 0-.767.1277-1.422.3832-1.967.2585-.545.6124-.962 1.0618-1.251.4493-.289.9587-.434 1.528-.434.4401 0 .7941.074 1.0618.221.2709.145.4801.314.6279.508.1508.194.2677.365.3508.513h.0831v-3.513h1.3803v9.454h-1.348v-1.103h-.1154c-.0831.151-.2031.323-.3601.517-.1538.194-.3662.363-.637.508-.2709.144-.6217.217-1.0526.217zm.3047-1.178c.397 0 .7325-.104 1.0064-.314.277-.212.4863-.506.6278-.881.1447-.376.217-.813.217-1.311 0-.493-.0708-.924-.2124-1.293-.1415-.369-.3493-.657-.6232-.863s-.6124-.31-1.0156-.31c-.4155 0-.7617.108-1.0387.324-.277.215-.4863.509-.6279.881-.1385.373-.2077.793-.2077 1.261 0 .474.0708.9.2124 1.278.1415.379.3508.679.6278.901.2801.218.6248.327 1.0341.327z"/><path d="m49.0386 268.999v-9.454h3.4623c.671 0 1.2265.111 1.6666.332.4401.219.7694.516.9879.891.2185.373.3278.793.3278 1.261 0 .394-.0723.726-.217.997-.1446.268-.3385.483-.5817.646-.24.16-.5047.277-.794.351v.092c.3139.016.6201.117.9187.305.3016.185.5509.448.7478.789.197.342.2955.757.2955 1.247 0 .483-.1139.917-.3416 1.302-.2247.381-.5725.684-1.0433.909-.4709.222-1.0726.332-1.8051.332zm1.4265-1.223h2.0589c.6833 0 1.1726-.132 1.4681-.397.2954-.265.4431-.595.4431-.992 0-.299-.0754-.573-.2262-.822s-.3662-.448-.6463-.596c-.277-.147-.6063-.221-.9879-.221h-2.1097zm0-4.141h1.9112c.3201 0 .6078-.061.8633-.185.2585-.123.4632-.295.614-.517.1538-.224.2308-.489.2308-.794 0-.39-.137-.718-.4109-.983s-.694-.397-1.2603-.397h-1.9481z"/><path d="m60.4205 269.143c-.6648 0-1.2449-.153-1.7404-.457-.4955-.305-.8802-.731-1.1541-1.279s-.4109-1.188-.4109-1.921c0-.735.137-1.378.4109-1.929s.6586-.979 1.1541-1.284c.4955-.304 1.0756-.457 1.7404-.457s1.2449.153 1.7404.457c.4955.305.8802.733 1.1541 1.284s.4109 1.194.4109 1.929c0 .733-.137 1.373-.4109 1.921s-.6586.974-1.1541 1.279c-.4955.304-1.0756.457-1.7404.457zm.0046-1.159c.4309 0 .7879-.114 1.071-.342.2832-.228.4925-.531.6279-.909.1385-.379.2077-.796.2077-1.251 0-.453-.0692-.868-.2077-1.247-.1354-.381-.3447-.688-.6279-.918-.2831-.231-.6401-.347-1.071-.347-.4339 0-.794.116-1.0802.347-.2832.23-.494.537-.6325.918-.1354.379-.2031.794-.2031 1.247 0 .455.0677.872.2031 1.251.1385.378.3493.681.6325.909.2862.228.6463.342 1.0802.342z"/><path d="m69.7585 266.059v-4.15h1.3849v7.09h-1.3572v-1.228h-.0739c-.1631.379-.4247.694-.7848.947-.357.249-.8017.374-1.3342.374-.4554 0-.8586-.1-1.2095-.3-.3477-.203-.6217-.503-.8217-.9-.197-.398-.2955-.888-.2955-1.473v-4.51h1.3804v4.344c0 .483.1339.868.4016 1.154.2678.286.6155.429 1.0433.429.2586 0 .5155-.065.771-.194.2585-.129.4724-.324.6417-.586.1723-.262.257-.594.2539-.997z"/><path d="m74.3784 264.789v4.21h-1.3803v-7.09h1.3249v1.154h.0877c.1631-.376.4186-.677.7664-.905.3508-.228.7925-.342 1.3249-.342.4832 0 .9064.102 1.2695.305.3632.2.6448.498.8448.896.2001.397.3001.887.3001 1.472v4.51h-1.3803v-4.344c0-.514-.1339-.915-.4016-1.205-.2678-.292-.6356-.438-1.1034-.438-.3201 0-.6047.069-.854.208-.2462.138-.4417.341-.5863.609-.1416.265-.2124.585-.2124.96z"/><path d="m83.7545 269.143c-.6863 0-1.2772-.156-1.7727-.467-.4925-.314-.871-.746-1.1357-1.297s-.397-1.182-.397-1.893c0-.72.1354-1.355.4062-1.906.2709-.554.6525-.987 1.1449-1.298.4924-.31 1.0726-.466 1.7404-.466.5386 0 1.0187.1 1.4404.3.4216.197.7617.474 1.0202.831.2616.357.417.774.4663 1.251h-1.3434c-.0739-.332-.2431-.618-.5078-.858-.2616-.24-.6125-.36-1.0526-.36-.3847 0-.7217.101-1.011.304-.2862.2-.5093.487-.6694.859-.16.369-.24.806-.24 1.311 0 .517.0784.963.2354 1.339.157.375.3786.666.6648.872.2893.207.6294.31 1.0202.31.2616 0 .4986-.048.711-.144.2154-.098.3954-.238.5401-.42.1477-.181.2508-.4.3093-.655h1.3434c-.0493.458-.1985.868-.4478 1.228s-.5832.643-1.0018.849c-.4155.206-.9033.31-1.4634.31z"/><path d="m91.1997 269.143c-.6986 0-1.3003-.15-1.805-.448-.5017-.302-.8895-.725-1.1634-1.27-.2708-.548-.4062-1.189-.4062-1.925 0-.726.1354-1.366.4062-1.92.2739-.554.6556-.987 1.1449-1.298.4924-.31 1.0679-.466 1.7266-.466.4001 0 .7878.066 1.1633.199.3755.132.7125.34 1.011.623.2986.283.534.651.7063 1.103.1724.45.2586.996.2586 1.639v.489h-5.6368v-1.034h4.2841c0-.363-.0738-.684-.2216-.964-.1477-.284-.3554-.507-.6232-.67-.2647-.163-.5755-.245-.9325-.245-.3878 0-.7263.096-1.0156.287-.2863.187-.5078.434-.6648.738-.1539.302-.2308.63-.2308.984v.808c0 .474.0831.877.2493 1.209.1692.332.4047.586.7063.762.3016.172.654.258 1.0572.258.2616 0 .5001-.037.7155-.11.2154-.077.4016-.191.5586-.342s.277-.337.3601-.559l1.3065.236c-.1047.384-.2924.721-.5633 1.011-.2677.286-.6047.509-1.011.669-.4031.157-.8632.236-1.3803.236z"/><path d="m98.428 269.138c-.5725 0-1.0834-.146-1.5327-.439-.4463-.295-.7971-.715-1.0526-1.26-.2523-.548-.3785-1.205-.3785-1.971s.1277-1.422.3831-1.967c.2586-.545.6125-.962 1.0618-1.251.4494-.289.9587-.434 1.5281-.434.4401 0 .794.074 1.0618.222.2708.144.4801.314.628.508.151.194.268.364.351.512h.083v-3.513h1.38v9.454h-1.348v-1.103h-.115c-.083.151-.203.323-.36.517-.1543.194-.3667.363-.6375.508s-.6217.217-1.0525.217zm.3046-1.177c.3971 0 .7325-.105 1.0064-.314.277-.213.486-.506.628-.882.145-.375.217-.812.217-1.311 0-.492-.071-.923-.213-1.293-.141-.369-.349-.657-.6227-.863-.2739-.206-.6125-.309-1.0157-.309-.4154 0-.7617.108-1.0387.323s-.4862.509-.6278.882c-.1385.372-.2077.792-.2077 1.26 0 .474.0707.9.2123 1.279.1416.378.3509.678.6279.9.28.219.6247.328 1.034.328z"/></g></svg>