<svg fill="none" height="287" viewBox="0 0 576 287" width="576" xmlns="http://www.w3.org/2000/svg" xmlns:xlink="http://www.w3.org/1999/xlink"><filter id="a" color-interpolation-filters="sRGB" filterUnits="userSpaceOnUse" height="287" width="576" x="0" y="0"><feFlood flood-opacity="0" result="BackgroundImageFix"/><feColorMatrix in="SourceAlpha" result="hardAlpha" type="matrix" values="0 0 0 0 0 0 0 0 0 0 0 0 0 0 0 0 0 0 127 0"/><feOffset dy="1"/><feGaussianBlur stdDeviation="4"/><feComposite in2="hardAlpha" operator="out"/><feColorMatrix type="matrix" values="0 0 0 0 0 0 0 0 0 0 0 0 0 0 0 0 0 0 0.08 0"/><feBlend in2="BackgroundImageFix" mode="normal" result="effect1_dropShadow_596_6793"/><feBlend in="SourceGraphic" in2="effect1_dropShadow_596_6793" mode="normal" result="shape"/></filter><g filter="url(#a)"><rect fill="#fff" height="271" rx="4" width="560" x="8" y="7"/><rect height="270" rx="3.5" stroke="#dfe3e8" width="559" x="8.5" y="7.5"/></g><path d="m24 233h528v1h-528z" fill="#dfe3e8"/><path d="m90.8778 36.1477c-.6647 0-1.2372-.1569-1.7173-.4709-.4801-.3139-.8494-.7463-1.1079-1.2972-.2586-.5509-.3878-1.1803-.3878-1.8881 0-.7202.1323-1.3557.397-1.9066.2677-.554.6401-.9864 1.1172-1.2973.4801-.3139 1.0402-.4708 1.6804-.4708.4986 0 .9479.0923 1.348.277.4001.1846.7279.4431.9833.7755s.4139.7202.4755 1.1634h-1.0895c-.0831-.3232-.2678-.6094-.554-.8587-.2831-.2524-.6647-.3785-1.1449-.3785-.4247 0-.7971.1108-1.1171.3323-.317.2186-.5648.5279-.7433.928-.1754.397-.2631.8632-.2631 1.3987 0 .5479.0861 1.0249.2585 1.4312.1754.4062.4216.7217.7386.9463.3201.2247.6956.337 1.1264.337.2832 0 .5402-.0492.771-.1477s.4262-.24.5863-.4247c.16-.1847.2739-.4063.3416-.6648h1.0895c-.0616.4186-.2139.7956-.457 1.1311-.2401.3323-.5586.597-.9556.794-.394.1939-.8526.2908-1.3758.2908z" fill="#3a444f"/><path d="m96.3484 31.7344v4.2656h-1.0895v-9.4545h1.0895v3.4715h.0923c.1662-.3662.4155-.657.7479-.8725.3354-.2185.7817-.3277 1.3387-.3277.4832 0 .9064.0969 1.2696.2908.3631.1908.6451.4847.8451.8817.203.394.304.8956.304 1.505v4.5057h-1.0891v-4.4318c0-.5632-.1462-.9987-.4386-1.3065-.2893-.3108-.6909-.4662-1.2049-.4662-.357 0-.6771.0754-.9602.2262-.2801.1508-.5017.3708-.6648.6601-.16.2893-.24.6402-.24 1.0526z" fill="#3a444f"/><path d="m102.94 36v-7.0909h1.052v1.071h.074c.129-.3508.363-.6355.702-.854.338-.2185.72-.3278 1.145-.3278.08 0 .18.0015.3.0046s.21.0077.272.0139v1.1079c-.037-.0092-.122-.0231-.254-.0415-.129-.0216-.266-.0323-.411-.0323-.344 0-.652.0723-.923.2169-.268.1416-.48.3386-.637.5909-.154.2493-.231.534-.231.8541v4.4872z" fill="#3a444f"/><path d="m107.776 36v-7.0909h1.09v7.0909zm.554-8.2727c-.212 0-.395-.0724-.549-.217-.151-.1447-.226-.3185-.226-.5217 0-.2031.075-.377.226-.5216.154-.1447.337-.217.549-.217.213 0 .394.0723.545.217.154.1446.231.3185.231.5216 0 .2032-.077.377-.231.5217-.151.1446-.332.217-.545.217z" fill="#3a444f"/><path d="m115.884 30.4972-.979.2769c-.061-.1631-.152-.3216-.272-.4754-.117-.157-.277-.2863-.48-.3878-.203-.1016-.463-.1524-.78-.1524-.434 0-.796.1-1.085.3001-.286.197-.429.4478-.429.7525 0 .2708.098.4847.295.6417.197.1569.505.2877.923.3924l1.053.2585c.634.1539 1.106.3893 1.417.7063.311.3139.466.7186.466 1.2141 0 .4063-.117.7695-.35 1.0895-.231.3201-.554.5725-.97.7571-.415.1847-.899.277-1.449.277-.724 0-1.322-.1569-1.796-.4709-.474-.3139-.774-.7724-.901-1.3757l1.035-.2585c.098.3816.284.6679.558.8587.277.1908.639.2862 1.085.2862.508 0 .911-.1077 1.21-.3232.301-.2185.452-.4801.452-.7848 0-.2462-.086-.4524-.259-.6186-.172-.1692-.437-.2954-.794-.3785l-1.181-.277c-.65-.1539-1.127-.3924-1.431-.7156-.302-.3262-.453-.734-.453-1.2233 0-.4001.112-.754.337-1.0618.228-.3078.537-.5494.928-.7248.394-.1754.84-.2631 1.339-.2631.701 0 1.252.1538 1.652.4616.404.3078.69.714.859 1.2188z" fill="#3a444f"/><path d="m120.737 28.9091v.9233h-3.675v-.9233zm-2.603-1.6989h1.089v6.7586c0 .3077.045.5385.134.6924.092.1508.209.2524.351.3047.144.0493.297.0739.457.0739.12 0 .218-.0062.295-.0185.077-.0154.139-.0277.185-.0369l.221.9787c-.073.0277-.176.0554-.309.0831-.132.0307-.3.0461-.503.0461-.308 0-.609-.0661-.905-.1985-.292-.1323-.535-.3339-.729-.6047-.191-.2709-.286-.6125-.286-1.0249z" fill="#3a444f"/><path d="m125.181 36.1477c-.641 0-1.202-.1523-1.685-.457-.481-.3047-.856-.7309-1.127-1.2788-.268-.5478-.401-1.1879-.401-1.9204 0-.7387.133-1.3834.401-1.9343.271-.5509.646-.9787 1.127-1.2834.483-.3047 1.044-.457 1.685-.457.64 0 1.2.1523 1.68.457.483.3047.859.7325 1.126 1.2834.271.5509.407 1.1956.407 1.9343 0 .7325-.136 1.3726-.407 1.9204-.267.5479-.643.9741-1.126 1.2788-.48.3047-1.04.457-1.68.457zm0-.9787c.486 0 .886-.1246 1.2-.3739s.546-.5771.697-.9833c.151-.4063.226-.8464.226-1.3203 0-.474-.075-.9156-.226-1.325-.151-.4093-.383-.7401-.697-.9925s-.714-.3785-1.2-.3785c-.487 0-.887.1261-1.201.3785s-.546.5832-.697.9925c-.151.4094-.226.851-.226 1.325 0 .4739.075.914.226 1.3203.151.4062.383.734.697.9833s.714.3739 1.201.3739z" fill="#3a444f"/><path d="m130.057 38.6591v-9.75h1.052v1.1264h.13c.08-.1231.19-.2801.332-.4709.145-.1939.351-.3662.619-.517.27-.1539.637-.2308 1.098-.2308.597 0 1.124.1492 1.579.4478.456.2985.811.7217 1.067 1.2695.255.5478.383 1.1941.383 1.9389 0 .751-.128 1.4019-.383 1.9528-.256.5478-.61.9725-1.062 1.2741-.453.2986-.974.4478-1.565.4478-.456 0-.82-.0754-1.094-.2262-.274-.1539-.485-.3277-.633-.5216-.148-.197-.261-.3601-.341-.4894h-.093v3.7486zm1.071-6.2046c0 .5356.078 1.008.235 1.4173.157.4063.386.7248.688.9556.302.2278.671.3416 1.108.3416.455 0 .836-.12 1.14-.3601.308-.2431.539-.5693.693-.9786.157-.4124.235-.871.235-1.3758 0-.4985-.077-.9479-.231-1.348-.15-.4031-.38-.7217-.687-.9556-.305-.237-.688-.3554-1.15-.3554-.443 0-.816.1123-1.117.337-.302.2215-.53.5324-.683.9325-.154.397-.231.8602-.231 1.3895z" fill="#3a444f"/><path d="m139.068 31.7344v4.2656h-1.089v-9.4545h1.089v3.4715h.092c.167-.3662.416-.657.748-.8725.336-.2185.782-.3277 1.339-.3277.483 0 .906.0969 1.27.2908.363.1908.644.4847.844.8817.204.394.305.8956.305 1.505v4.5057h-1.089v-4.4318c0-.5632-.147-.9987-.439-1.3065-.289-.3108-.691-.4662-1.205-.4662-.357 0-.677.0754-.96.2262-.28.1508-.502.3708-.665.6601-.16.2893-.24.6402-.24 1.0526z" fill="#3a444f"/><path d="m148.632 36.1477c-.683 0-1.272-.1508-1.768-.4524-.492-.3047-.872-.7294-1.14-1.2741-.265-.5479-.397-1.1849-.397-1.9113 0-.7263.132-1.3664.397-1.9204.268-.5571.64-.991 1.117-1.3019.48-.3139 1.04-.4708 1.68-.4708.37 0 .735.0615 1.095.1846s.687.3232.983.6002c.295.2739.531.637.706 1.0895.176.4524.263 1.0094.263 1.6711v.4617h-5.466v-.9418h4.358c0-.4001-.08-.7571-.24-1.071-.157-.3139-.381-.5617-.674-.7433-.289-.1816-.631-.2723-1.025-.2723-.433 0-.809.1077-1.126.3231-.314.2124-.555.4894-.725.831-.169.3416-.254.7078-.254 1.0987v.6278c0 .5355.093.9895.277 1.3619.188.3693.448.6509.781.8448.332.1908.718.2862 1.158.2862.286 0 .545-.04.776-.12.234-.0831.435-.2062.605-.3693.169-.1662.3-.3724.392-.6186l1.053.2954c-.111.357-.297.671-.559.9418-.262.2678-.585.477-.969.6278-.385.1478-.818.2216-1.298.2216z" fill="#3a444f"/><path d="m158.673 38.4929c-.942 0-1.774-.1293-2.497-.3878-.724-.2554-1.331-.6324-1.824-1.131-.492-.4986-.865-1.1095-1.117-1.8328-.252-.7232-.379-1.5511-.379-2.4836 0-.9018.128-1.7081.384-2.4191.258-.7109.632-1.3141 1.121-1.8096.493-.4986 1.09-.8787 1.792-1.1403.704-.2616 1.501-.3924 2.391-.3924.865 0 1.622.1416 2.271.4247.653.2801 1.197.6602 1.634 1.1403.44.477.77 1.0141.988 1.6111.222.5971.333 1.2126.333 1.8466 0 .4463-.022.8987-.065 1.3573-.043.4585-.134.8802-.272 1.2649-.139.3816-.353.6894-.642.9233-.286.2339-.674.3508-1.163.3508-.216 0-.453-.0338-.711-.1015-.259-.0677-.488-.1801-.688-.337-.2-.157-.319-.3678-.356-.6325h-.055c-.074.1785-.188.3478-.342.5078-.15.1601-.349.2878-.595.3832-.243.0954-.54.137-.891.1246-.4-.0153-.753-.1046-1.057-.2677-.305-.1662-.56-.3909-.767-.674-.203-.2862-.357-.6171-.461-.9926-.102-.3785-.153-.7863-.153-1.2233 0-.4155.062-.7956.185-1.1403s.294-.6463.512-.9048c.222-.2585.481-.4648.776-.6186.299-.157.62-.2539.965-.2909.308-.0307.588-.0169.84.0416.252.0554.46.14.623.2539.163.1108.267.2339.31.3693h.055v-.517h.979v4.1733c0 .2585.072.4862.217.6832.144.197.355.2954.632.2954.314 0 .554-.1077.72-.3231.17-.2154.285-.5478.347-.9972.064-.4493.096-1.0248.096-1.7265 0-.4124-.056-.8187-.17-1.2188-.111-.4032-.28-.7802-.508-1.131-.225-.3509-.509-.6602-.854-.9279-.345-.2678-.75-.4771-1.214-.6279-.462-.1539-.987-.2308-1.575-.2308-.723 0-1.371.1123-1.943.337-.569.2216-1.054.5463-1.454.9741-.397.4247-.7.9417-.91 1.5511-.206.6063-.309 1.2957-.309 2.0682 0 .7848.103 1.4819.309 2.0913.21.6093.517 1.1233.924 1.5419.409.4185.915.7355 1.518.951.604.2185 1.299.3277 2.087.3277.339 0 .673-.0323 1.002-.0969s.62-.1354.872-.2124c.253-.0769.434-.1338.545-.1708l.259.8495c-.191.08-.44.16-.748.24-.305.08-.631.1462-.979.1985-.345.0523-.674.0785-.988.0785zm-.535-3.6747c.412 0 .746-.0831 1.001-.2493.256-.1662.442-.417.559-.7525s.175-.7586.175-1.2695c0-.5171-.064-.9202-.193-1.2095-.13-.2893-.321-.4925-.573-.6094-.252-.117-.563-.1754-.932-.1754-.351 0-.651.0923-.901.2769-.246.1816-.435.4248-.568.7294-.129.3017-.193.631-.193.988 0 .3939.052.7648.157 1.1125.104.3447.275.6248.512.8402.237.2124.556.3186.956.3186z" fill="#3a444f"/><path d="m166.49 31.7344v4.2656h-1.09v-9.4545h1.09v3.4715h.092c.166-.3662.416-.657.748-.8725.336-.2185.782-.3277 1.339-.3277.483 0 .906.0969 1.269.2908.364.1908.645.4847.845.8817.203.394.305.8956.305 1.505v4.5057h-1.09v-4.4318c0-.5632-.146-.9987-.438-1.3065-.289-.3108-.691-.4662-1.205-.4662-.357 0-.677.0754-.96.2262-.28.1508-.502.3708-.665.6601-.16.2893-.24.6402-.24 1.0526z" fill="#3a444f"/><path d="m177.55 33.1009v-4.1918h1.089v7.0909h-1.089v-1.2003h-.074c-.166.3601-.425.6663-.776.9187-.35.2493-.794.3739-1.329.3739-.443 0-.837-.0969-1.182-.2908-.345-.197-.615-.4924-.812-.8864-.197-.397-.296-.8971-.296-1.5003v-4.5057h1.09v4.4318c0 .5171.144.9295.434 1.2372.292.3078.664.4617 1.117.4617.271 0 .546-.0693.826-.2078.283-.1385.52-.3508.711-.637.194-.2863.291-.651.291-1.0941z" fill="#3a444f"/><path d="m181.724 31.7344v4.2656h-1.089v-7.0909h1.052v1.1079h.093c.166-.36.418-.6493.757-.8679.338-.2215.775-.3323 1.311-.3323.48 0 .9.0984 1.26.2954.36.1939.64.4894.84.8864.2.3939.3.8925.3 1.4957v4.5057h-1.089v-4.4318c0-.5571-.145-.991-.434-1.3019-.289-.3139-.686-.4708-1.191-.4708-.348 0-.659.0754-.933.2262-.27.1508-.484.3708-.641.6601s-.236.6402-.236 1.0526z" fill="#3a444f"/><path d="m191.323 28.9091v.9233h-3.675v-.9233zm-2.604-1.6989h1.09v6.7586c0 .3077.045.5385.134.6924.092.1508.209.2524.351.3047.144.0493.297.0739.457.0739.12 0 .218-.0062.295-.0185.077-.0154.139-.0277.185-.0369l.221.9787c-.073.0277-.177.0554-.309.0831-.132.0307-.3.0461-.503.0461-.308 0-.609-.0661-.905-.1985-.292-.1323-.535-.3339-.729-.6047-.191-.2709-.287-.6125-.287-1.0249z" fill="#3a444f"/><path d="m195.859 36.1477c-.683 0-1.273-.1508-1.768-.4524-.493-.3047-.873-.7294-1.141-1.2741-.264-.5479-.397-1.1849-.397-1.9113 0-.7263.133-1.3664.397-1.9204.268-.5571.641-.991 1.118-1.3019.48-.3139 1.04-.4708 1.68-.4708.369 0 .734.0615 1.094.1846s.688.3232.983.6002c.296.2739.531.637.707 1.0895.175.4524.263 1.0094.263 1.6711v.4617h-5.466v-.9418h4.358c0-.4001-.08-.7571-.24-1.071-.157-.3139-.382-.5617-.674-.7433-.289-.1816-.631-.2723-1.025-.2723-.434 0-.809.1077-1.126.3231-.314.2124-.556.4894-.725.831s-.254.7078-.254 1.0987v.6278c0 .5355.092.9895.277 1.3619.188.3693.448.6509.78.8448.332.1908.719.2862 1.159.2862.286 0 .545-.04.775-.12.234-.0831.436-.2062.605-.3693.169-.1662.3-.3724.393-.6186l1.052.2954c-.111.357-.297.671-.558.9418-.262.2678-.585.477-.97.6278-.385.1478-.817.2216-1.297.2216z" fill="#3a444f"/><path d="m200.452 36v-7.0909h1.053v1.071h.074c.129-.3508.363-.6355.701-.854.339-.2185.721-.3278 1.145-.3278.08 0 .18.0015.3.0046s.211.0077.273.0139v1.1079c-.037-.0092-.122-.0231-.254-.0415-.129-.0216-.266-.0323-.411-.0323-.345 0-.653.0723-.923.2169-.268.1416-.48.3386-.637.5909-.154.2493-.231.534-.231.8541v4.4872z" fill="#3a444f"/><path d="m205.271 36.0739c-.228 0-.423-.0816-.587-.2447-.163-.1631-.244-.3586-.244-.5863s.081-.4232.244-.5863c.164-.1631.359-.2447.587-.2447.227 0 .423.0816.586.2447s.245.3586.245.5863c0 .1508-.039.2893-.116.4155-.074.1262-.174.2277-.3.3047-.123.0738-.261.1108-.415.1108z" fill="#3a444f"/><path d="m208.057 36v-7.0909h1.089v7.0909zm.554-8.2727c-.213 0-.396-.0724-.55-.217-.15-.1447-.226-.3185-.226-.5217 0-.2031.076-.377.226-.5216.154-.1447.337-.217.55-.217.212 0 .394.0723.544.217.154.1446.231.3185.231.5216 0 .2032-.077.377-.231.5217-.15.1446-.332.217-.544.217z" fill="#3a444f"/><path d="m214.022 36.1477c-.64 0-1.201-.1523-1.685-.457-.48-.3047-.855-.7309-1.126-1.2788-.268-.5478-.402-1.1879-.402-1.9204 0-.7387.134-1.3834.402-1.9343.271-.5509.646-.9787 1.126-1.2834.484-.3047 1.045-.457 1.685-.457.641 0 1.201.1523 1.681.457.483.3047.858.7325 1.126 1.2834.271.5509.406 1.1956.406 1.9343 0 .7325-.135 1.3726-.406 1.9204-.268.5479-.643.9741-1.126 1.2788-.48.3047-1.04.457-1.681.457zm0-.9787c.487 0 .887-.1246 1.201-.3739s.546-.5771.697-.9833c.151-.4063.226-.8464.226-1.3203 0-.474-.075-.9156-.226-1.325-.151-.4093-.383-.7401-.697-.9925s-.714-.3785-1.201-.3785c-.486 0-.886.1261-1.2.3785s-.546.5832-.697.9925c-.151.4094-.226.851-.226 1.325 0 .4739.075.914.226 1.3203.151.4062.383.734.697.9833s.714.3739 1.2.3739z" fill="#3a444f"/><path d="m87 38.5852h130.9v.8864h-130.9z" fill="#3a444f"/><path d="m230.438 30.6085-3.563 3.3516c-.117.1172-.258.164-.375.164-.141 0-.281-.0468-.398-.1406l-3.563-3.375c-.234-.2109-.234-.5625-.023-.7969.211-.2343.562-.2343.797-.0234l3.187 3 3.164-3c.235-.2109.586-.2109.797.0234.211.2344.211.586-.023.7969z" fill="#707880"/><g fill="#3a444f"><path d="m89.6718 77.4925c-.053-.4706-.2718-.8352-.6563-1.0937-.3844-.2618-.8683-.3928-1.4517-.3928-.4176 0-.7789.0663-1.0838.1989-.3049.1293-.5419.3082-.7109.5369-.1657.2254-.2486.4823-.2486.7706 0 .242.0564.4508.169.6264.116.1757.2669.3232.4525.4425.1889.116.3911.2138.6065.2933.2154.0763.4226.1392.6214.189l.9944.2585c.3248.0795.6579.1873.9992.3231.3414.1359.658.3149.9496.537.2917.222.527.4971.706.8253.1823.3281.2734.7208.2734 1.1782 0 .5767-.1491 1.0888-.4474 1.5362-.295.4475-.7242.8005-1.2877 1.059-.5601.2585-1.2379.3878-2.0333.3878-.7624 0-1.4219-.121-1.9787-.3629-.5569-.242-.9927-.585-1.3076-1.0292-.3148-.4474-.4888-.9777-.522-1.5909h1.5412c.0298.3679.1492.6745.358.9198.2121.2419.4822.4226.8103.5419.3315.116.6944.174 1.0888.174.4342 0 .8203-.068 1.1584-.2039.3414-.1392.6098-.3314.8054-.5767.1955-.2485.2933-.5386.2933-.87 0-.3016-.0862-.5485-.2585-.7408-.169-.1922-.3994-.3513-.6911-.4772-.2883-.126-.6148-.237-.9794-.3331l-1.2031-.3282c-.8153-.222-1.4616-.5485-1.9389-.9794-.474-.4308-.7109-1.0009-.7109-1.7102 0-.5866.159-1.0987.4772-1.5362s.7491-.7772 1.2926-1.0192c.5436-.2452 1.1568-.3679 1.8395-.3679.6894 0 1.2976.121 1.8246.3629.5303.242.9479.5751 1.2528.9993.305.421.4641.9049.4773 1.4517z"/><path d="m94.4955 80.4656v4.534h-1.4865v-10.1818h1.4666v3.7884h.0944c.179-.411.4525-.7375.8204-.9794.3679-.242.8484-.3629 1.4417-.3629.5237 0 .9811.1077 1.3722.3231.3944.2154.6993.5369.9148.9645.2187.4242.3281.9545.3281 1.5909v4.8572h-1.4865v-4.6782c0-.5602-.1442-.9943-.4326-1.3026-.2883-.3115-.6894-.4673-1.2031-.4673-.3513 0-.6662.0746-.9446.2237-.2751.1492-.4922.3679-.6513.6563-.1557.285-.2336.6297-.2336 1.0341z"/><path d="m104.647 85.1538c-.715 0-1.34-.1641-1.874-.4922-.533-.3281-.948-.7872-1.243-1.3772-.295-.5899-.442-1.2793-.442-2.0681 0-.7922.147-1.4849.442-2.0782.295-.5932.71-1.0539 1.243-1.3821.534-.3281 1.159-.4921 1.874-.4921.716 0 1.341.164 1.875.4921.533.3282.948.7889 1.243 1.3821.295.5933.442 1.286.442 2.0782 0 .7888-.147 1.4782-.442 2.0681-.295.59-.71 1.0491-1.243 1.3772-.534.3281-1.159.4922-1.875.4922zm.005-1.2479c.464 0 .849-.1226 1.154-.3679s.53-.5717.676-.9794c.149-.4077.224-.8568.224-1.3473 0-.4872-.075-.9347-.224-1.3423-.146-.411-.371-.7408-.676-.9894s-.69-.3729-1.154-.3729c-.467 0-.855.1243-1.163.3729-.305.2486-.532.5784-.681.9894-.146.4076-.219.8551-.219 1.3423 0 .4905.073.9396.219 1.3473.149.4077.376.7341.681.9794.308.2453.696.3679 1.163.3679z"/><path d="m111.29 84.9996-2.248-7.6363h1.537l1.496 5.6079h.075l1.501-5.6079h1.536l1.492 5.5831h.074l1.487-5.5831h1.536l-2.242 7.6363h-1.517l-1.551-5.5134h-.114l-1.551 5.5134z"/><path d="m124.171 85.1538c-.739 0-1.376-.1674-1.909-.5022-.53-.338-.938-.8037-1.223-1.397s-.428-1.2727-.428-2.0383c0-.7756.146-1.46.438-2.0533.291-.5966.702-1.0623 1.233-1.397.53-.3348 1.155-.5021 1.874-.5021.58 0 1.097.1077 1.551.3231.454.2121.82.5104 1.099.8949.282.3845.449.8336.502 1.3473h-1.447c-.079-.358-.262-.6662-.547-.9247-.281-.2585-.659-.3878-1.133-.3878-.414 0-.777.1094-1.089.3281-.308.2155-.548.5237-.721.9247-.172.3978-.258.8684-.258 1.412 0 .5568.084 1.0374.253 1.4417.169.4044.408.7176.716.9397.312.222.678.3331 1.099.3331.282 0 .537-.0514.765-.1542.232-.106.426-.2568.582-.4524.159-.1955.27-.4309.333-.7059h1.447c-.053.4938-.214.9346-.482 1.3224-.269.3878-.628.6927-1.079.9148-.448.222-.973.3331-1.576.3331z"/><path d="m131.12 85.1687c-.484 0-.921-.0895-1.313-.2685-.391-.1823-.701-.4458-.929-.7905-.226-.3447-.338-.7673-.338-1.2677 0-.4309.083-.7855.248-1.0639.166-.2785.39-.4989.671-.6613.282-.1624.597-.285.945-.3679.348-.0828.703-.1458 1.064-.1889.457-.053.829-.0961 1.114-.1292.285-.0365.492-.0945.621-.1741.129-.0795.194-.2088.194-.3877v-.0348c0-.4342-.123-.7706-.368-1.0093-.242-.2386-.603-.3579-1.084-.3579-.5 0-.895.111-1.183.3331-.285.2187-.482.4623-.592.7308l-1.397-.3182c.166-.464.408-.8385.726-1.1236.322-.2883.691-.4971 1.109-.6264.417-.1326.857-.1988 1.317-.1988.305 0 .628.0364.97.1093.344.0696.666.1989.964.3878.302.1889.549.4591.741.8104.192.348.288.8004.288 1.3572v5.071h-1.451v-1.044h-.06c-.096.1922-.24.3812-.432.5668-.193.1856-.44.3397-.741.4623-.302.1227-.663.184-1.084.184zm.323-1.1932c.411 0 .762-.0812 1.054-.2436.295-.1624.519-.3745.671-.6364.156-.2651.234-.5485.234-.8501v-.9844c-.053.053-.156.1028-.308.1492-.149.043-.32.0812-.512.1143-.193.0298-.38.058-.562.0845-.182.0232-.335.0431-.458.0597-.288.0364-.551.0978-.79.1839-.235.0862-.424.2105-.567.3729-.139.1591-.209.3712-.209.6364 0 .3679.136.6463.408.8352.272.1856.618.2784 1.039.2784z"/><path d="m142.591 79.2276-1.348.2387c-.056-.1724-.145-.3364-.268-.4922-.119-.1558-.282-.2834-.487-.3828-.206-.0995-.463-.1492-.771-.1492-.421 0-.772.0945-1.054.2834-.282.1856-.422.4259-.422.7209 0 .2552.094.4607.283.6165.189.1557.494.2833.915.3828l1.213.2784c.702.1624 1.226.4126 1.571.7507.344.3381.517.7772.517 1.3175 0 .4573-.133.865-.398 1.223-.262.3546-.628.633-1.099.8352-.467.2022-1.009.3033-1.625.3033-.855 0-1.553-.1823-2.093-.5469-.541-.3679-.872-.8899-.995-1.5661l1.437-.2187c.09.3745.274.6579.552.8501.278.189.641.2834 1.089.2834.487 0 .876-.1011 1.168-.3033.292-.2054.438-.4557.438-.7507 0-.2386-.09-.4391-.269-.6015-.176-.1624-.446-.2851-.81-.3679l-1.293-.2834c-.713-.1624-1.24-.4209-1.581-.7756-.338-.3546-.507-.8037-.507-1.3473 0-.4507.126-.8451.378-1.1832s.6-.6016 1.044-.7905c.444-.1922.953-.2883 1.526-.2883.825 0 1.475.1789 1.949.5369.474.3546.787.8302.94 1.4268z"/><path d="m147.665 85.1538c-.752 0-1.4-.1608-1.943-.4823-.541-.3248-.958-.7805-1.253-1.3672-.292-.5899-.438-1.281-.438-2.0731 0-.7822.146-1.4716.438-2.0682.295-.5966.706-1.0623 1.233-1.397.53-.3348 1.15-.5021 1.859-.5021.431 0 .848.0712 1.253.2137.404.1425.767.3663 1.089.6712.321.3049.575.701.76 1.1882.186.4839.279 1.0722.279 1.7649v.527h-6.071v-1.1136h4.614c0-.3911-.08-.7375-.239-1.0391-.159-.3049-.382-.5452-.671-.7209-.285-.1756-.62-.2635-1.004-.2635-.418 0-.782.1028-1.094.3083-.308.2021-.547.4673-.716.7954-.165.3248-.248.6778-.248 1.059v.87c0 .5104.089.9446.268 1.3026.182.3579.436.6314.761.8203.325.1856.704.2784 1.138.2784.282 0 .539-.0398.771-.1193.232-.0829.432-.2055.601-.3679.17-.1624.299-.363.388-.6016l1.407.2536c-.112.4143-.315.7772-.606 1.0887-.289.3083-.652.5486-1.089.7209-.434.169-.93.2536-1.487.2536z"/><path d="m237.667 77.3633v1.1932h-4.171v-1.1932zm-3.052-1.8296h1.486v7.2238c0 .2883.043.5054.13.6512.086.1426.197.2403.333.2934.139.0497.29.0745.452.0745.119 0 .224-.0083.313-.0248.09-.0166.159-.0299.209-.0398l.269 1.228c-.087.0331-.209.0663-.368.0994-.159.0365-.358.0564-.597.0597-.391.0066-.756-.063-1.094-.2088-.338-.1459-.611-.3712-.82-.6762-.209-.3049-.313-.6877-.313-1.1484z"/><path d="m242.446 85.1538c-.716 0-1.34-.1641-1.874-.4922s-.948-.7872-1.243-1.3772c-.295-.5899-.442-1.2793-.442-2.0681 0-.7922.147-1.4849.442-2.0782.295-.5932.709-1.0539 1.243-1.3821.534-.3281 1.158-.4921 1.874-.4921s1.341.164 1.875.4921c.533.3282.947.7889 1.242 1.3821.295.5933.443 1.286.443 2.0782 0 .7888-.148 1.4782-.443 2.0681-.295.59-.709 1.0491-1.242 1.3772-.534.3281-1.159.4922-1.875.4922zm.005-1.2479c.464 0 .849-.1226 1.154-.3679s.53-.5717.676-.9794c.149-.4077.224-.8568.224-1.3473 0-.4872-.075-.9347-.224-1.3423-.146-.411-.371-.7408-.676-.9894s-.69-.3729-1.154-.3729c-.467 0-.855.1243-1.163.3729-.305.2486-.532.5784-.681.9894-.146.4076-.219.8551-.219 1.3423 0 .4905.073.9396.219 1.3473.149.4077.376.7341.681.9794.308.2453.696.3679 1.163.3679z"/><path d="m251.693 84.9996 4.445-8.7897v-.0746h-5.141v-1.3175h6.732v1.3622l-4.43 8.8196z"/><path d="m262.77 85.1388c-.683 0-1.292-.1176-1.829-.3529-.534-.2354-.957-.5618-1.268-.9794-.308-.421-.474-.9082-.497-1.4617h1.561c.02.3016.121.5635.303.7855.186.2188.428.3878.726.5071s.63.179.994.179c.401 0 .756-.0696 1.064-.2088.312-.1392.555-.3331.731-.5817.176-.2519.263-.5419.263-.87 0-.3414-.087-.6413-.263-.8999-.172-.2618-.426-.4673-.761-.6164-.331-.1492-.732-.2238-1.203-.2238h-.86v-1.2528h.86c.378 0 .709-.0679.994-.2038.289-.1359.514-.3248.677-.5668.162-.2453.243-.532.243-.8601 0-.3149-.071-.5883-.214-.8203-.139-.2353-.338-.4193-.596-.5518-.255-.1326-.557-.1989-.905-.1989-.331 0-.641.0613-.93.1839-.285.1194-.517.2917-.696.5171-.179.2221-.275.4889-.288.8004h-1.487c.017-.5502.179-1.0341.488-1.4517.311-.4176.722-.7441 1.233-.9794.51-.2353 1.077-.353 1.7-.353.653 0 1.216.1276 1.69.3828.478.2519.845.5883 1.104 1.0093.262.4209.391.8816.388 1.3821.003.57-.156 1.0539-.478 1.4517-.318.3977-.742.6645-1.272.8004v.0795c.676.1028 1.2.3713 1.571.8054.374.4342.56.9728.557 1.6158.003.5601-.153 1.0623-.468 1.5064-.311.4441-.737.7938-1.277 1.049-.541.2519-1.159.3778-1.855.3778z"/><path d="m271.794 85.1687c-.786-.0033-1.457-.2105-2.014-.6215s-.983-1.0092-1.278-1.7947-.442-1.7318-.442-2.8388c0-1.1037.147-2.0466.442-2.8288.299-.7822.726-1.3788 1.283-1.7898.56-.411 1.23-.6165 2.009-.6165.778 0 1.446.2072 2.003.6215.557.411.983 1.0075 1.278 1.7897.298.7789.447 1.7202.447 2.8239 0 1.1103-.147 2.0582-.442 2.8438-.295.7822-.721 1.3804-1.278 1.7947-.557.411-1.226.6165-2.008.6165zm0-1.3274c.689 0 1.228-.3364 1.615-1.0093.391-.6728.587-1.6456.587-2.9183 0-.8452-.089-1.5594-.268-2.1427-.176-.5867-.43-1.0308-.761-1.3324-.328-.305-.719-.4574-1.173-.4574-.686 0-1.225.338-1.616 1.0142-.391.6761-.588 1.6489-.592 2.9183 0 .8485.088 1.5661.264 2.1527.179.5833.432 1.0258.76 1.3274.328.2983.723.4475 1.184.4475z"/><path d="m277.425 84.9996v-10.1818h1.536v4.8622h.125l4.27-4.8622h1.934l-4.106 4.5838 4.121 5.598h-1.849l-3.291-4.549-1.204 1.3821v3.1669z"/><path d="m288.379 83.2894v-6.7216h1.337v6.7216zm-2.69-2.6946v-1.3324h6.722v1.3324z"/><path d="m298.415 87.8633v-10.5h1.452v1.2379h.124c.086-.1591.211-.343.373-.5518s.388-.3911.676-.5469c.289-.1591.67-.2386 1.144-.2386.616 0 1.166.1557 1.65.4673.484.3115.864.7606 1.139 1.3473.278.5866.417 1.2926.417 2.1179s-.137 1.5329-.412 2.1228c-.275.5867-.653 1.0391-1.134 1.3573-.48.3149-1.029.4723-1.645.4723-.464 0-.844-.0779-1.139-.2337-.292-.1557-.52-.338-.686-.5468-.166-.2089-.293-.3945-.383-.5569h-.089v4.0519zm1.457-6.6818c0 .5369.078 1.0075.234 1.4119.155.4044.381.7209.676.9496.295.2253.656.338 1.083.338.445 0 .816-.1176 1.114-.3529.298-.2387.524-.5618.676-.9695.156-.4077.234-.8667.234-1.3771 0-.5038-.076-.9562-.229-1.3573-.149-.401-.374-.7175-.676-.9496-.298-.232-.671-.348-1.119-.348-.43 0-.795.1111-1.093.3331-.295.2221-.519.532-.671.9297-.153.3977-.229.8618-.229 1.3921z"/><path d="m310.272 85.1538c-.715 0-1.34-.1641-1.874-.4922-.533-.3281-.948-.7872-1.243-1.3772-.295-.5899-.442-1.2793-.442-2.0681 0-.7922.147-1.4849.442-2.0782.295-.5932.71-1.0539 1.243-1.3821.534-.3281 1.159-.4921 1.874-.4921.716 0 1.341.164 1.875.4921.533.3282.948.7889 1.243 1.3821.295.5933.442 1.286.442 2.0782 0 .7888-.147 1.4782-.442 2.0681-.295.59-.71 1.0491-1.243 1.3772-.534.3281-1.159.4922-1.875.4922zm.005-1.2479c.464 0 .849-.1226 1.154-.3679s.53-.5717.676-.9794c.149-.4077.224-.8568.224-1.3473 0-.4872-.075-.9347-.224-1.3423-.146-.411-.371-.7408-.676-.9894s-.69-.3729-1.154-.3729c-.467 0-.855.1243-1.163.3729-.305.2486-.532.5784-.681.9894-.146.4076-.219.8551-.219 1.3423 0 .4905.073.9396.219 1.3473.149.4077.376.7341.681.9794.308.2453.696.3679 1.163.3679z"/><path d="m319.056 77.3633v1.1932h-4.171v-1.1932zm-3.053-1.8296h1.487v7.2238c0 .2883.043.5054.129.6512.086.1426.197.2403.333.2934.14.0497.29.0745.453.0745.119 0 .223-.0083.313-.0248.089-.0166.159-.0299.209-.0398l.268 1.228c-.086.0331-.209.0663-.368.0994-.159.0365-.358.0564-.596.0597-.391.0066-.756-.063-1.094-.2088-.338-.1459-.612-.3712-.82-.6762-.209-.3049-.314-.6877-.314-1.1484z"/><path d="m323.91 85.1538c-.753 0-1.401-.1608-1.944-.4823-.541-.3248-.958-.7805-1.253-1.3672-.292-.5899-.438-1.281-.438-2.0731 0-.7822.146-1.4716.438-2.0682.295-.5966.706-1.0623 1.233-1.397.53-.3348 1.15-.5021 1.859-.5021.431 0 .849.0712 1.253.2137s.767.3663 1.089.6712c.321.3049.575.701.76 1.1882.186.4839.279 1.0722.279 1.7649v.527h-6.071v-1.1136h4.614c0-.3911-.079-.7375-.239-1.0391-.159-.3049-.382-.5452-.671-.7209-.285-.1756-.619-.2635-1.004-.2635-.418 0-.782.1028-1.094.3083-.308.2021-.547.4673-.716.7954-.165.3248-.248.6778-.248 1.059v.87c0 .5104.089.9446.268 1.3026.183.3579.436.6314.761.8203.325.1856.704.2784 1.138.2784.282 0 .539-.0398.771-.1193.232-.0829.433-.2055.602-.3679s.298-.363.387-.6016l1.407.2536c-.112.4143-.315.7772-.606 1.0887-.289.3083-.651.5486-1.089.7209-.434.169-.93.2536-1.486.2536z"/><path d="m330.322 80.4656v4.534h-1.487v-7.6363h1.427v1.2429h.094c.176-.4044.451-.7292.826-.9745.378-.2452.853-.3678 1.427-.3678.52 0 .976.1093 1.367.3281.391.2154.694.5369.91.9645.215.4275.323.9562.323 1.5859v4.8572h-1.487v-4.6782c0-.5535-.144-.9861-.432-1.2976-.289-.3149-.685-.4723-1.189-.4723-.344 0-.651.0746-.919.2237-.265.1492-.476.3679-.632.6563-.152.285-.228.6297-.228 1.0341z"/><path d="m340.767 77.3633v1.1932h-4.171v-1.1932zm-3.053-1.8296h1.487v7.2238c0 .2883.043.5054.129.6512.086.1426.197.2403.333.2934.139.0497.29.0745.453.0745.119 0 .223-.0083.313-.0248.089-.0166.159-.0299.209-.0398l.268 1.228c-.086.0331-.209.0663-.368.0994-.159.0365-.358.0564-.596.0597-.391.0066-.756-.063-1.094-.2088-.338-.1459-.612-.3712-.82-.6762-.209-.3049-.314-.6877-.314-1.1484z"/><path d="m342.411 84.9996v-7.6363h1.487v7.6363zm.751-8.8146c-.259 0-.481-.0862-.666-.2585-.182-.1757-.274-.3845-.274-.6264 0-.2453.092-.4541.274-.6264.185-.1757.407-.2635.666-.2635s.479.0878.661.2635c.186.1723.279.3811.279.6264 0 .2419-.093.4507-.279.6264-.182.1723-.402.2585-.661.2585z"/><path d="m348.12 85.1687c-.484 0-.921-.0895-1.313-.2685-.391-.1823-.701-.4458-.929-.7905-.226-.3447-.338-.7673-.338-1.2677 0-.4309.083-.7855.248-1.0639.166-.2785.39-.4989.671-.6613.282-.1624.597-.285.945-.3679.348-.0828.703-.1458 1.064-.1889.457-.053.829-.0961 1.114-.1292.285-.0365.492-.0945.621-.1741.129-.0795.194-.2088.194-.3877v-.0348c0-.4342-.123-.7706-.368-1.0093-.242-.2386-.603-.3579-1.084-.3579-.5 0-.895.111-1.183.3331-.285.2187-.482.4623-.592.7308l-1.397-.3182c.166-.464.408-.8385.726-1.1236.322-.2883.691-.4971 1.109-.6264.417-.1326.857-.1988 1.317-.1988.305 0 .628.0364.97.1093.345.0696.666.1989.964.3878.302.1889.549.4591.741.8104.192.348.288.8004.288 1.3572v5.071h-1.451v-1.044h-.06c-.096.1922-.24.3812-.432.5668-.193.1856-.44.3397-.741.4623-.302.1227-.663.184-1.084.184zm.323-1.1932c.411 0 .762-.0812 1.054-.2436.295-.1624.519-.3745.671-.6364.156-.2651.234-.5485.234-.8501v-.9844c-.053.053-.156.1028-.308.1492-.149.043-.32.0812-.512.1143-.193.0298-.38.058-.562.0845-.182.0232-.335.0431-.458.0597-.288.0364-.551.0978-.79.1839-.235.0862-.424.2105-.567.3729-.139.1591-.209.3712-.209.6364 0 .3679.136.6463.408.8352.272.1856.618.2784 1.039.2784z"/><path d="m355.355 74.8178v10.1818h-1.487v-10.1818z"/><path d="m364.276 85.1538c-.739 0-1.375-.1674-1.909-.5022-.53-.338-.938-.8037-1.223-1.397s-.427-1.2727-.427-2.0383c0-.7756.146-1.46.437-2.0533.292-.5966.703-1.0623 1.233-1.397.53-.3348 1.155-.5021 1.874-.5021.58 0 1.098.1077 1.552.3231.454.2121.82.5104 1.098.8949.282.3845.449.8336.502 1.3473h-1.446c-.08-.358-.262-.6662-.547-.9247-.282-.2585-.66-.3878-1.134-.3878-.414 0-.777.1094-1.088.3281-.309.2155-.549.5237-.721.9247-.173.3978-.259.8684-.259 1.412 0 .5568.085 1.0374.254 1.4417.169.4044.407.7176.716.9397.311.222.677.3331 1.098.3331.282 0 .537-.0514.766-.1542.232-.106.426-.2568.582-.4524.159-.1955.27-.4309.333-.7059h1.446c-.053.4938-.213.9346-.482 1.3224-.268.3878-.628.6927-1.079.9148-.447.222-.972.3331-1.576.3331z"/><path d="m373.84 81.8327v-4.4694h1.492v7.6363h-1.462v-1.3224h-.079c-.176.4077-.458.7474-.845 1.0192-.385.2684-.864.4027-1.437.4027-.491 0-.925-.1077-1.303-.3232-.374-.2187-.669-.5419-.885-.9694-.212-.4276-.318-.9562-.318-1.586v-4.8572h1.487v4.6782c0 .5204.144.9347.432 1.2429.289.3083.663.4624 1.124.4624.278 0 .555-.0696.83-.2088.278-.1392.509-.3497.691-.6314.186-.2817.277-.6397.273-1.0739z"/><path d="m383.052 79.2276-1.348.2387c-.056-.1724-.146-.3364-.268-.4922-.119-.1558-.282-.2834-.487-.3828-.206-.0995-.463-.1492-.771-.1492-.421 0-.772.0945-1.054.2834-.282.1856-.423.4259-.423.7209 0 .2552.095.4607.284.6165.189.1557.494.2833.915.3828l1.213.2784c.702.1624 1.226.4126 1.571.7507.344.3381.517.7772.517 1.3175 0 .4573-.133.865-.398 1.223-.262.3546-.628.633-1.099.8352-.467.2022-1.009.3033-1.625.3033-.856 0-1.553-.1823-2.093-.5469-.541-.3679-.872-.8899-.995-1.5661l1.437-.2187c.089.3745.273.6579.552.8501.278.189.641.2834 1.089.2834.487 0 .876-.1011 1.168-.3033.292-.2054.437-.4557.437-.7507 0-.2386-.089-.4391-.268-.6015-.176-.1624-.446-.2851-.81-.3679l-1.293-.2834c-.713-.1624-1.24-.4209-1.581-.7756-.338-.3546-.507-.8037-.507-1.3473 0-.4507.126-.8451.378-1.1832s.6-.6016 1.044-.7905c.444-.1922.953-.2883 1.526-.2883.825 0 1.475.1789 1.949.5369.474.3546.787.8302.94 1.4268z"/><path d="m388.4 77.3633v1.1932h-4.171v-1.1932zm-3.053-1.8296h1.487v7.2238c0 .2883.043.5054.129.6512.086.1426.197.2403.333.2934.139.0497.29.0745.452.0745.12 0 .224-.0083.314-.0248.089-.0166.159-.0299.209-.0398l.268 1.228c-.086.0331-.209.0663-.368.0994-.159.0365-.358.0564-.597.0597-.391.0066-.755-.063-1.093-.2088-.338-.1459-.612-.3712-.821-.6762-.208-.3049-.313-.6877-.313-1.1484z"/><path d="m393.179 85.1538c-.716 0-1.341-.1641-1.875-.4922-.533-.3281-.947-.7872-1.242-1.3772-.295-.5899-.443-1.2793-.443-2.0681 0-.7922.148-1.4849.443-2.0782.295-.5932.709-1.0539 1.242-1.3821.534-.3281 1.159-.4921 1.875-.4921s1.34.164 1.874.4921c.534.3282.948.7889 1.243 1.3821.295.5933.442 1.286.442 2.0782 0 .7888-.147 1.4782-.442 2.0681-.295.59-.709 1.0491-1.243 1.3772s-1.158.4922-1.874.4922zm.005-1.2479c.464 0 .848-.1226 1.153-.3679s.53-.5717.676-.9794c.149-.4077.224-.8568.224-1.3473 0-.4872-.075-.9347-.224-1.3423-.146-.411-.371-.7408-.676-.9894s-.689-.3729-1.153-.3729c-.468 0-.855.1243-1.164.3729-.305.2486-.532.5784-.681.9894-.146.4076-.219.8551-.219 1.3423 0 .4905.073.9396.219 1.3473.149.4077.376.7341.681.9794.309.2453.696.3679 1.164.3679z"/><path d="m398.398 84.9996v-7.6363h1.426v1.2429h.095c.159-.4209.419-.7491.78-.9844.362-.2386.794-.3579 1.298-.3579.51 0 .938.1193 1.283.3579.348.2386.605.5668.77.9844h.08c.182-.4077.472-.7325.87-.9745.398-.2452.872-.3678 1.422-.3678.692 0 1.258.217 1.695.6512.441.4342.661 1.0888.661 1.9638v5.1207h-1.486v-4.9815c0-.517-.141-.8916-.423-1.1236-.281-.232-.618-.348-1.009-.348-.484 0-.86.1492-1.129.4475-.268.2949-.402.6744-.402 1.1385v4.8671h-1.482v-5.0759c0-.4143-.129-.7474-.388-.9993-.258-.2519-.595-.3779-1.009-.3779-.282 0-.542.0746-.78.2237-.236.1459-.426.3497-.572.6115-.143.2619-.214.5652-.214.9098v4.7081z"/><path d="m414.062 85.1538c-.752 0-1.4-.1608-1.944-.4823-.54-.3248-.958-.7805-1.253-1.3672-.292-.5899-.437-1.281-.437-2.0731 0-.7822.145-1.4716.437-2.0682.295-.5966.706-1.0623 1.233-1.397.53-.3348 1.15-.5021 1.859-.5021.431 0 .849.0712 1.253.2137.405.1425.768.3663 1.089.6712.322.3049.575.701.761 1.1882.185.4839.278 1.0722.278 1.7649v.527h-6.07v-1.1136h4.613c0-.3911-.079-.7375-.238-1.0391-.159-.3049-.383-.5452-.671-.7209-.285-.1756-.62-.2635-1.005-.2635-.417 0-.782.1028-1.093.3083-.309.2021-.547.4673-.716.7954-.166.3248-.249.6778-.249 1.059v.87c0 .5104.09.9446.269 1.3026.182.3579.435.6314.76.8203.325.1856.705.2784 1.139.2784.282 0 .538-.0398.77-.1193.232-.0829.433-.2055.602-.3679s.298-.363.388-.6016l1.407.2536c-.113.4143-.315.7772-.607 1.0887-.288.3083-.651.5486-1.089.7209-.434.169-.929.2536-1.486.2536z"/><path d="m418.987 84.9996v-7.6363h1.437v1.213h.08c.139-.4109.384-.7341.736-.9694.354-.2386.755-.358 1.203-.358.093 0 .202.0033.328.01.129.0066.23.0149.303.0248v1.4219c-.06-.0166-.166-.0348-.318-.0547-.153-.0232-.305-.0348-.457-.0348-.352 0-.665.0746-.94.2237-.272.1459-.487.3497-.646.6115-.159.2586-.239.5536-.239.885v4.6633z"/><path d="m430.083 79.2276-1.347.2387c-.057-.1724-.146-.3364-.269-.4922-.119-.1558-.282-.2834-.487-.3828-.206-.0995-.463-.1492-.771-.1492-.421 0-.772.0945-1.054.2834-.281.1856-.422.4259-.422.7209 0 .2552.094.4607.283.6165.189.1557.494.2833.915.3828l1.213.2784c.703.1624 1.226.4126 1.571.7507s.517.7772.517 1.3175c0 .4573-.133.865-.398 1.223-.262.3546-.628.633-1.098.8352-.468.2022-1.01.3033-1.626.3033-.855 0-1.553-.1823-2.093-.5469-.54-.3679-.872-.8899-.995-1.5661l1.437-.2187c.09.3745.274.6579.552.8501.279.189.641.2834 1.089.2834.487 0 .877-.1011 1.168-.3033.292-.2054.438-.4557.438-.7507 0-.2386-.09-.4391-.269-.6015-.175-.1624-.446-.2851-.81-.3679l-1.293-.2834c-.712-.1624-1.239-.4209-1.581-.7756-.338-.3546-.507-.8037-.507-1.3473 0-.4507.126-.8451.378-1.1832s.6-.6016 1.044-.7905c.444-.1922.953-.2883 1.526-.2883.826 0 1.475.1789 1.949.5369.474.3546.787.8302.94 1.4268z"/><path d="m25.1445 138v-9.455h1.1449v4.211h5.0412v-4.211h1.1449v9.455h-1.1449v-4.229h-5.0412v4.229z"/><path d="m34.6199 138v-7.091h1.0894v7.091zm.5539-8.273c-.2123 0-.3954-.072-.5493-.217-.1508-.144-.2262-.318-.2262-.521s.0754-.377.2262-.522c.1539-.145.337-.217.5493-.217.2124 0 .394.072.5448.217.1539.145.2308.319.2308.522s-.0769.377-.2308.521c-.1508.145-.3324.217-.5448.217z"/></g><g fill="#dfe3e8"><path d="m23.9199 167.721h9.024v7.2h-9.024z"/><path d="m30.7871 167.721h15.888v7.2h-15.888z"/><path d="m58.9121 167.721h15.888v7.2h-15.888z"/><path d="m72.6465 167.721h15.888v7.2h-15.888z"/><path d="m86.3809 167.721h9.024v7.2h-9.024z"/><path d="m93.248 167.721h15.888v7.2h-15.888z"/><path d="m106.982 167.721h9.024v7.2h-9.024z"/><path d="m113.85 167.721h15.888v7.2h-15.888z"/><path d="m127.584 167.721h15.888v7.2h-15.888z"/><path d="m155.709 167.721h15.888v7.2h-15.888z"/><path d="m169.443 167.721h9.024v7.2h-9.024z"/><path d="m176.311 167.721h9.024v7.2h-9.024z"/><path d="m183.178 167.721h15.888v7.2h-15.888z"/><path d="m211.303 167.721h15.888v7.2h-15.888z"/><path d="m225.037 167.721h9.024v7.2h-9.024z"/><path d="m231.904 167.721h15.888v7.2h-15.888z"/><path d="m245.639 167.721h15.888v7.2h-15.888z"/><path d="m259.373 167.721h9.024v7.2h-9.024z"/><path d="m280.631 167.721h15.888v7.2h-15.888z"/><path d="m294.365 167.721h15.888v7.2h-15.888z"/><path d="m308.1 167.721h15.888v7.2h-15.888z"/><path d="m321.834 167.721h15.888v7.2h-15.888z"/><path d="m349.959 167.721h15.888v7.2h-15.888z"/><path d="m363.693 167.721h15.888v7.2h-15.888z"/><path d="m377.428 167.721h15.888v7.2h-15.888z"/><path d="m391.162 167.721h15.888v7.2h-15.888z"/><path d="m404.896 167.721h15.888v7.2h-15.888z"/><path d="m418.631 167.721h15.888v7.2h-15.888z"/><path d="m432.365 167.721h9.024v7.2h-9.024z"/><path d="m439.232 167.721h15.888v7.2h-15.888z"/><path d="m452.967 167.721h15.888v7.2h-15.888z"/><path d="m466.701 167.721h9.024v7.2h-9.024z"/><path d="m487.959 167.721h15.888v7.2h-15.888z"/><path d="m501.693 167.721h15.888v7.2h-15.888z"/><path d="m515.428 167.721h15.888v7.2h-15.888z"/><path d="m23.9199 191.721h15.888v7.2h-15.888z"/><path d="m37.6543 191.721h9.024v7.2h-9.024z"/><path d="m58.9121 191.721h9.024v7.2h-9.024z"/><path d="m65.7793 191.721h15.888v7.2h-15.888z"/><path d="m79.5137 191.721h15.888v7.2h-15.888z"/><path d="m107.639 191.721h15.888v7.2h-15.888z"/><path d="m121.373 191.721h15.888v7.2h-15.888z"/><path d="m135.107 191.721h15.888v7.2h-15.888z"/><path d="m163.232 191.721h9.024v7.2h-9.024z"/><path d="m170.1 191.721h15.888v7.2h-15.888z"/><path d="m183.834 191.721h15.888v7.2h-15.888z"/><path d="m197.568 191.721h15.888v7.2h-15.888z"/><path d="m211.303 191.721h15.888v7.2h-15.888z"/><path d="m225.037 191.721h15.888v7.2h-15.888z"/><path d="m253.162 191.721h9.024v7.2h-9.024z"/><path d="m260.029 191.721h15.888v7.2h-15.888z"/><path d="m273.764 191.721h15.888v7.2h-15.888z"/><path d="m287.498 191.721h15.888v7.2h-15.888z"/><path d="m301.232 191.721h9.024v7.2h-9.024z"/><path d="m308.1 191.721h9.024v7.2h-9.024z"/><path d="m314.967 191.721h15.888v7.2h-15.888z"/><path d="m343.092 191.721h15.888v7.2h-15.888z"/><path d="m356.826 191.721h9.024v7.2h-9.024z"/><path d="m363.693 191.721h9.024v7.2h-9.024z"/><path d="m370.561 191.721h15.888v7.2h-15.888z"/><path d="m384.295 191.721h15.888v7.2h-15.888z"/><path d="m398.029 191.721h15.888v7.2h-15.888z"/><path d="m411.764 191.721h9.024v7.2h-9.024z"/><path d="m418.631 191.721h9.024v7.2h-9.024z"/><path d="m425.498 191.721h15.888v7.2h-15.888z"/><path d="m439.232 191.721h15.888v7.2h-15.888z"/><path d="m467.357 191.721h15.888v7.2h-15.888z"/><path d="m481.092 191.721h9.024v7.2h-9.024z"/><path d="m487.959 191.721h9.024v7.2h-9.024z"/><path d="m494.826 191.721h15.888v7.2h-15.888z"/><path d="m522.951 191.721h9.024v7.2h-9.024z"/><path d="m529.818 191.721h15.888v7.2h-15.888z"/><path d="m23.9199 215.721h15.888v7.2h-15.888z"/><path d="m37.6543 215.721h9.024v7.2h-9.024z"/><path d="m44.5215 215.721h9.024v7.2h-9.024z"/><path d="m51.3887 215.721h9.024v7.2h-9.024z"/><path d="m58.2559 215.721h15.888v7.2h-15.888z"/><path d="m71.9902 215.721h15.888v7.2h-15.888z"/><path d="m100.115 215.721h9.024v7.2h-9.024z"/><path d="m106.982 215.721h15.888v7.2h-15.888z"/><path d="m120.717 215.721h15.888v7.2h-15.888z"/><path d="m148.842 215.721h9.024v7.2h-9.024z"/><path d="m155.709 215.721h9.024v7.2h-9.024z"/><path d="m162.576 215.721h15.888v7.2h-15.888z"/><path d="m176.311 215.721h15.888v7.2h-15.888z"/><path d="m190.045 215.721h9.024v7.2h-9.024z"/><path d="m211.303 215.721h15.888v7.2h-15.888z"/><path d="m225.037 215.721h15.888v7.2h-15.888z"/><path d="m238.771 215.721h9.024v7.2h-9.024z"/><path d="m245.639 215.721h15.888v7.2h-15.888z"/><path d="m259.373 215.721h15.888v7.2h-15.888z"/><path d="m273.107 215.721h15.888v7.2h-15.888z"/><path d="m286.842 215.721h9.024v7.2h-9.024z"/><path d="m308.1 215.721h15.888v7.2h-15.888z"/><path d="m321.834 215.721h9.024v7.2h-9.024z"/><path d="m343.092 215.721h9.024v7.2h-9.024z"/><path d="m349.959 215.721h15.888v7.2h-15.888z"/><path d="m363.693 215.721h15.888v7.2h-15.888z"/><path d="m391.818 215.721h9.024v7.2h-9.024z"/><path d="m398.686 215.721h9.024v7.2h-9.024z"/><path d="m405.553 215.721h15.888v7.2h-15.888z"/><path d="m419.287 215.721h15.888v7.2h-15.888z"/><path d="m433.021 215.721h9.024v7.2h-9.024z"/><path d="m454.279 215.721h9.024v7.2h-9.024z"/><path d="m461.146 215.721h9.024v7.2h-9.024z"/><path d="m468.014 215.721h15.888v7.2h-15.888z"/><path d="m481.748 215.721h15.888v7.2h-15.888z"/><path d="m495.482 215.721h9.024v7.2h-9.024z"/></g><rect fill="#e6f4ff" height="24" rx="4" width="70.0879" x="157" y="68"/><path d="m167.49 75.5547c1.106 0 1.912.2265 2.42.6797.508.4531.762 1.0879.762 1.9043 0 .3711-.059.7246-.176 1.0605-.113.332-.301.627-.562.8848-.262.2539-.608.4551-1.038.6035-.425.1484-.951.2227-1.576.2227h-.914v3.2109h-1.406v-8.5664zm-.094 1.166h-.99v3.0176h.768c.441 0 .816-.0508 1.125-.1524.308-.1054.543-.2714.703-.498s.24-.5254.24-.8965c0-.4961-.15-.8652-.451-1.1074-.297-.2422-.762-.3633-1.395-.3633z" fill="#0578d6"/><path d="m173.619 77.6348v6.4863h-1.377v-6.4863zm-.68-2.4844c.211 0 .393.0566.545.1699.157.1133.235.3086.235.5859 0 .2735-.078.4688-.235.586-.152.1133-.334.1699-.545.1699-.218 0-.404-.0566-.556-.1699-.149-.1172-.223-.3125-.223-.586 0-.2773.074-.4726.223-.5859.152-.1133.338-.1699.556-.1699z" fill="#0578d6"/><path d="m178.178 77.5117c.578 0 1.074.1192 1.488.3574.414.2383.732.5762.955 1.0137s.334.961.334 1.5703v.7383h-4.33c.016.6289.184 1.1133.504 1.4531.324.3399.777.5098 1.359.5098.414 0 .785-.0391 1.114-.1172.332-.082.673-.2012 1.025-.3574v1.1191c-.324.1524-.654.2637-.99.334s-.739.1055-1.207.1055c-.637 0-1.198-.1231-1.682-.3692-.48-.25-.857-.6211-1.131-1.1132-.269-.4922-.404-1.1036-.404-1.834 0-.7266.123-1.3438.369-1.8516s.592-.8945 1.037-1.1601c.445-.2657.965-.3985 1.559-.3985zm0 1.0371c-.434 0-.785.1407-1.055.4219-.266.2813-.422.6934-.469 1.2363h2.953c-.003-.3242-.058-.6113-.164-.8613-.101-.25-.257-.4453-.468-.5859-.207-.1407-.473-.211-.797-.211z" fill="#0578d6"/><path d="m184.688 84.2383c-.774 0-1.395-.2813-1.864-.8438-.465-.5664-.697-1.4004-.697-2.5019 0-1.1133.236-1.9551.709-2.5254.476-.5703 1.103-.8555 1.881-.8555.328 0 .615.0449.861.1348.246.0859.457.2031.633.3515.18.1485.332.3145.457.4981h.064c-.019-.1211-.043-.2949-.07-.5215-.023-.2305-.035-.4434-.035-.6387v-2.332h1.383v9.1172h-1.078l-.246-.8848h-.059c-.117.1875-.266.3575-.445.5098-.176.1484-.387.2676-.633.3574-.242.0899-.529.1348-.861.1348zm.386-1.1192c.59 0 1.006-.1699 1.248-.5097.242-.3399.367-.8496.375-1.5293v-.1817c0-.7265-.117-1.2832-.351-1.6699-.235-.3906-.662-.5859-1.284-.5859-.496 0-.874.2012-1.136.6035-.258.3984-.387.9551-.387 1.6699 0 .7149.129 1.2617.387 1.6406.262.375.644.5625 1.148.5625z" fill="#0578d6"/><path d="m192.615 75.5547c1.106 0 1.912.2265 2.42.6797.508.4531.762 1.0879.762 1.9043 0 .3711-.059.7246-.176 1.0605-.113.332-.301.627-.562.8848-.262.2539-.608.4551-1.038.6035-.425.1484-.951.2227-1.576.2227h-.914v3.2109h-1.406v-8.5664zm-.094 1.166h-.99v3.0176h.768c.441 0 .816-.0508 1.125-.1524.308-.1054.543-.2714.703-.498s.24-.5254.24-.8965c0-.4961-.15-.8652-.451-1.1074-.297-.2422-.762-.3633-1.395-.3633z" fill="#0578d6"/><path d="m198.744 77.6348v6.4863h-1.377v-6.4863zm-.68-2.4844c.211 0 .393.0566.545.1699.157.1133.235.3086.235.5859 0 .2735-.078.4688-.235.586-.152.1133-.334.1699-.545.1699-.218 0-.404-.0566-.556-.1699-.149-.1172-.223-.3125-.223-.586 0-.2773.074-.4726.223-.5859.152-.1133.338-.1699.556-.1699z" fill="#0578d6"/><path d="m204.047 77.5117c.769 0 1.387.2813 1.851.8438.469.5625.704 1.3984.704 2.5078 0 .7344-.11 1.3535-.329 1.8574-.214.5-.517.8789-.908 1.1367-.386.2539-.838.3809-1.353.3809-.328 0-.614-.043-.856-.1289-.242-.086-.449-.1973-.621-.334-.172-.1406-.316-.293-.433-.457h-.082c.019.1562.037.33.052.5214.02.1875.03.3594.03.5157v2.6425h-1.383v-9.3632h1.125l.193.8964h.065c.121-.1835.267-.3535.439-.5097.176-.1563.387-.2793.633-.3692.25-.0937.541-.1406.873-.1406zm-.369 1.125c-.379 0-.684.0762-.914.2285-.227.1485-.393.3731-.498.6739-.102.3007-.157.6777-.164 1.1308v.1934c0 .4805.048.8887.146 1.2246.102.332.268.5859.498.7617.234.1719.551.2578.949.2578.336 0 .614-.0918.832-.2754.223-.1836.389-.4453.498-.7851.11-.3399.164-.7403.164-1.2012 0-.6992-.125-1.2422-.375-1.6289-.246-.3867-.625-.5801-1.136-.5801z" fill="#0578d6"/><path d="m210.779 77.5117c.578 0 1.075.1192 1.489.3574.414.2383.732.5762.955 1.0137.222.4375.334.961.334 1.5703v.7383h-4.33c.015.6289.183 1.1133.503 1.4531.325.3399.778.5098 1.36.5098.414 0 .785-.0391 1.113-.1172.332-.082.674-.2012 1.026-.3574v1.1191c-.325.1524-.655.2637-.991.334s-.738.1055-1.207.1055c-.636 0-1.197-.1231-1.681-.3692-.481-.25-.858-.6211-1.131-1.1132-.27-.4922-.405-1.1036-.405-1.834 0-.7266.124-1.3438.37-1.8516s.591-.8945 1.037-1.1601c.445-.2657.965-.3985 1.558-.3985zm0 1.0371c-.433 0-.785.1407-1.054.4219-.266.2813-.422.6934-.469 1.2363h2.953c-.004-.3242-.059-.6113-.164-.8613-.102-.25-.258-.4453-.469-.5859-.207-.1407-.472-.211-.797-.211z" fill="#0578d6"/><path d="m218.396 77.5117c.11 0 .229.0059.358.0176s.24.0273.334.0469l-.129 1.289c-.082-.0234-.184-.041-.305-.0527-.117-.0117-.222-.0176-.316-.0176-.246 0-.481.041-.703.1231-.223.0781-.42.1992-.592.3632-.172.1602-.307.3614-.404.6036-.098.2422-.147.5234-.147.8437v3.3926h-1.383v-6.4863h1.079l.187 1.1425h.064c.129-.2304.29-.4414.481-.6328s.41-.3437.656-.457c.25-.1172.524-.1758.82-.1758z" fill="#0578d6"/><rect fill="#e6f4ff" height="24" rx="4" width="58.1113" x="41" y="121"/><path d="m51.4082 128.934c.7383 0 1.3477.089 1.8281.269.4844.18.8438.453 1.0782.82.2382.368.3574.834.3574 1.401 0 .422-.0781.781-.2344 1.078s-.3613.543-.6152.738c-.2539.196-.5254.352-.8145.469l2.4317 3.791h-1.5879l-2.0684-3.434h-1.377v3.434h-1.4062v-8.566zm-.0937 1.171h-.9083v2.801h.9727c.6523 0 1.125-.121 1.418-.363.2969-.242.4453-.6.4453-1.072 0-.496-.1582-.848-.4746-1.055-.3125-.207-.7969-.311-1.4531-.311z" fill="#0578d6"/><path d="m57.9004 131.014v6.486h-1.377v-6.486zm-.6797-2.485c.2109 0 .3926.057.5449.17.1563.113.2344.309.2344.586 0 .274-.0781.469-.2344.586-.1523.113-.334.17-.5449.17-.2187 0-.4043-.057-.5566-.17-.1485-.117-.2227-.312-.2227-.586 0-.277.0742-.473.2227-.586.1523-.113.3379-.17.5566-.17z" fill="#0578d6"/><path d="m62.4883 137.617c-.6133 0-1.1445-.119-1.5938-.357-.4492-.239-.7949-.604-1.0371-1.096s-.3633-1.117-.3633-1.875c0-.789.1329-1.434.3985-1.934s.6328-.869 1.1015-1.107c.4727-.238 1.0137-.357 1.6231-.357.3867 0 .7363.039 1.0488.117.3164.074.584.166.8028.275l-.4102 1.102c-.2383-.098-.4824-.18-.7324-.246-.25-.067-.4903-.1-.7207-.1-.3789 0-.6953.084-.9493.252-.25.168-.4374.418-.5624.75-.1211.332-.1817.744-.1817 1.236 0 .477.0625.879.1875 1.207.125.325.3106.571.5566.739.2461.164.5489.246.9083.246.3554 0 .6738-.043.955-.129.2813-.086.5469-.197.7969-.334v1.195c-.2461.141-.5098.244-.791.311-.2813.07-.627.105-1.0371.105z" fill="#0578d6"/><path d="m67.2168 128.383v2.291c0 .238-.0078.471-.0234.697-.0118.227-.0254.402-.0411.527h.0762c.1367-.226.3047-.412.5039-.556.1992-.149.4219-.26.668-.334.25-.074.5156-.112.7969-.112.4961 0 .9179.084 1.2656.252.3476.164.6133.42.7969.768.1875.348.2812.799.2812 1.354v4.23h-1.3769v-3.973c0-.504-.1036-.881-.3106-1.131-.207-.253-.5273-.38-.9609-.38-.418 0-.75.088-.9961.263-.2422.172-.416.428-.5215.768-.1055.336-.1582.746-.1582 1.23v3.223h-1.377v-9.117z" fill="#0578d6"/><path d="m76.0117 130.891c.8203 0 1.4395.181 1.8574.545.4219.363.6329.929.6329 1.699v4.365h-.9786l-.2636-.92h-.0469c-.1836.234-.3731.428-.5684.58s-.4218.266-.6797.34c-.2539.078-.5644.117-.9316.117-.3867 0-.7324-.07-1.0371-.211-.3047-.144-.5449-.363-.7207-.656s-.2637-.664-.2637-1.113c0-.668.2481-1.17.7442-1.506.5-.336 1.2539-.522 2.2617-.557l1.125-.041v-.34c0-.449-.1055-.769-.3164-.961-.2071-.191-.5-.287-.8789-.287-.3243 0-.6387.047-.9434.141s-.6016.209-.8906.346l-.4453-.973c.3164-.168.6758-.305 1.0781-.41.4062-.106.8281-.158 1.2656-.158zm1.125 3.509-.8379.03c-.6875.023-1.1699.14-1.4472.351-.2774.211-.4161.5-.4161.867 0 .321.0957.555.2872.704.1914.144.4433.216.7558.216.4766 0 .8711-.134 1.1836-.404.3164-.273.4746-.674.4746-1.201z" fill="#0578d6"/><path d="m83.7168 130.891c.1094 0 .2285.005.3574.017s.2403.028.334.047l-.1289 1.289c-.082-.023-.1836-.041-.3047-.053-.1172-.011-.2226-.017-.3164-.017-.2461 0-.4805.041-.7031.123-.2227.078-.4199.199-.5918.363-.1719.16-.3067.361-.4043.604-.0977.242-.1465.523-.1465.843v3.393h-1.3828v-6.486h1.0781l.1875 1.142h.0645c.1289-.23.289-.441.4804-.633.1914-.191.4102-.343.6563-.457.25-.117.5234-.175.8203-.175z" fill="#0578d6"/><path d="m87.7891 137.617c-.7735 0-1.3946-.281-1.8633-.844-.4649-.566-.6973-1.4-.6973-2.502 0-1.113.2363-1.955.709-2.525.4766-.57 1.1035-.855 1.8809-.855.3281 0 .6152.045.8613.134.2461.086.457.204.6328.352.1797.148.332.314.457.498h.0645c-.0195-.121-.043-.295-.0703-.521-.0235-.231-.0352-.444-.0352-.639v-2.332h1.3828v9.117h-1.0781l-.2461-.885h-.0586c-.1172.188-.2656.358-.4453.51-.1758.148-.3867.268-.6328.357-.2422.09-.5293.135-.8613.135zm.3867-1.119c.5898 0 1.0058-.17 1.248-.51s.3672-.849.375-1.529v-.182c0-.726-.1172-1.283-.3515-1.67-.2344-.39-.6621-.586-1.2832-.586-.4961 0-.875.202-1.1368.604-.2578.398-.3867.955-.3867 1.67s.1289 1.262.3867 1.641c.2618.375.6446.562 1.1485.562z" fill="#0578d6"/><path d="m25.1445 35.9995v-9.4546h5.6691v1.0156h-4.5242v3.1946h4.0994v1.0157h-4.0994v4.2287z" fill="#707880"/><path d="m32.5505 35.9995v-7.0909h1.0526v1.071h.0738c.1293-.3509.3632-.6356.7017-.8541.3386-.2185.7202-.3277 1.1449-.3277.08 0 .1801.0015.3001.0046s.2108.0077.2724.0138v1.108c-.037-.0092-.1216-.0231-.2539-.0416-.1293-.0215-.2663-.0323-.4109-.0323-.3447 0-.6525.0723-.9233.217-.2678.1416-.4801.3385-.6371.5909-.1539.2493-.2308.534-.2308.8541v4.4872z" fill="#707880"/><path d="m40.0523 36.1472c-.6402 0-1.2018-.1523-1.685-.457-.4801-.3047-.8556-.731-1.1264-1.2788-.2678-.5478-.4017-1.188-.4017-1.9205 0-.7386.1339-1.3834.4017-1.9343.2708-.5509.6463-.9787 1.1264-1.2833.4832-.3047 1.0448-.4571 1.685-.4571.6401 0 1.2003.1524 1.6804.4571.4832.3046.8587.7324 1.1264 1.2833.2708.5509.4063 1.1957.4063 1.9343 0 .7325-.1355 1.3727-.4063 1.9205-.2677.5478-.6432.9741-1.1264 1.2788-.4801.3047-1.0403.457-1.6804.457zm0-.9787c.4863 0 .8864-.1246 1.2003-.3739s.5463-.5771.6971-.9833c.1508-.4063.2262-.8464.2262-1.3204 0-.4739-.0754-.9156-.2262-1.3249s-.3832-.7402-.6971-.9925c-.3139-.2524-.714-.3786-1.2003-.3786s-.8864.1262-1.2003.3786c-.3139.2523-.5463.5832-.6971.9925s-.2262.851-.2262 1.3249c0 .474.0754.9141.2262 1.3204.1508.4062.3832.734.6971.9833s.714.3739 1.2003.3739z" fill="#707880"/><path d="m44.9284 35.9995v-7.0909h1.0526v1.1079h.0923c.1478-.3785.3863-.6725.7156-.8817.3293-.2124.7248-.3186 1.1864-.3186.4678 0 .8571.1062 1.168.3186.3139.2092.5586.5032.734.8817h.0739c.1816-.3662.4539-.6571.8171-.8725.3632-.2185.7986-.3278 1.3065-.3278.6339 0 1.1525.1985 1.5557.5956.4032.3939.6048 1.0079.6048 1.8419v4.7458h-1.0895v-4.7458c0-.5232-.1431-.8971-.4294-1.1218-.2862-.2246-.6232-.337-1.011-.337-.4985 0-.8848.1508-1.1587.4524-.2739.2986-.4109.6771-.4109 1.1357v4.6165h-1.1079v-4.8566c0-.4031-.1308-.7278-.3924-.974-.2616-.2493-.5986-.374-1.011-.374-.2832 0-.5479.0754-.7941.2262-.2431.1508-.4401.3601-.5909.6279-.1477.2646-.2216.5709-.2216.9186v4.4319z" fill="#707880"/><path d="m57.0213 36.0733c-.2277 0-.4232-.0815-.5863-.2446-.1631-.1632-.2447-.3586-.2447-.5863 0-.2278.0816-.4232.2447-.5863s.3586-.2447.5863-.2447c.2278 0 .4232.0816.5863.2447s.2447.3585.2447.5863c0 .1508-.0385.2893-.1154.4154-.0739.1262-.1739.2278-.3001.3047-.1231.0739-.2616.1108-.4155.1108zm0-5.2628c-.2277 0-.4232-.0815-.5863-.2446s-.2447-.3586-.2447-.5863c0-.2278.0816-.4232.2447-.5863s.3586-.2447.5863-.2447c.2278 0 .4232.0816.5863.2447s.2447.3585.2447.5863c0 .1508-.0385.2893-.1154.4155-.0739.1261-.1739.2277-.3001.3047-.1231.0738-.2616.1107-.4155.1107z" fill="#707880"/><path d="m30.315 77.9091c-.0554-.4678-.2801-.831-.674-1.0895-.394-.2585-.8772-.3878-1.4496-.3878-.4186 0-.7848.0677-1.0987.2031-.3109.1355-.554.3217-.7294.5586-.1724.237-.2585.5063-.2585.8079 0 .2524.06.4694.18.6509.1231.1785.2801.3278.4709.4478.1908.117.3908.2139.6001.2909.2093.0738.4017.1339.5771.18l.9602.2585c.2462.0647.5201.1539.8217.2678.3047.1139.5956.2693.8726.4663.28.1939.5108.4431.6924.7478s.2724.6787.2724 1.1218c0 .5109-.1339.9726-.4016 1.385-.2647.4124-.6525.7402-1.1634.9833-.5078.2431-1.1249.3647-1.8512.3647-.6771 0-1.2634-.1093-1.7589-.3278-.4924-.2185-.8802-.5232-1.1633-.914-.2801-.3909-.4386-.8449-.4755-1.3619h1.1818c.0308.357.1508.6525.3601.8864.2123.2308.4801.4031.8033.517.3262.1108.677.1662 1.0525.1662.437 0 .8294-.0708 1.1772-.2124.3478-.1446.6232-.3447.8264-.6001.2031-.2585.3046-.5601.3046-.9048 0-.3139-.0877-.5694-.2631-.7664-.1754-.1969-.4062-.357-.6925-.4801-.2862-.1231-.5955-.2308-.9279-.3231l-1.1633-.3324c-.7387-.2124-1.3234-.5155-1.7543-.9095-.4309-.3939-.6463-.9094-.6463-1.5465 0-.5293.1431-.991.4293-1.3849.2893-.397.6771-.7048 1.1634-.9233.4893-.2216 1.0356-.3324 1.6388-.3324.6094 0 1.1511.1092 1.625.3278.474.2154.8495.5109 1.1265.8863.28.3755.4278.8018.4431 1.2788z" fill="#707880"/><path d="m37.7556 82.1009v-4.1918h1.0895v7.0909h-1.0895v-1.2003h-.0739c-.1662.3601-.4247.6663-.7755.9187-.3509.2493-.7941.3739-1.3296.3739-.4432 0-.8371-.0969-1.1818-.2908-.3447-.197-.6155-.4924-.8125-.8864-.197-.397-.2955-.8971-.2955-1.5003v-4.5057h1.0895v4.4318c0 .5171.1447.9295.434 1.2372.2924.3078.6648.4617 1.1172.4617.2708 0 .5463-.0693.8263-.2078.2832-.1385.5201-.3508.711-.637.1938-.2863.2908-.651.2908-1.0941z" fill="#707880"/><path d="m40.9883 85v-9.4545h1.0895v3.49h.0923c.08-.1231.1908-.2801.3324-.4709.1446-.1939.3508-.3662.6186-.517.2708-.1539.6371-.2308 1.0987-.2308.5971 0 1.1234.1492 1.5789.4478.4554.2985.8109.7217 1.0664 1.2695.2554.5478.3831 1.1941.3831 1.9389 0 .751-.1277 1.4019-.3831 1.9528-.2555.5478-.6094.9725-1.0618 1.2741-.4524.2986-.9741.4478-1.565.4478-.4555 0-.8202-.0754-1.0941-.2262-.2739-.1539-.4848-.3277-.6325-.5216-.1477-.197-.2616-.3601-.3416-.4894h-.1293v1.0895zm1.071-3.5455c0 .5356.0785 1.008.2354 1.4173.157.4063.3863.7248.6879.9556.3016.2278.6709.3416 1.108.3416.4554 0 .8355-.12 1.1402-.3601.3078-.2431.5386-.5693.6925-.9786.157-.4124.2354-.871.2354-1.3758 0-.4985-.0769-.9479-.2308-1.348-.1508-.4031-.3801-.7217-.6878-.9556-.3047-.237-.6879-.3554-1.1495-.3554-.4432 0-.8156.1123-1.1172.337-.3016.2215-.5294.5324-.6833.9325-.1539.397-.2308.8602-.2308 1.3895z" fill="#707880"/><path d="m48.9148 77.9091h1.0895v7.6079c0 .4371-.0754.8156-.2262 1.1357-.1478.3201-.3724.5678-.6741.7433-.2985.1754-.6755.2631-1.131.2631-.0369 0-.0739 0-.1108 0s-.0738 0-.1108 0v-1.0156h.1016.1015c.3324 0 .5756-.0985.7294-.2955.1539-.1939.2309-.4709.2309-.831zm.5355-1.1818c-.2124 0-.3955-.0724-.5494-.217-.1508-.1447-.2262-.3185-.2262-.5217 0-.2031.0754-.377.2262-.5216.1539-.1447.337-.217.5494-.217.2123 0 .3939.0723.5447.217.1539.1446.2309.3185.2309.5216 0 .2032-.077.377-.2309.5217-.1508.1446-.3324.217-.5447.217z" fill="#707880"/><path d="m54.9727 85.1477c-.6832 0-1.2726-.1508-1.7681-.4524-.4924-.3047-.8725-.7294-1.1402-1.2741-.2647-.5479-.3971-1.1849-.3971-1.9113 0-.7263.1324-1.3664.3971-1.9204.2677-.5571.6401-.991 1.1172-1.3019.4801-.3139 1.0402-.4708 1.6803-.4708.3694 0 .7341.0615 1.0942.1846.36.1231.6878.3232.9833.6002.2954.2739.5309.637.7063 1.0895.1754.4524.2631 1.0094.2631 1.6711v.4617h-5.4659v-.9418h4.358c0-.4001-.08-.7571-.2401-1.071-.1569-.3139-.3816-.5617-.674-.7433-.2893-.1816-.6309-.2723-1.0249-.2723-.4339 0-.8094.1077-1.1264.3231-.3139.2124-.5555.4894-.7248.831-.1692.3416-.2539.7078-.2539 1.0987v.6278c0 .5355.0924.9895.277 1.3619.1878.3693.4478.6509.7802.8448.3324.1908.7186.2862 1.1587.2862.2863 0 .5448-.04.7756-.12.2339-.0831.4355-.2062.6048-.3693.1692-.1662.3-.3724.3924-.6186l1.0525.2954c-.1108.357-.297.671-.5586.9418-.2616.2678-.5847.477-.9694.6278-.3847.1478-.8171.2216-1.2973.2216z" fill="#707880"/><path d="m62.4468 85.1477c-.6647 0-1.2372-.1569-1.7173-.4709-.4801-.3139-.8494-.7463-1.108-1.2972-.2585-.5509-.3877-1.1803-.3877-1.8881 0-.7202.1323-1.3557.397-1.9066.2677-.554.6401-.9864 1.1172-1.2973.4801-.3139 1.0402-.4708 1.6804-.4708.4985 0 .9479.0923 1.348.277.4001.1846.7278.4431.9833.7755.2554.3324.4139.7202.4755 1.1634h-1.0895c-.0831-.3232-.2678-.6094-.554-.8587-.2831-.2524-.6648-.3785-1.1449-.3785-.4247 0-.7971.1108-1.1172.3323-.317.2186-.5647.5279-.7432.928-.1754.397-.2632.8632-.2632 1.3987 0 .5479.0862 1.0249.2586 1.4312.1754.4062.4216.7217.7386.9463.3201.2247.6956.337 1.1264.337.2832 0 .5401-.0492.771-.1477.2308-.0985.4262-.24.5863-.4247.16-.1847.2739-.4063.3416-.6648h1.0895c-.0616.4186-.2139.7956-.4571 1.1311-.24.3323-.5586.597-.9556.794-.3939.1939-.8525.2908-1.3757.2908z" fill="#707880"/><path d="m69.9117 77.9091v.9233h-3.6748v-.9233zm-2.6037-1.6989h1.0895v6.7586c0 .3077.0446.5385.1338.6924.0924.1508.2093.2524.3509.3047.1446.0493.297.0739.457.0739.1201 0 .2185-.0062.2955-.0185.0769-.0154.1385-.0277.1846-.0369l.2216.9787c-.0738.0277-.1769.0554-.3093.0831-.1323.0307-.3.0461-.5032.0461-.3077 0-.6093-.0661-.9048-.1985-.2924-.1323-.5355-.3339-.7294-.6047-.1908-.2709-.2862-.6125-.2862-1.0249z" fill="#707880"/><path d="m72.3446 85.0739c-.2278 0-.4232-.0816-.5863-.2447-.1632-.1631-.2447-.3586-.2447-.5863s.0815-.4232.2447-.5863c.1631-.1631.3585-.2447.5863-.2447.2277 0 .4231.0816.5862.2447.1632.1631.2447.3586.2447.5863 0 .1508-.0385.2893-.1154.4155-.0739.1262-.1739.2277-.3001.3047-.1231.0738-.2616.1108-.4154.1108zm0-5.2628c-.2278 0-.4232-.0816-.5863-.2447-.1632-.1631-.2447-.3585-.2447-.5863 0-.2277.0815-.4232.2447-.5863.1631-.1631.3585-.2447.5863-.2447.2277 0 .4231.0816.5862.2447.1632.1631.2447.3586.2447.5863 0 .1508-.0385.2893-.1154.4155-.0739.1262-.1739.2277-.3001.3047-.1231.0738-.2616.1108-.4154.1108z" fill="#707880"/><path d="m8 55h560v1h-560z" fill="#dfe3e8"/><path d="m8 104h560v1h-560z" fill="#dfe3e8"/><path d="m75 23c-4.4375 0-8 3.5938-8 8 0 4.4375 3.5625 8 8 8 4.4062 0 8-3.5625 8-8 0-4.4062-3.5938-8-8-8zm0 4c1.2188 0 2.25 1.0312 2.25 2.25 0 1.25-1.0312 2.25-2.25 2.25-1.25 0-2.25-1-2.25-2.25 0-1.2188 1-2.25 2.25-2.25zm0 10c-1.6562 0-3.1562-.6562-4.25-1.75.5-1.3125 1.75-2.25 3.25-2.25h2c1.4688 0 2.7188.9375 3.2188 2.25-1.0938 1.0938-2.5938 1.75-4.2188 1.75z" fill="#c7cdd4"/></svg>