<svg fill="none" height="163" viewBox="0 0 183 163" width="183" xmlns="http://www.w3.org/2000/svg" xmlns:xlink="http://www.w3.org/1999/xlink"><filter id="a" color-interpolation-filters="sRGB" filterUnits="userSpaceOnUse" height="152" width="183" x="0" y="0"><feFlood flood-opacity="0" result="BackgroundImageFix"/><feColorMatrix in="SourceAlpha" result="hardAlpha" type="matrix" values="0 0 0 0 0 0 0 0 0 0 0 0 0 0 0 0 0 0 127 0"/><feOffset dy="4"/><feGaussianBlur stdDeviation="6"/><feComposite in2="hardAlpha" operator="out"/><feColorMatrix type="matrix" values="0 0 0 0 0.1152 0 0 0 0 0.1476 0 0 0 0 0.18 0 0 0 0.12 0"/><feBlend in2="BackgroundImageFix" mode="normal" result="effect1_dropShadow_663_3617"/><feColorMatrix in="SourceAlpha" result="hardAlpha" type="matrix" values="0 0 0 0 0 0 0 0 0 0 0 0 0 0 0 0 0 0 127 0"/><feMorphology in="SourceAlpha" operator="dilate" radius="1" result="effect2_dropShadow_663_3617"/><feOffset/><feComposite in2="hardAlpha" operator="out"/><feColorMatrix type="matrix" values="0 0 0 0 0.8736 0 0 0 0 0.8918 0 0 0 0 0.91 0 0 0 1 0"/><feBlend in2="effect1_dropShadow_663_3617" mode="normal" result="effect2_dropShadow_663_3617"/><feBlend in="SourceGraphic" in2="effect2_dropShadow_663_3617" mode="normal" result="shape"/></filter><clipPath id="b"><rect height="128" rx="4" width="159" x="12" y="8"/></clipPath><mask id="c" fill="#fff"><path d="m12 12c0-2.20914 1.7909-4 4-4h151c2.209 0 4 1.79086 4 4v28h-159z" fill="#fff"/></mask><mask id="d" fill="#fff"><path d="m12 40h159v32h-159z" fill="#fff"/></mask><mask id="e" fill="#fff"><path d="m12 72h159v32h-159z" fill="#fff"/></mask><rect fill="#f7f9fa" height="23" rx="3.5" width="107" x="63.5" y="139.5"/><path d="m71.3838 146.188c-1.0527 0-1.8906.859-1.8906 1.89v.988c0 .237-.1075.452-.2578.602l-.9668.967c-.2149.215-.2149.537 0 .73l.9668.989c.1503.15.2578.365.2578.601v.967c0 1.053.8379 1.89 1.8906 1.89h1.0312c.2793 0 .5157-.214.5157-.515 0-.279-.2364-.516-.5157-.516h-1.0312c-.4942 0-.8594-.365-.8594-.859v-.967c0-.494-.2148-.988-.5586-1.332l-.623-.623.623-.602c.3438-.343.5586-.837.5586-1.332v-.988c0-.473.3652-.859.8594-.859h1.0312c.2793 0 .5157-.215.5157-.516 0-.279-.2364-.515-.5157-.515zm5.8437 0h-1.0312c-.3008 0-.5156.236-.5156.515 0 .301.2148.516.5156.516h1.0312c.4727 0 .8594.386.8594.859v.988c0 .495.1934.989.5371 1.332l.6231.602-.6231.623c-.3437.344-.5371.838-.5371 1.332v.967c0 .494-.3867.859-.8594.859h-1.0312c-.3008 0-.5156.237-.5156.516 0 .301.2148.515.5156.515h1.0312c1.0313 0 1.8907-.837 1.8907-1.89v-.967c0-.236.0859-.451.2363-.601l.9883-.989c.1933-.193.1933-.515 0-.709l-.9883-.988c-.1504-.15-.2363-.365-.2363-.602v-.988c0-1.031-.8594-1.89-1.8907-1.89z" fill="#707880"/><g fill="#3a444f"><path d="m85.6953 147.094v8h-1.207v-8z"/><path d="m88.5273 151.531v3.563h-1.1679v-6h1.1211v.976h.0742c.138-.317.3542-.573.6484-.765.2969-.193.6706-.289 1.1211-.289.4089 0 .7669.086 1.0742.257.3073.17.5456.422.7149.758s.2539.752.2539 1.246v3.817h-1.168v-3.676c0-.435-.1133-.775-.3398-1.02-.2266-.247-.5378-.371-.9336-.371-.2709 0-.5117.059-.7227.176-.2083.117-.3737.289-.4961.516-.1198.224-.1797.495-.1797.812z"/><path d="m98.4297 150.559-1.0586.187c-.0443-.135-.1146-.264-.2109-.387-.0938-.122-.2214-.222-.3829-.3-.1614-.079-.3632-.118-.6054-.118-.3308 0-.6068.075-.8281.223-.2214.146-.3321.335-.3321.566 0 .201.0742.362.2227.485.1484.122.388.223.7187.301l.9531.218c.5521.128.9636.325 1.2344.59.2709.266.4063.611.4063 1.035 0 .36-.1042.68-.3125.961-.2058.279-.4935.498-.8633.657-.3672.158-.793.238-1.2773.238-.6719 0-1.2201-.143-1.6446-.43-.4245-.289-.6849-.699-.7812-1.23l1.1289-.172c.0703.294.2148.517.4336.668.2187.148.5039.222.8554.222.3828 0 .6888-.079.918-.238.2292-.161.3438-.358.3438-.59 0-.187-.0704-.345-.211-.472-.138-.128-.3502-.224-.6367-.289l-1.0156-.223c-.5599-.128-.974-.331-1.2422-.609-.2656-.279-.3984-.632-.3984-1.059 0-.354.0989-.664.2968-.93.1979-.265.4714-.472.8203-.621.349-.151.7487-.226 1.1993-.226.6484 0 1.1588.14 1.5312.422.3724.278.6185.652.7383 1.121z"/><path d="m102.417 155.215c-.591 0-1.1-.126-1.527-.379-.425-.255-.753-.613-.9847-1.074-.2292-.464-.3438-1.007-.3438-1.629 0-.615.1146-1.156.3438-1.625.2317-.469.5547-.835.9687-1.098.417-.263.904-.394 1.461-.394.339 0 .667.056.984.168.318.112.603.287.856.527.252.24.452.551.597.934.146.38.219.842.219 1.386v.414h-4.769v-.875h3.625c0-.307-.063-.579-.188-.816-.125-.24-.301-.428-.527-.566-.224-.139-.487-.208-.789-.208-.328 0-.615.081-.86.243-.242.159-.429.367-.562.625-.13.255-.195.532-.195.832v.683c0 .401.07.742.211 1.024.143.281.342.496.597.644.255.146.554.219.895.219.221 0 .423-.031.605-.094.182-.065.34-.161.473-.289.133-.127.234-.285.305-.472l1.105.199c-.089.325-.247.61-.477.855-.226.242-.511.431-.855.567-.341.132-.731.199-1.168.199z"/><path d="m106.287 155.094v-6h1.129v.953h.063c.109-.323.302-.577.578-.762.278-.187.593-.281.945-.281.073 0 .159.003.258.008.101.005.181.011.238.019v1.117c-.047-.013-.13-.027-.25-.043-.12-.018-.24-.027-.359-.027-.276 0-.522.059-.739.176-.213.114-.382.275-.507.48-.125.203-.188.435-.188.696v3.664z"/><path d="m113.664 149.094v.937h-3.277v-.937zm-2.398-1.438h1.168v5.676c0 .227.033.397.101.512.068.112.155.189.262.23.109.039.228.059.355.059.094 0 .176-.007.246-.02.071-.013.125-.023.164-.031l.211.965c-.067.026-.164.052-.289.078-.125.029-.281.044-.468.047-.308.005-.594-.05-.86-.164-.265-.115-.48-.292-.644-.531-.164-.24-.246-.541-.246-.903z"/><path d="m119.613 155.227c-.38 0-.724-.071-1.031-.211-.307-.144-.551-.351-.73-.621-.178-.271-.266-.603-.266-.997 0-.338.065-.617.195-.836.13-.218.306-.391.528-.519.221-.128.468-.224.742-.289.273-.065.552-.115.836-.149.359-.041.651-.075.875-.101.224-.029.386-.074.488-.137.102-.062.152-.164.152-.305v-.027c0-.341-.096-.605-.289-.793-.19-.187-.474-.281-.851-.281-.394 0-.703.087-.93.262-.224.172-.379.363-.465.574l-1.097-.25c.13-.365.32-.659.57-.883.252-.226.543-.391.871-.492.328-.104.673-.156 1.035-.156.24 0 .494.028.762.086.271.054.523.156.758.304.237.149.431.361.582.637.151.273.226.629.226 1.066v3.985h-1.14v-.821h-.047c-.076.151-.189.3-.34.446s-.345.267-.582.363-.521.145-.852.145zm.254-.938c.323 0 .599-.064.828-.191.232-.128.408-.295.528-.5.122-.209.183-.431.183-.668v-.774c-.041.042-.122.081-.242.117-.117.034-.251.064-.402.09-.151.024-.298.046-.442.067-.143.018-.263.034-.359.047-.227.028-.434.076-.621.144-.185.068-.333.165-.445.293-.11.125-.165.292-.165.5 0 .289.107.508.321.656.213.146.485.219.816.219z"/><path d="m126.931 149.094v.937h-3.278v-.937zm-2.399-1.438h1.168v5.676c0 .227.034.397.102.512.067.112.155.189.261.23.11.039.228.059.356.059.094 0 .176-.007.246-.02s.125-.023.164-.031l.211.965c-.068.026-.164.052-.289.078-.125.029-.281.044-.469.047-.307.005-.594-.05-.859-.164-.266-.115-.481-.292-.645-.531-.164-.24-.246-.541-.246-.903z"/><path d="m131.023 149.094v.937h-3.277v-.937zm-2.398-1.438h1.168v5.676c0 .227.034.397.102.512.067.112.154.189.261.23.11.039.228.059.356.059.093 0 .176-.007.246-.02s.125-.023.164-.031l.211.965c-.068.026-.164.052-.289.078-.125.029-.281.044-.469.047-.307.005-.594-.05-.859-.164-.266-.115-.481-.292-.645-.531-.164-.24-.246-.541-.246-.903z"/><path d="m132.315 155.094v-6h1.129v.953h.063c.109-.323.302-.577.578-.762.279-.187.594-.281.945-.281.073 0 .159.003.258.008.102.005.181.011.238.019v1.117c-.047-.013-.13-.027-.25-.043-.119-.018-.239-.027-.359-.027-.276 0-.522.059-.738.176-.214.114-.383.275-.508.48-.125.203-.188.435-.188.696v3.664z"/><path d="m136.537 155.094v-6h1.168v6zm.59-6.926c-.203 0-.378-.068-.523-.203-.144-.138-.215-.302-.215-.492 0-.193.071-.357.215-.493.145-.138.32-.207.523-.207s.376.069.519.207c.146.136.219.3.219.493 0 .19-.073.354-.219.492-.143.135-.316.203-.519.203z"/><path d="m139.37 155.094v-8h1.168v2.972h.07c.068-.125.166-.269.293-.433.128-.164.305-.307.532-.43.226-.125.526-.187.898-.187.484 0 .917.122 1.297.367s.678.597.894 1.058c.219.461.329 1.016.329 1.664 0 .649-.108 1.205-.325 1.668-.216.461-.513.817-.89 1.067-.378.247-.809.371-1.293.371-.365 0-.663-.061-.895-.184-.229-.122-.409-.265-.539-.429s-.23-.31-.301-.438h-.097v.934zm1.145-3c0 .422.061.791.183 1.109.123.318.3.567.531.746.232.177.516.266.852.266.349 0 .641-.093.875-.277.234-.188.412-.442.531-.762.123-.321.184-.681.184-1.082 0-.396-.06-.752-.18-1.067-.117-.315-.294-.563-.531-.746-.234-.182-.527-.273-.879-.273-.338 0-.625.087-.859.262-.232.174-.408.417-.528.73-.119.312-.179.677-.179 1.094z"/><path d="m149.963 152.605v-3.511h1.172v6h-1.149v-1.039h-.062c-.138.32-.36.587-.664.8-.302.211-.679.317-1.129.317-.386 0-.727-.085-1.024-.254-.294-.172-.526-.426-.695-.762-.167-.336-.25-.751-.25-1.246v-3.816h1.168v3.676c0 .408.113.734.34.976.226.242.521.363.883.363.218 0 .436-.054.652-.164.219-.109.4-.274.543-.496.146-.221.217-.502.215-.844z"/><path d="m155.505 149.094v.937h-3.277v-.937zm-2.399-1.438h1.168v5.676c0 .227.034.397.102.512.068.112.155.189.262.23.109.039.228.059.355.059.094 0 .176-.007.246-.02.071-.013.125-.023.164-.031l.211.965c-.067.026-.164.052-.289.078-.125.029-.281.044-.469.047-.307.005-.593-.05-.859-.164-.266-.115-.48-.292-.644-.531-.165-.24-.247-.541-.247-.903z"/><path d="m159.318 155.215c-.591 0-1.1-.126-1.527-.379-.424-.255-.753-.613-.984-1.074-.23-.464-.344-1.007-.344-1.629 0-.615.114-1.156.344-1.625.231-.469.554-.835.968-1.098.417-.263.904-.394 1.461-.394.339 0 .667.056.985.168.317.112.603.287.855.527.253.24.452.551.598.934.146.38.219.842.219 1.386v.414h-4.77v-.875h3.625c0-.307-.062-.579-.187-.816-.125-.24-.301-.428-.528-.566-.224-.139-.487-.208-.789-.208-.328 0-.614.081-.859.243-.242.159-.43.367-.563.625-.13.255-.195.532-.195.832v.683c0 .401.07.742.211 1.024.143.281.342.496.598.644.255.146.553.219.894.219.221 0 .423-.031.606-.094.182-.065.339-.161.472-.289.133-.127.235-.285.305-.472l1.105.199c-.088.325-.247.61-.476.855-.227.242-.512.431-.856.567-.341.132-.73.199-1.168.199z"/></g><rect height="23" rx="3.5" stroke="#dfe3e8" width="107" x="63.5" y="139.5"/><g filter="url(#a)"><g clip-path="url(#b)"><rect fill="#fff" height="128" rx="4" width="159" x="12" y="8"/><path d="m12 12c0-2.20914 1.7909-4 4-4h151c2.209 0 4 1.79086 4 4v28h-159z" fill="#fff"/><g fill="#3a444f"><path d="m24 28.4654v-8.7273h5.4119v1.1335h-4.0951v2.6591h3.7073v1.1293h-3.7073v3.8054z"/><path d="m30.929 28.4654v-6.5455h1.2741v6.5455zm.6434-7.5554c-.2215 0-.4119-.0739-.571-.2216-.1562-.1506-.2344-.3296-.2344-.5369 0-.2103.0782-.3892.2344-.537.1591-.1505.3495-.2258.571-.2258.2216 0 .4106.0753.5668.2258.1591.1478.2386.3267.2386.537 0 .2073-.0795.3863-.2386.5369-.1562.1477-.3452.2216-.5668.2216z"/><path d="m33.9173 28.4654v-6.5455h1.2315v1.0398h.0682c.1193-.3523.3295-.6293.6307-.831.3039-.2045.6477-.3068 1.0312-.3068.0796 0 .1733.0029.2813.0085.1108.0057.1974.0128.2599.0213v1.2188c-.0511-.0142-.142-.0298-.2727-.0469-.1307-.0199-.2614-.0298-.3921-.0298-.3011 0-.5696.0639-.8054.1917-.2329.125-.4176.2998-.5539.5242-.1364.2216-.2046.4744-.2046.7585v3.9972z"/><path d="m43.4276 23.5179-1.1549.2046c-.0483-.1477-.125-.2884-.2301-.4219-.1023-.1335-.2415-.2429-.4176-.3281s-.3963-.1279-.6605-.1279c-.3608 0-.6619.081-.9034.2429-.2415.1591-.3622.3651-.3622.6179 0 .2188.0809.3949.2429.5284.1619.1336.4233.2429.7841.3282l1.0397.2386c.6023.1392 1.0512.3537 1.3466.6435.2955.2897.4432.6662.4432 1.1292 0 .3921-.1136.7415-.3409 1.0483-.2244.304-.5384.5426-.9418.7159-.4005.1733-.865.26-1.3934.26-.733 0-1.331-.1563-1.7941-.4688-.463-.3153-.7471-.7628-.8522-1.3423l1.2315-.1875c.0767.321.2344.5639.473.7287.2386.1619.5497.2429.9332.2429.4177 0 .7515-.0867 1.0015-.26.25-.1761.375-.3906.375-.6434 0-.2046-.0767-.3764-.2302-.5156-.1505-.1392-.3821-.2444-.6946-.3154l-1.1079-.2429c-.6108-.1392-1.0625-.3608-1.3551-.6648-.2898-.3039-.4347-.6889-.4347-1.1548 0-.3863.108-.7244.3239-1.0142s.5142-.5156.8949-.6775c.3806-.1648.8167-.2472 1.3082-.2472.7074 0 1.2642.1534 1.6705.4602.4062.304.6747.7117.8054 1.223z"/><path d="m48.0117 21.9199v1.0227h-3.5753v-1.0227zm-2.6165-1.5682h1.2742v6.1918c0 .2472.0369.4332.1108.5582.0738.1222.169.206.2855.2515.1193.0426.2486.0639.3878.0639.1023 0 .1917-.0071.2684-.0213.0768-.0142.1364-.0256.179-.0341l.2301 1.0525c-.0738.0284-.1789.0569-.3153.0853-.1364.0312-.3068.0483-.5114.0511-.3352.0057-.6477-.054-.9375-.179-.2897-.125-.5241-.3182-.7031-.5795-.179-.2614-.2685-.5895-.2685-.9844z"/><path d="m53.8711 24.579v3.8864h-1.2742v-6.5455h1.2231v1.0654h.0809c.1506-.3466.3864-.625.7074-.8353.3239-.2102.7315-.3153 1.223-.3153.446 0 .8367.0937 1.1719.2812.3352.1847.5952.4603.7798.8267.1847.3665.277.8197.277 1.3594v4.1634h-1.2741v-4.01c0-.4744-.1236-.8451-.3708-1.1122-.2471-.2699-.5866-.4048-1.0184-.4048-.2955 0-.5583.0639-.7884.1917-.2273.1279-.4077.3154-.5412.5625-.1307.2444-.196.5398-.196.8864z"/><path d="m61.6737 28.6103c-.4148 0-.7898-.0767-1.125-.2302-.3353-.1562-.6009-.3821-.7969-.6775-.1932-.2955-.2898-.6577-.2898-1.0867 0-.3693.071-.6733.2131-.9119.142-.2386.3338-.4275.5753-.5667.2414-.1393.5113-.2444.8096-.3154s.6023-.125.9119-.1619c.3921-.0455.7103-.0824.9546-.1108.2443-.0313.4219-.081.5327-.1492.1108-.0681.1662-.1789.1662-.3324v-.0298c0-.3721-.1052-.6605-.3154-.865-.2074-.2046-.517-.3069-.929-.3069-.4289 0-.767.0952-1.0142.2856-.2443.1875-.4133.3963-.5071.6264l-1.1974-.2728c.142-.3977.3494-.7187.6221-.963.2756-.2472.5924-.4262.9503-.537.358-.1136.7344-.1704 1.1293-.1704.2614 0 .5383.0312.831.0937.2954.0597.571.1705.8267.3324.2585.162.4701.3935.6349.6946.1648.2983.2472.6861.2472 1.1634v4.3466h-1.2444v-.8949h-.0511c-.0824.1648-.206.3267-.3707.4858-.1648.1591-.3764.2912-.635.3963-.2585.1051-.5682.1577-.9289.1577zm.2769-1.0228c.3523 0 .6534-.0696.9034-.2088.2529-.1392.4447-.321.5753-.5454.1336-.2273.2003-.4702.2003-.7287v-.8438c-.0454.0455-.1335.0881-.2642.1279-.1278.0369-.2741.0696-.4389.098-.1648.0256-.3253.0497-.4815.0724-.1563.0199-.287.037-.3921.0512-.2471.0312-.473.0838-.6775.1576-.2017.0739-.3637.1804-.4858.3196-.1194.1364-.179.3182-.179.5455 0 .3153.1165.554.3494.7159.233.1591.5298.2386.8906.2386z"/><path d="m66.6009 28.4654v-6.5455h1.223v1.0654h.0809c.1364-.3608.3594-.6421.6691-.8438.3096-.2045.6804-.3068 1.1122-.3068.4375 0 .804.1023 1.0994.3068.2983.2046.5185.4858.6605.8438h.0682c.1563-.3495.4048-.6279.7457-.8353.341-.2102.7472-.3153 1.2188-.3153.5937 0 1.0781.1861 1.4531.5582.3779.3722.5668.9333.5668 1.6833v4.3892h-1.2742v-4.2699c0-.4432-.1207-.7642-.3622-.9631-.2415-.1988-.5298-.2983-.865-.2983-.4148 0-.7373.1279-.9674.3835-.2301.2529-.3451.5782-.3451.9759v4.1719h-1.2699v-4.3509c0-.3551-.1108-.6406-.3324-.8565s-.51-.3239-.8651-.3239c-.2414 0-.4645.0639-.669.1918-.2017.125-.3651.2997-.4901.5241-.1221.2245-.1832.4844-.1832.7799v4.0355z"/><path d="m80.0273 28.5975c-.6448 0-1.2002-.1378-1.6661-.4134-.4631-.2784-.8211-.669-1.0739-1.1718-.25-.5057-.375-1.0981-.375-1.777 0-.6705.125-1.2614.375-1.7728.2528-.5113.6051-.9105 1.0568-1.1974.4546-.2869.9858-.4304 1.5938-.4304.3693 0 .7272.0611 1.0738.1832.3466.1222.6577.314.9333.5753.2755.2614.4929.6009.6519 1.0185.1591.4148.2387.919.2387 1.5128v.4517h-5.2031v-.9546h3.9545c0-.3352-.0682-.6321-.2045-.8906-.1364-.2614-.3282-.4673-.5753-.6179-.2443-.1506-.5313-.2258-.8608-.2258-.358 0-.6705.088-.9375.2642-.2642.1733-.4688.4005-.6137.6818-.142.2784-.213.5809-.213.9076v.7458c0 .4375.0767.8096.2301 1.1165.1562.3068.3736.5412.652.7031.2784.1591.6037.2386.9758.2386.2415 0 .4617-.0341.6605-.1023.1989-.071.3708-.1761.5157-.3153s.2556-.3111.3324-.5156l1.2059.2173c-.0966.3551-.2699.6662-.5199.9333-.2471.2642-.5582.4701-.9332.6178-.3722.1449-.7969.2174-1.2742.2174z"/></g><path d="m12 8h159zm159 33h-159v-2h159zm-159-1v-32zm159-32v32z" fill="#dfe3e8" mask="url(#c)"/><path d="m12 40h159v32h-159z" fill="#fff"/><g fill="#3a444f"><path d="m24 60.2917v-8.7272h1.3168v7.5937h3.9545v1.1335z"/><path d="m32.576 60.4366c-.4148 0-.7898-.0767-1.125-.2301-.3352-.1563-.6009-.3821-.7969-.6776-.1932-.2954-.2898-.6576-.2898-1.0866 0-.3693.0711-.6733.2131-.9119.1421-.2387.3338-.4276.5753-.5668s.5114-.2443.8097-.3153c.2983-.0711.6022-.125.9119-.162.392-.0454.7102-.0824.9545-.1108.2444-.0312.4219-.0809.5327-.1491s.1662-.179.1662-.3324v-.0298c0-.3722-.1051-.6605-.3153-.8651-.2074-.2045-.5171-.3068-.929-.3068-.429 0-.7671.0952-1.0142.2855-.2443.1875-.4134.3963-.5071.6264l-1.1975-.2727c.1421-.3977.3495-.7188.6222-.9631.2756-.2471.5923-.4261.9503-.5369.3579-.1136.7343-.1705 1.1292-.1705.2614 0 .5384.0313.831.0938.2955.0597.571.1704.8267.3324.2585.1619.4702.3934.6349.6946.1648.2983.2472.6861.2472 1.1633v4.3466h-1.2443v-.8949h-.0511c-.0824.1648-.206.3267-.3708.4858s-.3764.2912-.6349.3963c-.2586.1052-.5682.1577-.929.1577zm.277-1.0227c.3523 0 .6534-.0696.9034-.2088.2528-.1392.4446-.321.5753-.5455.1335-.2272.2003-.4701.2003-.7287v-.8437c-.0455.0454-.1336.088-.2642.1278-.1279.037-.2742.0696-.439.098-.1647.0256-.3252.0497-.4815.0725-.1562.0199-.2869.0369-.392.0511-.2472.0313-.4731.0838-.6776.1577-.2017.0738-.3636.1804-.4858.3196-.1193.1363-.179.3182-.179.5454 0 .3154.1165.554.3495.7159.2329.1591.5298.2387.8906.2387z"/><path d="m42.408 55.3443-1.1548.2045c-.0483-.1477-.125-.2883-.2301-.4218-.1023-.1336-.2415-.2429-.4176-.3282-.1762-.0852-.3963-.1278-.6605-.1278-.3608 0-.662.081-.9035.2429-.2414.1591-.3622.365-.3622.6179 0 .2187.081.3949.2429.5284.162.1335.4233.2429.7841.3281l1.0398.2387c.6023.1392 1.0511.3536 1.3466.6434.2954.2898.4432.6662.4432 1.1293 0 .392-.1137.7415-.3409 1.0483-.2245.304-.5384.5426-.9418.7159-.4006.1733-.8651.2599-1.3935.2599-.7329 0-1.3309-.1562-1.794-.4687-.4631-.3154-.7472-.7628-.8523-1.3424l1.2316-.1875c.0767.3211.2343.564.473.7287.2386.162.5497.2429.9332.2429.4176 0 .7514-.0866 1.0014-.2599.25-.1761.375-.3906.375-.6435 0-.2045-.0767-.3764-.2301-.5156-.1506-.1392-.3821-.2443-.6946-.3153l-1.1079-.2429c-.6108-.1392-1.0625-.3608-1.3552-.6648-.2897-.304-.4346-.6889-.4346-1.1548 0-.3864.1079-.7245.3238-1.0142.216-.2898.5143-.5157.8949-.6776.3807-.1648.8168-.2472 1.3083-.2472.7074 0 1.2642.1535 1.6704.4603.4063.3039.6747.7116.8054 1.223z"/><path d="m46.9922 53.7463v1.0227h-3.5753v-1.0227zm-2.6165-1.5682h1.2742v6.1918c0 .2471.0369.4332.1108.5582.0738.1221.169.206.2855.2514.1193.0426.2485.0639.3877.0639.1023 0 .1918-.0071.2685-.0213s.1364-.0255.179-.0341l.2301 1.0526c-.0739.0284-.179.0568-.3153.0852-.1364.0313-.3069.0483-.5114.0512-.3352.0056-.6477-.054-.9375-.179s-.5241-.3182-.7031-.5796c-.179-.2613-.2685-.5895-.2685-.9843z"/><path d="m52.8516 56.4054v3.8863h-1.2742v-6.5454h1.223v1.0653h.081c.1506-.3466.3864-.625.7074-.8352.3238-.2102.7315-.3154 1.223-.3154.446 0 .8366.0938 1.1719.2813.3352.1847.5951.4602.7798.8267s.277.8196.277 1.3594v4.1633h-1.2742v-4.0099c0-.4744-.1235-.8452-.3707-1.1122-.2472-.2699-.5867-.4049-1.0185-.4049-.2954 0-.5582.064-.7883.1918-.2273.1278-.4077.3153-.5412.5625-.1307.2443-.196.5398-.196.8864z"/><path d="m60.6541 60.4366c-.4148 0-.7898-.0767-1.125-.2301-.3352-.1563-.6008-.3821-.7969-.6776-.1931-.2954-.2897-.6576-.2897-1.0866 0-.3693.071-.6733.213-.9119.1421-.2387.3339-.4276.5753-.5668.2415-.1392.5114-.2443.8097-.3153.2983-.0711.6023-.125.9119-.162.3921-.0454.7102-.0824.9546-.1108.2443-.0312.4218-.0809.5326-.1491s.1662-.179.1662-.3324v-.0298c0-.3722-.1051-.6605-.3153-.8651-.2074-.2045-.5171-.3068-.929-.3068-.429 0-.767.0952-1.0142.2855-.2443.1875-.4133.3963-.5071.6264l-1.1974-.2727c.142-.3977.3494-.7188.6221-.9631.2756-.2471.5923-.4261.9503-.5369.358-.1136.7344-.1705 1.1293-.1705.2613 0 .5383.0313.8309.0938.2955.0597.5711.1704.8267.3324.2586.1619.4702.3934.635.6946.1648.2983.2471.6861.2471 1.1633v4.3466h-1.2443v-.8949h-.0511c-.0824.1648-.206.3267-.3708.4858-.1647.1591-.3764.2912-.6349.3963-.2585.1052-.5682.1577-.929.1577zm.277-1.0227c.3523 0 .6534-.0696.9034-.2088.2529-.1392.4446-.321.5753-.5455.1335-.2272.2003-.4701.2003-.7287v-.8437c-.0455.0454-.1335.088-.2642.1278-.1279.037-.2742.0696-.4389.098-.1648.0256-.3253.0497-.4816.0725-.1562.0199-.2869.0369-.392.0511-.2472.0313-.473.0838-.6776.1577-.2017.0738-.3636.1804-.4858.3196-.1193.1363-.1789.3182-.1789.5454 0 .3154.1164.554.3494.7159.2329.1591.5298.2387.8906.2387z"/><path d="m65.5813 60.2917v-6.5454h1.223v1.0653h.081c.1364-.3608.3594-.642.669-.8437.3097-.2046.6804-.3069 1.1122-.3069.4375 0 .804.1023 1.0995.3069.2983.2045.5184.4858.6605.8437h.0682c.1562-.3494.4048-.6278.7457-.8352.3409-.2102.7472-.3154 1.2188-.3154.5937 0 1.0781.1861 1.4531.5583.3778.3721.5667.9332.5667 1.6832v4.3892h-1.2741v-4.2699c0-.4431-.1207-.7642-.3622-.963-.2415-.1989-.5298-.2983-.8651-.2983-.4147 0-.7372.1278-.9673.3835-.2301.2528-.3452.5781-.3452.9759v4.1718h-1.2699v-4.3508c0-.3551-.1108-.6407-.3323-.8566-.2216-.2159-.51-.3238-.8651-.3238-.2415 0-.4645.0639-.669.1917-.2017.125-.3651.2998-.4901.5242-.1222.2244-.1832.4844-.1832.7798v4.0355z"/><path d="m79.0078 60.4238c-.6449 0-1.2003-.1378-1.6662-.4133-.463-.2784-.821-.6691-1.0738-1.1719-.25-.5057-.375-1.098-.375-1.777 0-.6704.125-1.2614.375-1.7727.2528-.5114.6051-.9105 1.0568-1.1975.4545-.2869.9858-.4304 1.5937-.4304.3693 0 .7273.0611 1.0739.1833.3466.1221.6577.3139.9332.5753.2756.2613.4929.6008.652 1.0184.1591.4148.2387.9191.2387 1.5128v.4517h-5.2032v-.9545h3.9546c0-.3353-.0682-.6321-.2046-.8906-.1363-.2614-.3281-.4674-.5753-.6179-.2443-.1506-.5312-.2259-.8608-.2259-.3579 0-.6704.0881-.9375.2642-.2642.1733-.4687.4006-.6136.6818-.142.2784-.2131.581-.2131.9077v.7457c0 .4375.0767.8097.2302 1.1165.1562.3068.3735.5412.6519.7031.2785.1591.6037.2387.9759.2387.2415 0 .4616-.0341.6605-.1023.1989-.071.3707-.1761.5156-.3153s.2557-.3111.3324-.5157l1.206.2174c-.0966.3551-.2699.6662-.5199.9332-.2472.2642-.5582.4702-.9332.6179-.3722.1449-.7969.2173-1.2742.2173z"/></g><path d="m171 71h-159v2h159z" fill="#dfe3e8" mask="url(#d)"/><path d="m12 72h159v32h-159z" fill="#fff"/><path d="m31.5298 85.307h-1.3295c-.0512-.2841-.1463-.5341-.2855-.75s-.3097-.3992-.5114-.5497c-.2017-.1506-.4275-.2642-.6775-.3409-.2472-.0767-.51-.1151-.7884-.1151-.5028 0-.9531.1264-1.3509.3793-.3948.2528-.7073.6236-.9375 1.1122-.2272.4886-.3409 1.0852-.3409 1.7898 0 .7102.1137 1.3096.3409 1.7983.2302.4886.5441.8579.9418 1.1079s.8452.375 1.3423.375c.2756 0 .537-.0369.7841-.1108.25-.0767.4759-.1889.6776-.3366.2017-.1478.3721-.3282.5113-.5412.1421-.2159.2401-.4631.2941-.7415l1.3295.0043c-.071.4289-.2088.8238-.4133 1.1846-.2017.358-.4617.6676-.7799.929-.3153.2585-.6761.4588-1.0823.6009-.4063.142-.8495.213-1.3296.213-.7557 0-1.429-.179-2.0199-.5369-.5909-.3608-1.0568-.8764-1.3977-1.5469-.3381-.6704-.5071-1.4702-.5071-2.3991 0-.9319.1705-1.7316.5114-2.3992.3409-.6704.8068-1.1846 1.3977-1.5426.5909-.3608 1.2628-.5412 2.0156-.5412.4631 0 .8949.0668 1.2955.2003.4034.1307.7656.3239 1.0866.5795.321.2529.5867.5625.7969.929.2102.3637.3523.7798.4261 1.2486z" fill="#3a444f"/><path d="m35.7603 91.3283c-.6136 0-1.1491-.1406-1.6065-.4219-.4574-.2812-.8125-.6747-1.0654-1.1804-.2528-.5057-.3792-1.0966-.3792-1.7727 0-.679.1264-1.2727.3792-1.7812.2529-.5086.608-.9035 1.0654-1.1847.4574-.2813.9929-.4219 1.6065-.4219s1.1491.1406 1.6065.4219c.4574.2812.8125.6761 1.0654 1.1847.2528.5085.3792 1.1022.3792 1.7812 0 .6761-.1264 1.267-.3792 1.7727-.2529.5057-.608.8992-1.0654 1.1804-.4574.2813-.9929.4219-1.6065.4219zm.0043-1.0696c.3977 0 .7272-.1051.9886-.3153.2614-.2103.4545-.4901.5795-.8395.1279-.3495.1918-.7344.1918-1.1549 0-.4176-.0639-.8011-.1918-1.1505-.125-.3523-.3181-.635-.5795-.848-.2614-.2131-.5909-.3196-.9886-.3196-.4006 0-.733.1065-.9972.3196-.2614.213-.456.4957-.5838.848-.125.3494-.1875.7329-.1875 1.1505 0 .4205.0625.8054.1875 1.1549.1278.3494.3224.6292.5838.8395.2642.2102.5966.3153.9972.3153z" fill="#3a444f"/><path d="m40.2337 91.1962v-6.5455h1.223v1.0654h.0809c.1364-.3608.3594-.6421.6691-.8438.3096-.2045.6804-.3068 1.1122-.3068.4375 0 .804.1023 1.0994.3068.2983.2046.5185.4858.6605.8438h.0682c.1563-.3494.4048-.6279.7458-.8352.3409-.2103.7471-.3154 1.2187-.3154.5938 0 1.0781.1861 1.4531.5583.3779.3721.5668.9332.5668 1.6832v4.3892h-1.2742v-4.2699c0-.4432-.1207-.7642-.3622-.9631-.2414-.1988-.5298-.2982-.865-.2982-.4148 0-.7372.1278-.9674.3835-.2301.2528-.3451.5781-.3451.9758v4.1719h-1.2699v-4.3509c0-.3551-.1108-.6406-.3324-.8565s-.5099-.3238-.8651-.3238c-.2414 0-.4644.0639-.669.1917-.2017.125-.365.2997-.49.5242-.1222.2244-.1833.4843-.1833.7798v4.0355z" fill="#3a444f"/><path d="m50.8391 93.6507v-9h1.2444v1.0611h.1065c.0738-.1363.1804-.294.3196-.473s.3324-.3352.5795-.4687c.2472-.1364.5739-.2046.9801-.2046.5285 0 1 .1335 1.4148.4006.4148.267.7401.652.9759 1.1548.2386.5029.3579 1.108.3579 1.8154 0 .7073-.1179 1.3139-.3537 1.8196-.2358.5028-.5596.8906-.9716 1.1633-.4119.2699-.8821.4048-1.4105.4048-.3977 0-.723-.0667-.9758-.2002-.25-.1336-.446-.2898-.5881-.4688-.142-.179-.2514-.3381-.3281-.4773h-.0767v3.473zm1.2486-5.7272c0 .4602.0668.8636.2003 1.2102s.3267.6179.5795.8139c.2529.1932.5625.2898.929.2898.3807 0 .6989-.1009.9546-.3026.2556-.2045.4488-.4815.5795-.8309.1335-.3495.2003-.7429.2003-1.1804 0-.4318-.0653-.8196-.196-1.1634-.1279-.3437-.3211-.615-.5796-.8139-.2557-.1989-.5753-.2983-.9588-.2983-.3693 0-.6818.0952-.9375.2855-.2528.1904-.4446.456-.5753.7969-.1306.3409-.196.7386-.196 1.1932z" fill="#3a444f"/><path d="m60.1502 91.3411c-.4148 0-.7898-.0767-1.125-.2301-.3352-.1563-.6008-.3821-.7969-.6776-.1931-.2954-.2897-.6577-.2897-1.0866 0-.3693.071-.6733.213-.912.1421-.2386.3338-.4275.5753-.5667s.5114-.2443.8097-.3154c.2983-.071.6023-.125.9119-.1619.3921-.0455.7102-.0824.9546-.1108.2443-.0312.4218-.081.5326-.1491.1108-.0682.1662-.179.1662-.3324v-.0299c0-.3721-.1051-.6605-.3153-.865-.2074-.2046-.5171-.3068-.929-.3068-.429 0-.767.0951-1.0142.2855-.2443.1875-.4134.3963-.5071.6264l-1.1974-.2727c.142-.3978.3494-.7188.6221-.9631.2756-.2472.5923-.4261.9503-.5369.358-.1137.7344-.1705 1.1293-.1705.2613 0 .5383.0313.8309.0938.2955.0596.571.1704.8267.3324.2585.1619.4702.3934.635.6946.1647.2983.2471.686.2471 1.1633v4.3466h-1.2443v-.8949h-.0511c-.0824.1648-.206.3267-.3708.4858-.1647.1591-.3764.2912-.6349.3963s-.5682.1577-.929.1577zm.277-1.0227c.3523 0 .6534-.0696.9034-.2088.2529-.1393.4446-.3211.5753-.5455.1335-.2273.2003-.4702.2003-.7287v-.8437c-.0455.0454-.1335.088-.2642.1278-.1279.0369-.2742.0696-.4389.098-.1648.0256-.3253.0497-.4816.0725-.1562.0198-.2869.0369-.392.0511-.2472.0312-.473.0838-.6776.1577-.2017.0738-.3636.1804-.4858.3196-.1193.1363-.179.3181-.179.5454 0 .3154.1165.554.3495.7159.2329.1591.5298.2387.8906.2387z" fill="#3a444f"/><path d="m66.3516 87.3098v3.8864h-1.2742v-6.5455h1.223v1.0654h.081c.1506-.3466.3864-.625.7074-.8352.3238-.2103.7315-.3154 1.223-.3154.446 0 .8366.0938 1.1719.2813.3352.1846.5951.4602.7798.8267s.277.8196.277 1.3593v4.1634h-1.2742v-4.0099c0-.4745-.1235-.8452-.3707-1.1123-.2472-.2698-.5866-.4048-1.0185-.4048-.2954 0-.5582.0639-.7883.1918-.2273.1278-.4077.3153-.5412.5625-.1307.2443-.196.5397-.196.8863z" fill="#3a444f"/><path d="m72.8203 93.6507c-.1903 0-.3636-.0156-.5199-.0468-.1562-.0284-.2727-.0597-.3494-.0938l.3068-1.044c.233.0625.4404.0895.6222.081.1818-.0086.3423-.0768.4815-.2046.1421-.1278.2671-.3366.375-.6264l.1577-.4347-2.3949-6.6307h1.3636l1.6577 5.0796h.0682l1.6577-5.0796h1.3678l-2.6974 7.4191c-.125.3409-.2841.6292-.4773.865-.1931.2387-.4233.4177-.6903.537-.2671.1193-.5767.1789-.929.1789z" fill="#3a444f"/><path d="m171 103h-159v2h159z" fill="#dfe3e8" mask="url(#e)"/><path d="m0 0h159v32h-159z" fill="#fff" transform="translate(12 104)"/><path d="m24 124.473v-8.727h3.1108c.679 0 1.2415.123 1.6875.371.446.247.7798.585 1.0014 1.014.2216.426.3324.906.3324 1.44 0 .537-.1122 1.02-.3366 1.449-.2216.426-.5569.764-1.0057 1.014-.446.247-1.0071.371-1.6833.371h-2.1392v-1.116h2.0199c.429 0 .777-.074 1.044-.222.2671-.151.4631-.355.5881-.614.125-.258.1875-.552.1875-.882 0-.329-.0625-.622-.1875-.878-.125-.255-.3224-.456-.5923-.6-.2671-.145-.6193-.218-1.0568-.218h-1.6534v7.598z" fill="#3a444f"/><path d="m34.2486 124.605c-.6137 0-1.1492-.14-1.6066-.422-.4573-.281-.8125-.674-1.0653-1.18s-.3793-1.097-.3793-1.773c0-.679.1265-1.272.3793-1.781.2528-.508.608-.903 1.0653-1.185.4574-.281.9929-.421 1.6066-.421.6136 0 1.1491.14 1.6065.421.4574.282.8125.677 1.0654 1.185.2528.509.3792 1.102.3792 1.781 0 .676-.1264 1.267-.3792 1.773-.2529.506-.608.899-1.0654 1.18-.4574.282-.9929.422-1.6065.422zm.0042-1.069c.3978 0 .7273-.105.9887-.316.2613-.21.4545-.49.5795-.839.1279-.35.1918-.735.1918-1.155 0-.418-.0639-.801-.1918-1.151-.125-.352-.3182-.634-.5795-.848-.2614-.213-.5909-.319-.9887-.319-.4005 0-.7329.106-.9971.319-.2614.214-.456.496-.5838.848-.125.35-.1875.733-.1875 1.151 0 .42.0625.805.1875 1.155.1278.349.3224.629.5838.839.2642.211.5966.316.9971.316z" fill="#3a444f"/><path d="m43.6268 119.526-1.1549.204c-.0482-.147-.125-.288-.2301-.422-.1022-.133-.2414-.242-.4176-.328-.1761-.085-.3963-.128-.6605-.128-.3608 0-.6619.081-.9034.243-.2415.159-.3622.365-.3622.618 0 .219.0809.395.2429.529.1619.133.4233.243.7841.328l1.0397.238c.6023.14 1.0512.354 1.3466.644.2955.29.4432.666.4432 1.129 0 .392-.1136.742-.3409 1.048-.2244.304-.5383.543-.9418.716-.4005.174-.865.26-1.3934.26-.733 0-1.331-.156-1.7941-.468-.463-.316-.7471-.763-.8522-1.343l1.2315-.187c.0767.321.2344.564.473.728.2387.162.5497.243.9333.243.4176 0 .7514-.086 1.0014-.26.25-.176.375-.39.375-.643 0-.205-.0767-.377-.2301-.516-.1506-.139-.3821-.244-.6946-.315l-1.108-.243c-.6108-.139-1.0625-.361-1.3551-.665-.2898-.304-.4347-.689-.4347-1.155 0-.386.108-.724.3239-1.014s.5142-.515.8949-.677c.3807-.165.8167-.247 1.3082-.247.7074 0 1.2642.153 1.6705.46.4062.304.6747.711.8054 1.223z" fill="#3a444f"/><path d="m45.1555 124.473v-6.545h1.2742v6.545zm.6435-7.555c-.2216 0-.4119-.074-.571-.222-.1563-.15-.2344-.329-.2344-.537 0-.21.0781-.389.2344-.537.1591-.15.3494-.226.571-.226s.4105.076.5668.226c.1591.148.2386.327.2386.537 0 .208-.0795.387-.2386.537-.1563.148-.3452.222-.5668.222z" fill="#3a444f"/><path d="m51.1992 117.928v1.022h-3.5753v-1.022zm-2.6165-1.568h1.2742v6.191c0 .247.0369.434.1108.559.0738.122.169.206.2855.251.1193.043.2486.064.3878.064.1023 0 .1917-.007.2684-.021.0768-.015.1364-.026.179-.035l.2301 1.053c-.0738.028-.1789.057-.3153.085-.1364.032-.3068.049-.5114.051-.3352.006-.6477-.054-.9375-.179-.2897-.125-.5241-.318-.7031-.579s-.2685-.59-.2685-.984z" fill="#3a444f"/><path d="m52.6087 124.473v-6.545h1.2741v6.545zm.6434-7.555c-.2216 0-.4119-.074-.571-.222-.1562-.15-.2344-.329-.2344-.537 0-.21.0782-.389.2344-.537.1591-.15.3494-.226.571-.226s.4105.076.5668.226c.1591.148.2386.327.2386.537 0 .208-.0795.387-.2386.537-.1563.148-.3452.222-.5668.222z" fill="#3a444f"/><path d="m58.354 124.605c-.6136 0-1.1491-.14-1.6065-.422-.4574-.281-.8125-.674-1.0653-1.18-.2529-.506-.3793-1.097-.3793-1.773 0-.679.1264-1.272.3793-1.781.2528-.508.6079-.903 1.0653-1.185.4574-.281.9929-.421 1.6065-.421.6137 0 1.1492.14 1.6066.421.4574.282.8125.677 1.0653 1.185.2529.509.3793 1.102.3793 1.781 0 .676-.1264 1.267-.3793 1.773-.2528.506-.6079.899-1.0653 1.18-.4574.282-.9929.422-1.6066.422zm.0043-1.069c.3977 0 .7273-.105.9886-.316.2614-.21.4546-.49.5796-.839.1278-.35.1918-.735.1918-1.155 0-.418-.064-.801-.1918-1.151-.125-.352-.3182-.634-.5796-.848-.2613-.213-.5909-.319-.9886-.319-.4006 0-.7329.106-.9971.319-.2614.214-.456.496-.5839.848-.125.35-.1875.733-.1875 1.151 0 .42.0625.805.1875 1.155.1279.349.3225.629.5839.839.2642.211.5965.316.9971.316z" fill="#3a444f"/><path d="m64.1016 120.587v3.886h-1.2742v-6.545h1.223v1.065h.081c.1506-.347.3864-.625.7074-.835.3238-.21.7315-.315 1.223-.315.446 0 .8366.093 1.1719.281.3352.184.5951.46.7798.826.1847.367.277.82.277 1.36v4.163h-1.2742v-4.01c0-.474-.1235-.845-.3707-1.112-.2472-.27-.5866-.405-1.0185-.405-.2954 0-.5582.064-.7883.192-.2273.128-.4077.315-.5412.562-.1307.245-.196.54-.196.887z" fill="#3a444f"/></g></g></svg>