<svg fill="none" height="840" viewBox="0 0 800 840" width="800" xmlns="http://www.w3.org/2000/svg"><path clip-rule="evenodd" d="m-160-48.0625c3.681 2.5643 7.345 5.1241 11.011 7.6855.08 10.3667 2.679 21.417 8.067 33.23088l.031.06855.064.04616c9.242 6.660506 18.322 13.2858 27.323 19.89231.091 9.758 1.984 20.0045 5.874 30.7945l.027.0751.07.0545c9.9292 7.5454 19.7064 15.0561 29.3159 22.5268.0013 9.0332 1.2327 18.3977 3.8824 28.1447l.0223.0833.0721.0584c10.5449 8.5228 20.8357 16.9838 30.9946 25.4148-.132 8.183.5679 16.589 2.2067 25.246l.0165.088.0733.065c11.0629 9.609 21.8249 19.148 32.39675 28.642-.27317 7.191-.03005 14.52.81064 22.007l.01002.094.07293.069c11.45884 10.854 22.59696 21.634 33.45886 32.347-.3847 6.019-.4927 12.11-.2437 18.295l.0034.094.0696.072c11.7434 12.374 23.0633 24.644 34.0573 36.835-.4186 4.566-.7047 9.163-.8311 13.803l-.0021.093.062.074c11.8512 14.281 23.2181 28.439 34.1147 42.481-.3296 2.711-.6266 5.428-.8753 8.158l-.007.087.0521.078c11.7321 16.869 22.8291 33.579 33.3381 50.139-.026.167-.056.335-.081.503l-.012.08.04.071c20.856 38.443 38.785 76.135 54.273 113.088 10.309 33.511 18.917 66.5 26.161 98.963 2.583 28.622 4.43 56.916 5.756 84.874-1.886 17.401-3.811 34.707-5.724 51.92-.826 7.42-1.646 14.817-2.463 22.204-92.246 315.857-100.427 613.647 213.163 820.857l.982-.04c-312.685-206.27-305.808-502.56-214.558-817.084-35.706 323.174-58.837 609.794 252.441 815.424l.976-.04c-312.797-206.27-288.306-494.29-252.371-818.989 2.988-10.234 6.089-20.494 9.248-30.767 1.511 49.05 1.762 97.007 2.006 143.799 1.475 282.167 2.746 522.047 278.924 704.297l.997-.04c-276.523-182.16-277.803-422.04-279.277-704.249-.248-47.401-.503-95.993-2.066-145.706 3.218-10.435 6.49-20.886 9.862-31.354 13.704 88.032 19.462 171.923 24.927 251.619 17.265 251.69 31.719 461.57 284.411 628.04l.987-.05c-253.034-166.4-267.488-376.28-284.757-628.011-5.494-80.094-11.281-164.424-25.134-252.935 3.38-10.468 6.853-20.954 10.37-31.449 31.54 118.4 43.181 228.459 53.99 330.655 24.523 231.87 44.794 423.31 283.294 580.09l.997-.04c-238.846-156.73-259.124-348.17-283.651-580.08-10.842-102.509-22.519-212.915-54.261-331.719 3.533-10.522 7.108-21.056 10.763-31.596 52.604 144.023 69.311 274.734 84.531 393.815 27.889 218.23 50.806 397.41 280.385 547.93l.982-.05c-229.925-150.47-252.836-329.66-280.727-547.93-15.252-119.327-31.999-250.333-84.847-394.708 3.646-10.523 7.371-21.057 11.121-31.595 75.66 166.636 96.43 314.478 115.027 447.013 29.26 208.52 53.245 379.17 277.226 525.57l.986-.04c-224.328-146.37-248.309-317.02-277.577-525.59-18.626-132.741-39.432-280.845-115.36-447.802 3.764-10.558 7.563-21.125 11.41-31.69 100.056 187.269 123.915 349.881 144.984 493.662 29.519 201.47 53.673 366.02 274.313 509.77l.99-.05c-220.989-143.72-245.143-308.26-274.669-509.77-21.096-143.981-44.988-306.824-145.333-494.4 3.853-10.576 7.754-21.154 11.672-31.732 125.386 206.496 151.468 382.171 174.244 535.702 29.123 196.3 52.925 356.43 271.838 498.55l.994-.04c-219.262-142.1-243.064-302.23-272.193-498.56-22.803-153.714-48.925-329.607-174.608-536.39 3.926-10.589 7.88-21.182 11.859-31.773 151.369 224.673 178.986 412.162 202.848 574.373 28.315 192.51 51.446 349.43 269.839 490.7l.997-.05c-218.746-141.25-241.876-298.17-270.202-490.71-23.882-162.37-51.531-350.069-203.215-575.021 3.988-10.621 8.002-21.241 12.027-31.857 177.885 242.094 206.396 440.445 230.821 610.538 27.251 189.78 49.505 344.41 268.31 485.4l.997-.04c-219.161-140.98-241.414-295.6-268.669-485.41-24.449-170.253-52.991-368.806-231.205-611.165 4.039-10.637 8.081-21.271 12.131-31.895 204.776 258.889 233.71 467.365 258.277 644.76 26.014 187.85 47.251 340.88 267.2 482.06l1.001-.04c-220.309-141.17-241.546-294.19-267.563-482.08-24.586-177.538-53.552-386.21-258.663-645.361 3.321-8.714 6.646-17.422 9.968-26.124l2.25-5.898c232.044 275.252 260.909 493.277 285.262 677.523 24.66 186.58 44.79 338.55 266.476 480.29l1.005-.05c-222.051-141.72-242.18-293.69-266.842-480.29-24.373-184.396-53.261-402.61-285.655-678.123 4.093-10.722 8.179-21.435 12.253-32.133 259.638 291.267 288.036 518.374 311.878 709.136 23.223 185.82 42.184 337.18 266.096 479.76l1.001-.04c-224.277-142.58-243.233-293.92-266.458-479.76-23.861-190.912-52.286-418.204-312.278-709.729 4.091-10.746 8.165-21.485 12.218-32.202 287.451 306.967 315.151 542.791 338.231 739.781 21.73 185.48 39.475 336.58 266.014 480.26l1.004-.04c-226.91-143.68-244.646-294.76-266.379-480.26-23.095-197.134-50.822-433.143-338.636-740.364 4.086-10.806 8.14-21.597 12.167-32.366 315.573 322.48 342.269 566.72 364.373 769.73 19.657 180.53 35.809 328.49 248.21 469.93l-.061-.73c-211.755-141.22-227.883-288.99-247.51-469.24-22.115-203.15-48.834-447.576-364.782-770.31 4.063-10.867 8.087-21.717 12.069-32.541 344.012 337.849 369.436 590.269 390.382 799.141 16.905 168.58 31.011 308.84 207.338 442.78l-.065-.79c-175.673-133.71-189.756-273.74-206.633-442.03-20.961-209.009-46.401-461.608-390.795-799.714 4.02-10.942 7.995-21.859 11.917-32.75 372.798 353.139 396.704 613.542 416.335 828.144 14.194 155.19 26.242 286.45 166.287 411.52l-.073-.87c-139.383-124.82-151.411-255.83-165.577-410.68-19.643-214.742-43.56-475.328-416.752-828.725 3.966-11.02 7.872-22.013 11.715-32.977 401.964 368.384 424.128 636.623 442.305 856.862 11.502 139.33 21.447 259.47 124.831 373.6l-.085-1.02c-102.708-113.83-112.636-233.67-124.105-372.6-18.189-220.386-40.364-488.808-442.73-857.453 3.884-11.091 7.7-22.153 11.435-33.18 431.453 383.59 451.795 659.55 468.399 885.343 8.735 118.8 16.486 223.72 82.458 323.13l-.107-1.3c-65.295-99.03-73.013-203.55-81.71-321.85-16.615-225.934-36.977-502.083-468.834-885.925 3.788-11.186 7.492-22.336 11.107-33.448 461.347 398.806 479.755 682.411 494.677 913.703 5.513 85.47 10.591 163.8 37.346 238.17l-.204-2.46c-26.033-73.64-31.05-151.19-36.5-235.74-14.931-231.423-33.358-515.214-495.121-914.276 3.669-11.301 7.239-22.561 10.703-33.779 297.723 250.705 421.156 456.348 475.15 632.148l-.242-2.926c-54.476-175.313-178.264-380.254-474.721-629.83 18.931-61.3618 34.612-121.42972 45.117-179.615.923-2.7777 1.833-5.5534 2.732-8.3227l-.692.0303c-.413 1.2725-.826 2.547-1.246 3.8225.224-1.2669.444-2.533.664-3.7971l-.662.029c-.464 2.694-.937 5.3934-1.426 8.0974-17.623 52.9983-39.982 107.3849-64.527 162.9441-6.899-5.7042-14.044-11.4746-21.134-17.2278 30.944-52.4102 60.606-103.6218 85.558-153.7469l-.724.0317c-24.895 49.985-54.466 101.0548-85.323 153.3174-7.611-6.1815-15.319-12.3871-23.142-18.6226 5.659-7.4749 11.314-14.9219 16.949-22.3405 28.842-37.97663 57.134-75.2294 82.813-111.9738l-.786.0344c-25.608 36.632-53.811 73.77174-82.568 111.6325-5.615 7.393-11.249 14.8156-16.893 22.2658-8.304-6.6166-16.597-13.2294-25.14-19.9052 15.876-16.7757 31.873-33.36965 47.736-49.8195 20.606-21.3645 40.975-42.4897 60.536-63.4596l-.87.038c-19.447 20.8395-39.689 41.8322-60.163 63.0651-15.86 16.44409-31.854 33.0329-47.723 49.803-8.917-6.965-18.078-13.9906-27.268-21.0246 25.754-22.14761 52.115-43.885 78.186-65.3796 10.278-8.4719 20.504-16.9069 30.634-25.3123l-.986.0431c-9.952 8.2592-20.001 16.5456-30.094 24.8682-26.085 21.5036-52.46 43.25152-78.223 65.4089-9.612-7.35685-19.44-14.76746-29.353-22.19995 31.906-22.58005 65.057-44.59435 98.014-66.34315l-1.135.0497c-32.746 21.6107-65.675 43.4871-97.374 65.92257-10.334-7.74607-20.832-15.53247-31.494-23.36037 23.197-13.5965 47.177-26.911 71.461-40.052l-1.325.0579c-24.007 13.0001-47.71 26.1719-70.646 39.6195-11.078-8.1286-22.294-16.2919-33.731-24.5097 8.013-3.902 16.134-7.7701 24.345-11.6102l-1.496.0654c-7.88 3.6934-15.681 7.4134-23.381 11.1645-4.428-3.1815-8.875-6.3665-13.348-9.5584l-.939.041c4.589 3.2737 9.153 6.5412 13.694 9.8047-10.505 5.1226-20.815 10.305-30.915 15.5517-10.654-7.6861-21.502-15.418-32.488-23.1828l-.943.0413c11.114 7.8524 22.082 15.6692 32.857 23.4399-10.089 5.2493-19.964 10.5624-29.57 15.956-13.176-9.5574-26.612-19.1779-40.287-28.855 6.908-3.3223 13.963-6.6045 21.156-9.8481l-1.544.0675c-6.844 3.0965-13.564 6.2295-20.149 9.3986-3.773-2.6682-7.564-5.342-11.376-8.0201l-.944.0413c3.929 2.7596 7.837 5.5137 11.723 8.2642-10.182 4.9097-20.034 9.9116-29.5188 15.0136-9.8821-7.0304-19.8982-14.0922-30.0484-21.1857l-.9471.0414c10.2808 7.1827 20.4244 14.3325 30.4294 21.45-9.4929 5.1183-18.6274 10.3338-27.3253 15.67-14.8532-10.6439-30.0234-21.3649-45.4928-32.1567 2.0327-1.1339 4.0923-2.2607 6.1774-3.3799l-1.3278.058c-1.8129.9792-3.6055 1.9638-5.3789 2.9522l-3.6696-2.5565-.9493.0415 4.0582 2.8272c-9.05588 5.0716-17.57793 10.2856-25.51736 15.6576-7.80294-5.4873-15.67264-10.9914-23.62304-16.5135l-.9507.0416c8.1 5.6248 16.1172 11.2302 24.06299 16.8188-8.00569 5.4408-15.41989 11.0402-22.16979 16.8189-14.7851-10.5181-29.8033-21.0892-45.1763-31.7451l-.9529.0417c15.5501 10.7733 30.7328 21.4614 45.6797 32.0933-6.8151 5.8681-12.9676 11.91602-18.3696 18.16549-15.1069-10.90489-30.4734-21.87059-46.2184-32.92469 4.2843-5.9422 9.4027-11.6606 15.2794-17.1754l-.9427.0412c-5.6971 5.3901-10.6705 10.976-14.8555 16.7727-7.1778-5.0362-14.4498-10.0956-21.7948-15.1701l-.952.0416c7.553 5.2176 15.032 10.4188 22.4075 15.5958-4.8305 6.7695-8.5955 13.826-11.2065 21.1936-12.785-9.1467-25.879-18.3644-39.121-27.617-.008-2.7049.158-5.3619.494-7.9731l-.684.0299c-.309 2.4519-.47 4.9438-.479 7.4774-3.348-2.3378-6.695-4.6764-10.055-7.0168zm383.097-5.9453c11.448 8.228 22.684 16.403 33.774 24.5434-9.712 5.6999-19.295 11.4494-28.694 17.2584-11.779-8.6949-23.812-17.4527-36.005-26.2497 10.1-5.2467 20.413-10.4289 30.925-15.5521zm34.287 24.9178c10.678 7.8379 21.192 15.6363 31.541 23.39235-8.929 6.325138-17.767 12.6929-26.469 19.11395-11.084-8.37307-22.302-16.78024-33.77-25.2501 9.403-5.8085 18.983-11.5558 28.698-17.2562zm32.036 23.76356c9.929 7.44447 19.772 14.86539 29.399 22.23354-8.131 6.9994-16.201 14.0403-24.18 21.1252-10.402-8.0416-20.928-16.1149-31.688-24.2451 8.702-6.42107 17.54-12.788497 26.469-19.11364zm29.883 22.60624c9.206 7.0463 18.382 14.0835 27.319 21.061-7.308 7.7248-14.591 15.4877-21.816 23.2934-9.746-7.7054-19.612-15.442-29.683-23.2298 7.978-7.0869 16.045-14.1261 24.18-21.1246zm27.799 21.4342c8.562 6.6899 16.871 13.3163 25.191 19.9455-6.42 8.48-12.848 16.9973-19.261 25.5555-9.1-7.3632-18.346-14.7626-27.749-22.2024 7.228-7.8069 14.511-15.5722 21.819-23.2986zm25.676 20.3279c7.843 6.2506 15.566 12.4701 23.192 18.6669-4.971 8.4189-9.968 16.865-14.993 25.3472l-1.592 2.688c-8.472-7.008-17.127-14.0624-25.875-21.1411 6.413-8.5595 12.844-17.0786 19.268-25.561zm23.682 19.065c7.109 5.7693 14.274 11.5552 21.193 17.2772-4.519 10.2209-9.11 20.4819-13.761 30.7829-7.841-6.631-15.929-13.323-24.021-20.019l1.679-2.836c4.995-8.4344 9.968-16.8321 14.91-25.2051zm21.695 17.7007c6.476 5.3614 12.736 10.6674 19.062 15.9904-3.464 11.217-7.03 22.476-10.699 33.776-7.299-6.307-14.606-12.614-22.126-18.978 4.65-10.3 9.249-20.566 13.763-30.7884zm19.246 15.3814c-6.307-5.306-12.543-10.595-18.996-15.9403 23.921-54.146 45.764-107.1763 63.186-158.9007-10.471 56.69293-25.785 115.1498-44.19 174.841zm-11.081 34.989c-3.608 11.108-7.315 22.258-11.1 33.44-8.191-7.277-16.483-14.58-24.969-21.934 4.676-10.214 9.308-20.39 13.891-30.53 7.536 6.378 14.863 12.704 22.178 19.024zm-11.306 34.044c-3.732 11.021-7.545 22.076-11.426 33.162-8.985-8.228-18.162-16.506-27.529-24.836 4.675-10.134 9.324-20.239 13.935-30.305 8.502 7.368 16.817 14.688 25.02 21.979zm-11.642 33.773c-3.839 10.96-7.742 21.95-11.708 32.968-9.709-9.189-19.589-18.421-29.772-27.735l4.41-9.546c3.174-6.873 6.339-13.729 9.497-20.572 9.386 8.345 18.575 16.639 27.573 24.885zm-11.928 33.578c-3.919 10.888-7.893 21.803-11.914 32.739-10.315-10.119-20.814-20.29-31.709-30.565 4.605-10.015 9.212-20.001 13.811-29.955 10.199 9.33 20.091 18.578 29.812 27.781zm-12.137 33.351c-3.983 10.825-8.003 21.671-12.063 32.535-10.803-11.027-21.838-22.116-33.322-33.323 4.532-9.97 9.085-19.907 13.64-29.818 10.903 10.29 21.417 20.474 31.745 30.606zm-12.296 33.155c-4.02 10.766-8.075 21.55-12.158 32.352-11.166-11.91-22.641-23.903-34.602-36.024 4.448-9.926 8.92-19.826 13.408-29.697 11.496 11.226 22.544 22.329 33.352 33.369zm-12.395 32.972c-4.05 10.717-8.121 21.446-12.212 32.191-11.394-12.768-23.217-25.655-35.519-38.674 4.33-9.887 8.707-19.746 13.107-29.58 11.966 12.137 23.454 24.143 34.624 36.063zm-12.448 32.821c-4.07 10.692-8.154 21.394-12.241 32.106-11.521-13.645-23.502-27.42-36.045-41.351 4.199-9.845 8.451-19.669 12.741-29.465 12.311 13.029 24.139 25.928 35.545 38.71zm-12.49 32.756-2.394 6.278c-3.271 8.566-6.545 17.142-9.812 25.721-11.514-14.528-23.518-29.198-36.162-44.046 4.045-9.805 8.15-19.586 12.313-29.343 12.546 13.943 24.529 27.732 36.055 41.39zm-12.461 32.659c-4.044 10.617-8.087 21.241-12.118 31.871-11.342-15.407-23.269-30.986-35.861-46.752 3.87-9.754 7.812-19.485 11.814-29.195 12.648 14.858 24.654 29.541 36.165 44.076zm-12.376 32.552c-4.019 10.599-8.027 21.202-12.013 31.807-11.028-16.334-22.701-32.863-35.085-49.593 3.668-9.686 7.418-19.351 11.239-28.993 12.585 15.773 24.52 31.361 35.859 46.779zm-12.279 32.514c-3.974 10.581-7.922 21.158-11.844 31.736-10.549-17.33-21.806-34.879-33.808-52.651 3.435-9.586 6.966-19.155 10.579-28.705 12.377 16.741 24.047 33.276 35.073 49.62zm-12.119 32.474c-3.913 10.558-7.808 21.116-11.652 31.668-9.893-18.458-20.526-37.152-31.968-56.095 3.181-9.431 6.462-18.846 9.825-28.245 11.999 17.776 23.253 35.335 33.795 52.672zm-11.938 32.453c-3.841 10.545-7.632 21.081-11.383 31.612-9.03-19.813-18.838-39.892-29.509-60.24 2.884-9.175 5.872-18.338 8.952-27.485 11.432 18.946 22.058 37.651 31.94 56.113zm-11.689 32.462c-3.742 10.5-7.452 21.003-11.089 31.49-6.792-18.504-14.179-37.224-22.228-56.168.881-10.383 1.716-20.793 2.494-31.228.45-1.451.903-2.899 1.36-4.347 10.653 20.352 20.447 40.435 29.463 60.253zm-11.417 32.423c-3.638 10.489-7.196 20.966-10.715 31.434-4.46-16.645-9.322-33.458-14.628-50.431 1.163-12.219 2.28-24.48 3.33-36.777 7.969 18.811 15.283 37.401 22.013 55.774zm-11.078 32.518c-3.491 10.403-6.932 20.798-10.29 31.179-2.34-14.866-4.902-29.845-7.736-44.946 1.239-12.003 2.447-24.048 3.607-36.13 5.225 16.794 10.017 33.427 14.419 49.897zm-10.727 32.513c-3.316 10.273-6.538 20.528-9.707 30.77-.42-13.118-.934-26.313-1.567-39.586 1.272-11.701 2.522-23.444 3.744-35.223 2.75 14.791 5.251 29.47 7.53 44.039zm-10.288 32.664c-3.001 9.732-5.937 19.452-8.788 29.152.688-6.213 1.38-12.435 2.073-18.671 1.762-15.858 3.534-31.799 5.28-47.816.574 12.513 1.044 24.957 1.435 37.335zm190.333-611.136c-4.576 10.138-9.212 20.312-13.884 30.522-8.702-7.533-17.628-15.126-26.651-22.742 5.495-9.32 10.99-18.599 16.463-27.845 8.111 6.712 16.215 13.42 24.072 20.065zm-14.141 31.083c-4.608 10.064-9.26 20.165-13.932 30.299-9.469-8.415-19.143-16.88-29.012-25.396 5.405-9.269 10.827-18.499 16.249-27.692 9.039 7.633 17.977 15.24 26.695 22.789zm-14.192 30.86c-3.193 6.919-6.391 13.851-9.606 20.803l-4.298 9.31c-10.111-9.241-20.528-18.561-31.125-27.926 5.297-9.247 10.63-18.457 15.977-27.629 9.888 8.531 19.567 17.013 29.052 25.442zm-14.164 30.673c-4.596 9.954-9.203 19.938-13.808 29.952-10.66-10.048-21.705-20.196-32.94-30.396 5.15-9.21 10.35-18.385 15.587-27.522 10.605 9.38 21.038 18.713 31.161 27.966zm-14.068 30.519c-4.551 9.908-9.104 19.846-13.636 29.812-11.117-10.843-22.664-21.8-34.449-32.817 4.977-9.179 10.02-18.322 15.113-27.429 11.243 10.21 22.304 20.373 32.972 30.434zm-13.899 30.386c-4.486 9.864-8.958 19.758-13.402 29.68-11.471-11.62-23.393-23.36-35.625-35.183 4.779-9.152 9.63-18.269 14.55-27.349 11.79 11.028 23.352 21.996 34.477 32.852zm-13.661 30.261c-4.401 9.83-8.774 19.686-13.105 29.564-11.72-12.385-23.889-24.9-36.465-37.517 4.551-9.122 9.196-18.211 13.918-27.26 12.24 11.83 24.174 23.583 35.652 35.213zm-13.367 30.158c-4.287 9.792-8.535 19.609-12.735 29.448-11.841-13.139-24.16-26.41-36.954-39.807 4.301-9.097 8.707-18.162 13.208-27.188 12.58 12.627 24.76 25.149 36.481 37.547zm-12.995 30.055c-4.155 9.75-8.262 19.521-12.304 29.316-11.825-13.872-24.222-27.898-37.089-42.054 4.029-9.069 8.175-18.099 12.426-27.098 12.798 13.407 25.125 26.688 36.967 39.836zm-12.562 29.943c-4.003 9.7-7.938 19.424-11.805 29.168-11.691-14.627-23.994-29.427-36.821-44.367 3.721-8.998 7.566-17.959 11.526-26.888 12.876 14.169 25.274 28.209 37.1 42.087zm-12.065 29.819c-3.818 9.635-7.566 19.287-11.231 28.959-11.424-15.424-23.476-31.027-36.127-46.798 3.383-8.883 6.897-17.736 10.538-26.555 12.832 14.953 25.129 29.76 36.82 44.394zm-11.485 29.639c-3.61 9.536-7.136 19.089-10.572 28.661-11.025-16.3-22.672-32.78-35.011-49.456 3.018-8.708 6.174-17.383 9.457-26.026 12.656 15.78 24.702 31.39 36.126 46.821zm-10.83 29.381c-3.365 9.376-6.64 18.771-9.815 28.185-10.457-17.284-21.599-34.774-33.46-52.47 2.624-8.431 5.387-16.828 8.284-25.198 12.336 16.686 23.972 33.173 34.991 49.483zm-10.077 28.949c-3.075 9.12-6.058 18.256-8.941 27.408-9.735-18.538-20.186-37.297-31.424-56.285 2.187-7.896 4.5-15.764 6.933-23.608 11.854 17.703 22.986 35.197 33.432 52.485zm-9.2 28.242c-.526 1.671-1.052 3.345-1.568 5.015l-.009.024-.001.03c-.749 10.037-1.551 20.053-2.395 30.045-8.211-19.27-17.123-38.766-26.789-58.499-1.095-7.423-2.246-14.863-3.47-22.327.919-3.529 1.872-7.057 2.84-10.575 11.223 18.989 21.668 37.752 31.392 56.287zm-4.085 36.444c-1.038 12.19-2.138 24.343-3.288 36.455-5.367-17.087-11.185-34.341-17.511-51.763-1.651-14.09-3.502-28.255-5.579-42.496 9.511 19.493 18.285 38.761 26.378 57.804zm-3.442 38.074c-1.134 11.871-2.315 23.705-3.528 35.5-2.836-14.977-5.929-30.07-9.32-45.276-1.223-13.553-2.613-27.175-4.191-40.873 6.145 17.047 11.812 33.928 17.039 50.649zm-3.758 37.711c-1.15 11.146-2.332 22.255-3.525 33.327-1.236-25.022-2.893-50.319-5.126-75.873 3.132 14.282 6.011 28.469 8.651 42.546zm163.436-552.666c-5.473 9.242-10.964 18.521-16.46 27.838-9.266-7.818-18.741-15.691-28.35-23.596 6.267-8.516 12.57-16.9915 18.888-25.4254 8.764 7.0929 17.434 14.1606 25.922 21.1834zm-16.764 28.352c-5.422 9.193-10.841 18.422-16.249 27.691-9.974-8.606-20.173-17.268-30.565-25.982 6.09-8.491 12.239-16.939 18.423-25.347 9.622 7.92 19.113 15.806 28.391 23.638zm-16.55 28.206c-5.347 9.17-10.676 18.377-15.973 27.62-10.588-9.355-21.46-18.785-32.541-28.267 5.899-8.501 11.875-16.958 17.91-25.373 10.408 8.727 20.618 17.402 30.604 26.02zm-16.27 28.14c-5.233 9.135-10.43 18.306-15.58 27.513-11.121-10.092-22.536-20.259-34.228-30.499 5.653-8.483 11.404-16.922 17.228-25.319 11.093 9.496 21.98 18.937 32.58 28.305zm-15.876 28.041c-5.09 9.104-10.133 18.242-15.106 27.419-11.572-10.816-23.375-21.691-35.599-32.676 5.375-8.47 10.861-16.896 16.442-25.277 11.707 10.253 23.134 20.433 34.263 30.534zm-15.402 27.956c-4.916 9.076-9.767 18.188-14.543 27.336-11.874-11.469-24.114-23.036-36.723-34.697 5.092-8.494 10.309-16.944 15.636-25.346 12.236 10.996 24.055 21.882 35.63 32.707zm-14.83 27.885c-4.718 9.045-9.363 18.127-13.915 27.245-12.077-12.109-24.605-24.339-37.5-36.664 4.753-8.484 9.65-16.921 14.671-25.312 12.618 11.674 24.862 23.251 36.744 34.731zm-14.197 27.807c-4.497 9.026-8.903 18.084-13.204 27.178-12.197-12.76-24.82-25.639-37.917-38.639 4.387-8.459 8.924-16.87 13.603-25.233 12.9 12.335 25.437 24.574 37.518 36.694zm-13.478 27.756c-4.248 8.991-8.394 18.012-12.424 27.074-12.172-13.384-24.844-26.896-37.99-40.54 4-8.449 8.165-16.847 12.484-25.199 13.101 13.007 25.732 25.895 37.93 38.665zm-12.689 27.668c-3.962 8.919-7.807 17.87-11.529 26.855-12.053-14.025-24.578-28.183-37.681-42.495 3.566-8.352 7.308-16.659 11.211-24.92 13.151 13.651 25.823 27.173 37.999 40.56zm-11.788 27.482c-3.638 8.805-7.153 17.645-10.534 26.515-11.781-14.662-24.131-29.487-37.033-44.454 3.115-8.239 6.422-16.427 9.888-24.576 13.1 14.319 25.629 28.48 37.679 42.515zm-10.787 27.172c-3.283 8.633-6.441 17.294-9.456 25.989-11.399-15.385-23.382-30.935-35.973-46.648 2.629-7.982 5.435-15.918 8.41-23.809 12.899 14.974 25.245 29.802 37.019 44.468zm-9.698 26.682c-2.891 8.346-5.652 16.727-8.275 25.131-10.896-16.236-22.4-32.645-34.561-49.236 2.126-7.56 4.427-15.075 6.88-22.557 12.588 15.72 24.564 31.273 35.956 46.662zm-8.509 25.884c-2.431 7.814-4.747 15.652-6.929 23.518-10.27-17.323-21.202-34.842-32.83-52.552 1.604-6.765 3.35-13.5 5.226-20.203 12.152 16.59 23.648 33 34.533 49.237zm-7.156 24.347c-1.037 3.75-2.051 7.504-3.029 11.265l-.012.047.008.05c1.118 6.826 2.177 13.634 3.19 20.428-9.881-20.079-20.562-40.403-32.112-60.969-1.221-3.435-2.466-6.877-3.729-10.32.904-4.365 1.871-8.715 2.89-13.051 11.616 17.71 22.535 35.227 32.794 52.55zm.456 33.811c2.059 13.986 3.9 27.895 5.545 41.733-6.375-17.433-13.268-35.039-20.721-52.815-4.929-16.021-10.254-32.164-16.001-48.426 11.196 20.072 21.569 39.907 31.177 59.508zm5.868 44.482c1.518 12.971 2.867 25.879 4.064 38.721-6.567-28.943-14.22-58.305-23.211-88.079 6.855 16.6 13.226 33.054 19.147 49.358zm151.266-483.2438c-6.314 8.4337-12.617 16.9068-18.881 25.4188-9.841-8.097-19.894-16.2478-30.105-24.4381 6.997-7.7843 14.066-15.5227 21.19-23.2207 9.422 7.4519 18.68 14.8645 27.796 22.24zm-19.229 25.8918c-6.181 8.408-12.333 16.857-18.423 25.347-10.514-8.811-21.263-17.68-32.21-26.602 6.737-7.787 13.573-15.5253 20.485-23.2215 10.226 8.2036 20.291 16.3665 30.148 24.4765zm-18.764 25.824c-6.034 8.412-12.007 16.865-17.907 25.363-11.1-9.493-22.465-19.055-34.069-28.678 6.463-7.824 13.044-15.597 19.724-23.322 10.962 8.933 21.727 17.815 32.252 26.637zm-18.243 25.847c-5.824 8.393-11.572 16.829-17.224 25.309-11.613-10.165-23.434-20.385-35.625-30.697 6.112-7.827 12.372-15.598 18.745-23.322 11.615 9.633 22.996 19.206 34.104 28.71zm-17.552 25.803c-5.581 8.376-11.067 16.796-16.443 25.263-11.964-10.744-24.361-21.599-36.974-32.51 5.765-7.881 11.691-15.706 17.757-23.479 12.202 10.322 24.035 20.552 35.66 30.726zm-16.767 25.769c-5.327 8.401-10.544 16.847-15.636 25.34-12.293-11.366-24.911-22.814-37.928-34.364 5.351-7.894 10.874-15.734 16.563-23.517 12.625 10.923 25.029 21.786 37.001 32.541zm-15.948 25.856c-5.021 8.385-9.914 16.816-14.669 25.293-12.47-11.916-25.347-23.936-38.608-36.054 4.92-7.934 10.035-15.809 15.326-23.627 13.025 11.559 25.65 23.015 37.951 34.388zm-14.968 25.827c-4.68 8.359-9.217 16.767-13.601 25.222-12.555-12.459-25.535-25.026-38.945-37.704 4.434-7.926 9.09-15.788 13.922-23.596 13.269 12.128 26.146 24.153 38.624 36.078zm-13.891 25.77c-4.32 8.346-8.486 16.738-12.487 25.176-12.51-12.973-25.483-26.062-38.911-39.271 3.936-7.934 8.084-15.807 12.444-23.62 13.414 12.683 26.402 25.254 38.954 37.715zm-12.761 25.751c-3.9 8.25-7.643 16.544-11.206 24.89-12.347-13.473-25.212-27.083-38.535-40.813 3.385-7.848 7.003-15.634 10.827-23.365 13.43 13.212 26.404 26.311 38.914 39.288zm-11.466 25.497c-3.468 8.135-6.771 16.313-9.891 24.539-12.086-14.013-24.634-28.15-37.748-42.435 2.816-7.7 5.855-15.344 9.112-22.927 13.323 13.733 26.183 27.347 38.527 40.823zm-10.13 25.183c-2.977 7.88-5.784 15.803-8.413 23.772-11.688-14.57-23.907-29.287-36.675-44.143 2.233-7.412 4.688-14.771 7.345-22.075 13.112 14.289 25.659 28.428 37.743 42.446zm-8.64 24.451c-2.452 7.458-4.754 14.95-6.882 22.487-11.195-15.254-22.941-30.658-35.279-46.215 1.648-6.851 3.483-13.656 5.503-20.413 12.762 14.857 24.979 29.574 36.658 44.141zm-7.09 23.235c-1.876 6.677-3.621 13.386-5.227 20.124-10.63-16.165-21.878-32.502-33.722-48.996 1.094-5.818 2.326-11.601 3.697-17.351 12.33 15.561 24.062 30.965 35.252 46.223zm-5.422 20.948c-1.08 4.572-2.099 9.154-3.05 13.754l-.015.064.026.068c.849 2.314 1.685 4.624 2.515 6.932-10.897-19.269-22.574-38.761-35.081-58.469.577-3.797 1.228-7.571 1.926-11.337 11.831 16.492 23.062 32.823 33.679 48.988zm.732 24.325c5.485 15.374 10.587 30.646 15.335 45.806-14.542-34.188-31.191-69.01-50.315-104.472 12.472 19.776 24.123 39.332 34.98 58.666zm161.866-398.5962c-7.124 7.6961-14.194 15.4331-21.187 23.216-10.448-8.3776-21.109-16.8097-31.942-25.2844 7.694-7.1151 15.503-14.1786 23.399-21.1983 10.087 7.8008 19.972 15.5498 29.73 23.2667zm-21.578 23.65c-6.912 7.6951-13.748 15.4342-20.488 23.2202-11.084-9.0275-22.413-18.1166-33.952-27.2579 7.349-7.1469 14.845-14.2373 22.454-21.2801 10.853 8.4877 21.526 16.9297 31.986 25.3178zm-20.872 23.6622c-6.676 7.723-13.257 15.494-19.717 23.314-11.643-9.651-23.535-19.366-35.697-29.148 6.982-7.2098 14.133-14.3591 21.424-21.4562 11.554 9.1529 22.899 18.2532 33.99 27.2902zm-20.088 23.766c-6.374 7.721-12.633 15.49-18.746 23.314-12.08-10.215-24.53-20.523-37.2-30.886 6.557-7.263 13.299-14.466 20.209-21.609 12.177 9.794 24.082 19.519 35.737 29.181zm-19.105 23.779c-6.066 7.771-11.992 15.595-17.761 23.475-12.475-10.786-25.244-21.646-38.368-32.596 6.095-7.331 12.404-14.593 18.897-21.796 12.681 10.375 25.136 20.691 37.232 30.917zm-18.112 23.95c-5.685 7.778-11.205 15.613-16.556 23.504-12.717-11.277-25.851-22.66-39.277-34.116 5.589-7.404 11.413-14.737 17.44-22.006 13.136 10.957 25.91 21.825 38.393 32.618zm-16.892 23.995c-5.291 7.815-10.41 15.687-15.33 23.618-12.897-11.781-26.109-23.643-39.776-35.618 5.028-7.451 10.304-14.829 15.81-22.139 13.433 11.464 26.575 22.854 39.296 34.139zm-15.646 24.127c-4.832 7.802-9.484 15.659-13.92 23.578-12.904-12.19-26.27-24.499-39.994-36.898 4.445-7.513 9.166-14.95 14.126-22.317 13.672 11.983 26.887 23.85 39.788 35.637zm-14.218 24.114c-4.361 7.805-8.511 15.674-12.447 23.599-12.829-12.61-26.103-25.337-39.801-38.172 3.811-7.521 7.892-14.971 12.243-22.345 13.728 12.405 27.098 24.72 40.005 36.918zm-12.726 24.16c-3.825 7.722-7.448 15.501-10.834 23.339-12.619-12.991-25.706-26.105-39.233-39.331 3.144-7.471 6.575-14.866 10.27-22.19 13.696 12.837 26.969 25.566 39.797 38.182zm-11.087 23.936c-3.258 7.57-6.297 15.201-9.116 22.888-12.283-13.369-25.095-26.875-38.328-40.485 2.461-7.323 5.212-14.567 8.216-21.745 13.524 13.23 26.614 26.344 39.228 39.342zm-9.346 23.521c-2.661 7.29-5.118 14.632-7.355 22.031-11.857-13.787-24.237-27.708-37.072-41.742 1.782-6.993 3.824-13.917 6.113-20.779 13.23 13.614 26.034 27.12 38.314 40.49zm-7.563 22.713c-2.026 6.737-3.865 13.526-5.518 20.356-11.353-14.302-23.205-28.735-35.5723-43.299 1.1432-6.316 2.4886-12.577 4.0553-18.784 12.824 14.031 25.188 27.946 37.035 41.727zm-5.7 21.093c-1.371 5.723-2.613 11.474-3.712 17.262-10.83-15.064-22.169-30.259-34.0672-45.599.6129-5.011 1.3643-9.991 2.246-14.934 12.3522 14.552 24.1972 28.978 35.5332 43.271zm-3.863 18.094c-.699 3.729-1.343 7.476-1.925 11.237-10.373-16.323-21.32-32.796-32.8802-49.42.2262-2.473.4857-4.942.7781-7.401 11.8821 15.331 23.2121 30.526 34.0271 45.584zm166.583-348.1973c-7.897 7.0174-15.706 14.0799-23.397 21.1939-11.074-8.6602-22.373-17.3764-33.866-26.1411 8.364-6.4982 16.881-12.9418 25.535-19.3325 10.772 8.1417 21.313 16.2256 31.728 24.2797zm-23.831 21.5944c-7.606 7.0417-15.102 14.1314-22.454 21.2785-11.683-9.2534-23.627-18.5737-35.791-27.9466 7.934-6.5613 16.06-13.0614 24.34-19.5049 11.504 8.7752 22.818 17.5021 33.905 26.173zm-22.873 21.6897c-7.291 7.0942-14.442 14.2414-21.421 21.4482-12.227-9.8284-24.675-19.7122-37.436-29.6746 7.467-6.651 15.155-13.2309 23.027-19.7502 12.176 9.3824 24.135 18.7123 35.83 27.9766zm-21.832 21.8682c-6.91 7.142-13.652 14.344-20.209 21.606-12.635-10.333-25.612-20.75-38.844-31.2317 6.964-6.7636 14.161-13.4554 21.582-20.0769 12.773 9.9722 25.236 19.8654 37.471 29.7026zm-20.6 22.04c-6.49 7.199-12.803 14.457-18.895 21.785-12.974-10.82-26.282-21.722-39.908-32.706 6.378-6.856 13.04-13.629 19.928-20.3344 13.243 10.4894 26.228 20.9154 38.875 31.2554zm-19.266 22.239c-6.031 7.267-11.852 14.598-17.444 22-13.21-11.268-26.706-22.609-40.62-34.054 5.762-6.972 11.808-13.863 18.129-20.674 13.636 10.99 26.949 21.9 39.935 32.728zm-17.8 22.468c-5.505 7.307-10.783 14.681-15.813 22.128-13.279-11.631-27.008-23.374-41.043-35.194 5.094-7.089 10.517-14.087 16.219-21.005 13.919 11.45 27.423 22.797 40.637 34.071zm-16.141 22.618c-4.959 7.362-9.678 14.792-14.124 22.3-13.262-11.979-26.953-24.062-41.0049-36.236 4.3679-7.179 9.0619-14.268 14.0759-21.268 14.037 11.824 27.77 23.57 41.053 35.204zm-14.432 22.815c-4.35 7.368-8.437 14.809-12.251 22.325-13.116-12.283-26.6541-24.671-40.5926-37.158 3.5978-7.231 7.5636-14.362 11.8359-21.411 14.0527 12.178 27.7427 24.264 41.0077 36.244zm-12.528 22.876c-3.696 7.314-7.128 14.702-10.274 22.165-12.822-12.53-26.0772-25.169-39.7437-37.909 2.8041-7.23 5.9451-14.37 9.4331-21.418 13.9364 12.489 27.4726 24.879 40.5846 37.162zm-10.524 22.75c-3.008 7.167-5.76 14.401-8.226 21.71-12.3986-12.746-25.2371-25.603-38.4903-38.562 1.9946-7.105 4.3326-14.119 6.9966-21.046 13.6582 12.737 26.9047 25.372 39.7197 37.898zm-8.445 22.338c-2.292 6.846-4.337 13.753-6.1239 20.73-11.8799-12.981-24.1653-26.067-36.9086-39.263 1.2195-6.749 2.7496-13.418 4.5786-20.009 13.2413 12.952 26.0683 25.803 38.4539 38.542zm-6.3075 21.414c-1.5692 6.187-2.9133 12.428-4.0661 18.721-11.28-13.273-23.0396-26.665-35.2063-40.156.5563-5.993 1.3791-11.918 2.4187-17.788 12.7232 13.184 24.9934 26.254 36.8537 39.223zm-4.2087 19.486c-.886 4.917-1.6439 9.867-2.2645 14.851-10.7489-13.842-21.9637-27.801-33.6401-41.872.1217-4.393.394-8.75.7775-13.075 12.1381 13.472 23.8692 26.842 35.1271 40.096zm166.5652-310.8452c-8.65 6.3882-17.164 12.832-25.527 19.3291-11.738-8.9497-23.711-17.9555-35.889-27.01446 9.006-5.928325 18.21-11.79409 27.595-17.59984 11.488 8.48131 22.721 16.89913 33.821 25.2852zm-26.001 19.6974c-8.28 6.4429-16.402 12.9428-24.336 19.5061-12.324-9.4971-24.924-19.061-37.744-28.6815 8.482-6.0273 17.216-11.9797 26.149-17.86752 12.197 9.06752 24.181 18.08472 35.931 27.04292zm-24.794 19.8864c-7.872 6.5186-15.557 13.0963-23.023 19.7463-12.827-10.0118-25.9-20.0847-39.288-30.2331 7.915-6.1509 16.101-12.2218 24.528-18.2207 12.836 9.6292 25.447 19.2032 37.783 28.7075zm-23.466 20.1375c-7.421 6.6205-14.618 13.3126-21.582 20.0762-13.231-10.4772-26.731-21.0215-40.569-31.6479 7.315-6.3141 14.937-12.5395 22.832-18.6856 13.396 10.157 26.481 20.2374 39.319 30.2573zm-22.004 20.4865c-6.889 6.7034-13.551 13.4744-19.931 20.3304-13.493-10.871-27.369-21.8364-41.521-32.8696 6.626-6.469 13.592-12.8432 20.858-19.1302 13.846 10.6343 27.356 21.1849 40.594 31.6694zm-20.327 20.7624c-6.319 6.806-12.363 13.695-18.124 20.663-13.65-11.222-27.7435-22.555-42.0966-33.95 5.8706-6.6333 12.1011-13.1681 18.6736-19.6049 14.161 11.0401 28.045 22.0139 41.547 32.8919zm-18.497 21.114c-5.701 6.915-11.127 13.909-16.224 20.995-13.7025-11.536-27.7754-23.166-42.2136-34.883 5.0557-6.799 10.5152-13.485 16.3295-20.075 14.357 11.399 28.4521 22.736 42.1081 33.963zm-16.561 21.476c-5.014 6.994-9.708 14.079-14.0803 21.253-13.5974-11.776-27.5534-23.639-41.91-35.601 4.1831-6.96 8.771-13.811 13.7614-20.551 14.4441 11.722 28.5199 23.356 42.2289 34.899zm-14.3898 21.762c-4.2729 7.041-8.2395 14.168-11.8419 21.391-13.3212-11.93-27.0238-23.952-41.1203-36.072 3.2567-7.089 6.9576-14.059 11.0591-20.92 14.3554 11.961 28.3067 23.824 41.9031 35.601zm-12.1168 21.935c-3.4903 7.037-6.635 14.168-9.4442 21.388-12.8927-12.013-26.1855-24.124-39.8527-36.328 2.2945-7.159 5.0346-14.199 8.1924-21.128 14.093 12.119 27.7864 24.139 41.1045 36.068zm-9.6713 21.984c-2.6689 6.913-5.0112 13.913-7.0142 21.002-12.3018-12.02-25.0043-24.14-38.0698-36.347 1.3325-7.099 3.0901-14.085 5.2686-20.961 13.6549 12.197 26.9353 24.299 39.8154 36.306zm-7.1966 21.652c-1.836 6.569-3.3747 13.217-4.6061 19.945-11.5803-11.984-23.551-24.063-35.8867-36.232.441-6.775 1.2748-13.447 2.48-20.021 13.0446 12.193 25.73 24.301 38.0128 36.308zm-4.7351 20.671c-1.0481 5.842-1.8885 11.739-2.4572 17.707-10.8402-12.011-21.9925-24.098-33.5581-36.283-.2358-5.946-.1397-11.807.2114-17.6 12.3071 12.149 24.2465 24.208 35.8039 36.176zm165.4296-277.2206c-9.381 5.80389-18.583 11.669498-27.585 17.597-12.442-9.24987-25.127-18.5584-38.036-27.9234 9.606-5.3926 19.485-10.7045 29.574-15.9521 12.212 8.8075 24.256 17.5737 36.047 26.2785zm-28.101 17.93585c-8.933 5.88915-17.666 11.84255-26.149 17.87145-12.999-9.7499-26.282-19.56891-39.802-29.44383 9.005-5.54207 18.314-10.99727 27.88-16.37647 12.92 9.3718 25.621 18.691 38.071 27.94885zm-26.645 18.22575c-8.427 5.9979-16.61 12.07-24.524 18.2219-13.452-10.1955-27.274-20.4834-41.301-30.8198 8.336-5.71562 17.009-11.338402 25.986-16.87393 13.533 9.88667 26.828 19.71413 39.839 29.47183zm-24.998 18.5886c-7.89 6.1438-15.511 12.3672-22.824 18.6799-13.837-10.6228-27.9413-21.3125-42.4028-32.0861 7.5944-5.9149 15.5828-11.7185 23.8948-17.433 14.039 10.3433 27.871 20.6371 41.332 30.8392zm-23.271 19.07c-7.265 6.2863-14.228 12.6589-20.853 19.1284-14.0745-10.9703-28.3989-22.0023-43.1334-33.1341 6.7846-6.1445 13.9687-12.1799 21.5529-18.104 14.4714 10.7831 28.5865 21.479 42.4335 32.1097zm-21.276 19.5374c-6.5719 6.4361-12.8016 12.9675-18.6745 19.6-14.1609-11.2414-28.6269-22.5551-43.4801-33.9635 5.8843-6.3837 12.2426-12.6384 19.0045-18.7819 14.7406 11.135 29.0694 22.1714 43.1501 33.1454zm-19.0594 20.037c-5.8115 6.587-11.2715 13.272-16.3296 20.069-14.0762-11.422-28.5067-22.9277-43.299-34.5228 4.8994-6.6354 10.2896-13.137 16.1427-19.5131 14.8544 11.4103 29.3236 22.7262 43.4859 33.9669zm-16.6805 20.533c-4.9912 6.735-9.5825 13.58-13.7705 20.534-13.8257-11.515-28.0221-23.119-42.5743-34.81 3.8335-6.886 8.1933-13.6321 13.0478-20.2442 14.7915 11.5939 29.2221 23.1002 43.297 34.5202zm-14.0731 21.044c-4.1025 6.853-7.8038 13.817-11.0677 20.898-13.3856-11.503-27.1127-23.09-41.21948-34.767 2.69266-7.124 5.95686-14.095 9.73068-20.929 14.546 11.686 28.7382 23.287 42.5565 34.798zm-11.3261 21.447c-3.1622 6.916-5.9181 13.941-8.2215 21.086-12.7109-11.342-25.75307-22.765-39.15211-34.273 1.50106-7.335 3.56099-14.52 6.18643-21.556 14.09268 11.669 27.81258 23.249 41.18718 34.743zm-8.4101 21.705c-2.1854 6.858-3.954 13.826-5.3001 20.906-11.7998-11.019-23.95718-22.125-36.39817-33.3.29457-7.43 1.18053-14.707 2.60499-21.838 13.38003 11.494 26.40048 22.903 39.09328 34.232zm-5.4267 21.595c-1.2173 6.55-2.0688 13.2-2.5287 19.949-10.7047-10.553-21.67201-21.168-32.95693-31.859-.80817-7.249-1.06519-14.353-.82675-21.324 12.41392 11.151 24.54068 22.236 36.31238 33.234zm132.5779-230.1085c-9.566 5.3816-18.871 10.8372-27.874 16.37954-13.717-10.01684-27.723-20.10514-41.9876-30.25454 9.4876-5.101 19.3426-10.1 29.5286-15.0086 13.69 9.6884 27.141 19.317 40.333 28.8836zm-28.407 16.70716c-8.974 5.5364006-17.645 11.15907-25.979 16.87724-14.1458-10.42051-28.6369-20.92548-43.3762-31.4898 8.6992-5.3337 17.8381-10.5484 27.3345-15.6645 14.2747 10.1582 28.2927 20.2521 42.0207 30.27706zm-26.484 17.22564c-8.3091 5.7137-16.2967 11.5176-23.8882 17.4337-14.4278-10.7468-29.2721-21.59522-44.3376-32.49488 7.8254-5.6057 16.1013-11.08692 24.8219-16.44782 14.7504 10.57088 29.2492 21.08084 43.4039 31.509zm-24.3658 17.8005c-7.5815 5.9223-14.761 11.9552-21.5446 18.0986-14.5842-11.0119-29.6016-22.1284-44.8565-33.3028 6.8438-5.90471 14.2038-11.66918 22.0452-17.3032 15.071 10.90442 29.9234 21.7571 44.3559 32.5074zm-21.9844 18.4954c-6.7587 6.1426-13.12 12.3948-19.0052 18.7769-14.5738-11.1892-29.5505-22.4753-44.81338-33.8297 5.75028-6.2381 12.09993-12.3143 18.95388-18.256 15.2587 11.1762 30.2782 22.2949 44.8647 33.3088zm-19.3955 19.2105c-5.8509 6.3736-11.2403 12.8745-16.1426 19.506-14.34992-11.2429-29.0978-22.5803-44.1402-33.9893 4.5444-6.6128 9.7118-13.0605 15.4712-19.3469 15.2644 11.3548 30.2382 22.641 44.8116 33.8302zm-16.4909 19.9714c-4.8551 6.6057-9.2236 13.3439-13.0622 20.2249-13.87201-11.1403-28.1494-22.3767-42.703-33.6796 3.2122-7.0213 7.0962-13.8616 11.6385-20.5266 15.04 11.4065 29.78108 22.7411 44.1267 33.9813zm-13.3455 20.7469c-3.77714 6.825-7.04237 13.789-9.745345 20.903-13.102255-10.841-26.613055-21.779-40.360255-32.7723 1.7467-7.4599 4.2427-14.7179 7.4369-21.7894 14.5413 11.2958 28.80567 22.5248 42.6687 33.6587zm-9.971713 21.477c-2.634377 7.02-4.715447 14.189-6.233137 21.508-11.98725-10.289-24.31365-20.659-36.87425-31.086.1451-7.925 1.1193-15.63 2.8319-23.1368 13.718 10.9758 27.1994 21.8938 40.275487 32.7148zm-6.363627 22.168c-1.43846 7.107-2.33628 14.36-2.65663 21.766-10.41663-9.349-21.01413-18.742-31.90693-28.203-1.5853-8.412-2.2742-16.584-2.1797-24.546 12.5152 10.391 24.8008 20.727 36.74326 30.983zm67.99584-171.7499c-8.716 5.3637-16.9885 10.84675-24.812 16.45303-15.0831-10.91253-30.50965-21.90633-46.23935-32.97363 7.942991-5.3685 16.46727-10.5816 25.52945-15.6525 15.4789 10.7974 30.6586 21.5233 45.5219 32.1731zm-25.3087 16.80668c-7.8354 5.6351-15.1953 11.40056-22.0367 17.30482-15.123487-11.07425-30.6067-22.23564-46.3946-33.4673 6.7509-5.7791 14.1659-11.3778 22.17678-16.8179 15.73459 11.0692 31.16722 22.065 46.25452 32.98038zm-22.485 17.69562c-6.85157 5.9397-13.20441 12.0126-18.95438 18.25-14.92662-11.1011-30.21592-22.2886-45.81182-33.54831 5.3996-6.25104 11.5511-12.29919 18.3693-18.16949 15.7895 11.23253 31.274136 22.39352 46.3969 33.4678zm-19.34171 18.6845c-5.75969 6.2834-10.92409 12.7272-15.47339 19.3386-14.4569-10.9606-29.2515-22.0026-44.3562-33.115 3.8631-6.8067 8.5695-13.38598 14.0325-19.762643 15.5909 11.257543 30.8759 22.441943 45.79709 33.539043zm-15.80669 19.8119c-4.544 6.6571-8.4357 13.4894-11.6586 20.5009-13.6068-10.5643-27.5009-21.1966-41.7013-31.9017 2.099-7.472 5.1406-14.6913 9.058-21.6755 15.0848 11.1012 29.8648 22.1295 44.3019 33.0763zm-11.9065 21.0434c-3.2024 7.0565-5.7164 14.299-7.48 21.7414-12.2254-9.7734-24.6646-19.5974-37.3797-29.4865.0206-8.3157 1.124-16.3408 3.2455-24.0921 14.1693 10.6828 28.0373 21.2949 41.6142 31.8372zm-7.6225 22.3742c-1.7283 7.4806-2.737 15.1536-2.9154 23.0506-9.9932-8.291-20.1148-16.611-30.4817-24.9897-2.5744-9.4953-3.7978-18.6268-3.8432-27.443 12.6675 9.8536 25.0624 19.6446 37.2403 29.3821zm-10.9691-97.136865c-5.4648 6.371745-10.1759 12.943865-14.0487 19.743465-14.142-10.40175-28.5717-20.87178-43.2975-31.4111 2.591-7.3807 6.343-14.4476 11.1712-21.2269 15.73 11.0443 31.0814 21.9998 46.175 32.894535zm-14.3276 20.256665c-3.9228 6.9715-6.978 14.1767-9.0971 21.6353-12.4574-9.3857-25.1841-18.8352-38.1235-28.3344-.048-8.59192 1.324-16.79857 4.012-24.6526 14.6964 10.51897 29.0941 20.96811 43.2086 31.3517zm-9.2582 22.2426c-2.1386 7.7258-3.2675 15.7247-3.3297 24.0109-9.4484-7.3436-19.0646-14.7272-28.8227-22.1429-3.79-10.5334-5.673-20.55-5.813-30.0964 12.8867 9.4628 25.558 18.8768 37.9654 28.2284zm-34.5134-53.9932c-2.705 7.83053-4.103 16.01496-4.102 24.5767-8.847-6.49234-17.769-13.002374-26.849-19.54911-5.257-11.54329-7.828-22.35609-7.97-32.50939 13.175 9.2072 26.201 18.3793 38.921 27.4818z" fill="#fa5320" fill-rule="evenodd" opacity=".12"/></svg>