<svg fill="none" height="88" viewBox="0 0 644 88" width="644" xmlns="http://www.w3.org/2000/svg" xmlns:xlink="http://www.w3.org/1999/xlink"><filter id="a" color-interpolation-filters="sRGB" filterUnits="userSpaceOnUse" height="88" width="88" x="278" y="0"><feFlood flood-opacity="0" result="BackgroundImageFix"/><feColorMatrix in="SourceAlpha" result="hardAlpha" type="matrix" values="0 0 0 0 0 0 0 0 0 0 0 0 0 0 0 0 0 0 127 0"/><feOffset dy="2"/><feGaussianBlur stdDeviation="2"/><feComposite in2="hardAlpha" operator="out"/><feColorMatrix type="matrix" values="0 0 0 0 0.1152 0 0 0 0 0.1476 0 0 0 0 0.18 0 0 0 0.04 0"/><feBlend in2="BackgroundImageFix" mode="normal" result="effect1_dropShadow_1485_110"/><feBlend in="SourceGraphic" in2="effect1_dropShadow_1485_110" mode="normal" result="shape"/></filter><filter id="b" color-interpolation-filters="sRGB" filterUnits="userSpaceOnUse" height="60" width="60" x="464" y="13"><feFlood flood-opacity="0" result="BackgroundImageFix"/><feColorMatrix in="SourceAlpha" result="hardAlpha" type="matrix" values="0 0 0 0 0 0 0 0 0 0 0 0 0 0 0 0 0 0 127 0"/><feOffset dy="1"/><feGaussianBlur stdDeviation="1"/><feComposite in2="hardAlpha" operator="out"/><feColorMatrix type="matrix" values="0 0 0 0 0 0 0 0 0 0 0 0 0 0 0 0 0 0 0.04 0"/><feBlend in2="BackgroundImageFix" mode="normal" result="effect1_dropShadow_1485_110"/><feBlend in="SourceGraphic" in2="effect1_dropShadow_1485_110" mode="normal" result="shape"/></filter><filter id="c" color-interpolation-filters="sRGB" filterUnits="userSpaceOnUse" height="68" width="68" x="384" y="9"><feFlood flood-opacity="0" result="BackgroundImageFix"/><feColorMatrix in="SourceAlpha" result="hardAlpha" type="matrix" values="0 0 0 0 0 0 0 0 0 0 0 0 0 0 0 0 0 0 127 0"/><feOffset dy="1"/><feGaussianBlur stdDeviation="1"/><feComposite in2="hardAlpha" operator="out"/><feColorMatrix type="matrix" values="0 0 0 0 0 0 0 0 0 0 0 0 0 0 0 0 0 0 0.04 0"/><feBlend in2="BackgroundImageFix" mode="normal" result="effect1_dropShadow_1485_110"/><feBlend in="SourceGraphic" in2="effect1_dropShadow_1485_110" mode="normal" result="shape"/></filter><filter id="d" color-interpolation-filters="sRGB" filterUnits="userSpaceOnUse" height="68" width="68" x="192" y="9"><feFlood flood-opacity="0" result="BackgroundImageFix"/><feColorMatrix in="SourceAlpha" result="hardAlpha" type="matrix" values="0 0 0 0 0 0 0 0 0 0 0 0 0 0 0 0 0 0 127 0"/><feOffset dy="1"/><feGaussianBlur stdDeviation="1"/><feComposite in2="hardAlpha" operator="out"/><feColorMatrix type="matrix" values="0 0 0 0 0 0 0 0 0 0 0 0 0 0 0 0 0 0 0.04 0"/><feBlend in2="BackgroundImageFix" mode="normal" result="effect1_dropShadow_1485_110"/><feBlend in="SourceGraphic" in2="effect1_dropShadow_1485_110" mode="normal" result="shape"/></filter><filter id="e" color-interpolation-filters="sRGB" filterUnits="userSpaceOnUse" height="52" width="52" x="56" y="17"><feFlood flood-opacity="0" result="BackgroundImageFix"/><feColorMatrix in="SourceAlpha" result="hardAlpha" type="matrix" values="0 0 0 0 0 0 0 0 0 0 0 0 0 0 0 0 0 0 127 0"/><feOffset dy="1"/><feGaussianBlur stdDeviation="1"/><feComposite in2="hardAlpha" operator="out"/><feColorMatrix type="matrix" values="0 0 0 0 0 0 0 0 0 0 0 0 0 0 0 0 0 0 0.04 0"/><feBlend in2="BackgroundImageFix" mode="normal" result="effect1_dropShadow_1485_110"/><feBlend in="SourceGraphic" in2="effect1_dropShadow_1485_110" mode="normal" result="shape"/></filter><filter id="f" color-interpolation-filters="sRGB" filterUnits="userSpaceOnUse" height="52" width="52" x="536" y="17"><feFlood flood-opacity="0" result="BackgroundImageFix"/><feColorMatrix in="SourceAlpha" result="hardAlpha" type="matrix" values="0 0 0 0 0 0 0 0 0 0 0 0 0 0 0 0 0 0 127 0"/><feOffset dy="1"/><feGaussianBlur stdDeviation="1"/><feComposite in2="hardAlpha" operator="out"/><feColorMatrix type="matrix" values="0 0 0 0 0 0 0 0 0 0 0 0 0 0 0 0 0 0 0.04 0"/><feBlend in2="BackgroundImageFix" mode="normal" result="effect1_dropShadow_1485_110"/><feBlend in="SourceGraphic" in2="effect1_dropShadow_1485_110" mode="normal" result="shape"/></filter><filter id="g" color-interpolation-filters="sRGB" filterUnits="userSpaceOnUse" height="60" width="60" x="120" y="13"><feFlood flood-opacity="0" result="BackgroundImageFix"/><feColorMatrix in="SourceAlpha" result="hardAlpha" type="matrix" values="0 0 0 0 0 0 0 0 0 0 0 0 0 0 0 0 0 0 127 0"/><feOffset dy="1"/><feGaussianBlur stdDeviation="1"/><feComposite in2="hardAlpha" operator="out"/><feColorMatrix type="matrix" values="0 0 0 0 0 0 0 0 0 0 0 0 0 0 0 0 0 0 0.04 0"/><feBlend in2="BackgroundImageFix" mode="normal" result="effect1_dropShadow_1485_110"/><feBlend in="SourceGraphic" in2="effect1_dropShadow_1485_110" mode="normal" result="shape"/></filter><filter id="h" color-interpolation-filters="sRGB" filterUnits="userSpaceOnUse" height="44" width="44" x="0" y="21"><feFlood flood-opacity="0" result="BackgroundImageFix"/><feColorMatrix in="SourceAlpha" result="hardAlpha" type="matrix" values="0 0 0 0 0 0 0 0 0 0 0 0 0 0 0 0 0 0 127 0"/><feOffset dy="1"/><feGaussianBlur stdDeviation="1"/><feComposite in2="hardAlpha" operator="out"/><feColorMatrix type="matrix" values="0 0 0 0 0 0 0 0 0 0 0 0 0 0 0 0 0 0 0.04 0"/><feBlend in2="BackgroundImageFix" mode="normal" result="effect1_dropShadow_1485_110"/><feBlend in="SourceGraphic" in2="effect1_dropShadow_1485_110" mode="normal" result="shape"/></filter><filter id="i" color-interpolation-filters="sRGB" filterUnits="userSpaceOnUse" height="44" width="44" x="600" y="21"><feFlood flood-opacity="0" result="BackgroundImageFix"/><feColorMatrix in="SourceAlpha" result="hardAlpha" type="matrix" values="0 0 0 0 0 0 0 0 0 0 0 0 0 0 0 0 0 0 127 0"/><feOffset dy="1"/><feGaussianBlur stdDeviation="1"/><feComposite in2="hardAlpha" operator="out"/><feColorMatrix type="matrix" values="0 0 0 0 0 0 0 0 0 0 0 0 0 0 0 0 0 0 0.04 0"/><feBlend in2="BackgroundImageFix" mode="normal" result="effect1_dropShadow_1485_110"/><feBlend in="SourceGraphic" in2="effect1_dropShadow_1485_110" mode="normal" result="shape"/></filter><linearGradient id="j" gradientUnits="userSpaceOnUse" x1="564.093" x2="564.093" y1="42.5407" y2="50.4942"><stop offset="0" stop-color="#35b8f1"/><stop offset="1" stop-color="#28a8ea"/></linearGradient><linearGradient id="k" gradientUnits="userSpaceOnUse" x1="554.6" x2="560.609" y1="36.9179" y2="47.3263"><stop offset="0" stop-color="#1784d9"/><stop offset=".5" stop-color="#107ad5"/><stop offset="1" stop-color="#0a63c9"/></linearGradient><clipPath id="l"><path d="m72.25 34.5h20v15h-20z"/></clipPath><clipPath id="m"><path d="m553 33.75h18v16.7442h-18z"/></clipPath><mask id="n" fill="#fff"><path d="m325.507 39.7597c-.654.1912-1.375.1944-2.049.1654-.785-.0337-1.615-.1345-2.34-.4616-.595-.2692-1.074-.7548-.823-1.4562.176-.4946.567-.9366 1.019-1.1856.508-.2802 1.066-.2347 1.575.0185.571.2844 1.045.747 1.476 1.2137.225.2448.441.4989.653.7555.098.118.763.7927.489.9503zm10.872.2411c-1.006-.2378-2.195-.1526-3.203-.3165-1.589-.2583-3.955-2.1408-5.237-4.0542-.891-1.3296-1.317-2.6838-1.998-4.334-.475-1.1517-1.512-4.7948-2.962-3.0896-.597.7023-1.265 3.014-1.754 2.9814-.361.0855-.42-.6309-.535-.9371-.207-.5559-.318-1.1991-.596-1.7233-.223-.419-.515-.9209-.962-1.1246-.797-.4166-1.758.8391-2.235 2.328-.204.7984-1.575 2.3461-2.172 2.7204-2.716 1.7038-8.168 3.4987-8.725 9.4757-.002.0248 0 .1002.093.0323.65-.4786 8.025-5.8777 3.292 4.5586-2.9 6.3938 11.1 10.4654 11.82 10.482.097.0022.09-.0426.093-.0722 1.117-10.2049 12.154-9.1306 14.724-11.5746 2.547-2.4217 2.599-4.7659.357-5.3523z" fill="#fff"/></mask><g filter="url(#a)"><circle cx="322" cy="42" fill="#fff" r="40"/><circle cx="322" cy="42" r="39.5" stroke="#dfe3e8"/></g><path d="m325.507 39.7597c-.654.1912-1.375.1944-2.049.1654-.785-.0337-1.615-.1345-2.34-.4616-.595-.2692-1.074-.7548-.823-1.4562.176-.4946.567-.9366 1.019-1.1856.508-.2802 1.066-.2347 1.575.0185.571.2844 1.045.747 1.476 1.2137.225.2448.441.4989.653.7555.098.118.763.7927.489.9503zm10.872.2411c-1.006-.2378-2.195-.1526-3.203-.3165-1.589-.2583-3.955-2.1408-5.237-4.0542-.891-1.3296-1.317-2.6838-1.998-4.334-.475-1.1517-1.512-4.7948-2.962-3.0896-.597.7023-1.265 3.014-1.754 2.9814-.361.0855-.42-.6309-.535-.9371-.207-.5559-.318-1.1991-.596-1.7233-.223-.419-.515-.9209-.962-1.1246-.797-.4166-1.758.8391-2.235 2.328-.204.7984-1.575 2.3461-2.172 2.7204-2.716 1.7038-8.168 3.4987-8.725 9.4757-.002.0248 0 .1002.093.0323.65-.4786 8.025-5.8777 3.292 4.5586-2.9 6.3938 11.1 10.4654 11.82 10.482.097.0022.09-.0426.093-.0722 1.117-10.2049 12.154-9.1306 14.724-11.5746 2.547-2.4217 2.599-4.7659.357-5.3523z" fill="#fa5320"/><path d="m323.458 39.9251-.001.0225zm-2.34-.4616.01-.0205zm-.823-1.4562.021.0076zm1.019-1.1856.011.0196zm1.575.0185.01-.0201zm1.476 1.2137.016-.0152zm.653.7555-.017.0143zm8.158.8749-.004.0222zm-5.237-4.0542-.019.0125zm-1.998-4.334-.021.0086zm-2.962-3.0896-.017-.0145zm-1.754 2.9814-.005-.0228.007.0004zm-.535-.9371-.021.0079zm-.596-1.7233.02-.0105zm-.962-1.1246-.009.0205-.001-.0006zm-2.235 2.328-.022-.0055v-.0013zm-2.172 2.7204-.012-.019zm-8.725 9.4757-.022-.0021zm.093.0323.013.0181zm3.292 4.5586-.02-.0093zm11.82 10.482v.0225zm.093-.0722.023.0025zm14.724-11.5746-.015-.0163zm-10.509-5.5719c-.657.1924-1.382.1954-2.056.1664l.002-.0449c.674.029 1.392.0256 2.042-.1646zm-2.056.1664c-.786-.0338-1.62-.1347-2.348-.4637l.019-.0409c.72.3254 1.547.426 2.331.4597zm-2.348-.4637c-.3-.1355-.572-.3264-.738-.5739-.167-.2485-.225-.5527-.098-.9102l.043.0151c-.123.3439-.067.6332.092.8701.159.238.424.4244.72.558zm-.836-1.4841c.179-.5001.574-.9462 1.03-1.1978l.022.0393c-.448.2466-.835.6843-1.009 1.1736zm1.03-1.1978c.516-.2846 1.082-.2376 1.596.0181l-.02.0402c-.504-.2507-1.054-.2948-1.554-.019zm1.596.0181c.575.2864 1.052.7516 1.482 1.2186l-.033.0304c-.43-.4664-.902-.9263-1.469-1.2088zm1.482 1.2186c.226.2452.442.4997.654.7563l-.034.0287c-.213-.2565-.427-.5102-.653-.7546zm.654.7563c.048.0569.241.2578.385.4617.073.102.135.2073.162.2984.013.0456.018.0895.009.1284-.01.0399-.033.0729-.073.0957l-.022-.039c.029-.0166.044-.0392.051-.0668.006-.0286.003-.0641-.009-.1058-.024-.0835-.083-.1838-.154-.2849-.144-.2024-.332-.3978-.383-.459zm11.339 1.2277c-.501-.1184-1.048-.1565-1.597-.1855-.548-.0288-1.099-.0485-1.605-.1307l.008-.0444c.502.0817 1.05.1013 1.599.1303.549.0289 1.1.0671 1.605.1866zm-3.202-.3162c-.799-.1301-1.792-.668-2.743-1.4109-.952-.7434-1.866-1.6941-2.509-2.653l.038-.025c.639.9545 1.55 1.9017 2.499 2.6426.949.7412 1.934 1.2737 2.723 1.4019zm-5.252-4.0639c-.893-1.3321-1.319-2.6899-2-4.3379l.042-.0171c.682 1.6523 1.106 3.0028 1.996 4.33zm-2-4.3379c-.239-.579-.615-1.7735-1.114-2.6133-.249-.4202-.527-.7458-.827-.8625-.15-.0581-.306-.0647-.468-.0054-.163.0596-.335.1862-.515.3976l-.034-.0291c.183-.215.361-.3476.533-.4106.174-.0633.341-.0562.5.0056.316.1227.6.4602.85.8815.501.8434.88 2.0463 1.117 2.6191zm-2.924-3.0836c-.147.1732-.3.4471-.454.762-.154.3146-.309.6677-.46.999-.152.3307-.3.6399-.442.8645-.07.1122-.14.2044-.208.2678-.068.063-.138.1006-.208.0959l.003-.0448c.052.0035.11-.0241.174-.084.064-.0595.131-.148.201-.2589.14-.2217.288-.5283.439-.8592.151-.3303.306-.6848.461-1.0001.154-.315.309-.5934.46-.7713zm-1.765 2.9887c-.1.0234-.179-.0088-.242-.0735-.061-.0635-.108-.1583-.145-.2625-.038-.1045-.067-.2212-.094-.3299-.028-.1094-.053-.2101-.081-.2852l.042-.0157c.03.078.055.1817.082.29.027.109.057.2235.093.3256.037.1026.081.19.135.2464.054.0551.118.0804.199.0611zm-.562-.9511c-.104-.2789-.184-.5801-.272-.875-.088-.2956-.185-.5856-.323-.8457l.04-.021c.14.2642.238.5578.326.8539.089.2967.168.5951.271.8721zm-.595-1.7207c-.111-.2093-.239-.4381-.394-.6398-.156-.2018-.338-.3751-.557-.4748l.018-.0409c.229.1039.416.2834.574.4882.158.205.287.4366.399.6463zm-.952-1.1152c-.193-.1007-.396-.1007-.6-.0204-.206.0807-.413.2424-.611.4649-.397.4449-.755 1.128-.993 1.8705l-.043-.0137c.24-.7465.6-1.4357 1.003-1.8867.201-.2255.413-.3926.627-.4768.215-.0844.431-.0851.637.0224zm-2.203 2.3137c-.052.203-.178.4518-.345.7157-.167.2642-.377.545-.598.8123-.444.5339-.937 1.0167-1.239 1.2058l-.024-.038c.295-.1852.785-.6634 1.228-1.1965.221-.2662.43-.5454.595-.8076.167-.2626.289-.5067.339-.7028zm-2.182 2.7338c-.68.4264-1.531.8588-2.432 1.3595-.902.501-1.854 1.0712-2.738 1.7745-1.769 1.4061-3.267 3.3439-3.544 6.3248l-.045-.0042c.279-2.9962 1.785-4.9443 3.561-6.3558.887-.7055 1.842-1.2771 2.744-1.7786.903-.5019 1.752-.9327 2.43-1.3582zm-8.714 9.4587c-.001.0051-.001.0126 0 .0199.001.0078.003.0123.005.0142 0 .0003.001.0021.008.0011.008-.0013.022-.0069.043-.023l.027.0362c-.024.0178-.045.0282-.063.0311-.02.0032-.037-.0027-.049-.0158-.01-.0116-.014-.0263-.015-.0375-.002-.0118-.002-.0229-.001-.0303zm.056.0122c.163-.1198.747-.5476 1.457-.9586.709-.4104 1.548-.8065 2.22-.8595.336-.0265.635.0328.853.223.219.1904.354.5081.372.9886.036.9597-.392 2.5833-1.576 5.1924l-.04-.0185c1.183-2.609 1.607-4.2241 1.571-5.1723-.017-.4734-.15-.777-.356-.9563s-.49-.2381-.821-.2121c-.661.0521-1.492.4433-2.201.8536-.707.4098-1.29.8363-1.452.9559zm3.326 4.5859c-.72 1.5897-.392 3.0346.521 4.3106.913 1.2771 2.41 2.3841 4.023 3.2931 1.612.9088 3.338 1.6186 4.705 2.1023.684.2418 1.278.427 1.724.5523.222.0626.408.1102.549.1424.142.0324.236.0487.279.0497l-.001.0449c-.048-.0011-.147-.0186-.288-.0508-.142-.0324-.328-.0802-.551-.143-.447-.1255-1.042-.3111-1.727-.5532-1.369-.4842-3.097-1.195-4.712-2.1055-1.615-.9102-3.119-2.021-4.038-3.3061-.92-1.2862-1.253-2.748-.524-4.3552zm11.801 10.4504c.046.001.059-.0095.063-.0151.002-.0033.004-.0077.005-.0141 0-.0033.001-.0067.001-.0106 0-.0036 0-.0083.001-.0125l.045.005c-.001.0032-.001.0064-.001.0109-.001.0042-.001.0091-.002.0142-.001.0102-.005.0224-.013.0337-.018.0237-.05.0345-.1.0334zm.07-.0522c.28-2.5556 1.181-4.4063 2.416-5.7826 1.235-1.376 2.803-2.2764 4.415-2.9334 1.612-.6569 3.269-1.0711 4.681-1.4733.707-.2012 1.352-.3993 1.901-.6232.549-.2241 1-.4733 1.318-.776l.031.0325c-.324.3084-.781.5602-1.332.7851s-1.198.4236-1.905.6248c-1.415.4027-3.069.816-4.677 1.4717-1.608.6555-3.17 1.5527-4.399 2.9218-1.228 1.3688-2.126 3.2106-2.404 5.7575zm14.731-11.5885c1.272-1.2091 1.917-2.3956 1.967-3.3493.026-.4763-.097-.8944-.364-1.2296-.267-.3354-.68-.5897-1.237-.7353l.011-.0435c.565.1475.987.4061 1.261.7508.275.3449.4.7742.374 1.26-.051.9703-.706 2.1669-1.981 3.3794z" fill="#dfe3e8" mask="url(#n)"/><g filter="url(#b)"><rect fill="#fff" height="56" rx="28" width="56" x="466" y="14"/><rect height="55" rx="27.5" stroke="#eef0f3" width="55" x="466.5" y="14.5"/></g><path d="m504.467 42.4438v-.8874c0-.7558-.295-1.446-.853-2.1032-.338-.3775-.724-.7089-1.148-.986-.23-.1643-.493-.3286-.788-.4929-.23-.0986-.426-.2301-.656-.3287-.651-.2743-1.32-.5049-2.002-.6901.099.2958.164.6244.23.9202l.197.9859 1.083.4272c.164.0658.328.1315.492.2301.066.0328.164.0657.23.0986.295.1643.525.3286.754.4929.853.5587 1.378 1.216 1.542 1.8733-.164.6901-.689 1.3474-1.542 1.9061l.263.723c.098.2957.164.6244.197.9202.424-.2771.81-.6085 1.148-.986.558-.6572.853-1.3474.853-2.1032zm-12.797 5.1267-1.05-.9202.23.8216zm1.903-.7558.394.2957.821.493c.032.0328.065.0657.098.0657.472-.0001.943-.0331 1.411-.0986l.82-.0986.985-.1972.918-.23c.682-.1852 1.351-.4158 2.002-.6901l-.23-.8874c-.033-.0657-.033-.1643-.065-.2629l-.197-.4929c-.328.1643-.722.2957-1.083.4272-.263.0986-.558.1643-.82.23-.033.0329-.066.0329-.099.0329-.328.0986-.623.1643-.951.1972l-.493.0986c-.492.0986-.984.1314-1.509.1972l-1.608.0657c-.525 0-1.05-.0329-1.575-.0657.361.3286.788.6244 1.181.9202zm-6.398-8.2817c0 .0657.033.1643.066.2629l.197.4929c.328-.1643.721-.2957 1.082-.4272.263-.0986.558-.1643.821-.23.032-.0329.065-.0329.098-.0329.328-.0657.624-.1643.952-.1972l.492-.0986 1.509-.1972 1.575-.0328 1.608.0328c-.361-.3286-.787-.6244-1.181-.9202l-.427-.2957-.787-.493c-.033-.0329-.066-.0657-.099-.0657-.492 0-.951.0657-1.411.0986l-.82.0986-.984.1972-.919.23c-.682.1852-1.351.4158-2.002.6901z" fill="#2f577e"/><path d="m496.297 36.4299 1.05.9202-.23-.8216zm-11.878 5.554c.164-.6573.689-1.3145 1.542-1.8732l-.263-.723c-.098-.2958-.164-.6244-.229-.9202-.427.2958-.821.6573-1.116.9859-.558.6573-.853 1.3474-.853 2.1033v.8873c0 .7559.295 1.446.853 2.1033.295.3286.689.6573 1.116.9859l.82.493c.23.0986.427.23.656.3286.651.2744 1.32.5049 2.002.6902-.099-.2958-.164-.6245-.23-.9202l-.197-.9859-1.082-.4273c-.165-.0657-.329-.1314-.493-.23-.065-.0329-.164-.0658-.229-.0986-.296-.1643-.525-.3287-.755-.493-.853-.5587-1.378-1.2159-1.542-1.9061z" fill="#2f577e"/><path d="m496.297 47.5706-1.411.0986c.23.1643.492.2958.722.3944zm5.414-12.6854-.624-.6245c-.525-.5258-1.246-.8216-2.1-.8873-.459-.0328-.951.0329-1.476.1315-.295.0328-.624.1314-.919.1972-.23.0657-.459.1643-.722.2629-.59.23-1.247.5258-1.903.8873l.853.5258c.263.1643.525.3615.788.5587.361-.1972.722-.3615 1.083-.493l.492-.1971c.098-.0329.197-.0329.262-.0658.296-.0986.591-.1643.886-.23.985-.1643 1.838-.0657 2.428.2629" fill="#f4b563"/><path d="m500.759 35.2136c.328.5916.427 1.4461.263 2.432.229.0986.426.23.656.3286.295.1643.558.3286.788.493.098-.5259.164-1.0188.131-1.4789-.066-.8545-.361-1.5775-.886-2.1033-.099-.1314-.197-.1972-.328-.2958m-4.299 11.108.492-.0986c.329-.0328.624-.0986.952-.1972.033 0 .066 0 .098-.0328.329-.3287.624-.6902.919-1.0517l.492-.6901.591-.7887.492-.8216c.361-.6573.656-1.3146.886-1.9061l-.755-.493c-.065-.0329-.164-.0657-.229-.0986-.164-.0986-.328-.1643-.492-.23-.132.3615-.296.723-.493 1.0845-.098.23-.229.4929-.393.723 0 .0328-.033.0657-.066.0986-.131.2629-.328.5258-.492.8216l-.295.3943-.919 1.1831c-.361.4273-.722.8216-1.116 1.1831-.361.3944-.755.7559-1.181 1.1174zm-5.414-9.2676c.46-.0657.919-.0986 1.411-.0986-.23-.1643-.492-.2958-.722-.3943-.229.1314-.459.3286-.689.4929zm-4.462 12.3568c-.328-.5915-.427-1.446-.263-2.4319-.229-.0986-.426-.2301-.656-.3286l-.82-.493c-.066.5258-.132 1.0188-.099 1.4789.066.8544.361 1.5774.886 2.1033l.624.6244c.525.5258 1.246.8216 2.1.8873.459.0329.951-.0329 1.476-.0986l.919-.23c.23-.0658.459-.1644.722-.263.59-.23 1.247-.5258 1.87-.8873l-.82-.4929-.788-.5587-1.083.4601-.492.1972c-.098.0328-.197.0657-.262.0657-.296.0986-.591.1643-.886.23-.985.1643-1.838.0658-2.428-.2629zm-.492-4.4037c.065.0328.164.0657.229.0986.164.0985.328.1643.492.23.132-.3615.296-.723.493-1.0845.098-.2301.229-.493.393-.723 0-.0329.033-.0657.066-.0986.131-.2629.328-.5258.492-.8216l.295-.3944.919-1.1831c.361-.4272.722-.8216 1.116-1.1831.361-.3943.755-.7558 1.181-1.1173l-1.509.1971-.492.0986c-.329.0329-.624.1315-.952.1972-.033 0-.066 0-.098.0329-.329.3286-.624.6901-.919 1.0516l-.525.6902c-.164.2629-.361.5258-.558.7887l-.492.8216c-.361.6573-.656 1.3146-.886 1.9061z" fill="#f4b563"/><path d="m488.422 44.3171c-.066-.4682-.099-.9404-.099-1.4132-.164.2301-.295.493-.393.723.131.2301.328.4601.492.6902zm-1.214-9.1033c.59-.3286 1.443-.4272 2.428-.2629.098-.2301.23-.4272.328-.6573.164-.2958.328-.5587.492-.7887-.525-.0986-1.017-.1643-1.476-.1315-.854.0657-1.575.3615-2.1.8873l-.624.6245c-.525.5258-.82 1.2488-.886 2.1032-.033.4601.033.9531.099 1.4789l.229.9202c.066.23.164.4601.263.723.23.5916.525 1.2488.886 1.9061l.492-.8545.558-.7887-.46-1.0845-.196-.4929c-.033-.0986-.066-.1972-.066-.263-.099-.2957-.164-.5915-.23-.8873-.164-.9859-.065-1.8404.263-2.4319zm12.337 4.4695.099 1.4131c.164-.23.295-.4929.393-.723-.131-.23-.328-.4601-.492-.6901z" fill="#5cafcd"/><path d="m497.675 38.8946-.098-.493c-.033-.3286-.132-.6244-.197-.953 0-.0329 0-.0657-.033-.0986-.328-.3286-.689-.6244-1.05-.9202l-.689-.4929-.788-.5916-.853-.4929c-.623-.3616-1.279-.6573-1.87-.8874l-.492.7559c-.033.0657-.066.1643-.099.23-.098.1644-.164.3287-.229.493.361.1315.722.2958 1.082.493.23.0985.493.23.722.3943.033 0 .066.0329.099.0658.262.1314.525.3286.787.4929.164.0986.296.1972.427.2958l1.181.9202c.427.3615.82.723 1.181 1.1173.394.3615.755.7559 1.116 1.1831zm-7.383 6.2113.099.4929c.033.3287.131.6244.197.9531 0 .0328 0 .0657.032.0986.329.3286.689.6244 1.05.9202l.689.4929.788.5916.82.4929c.657.3615 1.313.6573 1.903.8873l.493-.7558c.032-.0657.065-.1643.098-.2301.098-.1643.164-.3286.23-.4929-.361-.1315-.722-.2958-1.083-.493-.23-.0986-.492-.23-.722-.3943-.033 0-.066-.0329-.098-.0658-.263-.1314-.525-.3286-.821-.4929l-.393-.2958-1.182-.9202c-.426-.3615-.82-.723-1.181-1.1174-.394-.3615-.755-.7558-1.116-1.1831zm10.796 4.6338.623-.6244c.525-.5259.82-1.2489.886-2.1033.033-.4601-.033-.9531-.131-1.4789-.033-.2958-.099-.6244-.197-.9202-.066-.23-.164-.4601-.263-.723-.229-.5915-.525-1.2488-.886-1.8732l-.492.8216-.59.7887c.196.3615.361.723.492 1.0845l.197.493c.032.0986.032.1971.065.2629.099.2957.164.5915.23.8873.164.9859.066 1.8404-.263 2.4319-.59.3287-1.443.4273-2.428.2629-.098.2301-.229.4273-.328.6573-.164.2958-.328.5587-.492.7887.525.0986 1.017.1644 1.477.1315.853-.0657 1.575-.3615 2.1-.8873z" fill="#5cafcd"/><path d="m489.177 41.5892-.296.4272-.492.7888c-.033.0328-.065.0657-.065.0986 0 .4727.033.9449.098 1.4131l.098.8216.197.9859.23.9202c.185.6828.415 1.3526.689 2.0047l.886-.2301c.066-.0328.164-.0328.263-.0657l.492-.1972c-.164-.3286-.296-.723-.427-1.0845-.098-.2629-.164-.5587-.23-.8216-.032-.0328-.032-.0657-.032-.0986-.066-.3286-.164-.6244-.197-.953l-.099-.493c-.098-.4929-.131-.9859-.197-1.5117l-.065-1.5775.065-1.6103c-.328.3615-.623.7887-.918 1.1831zm10.368 2.7277-.918 1.0516.82-.23zm-11.123-4.6338.919-1.0516-.821.23zm10.369 2.7277.295-.3944.492-.8216c.033-.0328.066-.0657.066-.0986 0-.46-.066-.953-.099-1.4131l-.098-.8216-.197-.9859-.23-.9202c-.184-.6828-.415-1.3526-.689-2.0047l-.886.2301c-.065.0328-.164.0328-.262.0657l-.492.1972c.164.3286.295.723.426 1.0845.099.2629.164.5587.23.8216.033.0328.033.0657.033.0986.065.3286.164.6244.197.953l.098.493.197 1.5117.033 1.6103-.033 1.5775c.328-.3615.623-.7887.919-1.1831zm-1.28-8.939c-.328-.4272-.656-.8216-.984-1.1173-.657-.5587-1.346-.8545-2.1-.8545h-.886c-.755 0-1.444.2958-2.1.8545-.328.2957-.689.6901-.985 1.1173l-.492.8216c-.098.2301-.229.4273-.328.6573-.274.6521-.504 1.3219-.689 2.0047.295-.0986.623-.1643.919-.23l.984-.1972.427-1.0845c.065-.1644.131-.3287.229-.493.033-.0657.066-.1643.099-.23.164-.2958.328-.5259.492-.7559.558-.8545 1.214-1.3803 1.87-1.5446.689.1643 1.346.6901 1.903 1.5446l.722-.2629m-3.051 18.7981h.886c.754 0 1.443-.2958 2.1-.8545.328-.2957.656-.6901.984-1.1502.164-.23.328-.493.492-.7887.099-.2301.23-.4273.328-.6573.274-.6521.505-1.3219.689-2.0047l-.918.23-.985.1972-.426 1.0845c-.066.1644-.131.3287-.23.493-.033.0657-.066.1643-.098.23-.164.2958-.328.5259-.493.7559-.557.8545-1.214 1.3803-1.903 1.5446-.656-.1643-1.312-.6901-1.87-1.5446l-.722.2629-.919.1972c.277.4248.608.8115.985 1.1502.656.5587 1.345.8545 2.1.8545z" fill="#47b178"/><g filter="url(#c)"><rect fill="#fff" height="64" rx="32" width="64" x="386" y="10"/><rect height="63" rx="31.5" stroke="#eef0f3" width="63" x="386.5" y="10.5"/></g><path d="m424.599 37.8989v-2.8572c.746-.3524 1.269-1.1069 1.269-1.9825v-.0661c0-1.2083-.989-2.197-2.198-2.197h-.065c-1.209 0-2.198.9887-2.198 2.197v.0661c0 .8756.523 1.6302 1.269 1.9825v2.8573c-1.111.1715-2.125.6295-2.962 1.3035l-7.845-6.1027c.051-.1987.087-.4035.088-.6183.001-1.3688-1.107-2.4797-2.475-2.4815-1.369-.0017-2.48 1.1064-2.482 2.4752-.002 1.3687 1.106 2.4797 2.475 2.4814.446.0005.859-.1262 1.221-.332l7.717 6.0034c-.656.9906-1.041 2.1773-1.041 3.4547 0 1.3374.423 2.5744 1.137 3.5919l-2.347 2.3469c-.185-.0556-.378-.0946-.582-.0946-1.125 0-2.036.9118-2.036 2.0366 0 1.1247.911 2.0365 2.036 2.0365s2.037-.9118 2.037-2.0365c0-.2037-.039-.3963-.095-.5819l2.322-2.3214c1.053.8044 2.366 1.2876 3.794 1.2876 3.46 0 6.265-2.805 6.265-6.2651 0-3.1323-2.301-5.7201-5.304-6.1838zm-.961 9.3958c-1.774 0-3.213-1.4381-3.213-3.212 0-1.774 1.439-3.2121 3.213-3.2121 1.773 0 3.212 1.4381 3.212 3.2121 0 1.7739-1.439 3.212-3.212 3.212z" fill="#ff5c35"/><g filter="url(#d)"><rect fill="#fff" height="64" rx="32" width="64" x="194" y="10"/><rect height="63" rx="31.5" stroke="#eef0f3" width="63" x="194.5" y="10.5"/></g><path clip-rule="evenodd" d="m236.381 38.7359c0 5.1887-3.431 8.7374-8.338 8.7374-2.332 0-4.255-.9377-4.974-2.1095l.034 1.205v7.4312h-5.009v-19.2145c0-.2673-.068-.3352-.378-.3352h-1.716v-4.0833h4.187c1.921 0 2.402 1.6067 2.538 2.3104.755-1.2383 2.744-2.6774 5.558-2.6774 4.838-.0015 8.098 3.5125 8.098 8.7359zm-5.112.0333c0-2.7786-1.853-4.6859-4.187-4.6859-1.921 0-4.083 1.2383-4.083 4.7205 0 2.2758 1.303 4.6527 4.015 4.6527 1.99-.0015 4.255-1.4074 4.255-4.6873z" fill="#017737" fill-rule="evenodd"/><g filter="url(#e)"><rect fill="#fff" height="48" rx="24" width="48" x="58" y="18"/><rect height="47" rx="23.5" stroke="#eef0f3" width="47" x="58.5" y="18.5"/></g><g clip-path="url(#l)"><path d="m73.6136 49.5h3.1819v-7.7273l-4.5455-3.4091v9.7728c0 .7545.6114 1.3636 1.3636 1.3636z" fill="#4285f4"/><path d="m87.7045 49.5h3.1818c.7546 0 1.3637-.6114 1.3637-1.3636v-9.7728l-4.5455 3.4091" fill="#34a853"/><path d="m87.7045 35.8636v5.9091l4.5455-3.4091v-1.8182c0-1.6863-1.925-2.6477-3.2727-1.6363" fill="#fbbc04"/><path d="m76.7955 41.7727v-5.9091l5.4545 4.091 5.4546-4.091v5.9091l-5.4546 4.0909" fill="#ea4335"/><path d="m72.25 36.5454v1.8182l4.5455 3.4091v-5.9091l-1.2728-.9545c-1.35-1.0114-3.2727-.05-3.2727 1.6363z" fill="#c5221f"/></g><g filter="url(#f)"><rect fill="#fff" height="48" rx="24" width="48" x="538" y="18"/><rect height="47" rx="23.5" stroke="#eef0f3" width="47" x="538.5" y="18.5"/></g><g clip-path="url(#m)"><path d="m571 42.5407c.001-.1408-.072-.2718-.192-.3453h-.002l-.007-.0042-6.238-3.6921c-.026-.0182-.054-.0349-.083-.0498-.241-.1243-.527-.1243-.768 0-.029.015-.057.0316-.084.0498l-6.237 3.6921-.007.0042c-.191.1185-.249.3691-.131.5598.035.0561.083.1029.14.1363l6.237 3.6921c.027.018.055.0346.084.0498.241.1242.527.1242.768 0 .029-.0152.057-.0318.084-.0498l6.237-3.6921c.124-.0727.2-.2066.199-.3508z" fill="#0a2767"/><path d="m558.116 40.0755h4.093v3.752h-4.093zm12.047-3.8139v-1.7163c.01-.4291-.33-.785-.759-.7953h-10.622c-.429.0103-.769.3662-.759.7953v1.7163l6.279 1.6744z" fill="#0364b8"/><path d="m558.023 36.2616h4.186v3.7675h-4.186z" fill="#0078d4"/><path d="m566.395 36.2616h-4.186v3.7675l4.186 3.7674h3.768v-3.7674z" fill="#28a8ea"/><path d="m562.209 40.0291h4.186v3.7674h-4.186z" fill="#0078d4"/><path d="m562.209 43.7965h4.186v3.7674h-4.186z" fill="#0364b8"/><path d="m558.116 43.8275h4.093v3.4108h-4.093z" fill="#14447d"/><path d="m566.395 43.7965h3.768v3.7674h-3.768z" fill="#0078d4"/><path d="m570.808 42.8684-.008.0042-6.237 3.5079c-.027.0168-.055.0327-.084.0469-.106.0505-.221.0789-.338.0837l-.341-.1992c-.028-.0145-.056-.0305-.083-.0482l-6.321-3.6075h-.003l-.207-.1155v7.1012c.003.4738.39.8553.864.8523h12.1c.007 0 .013-.0034.021-.0034.1-.0064.198-.027.293-.0611.04-.0173.08-.0377.117-.0611.028-.0159.077-.0507.077-.0507.214-.1586.341-.4092.342-.676v-7.1012c0 .1358-.073.261-.192.3277z" fill="url(#j)"/><path d="m570.665 42.5126v.4354l-6.522 4.4904-6.752-4.7792c0-.0024-.002-.0042-.004-.0042l-.62-.3726v-.3139l.256-.0042.54.3097.012.0042.046.0293s6.346 3.621 6.363 3.6293l.243.1423c.021-.0083.042-.0167.067-.0251.013-.0083 6.3-3.5456 6.3-3.5456z" fill="#0a2767" opacity=".5"/><path d="m570.808 42.8684-.008.0046-6.237 3.508c-.027.0167-.055.0326-.084.0468-.242.1184-.525.1184-.767 0-.029-.0142-.057-.0298-.084-.0468l-6.237-3.508-.008-.0046c-.12-.0652-.196-.1907-.197-.3277v7.1012c.003.4737.389.8553.863.8523h12.088c.474.003.86-.3786.863-.8523v-7.1012c0 .1358-.073.261-.192.3277z" fill="#1490df"/><path d="m564.654 46.3291-.093.0523c-.027.0172-.055.033-.084.0473-.103.0505-.215.0801-.329.0871l2.373 2.8063 4.139.9975c.114-.0857.204-.1983.263-.3277z" fill="#000" opacity=".1"/><path d="m565.077 46.0913-.516.2901c-.027.0172-.055.033-.084.0473-.103.0505-.215.0801-.329.0871l1.112 3.0654 5.402.7372c.213-.1598.338-.4104.338-.6765v-.0917z" fill="#000" opacity=".05"/><path d="m558.061 50.4942h12.075c.185.0009.367-.0578.517-.1675l-6.853-4.014c-.029-.0144-.057-.0305-.084-.0481l-6.321-3.6075h-.003l-.206-.1164v7.0769c0 .4837.391.8761.875.8766z" fill="#28a8ea"/><g fill="#000"><path d="m563.046 37.8661v8.9289c0 .313-.191.5944-.481.7116-.09.0387-.187.0586-.285.0586h-5.094v-10.0478h.837v-.4186h4.257c.423.0016.766.3444.766.7673z" opacity=".1"/><path d="m562.628 38.2847v8.9289c.001.1011-.02.2012-.063.293-.116.2865-.394.4745-.703.4759h-4.676v-10.4651h4.676c.121-.0012.241.0291.347.0879.257.1293.419.3921.419.6794z" opacity=".2"/><path d="m562.628 38.2847v8.0917c-.002.4227-.343.7653-.766.7689h-4.676v-9.6279h4.676c.121-.0012.241.0291.347.0879.257.1293.419.3921.419.6794z" opacity=".2"/><path d="m562.209 38.2847v8.0916c0 .4234-.342.767-.766.769h-4.257v-9.6279h4.257c.424.0003.767.3436.766.7669z" opacity=".2"/></g><path d="m553.767 37.5174h7.675c.424 0 .767.3436.767.7673v7.6747c0 .4238-.343.7673-.767.7673h-7.675c-.423 0-.767-.3435-.767-.7673v-7.6747c0-.4237.344-.7673.767-.7673z" fill="url(#k)"/><path d="m555.398 40.7357c.189-.4029.495-.7401.877-.9682.423-.2424.905-.3632 1.392-.3492.452-.0098.898.1048 1.289.3311.368.2194.664.5407.853.9252.206.4235.308.8897.299 1.3604.01.492-.095.9794-.308 1.4233-.193.3981-.499.7309-.879.9573-.406.2333-.868.3509-1.337.3399-.461.0112-.917-.1047-1.317-.3349-.371-.2196-.671-.5413-.864-.9268-.207-.4174-.311-.8783-.302-1.3441-.009-.4877.093-.9711.297-1.414zm.935 2.273c.1.2547.271.4756.493.6371.225.1576.495.2388.77.2319.293.0116.581-.0724.822-.2394.219-.161.385-.3825.479-.6371.105-.2844.157-.5856.153-.8887.003-.306-.046-.6103-.144-.9-.087-.2616-.248-.4922-.464-.6639-.235-.1749-.523-.2636-.815-.2512-.281-.0073-.557.0746-.788.234-.225.1622-.4.385-.503.6426-.228.5902-.229 1.2444-.003 1.8355z" fill="#fff"/><path d="m566.395 36.2616h3.768v3.7675h-3.768z" fill="#50d9ff"/></g><g filter="url(#g)"><rect fill="#fff" height="56" rx="28" width="56" x="122" y="14"/><rect height="55" rx="27.5" stroke="#eef0f3" width="55" x="122.5" y="14.5"/></g><path clip-rule="evenodd" d="m147.798 34.3763c.847-.8816 2.025-1.4276 3.328-1.4276 1.736 0 3.241.9646 4.051 2.4018.719-.3215 1.498-.4875 2.286-.4871 3.125 0 5.662 2.5561 5.662 5.7103s-2.537 5.7103-5.662 5.7103c-.382 0-.754-.0384-1.119-.1109-.709 1.2636-2.064 2.1221-3.607 2.1221-.629.0012-1.249-.1413-1.814-.4167-.719 1.688-2.392 2.8744-4.34 2.8744-2.036 0-3.762-1.2829-4.428-3.0867-.296.0626-.598.094-.901.0938-2.421 0-4.379-1.987-4.379-4.4274 0-1.6398.882-3.0674 2.19-3.839-.278-.6392-.421-1.3288-.42-2.0256 0-2.8166 2.286-5.093 5.103-5.093 1.649 0 3.125.7861 4.051 2.0063" fill="#00a1e0" fill-rule="evenodd"/><g filter="url(#h)"><rect fill="#fff" height="40" rx="20" width="40" x="2" y="22"/><rect height="39" rx="19.5" stroke="#eef0f3" width="39" x="2.5" y="22.5"/></g><path d="m23.875 34 4.125 4-2.0625.3636-2.0625-.3636-.375-2z" fill="#188038"/><path d="m23.875 38v-4h-6.75c-.6216 0-1.125.4882-1.125 1.0909v13.8182c0 .6027.5034 1.0909 1.125 1.0909h9.75c.6216 0 1.125-.4882 1.125-1.0909v-10.9091z" fill="#34a853"/><path d="m18.25 40.1818v5.2728h7.5v-5.2728zm3.2812 4.3637h-2.3437v-1.2728h2.3437zm0-2.1819h-2.3437v-1.2727h2.3437zm3.2813 2.1819h-2.3437v-1.2728h2.3437zm0-2.1819h-2.3437v-1.2727h2.3437z" fill="#fff"/><g filter="url(#i)"><rect fill="#fff" height="40" rx="20" transform="matrix(-1 0 0 -1 1284 124)" width="40" x="642" y="62"/><rect height="39" rx="19.5" stroke="#eef0f3" transform="matrix(-1 0 0 -1 1283 123)" width="39" x="641.5" y="61.5"/></g><path d="m621.141 35.4501-5.962 2.4671c-.332.1372-.328.6082.005.7405l5.988 2.3743c.526.2086 1.112.2086 1.638 0l5.987-2.3743c.334-.1323.337-.6033.005-.7405l-5.962-2.4671c-.544-.2251-1.155-.2251-1.699 0z" fill="#ffbf00"/><path d="m622.522 42.3286v5.9313c0 .2822.284.4753.546.3714l6.672-2.5897c.152-.0603.252-.2075.252-.3713v-5.9314c0-.2821-.284-.4753-.546-.3713l-6.672 2.5896c-.152.0604-.252.2076-.252.3714z" fill="#26b5f8"/><path d="m620.964 42.6346-1.98.956-.201.0972-4.18 2.0027c-.265.1278-.603-.0653-.603-.3596v-5.5671c0-.1065.055-.1984.128-.2676.03-.0307.065-.0559.101-.0759.1-.0599.242-.0759.363-.028l6.339 2.5113c.322.1278.347.5792.033.731z" fill="#ed3049"/><path d="m620.964 42.6346-1.98.956-4.856-4.0944c.03-.0307.065-.0559.101-.0759.1-.0599.242-.0759.363-.028l6.339 2.5113c.322.1278.347.5792.033.731z" fill="#000" fill-opacity=".25"/></svg>