<svg width="1600" height="720" viewBox="0 0 1600 720" fill="none" xmlns="http://www.w3.org/2000/svg">
<mask id="mask0_1802_640" style="mask-type:alpha" maskUnits="userSpaceOnUse" x="0" y="0" width="1600" height="720">
<path d="M0 0H1600V720H0V0Z" fill="#FCFCFD"/>
</mask>
<g mask="url(#mask0_1802_640)">
<rect width="160" height="40" fill="#FCFCFD" stroke="#EEF0F3" stroke-opacity="0.5"/>
<rect y="40" width="160" height="40" fill="#FCFCFD" stroke="#EEF0F3" stroke-opacity="0.5"/>
<rect y="80" width="160" height="40" fill="#FCFCFD" stroke="#EEF0F3" stroke-opacity="0.5"/>
<rect y="120" width="160" height="40" fill="#FCFCFD" stroke="#EEF0F3" stroke-opacity="0.5"/>
<rect y="160" width="160" height="40" fill="#FCFCFD" stroke="#EEF0F3" stroke-opacity="0.5"/>
<rect y="200" width="160" height="40" fill="#FCFCFD" stroke="#EEF0F3" stroke-opacity="0.5"/>
<rect y="240" width="160" height="40" fill="#FCFCFD" stroke="#EEF0F3" stroke-opacity="0.5"/>
<rect y="280" width="160" height="40" fill="white" fill-opacity="0.5" stroke="#EEF0F3" stroke-opacity="0.6"/>
<rect y="320" width="160" height="40" fill="#FCFCFD" stroke="#EEF0F3" stroke-opacity="0.5"/>
<rect y="360" width="160" height="40" fill="#FCFCFD" stroke="#EEF0F3" stroke-opacity="0.5"/>
<rect y="400" width="160" height="40" fill="#FCFCFD" stroke="#EEF0F3" stroke-opacity="0.5"/>
<rect y="440" width="160" height="40" fill="#FCFCFD" stroke="#EEF0F3" stroke-opacity="0.5"/>
<rect y="480" width="160" height="40" fill="#FCFCFD" stroke="#EEF0F3" stroke-opacity="0.5"/>
<rect y="520" width="160" height="40" fill="#FCFCFD" stroke="#EEF0F3" stroke-opacity="0.5"/>
<rect y="560" width="160" height="40" fill="#FCFCFD" stroke="#EEF0F3" stroke-opacity="0.5"/>
<rect y="600" width="160" height="40" fill="#FCFCFD" stroke="#EEF0F3" stroke-opacity="0.5"/>
<rect y="640" width="160" height="40" fill="#FCFCFD" stroke="#EEF0F3" stroke-opacity="0.5"/>
<rect y="680" width="160" height="40" fill="#FCFCFD" stroke="#EEF0F3" stroke-opacity="0.5"/>
<rect x="160" width="160" height="40" fill="#FCFCFD" stroke="#EEF0F3" stroke-opacity="0.5"/>
<rect x="160" y="40" width="160" height="40" fill="#FCFCFD" stroke="#EEF0F3" stroke-opacity="0.5"/>
<rect x="160" y="80" width="160" height="40" fill="white" fill-opacity="0.5" stroke="#EEF0F3" stroke-opacity="0.6"/>
<rect x="160" y="120" width="160" height="40" fill="#FCFCFD" stroke="#EEF0F3" stroke-opacity="0.5"/>
<rect x="160" y="160" width="160" height="40" fill="#FCFCFD" stroke="#EEF0F3" stroke-opacity="0.5"/>
<rect x="160" y="200" width="160" height="40" fill="#FCFCFD" stroke="#EEF0F3" stroke-opacity="0.5"/>
<rect x="160" y="240" width="160" height="40" fill="#FCFCFD" stroke="#EEF0F3" stroke-opacity="0.5"/>
<rect x="160" y="280" width="160" height="40" fill="#FCFCFD" stroke="#EEF0F3" stroke-opacity="0.5"/>
<rect x="160" y="320" width="160" height="40" fill="#FCFCFD" stroke="#EEF0F3" stroke-opacity="0.5"/>
<rect x="160" y="360" width="160" height="40" fill="#FCFCFD" stroke="#EEF0F3" stroke-opacity="0.5"/>
<rect x="160" y="400" width="160" height="40" fill="#FCFCFD" stroke="#EEF0F3" stroke-opacity="0.5"/>
<rect x="160" y="440" width="160" height="40" fill="white" fill-opacity="0.5" stroke="#EEF0F3" stroke-opacity="0.6"/>
<rect x="160" y="480" width="160" height="40" fill="#FCFCFD" stroke="#EEF0F3" stroke-opacity="0.5"/>
<rect x="160" y="520" width="160" height="40" fill="#FCFCFD" stroke="#EEF0F3" stroke-opacity="0.5"/>
<rect x="160" y="560" width="160" height="40" fill="#FCFCFD" stroke="#EEF0F3" stroke-opacity="0.5"/>
<rect x="160" y="600" width="160" height="40" fill="#FCFCFD" stroke="#EEF0F3" stroke-opacity="0.5"/>
<rect x="160" y="640" width="160" height="40" fill="#FCFCFD" stroke="#EEF0F3" stroke-opacity="0.5"/>
<rect x="160" y="680" width="160" height="40" fill="#FCFCFD" stroke="#EEF0F3" stroke-opacity="0.5"/>
<rect x="320" width="160" height="40" fill="#FCFCFD" stroke="#EEF0F3" stroke-opacity="0.5"/>
<rect x="320" y="40" width="160" height="40" fill="#FCFCFD" stroke="#EEF0F3" stroke-opacity="0.5"/>
<rect x="320" y="80" width="160" height="40" fill="#FCFCFD" stroke="#EEF0F3" stroke-opacity="0.5"/>
<rect x="320" y="120" width="160" height="40" fill="#FCFCFD" stroke="#EEF0F3" stroke-opacity="0.5"/>
<rect x="320" y="160" width="160" height="40" fill="white" fill-opacity="0.5" stroke="#EEF0F3" stroke-opacity="0.6"/>
<rect x="320" y="200" width="160" height="40" fill="#FCFCFD" stroke="#EEF0F3" stroke-opacity="0.5"/>
<rect x="320" y="240" width="160" height="40" fill="#FCFCFD" stroke="#EEF0F3" stroke-opacity="0.5"/>
<rect x="320" y="280" width="160" height="40" fill="#FCFCFD" stroke="#EEF0F3" stroke-opacity="0.5"/>
<rect x="320" y="320" width="160" height="40" fill="#FCFCFD" stroke="#EEF0F3" stroke-opacity="0.5"/>
<rect x="320" y="360" width="160" height="40" fill="#FCFCFD" stroke="#EEF0F3" stroke-opacity="0.5"/>
<rect x="320" y="400" width="160" height="40" fill="#FCFCFD" stroke="#EEF0F3" stroke-opacity="0.5"/>
<rect x="320" y="440" width="160" height="40" fill="#FCFCFD" stroke="#EEF0F3" stroke-opacity="0.5"/>
<rect x="320" y="480" width="160" height="40" fill="#FCFCFD" stroke="#EEF0F3" stroke-opacity="0.5"/>
<rect x="320" y="520" width="160" height="40" fill="#FCFCFD" stroke="#EEF0F3" stroke-opacity="0.5"/>
<rect x="320" y="560" width="160" height="40" fill="#FCFCFD" stroke="#EEF0F3" stroke-opacity="0.5"/>
<rect x="320" y="600" width="160" height="40" fill="#FCFCFD" stroke="#EEF0F3" stroke-opacity="0.5"/>
<rect x="320" y="640" width="160" height="40" fill="#FCFCFD" stroke="#EEF0F3" stroke-opacity="0.5"/>
<rect x="320" y="680" width="160" height="40" fill="#FCFCFD" stroke="#EEF0F3" stroke-opacity="0.5"/>
<rect x="480" width="160" height="40" fill="#FCFCFD" stroke="#EEF0F3" stroke-opacity="0.5"/>
<rect x="480" y="40" width="160" height="40" fill="#FCFCFD" stroke="#EEF0F3" stroke-opacity="0.5"/>
<rect x="480" y="80" width="160" height="40" fill="#FCFCFD" stroke="#EEF0F3" stroke-opacity="0.5"/>
<rect x="480" y="120" width="160" height="40" fill="#FCFCFD" stroke="#EEF0F3" stroke-opacity="0.5"/>
<rect x="480" y="160" width="160" height="40" fill="#FCFCFD" stroke="#EEF0F3" stroke-opacity="0.5"/>
<rect x="480" y="200" width="160" height="40" fill="#FCFCFD" stroke="#EEF0F3" stroke-opacity="0.5"/>
<rect x="480" y="240" width="160" height="40" fill="#FCFCFD" stroke="#EEF0F3" stroke-opacity="0.5"/>
<rect x="480" y="280" width="160" height="40" fill="#FCFCFD" stroke="#EEF0F3" stroke-opacity="0.5"/>
<rect x="480" y="320" width="160" height="40" fill="#FCFCFD" stroke="#EEF0F3" stroke-opacity="0.5"/>
<rect x="480" y="360" width="160" height="40" fill="#FCFCFD" stroke="#EEF0F3" stroke-opacity="0.5"/>
<rect x="480" y="400" width="160" height="40" fill="#FCFCFD" stroke="#EEF0F3" stroke-opacity="0.5"/>
<rect x="480" y="440" width="160" height="40" fill="#FCFCFD" stroke="#EEF0F3" stroke-opacity="0.5"/>
<rect x="480" y="480" width="160" height="40" fill="#FCFCFD" stroke="#EEF0F3" stroke-opacity="0.5"/>
<rect x="480" y="520" width="160" height="40" fill="white" fill-opacity="0.5" stroke="#EEF0F3" stroke-opacity="0.6"/>
<rect x="480" y="560" width="160" height="40" fill="#FCFCFD" stroke="#EEF0F3" stroke-opacity="0.5"/>
<rect x="480" y="600" width="160" height="40" fill="#FCFCFD" stroke="#EEF0F3" stroke-opacity="0.5"/>
<rect x="480" y="640" width="160" height="40" fill="#FCFCFD" stroke="#EEF0F3" stroke-opacity="0.5"/>
<rect x="480" y="680" width="160" height="40" fill="#FCFCFD" stroke="#EEF0F3" stroke-opacity="0.5"/>
<rect x="640" width="160" height="40" fill="#FCFCFD" stroke="#EEF0F3" stroke-opacity="0.5"/>
<rect x="640" y="40" width="160" height="40" fill="#FCFCFD" stroke="#EEF0F3" stroke-opacity="0.5"/>
<rect x="640" y="80" width="160" height="40" fill="#FCFCFD" stroke="#EEF0F3" stroke-opacity="0.5"/>
<rect x="640" y="120" width="160" height="40" fill="#FCFCFD" stroke="#EEF0F3" stroke-opacity="0.5"/>
<rect x="640" y="160" width="160" height="40" fill="#FCFCFD" stroke="#EEF0F3" stroke-opacity="0.5"/>
<rect x="640" y="200" width="160" height="40" fill="#FCFCFD" stroke="#EEF0F3" stroke-opacity="0.5"/>
<rect x="640" y="240" width="160" height="40" fill="#FCFCFD" stroke="#EEF0F3" stroke-opacity="0.5"/>
<rect x="640" y="280" width="160" height="40" fill="#FCFCFD" stroke="#EEF0F3" stroke-opacity="0.5"/>
<rect x="640" y="320" width="160" height="40" fill="#FCFCFD" stroke="#EEF0F3" stroke-opacity="0.5"/>
<rect x="640" y="360" width="160" height="40" fill="#FCFCFD" stroke="#EEF0F3" stroke-opacity="0.5"/>
<rect x="640" y="400" width="160" height="40" fill="#FCFCFD" stroke="#EEF0F3" stroke-opacity="0.5"/>
<rect x="640" y="440" width="160" height="40" fill="#FCFCFD" stroke="#EEF0F3" stroke-opacity="0.5"/>
<rect x="640" y="480" width="160" height="40" fill="#FCFCFD" stroke="#EEF0F3" stroke-opacity="0.5"/>
<rect x="640" y="520" width="160" height="40" fill="#FCFCFD" stroke="#EEF0F3" stroke-opacity="0.5"/>
<rect x="640" y="560" width="160" height="40" fill="#FCFCFD" stroke="#EEF0F3" stroke-opacity="0.5"/>
<rect x="640" y="600" width="160" height="40" fill="#FCFCFD" stroke="#EEF0F3" stroke-opacity="0.5"/>
<rect x="640" y="640" width="160" height="40" fill="#FCFCFD" stroke="#EEF0F3" stroke-opacity="0.5"/>
<rect x="640" y="680" width="160" height="40" fill="#FCFCFD" stroke="#EEF0F3" stroke-opacity="0.5"/>
<rect x="800" width="160" height="40" fill="#FCFCFD" stroke="#EEF0F3" stroke-opacity="0.5"/>
<rect x="800" y="40" width="160" height="40" fill="#FCFCFD" stroke="#EEF0F3" stroke-opacity="0.5"/>
<rect x="800" y="80" width="160" height="40" fill="#FCFCFD" stroke="#EEF0F3" stroke-opacity="0.5"/>
<rect x="800" y="120" width="160" height="40" fill="#FCFCFD" stroke="#EEF0F3" stroke-opacity="0.5"/>
<rect x="800" y="160" width="160" height="40" fill="#FCFCFD" stroke="#EEF0F3" stroke-opacity="0.5"/>
<rect x="800" y="200" width="160" height="40" fill="#FCFCFD" stroke="#EEF0F3" stroke-opacity="0.5"/>
<rect x="800" y="240" width="160" height="40" fill="#FCFCFD" stroke="#EEF0F3" stroke-opacity="0.5"/>
<rect x="800" y="280" width="160" height="40" fill="#FCFCFD" stroke="#EEF0F3" stroke-opacity="0.5"/>
<rect x="800" y="320" width="160" height="40" fill="#FCFCFD" stroke="#EEF0F3" stroke-opacity="0.5"/>
<rect x="800" y="360" width="160" height="40" fill="#FCFCFD" stroke="#EEF0F3" stroke-opacity="0.5"/>
<rect x="800" y="400" width="160" height="40" fill="#FCFCFD" stroke="#EEF0F3" stroke-opacity="0.5"/>
<rect x="800" y="440" width="160" height="40" fill="#FCFCFD" stroke="#EEF0F3" stroke-opacity="0.5"/>
<rect x="800" y="480" width="160" height="40" fill="#FCFCFD" stroke="#EEF0F3" stroke-opacity="0.5"/>
<rect x="800" y="520" width="160" height="40" fill="#FCFCFD" stroke="#EEF0F3" stroke-opacity="0.5"/>
<rect x="800" y="560" width="160" height="40" fill="#FCFCFD" stroke="#EEF0F3" stroke-opacity="0.5"/>
<rect x="800" y="600" width="160" height="40" fill="#FCFCFD" stroke="#EEF0F3" stroke-opacity="0.5"/>
<rect x="800" y="640" width="160" height="40" fill="#FCFCFD" stroke="#EEF0F3" stroke-opacity="0.5"/>
<rect x="800" y="680" width="160" height="40" fill="#FCFCFD" stroke="#EEF0F3" stroke-opacity="0.5"/>
<rect x="960" width="160" height="40" fill="#FCFCFD" stroke="#EEF0F3" stroke-opacity="0.5"/>
<rect x="960" y="40" width="160" height="40" fill="#FCFCFD" stroke="#EEF0F3" stroke-opacity="0.5"/>
<rect x="960" y="80" width="160" height="40" fill="#FCFCFD" stroke="#EEF0F3" stroke-opacity="0.5"/>
<rect x="960" y="120" width="160" height="40" fill="#FCFCFD" stroke="#EEF0F3" stroke-opacity="0.5"/>
<rect x="960" y="160" width="160" height="40" fill="#FCFCFD" stroke="#EEF0F3" stroke-opacity="0.5"/>
<rect x="960" y="200" width="160" height="40" fill="white" fill-opacity="0.5" stroke="#EEF0F3" stroke-opacity="0.6"/>
<rect x="960" y="240" width="160" height="40" fill="#FCFCFD" stroke="#EEF0F3" stroke-opacity="0.5"/>
<rect x="960" y="280" width="160" height="40" fill="#FCFCFD" stroke="#EEF0F3" stroke-opacity="0.5"/>
<rect x="960" y="320" width="160" height="40" fill="#FCFCFD" stroke="#EEF0F3" stroke-opacity="0.5"/>
<rect x="960" y="360" width="160" height="40" fill="#FCFCFD" stroke="#EEF0F3" stroke-opacity="0.5"/>
<rect x="960" y="400" width="160" height="40" fill="#FCFCFD" stroke="#EEF0F3" stroke-opacity="0.5"/>
<rect x="960" y="440" width="160" height="40" fill="#FCFCFD" stroke="#EEF0F3" stroke-opacity="0.5"/>
<rect x="960" y="480" width="160" height="40" fill="#FCFCFD" stroke="#EEF0F3" stroke-opacity="0.5"/>
<rect x="960" y="520" width="160" height="40" fill="#FCFCFD" stroke="#EEF0F3" stroke-opacity="0.5"/>
<rect x="960" y="560" width="160" height="40" fill="#FCFCFD" stroke="#EEF0F3" stroke-opacity="0.5"/>
<rect x="960" y="600" width="160" height="40" fill="white" fill-opacity="0.5" stroke="#EEF0F3" stroke-opacity="0.6"/>
<rect x="960" y="640" width="160" height="40" fill="white" fill-opacity="0.5" stroke="#EEF0F3" stroke-opacity="0.6"/>
<rect x="960" y="680" width="160" height="40" fill="white" fill-opacity="0.5" stroke="#EEF0F3" stroke-opacity="0.6"/>
<rect x="1120" width="160" height="40" fill="#FCFCFD" stroke="#EEF0F3" stroke-opacity="0.5"/>
<rect x="1120" y="40" width="160" height="40" fill="#FCFCFD" stroke="#EEF0F3" stroke-opacity="0.5"/>
<rect x="1120" y="80" width="160" height="40" fill="#FCFCFD" stroke="#EEF0F3" stroke-opacity="0.5"/>
<rect x="1120" y="120" width="160" height="40" fill="#FCFCFD" stroke="#EEF0F3" stroke-opacity="0.5"/>
<rect x="1120" y="160" width="160" height="40" fill="#FCFCFD" stroke="#EEF0F3" stroke-opacity="0.5"/>
<rect x="1120" y="200" width="160" height="40" fill="#FCFCFD" stroke="#EEF0F3" stroke-opacity="0.5"/>
<rect x="1120" y="240" width="160" height="40" fill="#FCFCFD" stroke="#EEF0F3" stroke-opacity="0.5"/>
<rect x="1120" y="280" width="160" height="40" fill="#FCFCFD" stroke="#EEF0F3" stroke-opacity="0.5"/>
<rect x="1120" y="320" width="160" height="40" fill="#FCFCFD" stroke="#EEF0F3" stroke-opacity="0.5"/>
<rect x="1120" y="360" width="160" height="40" fill="white" fill-opacity="0.5" stroke="#EEF0F3" stroke-opacity="0.6"/>
<rect x="1120" y="400" width="160" height="40" fill="#FCFCFD" stroke="#EEF0F3" stroke-opacity="0.5"/>
<rect x="1120" y="440" width="160" height="40" fill="#FCFCFD" stroke="#EEF0F3" stroke-opacity="0.5"/>
<rect x="1120" y="480" width="160" height="40" fill="#FCFCFD" stroke="#EEF0F3" stroke-opacity="0.5"/>
<rect x="1120" y="520" width="160" height="40" fill="#FCFCFD" stroke="#EEF0F3" stroke-opacity="0.5"/>
<rect x="1120" y="560" width="160" height="40" fill="#FCFCFD" stroke="#EEF0F3" stroke-opacity="0.5"/>
<rect x="1120" y="600" width="160" height="40" fill="#FCFCFD" stroke="#EEF0F3" stroke-opacity="0.5"/>
<rect x="1120" y="640" width="160" height="40" fill="#FCFCFD" stroke="#EEF0F3" stroke-opacity="0.5"/>
<rect x="1120" y="680" width="160" height="40" fill="#FCFCFD" stroke="#EEF0F3" stroke-opacity="0.5"/>
<rect x="1280" width="160" height="40" fill="#FCFCFD" stroke="#EEF0F3" stroke-opacity="0.5"/>
<rect x="1280" y="40" width="160" height="40" fill="#FCFCFD" stroke="#EEF0F3" stroke-opacity="0.5"/>
<rect x="1280" y="80" width="160" height="40" fill="#FCFCFD" stroke="#EEF0F3" stroke-opacity="0.5"/>
<rect x="1280" y="120" width="160" height="40" fill="#FCFCFD" stroke="#EEF0F3" stroke-opacity="0.5"/>
<rect x="1280" y="160" width="160" height="40" fill="#FCFCFD" stroke="#EEF0F3" stroke-opacity="0.5"/>
<rect x="1280" y="200" width="160" height="40" fill="#FCFCFD" stroke="#EEF0F3" stroke-opacity="0.5"/>
<rect x="1280" y="240" width="160" height="40" fill="#FCFCFD" stroke="#EEF0F3" stroke-opacity="0.5"/>
<rect x="1280" y="280" width="160" height="40" fill="#FCFCFD" stroke="#EEF0F3" stroke-opacity="0.5"/>
<rect x="1280" y="320" width="160" height="40" fill="#FCFCFD" stroke="#EEF0F3" stroke-opacity="0.5"/>
<rect x="1280" y="360" width="160" height="40" fill="#FCFCFD" stroke="#EEF0F3" stroke-opacity="0.5"/>
<rect x="1280" y="400" width="160" height="40" fill="#FCFCFD" stroke="#EEF0F3" stroke-opacity="0.5"/>
<rect x="1280" y="440" width="160" height="40" fill="#FCFCFD" stroke="#EEF0F3" stroke-opacity="0.5"/>
<rect x="1280" y="480" width="160" height="40" fill="#FCFCFD" stroke="#EEF0F3" stroke-opacity="0.5"/>
<rect x="1280" y="520" width="160" height="40" fill="white" fill-opacity="0.5" stroke="#EEF0F3" stroke-opacity="0.6"/>
<rect x="1280" y="560" width="160" height="40" fill="#FCFCFD" stroke="#EEF0F3" stroke-opacity="0.5"/>
<rect x="1280" y="600" width="160" height="40" fill="#FCFCFD" stroke="#EEF0F3" stroke-opacity="0.5"/>
<rect x="1280" y="640" width="160" height="40" fill="#FCFCFD" stroke="#EEF0F3" stroke-opacity="0.5"/>
<rect x="1280" y="680" width="160" height="40" fill="#FCFCFD" stroke="#EEF0F3" stroke-opacity="0.5"/>
<rect x="1440" width="160" height="40" fill="#FCFCFD" stroke="#EEF0F3" stroke-opacity="0.5"/>
<rect x="1440" y="40" width="160" height="40" fill="#FCFCFD" stroke="#EEF0F3" stroke-opacity="0.5"/>
<rect x="1440" y="80" width="160" height="40" fill="#FCFCFD" stroke="#EEF0F3" stroke-opacity="0.5"/>
<rect x="1440" y="120" width="160" height="40" fill="white" fill-opacity="0.5" stroke="#EEF0F3" stroke-opacity="0.6"/>
<rect x="1440" y="160" width="160" height="40" fill="#FCFCFD" stroke="#EEF0F3" stroke-opacity="0.5"/>
<rect x="1440" y="200" width="160" height="40" fill="#FCFCFD" stroke="#EEF0F3" stroke-opacity="0.5"/>
<rect x="1440" y="240" width="160" height="40" fill="#FCFCFD" stroke="#EEF0F3" stroke-opacity="0.5"/>
<rect x="1440" y="280" width="160" height="40" fill="#FCFCFD" stroke="#EEF0F3" stroke-opacity="0.5"/>
<rect x="1440" y="320" width="160" height="40" fill="#FCFCFD" stroke="#EEF0F3" stroke-opacity="0.5"/>
<rect x="1440" y="360" width="160" height="40" fill="#FCFCFD" stroke="#EEF0F3" stroke-opacity="0.5"/>
<rect x="1440" y="400" width="160" height="40" fill="#FCFCFD" stroke="#EEF0F3" stroke-opacity="0.5"/>
<rect x="1440" y="440" width="160" height="40" fill="#FCFCFD" stroke="#EEF0F3" stroke-opacity="0.5"/>
<rect x="1440" y="480" width="160" height="40" fill="#FCFCFD" stroke="#EEF0F3" stroke-opacity="0.5"/>
<rect x="1440" y="520" width="160" height="40" fill="#FCFCFD" stroke="#EEF0F3" stroke-opacity="0.5"/>
<rect x="1440" y="560" width="160" height="40" fill="#FCFCFD" stroke="#EEF0F3" stroke-opacity="0.5"/>
<rect x="1440" y="600" width="160" height="40" fill="#FCFCFD" stroke="#EEF0F3" stroke-opacity="0.5"/>
<rect x="1440" y="640" width="160" height="40" fill="#FCFCFD" stroke="#EEF0F3" stroke-opacity="0.5"/>
<rect x="1440" y="680" width="160" height="40" fill="#FCFCFD" stroke="#EEF0F3" stroke-opacity="0.5"/>
</g>
</svg>
