<svg fill="none" height="280" viewBox="0 0 438 280" width="438" xmlns="http://www.w3.org/2000/svg" xmlns:xlink="http://www.w3.org/1999/xlink"><filter id="a" color-interpolation-filters="sRGB" filterUnits="userSpaceOnUse" height="156" width="156" x="144" y="63"><feFlood flood-opacity="0" result="BackgroundImageFix"/><feGaussianBlur in="BackgroundImageFix" stdDeviation="4"/><feComposite in2="SourceAlpha" operator="in" result="effect1_backgroundBlur_2021_353"/><feColorMatrix in="SourceAlpha" result="hardAlpha" type="matrix" values="0 0 0 0 0 0 0 0 0 0 0 0 0 0 0 0 0 0 127 0"/><feOffset/><feGaussianBlur stdDeviation="2"/><feComposite in2="hardAlpha" operator="out"/><feColorMatrix type="matrix" values="0 0 0 0 0 0 0 0 0 0 0 0 0 0 0 0 0 0 0.08 0"/><feBlend in2="effect1_backgroundBlur_2021_353" mode="normal" result="effect2_dropShadow_2021_353"/><feBlend in="SourceGraphic" in2="effect2_dropShadow_2021_353" mode="normal" result="shape"/></filter><filter id="b" color-interpolation-filters="sRGB" filterUnits="userSpaceOnUse" height="124" width="124" x="160" y="79"><feFlood flood-opacity="0" result="BackgroundImageFix"/><feGaussianBlur in="BackgroundImageFix" stdDeviation="4"/><feComposite in2="SourceAlpha" operator="in" result="effect1_backgroundBlur_2021_353"/><feColorMatrix in="SourceAlpha" result="hardAlpha" type="matrix" values="0 0 0 0 0 0 0 0 0 0 0 0 0 0 0 0 0 0 127 0"/><feOffset/><feGaussianBlur stdDeviation="2"/><feComposite in2="hardAlpha" operator="out"/><feColorMatrix type="matrix" values="0 0 0 0 0 0 0 0 0 0 0 0 0 0 0 0 0 0 0.08 0"/><feBlend in2="effect1_backgroundBlur_2021_353" mode="normal" result="effect2_dropShadow_2021_353"/><feBlend in="SourceGraphic" in2="effect2_dropShadow_2021_353" mode="normal" result="shape"/></filter><filter id="c" color-interpolation-filters="sRGB" filterUnits="userSpaceOnUse" height="76" width="76" x="184" y="103"><feFlood flood-opacity="0" result="BackgroundImageFix"/><feColorMatrix in="SourceAlpha" result="hardAlpha" type="matrix" values="0 0 0 0 0 0 0 0 0 0 0 0 0 0 0 0 0 0 127 0"/><feMorphology in="SourceAlpha" operator="dilate" radius="2" result="effect1_dropShadow_2021_353"/><feOffset/><feComposite in2="hardAlpha" operator="out"/><feColorMatrix type="matrix" values="0 0 0 0 0 0 0 0 0 0 0 0 0 0 0 0 0 0 0.05 0"/><feBlend in2="BackgroundImageFix" mode="normal" result="effect1_dropShadow_2021_353"/><feBlend in="SourceGraphic" in2="effect1_dropShadow_2021_353" mode="normal" result="shape"/><feColorMatrix in="SourceAlpha" result="hardAlpha" type="matrix" values="0 0 0 0 0 0 0 0 0 0 0 0 0 0 0 0 0 0 127 0"/><feMorphology in="SourceAlpha" operator="erode" radius="2" result="effect2_innerShadow_2021_353"/><feOffset dy="1"/><feGaussianBlur stdDeviation=".5"/><feComposite in2="hardAlpha" k2="-1" k3="1" operator="arithmetic"/><feColorMatrix type="matrix" values="0 0 0 0 0.1152 0 0 0 0 0.1476 0 0 0 0 0.18 0 0 0 0.05 0"/><feBlend in2="shape" mode="normal" result="effect2_innerShadow_2021_353"/></filter><linearGradient id="d"><stop offset="0" stop-color="#ff784f"/><stop offset="1" stop-color="#ff784f" stop-opacity="0"/></linearGradient><linearGradient id="e" gradientUnits="userSpaceOnUse" x1="146.5" x2="146.5" xlink:href="#d" y1="115" y2="131"/><linearGradient id="f"><stop offset="0" stop-color="#ffb59e"/><stop offset="1" stop-color="#ffb59e" stop-opacity="0"/></linearGradient><linearGradient id="g" gradientUnits="userSpaceOnUse" x1="57" x2="57" xlink:href="#f" y1="184" y2="192"/><linearGradient id="h"><stop offset="0" stop-color="#fa5320"/><stop offset="1" stop-color="#fa5320" stop-opacity="0"/></linearGradient><linearGradient id="i" gradientUnits="userSpaceOnUse" x1="229" x2="229" xlink:href="#h" y1="97" y2="121"/><linearGradient id="j" gradientUnits="userSpaceOnUse" x1="1" x2="1" xlink:href="#h" y1="0" y2="16"/><linearGradient id="k" gradientUnits="userSpaceOnUse" x1="1" x2="1" xlink:href="#d" y1="0" y2="12"/><linearGradient id="l" gradientUnits="userSpaceOnUse" x1="259" x2="259" xlink:href="#f" y1="52" y2="60"/><linearGradient id="m" gradientUnits="userSpaceOnUse" x1="1" x2="1" xlink:href="#d" y1="0" y2="16"/><linearGradient id="n" gradientUnits="userSpaceOnUse" x1="1" x2="1" xlink:href="#f" y1="0" y2="8"/><mask id="o" height="280" maskUnits="userSpaceOnUse" width="438" x="0" y="0"><path d="m0 0h438v273c0 3.866-3.134 7-7 7h-424c-3.86599 0-7-3.134-7-7z" fill="#d9d9d9"/></mask><g mask="url(#o)"><g filter="url(#a)"><rect fill="#fff" fill-opacity=".4" height="140" rx="8" shape-rendering="crispEdges" width="140" x="152" y="71"/></g><g filter="url(#b)"><rect fill="#fff" fill-opacity=".2" height="108" rx="8" shape-rendering="crispEdges" width="108" x="168" y="87"/></g><path d="m176.5 116h-102.5l-17-17" stroke="#dfe3e8" stroke-linecap="round" stroke-width="2"/><rect fill="url(#e)" height="16" rx="1" transform="matrix(0 1 -1 0 260.5 -30.5)" width="2" x="145.5" y="115"/><g fill="#dfe3e8"><rect height="10" rx="1" width="2" x="216" y="100"/><rect height="10" rx="1" width="2" x="216" y="172"/><rect height="10" rx="1" transform="matrix(0 1 -1 0 326 -56)" width="2" x="191" y="135"/><rect height="10" rx="1" transform="matrix(0 1 -1 0 398 -128)" width="2" x="263" y="135"/><rect height="10" rx="1" width="2" x="236" y="100"/><rect height="10" rx="1" width="2" x="236" y="172"/><rect height="10" rx="1" transform="matrix(0 1 -1 0 346 -36)" width="2" x="191" y="155"/><rect height="10" rx="1" transform="matrix(0 1 -1 0 418 -108)" width="2" x="263" y="155"/><rect height="10" rx="1" width="2" x="246" y="100"/><rect height="10" rx="1" width="2" x="246" y="172"/><rect height="10" rx="1" transform="matrix(0 1 -1 0 356 -26)" width="2" x="191" y="165"/><rect height="10" rx="1" transform="matrix(0 1 -1 0 428 -98)" width="2" x="263" y="165"/><rect height="10" rx="1" width="2" x="196" y="100"/><rect height="10" rx="1" width="2" x="196" y="172"/><rect height="10" rx="1" transform="matrix(0 1 -1 0 306 -76)" width="2" x="191" y="115"/><rect height="10" rx="1" transform="matrix(0 1 -1 0 378 -148)" width="2" x="263" y="115"/><rect height="10" rx="1" width="2" x="206" y="100"/><rect height="10" rx="1" width="2" x="206" y="172"/><rect height="10" rx="1" transform="matrix(0 1 -1 0 316 -66)" width="2" x="191" y="125"/><rect height="10" rx="1" transform="matrix(0 1 -1 0 388 -138)" width="2" x="263" y="125"/><rect height="10" rx="1" width="2" x="226" y="100"/><rect height="10" rx="1" width="2" x="226" y="172"/><rect height="10" rx="1" transform="matrix(0 1 -1 0 336 -46)" width="2" x="191" y="145"/><rect height="10" rx="1" transform="matrix(0 1 -1 0 408 -118)" width="2" x="263" y="145"/></g><g filter="url(#c)"><rect fill="#fff" height="72" rx="8" width="72" x="186" y="105"/><rect height="71" rx="7.5" stroke="#dfe3e8" width="71" x="186.5" y="105.5"/></g><path d="m226.089 138.411c-.707.206-1.487.209-2.216.178-.848-.036-1.746-.145-2.529-.498-.644-.29-1.161-.813-.89-1.57.19-.533.613-1.01 1.102-1.278.549-.302 1.153-.253 1.702.02.617.307 1.131.805 1.596 1.309.244.263.476.537.706.814.106.127.825.855.529 1.025zm11.753.26c-1.088-.257-2.372-.165-3.463-.342-1.717-.278-4.275-2.308-5.661-4.371-.964-1.434-1.423-2.894-2.16-4.673-.514-1.242-1.635-5.17-3.202-3.331-.646.757-1.368 3.249-1.896 3.214-.391.092-.455-.68-.579-1.01-.224-.599-.343-1.293-.644-1.858-.241-.452-.557-.993-1.04-1.213-.862-.449-1.901.905-2.417 2.51-.22.861-1.702 2.53-2.348 2.934-2.936 1.837-8.83 3.772-9.431 10.217-.003.026 0 .108.099.034.703-.516 8.676-6.337 3.559 4.916-3.134 6.894 12.001 11.284 12.779 11.302.105.002.097-.046.101-.078 1.207-11.003 13.139-9.845 15.918-12.48 2.753-2.611 2.809-5.139.385-5.771" fill="#fa5320"/><path d="m177 136h-150" stroke="#eef0f3" stroke-linecap="round" stroke-width="2"/><path d="m176.5 166h-107.5l-12 12v18" stroke="#dfe3e8" stroke-linecap="round" stroke-width="2"/><rect fill="url(#g)" height="8" rx="1" width="2" x="56" y="184"/><g stroke-linecap="round" stroke-width="2"><path d="m207 95v-51" stroke="#eef0f3"/><path d="m227 95.5v-63.5l-12.5-12.5v-10.5" stroke="#dfe3e8"/><path d="m247 95.5v-37.5h10v-34" stroke="#dfe3e8"/><path d="m267 126h86.5l8 8h28.5" stroke="#dfe3e8"/><path d="m267 146h153" stroke="#dfe3e8"/><path d="m267 156h49.5l10.5 10.5h80" stroke="#eef0f3"/><path d="m237 187v52l9.5 9.5" stroke="#dfe3e8"/><path d="m217 187v30.5l-9 9v36" stroke="#eef0f3"/><path d="m197 187v59l-15.5 15.5" stroke="#dfe3e8"/></g><rect fill="url(#i)" height="24" rx="1" transform="matrix(-1 0 0 -1 456 194)" width="2" x="228" y="97"/><rect fill="url(#j)" height="16" rx="1" transform="matrix(-1 .00000009 .00000009 1 238 198)" width="2"/><rect fill="url(#k)" height="12" rx="1" transform="matrix(-1 .00000009 .00000009 1 198 222)" width="2"/><rect fill="url(#l)" height="8" rx="1" transform="matrix(-1 0 0 -1 516 104)" width="2" x="258" y="52"/><rect fill="url(#m)" height="16" rx="1" transform="matrix(.00000004 1 1 -.00000004 283 145)" width="2"/><rect fill="url(#n)" height="8" rx="1" transform="matrix(.00000004 1 1 -.00000004 370 133)" width="2"/></g></svg>