<svg fill="none" height="420" viewBox="0 0 440 420" width="440" xmlns="http://www.w3.org/2000/svg" xmlns:xlink="http://www.w3.org/1999/xlink"><clipPath id="a"><path d="m0 0h440v420h-440z" transform="matrix(-1 0 0 1 440 0)"/></clipPath><mask id="b" height="420" maskUnits="userSpaceOnUse" width="440" x="0" y="0"><path d="m0 8c0-4.41828 3.58172-8 8-8h424c4.418 0 8 3.58172 8 8v404c0 4.418-3.582 8-8 8h-424.00001c-4.41828 0-7.99999-3.582-7.99999-8z" fill="#fcfcfd" fill-opacity=".5"/><path d="m8-1h424v2h-424zm433 9v404h-2v-404zm-9 413h-424.00001v-2h424.00001zm-433-9v-404h2v404zm8.99999 9c-4.97056 0-8.99999-4.029-8.99999-9h2c0 3.866 3.134 7 6.99999 7zm433.00001-9c0 4.971-4.029 9-9 9v-2c3.866 0 7-3.134 7-7zm-9-413c4.971 0 9 4.02944 9 9h-2c0-3.86599-3.134-7-7-7zm-424 2c-3.86599 0-7 3.13401-7 7h-2c0-4.97056 4.02944-9 9-9z" fill="#eef0f3" mask="url(#c)"/></mask><mask id="c" fill="#fff"><path d="m0 8c0-4.41828 3.58172-8 8-8h424c4.418 0 8 3.58172 8 8v404c0 4.418-3.582 8-8 8h-424.00001c-4.41828 0-7.99999-3.582-7.99999-8z" fill="#fff"/></mask><g clip-path="url(#a)"><g mask="url(#b)" stroke="#eef0f3"><circle cx="218.489" cy="218.489" r="217.989" transform="matrix(-1 0 0 1 868.489 -238.489)"/><circle cx="283.897" cy="283.897" r="283.397" transform="matrix(-1 0 0 1 933.896 -303.897)"/><path d="m301.196-20c0 193.409 156.477 350.196 349.5 350.196 193.022 0 349.504-156.787 349.504-350.196s-156.482-350.196-349.504-350.196c-193.023 0-349.5 156.787-349.5 350.196z"/><circle cx="436.978" cy="436.978" r="436.478" transform="matrix(-1 0 0 1 1086.98 -456.978)"/><circle cx="569.185" cy="569.185" r="568.685" transform="matrix(-1 0 0 1 1219.19 -589.185)"/><circle cx="700" cy="700" r="699.5" transform="matrix(-1 0 0 1 1350 -720)"/></g></g></svg>