<svg fill="none" height="56" viewBox="0 0 56 56" width="56" xmlns="http://www.w3.org/2000/svg"><path d="m24.2148 8.4336c2.1168.8064 4.4576.7504 6.6976.448.3024-.0448.6384-.1008.8512-.336.0336-.0448.0672-.0896.0784-.1456 0-.056 0-.112-.0224-.1568-.1456-.4592-.3024-.9296-.504-1.3664-.2688-.5824-.6384-1.1088-1.0864-1.568-.2016-.2016-.4144-.392-.6832-.4928-.1904-.0672-.392-.0896-.5936-.1008-.4816-.0336-.952-.0224-1.4336.0112-.4256.0336-.8624.1008-1.2096.3472-.1568.112-.2912.2576-.4256.4144-.6272.728-1.1424 1.5456-1.5232 2.4304" fill="#9bd2ff"/><path d="m13.9219 47.3312c.9296.3584 1.9936.3248 2.9008-.0896.5936 1.1872 2.1728 1.7696 3.4048 1.2544.4704.4928.952 1.008 1.5568 1.3216s1.3664.4144 1.9712.0896c.784 1.1648 2.688 1.3216 3.6512.3024.5712.5264 1.4112.616 2.184.6496.4144.0224.8512.0336 1.2432-.112s.7392-.4928.7616-.9072c1.0528.6832 2.6768.1008 3.0576-1.0976.6832.2576 1.456.1008 2.0944-.2464s1.1536-.8736 1.6688-1.3888c1.8032 1.1984 1.8928 1.3888 4.0544 1.176 0 0-.9632 1.232-4.5136 2.4304s-8.0528 2.3632-11.5024 2.2064-5.544-.448-7.7168-1.232-2.7104-1.008-4.0432-1.6688" fill="#c8e6ff"/><path d="m25.5249 41.4736c-.7168-.056-1.456-.1232-2.0608-.5152s-.9856-1.2208-.6384-1.848c-.9968-.3808-1.792-1.2432-2.0944-2.2624-1.0976 1.5344-2.6768 2.7216-4.4576 3.3376-.56-3.4384-.4592-6.9888.3024-10.3824.0896-.392.2016-.8064.504-1.064.3472-.2912.8288-.2912 1.2432-.4704 1.1872-.504 1.3664-2.072 1.4224-3.3712.2128-4.7376 1.232-9.4304 3.0016-13.832-7.8176 2.24-13.55199 9.4304-13.55199 17.9648 0 9.8336 7.59359 17.8752 17.23679 18.6256.056-2.0944-.2464-4.2-.9072-6.1824z" fill="#c8e6ff"/><path d="m32.9845 11.0432c1.2768 4.2224 2.2624 8.5232 2.912 12.8912.2352 1.5568.5712 3.3488 1.9376 4.1328.4592.2688 1.0416.4144 1.3328.8624.1792.28.2128.6272.2464.9632.2688 3.4272.224 6.888-.1232 10.304-1.6464-.56-3.08-1.7248-3.976-3.2144-1.1648.28-2.184 1.1088-2.7104 2.184-.1568.3248-.28.672-.5264.9184-.4032.4032-1.0752.4928-1.3664.9632-.1344.2128-.168.4704-.1904.7168-.1904 1.9152.1232 3.864.84 5.6448 8.68-1.6128 15.2656-9.2176 15.2656-18.3792 0-8.568-5.768-15.7808-13.6304-17.9872z" fill="#c8e6ff"/><path d="m49.246 12.7344c2.6208 3.9648 4.1552 8.7136 4.1552 13.8208 0 13.8432-11.2224 25.0656-25.0768 25.0656s-25.06563-11.2224-25.06563-25.0656c0-10.1808 6.0704-18.928 14.77283-22.8592-9.60963 3.9088-16.39683 13.328-16.39683 24.3488 0 14.5152 11.76003 26.2752 26.27523 26.2752s26.2752-11.76 26.2752-26.2752c0-5.712-1.8256-10.9984-4.928-15.3104z" fill="#c8e6ff"/><path d="m24.0576 46.1888c.7056-2.1952.9744-4.5024.784-6.7872 1.2096-.1008 2.4304.0224 3.6512-.056 1.3776-.0896 2.744-.448 4.1216-.3808-.7952.8736-.9856 2.0608-1.0528 3.192-.0784 1.2544-.0336 2.5088.1344 3.752.0224.1568.0336.3248-.0784.4368-.0896.0896-.2352.1232-.3696.1344-2.0944.2912-4.2448.2128-6.3056-.224" fill="#0f8df4"/><path d="m17.0688 31.584c.672.2464 1.4672.0672 1.9824-.4256s.7056-1.288.4928-1.9712c3.8752.2464 7.7056-1.6576 10.3264-4.5248 2.632-2.8672 4.1552-6.5968 4.9504-10.4048.8624 5.6448 1.3328 11.3568 1.4336 17.0688.9408.2688 1.96.2464 2.8896-.0448.4704 2.5536.7168 5.1632.728 7.7616-.7056.0448-1.2992-.4592-1.8144-.9408-.9184-.84-1.848-1.6912-2.7664-2.5312-.3584.5936-.9408 1.0304-1.6128 1.2096-.168.0448-.3584.0896-.4704.224-.0896.1232-.0896.2912-.1008.448-.0336.84-.4592 1.7024-1.2096 2.0832-.3584.1792-.7616.2352-1.1536.28-2.4304.28-4.9168.168-7.3136-.3472-.1792-.0336-.3696-.0784-.5264-.1904-.448-.336-.336-1.0192-.3696-1.5792 0-.1568-.0336-.3136-.1344-.4256s-.2464-.1568-.3808-.2128c-.6384-.2464-1.1648-.7616-1.4448-1.3888-1.3552 1.3328-2.7104 2.6768-4.0656 4.0096.4032-2.6432.56-5.32.448-7.9968" fill="#c7cdd4"/><g stroke-linecap="round" stroke-linejoin="round"><path d="m29.7245 54.2528c13.6864-.9184 24.4944-12.2976 24.4944-26.2192s-11.76-26.264-26.264-26.264-26.27521 11.76-26.27521 26.2752" stroke="#262626" stroke-width="1.2"/><path d="m1.75879 30.1728c1.0864 13.5184 12.39841 24.1472 26.18561 24.1472" stroke="#262626" stroke-width=".93"/><path d="m30.0157 37.8672c1.4112-.1456 2.4864-.4256 3.2704-.7168 1.176-.4368 2.072-1.3888 2.408-2.5984.6048-2.1728 1.2432-6.6864.0336-14.784-1.064-7.0896-3.4384-11.4352-5.2864-13.8656-1.2656-1.6576-3.7408-1.6576-5.0064 0-1.848 2.4304-4.2224 6.776-5.2864 13.8656-1.2096 8.0864-.5712 12.6.0336 14.784.336 1.2096 1.232 2.1616 2.408 2.5984.784.2912 1.8592.5712 3.2592.7168" stroke="#262626" stroke-width="1.2"/><path d="m31.7965 8.6688s-1.7248.672-3.8416.672-3.8416-.672-3.8416-.672" stroke="#262626" stroke-width="1.2"/><path d="m27.9551 28.224v12.3088" stroke="#262626" stroke-width="1.2"/><path d="m19.0735 26.5552-1.9712 1.4672-.616 11.3232 3.92-3.416" stroke="#262626" stroke-width="1.2"/><path d="m36.8255 26.5552 1.9712 1.4672.616 11.3232-3.9088-3.416" stroke="#262626" stroke-width="1.2"/><path d="m30.1611 40.0288c.5824-.0784 1.1088-.168 1.568-.28.7952-.1904 1.344-.9072 1.344-1.7248v-.7952" stroke="#262626" stroke-width="1.2"/><path d="m22.3779 37.1504v.8736c0 .8176.5488 1.5344 1.344 1.7248.5824.1344 1.2432.2576 2.0048.3248" stroke="#262626" stroke-width="1.2"/><path d="m25.2333 41.8992s.168 2.072-.2128 4.6928" stroke="#262626" stroke-width="1.2"/><path d="m30.6653 41.8992s-.168 2.0272.1904 4.592" stroke="#262626" stroke-width="1.2"/><path d="m44.7892 36.9376c1.4-2.6544 2.1952-5.6784 2.1952-8.8928 0-7.84-4.7264-14.56-11.4912-17.4832" stroke="#262626" stroke-width=".55"/><path d="m12.7342 16.5984c-2.3968 3.192-3.81916 7.1456-3.81916 11.4464 0 8.3664 5.39836 15.4672 12.89116 18.0208 1.9264.6608 3.9984 1.0192 6.1488 1.0192s4.1664-.3472 6.0704-.9856c4.032-1.3552 7.4592-4.0208 9.7776-7.4816" stroke="#262626" stroke-width="1.2"/><path d="m20.5408 10.4944c-2.4976 1.0528-4.7152 2.632-6.5408 4.5808" stroke="#262626" stroke-width=".55"/><path d="m27.9551 49.5152v2.3744" stroke="#0f8df4" stroke-width="1.2"/><path d="m31.4609 49.168.4704 2.3296" stroke="#0f8df4" stroke-width="1.2"/><path d="m34.832 48.1376.9184 2.1952" stroke="#0f8df4" stroke-width="1.2"/><path d="m37.9453 46.4688 1.3216 1.9712" stroke="#0f8df4" stroke-width="1.2"/><path d="m24.4387 49.168-.4592 2.3296" stroke="#0f8df4" stroke-width="1.2"/><path d="m21.0668 48.1376-.9184 2.1952" stroke="#0f8df4" stroke-width="1.2"/><path d="m17.9646 46.4688-1.3328 1.9712" stroke="#0f8df4" stroke-width="1.2"/></g><path d="m27.9437 23.0832c1.8124 0 3.2816-1.4692 3.2816-3.2816s-1.4692-3.2816-3.2816-3.2816-3.2816 1.4692-3.2816 3.2816 1.4692 3.2816 3.2816 3.2816z" fill="#0f8df4"/></svg>